%TF.GenerationSoftware,KiCad,Pcbnew,9.0.7*%
%TF.CreationDate,2026-03-05T22:31:15+08:00*%
%TF.ProjectId,pumper,70756d70-6572-42e6-9b69-6361645f7063,rev?*%
%TF.SameCoordinates,Original*%
%TF.FileFunction,Copper,L2,Inr*%
%TF.FilePolarity,Positive*%
%FSLAX46Y46*%
G04 Gerber Fmt 4.6, Leading zero omitted, Abs format (unit mm)*
G04 Created by KiCad (PCBNEW 9.0.7) date 2026-03-05 22:31:15*
%MOMM*%
%LPD*%
G01*
G04 APERTURE LIST*
%TA.AperFunction,ComponentPad*%
%ADD10C,0.700000*%
%TD*%
%TA.AperFunction,ComponentPad*%
%ADD11C,4.400000*%
%TD*%
%TA.AperFunction,ComponentPad*%
%ADD12C,0.300000*%
%TD*%
%TA.AperFunction,HeatsinkPad*%
%ADD13C,0.500000*%
%TD*%
%TA.AperFunction,ComponentPad*%
%ADD14R,1.950000X1.950000*%
%TD*%
%TA.AperFunction,ComponentPad*%
%ADD15C,1.950000*%
%TD*%
%TA.AperFunction,ComponentPad*%
%ADD16C,3.300000*%
%TD*%
%TA.AperFunction,ComponentPad*%
%ADD17C,0.600000*%
%TD*%
%TA.AperFunction,ComponentPad*%
%ADD18O,1.300000X2.300000*%
%TD*%
%TA.AperFunction,ComponentPad*%
%ADD19O,1.300000X2.100000*%
%TD*%
%TA.AperFunction,ComponentPad*%
%ADD20C,0.500000*%
%TD*%
%TA.AperFunction,ViaPad*%
%ADD21C,0.600000*%
%TD*%
%TA.AperFunction,ViaPad*%
%ADD22C,0.450000*%
%TD*%
G04 APERTURE END LIST*
D10*
%TO.N,GND*%
%TO.C,H5*%
X123375000Y-143700000D03*
X123858274Y-142533274D03*
X123858274Y-144866726D03*
X125025000Y-142050000D03*
D11*
X125025000Y-143700000D03*
D10*
X125025000Y-145350000D03*
X126191726Y-142533274D03*
X126191726Y-144866726D03*
X126675000Y-143700000D03*
%TD*%
D12*
%TO.N,-4V5*%
%TO.C,U8*%
X130400000Y-132200000D03*
X130975000Y-131250000D03*
X129825000Y-131250000D03*
X130400000Y-130300000D03*
%TD*%
D13*
%TO.N,GND*%
%TO.C,U2*%
X125950000Y-99900000D03*
X127050000Y-99900000D03*
%TD*%
D10*
%TO.N,GND*%
%TO.C,H4*%
X151200000Y-56600000D03*
X151683274Y-55433274D03*
X151683274Y-57766726D03*
X152850000Y-54950000D03*
D11*
X152850000Y-56600000D03*
D10*
X152850000Y-58250000D03*
X154016726Y-55433274D03*
X154016726Y-57766726D03*
X154500000Y-56600000D03*
%TD*%
%TO.N,GND*%
%TO.C,H3*%
X123375000Y-56600000D03*
X123858274Y-55433274D03*
X123858274Y-57766726D03*
X125025000Y-54950000D03*
D11*
X125025000Y-56600000D03*
D10*
X125025000Y-58250000D03*
X126191726Y-55433274D03*
X126191726Y-57766726D03*
X126675000Y-56600000D03*
%TD*%
D13*
%TO.N,GND*%
%TO.C,U4*%
X132300000Y-79300000D03*
X132300000Y-80750000D03*
X132300000Y-82200000D03*
X133750000Y-79300000D03*
X133750000Y-80750000D03*
X133750000Y-82200000D03*
X135200000Y-79300000D03*
X135200000Y-80750000D03*
X135200000Y-82200000D03*
%TD*%
D10*
%TO.N,GND*%
%TO.C,H6*%
X151200000Y-143700000D03*
X151683274Y-142533274D03*
X151683274Y-144866726D03*
X152850000Y-142050000D03*
D11*
X152850000Y-143700000D03*
D10*
X152850000Y-145350000D03*
X154016726Y-142533274D03*
X154016726Y-144866726D03*
X154500000Y-143700000D03*
%TD*%
D14*
%TO.N,GND*%
%TO.C,VR1*%
X148050000Y-136900000D03*
D15*
%TO.N,/Audio processing/VOLOUTL*%
X145550000Y-136900000D03*
%TO.N,/Audio processing/1652OUTL*%
X148050000Y-66900000D03*
D14*
%TO.N,GND*%
X153050000Y-136900000D03*
D15*
%TO.N,/Audio processing/VOLOUTR*%
X150550000Y-136900000D03*
%TO.N,/Audio processing/1652OUTR*%
X153050000Y-66900000D03*
D16*
%TO.N,GND*%
X149300000Y-126900000D03*
X149300000Y-79400000D03*
%TD*%
D13*
%TO.N,GND*%
%TO.C,U1*%
X138550000Y-68825000D03*
X139650000Y-68825000D03*
%TD*%
D17*
%TO.N,GND*%
%TO.C,U3*%
X145728928Y-61279775D03*
X145728928Y-60279775D03*
X145728928Y-59279775D03*
%TD*%
D18*
%TO.N,GND*%
%TO.C,J1*%
X138380000Y-59870000D03*
D19*
X138380000Y-55670000D03*
D20*
X136050000Y-57050000D03*
X136050000Y-55050000D03*
X132050000Y-57050000D03*
X132050000Y-55050000D03*
D18*
X129720000Y-59870000D03*
D19*
X129720000Y-55670000D03*
%TD*%
D21*
%TO.N,GND*%
X149200000Y-144100000D03*
X149100000Y-141400000D03*
%TO.N,+3V3*%
X128700000Y-85300000D03*
%TO.N,/MCU/GP12*%
X130200000Y-85500000D03*
%TO.N,GND*%
X127500000Y-83400000D03*
%TO.N,/MCU/GP12*%
X143700000Y-141400000D03*
%TO.N,VBUS*%
X145500000Y-144000000D03*
X142600000Y-142800000D03*
%TO.N,GND*%
X145500000Y-141400000D03*
X144600000Y-144800000D03*
X140600000Y-122300000D03*
X125700000Y-123200000D03*
%TO.N,VBUS*%
X130400000Y-68500000D03*
X126250000Y-97400000D03*
X141668928Y-58749775D03*
D22*
%TO.N,GND*%
X122900000Y-68050000D03*
D21*
%TO.N,VBUS*%
X137000000Y-67712500D03*
X148450000Y-60410847D03*
X130800000Y-64400000D03*
X148450000Y-60410847D03*
X137000000Y-67112500D03*
%TO.N,+3V3*%
X128400000Y-81050000D03*
X139350000Y-70462500D03*
X139850000Y-76540000D03*
X139350000Y-82150000D03*
X128350000Y-76900000D03*
X137050000Y-89650000D03*
X138100000Y-85650000D03*
X138600000Y-70462500D03*
X132100000Y-76150000D03*
D22*
%TO.N,GND*%
X147000000Y-145800000D03*
D21*
X128200000Y-100800000D03*
X150378928Y-58459775D03*
D22*
X148500000Y-145800000D03*
D21*
X132000000Y-98600000D03*
X126500000Y-98309620D03*
X124700000Y-98900000D03*
X126300000Y-133250000D03*
X130425000Y-110900000D03*
X131424265Y-86924265D03*
D22*
X122900000Y-113050000D03*
X122900000Y-66550000D03*
D21*
X140600000Y-78300000D03*
X131100000Y-124680000D03*
D22*
X122900000Y-117550000D03*
X122900000Y-69550000D03*
D21*
X141200000Y-80150000D03*
D22*
X122900000Y-83050000D03*
X140000000Y-54500000D03*
D21*
X137200000Y-128000000D03*
D22*
X122900000Y-139850000D03*
X122900000Y-120550000D03*
X122900000Y-125050000D03*
D21*
X126500000Y-81950000D03*
X141040000Y-70076000D03*
X136800000Y-118300000D03*
X141818928Y-56779775D03*
D22*
X148900000Y-54500000D03*
D21*
X142100000Y-68800000D03*
D22*
X122900000Y-131050000D03*
X122900000Y-128050000D03*
X150000000Y-145800000D03*
D21*
X136535000Y-114450000D03*
D22*
X122900000Y-137050000D03*
D21*
X137820000Y-74700000D03*
X128425000Y-104600000D03*
D22*
X132000000Y-145800000D03*
D21*
X131100000Y-123780000D03*
X127700000Y-62500000D03*
D22*
X122900000Y-111550000D03*
X122900000Y-141350000D03*
X122900000Y-126550000D03*
X144500000Y-54500000D03*
D21*
X127700000Y-61600000D03*
X148587188Y-59389775D03*
D22*
X122900000Y-107050000D03*
D21*
X130500000Y-65700000D03*
X131300000Y-143450000D03*
D22*
X122900000Y-108550000D03*
X141500000Y-54500000D03*
D21*
X137820000Y-75400000D03*
X142939153Y-63700000D03*
D22*
X133500000Y-145800000D03*
X122900000Y-65050000D03*
X122900000Y-102550000D03*
X122900000Y-119050000D03*
D21*
X137300000Y-131550000D03*
D22*
X122900000Y-129550000D03*
D21*
X130600000Y-127750000D03*
D22*
X141300000Y-145800000D03*
X139900000Y-145800000D03*
X122900000Y-86050000D03*
X122900000Y-122050000D03*
D21*
X130000000Y-69500000D03*
X125450000Y-103650000D03*
X145239153Y-56300000D03*
X137430000Y-125185000D03*
X139150000Y-67025000D03*
D22*
X122900000Y-116050000D03*
X144300000Y-145800000D03*
D21*
X130950000Y-74450000D03*
D22*
X122900000Y-75550000D03*
X122900000Y-110050000D03*
X122900000Y-80050000D03*
D21*
X130900000Y-142000000D03*
X135400000Y-87800003D03*
X130900000Y-138000000D03*
X137235000Y-107900000D03*
X135250000Y-65150000D03*
X136800000Y-117400000D03*
D22*
X150400000Y-54500000D03*
D21*
X142400000Y-135350000D03*
X151539153Y-60400000D03*
X134429808Y-131125000D03*
D22*
X145600000Y-145800000D03*
X122900000Y-96550000D03*
X122900000Y-78550000D03*
D21*
X130600000Y-134750000D03*
D22*
X135000000Y-145800000D03*
X122900000Y-63550000D03*
X122900000Y-132550000D03*
X122900000Y-90550000D03*
X122900000Y-89050000D03*
D21*
X151008928Y-61279775D03*
D22*
X122900000Y-72550000D03*
X122900000Y-87550000D03*
D21*
X126730000Y-119285000D03*
X133550000Y-91050000D03*
X132325000Y-107900000D03*
X140788928Y-58749775D03*
D22*
X122900000Y-93550000D03*
X122900000Y-135550000D03*
D21*
X131315000Y-101830000D03*
D22*
X122900000Y-104050000D03*
X122900000Y-74050000D03*
D21*
X126500000Y-79950000D03*
X141200000Y-81150000D03*
X138200000Y-87000000D03*
X126450000Y-77900000D03*
D22*
X122900000Y-101050000D03*
X122900000Y-60550000D03*
D21*
X130500000Y-66800000D03*
X147428928Y-61979775D03*
D22*
X142800000Y-145800000D03*
X122900000Y-77050000D03*
X122900000Y-62050000D03*
D21*
X137175000Y-102062500D03*
X132700000Y-101800000D03*
D22*
X122900000Y-81550000D03*
D21*
X139949000Y-84538404D03*
D22*
X130600000Y-145800000D03*
D21*
X131525000Y-112950000D03*
D22*
X147400000Y-54500000D03*
X122900000Y-95050000D03*
X146000000Y-54500000D03*
X122900000Y-98050000D03*
X122900000Y-114550000D03*
X143000000Y-54500000D03*
X122900000Y-84550000D03*
X122900000Y-123550000D03*
X122900000Y-71050000D03*
X122900000Y-99550000D03*
X122900000Y-92050000D03*
D21*
X128400000Y-91300000D03*
D22*
X122900000Y-134050000D03*
X122900000Y-105550000D03*
X122900000Y-138550000D03*
D21*
X137820000Y-74000000D03*
%TO.N,-4V5*%
X135200000Y-127200000D03*
X147584664Y-58535511D03*
X128400000Y-122330000D03*
X141704187Y-57950550D03*
X143800000Y-101400000D03*
%TO.N,+4V5*%
X143682664Y-61159775D03*
X137100000Y-129950000D03*
X144139153Y-62579775D03*
X133800000Y-117300000D03*
X127400000Y-129550000D03*
X143024971Y-104400000D03*
X150318928Y-62229775D03*
%TO.N,+AUDIO_3V3*%
X129525000Y-102700000D03*
X137335000Y-112750000D03*
X129525000Y-108500000D03*
X126550000Y-101500000D03*
%TO.N,Net-(F1-Pad1)*%
X136450000Y-62300000D03*
%TO.N,+1V1*%
X139350000Y-79450000D03*
X133970000Y-72600000D03*
X128350000Y-79150000D03*
X133970000Y-71850000D03*
X133970000Y-73350000D03*
X133975735Y-86124265D03*
%TO.N,/MCU/SWCLK*%
X135400000Y-87000000D03*
%TO.N,/MCU/SWDIO*%
X135800000Y-88593655D03*
%TO.N,GP19*%
X141174265Y-82825735D03*
X139813278Y-83750000D03*
%TO.N,/Audio processing/1652OUTL*%
X131800000Y-117225000D03*
%TO.N,/Audio processing/1652OUTR*%
X136700000Y-119800000D03*
%TD*%
%TA.AperFunction,Conductor*%
%TO.N,GND*%
G36*
X129058588Y-54120185D02*
G01*
X129104343Y-54172989D01*
X129114287Y-54242147D01*
X129085262Y-54305703D01*
X129064434Y-54324819D01*
X128970824Y-54392829D01*
X128842823Y-54520830D01*
X128736434Y-54667265D01*
X128654252Y-54828552D01*
X128654251Y-54828555D01*
X128598317Y-55000706D01*
X128570000Y-55179493D01*
X128570000Y-55420000D01*
X129470000Y-55420000D01*
X129470000Y-55920000D01*
X128570000Y-55920000D01*
X128570000Y-56160506D01*
X128598317Y-56339293D01*
X128654251Y-56511444D01*
X128654252Y-56511447D01*
X128736434Y-56672734D01*
X128842823Y-56819169D01*
X128970830Y-56947176D01*
X129117265Y-57053565D01*
X129278552Y-57135747D01*
X129278555Y-57135748D01*
X129450699Y-57191680D01*
X129450712Y-57191683D01*
X129470000Y-57194738D01*
X129470000Y-56119728D01*
X129508060Y-56211614D01*
X129578386Y-56281940D01*
X129670272Y-56320000D01*
X129769728Y-56320000D01*
X129861614Y-56281940D01*
X129931940Y-56211614D01*
X129970000Y-56119728D01*
X129970000Y-57194737D01*
X129989287Y-57191683D01*
X129989300Y-57191680D01*
X130061296Y-57168288D01*
X130161444Y-57135748D01*
X130161447Y-57135747D01*
X130322734Y-57053565D01*
X130368709Y-57020163D01*
X131900000Y-57020163D01*
X131900000Y-57079837D01*
X131922836Y-57134968D01*
X131965032Y-57177164D01*
X132020163Y-57200000D01*
X132079837Y-57200000D01*
X132134968Y-57177164D01*
X132177164Y-57134968D01*
X132200000Y-57079837D01*
X132200000Y-57020163D01*
X135900000Y-57020163D01*
X135900000Y-57079837D01*
X135922836Y-57134968D01*
X135965032Y-57177164D01*
X136020163Y-57200000D01*
X136079837Y-57200000D01*
X136134968Y-57177164D01*
X136177164Y-57134968D01*
X136200000Y-57079837D01*
X136200000Y-57020163D01*
X136177164Y-56965032D01*
X136134968Y-56922836D01*
X136079837Y-56900000D01*
X136020163Y-56900000D01*
X135965032Y-56922836D01*
X135922836Y-56965032D01*
X135900000Y-57020163D01*
X132200000Y-57020163D01*
X132177164Y-56965032D01*
X132134968Y-56922836D01*
X132079837Y-56900000D01*
X132020163Y-56900000D01*
X131965032Y-56922836D01*
X131922836Y-56965032D01*
X131900000Y-57020163D01*
X130368709Y-57020163D01*
X130469169Y-56947176D01*
X130597170Y-56819175D01*
X130611102Y-56799999D01*
X131341759Y-56799999D01*
X131341759Y-56800000D01*
X131800000Y-56800000D01*
X132300000Y-56800000D01*
X132758241Y-56800000D01*
X132758240Y-56799999D01*
X135341759Y-56799999D01*
X135341759Y-56800000D01*
X135800000Y-56800000D01*
X136300000Y-56800000D01*
X136758241Y-56800000D01*
X136758240Y-56799999D01*
X136714642Y-56694745D01*
X136714637Y-56694735D01*
X136632563Y-56571903D01*
X136632560Y-56571899D01*
X136528100Y-56467439D01*
X136528096Y-56467436D01*
X136405264Y-56385362D01*
X136405254Y-56385357D01*
X136300000Y-56341759D01*
X136300000Y-56800000D01*
X135800000Y-56800000D01*
X135800000Y-56341759D01*
X135799999Y-56341759D01*
X135694745Y-56385357D01*
X135694735Y-56385362D01*
X135571903Y-56467436D01*
X135571899Y-56467439D01*
X135467439Y-56571899D01*
X135467436Y-56571903D01*
X135385362Y-56694735D01*
X135385357Y-56694745D01*
X135341759Y-56799999D01*
X132758240Y-56799999D01*
X132714642Y-56694745D01*
X132714637Y-56694735D01*
X132632563Y-56571903D01*
X132632560Y-56571899D01*
X132528100Y-56467439D01*
X132528096Y-56467436D01*
X132405264Y-56385362D01*
X132405254Y-56385357D01*
X132300000Y-56341759D01*
X132300000Y-56800000D01*
X131800000Y-56800000D01*
X131800000Y-56341759D01*
X131799999Y-56341759D01*
X131694745Y-56385357D01*
X131694735Y-56385362D01*
X131571903Y-56467436D01*
X131571899Y-56467439D01*
X131467439Y-56571899D01*
X131467436Y-56571903D01*
X131385362Y-56694735D01*
X131385357Y-56694745D01*
X131341759Y-56799999D01*
X130611102Y-56799999D01*
X130654043Y-56740896D01*
X130654045Y-56740894D01*
X130703565Y-56672734D01*
X130785747Y-56511447D01*
X130785748Y-56511444D01*
X130841682Y-56339293D01*
X130870000Y-56160506D01*
X130870000Y-55920000D01*
X129970000Y-55920000D01*
X129970000Y-55420000D01*
X130870000Y-55420000D01*
X130870000Y-55300000D01*
X131341759Y-55300000D01*
X131385357Y-55405254D01*
X131385362Y-55405264D01*
X131467436Y-55528096D01*
X131467439Y-55528100D01*
X131571899Y-55632560D01*
X131571907Y-55632566D01*
X131694739Y-55714640D01*
X131694743Y-55714642D01*
X131799999Y-55758240D01*
X131800000Y-55758240D01*
X132300000Y-55758240D01*
X132405256Y-55714642D01*
X132405260Y-55714640D01*
X132528092Y-55632566D01*
X132528100Y-55632560D01*
X132632560Y-55528100D01*
X132632563Y-55528096D01*
X132714637Y-55405264D01*
X132714642Y-55405254D01*
X132758241Y-55300000D01*
X135341759Y-55300000D01*
X135385357Y-55405254D01*
X135385362Y-55405264D01*
X135467436Y-55528096D01*
X135467439Y-55528100D01*
X135571899Y-55632560D01*
X135571907Y-55632566D01*
X135694739Y-55714640D01*
X135694743Y-55714642D01*
X135799999Y-55758240D01*
X135800000Y-55758240D01*
X136300000Y-55758240D01*
X136310051Y-55754077D01*
X136405256Y-55714642D01*
X136405260Y-55714640D01*
X136528092Y-55632566D01*
X136528100Y-55632560D01*
X136632560Y-55528100D01*
X136632563Y-55528096D01*
X136714637Y-55405264D01*
X136714642Y-55405254D01*
X136758241Y-55300000D01*
X136300000Y-55300000D01*
X136300000Y-55758240D01*
X135800000Y-55758240D01*
X135800000Y-55300000D01*
X135341759Y-55300000D01*
X132758241Y-55300000D01*
X132300000Y-55300000D01*
X132300000Y-55758240D01*
X131800000Y-55758240D01*
X131800000Y-55300000D01*
X131341759Y-55300000D01*
X130870000Y-55300000D01*
X130870000Y-55179493D01*
X130844764Y-55020163D01*
X131900000Y-55020163D01*
X131900000Y-55079837D01*
X131922836Y-55134968D01*
X131965032Y-55177164D01*
X132020163Y-55200000D01*
X132079837Y-55200000D01*
X132134968Y-55177164D01*
X132177164Y-55134968D01*
X132200000Y-55079837D01*
X132200000Y-55020163D01*
X135900000Y-55020163D01*
X135900000Y-55079837D01*
X135922836Y-55134968D01*
X135965032Y-55177164D01*
X136020163Y-55200000D01*
X136079837Y-55200000D01*
X136134968Y-55177164D01*
X136177164Y-55134968D01*
X136200000Y-55079837D01*
X136200000Y-55020163D01*
X136177164Y-54965032D01*
X136134968Y-54922836D01*
X136079837Y-54900000D01*
X136020163Y-54900000D01*
X135965032Y-54922836D01*
X135922836Y-54965032D01*
X135900000Y-55020163D01*
X132200000Y-55020163D01*
X132177164Y-54965032D01*
X132134968Y-54922836D01*
X132079837Y-54900000D01*
X132020163Y-54900000D01*
X131965032Y-54922836D01*
X131922836Y-54965032D01*
X131900000Y-55020163D01*
X130844764Y-55020163D01*
X130841682Y-55000706D01*
X130785748Y-54828555D01*
X130785747Y-54828552D01*
X130703565Y-54667265D01*
X130597176Y-54520830D01*
X130469175Y-54392829D01*
X130375566Y-54324819D01*
X130332900Y-54269489D01*
X130326921Y-54199876D01*
X130359526Y-54138080D01*
X130420365Y-54103723D01*
X130448451Y-54100500D01*
X131759061Y-54100500D01*
X131826100Y-54120185D01*
X131871855Y-54172989D01*
X131881799Y-54242147D01*
X131852774Y-54305703D01*
X131806514Y-54339061D01*
X131694745Y-54385357D01*
X131694735Y-54385362D01*
X131571903Y-54467436D01*
X131571899Y-54467439D01*
X131467439Y-54571899D01*
X131467436Y-54571903D01*
X131385362Y-54694735D01*
X131385357Y-54694745D01*
X131341759Y-54799999D01*
X131341759Y-54800000D01*
X132758241Y-54800000D01*
X132758240Y-54799999D01*
X132714642Y-54694745D01*
X132714637Y-54694735D01*
X132632563Y-54571903D01*
X132632560Y-54571899D01*
X132528100Y-54467439D01*
X132528096Y-54467436D01*
X132405264Y-54385362D01*
X132405254Y-54385357D01*
X132293486Y-54339061D01*
X132239083Y-54295220D01*
X132217018Y-54228926D01*
X132234297Y-54161226D01*
X132285435Y-54113616D01*
X132340939Y-54100500D01*
X135759061Y-54100500D01*
X135826100Y-54120185D01*
X135871855Y-54172989D01*
X135881799Y-54242147D01*
X135852774Y-54305703D01*
X135806514Y-54339061D01*
X135694745Y-54385357D01*
X135694735Y-54385362D01*
X135571903Y-54467436D01*
X135571899Y-54467439D01*
X135467439Y-54571899D01*
X135467436Y-54571903D01*
X135385362Y-54694735D01*
X135385357Y-54694745D01*
X135341759Y-54799999D01*
X135341759Y-54800000D01*
X136758241Y-54800000D01*
X136758240Y-54799999D01*
X136714642Y-54694745D01*
X136714637Y-54694735D01*
X136632563Y-54571903D01*
X136632560Y-54571899D01*
X136528100Y-54467439D01*
X136528096Y-54467436D01*
X136405264Y-54385362D01*
X136405254Y-54385357D01*
X136293486Y-54339061D01*
X136239083Y-54295220D01*
X136217018Y-54228926D01*
X136234297Y-54161226D01*
X136285435Y-54113616D01*
X136340939Y-54100500D01*
X137651549Y-54100500D01*
X137718588Y-54120185D01*
X137764343Y-54172989D01*
X137774287Y-54242147D01*
X137745262Y-54305703D01*
X137724434Y-54324819D01*
X137630824Y-54392829D01*
X137502823Y-54520830D01*
X137396434Y-54667265D01*
X137314252Y-54828552D01*
X137314251Y-54828555D01*
X137258317Y-55000706D01*
X137230000Y-55179493D01*
X137230000Y-55420000D01*
X138130000Y-55420000D01*
X138130000Y-55920000D01*
X137230000Y-55920000D01*
X137230000Y-56160506D01*
X137258317Y-56339293D01*
X137314251Y-56511444D01*
X137314252Y-56511447D01*
X137396434Y-56672734D01*
X137502823Y-56819169D01*
X137630830Y-56947176D01*
X137777265Y-57053565D01*
X137938552Y-57135747D01*
X137938555Y-57135748D01*
X138110699Y-57191680D01*
X138110712Y-57191683D01*
X138130000Y-57194738D01*
X138130000Y-56119728D01*
X138168060Y-56211614D01*
X138238386Y-56281940D01*
X138330272Y-56320000D01*
X138429728Y-56320000D01*
X138521614Y-56281940D01*
X138591940Y-56211614D01*
X138630000Y-56119728D01*
X138630000Y-57194737D01*
X138649287Y-57191683D01*
X138649300Y-57191680D01*
X138821444Y-57135748D01*
X138821447Y-57135747D01*
X138982734Y-57053565D01*
X139129169Y-56947176D01*
X139257176Y-56819169D01*
X139363565Y-56672734D01*
X139445747Y-56511447D01*
X139445748Y-56511444D01*
X139501682Y-56339293D01*
X139524822Y-56193200D01*
X139524836Y-56193109D01*
X139530000Y-56160502D01*
X139530000Y-55920000D01*
X138630000Y-55920000D01*
X138630000Y-55420000D01*
X139530000Y-55420000D01*
X139530000Y-55179493D01*
X139501682Y-55000706D01*
X139445748Y-54828555D01*
X139445747Y-54828552D01*
X139363565Y-54667265D01*
X139257176Y-54520830D01*
X139129175Y-54392829D01*
X139035566Y-54324819D01*
X138992900Y-54269489D01*
X138986921Y-54199876D01*
X139019526Y-54138080D01*
X139080365Y-54103723D01*
X139108451Y-54100500D01*
X151322636Y-54100500D01*
X151389675Y-54120185D01*
X151435430Y-54172989D01*
X151445374Y-54242147D01*
X151416349Y-54305703D01*
X151388608Y-54329494D01*
X151285127Y-54394515D01*
X151125425Y-54521871D01*
X152267263Y-55663709D01*
X152133398Y-55760967D01*
X152010967Y-55883398D01*
X151913709Y-56017262D01*
X150771871Y-54875425D01*
X150644515Y-55035127D01*
X150483172Y-55291903D01*
X150351598Y-55565119D01*
X150351592Y-55565133D01*
X150251438Y-55851354D01*
X150251434Y-55851366D01*
X150183954Y-56147017D01*
X150183952Y-56147033D01*
X150173720Y-56237846D01*
X150146654Y-56302260D01*
X150089059Y-56341815D01*
X150019222Y-56343952D01*
X149959315Y-56307994D01*
X149928360Y-56245356D01*
X149926500Y-56223962D01*
X149926500Y-56218594D01*
X149926499Y-56218592D01*
X149894740Y-56058926D01*
X149894737Y-56058917D01*
X149832437Y-55908509D01*
X149832436Y-55908507D01*
X149794255Y-55851366D01*
X149741984Y-55773137D01*
X149741981Y-55773133D01*
X149626866Y-55658018D01*
X149626862Y-55658015D01*
X149491492Y-55567563D01*
X149491490Y-55567562D01*
X149341082Y-55505262D01*
X149341073Y-55505259D01*
X149181406Y-55473500D01*
X149181403Y-55473500D01*
X149018597Y-55473500D01*
X149018594Y-55473500D01*
X148858926Y-55505259D01*
X148858917Y-55505262D01*
X148708509Y-55567562D01*
X148708507Y-55567563D01*
X148573137Y-55658015D01*
X148573133Y-55658018D01*
X148458018Y-55773133D01*
X148458015Y-55773137D01*
X148367563Y-55908507D01*
X148367562Y-55908509D01*
X148305262Y-56058917D01*
X148305259Y-56058926D01*
X148273500Y-56218592D01*
X148273500Y-56381407D01*
X148305259Y-56541073D01*
X148305262Y-56541082D01*
X148367562Y-56691490D01*
X148367563Y-56691492D01*
X148458015Y-56826862D01*
X148458018Y-56826866D01*
X148573133Y-56941981D01*
X148573137Y-56941984D01*
X148708505Y-57032435D01*
X148708506Y-57032435D01*
X148708507Y-57032436D01*
X148708509Y-57032437D01*
X148808781Y-57073970D01*
X148858919Y-57094738D01*
X148858921Y-57094738D01*
X148858926Y-57094740D01*
X149018592Y-57126499D01*
X149018595Y-57126500D01*
X149018597Y-57126500D01*
X149181405Y-57126500D01*
X149181406Y-57126499D01*
X149234629Y-57115912D01*
X149341073Y-57094740D01*
X149341076Y-57094738D01*
X149341081Y-57094738D01*
X149491495Y-57032435D01*
X149626863Y-56941984D01*
X149741984Y-56826863D01*
X149832435Y-56691495D01*
X149894738Y-56541081D01*
X149900633Y-56511447D01*
X149904383Y-56492595D01*
X149936768Y-56430684D01*
X149997483Y-56396110D01*
X150067253Y-56399849D01*
X150123925Y-56440716D01*
X150149506Y-56505734D01*
X150150000Y-56516786D01*
X150150000Y-56751633D01*
X150183952Y-57052966D01*
X150183954Y-57052982D01*
X150251434Y-57348633D01*
X150251438Y-57348645D01*
X150351592Y-57634866D01*
X150351598Y-57634880D01*
X150483172Y-57908096D01*
X150644515Y-58164872D01*
X150771871Y-58324573D01*
X151913708Y-57182736D01*
X152010967Y-57316602D01*
X152133398Y-57439033D01*
X152267262Y-57536290D01*
X151125425Y-58678127D01*
X151285127Y-58805484D01*
X151541903Y-58966827D01*
X151815119Y-59098401D01*
X151815133Y-59098407D01*
X152101354Y-59198561D01*
X152101366Y-59198565D01*
X152397017Y-59266045D01*
X152397033Y-59266047D01*
X152698366Y-59299999D01*
X152698368Y-59300000D01*
X153001632Y-59300000D01*
X153001633Y-59299999D01*
X153302966Y-59266047D01*
X153302982Y-59266045D01*
X153598633Y-59198565D01*
X153598645Y-59198561D01*
X153884866Y-59098407D01*
X153884880Y-59098401D01*
X154158096Y-58966827D01*
X154414872Y-58805484D01*
X154574573Y-58678126D01*
X153432737Y-57536290D01*
X153566602Y-57439033D01*
X153689033Y-57316602D01*
X153786290Y-57182737D01*
X154928126Y-58324573D01*
X155055487Y-58164868D01*
X155120506Y-58061392D01*
X155172840Y-58015100D01*
X155241894Y-58004451D01*
X155305742Y-58032826D01*
X155344114Y-58091216D01*
X155349500Y-58127363D01*
X155349500Y-142172636D01*
X155329815Y-142239675D01*
X155277011Y-142285430D01*
X155207853Y-142295374D01*
X155144297Y-142266349D01*
X155120506Y-142238608D01*
X155055484Y-142135127D01*
X154928127Y-141975425D01*
X153786290Y-143117262D01*
X153689033Y-142983398D01*
X153566602Y-142860967D01*
X153432736Y-142763709D01*
X154574573Y-141621871D01*
X154414872Y-141494515D01*
X154158096Y-141333172D01*
X153884880Y-141201598D01*
X153884866Y-141201592D01*
X153598645Y-141101438D01*
X153598633Y-141101434D01*
X153302982Y-141033954D01*
X153302966Y-141033952D01*
X153001633Y-141000000D01*
X152698366Y-141000000D01*
X152397033Y-141033952D01*
X152397017Y-141033954D01*
X152101366Y-141101434D01*
X152101354Y-141101438D01*
X151815133Y-141201592D01*
X151815119Y-141201598D01*
X151541903Y-141333172D01*
X151285127Y-141494515D01*
X151125425Y-141621871D01*
X152267263Y-142763709D01*
X152133398Y-142860967D01*
X152010967Y-142983398D01*
X151913709Y-143117262D01*
X150771871Y-141975425D01*
X150644515Y-142135127D01*
X150483172Y-142391903D01*
X150351598Y-142665119D01*
X150351592Y-142665133D01*
X150251438Y-142951354D01*
X150251434Y-142951366D01*
X150183954Y-143247017D01*
X150183952Y-143247033D01*
X150150000Y-143548366D01*
X150150000Y-143851633D01*
X150183952Y-144152966D01*
X150183954Y-144152982D01*
X150251434Y-144448633D01*
X150251438Y-144448645D01*
X150351592Y-144734866D01*
X150351598Y-144734880D01*
X150483172Y-145008096D01*
X150644515Y-145264872D01*
X150771871Y-145424573D01*
X151913708Y-144282736D01*
X152010967Y-144416602D01*
X152133398Y-144539033D01*
X152267262Y-144636290D01*
X151125425Y-145778127D01*
X151285127Y-145905484D01*
X151388608Y-145970506D01*
X151434899Y-146022841D01*
X151445547Y-146091894D01*
X151417172Y-146155743D01*
X151358783Y-146194115D01*
X151322636Y-146199500D01*
X137529275Y-146199500D01*
X137462236Y-146179815D01*
X137416481Y-146127011D01*
X137406537Y-146057853D01*
X137435562Y-145994297D01*
X137460385Y-145972398D01*
X137577262Y-145894302D01*
X137619655Y-145865977D01*
X137765977Y-145719655D01*
X137880941Y-145547598D01*
X137960130Y-145356420D01*
X138000500Y-145153465D01*
X138000500Y-144946535D01*
X137960130Y-144743580D01*
X137880941Y-144552402D01*
X137765977Y-144380345D01*
X137765975Y-144380342D01*
X137619657Y-144234024D01*
X137452378Y-144122253D01*
X137447598Y-144119059D01*
X137256420Y-144039870D01*
X137256412Y-144039868D01*
X137240400Y-144036683D01*
X137053469Y-143999500D01*
X137053465Y-143999500D01*
X136846535Y-143999500D01*
X136846530Y-143999500D01*
X136643587Y-144039868D01*
X136643579Y-144039870D01*
X136452403Y-144119058D01*
X136280342Y-144234024D01*
X136134024Y-144380342D01*
X136019058Y-144552403D01*
X135939870Y-144743579D01*
X135939868Y-144743587D01*
X135899500Y-144946530D01*
X135899500Y-145153469D01*
X135939868Y-145356412D01*
X135939870Y-145356420D01*
X136019058Y-145547596D01*
X136134024Y-145719657D01*
X136280341Y-145865974D01*
X136280349Y-145865980D01*
X136439615Y-145972398D01*
X136484421Y-146026010D01*
X136493128Y-146095335D01*
X136462974Y-146158362D01*
X136403531Y-146195082D01*
X136370725Y-146199500D01*
X126552364Y-146199500D01*
X126485325Y-146179815D01*
X126439570Y-146127011D01*
X126429626Y-146057853D01*
X126458651Y-145994297D01*
X126486392Y-145970506D01*
X126589872Y-145905484D01*
X126749573Y-145778126D01*
X125607737Y-144636290D01*
X125741602Y-144539033D01*
X125864033Y-144416602D01*
X125961290Y-144282737D01*
X127103126Y-145424573D01*
X127230484Y-145264872D01*
X127385232Y-145018592D01*
X128173500Y-145018592D01*
X128173500Y-145181407D01*
X128205259Y-145341073D01*
X128205262Y-145341082D01*
X128267562Y-145491490D01*
X128267563Y-145491492D01*
X128358015Y-145626862D01*
X128358018Y-145626866D01*
X128473133Y-145741981D01*
X128473137Y-145741984D01*
X128608505Y-145832435D01*
X128608506Y-145832435D01*
X128608507Y-145832436D01*
X128608509Y-145832437D01*
X128689476Y-145865974D01*
X128758919Y-145894738D01*
X128758921Y-145894738D01*
X128758926Y-145894740D01*
X128918592Y-145926499D01*
X128918595Y-145926500D01*
X128918597Y-145926500D01*
X129081405Y-145926500D01*
X129081406Y-145926499D01*
X129148282Y-145913197D01*
X129241073Y-145894740D01*
X129241076Y-145894738D01*
X129241081Y-145894738D01*
X129391495Y-145832435D01*
X129526863Y-145741984D01*
X129641984Y-145626863D01*
X129732435Y-145491495D01*
X129794738Y-145341081D01*
X129826500Y-145181403D01*
X129826500Y-145018597D01*
X129826500Y-145018594D01*
X129826499Y-145018592D01*
X129794740Y-144858926D01*
X129794737Y-144858917D01*
X129732437Y-144708509D01*
X129732436Y-144708507D01*
X129674492Y-144621789D01*
X129641984Y-144573137D01*
X129641981Y-144573133D01*
X129526866Y-144458018D01*
X129526862Y-144458015D01*
X129391492Y-144367563D01*
X129391490Y-144367562D01*
X129241082Y-144305262D01*
X129241073Y-144305259D01*
X129081406Y-144273500D01*
X129081403Y-144273500D01*
X128918597Y-144273500D01*
X128918594Y-144273500D01*
X128758926Y-144305259D01*
X128758917Y-144305262D01*
X128608509Y-144367562D01*
X128608507Y-144367563D01*
X128473137Y-144458015D01*
X128473133Y-144458018D01*
X128358018Y-144573133D01*
X128358015Y-144573137D01*
X128267563Y-144708507D01*
X128267562Y-144708509D01*
X128205262Y-144858917D01*
X128205259Y-144858926D01*
X128173500Y-145018592D01*
X127385232Y-145018592D01*
X127391829Y-145008093D01*
X127415614Y-144958704D01*
X127415614Y-144958703D01*
X127523401Y-144734880D01*
X127523407Y-144734866D01*
X127623561Y-144448645D01*
X127623565Y-144448633D01*
X127691045Y-144152982D01*
X127691047Y-144152966D01*
X127717166Y-143921153D01*
X144699500Y-143921153D01*
X144699500Y-144078846D01*
X144730261Y-144233489D01*
X144730264Y-144233501D01*
X144790602Y-144379172D01*
X144790609Y-144379185D01*
X144878210Y-144510288D01*
X144878213Y-144510292D01*
X144989707Y-144621786D01*
X144989711Y-144621789D01*
X145120814Y-144709390D01*
X145120827Y-144709397D01*
X145266498Y-144769735D01*
X145266503Y-144769737D01*
X145418644Y-144800000D01*
X145421153Y-144800499D01*
X145421156Y-144800500D01*
X145421158Y-144800500D01*
X145578844Y-144800500D01*
X145578845Y-144800499D01*
X145733497Y-144769737D01*
X145879179Y-144709394D01*
X146010289Y-144621789D01*
X146121789Y-144510289D01*
X146209394Y-144379179D01*
X146214206Y-144367563D01*
X146253167Y-144273500D01*
X146269737Y-144233497D01*
X146300500Y-144078842D01*
X146300500Y-143921158D01*
X146300500Y-143921155D01*
X146300499Y-143921153D01*
X146290716Y-143871969D01*
X146269737Y-143766503D01*
X146242191Y-143700000D01*
X146209397Y-143620827D01*
X146209390Y-143620814D01*
X146204692Y-143613783D01*
X146121789Y-143489711D01*
X146121786Y-143489707D01*
X146010292Y-143378213D01*
X146010288Y-143378210D01*
X145879185Y-143290609D01*
X145879172Y-143290602D01*
X145733501Y-143230264D01*
X145733489Y-143230261D01*
X145578845Y-143199500D01*
X145578842Y-143199500D01*
X145421158Y-143199500D01*
X145421155Y-143199500D01*
X145266510Y-143230261D01*
X145266498Y-143230264D01*
X145120827Y-143290602D01*
X145120814Y-143290609D01*
X144989711Y-143378210D01*
X144989707Y-143378213D01*
X144878213Y-143489707D01*
X144878210Y-143489711D01*
X144790609Y-143620814D01*
X144790602Y-143620827D01*
X144730264Y-143766498D01*
X144730261Y-143766510D01*
X144699500Y-143921153D01*
X127717166Y-143921153D01*
X127724999Y-143851633D01*
X127725000Y-143851631D01*
X127725000Y-143548368D01*
X127724999Y-143548366D01*
X127691047Y-143247033D01*
X127691045Y-143247017D01*
X127623565Y-142951366D01*
X127623561Y-142951354D01*
X127555211Y-142756021D01*
X127543010Y-142721153D01*
X141799500Y-142721153D01*
X141799500Y-142878846D01*
X141830261Y-143033489D01*
X141830264Y-143033501D01*
X141890602Y-143179172D01*
X141890609Y-143179185D01*
X141978210Y-143310288D01*
X141978213Y-143310292D01*
X142089707Y-143421786D01*
X142089711Y-143421789D01*
X142220814Y-143509390D01*
X142220827Y-143509397D01*
X142314908Y-143548366D01*
X142366503Y-143569737D01*
X142521153Y-143600499D01*
X142521156Y-143600500D01*
X142521158Y-143600500D01*
X142678844Y-143600500D01*
X142678845Y-143600499D01*
X142833497Y-143569737D01*
X142979179Y-143509394D01*
X143110289Y-143421789D01*
X143221789Y-143310289D01*
X143309394Y-143179179D01*
X143369737Y-143033497D01*
X143400500Y-142878842D01*
X143400500Y-142721158D01*
X143400500Y-142721155D01*
X143400499Y-142721153D01*
X143369738Y-142566510D01*
X143369737Y-142566503D01*
X143369735Y-142566498D01*
X143309397Y-142420827D01*
X143309395Y-142420823D01*
X143309394Y-142420821D01*
X143244401Y-142323553D01*
X143223524Y-142256877D01*
X143242008Y-142189497D01*
X143293987Y-142142806D01*
X143362957Y-142131630D01*
X143394956Y-142140102D01*
X143466498Y-142169735D01*
X143466503Y-142169737D01*
X143565843Y-142189497D01*
X143621153Y-142200499D01*
X143621156Y-142200500D01*
X143621158Y-142200500D01*
X143778844Y-142200500D01*
X143778845Y-142200499D01*
X143933497Y-142169737D01*
X144079179Y-142109394D01*
X144210289Y-142021789D01*
X144321789Y-141910289D01*
X144409394Y-141779179D01*
X144469737Y-141633497D01*
X144500500Y-141478842D01*
X144500500Y-141321158D01*
X144500500Y-141321155D01*
X144500499Y-141321153D01*
X144476718Y-141201598D01*
X144469737Y-141166503D01*
X144469735Y-141166498D01*
X144409397Y-141020827D01*
X144409390Y-141020814D01*
X144321789Y-140889711D01*
X144321786Y-140889707D01*
X144210292Y-140778213D01*
X144210288Y-140778210D01*
X144079185Y-140690609D01*
X144079172Y-140690602D01*
X143933501Y-140630264D01*
X143933489Y-140630261D01*
X143778845Y-140599500D01*
X143778842Y-140599500D01*
X143621158Y-140599500D01*
X143621155Y-140599500D01*
X143466510Y-140630261D01*
X143466498Y-140630264D01*
X143320827Y-140690602D01*
X143320814Y-140690609D01*
X143189711Y-140778210D01*
X143189707Y-140778213D01*
X143078213Y-140889707D01*
X143078210Y-140889711D01*
X142990609Y-141020814D01*
X142990602Y-141020827D01*
X142930264Y-141166498D01*
X142930261Y-141166510D01*
X142899500Y-141321153D01*
X142899500Y-141478846D01*
X142930261Y-141633489D01*
X142930264Y-141633501D01*
X142990602Y-141779172D01*
X142990609Y-141779185D01*
X143055597Y-141876445D01*
X143076475Y-141943122D01*
X143057991Y-142010502D01*
X143006012Y-142057193D01*
X142937042Y-142068369D01*
X142905044Y-142059898D01*
X142865502Y-142043519D01*
X142833497Y-142030263D01*
X142833493Y-142030262D01*
X142833489Y-142030261D01*
X142678845Y-141999500D01*
X142678842Y-141999500D01*
X142521158Y-141999500D01*
X142521155Y-141999500D01*
X142366510Y-142030261D01*
X142366498Y-142030264D01*
X142220827Y-142090602D01*
X142220814Y-142090609D01*
X142089711Y-142178210D01*
X142089707Y-142178213D01*
X141978213Y-142289707D01*
X141978210Y-142289711D01*
X141890609Y-142420814D01*
X141890602Y-142420827D01*
X141830264Y-142566498D01*
X141830261Y-142566510D01*
X141799500Y-142721153D01*
X127543010Y-142721153D01*
X127523407Y-142665133D01*
X127523401Y-142665119D01*
X127391827Y-142391903D01*
X127230484Y-142135127D01*
X127103127Y-141975425D01*
X125961290Y-143117262D01*
X125864033Y-142983398D01*
X125741602Y-142860967D01*
X125607736Y-142763709D01*
X126749573Y-141621871D01*
X126589872Y-141494515D01*
X126333096Y-141333172D01*
X126059880Y-141201598D01*
X126059866Y-141201592D01*
X125773645Y-141101438D01*
X125773633Y-141101434D01*
X125477982Y-141033954D01*
X125477966Y-141033952D01*
X125176633Y-141000000D01*
X124873366Y-141000000D01*
X124572033Y-141033952D01*
X124572017Y-141033954D01*
X124276366Y-141101434D01*
X124276354Y-141101438D01*
X123990133Y-141201592D01*
X123990119Y-141201598D01*
X123716903Y-141333172D01*
X123460127Y-141494515D01*
X123300425Y-141621871D01*
X124442263Y-142763709D01*
X124308398Y-142860967D01*
X124185967Y-142983398D01*
X124088709Y-143117263D01*
X122946871Y-141975425D01*
X122819515Y-142135127D01*
X122754494Y-142238608D01*
X122702159Y-142284899D01*
X122633106Y-142295547D01*
X122569257Y-142267172D01*
X122530885Y-142208783D01*
X122525500Y-142172636D01*
X122525500Y-137946530D01*
X135899500Y-137946530D01*
X135899500Y-138153469D01*
X135939868Y-138356412D01*
X135939870Y-138356420D01*
X136019058Y-138547596D01*
X136134024Y-138719657D01*
X136280342Y-138865975D01*
X136280345Y-138865977D01*
X136452402Y-138980941D01*
X136643580Y-139060130D01*
X136846530Y-139100499D01*
X136846534Y-139100500D01*
X136846535Y-139100500D01*
X137053466Y-139100500D01*
X137053467Y-139100499D01*
X137256420Y-139060130D01*
X137447598Y-138980941D01*
X137619655Y-138865977D01*
X137765977Y-138719655D01*
X137880941Y-138547598D01*
X137960130Y-138356420D01*
X138000500Y-138153465D01*
X138000500Y-137946535D01*
X137960130Y-137743580D01*
X137880941Y-137552402D01*
X137765977Y-137380345D01*
X137765975Y-137380342D01*
X137619657Y-137234024D01*
X137493905Y-137150000D01*
X137447598Y-137119059D01*
X137376473Y-137089598D01*
X137256420Y-137039870D01*
X137256412Y-137039868D01*
X137053469Y-136999500D01*
X137053465Y-136999500D01*
X136846535Y-136999500D01*
X136846530Y-136999500D01*
X136643587Y-137039868D01*
X136643579Y-137039870D01*
X136452403Y-137119058D01*
X136280342Y-137234024D01*
X136134024Y-137380342D01*
X136019058Y-137552403D01*
X135939870Y-137743579D01*
X135939868Y-137743587D01*
X135899500Y-137946530D01*
X122525500Y-137946530D01*
X122525500Y-136783870D01*
X144074500Y-136783870D01*
X144074500Y-137016129D01*
X144110831Y-137245514D01*
X144182601Y-137466400D01*
X144288039Y-137673331D01*
X144424551Y-137861224D01*
X144588776Y-138025449D01*
X144776669Y-138161961D01*
X144874436Y-138211776D01*
X144983599Y-138267398D01*
X144983601Y-138267398D01*
X144983604Y-138267400D01*
X145204486Y-138339169D01*
X145313407Y-138356420D01*
X145433871Y-138375500D01*
X145433876Y-138375500D01*
X145666129Y-138375500D01*
X145767502Y-138359443D01*
X145895514Y-138339169D01*
X146116396Y-138267400D01*
X146323331Y-138161961D01*
X146447502Y-138071745D01*
X146513304Y-138048267D01*
X146581358Y-138064092D01*
X146629216Y-138112637D01*
X146631649Y-138117093D01*
X146717809Y-138232187D01*
X146717812Y-138232190D01*
X146832906Y-138318350D01*
X146832913Y-138318354D01*
X146967620Y-138368596D01*
X146967627Y-138368598D01*
X147027155Y-138374999D01*
X147027172Y-138375000D01*
X147800000Y-138375000D01*
X147800000Y-137500001D01*
X147860402Y-137525021D01*
X147985981Y-137550000D01*
X148114019Y-137550000D01*
X148239598Y-137525021D01*
X148300000Y-137500001D01*
X148300000Y-138375000D01*
X149072828Y-138375000D01*
X149072844Y-138374999D01*
X149132372Y-138368598D01*
X149132379Y-138368596D01*
X149267086Y-138318354D01*
X149267093Y-138318350D01*
X149382187Y-138232190D01*
X149382190Y-138232187D01*
X149468351Y-138117092D01*
X149470780Y-138112644D01*
X149520183Y-138063236D01*
X149588455Y-138048380D01*
X149652498Y-138071746D01*
X149776669Y-138161961D01*
X149874436Y-138211776D01*
X149983599Y-138267398D01*
X149983601Y-138267398D01*
X149983604Y-138267400D01*
X150204486Y-138339169D01*
X150313407Y-138356420D01*
X150433871Y-138375500D01*
X150433876Y-138375500D01*
X150666129Y-138375500D01*
X150767502Y-138359443D01*
X150895514Y-138339169D01*
X151116396Y-138267400D01*
X151323331Y-138161961D01*
X151447502Y-138071745D01*
X151513304Y-138048267D01*
X151581358Y-138064092D01*
X151629216Y-138112637D01*
X151631649Y-138117093D01*
X151717809Y-138232187D01*
X151717812Y-138232190D01*
X151832906Y-138318350D01*
X151832913Y-138318354D01*
X151967620Y-138368596D01*
X151967627Y-138368598D01*
X152027155Y-138374999D01*
X152027172Y-138375000D01*
X152800000Y-138375000D01*
X152800000Y-137500001D01*
X152860402Y-137525021D01*
X152985981Y-137550000D01*
X153114019Y-137550000D01*
X153239598Y-137525021D01*
X153300000Y-137500001D01*
X153300000Y-138375000D01*
X154072828Y-138375000D01*
X154072844Y-138374999D01*
X154132372Y-138368598D01*
X154132379Y-138368596D01*
X154267086Y-138318354D01*
X154267093Y-138318350D01*
X154382187Y-138232190D01*
X154382190Y-138232187D01*
X154468350Y-138117093D01*
X154468354Y-138117086D01*
X154518596Y-137982379D01*
X154518598Y-137982372D01*
X154524999Y-137922844D01*
X154525000Y-137922827D01*
X154525000Y-137150000D01*
X153650001Y-137150000D01*
X153675021Y-137089598D01*
X153700000Y-136964019D01*
X153700000Y-136835981D01*
X153675021Y-136710402D01*
X153650001Y-136650000D01*
X154525000Y-136650000D01*
X154525000Y-135877172D01*
X154524999Y-135877155D01*
X154518598Y-135817627D01*
X154518596Y-135817620D01*
X154468354Y-135682913D01*
X154468350Y-135682906D01*
X154382190Y-135567812D01*
X154382187Y-135567809D01*
X154267093Y-135481649D01*
X154267086Y-135481645D01*
X154132379Y-135431403D01*
X154132372Y-135431401D01*
X154072844Y-135425000D01*
X153300000Y-135425000D01*
X153300000Y-136299998D01*
X153239598Y-136274979D01*
X153114019Y-136250000D01*
X152985981Y-136250000D01*
X152860402Y-136274979D01*
X152800000Y-136299998D01*
X152800000Y-135425000D01*
X152027155Y-135425000D01*
X151967627Y-135431401D01*
X151967620Y-135431403D01*
X151832913Y-135481645D01*
X151832906Y-135481649D01*
X151717812Y-135567809D01*
X151717809Y-135567812D01*
X151631645Y-135682912D01*
X151629213Y-135687366D01*
X151579806Y-135736769D01*
X151511532Y-135751618D01*
X151447499Y-135728252D01*
X151323331Y-135638039D01*
X151323329Y-135638038D01*
X151116400Y-135532601D01*
X150895514Y-135460831D01*
X150666129Y-135424500D01*
X150666124Y-135424500D01*
X150433876Y-135424500D01*
X150433871Y-135424500D01*
X150204485Y-135460831D01*
X149983599Y-135532601D01*
X149776669Y-135638038D01*
X149652500Y-135728252D01*
X149586693Y-135751731D01*
X149518639Y-135735905D01*
X149470784Y-135687362D01*
X149468352Y-135682908D01*
X149382190Y-135567812D01*
X149382187Y-135567809D01*
X149267093Y-135481649D01*
X149267086Y-135481645D01*
X149132379Y-135431403D01*
X149132372Y-135431401D01*
X149072844Y-135425000D01*
X148300000Y-135425000D01*
X148300000Y-136299998D01*
X148239598Y-136274979D01*
X148114019Y-136250000D01*
X147985981Y-136250000D01*
X147860402Y-136274979D01*
X147800000Y-136299998D01*
X147800000Y-135425000D01*
X147027155Y-135425000D01*
X146967627Y-135431401D01*
X146967620Y-135431403D01*
X146832913Y-135481645D01*
X146832906Y-135481649D01*
X146717812Y-135567809D01*
X146717809Y-135567812D01*
X146631645Y-135682912D01*
X146629213Y-135687366D01*
X146579806Y-135736769D01*
X146511532Y-135751618D01*
X146447499Y-135728252D01*
X146323331Y-135638039D01*
X146323329Y-135638038D01*
X146116400Y-135532601D01*
X145895514Y-135460831D01*
X145666129Y-135424500D01*
X145666124Y-135424500D01*
X145433876Y-135424500D01*
X145433871Y-135424500D01*
X145204485Y-135460831D01*
X144983599Y-135532601D01*
X144776668Y-135638039D01*
X144588773Y-135774553D01*
X144424553Y-135938773D01*
X144288039Y-136126668D01*
X144182601Y-136333599D01*
X144110831Y-136554485D01*
X144074500Y-136783870D01*
X122525500Y-136783870D01*
X122525500Y-131314071D01*
X129174499Y-131314071D01*
X129199497Y-131439738D01*
X129199499Y-131439744D01*
X129248533Y-131558124D01*
X129248538Y-131558133D01*
X129319723Y-131664668D01*
X129319726Y-131664672D01*
X129410327Y-131755273D01*
X129410331Y-131755276D01*
X129516866Y-131826461D01*
X129516872Y-131826464D01*
X129516873Y-131826465D01*
X129635256Y-131875501D01*
X129635260Y-131875501D01*
X129635261Y-131875502D01*
X129673366Y-131883082D01*
X129735277Y-131915467D01*
X129769851Y-131976183D01*
X129770791Y-132028890D01*
X129749500Y-132135926D01*
X129749500Y-132135931D01*
X129749500Y-132264069D01*
X129749500Y-132264071D01*
X129749499Y-132264071D01*
X129774497Y-132389738D01*
X129774499Y-132389744D01*
X129823533Y-132508124D01*
X129823538Y-132508133D01*
X129894723Y-132614668D01*
X129894726Y-132614672D01*
X129985327Y-132705273D01*
X129985331Y-132705276D01*
X130091866Y-132776461D01*
X130091872Y-132776464D01*
X130091873Y-132776465D01*
X130210256Y-132825501D01*
X130210260Y-132825501D01*
X130210261Y-132825502D01*
X130335928Y-132850500D01*
X130335931Y-132850500D01*
X130464071Y-132850500D01*
X130548615Y-132833682D01*
X130589744Y-132825501D01*
X130708127Y-132776465D01*
X130814669Y-132705276D01*
X130905276Y-132614669D01*
X130976465Y-132508127D01*
X131025501Y-132389744D01*
X131050500Y-132264069D01*
X131050500Y-132135931D01*
X131050500Y-132135928D01*
X131029208Y-132028891D01*
X131035435Y-131959300D01*
X131078297Y-131904122D01*
X131126634Y-131883082D01*
X131137665Y-131880887D01*
X131164744Y-131875501D01*
X131283127Y-131826465D01*
X131389669Y-131755276D01*
X131480276Y-131664669D01*
X131551465Y-131558127D01*
X131600501Y-131439744D01*
X131625500Y-131314069D01*
X131625500Y-131185931D01*
X131625500Y-131185928D01*
X131600502Y-131060261D01*
X131600501Y-131060260D01*
X131600501Y-131060256D01*
X131551465Y-130941873D01*
X131551464Y-130941872D01*
X131551461Y-130941866D01*
X131480276Y-130835331D01*
X131480273Y-130835327D01*
X131389672Y-130744726D01*
X131389668Y-130744723D01*
X131283133Y-130673538D01*
X131283124Y-130673533D01*
X131164744Y-130624499D01*
X131164741Y-130624498D01*
X131126631Y-130616917D01*
X131064721Y-130584531D01*
X131030148Y-130523814D01*
X131029208Y-130471108D01*
X131050500Y-130364071D01*
X131050500Y-130235928D01*
X131025502Y-130110261D01*
X131025501Y-130110260D01*
X131025501Y-130110256D01*
X130976465Y-129991873D01*
X130976464Y-129991872D01*
X130976461Y-129991866D01*
X130937767Y-129933957D01*
X130937766Y-129933955D01*
X130905279Y-129885335D01*
X130905273Y-129885327D01*
X130891099Y-129871153D01*
X136299500Y-129871153D01*
X136299500Y-130028846D01*
X136330261Y-130183489D01*
X136330264Y-130183501D01*
X136390602Y-130329172D01*
X136390609Y-130329185D01*
X136478210Y-130460288D01*
X136478213Y-130460292D01*
X136589707Y-130571786D01*
X136589711Y-130571789D01*
X136720814Y-130659390D01*
X136720827Y-130659397D01*
X136866498Y-130719735D01*
X136866503Y-130719737D01*
X137021153Y-130750499D01*
X137021156Y-130750500D01*
X137021158Y-130750500D01*
X137178844Y-130750500D01*
X137178845Y-130750499D01*
X137333497Y-130719737D01*
X137479179Y-130659394D01*
X137610289Y-130571789D01*
X137721789Y-130460289D01*
X137809394Y-130329179D01*
X137869737Y-130183497D01*
X137900500Y-130028842D01*
X137900500Y-129871158D01*
X137900500Y-129871155D01*
X137900499Y-129871153D01*
X137869737Y-129716503D01*
X137833427Y-129628842D01*
X137809397Y-129570827D01*
X137809390Y-129570814D01*
X137721789Y-129439711D01*
X137721786Y-129439707D01*
X137610292Y-129328213D01*
X137610288Y-129328210D01*
X137479185Y-129240609D01*
X137479172Y-129240602D01*
X137333501Y-129180264D01*
X137333489Y-129180261D01*
X137178845Y-129149500D01*
X137178842Y-129149500D01*
X137021158Y-129149500D01*
X137021155Y-129149500D01*
X136866510Y-129180261D01*
X136866498Y-129180264D01*
X136720827Y-129240602D01*
X136720814Y-129240609D01*
X136589711Y-129328210D01*
X136589707Y-129328213D01*
X136478213Y-129439707D01*
X136478210Y-129439711D01*
X136390609Y-129570814D01*
X136390602Y-129570827D01*
X136330264Y-129716498D01*
X136330261Y-129716510D01*
X136299500Y-129871153D01*
X130891099Y-129871153D01*
X130814672Y-129794726D01*
X130814668Y-129794723D01*
X130708133Y-129723538D01*
X130708124Y-129723533D01*
X130589744Y-129674499D01*
X130589738Y-129674497D01*
X130464071Y-129649500D01*
X130464069Y-129649500D01*
X130335931Y-129649500D01*
X130335929Y-129649500D01*
X130210261Y-129674497D01*
X130210255Y-129674499D01*
X130091875Y-129723533D01*
X130091866Y-129723538D01*
X129985331Y-129794723D01*
X129985327Y-129794726D01*
X129894726Y-129885327D01*
X129894723Y-129885331D01*
X129823538Y-129991866D01*
X129823533Y-129991875D01*
X129774499Y-130110255D01*
X129774497Y-130110261D01*
X129749500Y-130235928D01*
X129749500Y-130364073D01*
X129770791Y-130471109D01*
X129764564Y-130540700D01*
X129721701Y-130595878D01*
X129673368Y-130616917D01*
X129635259Y-130624498D01*
X129635255Y-130624499D01*
X129516875Y-130673533D01*
X129516866Y-130673538D01*
X129410331Y-130744723D01*
X129410327Y-130744726D01*
X129319726Y-130835327D01*
X129319723Y-130835331D01*
X129248538Y-130941866D01*
X129248533Y-130941875D01*
X129199499Y-131060255D01*
X129199497Y-131060261D01*
X129174500Y-131185928D01*
X129174500Y-131185931D01*
X129174500Y-131314069D01*
X129174500Y-131314071D01*
X129174499Y-131314071D01*
X122525500Y-131314071D01*
X122525500Y-129471153D01*
X126599500Y-129471153D01*
X126599500Y-129628846D01*
X126630261Y-129783489D01*
X126630264Y-129783501D01*
X126690602Y-129929172D01*
X126690609Y-129929185D01*
X126778210Y-130060288D01*
X126778213Y-130060292D01*
X126889707Y-130171786D01*
X126889711Y-130171789D01*
X127020814Y-130259390D01*
X127020827Y-130259397D01*
X127166498Y-130319735D01*
X127166503Y-130319737D01*
X127321153Y-130350499D01*
X127321156Y-130350500D01*
X127321158Y-130350500D01*
X127478844Y-130350500D01*
X127478845Y-130350499D01*
X127633497Y-130319737D01*
X127779179Y-130259394D01*
X127910289Y-130171789D01*
X128021789Y-130060289D01*
X128109394Y-129929179D01*
X128169737Y-129783497D01*
X128200500Y-129628842D01*
X128200500Y-129471158D01*
X128200500Y-129471155D01*
X128200499Y-129471153D01*
X128172066Y-129328211D01*
X128169737Y-129316503D01*
X128138298Y-129240602D01*
X128109397Y-129170827D01*
X128109390Y-129170814D01*
X128021789Y-129039711D01*
X128021786Y-129039707D01*
X127910292Y-128928213D01*
X127910288Y-128928210D01*
X127779185Y-128840609D01*
X127779172Y-128840602D01*
X127633501Y-128780264D01*
X127633489Y-128780261D01*
X127478845Y-128749500D01*
X127478842Y-128749500D01*
X127321158Y-128749500D01*
X127321155Y-128749500D01*
X127166510Y-128780261D01*
X127166498Y-128780264D01*
X127020827Y-128840602D01*
X127020814Y-128840609D01*
X126889711Y-128928210D01*
X126889707Y-128928213D01*
X126778213Y-129039707D01*
X126778210Y-129039711D01*
X126690609Y-129170814D01*
X126690602Y-129170827D01*
X126630264Y-129316498D01*
X126630261Y-129316510D01*
X126599500Y-129471153D01*
X122525500Y-129471153D01*
X122525500Y-127121153D01*
X134399500Y-127121153D01*
X134399500Y-127278846D01*
X134430261Y-127433489D01*
X134430264Y-127433501D01*
X134490602Y-127579172D01*
X134490609Y-127579185D01*
X134578210Y-127710288D01*
X134578213Y-127710292D01*
X134689707Y-127821786D01*
X134689711Y-127821789D01*
X134820814Y-127909390D01*
X134820827Y-127909397D01*
X134966498Y-127969735D01*
X134966503Y-127969737D01*
X135118644Y-128000000D01*
X135121153Y-128000499D01*
X135121156Y-128000500D01*
X135121158Y-128000500D01*
X135278844Y-128000500D01*
X135278845Y-128000499D01*
X135433497Y-127969737D01*
X135579179Y-127909394D01*
X135710289Y-127821789D01*
X135821789Y-127710289D01*
X135909394Y-127579179D01*
X135969737Y-127433497D01*
X136000500Y-127278842D01*
X136000500Y-127121158D01*
X136000500Y-127121155D01*
X136000499Y-127121153D01*
X135969738Y-126966510D01*
X135969737Y-126966503D01*
X135942191Y-126900000D01*
X135909397Y-126820827D01*
X135909395Y-126820824D01*
X135909394Y-126820821D01*
X135868145Y-126759088D01*
X147150000Y-126759088D01*
X147150000Y-127040911D01*
X147150001Y-127040928D01*
X147186786Y-127320340D01*
X147259733Y-127592582D01*
X147367584Y-127852957D01*
X147367589Y-127852968D01*
X147508500Y-128097031D01*
X147508511Y-128097047D01*
X147613097Y-128233347D01*
X147613098Y-128233347D01*
X148363708Y-127482736D01*
X148460967Y-127616602D01*
X148583398Y-127739033D01*
X148717262Y-127836290D01*
X147966651Y-128586900D01*
X147966651Y-128586902D01*
X148102952Y-128691488D01*
X148102968Y-128691499D01*
X148347031Y-128832410D01*
X148347042Y-128832415D01*
X148607417Y-128940266D01*
X148879659Y-129013213D01*
X149159071Y-129049998D01*
X149159089Y-129050000D01*
X149440911Y-129050000D01*
X149440928Y-129049998D01*
X149720340Y-129013213D01*
X149992582Y-128940266D01*
X150252957Y-128832415D01*
X150252968Y-128832410D01*
X150497031Y-128691499D01*
X150497039Y-128691493D01*
X150633347Y-128586900D01*
X149882737Y-127836290D01*
X150016602Y-127739033D01*
X150139033Y-127616602D01*
X150236290Y-127482737D01*
X150986900Y-128233347D01*
X151091493Y-128097039D01*
X151091499Y-128097031D01*
X151232410Y-127852968D01*
X151232415Y-127852957D01*
X151340266Y-127592582D01*
X151413213Y-127320340D01*
X151449998Y-127040928D01*
X151450000Y-127040911D01*
X151450000Y-126759088D01*
X151449998Y-126759071D01*
X151413213Y-126479659D01*
X151340266Y-126207417D01*
X151232415Y-125947042D01*
X151232410Y-125947031D01*
X151091499Y-125702968D01*
X151091488Y-125702952D01*
X150986902Y-125566651D01*
X150986900Y-125566651D01*
X150236289Y-126317261D01*
X150139033Y-126183398D01*
X150016602Y-126060967D01*
X149882736Y-125963708D01*
X150633347Y-125213098D01*
X150633347Y-125213097D01*
X150497047Y-125108511D01*
X150497031Y-125108500D01*
X150252968Y-124967589D01*
X150252957Y-124967584D01*
X149992582Y-124859733D01*
X149720340Y-124786786D01*
X149440928Y-124750001D01*
X149440911Y-124750000D01*
X149159089Y-124750000D01*
X149159071Y-124750001D01*
X148879659Y-124786786D01*
X148607417Y-124859733D01*
X148347042Y-124967584D01*
X148347038Y-124967586D01*
X148102962Y-125108505D01*
X148102955Y-125108510D01*
X147966651Y-125213097D01*
X147966651Y-125213098D01*
X148717262Y-125963709D01*
X148583398Y-126060967D01*
X148460967Y-126183398D01*
X148363709Y-126317262D01*
X147613098Y-125566651D01*
X147613097Y-125566651D01*
X147508510Y-125702955D01*
X147508505Y-125702962D01*
X147367586Y-125947038D01*
X147367584Y-125947042D01*
X147259733Y-126207417D01*
X147186786Y-126479659D01*
X147150001Y-126759071D01*
X147150000Y-126759088D01*
X135868145Y-126759088D01*
X135821789Y-126689711D01*
X135821786Y-126689707D01*
X135710292Y-126578213D01*
X135710288Y-126578210D01*
X135579185Y-126490609D01*
X135579172Y-126490602D01*
X135433501Y-126430264D01*
X135433489Y-126430261D01*
X135278845Y-126399500D01*
X135278842Y-126399500D01*
X135121158Y-126399500D01*
X135121155Y-126399500D01*
X134966510Y-126430261D01*
X134966498Y-126430264D01*
X134820827Y-126490602D01*
X134820814Y-126490609D01*
X134689711Y-126578210D01*
X134689707Y-126578213D01*
X134578213Y-126689707D01*
X134578210Y-126689711D01*
X134490609Y-126820814D01*
X134490602Y-126820827D01*
X134430264Y-126966498D01*
X134430261Y-126966510D01*
X134399500Y-127121153D01*
X122525500Y-127121153D01*
X122525500Y-122251153D01*
X127599500Y-122251153D01*
X127599500Y-122408846D01*
X127630261Y-122563489D01*
X127630264Y-122563501D01*
X127690602Y-122709172D01*
X127690609Y-122709185D01*
X127778210Y-122840288D01*
X127778213Y-122840292D01*
X127889707Y-122951786D01*
X127889711Y-122951789D01*
X128020814Y-123039390D01*
X128020827Y-123039397D01*
X128166498Y-123099735D01*
X128166503Y-123099737D01*
X128321153Y-123130499D01*
X128321156Y-123130500D01*
X128321158Y-123130500D01*
X128478844Y-123130500D01*
X128478845Y-123130499D01*
X128633497Y-123099737D01*
X128779179Y-123039394D01*
X128910289Y-122951789D01*
X129021789Y-122840289D01*
X129109394Y-122709179D01*
X129169737Y-122563497D01*
X129200500Y-122408842D01*
X129200500Y-122251158D01*
X129200500Y-122251155D01*
X129200499Y-122251153D01*
X129169738Y-122096510D01*
X129169737Y-122096503D01*
X129169735Y-122096498D01*
X129109397Y-121950827D01*
X129109390Y-121950814D01*
X129021789Y-121819711D01*
X129021786Y-121819707D01*
X128910292Y-121708213D01*
X128910288Y-121708210D01*
X128779185Y-121620609D01*
X128779172Y-121620602D01*
X128633501Y-121560264D01*
X128633489Y-121560261D01*
X128478845Y-121529500D01*
X128478842Y-121529500D01*
X128321158Y-121529500D01*
X128321155Y-121529500D01*
X128166510Y-121560261D01*
X128166498Y-121560264D01*
X128020827Y-121620602D01*
X128020814Y-121620609D01*
X127889711Y-121708210D01*
X127889707Y-121708213D01*
X127778213Y-121819707D01*
X127778210Y-121819711D01*
X127690609Y-121950814D01*
X127690602Y-121950827D01*
X127630264Y-122096498D01*
X127630261Y-122096510D01*
X127599500Y-122251153D01*
X122525500Y-122251153D01*
X122525500Y-119721153D01*
X135899500Y-119721153D01*
X135899500Y-119878846D01*
X135930261Y-120033489D01*
X135930264Y-120033501D01*
X135990602Y-120179172D01*
X135990609Y-120179185D01*
X136078210Y-120310288D01*
X136078213Y-120310292D01*
X136189707Y-120421786D01*
X136189711Y-120421789D01*
X136320814Y-120509390D01*
X136320827Y-120509397D01*
X136466498Y-120569735D01*
X136466503Y-120569737D01*
X136621153Y-120600499D01*
X136621156Y-120600500D01*
X136621158Y-120600500D01*
X136778844Y-120600500D01*
X136778845Y-120600499D01*
X136933497Y-120569737D01*
X137079179Y-120509394D01*
X137210289Y-120421789D01*
X137321789Y-120310289D01*
X137409394Y-120179179D01*
X137469737Y-120033497D01*
X137500500Y-119878842D01*
X137500500Y-119721158D01*
X137500500Y-119721155D01*
X137500499Y-119721153D01*
X137469738Y-119566510D01*
X137469737Y-119566503D01*
X137469735Y-119566498D01*
X137409397Y-119420827D01*
X137409390Y-119420814D01*
X137321789Y-119289711D01*
X137321786Y-119289707D01*
X137210292Y-119178213D01*
X137210288Y-119178210D01*
X137079185Y-119090609D01*
X137079172Y-119090602D01*
X136933501Y-119030264D01*
X136933489Y-119030261D01*
X136778845Y-118999500D01*
X136778842Y-118999500D01*
X136621158Y-118999500D01*
X136621155Y-118999500D01*
X136466510Y-119030261D01*
X136466498Y-119030264D01*
X136320827Y-119090602D01*
X136320814Y-119090609D01*
X136189711Y-119178210D01*
X136189707Y-119178213D01*
X136078213Y-119289707D01*
X136078210Y-119289711D01*
X135990609Y-119420814D01*
X135990602Y-119420827D01*
X135930264Y-119566498D01*
X135930261Y-119566510D01*
X135899500Y-119721153D01*
X122525500Y-119721153D01*
X122525500Y-117146153D01*
X130999500Y-117146153D01*
X130999500Y-117303846D01*
X131030261Y-117458489D01*
X131030264Y-117458501D01*
X131090602Y-117604172D01*
X131090609Y-117604185D01*
X131178210Y-117735288D01*
X131178213Y-117735292D01*
X131289707Y-117846786D01*
X131289711Y-117846789D01*
X131420814Y-117934390D01*
X131420827Y-117934397D01*
X131566498Y-117994735D01*
X131566503Y-117994737D01*
X131721153Y-118025499D01*
X131721156Y-118025500D01*
X131721158Y-118025500D01*
X131878844Y-118025500D01*
X131878845Y-118025499D01*
X132033497Y-117994737D01*
X132179179Y-117934394D01*
X132310289Y-117846789D01*
X132421789Y-117735289D01*
X132509394Y-117604179D01*
X132569737Y-117458497D01*
X132600500Y-117303842D01*
X132600500Y-117221153D01*
X132999500Y-117221153D01*
X132999500Y-117378846D01*
X133030261Y-117533489D01*
X133030264Y-117533501D01*
X133090602Y-117679172D01*
X133090609Y-117679185D01*
X133178210Y-117810288D01*
X133178213Y-117810292D01*
X133289707Y-117921786D01*
X133289711Y-117921789D01*
X133420814Y-118009390D01*
X133420827Y-118009397D01*
X133566498Y-118069735D01*
X133566503Y-118069737D01*
X133721153Y-118100499D01*
X133721156Y-118100500D01*
X133721158Y-118100500D01*
X133878844Y-118100500D01*
X133878845Y-118100499D01*
X134033497Y-118069737D01*
X134179179Y-118009394D01*
X134310289Y-117921789D01*
X134421789Y-117810289D01*
X134509394Y-117679179D01*
X134569737Y-117533497D01*
X134600500Y-117378842D01*
X134600500Y-117221158D01*
X134600500Y-117221155D01*
X134600499Y-117221153D01*
X134569738Y-117066510D01*
X134569737Y-117066503D01*
X134538674Y-116991510D01*
X134509397Y-116920827D01*
X134509390Y-116920814D01*
X134421789Y-116789711D01*
X134421786Y-116789707D01*
X134310292Y-116678213D01*
X134310288Y-116678210D01*
X134179185Y-116590609D01*
X134179172Y-116590602D01*
X134033501Y-116530264D01*
X134033489Y-116530261D01*
X133878845Y-116499500D01*
X133878842Y-116499500D01*
X133721158Y-116499500D01*
X133721155Y-116499500D01*
X133566510Y-116530261D01*
X133566498Y-116530264D01*
X133420827Y-116590602D01*
X133420814Y-116590609D01*
X133289711Y-116678210D01*
X133289707Y-116678213D01*
X133178213Y-116789707D01*
X133178210Y-116789711D01*
X133090609Y-116920814D01*
X133090602Y-116920827D01*
X133030264Y-117066498D01*
X133030261Y-117066510D01*
X132999500Y-117221153D01*
X132600500Y-117221153D01*
X132600500Y-117146158D01*
X132600500Y-117146155D01*
X132600499Y-117146153D01*
X132584657Y-117066510D01*
X132569737Y-116991503D01*
X132569735Y-116991498D01*
X132509397Y-116845827D01*
X132509390Y-116845814D01*
X132421789Y-116714711D01*
X132421786Y-116714707D01*
X132310292Y-116603213D01*
X132310288Y-116603210D01*
X132179185Y-116515609D01*
X132179172Y-116515602D01*
X132033501Y-116455264D01*
X132033489Y-116455261D01*
X131878845Y-116424500D01*
X131878842Y-116424500D01*
X131721158Y-116424500D01*
X131721155Y-116424500D01*
X131566510Y-116455261D01*
X131566498Y-116455264D01*
X131420827Y-116515602D01*
X131420814Y-116515609D01*
X131289711Y-116603210D01*
X131289707Y-116603213D01*
X131178213Y-116714707D01*
X131178210Y-116714711D01*
X131090609Y-116845814D01*
X131090602Y-116845827D01*
X131030264Y-116991498D01*
X131030261Y-116991510D01*
X130999500Y-117146153D01*
X122525500Y-117146153D01*
X122525500Y-112671153D01*
X136534500Y-112671153D01*
X136534500Y-112828846D01*
X136565261Y-112983489D01*
X136565264Y-112983501D01*
X136625602Y-113129172D01*
X136625609Y-113129185D01*
X136713210Y-113260288D01*
X136713213Y-113260292D01*
X136824707Y-113371786D01*
X136824711Y-113371789D01*
X136955814Y-113459390D01*
X136955827Y-113459397D01*
X137101498Y-113519735D01*
X137101503Y-113519737D01*
X137256153Y-113550499D01*
X137256156Y-113550500D01*
X137256158Y-113550500D01*
X137413844Y-113550500D01*
X137413845Y-113550499D01*
X137568497Y-113519737D01*
X137714179Y-113459394D01*
X137845289Y-113371789D01*
X137956789Y-113260289D01*
X138044394Y-113129179D01*
X138104737Y-112983497D01*
X138135500Y-112828842D01*
X138135500Y-112671158D01*
X138135500Y-112671155D01*
X138135499Y-112671153D01*
X138104738Y-112516510D01*
X138104737Y-112516503D01*
X138104735Y-112516498D01*
X138044397Y-112370827D01*
X138044390Y-112370814D01*
X137956789Y-112239711D01*
X137956786Y-112239707D01*
X137845292Y-112128213D01*
X137845288Y-112128210D01*
X137714185Y-112040609D01*
X137714172Y-112040602D01*
X137568501Y-111980264D01*
X137568489Y-111980261D01*
X137413845Y-111949500D01*
X137413842Y-111949500D01*
X137256158Y-111949500D01*
X137256155Y-111949500D01*
X137101510Y-111980261D01*
X137101498Y-111980264D01*
X136955827Y-112040602D01*
X136955814Y-112040609D01*
X136824711Y-112128210D01*
X136824707Y-112128213D01*
X136713213Y-112239707D01*
X136713210Y-112239711D01*
X136625609Y-112370814D01*
X136625602Y-112370827D01*
X136565264Y-112516498D01*
X136565261Y-112516510D01*
X136534500Y-112671153D01*
X122525500Y-112671153D01*
X122525500Y-108421153D01*
X128724500Y-108421153D01*
X128724500Y-108578846D01*
X128755261Y-108733489D01*
X128755264Y-108733501D01*
X128815602Y-108879172D01*
X128815609Y-108879185D01*
X128903210Y-109010288D01*
X128903213Y-109010292D01*
X129014707Y-109121786D01*
X129014711Y-109121789D01*
X129145814Y-109209390D01*
X129145827Y-109209397D01*
X129291498Y-109269735D01*
X129291503Y-109269737D01*
X129446153Y-109300499D01*
X129446156Y-109300500D01*
X129446158Y-109300500D01*
X129603844Y-109300500D01*
X129603845Y-109300499D01*
X129758497Y-109269737D01*
X129904179Y-109209394D01*
X130035289Y-109121789D01*
X130146789Y-109010289D01*
X130234394Y-108879179D01*
X130294737Y-108733497D01*
X130325500Y-108578842D01*
X130325500Y-108421158D01*
X130325500Y-108421155D01*
X130325499Y-108421153D01*
X130294738Y-108266510D01*
X130294737Y-108266503D01*
X130294735Y-108266498D01*
X130234397Y-108120827D01*
X130234390Y-108120814D01*
X130146789Y-107989711D01*
X130146786Y-107989707D01*
X130035292Y-107878213D01*
X130035288Y-107878210D01*
X129904185Y-107790609D01*
X129904172Y-107790602D01*
X129758501Y-107730264D01*
X129758489Y-107730261D01*
X129603845Y-107699500D01*
X129603842Y-107699500D01*
X129446158Y-107699500D01*
X129446155Y-107699500D01*
X129291510Y-107730261D01*
X129291498Y-107730264D01*
X129145827Y-107790602D01*
X129145814Y-107790609D01*
X129014711Y-107878210D01*
X129014707Y-107878213D01*
X128903213Y-107989707D01*
X128903210Y-107989711D01*
X128815609Y-108120814D01*
X128815602Y-108120827D01*
X128755264Y-108266498D01*
X128755261Y-108266510D01*
X128724500Y-108421153D01*
X122525500Y-108421153D01*
X122525500Y-104321153D01*
X142224471Y-104321153D01*
X142224471Y-104478846D01*
X142255232Y-104633489D01*
X142255235Y-104633501D01*
X142315573Y-104779172D01*
X142315580Y-104779185D01*
X142403181Y-104910288D01*
X142403184Y-104910292D01*
X142514678Y-105021786D01*
X142514682Y-105021789D01*
X142645785Y-105109390D01*
X142645798Y-105109397D01*
X142791469Y-105169735D01*
X142791474Y-105169737D01*
X142946124Y-105200499D01*
X142946127Y-105200500D01*
X142946129Y-105200500D01*
X143103815Y-105200500D01*
X143103816Y-105200499D01*
X143258468Y-105169737D01*
X143404150Y-105109394D01*
X143535260Y-105021789D01*
X143646760Y-104910289D01*
X143734365Y-104779179D01*
X143794708Y-104633497D01*
X143825471Y-104478842D01*
X143825471Y-104321158D01*
X143825471Y-104321155D01*
X143825470Y-104321153D01*
X143794709Y-104166510D01*
X143794708Y-104166503D01*
X143794706Y-104166498D01*
X143734368Y-104020827D01*
X143734361Y-104020814D01*
X143646760Y-103889711D01*
X143646757Y-103889707D01*
X143535263Y-103778213D01*
X143535259Y-103778210D01*
X143404156Y-103690609D01*
X143404143Y-103690602D01*
X143258472Y-103630264D01*
X143258460Y-103630261D01*
X143103816Y-103599500D01*
X143103813Y-103599500D01*
X142946129Y-103599500D01*
X142946126Y-103599500D01*
X142791481Y-103630261D01*
X142791469Y-103630264D01*
X142645798Y-103690602D01*
X142645785Y-103690609D01*
X142514682Y-103778210D01*
X142514678Y-103778213D01*
X142403184Y-103889707D01*
X142403181Y-103889711D01*
X142315580Y-104020814D01*
X142315573Y-104020827D01*
X142255235Y-104166498D01*
X142255232Y-104166510D01*
X142224471Y-104321153D01*
X122525500Y-104321153D01*
X122525500Y-102621153D01*
X128724500Y-102621153D01*
X128724500Y-102778846D01*
X128755261Y-102933489D01*
X128755264Y-102933501D01*
X128815602Y-103079172D01*
X128815609Y-103079185D01*
X128903210Y-103210288D01*
X128903213Y-103210292D01*
X129014707Y-103321786D01*
X129014711Y-103321789D01*
X129145814Y-103409390D01*
X129145827Y-103409397D01*
X129291498Y-103469735D01*
X129291503Y-103469737D01*
X129446153Y-103500499D01*
X129446156Y-103500500D01*
X129446158Y-103500500D01*
X129603844Y-103500500D01*
X129603845Y-103500499D01*
X129758497Y-103469737D01*
X129904179Y-103409394D01*
X130035289Y-103321789D01*
X130146789Y-103210289D01*
X130234394Y-103079179D01*
X130294737Y-102933497D01*
X130325500Y-102778842D01*
X130325500Y-102621158D01*
X130325500Y-102621155D01*
X130325499Y-102621153D01*
X130294738Y-102466510D01*
X130294737Y-102466503D01*
X130294735Y-102466498D01*
X130234397Y-102320827D01*
X130234390Y-102320814D01*
X130146789Y-102189711D01*
X130146786Y-102189707D01*
X130035292Y-102078213D01*
X130035288Y-102078210D01*
X129904185Y-101990609D01*
X129904172Y-101990602D01*
X129758501Y-101930264D01*
X129758489Y-101930261D01*
X129603845Y-101899500D01*
X129603842Y-101899500D01*
X129446158Y-101899500D01*
X129446155Y-101899500D01*
X129291510Y-101930261D01*
X129291498Y-101930264D01*
X129145827Y-101990602D01*
X129145814Y-101990609D01*
X129014711Y-102078210D01*
X129014707Y-102078213D01*
X128903213Y-102189707D01*
X128903210Y-102189711D01*
X128815609Y-102320814D01*
X128815602Y-102320827D01*
X128755264Y-102466498D01*
X128755261Y-102466510D01*
X128724500Y-102621153D01*
X122525500Y-102621153D01*
X122525500Y-100577577D01*
X125625975Y-100577577D01*
X125731236Y-100621178D01*
X125731240Y-100621179D01*
X125876126Y-100649999D01*
X125876129Y-100650000D01*
X125972479Y-100650000D01*
X126039518Y-100669685D01*
X126085273Y-100722489D01*
X126095217Y-100791647D01*
X126066192Y-100855203D01*
X126041371Y-100877101D01*
X126039714Y-100878208D01*
X126039707Y-100878213D01*
X125928213Y-100989707D01*
X125928210Y-100989711D01*
X125840609Y-101120814D01*
X125840602Y-101120827D01*
X125780264Y-101266498D01*
X125780261Y-101266510D01*
X125749500Y-101421153D01*
X125749500Y-101578846D01*
X125780261Y-101733489D01*
X125780264Y-101733501D01*
X125840602Y-101879172D01*
X125840609Y-101879185D01*
X125928210Y-102010288D01*
X125928213Y-102010292D01*
X126039707Y-102121786D01*
X126039711Y-102121789D01*
X126170814Y-102209390D01*
X126170827Y-102209397D01*
X126316498Y-102269735D01*
X126316503Y-102269737D01*
X126471153Y-102300499D01*
X126471156Y-102300500D01*
X126471158Y-102300500D01*
X126628844Y-102300500D01*
X126628845Y-102300499D01*
X126783497Y-102269737D01*
X126929179Y-102209394D01*
X127060289Y-102121789D01*
X127171789Y-102010289D01*
X127259394Y-101879179D01*
X127319737Y-101733497D01*
X127350500Y-101578842D01*
X127350500Y-101421158D01*
X127350500Y-101421155D01*
X127334209Y-101339258D01*
X127334209Y-101339257D01*
X127330608Y-101321153D01*
X142999500Y-101321153D01*
X142999500Y-101478846D01*
X143030261Y-101633489D01*
X143030264Y-101633501D01*
X143090602Y-101779172D01*
X143090609Y-101779185D01*
X143178210Y-101910288D01*
X143178213Y-101910292D01*
X143289707Y-102021786D01*
X143289711Y-102021789D01*
X143420814Y-102109390D01*
X143420827Y-102109397D01*
X143566498Y-102169735D01*
X143566503Y-102169737D01*
X143721153Y-102200499D01*
X143721156Y-102200500D01*
X143721158Y-102200500D01*
X143878844Y-102200500D01*
X143878845Y-102200499D01*
X144033497Y-102169737D01*
X144179179Y-102109394D01*
X144310289Y-102021789D01*
X144421789Y-101910289D01*
X144509394Y-101779179D01*
X144569737Y-101633497D01*
X144600500Y-101478842D01*
X144600500Y-101321158D01*
X144600500Y-101321155D01*
X144600499Y-101321153D01*
X144569738Y-101166510D01*
X144569737Y-101166503D01*
X144550812Y-101120814D01*
X144509397Y-101020827D01*
X144509390Y-101020814D01*
X144421789Y-100889711D01*
X144421786Y-100889707D01*
X144310292Y-100778213D01*
X144310288Y-100778210D01*
X144179185Y-100690609D01*
X144179172Y-100690602D01*
X144033501Y-100630264D01*
X144033489Y-100630261D01*
X143878845Y-100599500D01*
X143878842Y-100599500D01*
X143721158Y-100599500D01*
X143721155Y-100599500D01*
X143566510Y-100630261D01*
X143566498Y-100630264D01*
X143420827Y-100690602D01*
X143420814Y-100690609D01*
X143289711Y-100778210D01*
X143289707Y-100778213D01*
X143178213Y-100889707D01*
X143178210Y-100889711D01*
X143090609Y-101020814D01*
X143090602Y-101020827D01*
X143030264Y-101166498D01*
X143030261Y-101166510D01*
X142999500Y-101321153D01*
X127330608Y-101321153D01*
X127319738Y-101266510D01*
X127319737Y-101266503D01*
X127278314Y-101166498D01*
X127259397Y-101120827D01*
X127259390Y-101120814D01*
X127171789Y-100989711D01*
X127171786Y-100989707D01*
X127060292Y-100878213D01*
X127060285Y-100878208D01*
X127058629Y-100877101D01*
X127057956Y-100876296D01*
X127055581Y-100874347D01*
X127055950Y-100873896D01*
X127013824Y-100823488D01*
X127005118Y-100754163D01*
X127035274Y-100691136D01*
X127094717Y-100654418D01*
X127117878Y-100651298D01*
X127117809Y-100650597D01*
X127123873Y-100649999D01*
X127268760Y-100621179D01*
X127268775Y-100621175D01*
X127374024Y-100577578D01*
X127374024Y-100577577D01*
X127050001Y-100253554D01*
X127050000Y-100253554D01*
X126721866Y-100581685D01*
X126722706Y-100585771D01*
X126716144Y-100602762D01*
X126714521Y-100620901D01*
X126703820Y-100634675D01*
X126697536Y-100650950D01*
X126682829Y-100661696D01*
X126671658Y-100676078D01*
X126655051Y-100681995D01*
X126641123Y-100692174D01*
X126612449Y-100697176D01*
X126606552Y-100699278D01*
X126602848Y-100699500D01*
X126471158Y-100699500D01*
X126414355Y-100710798D01*
X126405894Y-100711306D01*
X126379769Y-100705306D01*
X126353073Y-100702918D01*
X126346234Y-100697605D01*
X126337796Y-100695668D01*
X126319062Y-100676496D01*
X126297896Y-100660054D01*
X126295015Y-100651888D01*
X126288964Y-100645696D01*
X126283568Y-100619440D01*
X126274652Y-100594165D01*
X126275613Y-100580727D01*
X126275209Y-100578762D01*
X125950001Y-100253554D01*
X125950000Y-100253554D01*
X125625975Y-100577577D01*
X122525500Y-100577577D01*
X122525500Y-99826126D01*
X125200000Y-99826126D01*
X125200000Y-99973873D01*
X125228820Y-100118759D01*
X125228822Y-100118767D01*
X125272421Y-100224024D01*
X125596446Y-99900000D01*
X125596446Y-99899999D01*
X125576556Y-99880109D01*
X125850000Y-99880109D01*
X125850000Y-99919891D01*
X125865224Y-99956645D01*
X125893355Y-99984776D01*
X125930109Y-100000000D01*
X125969891Y-100000000D01*
X126006645Y-99984776D01*
X126034776Y-99956645D01*
X126050000Y-99919891D01*
X126050000Y-99900000D01*
X126303554Y-99900000D01*
X126500000Y-100096446D01*
X126696446Y-99900000D01*
X126676555Y-99880109D01*
X126950000Y-99880109D01*
X126950000Y-99919891D01*
X126965224Y-99956645D01*
X126993355Y-99984776D01*
X127030109Y-100000000D01*
X127069891Y-100000000D01*
X127106645Y-99984776D01*
X127134776Y-99956645D01*
X127150000Y-99919891D01*
X127150000Y-99899999D01*
X127403554Y-99899999D01*
X127403554Y-99900001D01*
X127727577Y-100224024D01*
X127727578Y-100224024D01*
X127771175Y-100118775D01*
X127771179Y-100118760D01*
X127799999Y-99973873D01*
X127800000Y-99973871D01*
X127800000Y-99826128D01*
X127799999Y-99826126D01*
X127771179Y-99681240D01*
X127771178Y-99681236D01*
X127727577Y-99575975D01*
X127403554Y-99899999D01*
X127150000Y-99899999D01*
X127150000Y-99880109D01*
X127134776Y-99843355D01*
X127106645Y-99815224D01*
X127069891Y-99800000D01*
X127030109Y-99800000D01*
X126993355Y-99815224D01*
X126965224Y-99843355D01*
X126950000Y-99880109D01*
X126676555Y-99880109D01*
X126500000Y-99703554D01*
X126303554Y-99900000D01*
X126050000Y-99900000D01*
X126050000Y-99880109D01*
X126034776Y-99843355D01*
X126006645Y-99815224D01*
X125969891Y-99800000D01*
X125930109Y-99800000D01*
X125893355Y-99815224D01*
X125865224Y-99843355D01*
X125850000Y-99880109D01*
X125576556Y-99880109D01*
X125272421Y-99575974D01*
X125272420Y-99575974D01*
X125228823Y-99681228D01*
X125228820Y-99681240D01*
X125200000Y-99826126D01*
X122525500Y-99826126D01*
X122525500Y-99222420D01*
X125625974Y-99222420D01*
X125625974Y-99222421D01*
X125950000Y-99546446D01*
X125950001Y-99546446D01*
X126274024Y-99222421D01*
X126274022Y-99222420D01*
X126725974Y-99222420D01*
X126725974Y-99222421D01*
X127050000Y-99546446D01*
X127050001Y-99546446D01*
X127374024Y-99222421D01*
X127268767Y-99178822D01*
X127268759Y-99178820D01*
X127123872Y-99150000D01*
X126976128Y-99150000D01*
X126831240Y-99178820D01*
X126831228Y-99178823D01*
X126725974Y-99222420D01*
X126274022Y-99222420D01*
X126168767Y-99178822D01*
X126168759Y-99178820D01*
X126023872Y-99150000D01*
X125876128Y-99150000D01*
X125731240Y-99178820D01*
X125731228Y-99178823D01*
X125625974Y-99222420D01*
X122525500Y-99222420D01*
X122525500Y-97321153D01*
X125449500Y-97321153D01*
X125449500Y-97478846D01*
X125480261Y-97633489D01*
X125480264Y-97633501D01*
X125540602Y-97779172D01*
X125540609Y-97779185D01*
X125628210Y-97910288D01*
X125628213Y-97910292D01*
X125739707Y-98021786D01*
X125739711Y-98021789D01*
X125870814Y-98109390D01*
X125870827Y-98109397D01*
X126016498Y-98169735D01*
X126016503Y-98169737D01*
X126171153Y-98200499D01*
X126171156Y-98200500D01*
X126171158Y-98200500D01*
X126328844Y-98200500D01*
X126328845Y-98200499D01*
X126483497Y-98169737D01*
X126629179Y-98109394D01*
X126760289Y-98021789D01*
X126871789Y-97910289D01*
X126959394Y-97779179D01*
X127019737Y-97633497D01*
X127050500Y-97478842D01*
X127050500Y-97321158D01*
X127050500Y-97321155D01*
X127050499Y-97321153D01*
X127019738Y-97166510D01*
X127019737Y-97166503D01*
X127019735Y-97166498D01*
X126959397Y-97020827D01*
X126959390Y-97020814D01*
X126871789Y-96889711D01*
X126871786Y-96889707D01*
X126760292Y-96778213D01*
X126760288Y-96778210D01*
X126629185Y-96690609D01*
X126629172Y-96690602D01*
X126483501Y-96630264D01*
X126483489Y-96630261D01*
X126328845Y-96599500D01*
X126328842Y-96599500D01*
X126171158Y-96599500D01*
X126171155Y-96599500D01*
X126016510Y-96630261D01*
X126016498Y-96630264D01*
X125870827Y-96690602D01*
X125870814Y-96690609D01*
X125739711Y-96778210D01*
X125739707Y-96778213D01*
X125628213Y-96889707D01*
X125628210Y-96889711D01*
X125540609Y-97020814D01*
X125540602Y-97020827D01*
X125480264Y-97166498D01*
X125480261Y-97166510D01*
X125449500Y-97321153D01*
X122525500Y-97321153D01*
X122525500Y-85221153D01*
X127899500Y-85221153D01*
X127899500Y-85378846D01*
X127930261Y-85533489D01*
X127930264Y-85533501D01*
X127990602Y-85679172D01*
X127990609Y-85679185D01*
X128078210Y-85810288D01*
X128078213Y-85810292D01*
X128189707Y-85921786D01*
X128189711Y-85921789D01*
X128320814Y-86009390D01*
X128320827Y-86009397D01*
X128407791Y-86045418D01*
X128466503Y-86069737D01*
X128621153Y-86100499D01*
X128621156Y-86100500D01*
X128621158Y-86100500D01*
X128778844Y-86100500D01*
X128778845Y-86100499D01*
X128933497Y-86069737D01*
X129079179Y-86009394D01*
X129210289Y-85921789D01*
X129289760Y-85842317D01*
X129351081Y-85808834D01*
X129420773Y-85813818D01*
X129476707Y-85855689D01*
X129487190Y-85874100D01*
X129487736Y-85873809D01*
X129490609Y-85879185D01*
X129578210Y-86010288D01*
X129578213Y-86010292D01*
X129689707Y-86121786D01*
X129689711Y-86121789D01*
X129820814Y-86209390D01*
X129820827Y-86209397D01*
X129966498Y-86269735D01*
X129966503Y-86269737D01*
X130121153Y-86300499D01*
X130121156Y-86300500D01*
X130121158Y-86300500D01*
X130278844Y-86300500D01*
X130278845Y-86300499D01*
X130433497Y-86269737D01*
X130579179Y-86209394D01*
X130710289Y-86121789D01*
X130786660Y-86045418D01*
X133175235Y-86045418D01*
X133175235Y-86203111D01*
X133205996Y-86357754D01*
X133205999Y-86357766D01*
X133266337Y-86503437D01*
X133266344Y-86503450D01*
X133353945Y-86634553D01*
X133353948Y-86634557D01*
X133465442Y-86746051D01*
X133465446Y-86746054D01*
X133596549Y-86833655D01*
X133596562Y-86833662D01*
X133742233Y-86894000D01*
X133742238Y-86894002D01*
X133878760Y-86921158D01*
X133896888Y-86924764D01*
X133896891Y-86924765D01*
X133896893Y-86924765D01*
X134054579Y-86924765D01*
X134054580Y-86924764D01*
X134209232Y-86894002D01*
X134354914Y-86833659D01*
X134408152Y-86798086D01*
X134474827Y-86777209D01*
X134542208Y-86795693D01*
X134588898Y-86847671D01*
X134599819Y-86915065D01*
X134600097Y-86915093D01*
X134599993Y-86916140D01*
X134600075Y-86916641D01*
X134599741Y-86918699D01*
X134599500Y-86921155D01*
X134599500Y-87078846D01*
X134630261Y-87233489D01*
X134630264Y-87233501D01*
X134690602Y-87379172D01*
X134690609Y-87379185D01*
X134778210Y-87510288D01*
X134778213Y-87510292D01*
X134889707Y-87621786D01*
X134889711Y-87621789D01*
X135020814Y-87709390D01*
X135020827Y-87709397D01*
X135166498Y-87769735D01*
X135166503Y-87769737D01*
X135210334Y-87778455D01*
X135272242Y-87810839D01*
X135306817Y-87871554D01*
X135303078Y-87941323D01*
X135273823Y-87987753D01*
X135178210Y-88083366D01*
X135090609Y-88214469D01*
X135090602Y-88214482D01*
X135030264Y-88360153D01*
X135030261Y-88360165D01*
X134999500Y-88514808D01*
X134999500Y-88672501D01*
X135030261Y-88827144D01*
X135030264Y-88827156D01*
X135090602Y-88972827D01*
X135090609Y-88972840D01*
X135178210Y-89103943D01*
X135178213Y-89103947D01*
X135289707Y-89215441D01*
X135289711Y-89215444D01*
X135420814Y-89303045D01*
X135420827Y-89303052D01*
X135557865Y-89359814D01*
X135566503Y-89363392D01*
X135721153Y-89394154D01*
X135721156Y-89394155D01*
X135721158Y-89394155D01*
X135878844Y-89394155D01*
X135878845Y-89394154D01*
X136033497Y-89363392D01*
X136099607Y-89336008D01*
X136169071Y-89328540D01*
X136231551Y-89359814D01*
X136267204Y-89419903D01*
X136268674Y-89474760D01*
X136249500Y-89571158D01*
X136249500Y-89728846D01*
X136280261Y-89883489D01*
X136280264Y-89883501D01*
X136340602Y-90029172D01*
X136340609Y-90029185D01*
X136428210Y-90160288D01*
X136428213Y-90160292D01*
X136539707Y-90271786D01*
X136539711Y-90271789D01*
X136670814Y-90359390D01*
X136670827Y-90359397D01*
X136816498Y-90419735D01*
X136816503Y-90419737D01*
X136971153Y-90450499D01*
X136971156Y-90450500D01*
X136971158Y-90450500D01*
X137128844Y-90450500D01*
X137128845Y-90450499D01*
X137283497Y-90419737D01*
X137429179Y-90359394D01*
X137560289Y-90271789D01*
X137671789Y-90160289D01*
X137759394Y-90029179D01*
X137819737Y-89883497D01*
X137850500Y-89728842D01*
X137850500Y-89571158D01*
X137850500Y-89571155D01*
X137850499Y-89571153D01*
X137819738Y-89416510D01*
X137819737Y-89416503D01*
X137810480Y-89394154D01*
X137759397Y-89270827D01*
X137759390Y-89270814D01*
X137671789Y-89139711D01*
X137671786Y-89139707D01*
X137560292Y-89028213D01*
X137560288Y-89028210D01*
X137429185Y-88940609D01*
X137429172Y-88940602D01*
X137283501Y-88880264D01*
X137283489Y-88880261D01*
X137128845Y-88849500D01*
X137128842Y-88849500D01*
X136971158Y-88849500D01*
X136971155Y-88849500D01*
X136816510Y-88880261D01*
X136816498Y-88880264D01*
X136750395Y-88907645D01*
X136680926Y-88915114D01*
X136618447Y-88883838D01*
X136582795Y-88823749D01*
X136581326Y-88768892D01*
X136600500Y-88672499D01*
X136600500Y-88514810D01*
X136600499Y-88514808D01*
X136569738Y-88360165D01*
X136569737Y-88360158D01*
X136569735Y-88360153D01*
X136509397Y-88214482D01*
X136509390Y-88214469D01*
X136421789Y-88083366D01*
X136421786Y-88083362D01*
X136310292Y-87971868D01*
X136310288Y-87971865D01*
X136179185Y-87884264D01*
X136179172Y-87884257D01*
X136033501Y-87823919D01*
X136033491Y-87823916D01*
X135989666Y-87815199D01*
X135927755Y-87782814D01*
X135893181Y-87722098D01*
X135896921Y-87652329D01*
X135926175Y-87605902D01*
X136021789Y-87510289D01*
X136109394Y-87379179D01*
X136169737Y-87233497D01*
X136200500Y-87078842D01*
X136200500Y-86921158D01*
X136200500Y-86921155D01*
X136200499Y-86921153D01*
X136200011Y-86918699D01*
X136169737Y-86766503D01*
X136115084Y-86634557D01*
X136109397Y-86620827D01*
X136109390Y-86620814D01*
X136021789Y-86489711D01*
X136021786Y-86489707D01*
X135910292Y-86378213D01*
X135910288Y-86378210D01*
X135779185Y-86290609D01*
X135779172Y-86290602D01*
X135633501Y-86230264D01*
X135633489Y-86230261D01*
X135478845Y-86199500D01*
X135478842Y-86199500D01*
X135321158Y-86199500D01*
X135321155Y-86199500D01*
X135166510Y-86230261D01*
X135166498Y-86230264D01*
X135020827Y-86290602D01*
X135020816Y-86290608D01*
X134967582Y-86326178D01*
X134900904Y-86347055D01*
X134833524Y-86328570D01*
X134786835Y-86276590D01*
X134775914Y-86209199D01*
X134775638Y-86209172D01*
X134775740Y-86208126D01*
X134775659Y-86207620D01*
X134775994Y-86205552D01*
X134776235Y-86203109D01*
X134776235Y-86045420D01*
X134776234Y-86045418D01*
X134769068Y-86009394D01*
X134745472Y-85890768D01*
X134738568Y-85874100D01*
X134685132Y-85745092D01*
X134685125Y-85745079D01*
X134610875Y-85633957D01*
X134610874Y-85633956D01*
X134597522Y-85613973D01*
X134554702Y-85571153D01*
X137299500Y-85571153D01*
X137299500Y-85728846D01*
X137330261Y-85883489D01*
X137330264Y-85883501D01*
X137390602Y-86029172D01*
X137390609Y-86029185D01*
X137478210Y-86160288D01*
X137478213Y-86160292D01*
X137589707Y-86271786D01*
X137589711Y-86271789D01*
X137720814Y-86359390D01*
X137720827Y-86359397D01*
X137766254Y-86378213D01*
X137866503Y-86419737D01*
X138021153Y-86450499D01*
X138021156Y-86450500D01*
X138021158Y-86450500D01*
X138178844Y-86450500D01*
X138178845Y-86450499D01*
X138333497Y-86419737D01*
X138479179Y-86359394D01*
X138610289Y-86271789D01*
X138721789Y-86160289D01*
X138809394Y-86029179D01*
X138869737Y-85883497D01*
X138900500Y-85728842D01*
X138900500Y-85571158D01*
X138900500Y-85571155D01*
X138900499Y-85571153D01*
X138869737Y-85416503D01*
X138854139Y-85378846D01*
X138809397Y-85270827D01*
X138809390Y-85270814D01*
X138721789Y-85139711D01*
X138721786Y-85139707D01*
X138610292Y-85028213D01*
X138610288Y-85028210D01*
X138479185Y-84940609D01*
X138479172Y-84940602D01*
X138333501Y-84880264D01*
X138333489Y-84880261D01*
X138178845Y-84849500D01*
X138178842Y-84849500D01*
X138021158Y-84849500D01*
X138021155Y-84849500D01*
X137866510Y-84880261D01*
X137866498Y-84880264D01*
X137720827Y-84940602D01*
X137720814Y-84940609D01*
X137589711Y-85028210D01*
X137589707Y-85028213D01*
X137478213Y-85139707D01*
X137478210Y-85139711D01*
X137390609Y-85270814D01*
X137390602Y-85270827D01*
X137330264Y-85416498D01*
X137330261Y-85416510D01*
X137299500Y-85571153D01*
X134554702Y-85571153D01*
X134486027Y-85502478D01*
X134486023Y-85502475D01*
X134354920Y-85414874D01*
X134354907Y-85414867D01*
X134209236Y-85354529D01*
X134209224Y-85354526D01*
X134054580Y-85323765D01*
X134054577Y-85323765D01*
X133896893Y-85323765D01*
X133896890Y-85323765D01*
X133742245Y-85354526D01*
X133742233Y-85354529D01*
X133596562Y-85414867D01*
X133596549Y-85414874D01*
X133465446Y-85502475D01*
X133465442Y-85502478D01*
X133353948Y-85613972D01*
X133353945Y-85613976D01*
X133266344Y-85745079D01*
X133266337Y-85745092D01*
X133205999Y-85890763D01*
X133205996Y-85890775D01*
X133175235Y-86045418D01*
X130786660Y-86045418D01*
X130821789Y-86010289D01*
X130834610Y-85991099D01*
X130848416Y-85970440D01*
X130909390Y-85879185D01*
X130909390Y-85879184D01*
X130909394Y-85879179D01*
X130969737Y-85733497D01*
X131000500Y-85578842D01*
X131000500Y-85421158D01*
X131000500Y-85421155D01*
X131000499Y-85421153D01*
X130999249Y-85414867D01*
X130969737Y-85266503D01*
X130950953Y-85221153D01*
X130909397Y-85120827D01*
X130909390Y-85120814D01*
X130821789Y-84989711D01*
X130821786Y-84989707D01*
X130710292Y-84878213D01*
X130710288Y-84878210D01*
X130579185Y-84790609D01*
X130579172Y-84790602D01*
X130433501Y-84730264D01*
X130433489Y-84730261D01*
X130278845Y-84699500D01*
X130278842Y-84699500D01*
X130121158Y-84699500D01*
X130121155Y-84699500D01*
X129966510Y-84730261D01*
X129966498Y-84730264D01*
X129820827Y-84790602D01*
X129820814Y-84790609D01*
X129689711Y-84878210D01*
X129610240Y-84957681D01*
X129548916Y-84991165D01*
X129479225Y-84986181D01*
X129423291Y-84944309D01*
X129412810Y-84925898D01*
X129412264Y-84926191D01*
X129409390Y-84920814D01*
X129321789Y-84789711D01*
X129321786Y-84789707D01*
X129210292Y-84678213D01*
X129210288Y-84678210D01*
X129079185Y-84590609D01*
X129079172Y-84590602D01*
X128933501Y-84530264D01*
X128933489Y-84530261D01*
X128778845Y-84499500D01*
X128778842Y-84499500D01*
X128621158Y-84499500D01*
X128621155Y-84499500D01*
X128466510Y-84530261D01*
X128466498Y-84530264D01*
X128320827Y-84590602D01*
X128320814Y-84590609D01*
X128189711Y-84678210D01*
X128189707Y-84678213D01*
X128078213Y-84789707D01*
X128078210Y-84789711D01*
X127990609Y-84920814D01*
X127990602Y-84920827D01*
X127930264Y-85066498D01*
X127930261Y-85066510D01*
X127899500Y-85221153D01*
X122525500Y-85221153D01*
X122525500Y-82877577D01*
X131975975Y-82877577D01*
X132081236Y-82921178D01*
X132081240Y-82921179D01*
X132226126Y-82949999D01*
X132226129Y-82950000D01*
X132373871Y-82950000D01*
X132373873Y-82949999D01*
X132518760Y-82921179D01*
X132518775Y-82921175D01*
X132624024Y-82877578D01*
X132624024Y-82877577D01*
X133425975Y-82877577D01*
X133531236Y-82921178D01*
X133531240Y-82921179D01*
X133676126Y-82949999D01*
X133676129Y-82950000D01*
X133823871Y-82950000D01*
X133823873Y-82949999D01*
X133968760Y-82921179D01*
X133968775Y-82921175D01*
X134074024Y-82877578D01*
X134074024Y-82877577D01*
X134875975Y-82877577D01*
X134981236Y-82921178D01*
X134981240Y-82921179D01*
X135126126Y-82949999D01*
X135126129Y-82950000D01*
X135273871Y-82950000D01*
X135273873Y-82949999D01*
X135418760Y-82921179D01*
X135418775Y-82921175D01*
X135524024Y-82877578D01*
X135524024Y-82877577D01*
X135200001Y-82553554D01*
X135200000Y-82553554D01*
X134875975Y-82877577D01*
X134074024Y-82877577D01*
X133750001Y-82553554D01*
X133750000Y-82553554D01*
X133425975Y-82877577D01*
X132624024Y-82877577D01*
X132300001Y-82553554D01*
X132300000Y-82553554D01*
X131975975Y-82877577D01*
X122525500Y-82877577D01*
X122525500Y-82126126D01*
X131550000Y-82126126D01*
X131550000Y-82273873D01*
X131578820Y-82418759D01*
X131578822Y-82418767D01*
X131622421Y-82524024D01*
X131946446Y-82200000D01*
X131946446Y-82199999D01*
X131926556Y-82180109D01*
X132200000Y-82180109D01*
X132200000Y-82219891D01*
X132215224Y-82256645D01*
X132243355Y-82284776D01*
X132280109Y-82300000D01*
X132319891Y-82300000D01*
X132356645Y-82284776D01*
X132384776Y-82256645D01*
X132400000Y-82219891D01*
X132400000Y-82199999D01*
X132653554Y-82199999D01*
X132653554Y-82200001D01*
X132977576Y-82524023D01*
X133000807Y-82519403D01*
X133049191Y-82519403D01*
X133072422Y-82524024D01*
X133396446Y-82200000D01*
X133396446Y-82199999D01*
X133376556Y-82180109D01*
X133650000Y-82180109D01*
X133650000Y-82219891D01*
X133665224Y-82256645D01*
X133693355Y-82284776D01*
X133730109Y-82300000D01*
X133769891Y-82300000D01*
X133806645Y-82284776D01*
X133834776Y-82256645D01*
X133850000Y-82219891D01*
X133850000Y-82199999D01*
X134103554Y-82199999D01*
X134103554Y-82200001D01*
X134427576Y-82524023D01*
X134450807Y-82519403D01*
X134499191Y-82519403D01*
X134522422Y-82524024D01*
X134846446Y-82200000D01*
X134846446Y-82199999D01*
X134826556Y-82180109D01*
X135100000Y-82180109D01*
X135100000Y-82219891D01*
X135115224Y-82256645D01*
X135143355Y-82284776D01*
X135180109Y-82300000D01*
X135219891Y-82300000D01*
X135256645Y-82284776D01*
X135284776Y-82256645D01*
X135300000Y-82219891D01*
X135300000Y-82199999D01*
X135553554Y-82199999D01*
X135553554Y-82200001D01*
X135877577Y-82524024D01*
X135877578Y-82524024D01*
X135921175Y-82418775D01*
X135921179Y-82418760D01*
X135949999Y-82273873D01*
X135950000Y-82273871D01*
X135950000Y-82126128D01*
X135949999Y-82126126D01*
X135942666Y-82089257D01*
X135939065Y-82071153D01*
X138549500Y-82071153D01*
X138549500Y-82228846D01*
X138580261Y-82383489D01*
X138580264Y-82383501D01*
X138640602Y-82529172D01*
X138640609Y-82529185D01*
X138728210Y-82660288D01*
X138728213Y-82660292D01*
X138839707Y-82771786D01*
X138839711Y-82771789D01*
X138970814Y-82859390D01*
X138970827Y-82859397D01*
X139116498Y-82919735D01*
X139116503Y-82919737D01*
X139116507Y-82919737D01*
X139116508Y-82919738D01*
X139218404Y-82940007D01*
X139280315Y-82972392D01*
X139314889Y-83033108D01*
X139311149Y-83102877D01*
X139281894Y-83149305D01*
X139191488Y-83239711D01*
X139103887Y-83370814D01*
X139103880Y-83370827D01*
X139043542Y-83516498D01*
X139043539Y-83516510D01*
X139012778Y-83671153D01*
X139012778Y-83828846D01*
X139043539Y-83983489D01*
X139043542Y-83983501D01*
X139103880Y-84129172D01*
X139103887Y-84129185D01*
X139191488Y-84260288D01*
X139191491Y-84260292D01*
X139302985Y-84371786D01*
X139302989Y-84371789D01*
X139434092Y-84459390D01*
X139434105Y-84459397D01*
X139530924Y-84499500D01*
X139579781Y-84519737D01*
X139734431Y-84550499D01*
X139734434Y-84550500D01*
X139734436Y-84550500D01*
X139892122Y-84550500D01*
X139892123Y-84550499D01*
X140046775Y-84519737D01*
X140192457Y-84459394D01*
X140323567Y-84371789D01*
X140435067Y-84260289D01*
X140522672Y-84129179D01*
X140583015Y-83983497D01*
X140613778Y-83828842D01*
X140613778Y-83671158D01*
X140613080Y-83667649D01*
X140613247Y-83665772D01*
X140613181Y-83665093D01*
X140613309Y-83665080D01*
X140619304Y-83598058D01*
X140662164Y-83542878D01*
X140728052Y-83519630D01*
X140789276Y-83533233D01*
X140789457Y-83532798D01*
X140791935Y-83533824D01*
X140793152Y-83534095D01*
X140795092Y-83535132D01*
X140940763Y-83595470D01*
X140940768Y-83595472D01*
X141095418Y-83626234D01*
X141095421Y-83626235D01*
X141095423Y-83626235D01*
X141253109Y-83626235D01*
X141253110Y-83626234D01*
X141407762Y-83595472D01*
X141553444Y-83535129D01*
X141684554Y-83447524D01*
X141796054Y-83336024D01*
X141883659Y-83204914D01*
X141944002Y-83059232D01*
X141974765Y-82904577D01*
X141974765Y-82746893D01*
X141974765Y-82746890D01*
X141974764Y-82746888D01*
X141944003Y-82592245D01*
X141944002Y-82592238D01*
X141917885Y-82529185D01*
X141883662Y-82446562D01*
X141883655Y-82446549D01*
X141796054Y-82315446D01*
X141796051Y-82315442D01*
X141684557Y-82203948D01*
X141684553Y-82203945D01*
X141553450Y-82116344D01*
X141553437Y-82116337D01*
X141407766Y-82055999D01*
X141407754Y-82055996D01*
X141253110Y-82025235D01*
X141253107Y-82025235D01*
X141095423Y-82025235D01*
X141095420Y-82025235D01*
X140940775Y-82055996D01*
X140940763Y-82055999D01*
X140795092Y-82116337D01*
X140795079Y-82116344D01*
X140663976Y-82203945D01*
X140663972Y-82203948D01*
X140552478Y-82315442D01*
X140552475Y-82315446D01*
X140464874Y-82446549D01*
X140464867Y-82446562D01*
X140404529Y-82592233D01*
X140404526Y-82592245D01*
X140373765Y-82746888D01*
X140373765Y-82746893D01*
X140373765Y-82904577D01*
X140373765Y-82904579D01*
X140373764Y-82904579D01*
X140374464Y-82908094D01*
X140374295Y-82909971D01*
X140374362Y-82910642D01*
X140374234Y-82910654D01*
X140368235Y-82977686D01*
X140325370Y-83032862D01*
X140259479Y-83056104D01*
X140198266Y-83042502D01*
X140198086Y-83042937D01*
X140195612Y-83041912D01*
X140194395Y-83041642D01*
X140192450Y-83040602D01*
X140046779Y-82980264D01*
X140046769Y-82980261D01*
X139944873Y-82959992D01*
X139882962Y-82927606D01*
X139848388Y-82866890D01*
X139852129Y-82797121D01*
X139881382Y-82750695D01*
X139971789Y-82660289D01*
X140059394Y-82529179D01*
X140119737Y-82383497D01*
X140150500Y-82228842D01*
X140150500Y-82071158D01*
X140150500Y-82071155D01*
X140150499Y-82071153D01*
X140132613Y-81981236D01*
X140119737Y-81916503D01*
X140102950Y-81875975D01*
X140059397Y-81770827D01*
X140059390Y-81770814D01*
X139971789Y-81639711D01*
X139971786Y-81639707D01*
X139860292Y-81528213D01*
X139860288Y-81528210D01*
X139729185Y-81440609D01*
X139729172Y-81440602D01*
X139583501Y-81380264D01*
X139583489Y-81380261D01*
X139428845Y-81349500D01*
X139428842Y-81349500D01*
X139271158Y-81349500D01*
X139271155Y-81349500D01*
X139116510Y-81380261D01*
X139116498Y-81380264D01*
X138970827Y-81440602D01*
X138970814Y-81440609D01*
X138839711Y-81528210D01*
X138839707Y-81528213D01*
X138728213Y-81639707D01*
X138728210Y-81639711D01*
X138640609Y-81770814D01*
X138640602Y-81770827D01*
X138580264Y-81916498D01*
X138580261Y-81916510D01*
X138549500Y-82071153D01*
X135939065Y-82071153D01*
X135921179Y-81981240D01*
X135921178Y-81981236D01*
X135877577Y-81875975D01*
X135553554Y-82199999D01*
X135300000Y-82199999D01*
X135300000Y-82180109D01*
X135284776Y-82143355D01*
X135256645Y-82115224D01*
X135219891Y-82100000D01*
X135180109Y-82100000D01*
X135143355Y-82115224D01*
X135115224Y-82143355D01*
X135100000Y-82180109D01*
X134826556Y-82180109D01*
X134522421Y-81875974D01*
X134499190Y-81880595D01*
X134450808Y-81880595D01*
X134427577Y-81875974D01*
X134103554Y-82199999D01*
X133850000Y-82199999D01*
X133850000Y-82180109D01*
X133834776Y-82143355D01*
X133806645Y-82115224D01*
X133769891Y-82100000D01*
X133730109Y-82100000D01*
X133693355Y-82115224D01*
X133665224Y-82143355D01*
X133650000Y-82180109D01*
X133376556Y-82180109D01*
X133072421Y-81875974D01*
X133049190Y-81880595D01*
X133000808Y-81880595D01*
X132977577Y-81875974D01*
X132653554Y-82199999D01*
X132400000Y-82199999D01*
X132400000Y-82180109D01*
X132384776Y-82143355D01*
X132356645Y-82115224D01*
X132319891Y-82100000D01*
X132280109Y-82100000D01*
X132243355Y-82115224D01*
X132215224Y-82143355D01*
X132200000Y-82180109D01*
X131926556Y-82180109D01*
X131622421Y-81875974D01*
X131622420Y-81875974D01*
X131578823Y-81981228D01*
X131578820Y-81981240D01*
X131550000Y-82126126D01*
X122525500Y-82126126D01*
X122525500Y-80971153D01*
X127599500Y-80971153D01*
X127599500Y-81128846D01*
X127630261Y-81283489D01*
X127630264Y-81283501D01*
X127690602Y-81429172D01*
X127690609Y-81429185D01*
X127778210Y-81560288D01*
X127778213Y-81560292D01*
X127889707Y-81671786D01*
X127889711Y-81671789D01*
X128020814Y-81759390D01*
X128020827Y-81759397D01*
X128166498Y-81819735D01*
X128166503Y-81819737D01*
X128321153Y-81850499D01*
X128321156Y-81850500D01*
X128321158Y-81850500D01*
X128478844Y-81850500D01*
X128478845Y-81850499D01*
X128633497Y-81819737D01*
X128751592Y-81770821D01*
X128779172Y-81759397D01*
X128779172Y-81759396D01*
X128779179Y-81759394D01*
X128910289Y-81671789D01*
X129021789Y-81560289D01*
X129109394Y-81429179D01*
X129110058Y-81427577D01*
X131975974Y-81427577D01*
X131980595Y-81450808D01*
X131980595Y-81499190D01*
X131975974Y-81522421D01*
X132300000Y-81846446D01*
X132300001Y-81846446D01*
X132624024Y-81522422D01*
X132619403Y-81499191D01*
X132619403Y-81490853D01*
X132617513Y-81486050D01*
X132619403Y-81450807D01*
X132624023Y-81427577D01*
X133425974Y-81427577D01*
X133430595Y-81450808D01*
X133430595Y-81499190D01*
X133425974Y-81522421D01*
X133750000Y-81846446D01*
X133750001Y-81846446D01*
X134074024Y-81522422D01*
X134069403Y-81499191D01*
X134069403Y-81490853D01*
X134067513Y-81486050D01*
X134069403Y-81450807D01*
X134074023Y-81427577D01*
X134875974Y-81427577D01*
X134880595Y-81450808D01*
X134880595Y-81499190D01*
X134875974Y-81522421D01*
X135200000Y-81846446D01*
X135200001Y-81846446D01*
X135524024Y-81522422D01*
X135519403Y-81499191D01*
X135519403Y-81450807D01*
X135524023Y-81427576D01*
X135200001Y-81103554D01*
X135200000Y-81103554D01*
X134875974Y-81427577D01*
X134074023Y-81427577D01*
X134074023Y-81427576D01*
X133750001Y-81103554D01*
X133750000Y-81103554D01*
X133425974Y-81427577D01*
X132624023Y-81427577D01*
X132624023Y-81427576D01*
X132300001Y-81103554D01*
X132300000Y-81103554D01*
X131975974Y-81427577D01*
X129110058Y-81427577D01*
X129169737Y-81283497D01*
X129200500Y-81128842D01*
X129200500Y-80971158D01*
X129200500Y-80971155D01*
X129200499Y-80971153D01*
X129176400Y-80850000D01*
X129169737Y-80816503D01*
X129150430Y-80769891D01*
X129128726Y-80717491D01*
X129111591Y-80676126D01*
X131550000Y-80676126D01*
X131550000Y-80823873D01*
X131578820Y-80968759D01*
X131578822Y-80968767D01*
X131622421Y-81074024D01*
X131946446Y-80750000D01*
X131946446Y-80749999D01*
X131926556Y-80730109D01*
X132200000Y-80730109D01*
X132200000Y-80769891D01*
X132215224Y-80806645D01*
X132243355Y-80834776D01*
X132280109Y-80850000D01*
X132319891Y-80850000D01*
X132356645Y-80834776D01*
X132384776Y-80806645D01*
X132400000Y-80769891D01*
X132400000Y-80749999D01*
X132653554Y-80749999D01*
X132653554Y-80750001D01*
X132977576Y-81074023D01*
X133000807Y-81069403D01*
X133049191Y-81069403D01*
X133072422Y-81074024D01*
X133396446Y-80750000D01*
X133396446Y-80749999D01*
X133376556Y-80730109D01*
X133650000Y-80730109D01*
X133650000Y-80769891D01*
X133665224Y-80806645D01*
X133693355Y-80834776D01*
X133730109Y-80850000D01*
X133769891Y-80850000D01*
X133806645Y-80834776D01*
X133834776Y-80806645D01*
X133850000Y-80769891D01*
X133850000Y-80749999D01*
X134103554Y-80749999D01*
X134103554Y-80750001D01*
X134427576Y-81074023D01*
X134450807Y-81069403D01*
X134499191Y-81069403D01*
X134522422Y-81074024D01*
X134846446Y-80750000D01*
X134846446Y-80749999D01*
X134826556Y-80730109D01*
X135100000Y-80730109D01*
X135100000Y-80769891D01*
X135115224Y-80806645D01*
X135143355Y-80834776D01*
X135180109Y-80850000D01*
X135219891Y-80850000D01*
X135256645Y-80834776D01*
X135284776Y-80806645D01*
X135300000Y-80769891D01*
X135300000Y-80749999D01*
X135553554Y-80749999D01*
X135553554Y-80750001D01*
X135877577Y-81074024D01*
X135877578Y-81074024D01*
X135911762Y-80991499D01*
X135911764Y-80991495D01*
X135921176Y-80968770D01*
X135921179Y-80968760D01*
X135949999Y-80823873D01*
X135950000Y-80823871D01*
X135950000Y-80676128D01*
X135949999Y-80676126D01*
X135921179Y-80531240D01*
X135921178Y-80531236D01*
X135877577Y-80425975D01*
X135553554Y-80749999D01*
X135300000Y-80749999D01*
X135300000Y-80730109D01*
X135284776Y-80693355D01*
X135256645Y-80665224D01*
X135219891Y-80650000D01*
X135180109Y-80650000D01*
X135143355Y-80665224D01*
X135115224Y-80693355D01*
X135100000Y-80730109D01*
X134826556Y-80730109D01*
X134522421Y-80425974D01*
X134499190Y-80430595D01*
X134450808Y-80430595D01*
X134427577Y-80425974D01*
X134103554Y-80749999D01*
X133850000Y-80749999D01*
X133850000Y-80730109D01*
X133834776Y-80693355D01*
X133806645Y-80665224D01*
X133769891Y-80650000D01*
X133730109Y-80650000D01*
X133693355Y-80665224D01*
X133665224Y-80693355D01*
X133650000Y-80730109D01*
X133376556Y-80730109D01*
X133072421Y-80425974D01*
X133049190Y-80430595D01*
X133000808Y-80430595D01*
X132977577Y-80425974D01*
X132653554Y-80749999D01*
X132400000Y-80749999D01*
X132400000Y-80730109D01*
X132384776Y-80693355D01*
X132356645Y-80665224D01*
X132319891Y-80650000D01*
X132280109Y-80650000D01*
X132243355Y-80665224D01*
X132215224Y-80693355D01*
X132200000Y-80730109D01*
X131926556Y-80730109D01*
X131622421Y-80425974D01*
X131622420Y-80425974D01*
X131578823Y-80531228D01*
X131578820Y-80531240D01*
X131550000Y-80676126D01*
X129111591Y-80676126D01*
X129109395Y-80670824D01*
X129109394Y-80670821D01*
X129109392Y-80670818D01*
X129109390Y-80670814D01*
X129021789Y-80539711D01*
X129021786Y-80539707D01*
X128910292Y-80428213D01*
X128910288Y-80428210D01*
X128779185Y-80340609D01*
X128779172Y-80340602D01*
X128633501Y-80280264D01*
X128633489Y-80280261D01*
X128478845Y-80249500D01*
X128478842Y-80249500D01*
X128321158Y-80249500D01*
X128321155Y-80249500D01*
X128166510Y-80280261D01*
X128166498Y-80280264D01*
X128020827Y-80340602D01*
X128020814Y-80340609D01*
X127889711Y-80428210D01*
X127889707Y-80428213D01*
X127778213Y-80539707D01*
X127778210Y-80539711D01*
X127690609Y-80670814D01*
X127690602Y-80670827D01*
X127630264Y-80816498D01*
X127630261Y-80816510D01*
X127599500Y-80971153D01*
X122525500Y-80971153D01*
X122525500Y-79977577D01*
X131975974Y-79977577D01*
X131980595Y-80000808D01*
X131980595Y-80049190D01*
X131975974Y-80072421D01*
X132300000Y-80396446D01*
X132300001Y-80396446D01*
X132624024Y-80072422D01*
X132619403Y-80049191D01*
X132619403Y-80040853D01*
X132617513Y-80036050D01*
X132619403Y-80000807D01*
X132624023Y-79977577D01*
X133425974Y-79977577D01*
X133430595Y-80000808D01*
X133430595Y-80049190D01*
X133425974Y-80072421D01*
X133750000Y-80396446D01*
X133750001Y-80396446D01*
X134074024Y-80072422D01*
X134069403Y-80049191D01*
X134069403Y-80040853D01*
X134067513Y-80036050D01*
X134069403Y-80000807D01*
X134074023Y-79977577D01*
X134875974Y-79977577D01*
X134880595Y-80000808D01*
X134880595Y-80049190D01*
X134875974Y-80072421D01*
X135200000Y-80396446D01*
X135200001Y-80396446D01*
X135524024Y-80072422D01*
X135519403Y-80049191D01*
X135519403Y-80000807D01*
X135524023Y-79977576D01*
X135200001Y-79653554D01*
X135200000Y-79653554D01*
X134875974Y-79977577D01*
X134074023Y-79977577D01*
X134074023Y-79977576D01*
X133750001Y-79653554D01*
X133750000Y-79653554D01*
X133425974Y-79977577D01*
X132624023Y-79977577D01*
X132624023Y-79977576D01*
X132300001Y-79653554D01*
X132300000Y-79653554D01*
X131975974Y-79977577D01*
X122525500Y-79977577D01*
X122525500Y-79071153D01*
X127549500Y-79071153D01*
X127549500Y-79228846D01*
X127580261Y-79383489D01*
X127580264Y-79383501D01*
X127640602Y-79529172D01*
X127640609Y-79529185D01*
X127728210Y-79660288D01*
X127728213Y-79660292D01*
X127839707Y-79771786D01*
X127839711Y-79771789D01*
X127970814Y-79859390D01*
X127970827Y-79859397D01*
X128116498Y-79919735D01*
X128116503Y-79919737D01*
X128271153Y-79950499D01*
X128271156Y-79950500D01*
X128271158Y-79950500D01*
X128428844Y-79950500D01*
X128428845Y-79950499D01*
X128583497Y-79919737D01*
X128729179Y-79859394D01*
X128729185Y-79859390D01*
X128767692Y-79833661D01*
X128811226Y-79804571D01*
X128860289Y-79771789D01*
X128971789Y-79660289D01*
X129059394Y-79529179D01*
X129063704Y-79518775D01*
X129112901Y-79400000D01*
X129119737Y-79383497D01*
X129150500Y-79228842D01*
X129150500Y-79226126D01*
X131550000Y-79226126D01*
X131550000Y-79373873D01*
X131578820Y-79518759D01*
X131578822Y-79518767D01*
X131622421Y-79624024D01*
X131946446Y-79300000D01*
X131946446Y-79299999D01*
X131926556Y-79280109D01*
X132200000Y-79280109D01*
X132200000Y-79319891D01*
X132215224Y-79356645D01*
X132243355Y-79384776D01*
X132280109Y-79400000D01*
X132319891Y-79400000D01*
X132356645Y-79384776D01*
X132384776Y-79356645D01*
X132400000Y-79319891D01*
X132400000Y-79299999D01*
X132653554Y-79299999D01*
X132653554Y-79300001D01*
X132977576Y-79624023D01*
X133000807Y-79619403D01*
X133049191Y-79619403D01*
X133072422Y-79624024D01*
X133396446Y-79300000D01*
X133396446Y-79299999D01*
X133376556Y-79280109D01*
X133650000Y-79280109D01*
X133650000Y-79319891D01*
X133665224Y-79356645D01*
X133693355Y-79384776D01*
X133730109Y-79400000D01*
X133769891Y-79400000D01*
X133806645Y-79384776D01*
X133834776Y-79356645D01*
X133850000Y-79319891D01*
X133850000Y-79299999D01*
X134103554Y-79299999D01*
X134103554Y-79300001D01*
X134427576Y-79624023D01*
X134450807Y-79619403D01*
X134499191Y-79619403D01*
X134522422Y-79624024D01*
X134846446Y-79300000D01*
X134846446Y-79299999D01*
X134826556Y-79280109D01*
X135100000Y-79280109D01*
X135100000Y-79319891D01*
X135115224Y-79356645D01*
X135143355Y-79384776D01*
X135180109Y-79400000D01*
X135219891Y-79400000D01*
X135256645Y-79384776D01*
X135284776Y-79356645D01*
X135300000Y-79319891D01*
X135300000Y-79299999D01*
X135553554Y-79299999D01*
X135553554Y-79300001D01*
X135877577Y-79624024D01*
X135877578Y-79624024D01*
X135921175Y-79518775D01*
X135921179Y-79518760D01*
X135949999Y-79373873D01*
X135950000Y-79373871D01*
X135950000Y-79371153D01*
X138549500Y-79371153D01*
X138549500Y-79528846D01*
X138580261Y-79683489D01*
X138580264Y-79683501D01*
X138640602Y-79829172D01*
X138640609Y-79829185D01*
X138728210Y-79960288D01*
X138728213Y-79960292D01*
X138839707Y-80071786D01*
X138839711Y-80071789D01*
X138970814Y-80159390D01*
X138970827Y-80159397D01*
X139116498Y-80219735D01*
X139116503Y-80219737D01*
X139266131Y-80249500D01*
X139271153Y-80250499D01*
X139271156Y-80250500D01*
X139271158Y-80250500D01*
X139428844Y-80250500D01*
X139428845Y-80250499D01*
X139583497Y-80219737D01*
X139729179Y-80159394D01*
X139860289Y-80071789D01*
X139971789Y-79960289D01*
X140059394Y-79829179D01*
X140119737Y-79683497D01*
X140150500Y-79528842D01*
X140150500Y-79371158D01*
X140150500Y-79371155D01*
X140150499Y-79371153D01*
X140132212Y-79279214D01*
X140128208Y-79259088D01*
X147150000Y-79259088D01*
X147150000Y-79540911D01*
X147150001Y-79540928D01*
X147186786Y-79820340D01*
X147259733Y-80092582D01*
X147367584Y-80352957D01*
X147367589Y-80352968D01*
X147508500Y-80597031D01*
X147508511Y-80597047D01*
X147613097Y-80733347D01*
X147613098Y-80733347D01*
X148363708Y-79982736D01*
X148460967Y-80116602D01*
X148583398Y-80239033D01*
X148717262Y-80336290D01*
X147966651Y-81086900D01*
X147966651Y-81086902D01*
X148102952Y-81191488D01*
X148102968Y-81191499D01*
X148347031Y-81332410D01*
X148347042Y-81332415D01*
X148607417Y-81440266D01*
X148879659Y-81513213D01*
X149159071Y-81549998D01*
X149159089Y-81550000D01*
X149440911Y-81550000D01*
X149440928Y-81549998D01*
X149720340Y-81513213D01*
X149992582Y-81440266D01*
X150252957Y-81332415D01*
X150252968Y-81332410D01*
X150497031Y-81191499D01*
X150497039Y-81191493D01*
X150633347Y-81086900D01*
X149882737Y-80336290D01*
X150016602Y-80239033D01*
X150139033Y-80116602D01*
X150236290Y-79982737D01*
X150986900Y-80733347D01*
X151091493Y-80597039D01*
X151091499Y-80597031D01*
X151232410Y-80352968D01*
X151232415Y-80352957D01*
X151340266Y-80092582D01*
X151413213Y-79820340D01*
X151449998Y-79540928D01*
X151450000Y-79540911D01*
X151450000Y-79259088D01*
X151449998Y-79259071D01*
X151413213Y-78979659D01*
X151340266Y-78707417D01*
X151232415Y-78447042D01*
X151232410Y-78447031D01*
X151091499Y-78202968D01*
X151091488Y-78202952D01*
X150986902Y-78066651D01*
X150986900Y-78066651D01*
X150236289Y-78817261D01*
X150139033Y-78683398D01*
X150016602Y-78560967D01*
X149882736Y-78463708D01*
X150633347Y-77713098D01*
X150633347Y-77713097D01*
X150497047Y-77608511D01*
X150497031Y-77608500D01*
X150252968Y-77467589D01*
X150252957Y-77467584D01*
X149992582Y-77359733D01*
X149720340Y-77286786D01*
X149440928Y-77250001D01*
X149440911Y-77250000D01*
X149159089Y-77250000D01*
X149159071Y-77250001D01*
X148879659Y-77286786D01*
X148607417Y-77359733D01*
X148347042Y-77467584D01*
X148347038Y-77467586D01*
X148102962Y-77608505D01*
X148102955Y-77608510D01*
X147966651Y-77713097D01*
X147966651Y-77713098D01*
X148717262Y-78463709D01*
X148583398Y-78560967D01*
X148460967Y-78683398D01*
X148363709Y-78817262D01*
X147613098Y-78066651D01*
X147613097Y-78066651D01*
X147508510Y-78202955D01*
X147508505Y-78202962D01*
X147367586Y-78447038D01*
X147367584Y-78447042D01*
X147259733Y-78707417D01*
X147186786Y-78979659D01*
X147150001Y-79259071D01*
X147150000Y-79259088D01*
X140128208Y-79259088D01*
X140119738Y-79216508D01*
X140119737Y-79216507D01*
X140119737Y-79216503D01*
X140112901Y-79200000D01*
X140059397Y-79070827D01*
X140059390Y-79070814D01*
X139971789Y-78939711D01*
X139971786Y-78939707D01*
X139860292Y-78828213D01*
X139860288Y-78828210D01*
X139729185Y-78740609D01*
X139729172Y-78740602D01*
X139583501Y-78680264D01*
X139583489Y-78680261D01*
X139428845Y-78649500D01*
X139428842Y-78649500D01*
X139271158Y-78649500D01*
X139271155Y-78649500D01*
X139116510Y-78680261D01*
X139116498Y-78680264D01*
X138970827Y-78740602D01*
X138970814Y-78740609D01*
X138839711Y-78828210D01*
X138839707Y-78828213D01*
X138728213Y-78939707D01*
X138728210Y-78939711D01*
X138640609Y-79070814D01*
X138640602Y-79070827D01*
X138580264Y-79216498D01*
X138580261Y-79216510D01*
X138549500Y-79371153D01*
X135950000Y-79371153D01*
X135950000Y-79226128D01*
X135949999Y-79226126D01*
X135921179Y-79081240D01*
X135921178Y-79081236D01*
X135877577Y-78975975D01*
X135553554Y-79299999D01*
X135300000Y-79299999D01*
X135300000Y-79280109D01*
X135284776Y-79243355D01*
X135256645Y-79215224D01*
X135219891Y-79200000D01*
X135180109Y-79200000D01*
X135143355Y-79215224D01*
X135115224Y-79243355D01*
X135100000Y-79280109D01*
X134826556Y-79280109D01*
X134522421Y-78975974D01*
X134499190Y-78980595D01*
X134450808Y-78980595D01*
X134427577Y-78975974D01*
X134103554Y-79299999D01*
X133850000Y-79299999D01*
X133850000Y-79280109D01*
X133834776Y-79243355D01*
X133806645Y-79215224D01*
X133769891Y-79200000D01*
X133730109Y-79200000D01*
X133693355Y-79215224D01*
X133665224Y-79243355D01*
X133650000Y-79280109D01*
X133376556Y-79280109D01*
X133072421Y-78975974D01*
X133049190Y-78980595D01*
X133000808Y-78980595D01*
X132977577Y-78975974D01*
X132653554Y-79299999D01*
X132400000Y-79299999D01*
X132400000Y-79280109D01*
X132384776Y-79243355D01*
X132356645Y-79215224D01*
X132319891Y-79200000D01*
X132280109Y-79200000D01*
X132243355Y-79215224D01*
X132215224Y-79243355D01*
X132200000Y-79280109D01*
X131926556Y-79280109D01*
X131622421Y-78975974D01*
X131622420Y-78975974D01*
X131578823Y-79081228D01*
X131578820Y-79081240D01*
X131550000Y-79226126D01*
X129150500Y-79226126D01*
X129150500Y-79071158D01*
X129150500Y-79071155D01*
X129150499Y-79071153D01*
X129132486Y-78980595D01*
X129119737Y-78916503D01*
X129119735Y-78916498D01*
X129059397Y-78770827D01*
X129059390Y-78770814D01*
X129033540Y-78732127D01*
X128971789Y-78639711D01*
X128971786Y-78639707D01*
X128954499Y-78622420D01*
X131975974Y-78622420D01*
X131975974Y-78622421D01*
X132300000Y-78946446D01*
X132300001Y-78946446D01*
X132624024Y-78622421D01*
X132624022Y-78622420D01*
X133425974Y-78622420D01*
X133425974Y-78622421D01*
X133750000Y-78946446D01*
X133750001Y-78946446D01*
X134074024Y-78622421D01*
X134074022Y-78622420D01*
X134875974Y-78622420D01*
X134875974Y-78622421D01*
X135200000Y-78946446D01*
X135200001Y-78946446D01*
X135524024Y-78622421D01*
X135418767Y-78578822D01*
X135418759Y-78578820D01*
X135273872Y-78550000D01*
X135126128Y-78550000D01*
X134981240Y-78578820D01*
X134981228Y-78578823D01*
X134875974Y-78622420D01*
X134074022Y-78622420D01*
X133968767Y-78578822D01*
X133968759Y-78578820D01*
X133823872Y-78550000D01*
X133676128Y-78550000D01*
X133531240Y-78578820D01*
X133531228Y-78578823D01*
X133425974Y-78622420D01*
X132624022Y-78622420D01*
X132518767Y-78578822D01*
X132518759Y-78578820D01*
X132373872Y-78550000D01*
X132226128Y-78550000D01*
X132081240Y-78578820D01*
X132081228Y-78578823D01*
X131975974Y-78622420D01*
X128954499Y-78622420D01*
X128860292Y-78528213D01*
X128860288Y-78528210D01*
X128729185Y-78440609D01*
X128729172Y-78440602D01*
X128583501Y-78380264D01*
X128583489Y-78380261D01*
X128428845Y-78349500D01*
X128428842Y-78349500D01*
X128271158Y-78349500D01*
X128271155Y-78349500D01*
X128116510Y-78380261D01*
X128116498Y-78380264D01*
X127970827Y-78440602D01*
X127970814Y-78440609D01*
X127839711Y-78528210D01*
X127839707Y-78528213D01*
X127728213Y-78639707D01*
X127728210Y-78639711D01*
X127640609Y-78770814D01*
X127640602Y-78770827D01*
X127580264Y-78916498D01*
X127580261Y-78916510D01*
X127549500Y-79071153D01*
X122525500Y-79071153D01*
X122525500Y-76821153D01*
X127549500Y-76821153D01*
X127549500Y-76978846D01*
X127580261Y-77133489D01*
X127580264Y-77133501D01*
X127640602Y-77279172D01*
X127640609Y-77279185D01*
X127728210Y-77410288D01*
X127728213Y-77410292D01*
X127839707Y-77521786D01*
X127839711Y-77521789D01*
X127970814Y-77609390D01*
X127970827Y-77609397D01*
X128060379Y-77646490D01*
X128116503Y-77669737D01*
X128271153Y-77700499D01*
X128271156Y-77700500D01*
X128271158Y-77700500D01*
X128428844Y-77700500D01*
X128428845Y-77700499D01*
X128583497Y-77669737D01*
X128604850Y-77660892D01*
X128639622Y-77646490D01*
X128729172Y-77609397D01*
X128729172Y-77609396D01*
X128729179Y-77609394D01*
X128860289Y-77521789D01*
X128971789Y-77410289D01*
X129059394Y-77279179D01*
X129119737Y-77133497D01*
X129150500Y-76978842D01*
X129150500Y-76821158D01*
X129150500Y-76821155D01*
X129150499Y-76821153D01*
X129141020Y-76773501D01*
X129119737Y-76666503D01*
X129099996Y-76618844D01*
X129059397Y-76520827D01*
X129059390Y-76520814D01*
X128971789Y-76389711D01*
X128971786Y-76389707D01*
X128860292Y-76278213D01*
X128860288Y-76278210D01*
X128729185Y-76190609D01*
X128729173Y-76190602D01*
X128702674Y-76179627D01*
X128583501Y-76130264D01*
X128583489Y-76130261D01*
X128428845Y-76099500D01*
X128428842Y-76099500D01*
X128271158Y-76099500D01*
X128271155Y-76099500D01*
X128116510Y-76130261D01*
X128116498Y-76130264D01*
X127970827Y-76190602D01*
X127970814Y-76190609D01*
X127839711Y-76278210D01*
X127839707Y-76278213D01*
X127728213Y-76389707D01*
X127728210Y-76389711D01*
X127640609Y-76520814D01*
X127640602Y-76520827D01*
X127580264Y-76666498D01*
X127580261Y-76666510D01*
X127549500Y-76821153D01*
X122525500Y-76821153D01*
X122525500Y-76071153D01*
X131299500Y-76071153D01*
X131299500Y-76228846D01*
X131330261Y-76383489D01*
X131330264Y-76383501D01*
X131390602Y-76529172D01*
X131390609Y-76529185D01*
X131478210Y-76660288D01*
X131478213Y-76660292D01*
X131589707Y-76771786D01*
X131589711Y-76771789D01*
X131720814Y-76859390D01*
X131720827Y-76859397D01*
X131865139Y-76919172D01*
X131866503Y-76919737D01*
X132021153Y-76950499D01*
X132021156Y-76950500D01*
X132021158Y-76950500D01*
X132178844Y-76950500D01*
X132178845Y-76950499D01*
X132333497Y-76919737D01*
X132479179Y-76859394D01*
X132610289Y-76771789D01*
X132721789Y-76660289D01*
X132809394Y-76529179D01*
X132809397Y-76529172D01*
X132837571Y-76461153D01*
X139049500Y-76461153D01*
X139049500Y-76618846D01*
X139080261Y-76773489D01*
X139080264Y-76773501D01*
X139140602Y-76919172D01*
X139140609Y-76919185D01*
X139228210Y-77050288D01*
X139228213Y-77050292D01*
X139339707Y-77161786D01*
X139339711Y-77161789D01*
X139470814Y-77249390D01*
X139470827Y-77249397D01*
X139616498Y-77309735D01*
X139616503Y-77309737D01*
X139771153Y-77340499D01*
X139771156Y-77340500D01*
X139771158Y-77340500D01*
X139928844Y-77340500D01*
X139928845Y-77340499D01*
X140083497Y-77309737D01*
X140229179Y-77249394D01*
X140360289Y-77161789D01*
X140471789Y-77050289D01*
X140559394Y-76919179D01*
X140619737Y-76773497D01*
X140650500Y-76618842D01*
X140650500Y-76461158D01*
X140650500Y-76461155D01*
X140650499Y-76461153D01*
X140635051Y-76383492D01*
X140619737Y-76306503D01*
X140587569Y-76228842D01*
X140559397Y-76160827D01*
X140559390Y-76160814D01*
X140471789Y-76029711D01*
X140471786Y-76029707D01*
X140360292Y-75918213D01*
X140360288Y-75918210D01*
X140229185Y-75830609D01*
X140229172Y-75830602D01*
X140083501Y-75770264D01*
X140083489Y-75770261D01*
X139928845Y-75739500D01*
X139928842Y-75739500D01*
X139771158Y-75739500D01*
X139771155Y-75739500D01*
X139616510Y-75770261D01*
X139616498Y-75770264D01*
X139470827Y-75830602D01*
X139470814Y-75830609D01*
X139339711Y-75918210D01*
X139339707Y-75918213D01*
X139228213Y-76029707D01*
X139228210Y-76029711D01*
X139140609Y-76160814D01*
X139140602Y-76160827D01*
X139080264Y-76306498D01*
X139080261Y-76306510D01*
X139049500Y-76461153D01*
X132837571Y-76461153D01*
X132859745Y-76407621D01*
X132859747Y-76407614D01*
X132869737Y-76383497D01*
X132900500Y-76228842D01*
X132900500Y-76071158D01*
X132900500Y-76071155D01*
X132900499Y-76071153D01*
X132870077Y-75918213D01*
X132869737Y-75916503D01*
X132834156Y-75830602D01*
X132809397Y-75770827D01*
X132809390Y-75770814D01*
X132721789Y-75639711D01*
X132721786Y-75639707D01*
X132610292Y-75528213D01*
X132610288Y-75528210D01*
X132479185Y-75440609D01*
X132479172Y-75440602D01*
X132333501Y-75380264D01*
X132333489Y-75380261D01*
X132178845Y-75349500D01*
X132178842Y-75349500D01*
X132021158Y-75349500D01*
X132021155Y-75349500D01*
X131866510Y-75380261D01*
X131866498Y-75380264D01*
X131720827Y-75440602D01*
X131720814Y-75440609D01*
X131589711Y-75528210D01*
X131589707Y-75528213D01*
X131478213Y-75639707D01*
X131478210Y-75639711D01*
X131390609Y-75770814D01*
X131390602Y-75770827D01*
X131330264Y-75916498D01*
X131330261Y-75916510D01*
X131299500Y-76071153D01*
X122525500Y-76071153D01*
X122525500Y-71771153D01*
X133169500Y-71771153D01*
X133169500Y-71928846D01*
X133200261Y-72083489D01*
X133200264Y-72083501D01*
X133239219Y-72177548D01*
X133246688Y-72247018D01*
X133239219Y-72272452D01*
X133200264Y-72366498D01*
X133200261Y-72366510D01*
X133169500Y-72521153D01*
X133169500Y-72678846D01*
X133200261Y-72833489D01*
X133200264Y-72833501D01*
X133239219Y-72927548D01*
X133246688Y-72997018D01*
X133239219Y-73022452D01*
X133200264Y-73116498D01*
X133200261Y-73116510D01*
X133169500Y-73271153D01*
X133169500Y-73428846D01*
X133200261Y-73583489D01*
X133200264Y-73583501D01*
X133260602Y-73729172D01*
X133260609Y-73729185D01*
X133348210Y-73860288D01*
X133348213Y-73860292D01*
X133459707Y-73971786D01*
X133459711Y-73971789D01*
X133590814Y-74059390D01*
X133590827Y-74059397D01*
X133736498Y-74119735D01*
X133736503Y-74119737D01*
X133891153Y-74150499D01*
X133891156Y-74150500D01*
X133891158Y-74150500D01*
X134048844Y-74150500D01*
X134048845Y-74150499D01*
X134203497Y-74119737D01*
X134349179Y-74059394D01*
X134480289Y-73971789D01*
X134591789Y-73860289D01*
X134679394Y-73729179D01*
X134739737Y-73583497D01*
X134770500Y-73428842D01*
X134770500Y-73271158D01*
X134770500Y-73271155D01*
X134770499Y-73271153D01*
X134739738Y-73116510D01*
X134739737Y-73116503D01*
X134700778Y-73022449D01*
X134693310Y-72952984D01*
X134700775Y-72927556D01*
X134739737Y-72833497D01*
X134770500Y-72678842D01*
X134770500Y-72521158D01*
X134770500Y-72521155D01*
X134770499Y-72521153D01*
X134739738Y-72366510D01*
X134739737Y-72366503D01*
X134700778Y-72272449D01*
X134693310Y-72202984D01*
X134700775Y-72177556D01*
X134739737Y-72083497D01*
X134770500Y-71928842D01*
X134770500Y-71771158D01*
X134770500Y-71771155D01*
X134770499Y-71771153D01*
X134739738Y-71616510D01*
X134739737Y-71616503D01*
X134739735Y-71616498D01*
X134679397Y-71470827D01*
X134679390Y-71470814D01*
X134591789Y-71339711D01*
X134591786Y-71339707D01*
X134480292Y-71228213D01*
X134480288Y-71228210D01*
X134349185Y-71140609D01*
X134349172Y-71140602D01*
X134203501Y-71080264D01*
X134203489Y-71080261D01*
X134048845Y-71049500D01*
X134048842Y-71049500D01*
X133891158Y-71049500D01*
X133891155Y-71049500D01*
X133736510Y-71080261D01*
X133736498Y-71080264D01*
X133590827Y-71140602D01*
X133590814Y-71140609D01*
X133459711Y-71228210D01*
X133459707Y-71228213D01*
X133348213Y-71339707D01*
X133348210Y-71339711D01*
X133260609Y-71470814D01*
X133260602Y-71470827D01*
X133200264Y-71616498D01*
X133200261Y-71616510D01*
X133169500Y-71771153D01*
X122525500Y-71771153D01*
X122525500Y-70383653D01*
X137799500Y-70383653D01*
X137799500Y-70541346D01*
X137830261Y-70695989D01*
X137830264Y-70696001D01*
X137890602Y-70841672D01*
X137890609Y-70841685D01*
X137978210Y-70972788D01*
X137978213Y-70972792D01*
X138089707Y-71084286D01*
X138089711Y-71084289D01*
X138220814Y-71171890D01*
X138220827Y-71171897D01*
X138356781Y-71228210D01*
X138366503Y-71232237D01*
X138521153Y-71262999D01*
X138521156Y-71263000D01*
X138521158Y-71263000D01*
X138678844Y-71263000D01*
X138678845Y-71262999D01*
X138833497Y-71232237D01*
X138927550Y-71193278D01*
X138997016Y-71185810D01*
X139022443Y-71193275D01*
X139116503Y-71232237D01*
X139271153Y-71262999D01*
X139271156Y-71263000D01*
X139271158Y-71263000D01*
X139428844Y-71263000D01*
X139428845Y-71262999D01*
X139583497Y-71232237D01*
X139696166Y-71185567D01*
X139729172Y-71171897D01*
X139729172Y-71171896D01*
X139729179Y-71171894D01*
X139860289Y-71084289D01*
X139971789Y-70972789D01*
X140059394Y-70841679D01*
X140119737Y-70695997D01*
X140150500Y-70541342D01*
X140150500Y-70383658D01*
X140150500Y-70383655D01*
X140150499Y-70383653D01*
X140119738Y-70229010D01*
X140119737Y-70229003D01*
X140119735Y-70228998D01*
X140059397Y-70083327D01*
X140059390Y-70083314D01*
X139971789Y-69952211D01*
X139971786Y-69952207D01*
X139860292Y-69840713D01*
X139860288Y-69840710D01*
X139771465Y-69781360D01*
X139726660Y-69727748D01*
X139717953Y-69658423D01*
X139748108Y-69595395D01*
X139807551Y-69558676D01*
X139816166Y-69556640D01*
X139868768Y-69546177D01*
X139868775Y-69546175D01*
X139974024Y-69502578D01*
X139974024Y-69502577D01*
X139650001Y-69178554D01*
X139650000Y-69178554D01*
X139325974Y-69502577D01*
X139330201Y-69523826D01*
X139329907Y-69527107D01*
X139331283Y-69530102D01*
X139326814Y-69561670D01*
X139323974Y-69593417D01*
X139321952Y-69596018D01*
X139321491Y-69599282D01*
X139300667Y-69623420D01*
X139281111Y-69648595D01*
X139277361Y-69650435D01*
X139275851Y-69652186D01*
X139264080Y-69656953D01*
X139243779Y-69666918D01*
X139238339Y-69668527D01*
X139116503Y-69692763D01*
X139016437Y-69734211D01*
X139010195Y-69736059D01*
X138981504Y-69736121D01*
X138952982Y-69739188D01*
X138942825Y-69736205D01*
X138940325Y-69736211D01*
X138938187Y-69734843D01*
X138927549Y-69731720D01*
X138900762Y-69720625D01*
X138846358Y-69676785D01*
X138824292Y-69610491D01*
X138841570Y-69542791D01*
X138871584Y-69514846D01*
X138874024Y-69502577D01*
X138550001Y-69178554D01*
X138550000Y-69178554D01*
X138225974Y-69502577D01*
X138249237Y-69512213D01*
X138303641Y-69556055D01*
X138325705Y-69622349D01*
X138308425Y-69690048D01*
X138257288Y-69737658D01*
X138249238Y-69741334D01*
X138220829Y-69753101D01*
X138220814Y-69753109D01*
X138089711Y-69840710D01*
X138089707Y-69840713D01*
X137978213Y-69952207D01*
X137978210Y-69952211D01*
X137890609Y-70083314D01*
X137890602Y-70083327D01*
X137830264Y-70228998D01*
X137830261Y-70229010D01*
X137799500Y-70383653D01*
X122525500Y-70383653D01*
X122525500Y-68421153D01*
X129599500Y-68421153D01*
X129599500Y-68578846D01*
X129630261Y-68733489D01*
X129630264Y-68733501D01*
X129690602Y-68879172D01*
X129690609Y-68879185D01*
X129778210Y-69010288D01*
X129778213Y-69010292D01*
X129889707Y-69121786D01*
X129889711Y-69121789D01*
X130020814Y-69209390D01*
X130020827Y-69209397D01*
X130166498Y-69269735D01*
X130166503Y-69269737D01*
X130321153Y-69300499D01*
X130321156Y-69300500D01*
X130321158Y-69300500D01*
X130478844Y-69300500D01*
X130478845Y-69300499D01*
X130633497Y-69269737D01*
X130779179Y-69209394D01*
X130910289Y-69121789D01*
X131021789Y-69010289D01*
X131109394Y-68879179D01*
X131162435Y-68751126D01*
X137800000Y-68751126D01*
X137800000Y-68898873D01*
X137828820Y-69043759D01*
X137828822Y-69043767D01*
X137872421Y-69149024D01*
X138196446Y-68825000D01*
X138196446Y-68824999D01*
X138176556Y-68805109D01*
X138450000Y-68805109D01*
X138450000Y-68844891D01*
X138465224Y-68881645D01*
X138493355Y-68909776D01*
X138530109Y-68925000D01*
X138569891Y-68925000D01*
X138606645Y-68909776D01*
X138634776Y-68881645D01*
X138650000Y-68844891D01*
X138650000Y-68825000D01*
X138903554Y-68825000D01*
X139100000Y-69021446D01*
X139296446Y-68825000D01*
X139276555Y-68805109D01*
X139550000Y-68805109D01*
X139550000Y-68844891D01*
X139565224Y-68881645D01*
X139593355Y-68909776D01*
X139630109Y-68925000D01*
X139669891Y-68925000D01*
X139706645Y-68909776D01*
X139734776Y-68881645D01*
X139750000Y-68844891D01*
X139750000Y-68824999D01*
X140003554Y-68824999D01*
X140003554Y-68825001D01*
X140327577Y-69149024D01*
X140327578Y-69149024D01*
X140371175Y-69043775D01*
X140371179Y-69043760D01*
X140399999Y-68898873D01*
X140400000Y-68898871D01*
X140400000Y-68751128D01*
X140399999Y-68751126D01*
X140371179Y-68606240D01*
X140371178Y-68606236D01*
X140327577Y-68500975D01*
X140003554Y-68824999D01*
X139750000Y-68824999D01*
X139750000Y-68805109D01*
X139734776Y-68768355D01*
X139706645Y-68740224D01*
X139669891Y-68725000D01*
X139630109Y-68725000D01*
X139593355Y-68740224D01*
X139565224Y-68768355D01*
X139550000Y-68805109D01*
X139276555Y-68805109D01*
X139100000Y-68628554D01*
X138903554Y-68825000D01*
X138650000Y-68825000D01*
X138650000Y-68805109D01*
X138634776Y-68768355D01*
X138606645Y-68740224D01*
X138569891Y-68725000D01*
X138530109Y-68725000D01*
X138493355Y-68740224D01*
X138465224Y-68768355D01*
X138450000Y-68805109D01*
X138176556Y-68805109D01*
X137872421Y-68500974D01*
X137872420Y-68500974D01*
X137828823Y-68606228D01*
X137828820Y-68606240D01*
X137800000Y-68751126D01*
X131162435Y-68751126D01*
X131169737Y-68733497D01*
X131200500Y-68578842D01*
X131200500Y-68421158D01*
X131200500Y-68421155D01*
X131200499Y-68421153D01*
X131184191Y-68339168D01*
X131169737Y-68266503D01*
X131169735Y-68266498D01*
X131109397Y-68120827D01*
X131109390Y-68120814D01*
X131021789Y-67989711D01*
X131021786Y-67989707D01*
X130910292Y-67878213D01*
X130910288Y-67878210D01*
X130779185Y-67790609D01*
X130779172Y-67790602D01*
X130633501Y-67730264D01*
X130633489Y-67730261D01*
X130478845Y-67699500D01*
X130478842Y-67699500D01*
X130321158Y-67699500D01*
X130321155Y-67699500D01*
X130166510Y-67730261D01*
X130166498Y-67730264D01*
X130020827Y-67790602D01*
X130020814Y-67790609D01*
X129889711Y-67878210D01*
X129889707Y-67878213D01*
X129778213Y-67989707D01*
X129778210Y-67989711D01*
X129690609Y-68120814D01*
X129690602Y-68120827D01*
X129630264Y-68266498D01*
X129630261Y-68266510D01*
X129599500Y-68421153D01*
X122525500Y-68421153D01*
X122525500Y-67033653D01*
X136199500Y-67033653D01*
X136199500Y-67191346D01*
X136230260Y-67345988D01*
X136230262Y-67345993D01*
X136230263Y-67345997D01*
X136238155Y-67365050D01*
X136245623Y-67434518D01*
X136238156Y-67459946D01*
X136230263Y-67479003D01*
X136230262Y-67479006D01*
X136230260Y-67479011D01*
X136199500Y-67633653D01*
X136199500Y-67791346D01*
X136230261Y-67945989D01*
X136230264Y-67946001D01*
X136290602Y-68091672D01*
X136290609Y-68091685D01*
X136378210Y-68222788D01*
X136378213Y-68222792D01*
X136489707Y-68334286D01*
X136489711Y-68334289D01*
X136620814Y-68421890D01*
X136620827Y-68421897D01*
X136740451Y-68471446D01*
X136766503Y-68482237D01*
X136860700Y-68500974D01*
X136921153Y-68512999D01*
X136921156Y-68513000D01*
X136921158Y-68513000D01*
X137078844Y-68513000D01*
X137078845Y-68512999D01*
X137233497Y-68482237D01*
X137379179Y-68421894D01*
X137510289Y-68334289D01*
X137621789Y-68222789D01*
X137662434Y-68161960D01*
X137672150Y-68147420D01*
X138225974Y-68147420D01*
X138225974Y-68147421D01*
X138550000Y-68471446D01*
X138550001Y-68471446D01*
X138874024Y-68147421D01*
X138874022Y-68147420D01*
X139325974Y-68147420D01*
X139325974Y-68147421D01*
X139650000Y-68471446D01*
X139650001Y-68471446D01*
X139974024Y-68147421D01*
X139868767Y-68103822D01*
X139868759Y-68103820D01*
X139723872Y-68075000D01*
X139576128Y-68075000D01*
X139431240Y-68103820D01*
X139431228Y-68103823D01*
X139325974Y-68147420D01*
X138874022Y-68147420D01*
X138768767Y-68103822D01*
X138768759Y-68103820D01*
X138623872Y-68075000D01*
X138476128Y-68075000D01*
X138331240Y-68103820D01*
X138331228Y-68103823D01*
X138225974Y-68147420D01*
X137672150Y-68147420D01*
X137690909Y-68119345D01*
X137690910Y-68119343D01*
X137709387Y-68091690D01*
X137709390Y-68091685D01*
X137709394Y-68091679D01*
X137769737Y-67945997D01*
X137800500Y-67791342D01*
X137800500Y-67633658D01*
X137800500Y-67633655D01*
X137800499Y-67633653D01*
X137769737Y-67479003D01*
X137761845Y-67459952D01*
X137754377Y-67390484D01*
X137761846Y-67365047D01*
X137769737Y-67345997D01*
X137800500Y-67191342D01*
X137800500Y-67033658D01*
X137800500Y-67033655D01*
X137800499Y-67033653D01*
X137769738Y-66879010D01*
X137769737Y-66879003D01*
X137769735Y-66878998D01*
X137747972Y-66826456D01*
X137730332Y-66783870D01*
X146574500Y-66783870D01*
X146574500Y-67016129D01*
X146610831Y-67245514D01*
X146682601Y-67466400D01*
X146788039Y-67673331D01*
X146924551Y-67861224D01*
X147088776Y-68025449D01*
X147276669Y-68161961D01*
X147374436Y-68211776D01*
X147483599Y-68267398D01*
X147483601Y-68267398D01*
X147483604Y-68267400D01*
X147704486Y-68339169D01*
X147822668Y-68357886D01*
X147933871Y-68375500D01*
X147933876Y-68375500D01*
X148166129Y-68375500D01*
X148267502Y-68359443D01*
X148395514Y-68339169D01*
X148616396Y-68267400D01*
X148618157Y-68266503D01*
X148623996Y-68263527D01*
X148823331Y-68161961D01*
X149011224Y-68025449D01*
X149175449Y-67861224D01*
X149311961Y-67673331D01*
X149417400Y-67466396D01*
X149489169Y-67245514D01*
X149509443Y-67117502D01*
X149525500Y-67016129D01*
X149525500Y-66783870D01*
X151574500Y-66783870D01*
X151574500Y-67016129D01*
X151610831Y-67245514D01*
X151682601Y-67466400D01*
X151788039Y-67673331D01*
X151924551Y-67861224D01*
X152088776Y-68025449D01*
X152276669Y-68161961D01*
X152374436Y-68211776D01*
X152483599Y-68267398D01*
X152483601Y-68267398D01*
X152483604Y-68267400D01*
X152704486Y-68339169D01*
X152822668Y-68357886D01*
X152933871Y-68375500D01*
X152933876Y-68375500D01*
X153166129Y-68375500D01*
X153267502Y-68359443D01*
X153395514Y-68339169D01*
X153616396Y-68267400D01*
X153618157Y-68266503D01*
X153623996Y-68263527D01*
X153823331Y-68161961D01*
X154011224Y-68025449D01*
X154175449Y-67861224D01*
X154311961Y-67673331D01*
X154417400Y-67466396D01*
X154489169Y-67245514D01*
X154509443Y-67117502D01*
X154525500Y-67016129D01*
X154525500Y-66783870D01*
X154506232Y-66662222D01*
X154489169Y-66554486D01*
X154417400Y-66333604D01*
X154417398Y-66333601D01*
X154417398Y-66333599D01*
X154311960Y-66126668D01*
X154175449Y-65938776D01*
X154011224Y-65774551D01*
X153823331Y-65638039D01*
X153616400Y-65532601D01*
X153395514Y-65460831D01*
X153166129Y-65424500D01*
X153166124Y-65424500D01*
X152933876Y-65424500D01*
X152933871Y-65424500D01*
X152704485Y-65460831D01*
X152483599Y-65532601D01*
X152276668Y-65638039D01*
X152088773Y-65774553D01*
X151924553Y-65938773D01*
X151788039Y-66126668D01*
X151682601Y-66333599D01*
X151610831Y-66554485D01*
X151574500Y-66783870D01*
X149525500Y-66783870D01*
X149506232Y-66662222D01*
X149489169Y-66554486D01*
X149417400Y-66333604D01*
X149417398Y-66333601D01*
X149417398Y-66333599D01*
X149311960Y-66126668D01*
X149175449Y-65938776D01*
X149011224Y-65774551D01*
X148823331Y-65638039D01*
X148616400Y-65532601D01*
X148395514Y-65460831D01*
X148166129Y-65424500D01*
X148166124Y-65424500D01*
X147933876Y-65424500D01*
X147933871Y-65424500D01*
X147704485Y-65460831D01*
X147483599Y-65532601D01*
X147276668Y-65638039D01*
X147088773Y-65774553D01*
X146924553Y-65938773D01*
X146788039Y-66126668D01*
X146682601Y-66333599D01*
X146610831Y-66554485D01*
X146574500Y-66783870D01*
X137730332Y-66783870D01*
X137709397Y-66733327D01*
X137709390Y-66733314D01*
X137621789Y-66602211D01*
X137621786Y-66602207D01*
X137510292Y-66490713D01*
X137510288Y-66490710D01*
X137379185Y-66403109D01*
X137379172Y-66403102D01*
X137233501Y-66342764D01*
X137233489Y-66342761D01*
X137078845Y-66312000D01*
X137078842Y-66312000D01*
X136921158Y-66312000D01*
X136921155Y-66312000D01*
X136766510Y-66342761D01*
X136766498Y-66342764D01*
X136620827Y-66403102D01*
X136620814Y-66403109D01*
X136489711Y-66490710D01*
X136489707Y-66490713D01*
X136378213Y-66602207D01*
X136378210Y-66602211D01*
X136290609Y-66733314D01*
X136290602Y-66733327D01*
X136230264Y-66878998D01*
X136230261Y-66879010D01*
X136199500Y-67033653D01*
X122525500Y-67033653D01*
X122525500Y-64321153D01*
X129999500Y-64321153D01*
X129999500Y-64478846D01*
X130030261Y-64633489D01*
X130030264Y-64633501D01*
X130090602Y-64779172D01*
X130090609Y-64779185D01*
X130178210Y-64910288D01*
X130178213Y-64910292D01*
X130289707Y-65021786D01*
X130289711Y-65021789D01*
X130420814Y-65109390D01*
X130420827Y-65109397D01*
X130566498Y-65169735D01*
X130566503Y-65169737D01*
X130721153Y-65200499D01*
X130721156Y-65200500D01*
X130721158Y-65200500D01*
X130878844Y-65200500D01*
X130878845Y-65200499D01*
X131033497Y-65169737D01*
X131179179Y-65109394D01*
X131310289Y-65021789D01*
X131421789Y-64910289D01*
X131509394Y-64779179D01*
X131569737Y-64633497D01*
X131600500Y-64478842D01*
X131600500Y-64321158D01*
X131600500Y-64321155D01*
X131600499Y-64321153D01*
X131569738Y-64166510D01*
X131569737Y-64166503D01*
X131569735Y-64166498D01*
X131509397Y-64020827D01*
X131509390Y-64020814D01*
X131421789Y-63889711D01*
X131421786Y-63889707D01*
X131310292Y-63778213D01*
X131310288Y-63778210D01*
X131179185Y-63690609D01*
X131179172Y-63690602D01*
X131033501Y-63630264D01*
X131033489Y-63630261D01*
X130878845Y-63599500D01*
X130878842Y-63599500D01*
X130721158Y-63599500D01*
X130721155Y-63599500D01*
X130566510Y-63630261D01*
X130566498Y-63630264D01*
X130420827Y-63690602D01*
X130420814Y-63690609D01*
X130289711Y-63778210D01*
X130289707Y-63778213D01*
X130178213Y-63889707D01*
X130178210Y-63889711D01*
X130090609Y-64020814D01*
X130090602Y-64020827D01*
X130030264Y-64166498D01*
X130030261Y-64166510D01*
X129999500Y-64321153D01*
X122525500Y-64321153D01*
X122525500Y-62221153D01*
X135649500Y-62221153D01*
X135649500Y-62378846D01*
X135680261Y-62533489D01*
X135680264Y-62533501D01*
X135740602Y-62679172D01*
X135740609Y-62679185D01*
X135828210Y-62810288D01*
X135828213Y-62810292D01*
X135939707Y-62921786D01*
X135939711Y-62921789D01*
X136070814Y-63009390D01*
X136070827Y-63009397D01*
X136216498Y-63069735D01*
X136216503Y-63069737D01*
X136371153Y-63100499D01*
X136371156Y-63100500D01*
X136371158Y-63100500D01*
X136528844Y-63100500D01*
X136528845Y-63100499D01*
X136683497Y-63069737D01*
X136829179Y-63009394D01*
X136960289Y-62921789D01*
X137071789Y-62810289D01*
X137159394Y-62679179D01*
X137219737Y-62533497D01*
X137250500Y-62378842D01*
X137250500Y-62221158D01*
X137250500Y-62221155D01*
X137250499Y-62221153D01*
X137246410Y-62200596D01*
X137219737Y-62066503D01*
X137212500Y-62049030D01*
X137159397Y-61920827D01*
X137159390Y-61920814D01*
X137071789Y-61789711D01*
X137071786Y-61789707D01*
X136960292Y-61678213D01*
X136960288Y-61678210D01*
X136829185Y-61590609D01*
X136829172Y-61590602D01*
X136683501Y-61530264D01*
X136683489Y-61530261D01*
X136528845Y-61499500D01*
X136528842Y-61499500D01*
X136371158Y-61499500D01*
X136371155Y-61499500D01*
X136216510Y-61530261D01*
X136216498Y-61530264D01*
X136070827Y-61590602D01*
X136070814Y-61590609D01*
X135939711Y-61678210D01*
X135939707Y-61678213D01*
X135828213Y-61789707D01*
X135828210Y-61789711D01*
X135740609Y-61920814D01*
X135740602Y-61920827D01*
X135680264Y-62066498D01*
X135680261Y-62066510D01*
X135649500Y-62221153D01*
X122525500Y-62221153D01*
X122525500Y-58127363D01*
X122545185Y-58060324D01*
X122597989Y-58014569D01*
X122667147Y-58004625D01*
X122730703Y-58033650D01*
X122754494Y-58061392D01*
X122819512Y-58164869D01*
X122946871Y-58324573D01*
X124088708Y-57182736D01*
X124185967Y-57316602D01*
X124308398Y-57439033D01*
X124442262Y-57536290D01*
X123300425Y-58678127D01*
X123460127Y-58805484D01*
X123716903Y-58966827D01*
X123990119Y-59098401D01*
X123990133Y-59098407D01*
X124276354Y-59198561D01*
X124276366Y-59198565D01*
X124572017Y-59266045D01*
X124572033Y-59266047D01*
X124873366Y-59299999D01*
X124873368Y-59300000D01*
X125176632Y-59300000D01*
X125176633Y-59299999D01*
X125358629Y-59279493D01*
X128570000Y-59279493D01*
X128570000Y-59620000D01*
X129470000Y-59620000D01*
X129470000Y-60120000D01*
X128570000Y-60120000D01*
X128570000Y-60460506D01*
X128598317Y-60639293D01*
X128654251Y-60811444D01*
X128654252Y-60811447D01*
X128736434Y-60972734D01*
X128842823Y-61119169D01*
X128970830Y-61247176D01*
X129117265Y-61353565D01*
X129278552Y-61435747D01*
X129278555Y-61435748D01*
X129450699Y-61491680D01*
X129450712Y-61491683D01*
X129470000Y-61494738D01*
X129470000Y-60469728D01*
X129508060Y-60561614D01*
X129578386Y-60631940D01*
X129670272Y-60670000D01*
X129769728Y-60670000D01*
X129861614Y-60631940D01*
X129931940Y-60561614D01*
X129970000Y-60469728D01*
X129970000Y-61494737D01*
X129989287Y-61491683D01*
X129989300Y-61491680D01*
X130161444Y-61435748D01*
X130161447Y-61435747D01*
X130322734Y-61353565D01*
X130469169Y-61247176D01*
X130597176Y-61119169D01*
X130703565Y-60972734D01*
X130785747Y-60811447D01*
X130785748Y-60811444D01*
X130841682Y-60639293D01*
X130870000Y-60460506D01*
X130870000Y-60003813D01*
X130889685Y-59936774D01*
X130942489Y-59891019D01*
X131011647Y-59881075D01*
X131026083Y-59884036D01*
X131087525Y-59900500D01*
X131087527Y-59900500D01*
X131232472Y-59900500D01*
X131232475Y-59900500D01*
X131372485Y-59862984D01*
X131498015Y-59790509D01*
X131600509Y-59688015D01*
X131672984Y-59562485D01*
X131710500Y-59422475D01*
X131710500Y-59277525D01*
X136389500Y-59277525D01*
X136389500Y-59422475D01*
X136427016Y-59562485D01*
X136427017Y-59562488D01*
X136499488Y-59688011D01*
X136499490Y-59688013D01*
X136499491Y-59688015D01*
X136601985Y-59790509D01*
X136601986Y-59790510D01*
X136601988Y-59790511D01*
X136727511Y-59862982D01*
X136727512Y-59862982D01*
X136727515Y-59862984D01*
X136867525Y-59900500D01*
X136867528Y-59900500D01*
X137012473Y-59900500D01*
X137012475Y-59900500D01*
X137073907Y-59884039D01*
X137143755Y-59885700D01*
X137201618Y-59924862D01*
X137229123Y-59989090D01*
X137230000Y-60003813D01*
X137230000Y-60460506D01*
X137258317Y-60639293D01*
X137314251Y-60811444D01*
X137314252Y-60811447D01*
X137396434Y-60972734D01*
X137502823Y-61119169D01*
X137630830Y-61247176D01*
X137777265Y-61353565D01*
X137938552Y-61435747D01*
X137938555Y-61435748D01*
X138110699Y-61491680D01*
X138110712Y-61491683D01*
X138130000Y-61494738D01*
X138130000Y-60469728D01*
X138168060Y-60561614D01*
X138238386Y-60631940D01*
X138330272Y-60670000D01*
X138429728Y-60670000D01*
X138521614Y-60631940D01*
X138591940Y-60561614D01*
X138630000Y-60469728D01*
X138630000Y-61494737D01*
X138649287Y-61491683D01*
X138649300Y-61491680D01*
X138821444Y-61435748D01*
X138821447Y-61435747D01*
X138982734Y-61353565D01*
X139129169Y-61247176D01*
X139257172Y-61119173D01*
X139257176Y-61119168D01*
X139284959Y-61080928D01*
X142882164Y-61080928D01*
X142882164Y-61238621D01*
X142912925Y-61393264D01*
X142912928Y-61393276D01*
X142973266Y-61538947D01*
X142973273Y-61538960D01*
X143060874Y-61670063D01*
X143060877Y-61670067D01*
X143172371Y-61781561D01*
X143172375Y-61781564D01*
X143303478Y-61869165D01*
X143303482Y-61869167D01*
X143303485Y-61869169D01*
X143436243Y-61924159D01*
X143490644Y-61967997D01*
X143512709Y-62034291D01*
X143495430Y-62101990D01*
X143491890Y-62107609D01*
X143429762Y-62200589D01*
X143429755Y-62200602D01*
X143369417Y-62346273D01*
X143369414Y-62346285D01*
X143338653Y-62500928D01*
X143338653Y-62658621D01*
X143369414Y-62813264D01*
X143369417Y-62813276D01*
X143429755Y-62958947D01*
X143429762Y-62958960D01*
X143517363Y-63090063D01*
X143517366Y-63090067D01*
X143628860Y-63201561D01*
X143628864Y-63201564D01*
X143759967Y-63289165D01*
X143759980Y-63289172D01*
X143905651Y-63349510D01*
X143905656Y-63349512D01*
X144060306Y-63380274D01*
X144060309Y-63380275D01*
X144060311Y-63380275D01*
X144217997Y-63380275D01*
X144217998Y-63380274D01*
X144372650Y-63349512D01*
X144518332Y-63289169D01*
X144649442Y-63201564D01*
X144760942Y-63090064D01*
X144848547Y-62958954D01*
X144908890Y-62813272D01*
X144939653Y-62658617D01*
X144939653Y-62500933D01*
X144939653Y-62500930D01*
X144939652Y-62500928D01*
X144908890Y-62346278D01*
X144893291Y-62308619D01*
X144848550Y-62200602D01*
X144848543Y-62200589D01*
X144815360Y-62150928D01*
X149518428Y-62150928D01*
X149518428Y-62308621D01*
X149549189Y-62463264D01*
X149549192Y-62463276D01*
X149609530Y-62608947D01*
X149609537Y-62608960D01*
X149697138Y-62740063D01*
X149697141Y-62740067D01*
X149808635Y-62851561D01*
X149808639Y-62851564D01*
X149939742Y-62939165D01*
X149939755Y-62939172D01*
X150085426Y-62999510D01*
X150085431Y-62999512D01*
X150240081Y-63030274D01*
X150240084Y-63030275D01*
X150240086Y-63030275D01*
X150397772Y-63030275D01*
X150397773Y-63030274D01*
X150552425Y-62999512D01*
X150698107Y-62939169D01*
X150829217Y-62851564D01*
X150940717Y-62740064D01*
X151028322Y-62608954D01*
X151088665Y-62463272D01*
X151119428Y-62308617D01*
X151119428Y-62150933D01*
X151119428Y-62150930D01*
X151119427Y-62150928D01*
X151110810Y-62107609D01*
X151088665Y-61996278D01*
X151088663Y-61996273D01*
X151028325Y-61850602D01*
X151028318Y-61850589D01*
X150940717Y-61719486D01*
X150940714Y-61719482D01*
X150829220Y-61607988D01*
X150829216Y-61607985D01*
X150698113Y-61520384D01*
X150698100Y-61520377D01*
X150552429Y-61460039D01*
X150552417Y-61460036D01*
X150397773Y-61429275D01*
X150397770Y-61429275D01*
X150240086Y-61429275D01*
X150240083Y-61429275D01*
X150085438Y-61460036D01*
X150085426Y-61460039D01*
X149939755Y-61520377D01*
X149939742Y-61520384D01*
X149808639Y-61607985D01*
X149808635Y-61607988D01*
X149697141Y-61719482D01*
X149697138Y-61719486D01*
X149609537Y-61850589D01*
X149609530Y-61850602D01*
X149549192Y-61996273D01*
X149549189Y-61996285D01*
X149518428Y-62150928D01*
X144815360Y-62150928D01*
X144760942Y-62069486D01*
X144760939Y-62069482D01*
X144687077Y-61995620D01*
X145366634Y-61995620D01*
X145495580Y-62049032D01*
X145495584Y-62049033D01*
X145650130Y-62079774D01*
X145650134Y-62079775D01*
X145807722Y-62079775D01*
X145807725Y-62079774D01*
X145962271Y-62049033D01*
X145962284Y-62049030D01*
X146007543Y-62030282D01*
X146007547Y-62030280D01*
X146091221Y-61995620D01*
X145728929Y-61633328D01*
X145728928Y-61633328D01*
X145366634Y-61995620D01*
X144687077Y-61995620D01*
X144649445Y-61957988D01*
X144649441Y-61957985D01*
X144518338Y-61870384D01*
X144518325Y-61870377D01*
X144385576Y-61815392D01*
X144331172Y-61771552D01*
X144309107Y-61705258D01*
X144326386Y-61637558D01*
X144329903Y-61631974D01*
X144392058Y-61538954D01*
X144395658Y-61530264D01*
X144452399Y-61393276D01*
X144452401Y-61393272D01*
X144483164Y-61238617D01*
X144483164Y-61200977D01*
X144928928Y-61200977D01*
X144928928Y-61358572D01*
X144959669Y-61513118D01*
X144959671Y-61513126D01*
X145013081Y-61642068D01*
X145375374Y-61279776D01*
X145375374Y-61279774D01*
X145345538Y-61249938D01*
X145578928Y-61249938D01*
X145578928Y-61309612D01*
X145601764Y-61364743D01*
X145643960Y-61406939D01*
X145699091Y-61429775D01*
X145758765Y-61429775D01*
X145813896Y-61406939D01*
X145856092Y-61364743D01*
X145878928Y-61309612D01*
X145878928Y-61279774D01*
X146082481Y-61279774D01*
X146082481Y-61279776D01*
X146444773Y-61642068D01*
X146498185Y-61513122D01*
X146498186Y-61513118D01*
X146528927Y-61358572D01*
X146528928Y-61358569D01*
X146528928Y-61200981D01*
X146528927Y-61200977D01*
X146498186Y-61046431D01*
X146498185Y-61046427D01*
X146444773Y-60917481D01*
X146082481Y-61279774D01*
X145878928Y-61279774D01*
X145878928Y-61249938D01*
X145856092Y-61194807D01*
X145813896Y-61152611D01*
X145758765Y-61129775D01*
X145699091Y-61129775D01*
X145643960Y-61152611D01*
X145601764Y-61194807D01*
X145578928Y-61249938D01*
X145345538Y-61249938D01*
X145013081Y-60917480D01*
X144959671Y-61046423D01*
X144959669Y-61046431D01*
X144928928Y-61200977D01*
X144483164Y-61200977D01*
X144483164Y-61080933D01*
X144483164Y-61080930D01*
X144483163Y-61080928D01*
X144467454Y-61001956D01*
X144452401Y-60926278D01*
X144404836Y-60811444D01*
X144392061Y-60780602D01*
X144392054Y-60780589D01*
X144391509Y-60779774D01*
X145582481Y-60779774D01*
X145728928Y-60926221D01*
X145875374Y-60779776D01*
X145875374Y-60779775D01*
X145728928Y-60633328D01*
X145582481Y-60779774D01*
X144391509Y-60779774D01*
X144304453Y-60649486D01*
X144304450Y-60649482D01*
X144192956Y-60537988D01*
X144192952Y-60537985D01*
X144061849Y-60450384D01*
X144061836Y-60450377D01*
X143916165Y-60390039D01*
X143916153Y-60390036D01*
X143761509Y-60359275D01*
X143761506Y-60359275D01*
X143603822Y-60359275D01*
X143603819Y-60359275D01*
X143449174Y-60390036D01*
X143449162Y-60390039D01*
X143303491Y-60450377D01*
X143303478Y-60450384D01*
X143172375Y-60537985D01*
X143172371Y-60537988D01*
X143060877Y-60649482D01*
X143060874Y-60649486D01*
X142973273Y-60780589D01*
X142973266Y-60780602D01*
X142912928Y-60926273D01*
X142912925Y-60926285D01*
X142882164Y-61080928D01*
X139284959Y-61080928D01*
X139342336Y-61001956D01*
X139363566Y-60972733D01*
X139445747Y-60811447D01*
X139445748Y-60811444D01*
X139501682Y-60639293D01*
X139530000Y-60460506D01*
X139530000Y-60200977D01*
X144928928Y-60200977D01*
X144928928Y-60358572D01*
X144959669Y-60513118D01*
X144959671Y-60513126D01*
X145013081Y-60642068D01*
X145014418Y-60640732D01*
X145375374Y-60279776D01*
X145375374Y-60279774D01*
X145345538Y-60249938D01*
X145578928Y-60249938D01*
X145578928Y-60309612D01*
X145601764Y-60364743D01*
X145643960Y-60406939D01*
X145699091Y-60429775D01*
X145758765Y-60429775D01*
X145813896Y-60406939D01*
X145856092Y-60364743D01*
X145878928Y-60309612D01*
X145878928Y-60279774D01*
X146082481Y-60279774D01*
X146082481Y-60279776D01*
X146444773Y-60642068D01*
X146498185Y-60513122D01*
X146498186Y-60513118D01*
X146528927Y-60358572D01*
X146528928Y-60358569D01*
X146528928Y-60332000D01*
X147649500Y-60332000D01*
X147649500Y-60489693D01*
X147680261Y-60644336D01*
X147680264Y-60644348D01*
X147740602Y-60790019D01*
X147740609Y-60790032D01*
X147828210Y-60921135D01*
X147828213Y-60921139D01*
X147939707Y-61032633D01*
X147939711Y-61032636D01*
X148070814Y-61120237D01*
X148070827Y-61120244D01*
X148216498Y-61180582D01*
X148216503Y-61180584D01*
X148371153Y-61211346D01*
X148371156Y-61211347D01*
X148371158Y-61211347D01*
X148528844Y-61211347D01*
X148528845Y-61211346D01*
X148683497Y-61180584D01*
X148829179Y-61120241D01*
X148960289Y-61032636D01*
X149071789Y-60921136D01*
X149159394Y-60790026D01*
X149163641Y-60779774D01*
X149217607Y-60649486D01*
X149219737Y-60644344D01*
X149250500Y-60489689D01*
X149250500Y-60332005D01*
X149250500Y-60332002D01*
X149250499Y-60332000D01*
X149240111Y-60279776D01*
X149219737Y-60177350D01*
X149165509Y-60046431D01*
X149159397Y-60031674D01*
X149159390Y-60031661D01*
X149071789Y-59900558D01*
X149071786Y-59900554D01*
X148960292Y-59789060D01*
X148960288Y-59789057D01*
X148829185Y-59701456D01*
X148829172Y-59701449D01*
X148683501Y-59641111D01*
X148683489Y-59641108D01*
X148528845Y-59610347D01*
X148528842Y-59610347D01*
X148371158Y-59610347D01*
X148371155Y-59610347D01*
X148216510Y-59641108D01*
X148216498Y-59641111D01*
X148070827Y-59701449D01*
X148070814Y-59701456D01*
X147939711Y-59789057D01*
X147939707Y-59789060D01*
X147828213Y-59900554D01*
X147828210Y-59900558D01*
X147740609Y-60031661D01*
X147740602Y-60031674D01*
X147680264Y-60177345D01*
X147680261Y-60177357D01*
X147649500Y-60332000D01*
X146528928Y-60332000D01*
X146528928Y-60200981D01*
X146528927Y-60200977D01*
X146498186Y-60046431D01*
X146498185Y-60046427D01*
X146444773Y-59917481D01*
X146082481Y-60279774D01*
X145878928Y-60279774D01*
X145878928Y-60249938D01*
X145856092Y-60194807D01*
X145813896Y-60152611D01*
X145758765Y-60129775D01*
X145699091Y-60129775D01*
X145643960Y-60152611D01*
X145601764Y-60194807D01*
X145578928Y-60249938D01*
X145345538Y-60249938D01*
X145013081Y-59917480D01*
X144959671Y-60046423D01*
X144959669Y-60046431D01*
X144928928Y-60200977D01*
X139530000Y-60200977D01*
X139530000Y-60120000D01*
X138630000Y-60120000D01*
X138630000Y-59779774D01*
X145582481Y-59779774D01*
X145728928Y-59926221D01*
X145875374Y-59779776D01*
X145875374Y-59779775D01*
X145728928Y-59633328D01*
X145582481Y-59779774D01*
X138630000Y-59779774D01*
X138630000Y-59620000D01*
X139530000Y-59620000D01*
X139530000Y-59279493D01*
X139501682Y-59100706D01*
X139445748Y-58928555D01*
X139445747Y-58928552D01*
X139363566Y-58767266D01*
X139342104Y-58737725D01*
X139342103Y-58737724D01*
X139293573Y-58670928D01*
X140868428Y-58670928D01*
X140868428Y-58828621D01*
X140899189Y-58983264D01*
X140899192Y-58983276D01*
X140959530Y-59128947D01*
X140959537Y-59128960D01*
X141047138Y-59260063D01*
X141047141Y-59260067D01*
X141158635Y-59371561D01*
X141158639Y-59371564D01*
X141289742Y-59459165D01*
X141289755Y-59459172D01*
X141435426Y-59519510D01*
X141435431Y-59519512D01*
X141590081Y-59550274D01*
X141590084Y-59550275D01*
X141590086Y-59550275D01*
X141747772Y-59550275D01*
X141747773Y-59550274D01*
X141902425Y-59519512D01*
X142048107Y-59459169D01*
X142179217Y-59371564D01*
X142290717Y-59260064D01*
X142330198Y-59200977D01*
X144928928Y-59200977D01*
X144928928Y-59358572D01*
X144959669Y-59513118D01*
X144959671Y-59513126D01*
X145013081Y-59642068D01*
X145014418Y-59640732D01*
X145375374Y-59279776D01*
X145375374Y-59279774D01*
X145345538Y-59249938D01*
X145578928Y-59249938D01*
X145578928Y-59309612D01*
X145601764Y-59364743D01*
X145643960Y-59406939D01*
X145699091Y-59429775D01*
X145758765Y-59429775D01*
X145813896Y-59406939D01*
X145856092Y-59364743D01*
X145878928Y-59309612D01*
X145878928Y-59279774D01*
X146082481Y-59279774D01*
X146082481Y-59279776D01*
X146444773Y-59642068D01*
X146498185Y-59513122D01*
X146498186Y-59513118D01*
X146528927Y-59358572D01*
X146528928Y-59358569D01*
X146528928Y-59200981D01*
X146528927Y-59200977D01*
X146498186Y-59046431D01*
X146498185Y-59046427D01*
X146444773Y-58917481D01*
X146082481Y-59279774D01*
X145878928Y-59279774D01*
X145878928Y-59249938D01*
X145856092Y-59194807D01*
X145813896Y-59152611D01*
X145758765Y-59129775D01*
X145699091Y-59129775D01*
X145643960Y-59152611D01*
X145601764Y-59194807D01*
X145578928Y-59249938D01*
X145345538Y-59249938D01*
X145013081Y-58917480D01*
X144959671Y-59046423D01*
X144959669Y-59046431D01*
X144928928Y-59200977D01*
X142330198Y-59200977D01*
X142372602Y-59137515D01*
X142378319Y-59128959D01*
X142378320Y-59128956D01*
X142378322Y-59128954D01*
X142438665Y-58983272D01*
X142469428Y-58828617D01*
X142469428Y-58670933D01*
X142448143Y-58563928D01*
X145366633Y-58563928D01*
X145728928Y-58926221D01*
X145728929Y-58926221D01*
X146091221Y-58563928D01*
X145962279Y-58510518D01*
X145962271Y-58510516D01*
X145807725Y-58479775D01*
X145650130Y-58479775D01*
X145495584Y-58510516D01*
X145495576Y-58510518D01*
X145366633Y-58563928D01*
X142448143Y-58563928D01*
X142438665Y-58516278D01*
X142413972Y-58456664D01*
X146784164Y-58456664D01*
X146784164Y-58614357D01*
X146814925Y-58769000D01*
X146814928Y-58769012D01*
X146875266Y-58914683D01*
X146875273Y-58914696D01*
X146962874Y-59045799D01*
X146962877Y-59045803D01*
X147074371Y-59157297D01*
X147074375Y-59157300D01*
X147205478Y-59244901D01*
X147205491Y-59244908D01*
X147338497Y-59300000D01*
X147351167Y-59305248D01*
X147505817Y-59336010D01*
X147505820Y-59336011D01*
X147505822Y-59336011D01*
X147663508Y-59336011D01*
X147663509Y-59336010D01*
X147818161Y-59305248D01*
X147963843Y-59244905D01*
X148094953Y-59157300D01*
X148206453Y-59045800D01*
X148294058Y-58914690D01*
X148296212Y-58909491D01*
X148329709Y-58828621D01*
X148354401Y-58769008D01*
X148385164Y-58614353D01*
X148385164Y-58456669D01*
X148385164Y-58456666D01*
X148385163Y-58456664D01*
X148368043Y-58370596D01*
X148354401Y-58302014D01*
X148332160Y-58248318D01*
X148294061Y-58156338D01*
X148294054Y-58156325D01*
X148206453Y-58025222D01*
X148206450Y-58025218D01*
X148094956Y-57913724D01*
X148094952Y-57913721D01*
X147963849Y-57826120D01*
X147963836Y-57826113D01*
X147818165Y-57765775D01*
X147818153Y-57765772D01*
X147663509Y-57735011D01*
X147663506Y-57735011D01*
X147505822Y-57735011D01*
X147505819Y-57735011D01*
X147351174Y-57765772D01*
X147351162Y-57765775D01*
X147205491Y-57826113D01*
X147205478Y-57826120D01*
X147074375Y-57913721D01*
X147074371Y-57913724D01*
X146962877Y-58025218D01*
X146962874Y-58025222D01*
X146875273Y-58156325D01*
X146875266Y-58156338D01*
X146814928Y-58302009D01*
X146814925Y-58302021D01*
X146784164Y-58456664D01*
X142413972Y-58456664D01*
X142403964Y-58432502D01*
X142402039Y-58425827D01*
X142402175Y-58397559D01*
X142399153Y-58369449D01*
X142402355Y-58360242D01*
X142402376Y-58355958D01*
X142405540Y-58351086D01*
X142411831Y-58333000D01*
X142413570Y-58329744D01*
X142413581Y-58329729D01*
X142473924Y-58184047D01*
X142504687Y-58029392D01*
X142504687Y-57871708D01*
X142504687Y-57871705D01*
X142504686Y-57871703D01*
X142495618Y-57826117D01*
X142473924Y-57717053D01*
X142472925Y-57714640D01*
X142413584Y-57571377D01*
X142413577Y-57571364D01*
X142325976Y-57440261D01*
X142325973Y-57440257D01*
X142214479Y-57328763D01*
X142214475Y-57328760D01*
X142083372Y-57241159D01*
X142083359Y-57241152D01*
X141937688Y-57180814D01*
X141937676Y-57180811D01*
X141783032Y-57150050D01*
X141783029Y-57150050D01*
X141625345Y-57150050D01*
X141625342Y-57150050D01*
X141470697Y-57180811D01*
X141470685Y-57180814D01*
X141325014Y-57241152D01*
X141325001Y-57241159D01*
X141193898Y-57328760D01*
X141193894Y-57328763D01*
X141082400Y-57440257D01*
X141082397Y-57440261D01*
X140994796Y-57571364D01*
X140994789Y-57571377D01*
X140934451Y-57717048D01*
X140934448Y-57717060D01*
X140903687Y-57871703D01*
X140903687Y-58029396D01*
X140934447Y-58184038D01*
X140934449Y-58184043D01*
X140934450Y-58184047D01*
X140934452Y-58184051D01*
X140966493Y-58261407D01*
X140973960Y-58330876D01*
X140961293Y-58367303D01*
X140959536Y-58370590D01*
X140899192Y-58516273D01*
X140899189Y-58516285D01*
X140868428Y-58670928D01*
X139293573Y-58670928D01*
X139257176Y-58620831D01*
X139257172Y-58620826D01*
X139129169Y-58492823D01*
X138982734Y-58386434D01*
X138821447Y-58304252D01*
X138821441Y-58304250D01*
X138649295Y-58248318D01*
X138649285Y-58248315D01*
X138630000Y-58245260D01*
X138630000Y-59270272D01*
X138591940Y-59178386D01*
X138521614Y-59108060D01*
X138429728Y-59070000D01*
X138330272Y-59070000D01*
X138238386Y-59108060D01*
X138168060Y-59178386D01*
X138130000Y-59270272D01*
X138130000Y-58245260D01*
X138110714Y-58248315D01*
X138110704Y-58248318D01*
X137938558Y-58304250D01*
X137938552Y-58304252D01*
X137777265Y-58386434D01*
X137630830Y-58492823D01*
X137502823Y-58620830D01*
X137396433Y-58767265D01*
X137372842Y-58813565D01*
X137324866Y-58864360D01*
X137257045Y-58881154D01*
X137200358Y-58864655D01*
X137152488Y-58837017D01*
X137152489Y-58837017D01*
X137141006Y-58833940D01*
X137012475Y-58799500D01*
X136867525Y-58799500D01*
X136738993Y-58833940D01*
X136727511Y-58837017D01*
X136601988Y-58909488D01*
X136601982Y-58909493D01*
X136499493Y-59011982D01*
X136499488Y-59011988D01*
X136427017Y-59137511D01*
X136427016Y-59137515D01*
X136389500Y-59277525D01*
X131710500Y-59277525D01*
X131672984Y-59137515D01*
X131668515Y-59129775D01*
X131600511Y-59011988D01*
X131600506Y-59011982D01*
X131498017Y-58909493D01*
X131498011Y-58909488D01*
X131372488Y-58837017D01*
X131372489Y-58837017D01*
X131361006Y-58833940D01*
X131232475Y-58799500D01*
X131087525Y-58799500D01*
X130947515Y-58837016D01*
X130947514Y-58837016D01*
X130947512Y-58837017D01*
X130899640Y-58864656D01*
X130831740Y-58881128D01*
X130765713Y-58858275D01*
X130727156Y-58813563D01*
X130703565Y-58767265D01*
X130597176Y-58620830D01*
X130469169Y-58492823D01*
X130322734Y-58386434D01*
X130161447Y-58304252D01*
X130161441Y-58304250D01*
X129989295Y-58248318D01*
X129989285Y-58248315D01*
X129970000Y-58245260D01*
X129970000Y-59270272D01*
X129931940Y-59178386D01*
X129861614Y-59108060D01*
X129769728Y-59070000D01*
X129670272Y-59070000D01*
X129578386Y-59108060D01*
X129508060Y-59178386D01*
X129470000Y-59270272D01*
X129470000Y-58245260D01*
X129450714Y-58248315D01*
X129450704Y-58248318D01*
X129278558Y-58304250D01*
X129278552Y-58304252D01*
X129117265Y-58386434D01*
X128970830Y-58492823D01*
X128842823Y-58620830D01*
X128736434Y-58767265D01*
X128654252Y-58928552D01*
X128654251Y-58928555D01*
X128598317Y-59100706D01*
X128570000Y-59279493D01*
X125358629Y-59279493D01*
X125477966Y-59266047D01*
X125477982Y-59266045D01*
X125773633Y-59198565D01*
X125773645Y-59198561D01*
X125890763Y-59157580D01*
X126059866Y-59098407D01*
X126059880Y-59098401D01*
X126333096Y-58966827D01*
X126589872Y-58805484D01*
X126749573Y-58678126D01*
X125607737Y-57536290D01*
X125741602Y-57439033D01*
X125864033Y-57316602D01*
X125961290Y-57182737D01*
X127103126Y-58324573D01*
X127230484Y-58164872D01*
X127391827Y-57908096D01*
X127523401Y-57634880D01*
X127523407Y-57634866D01*
X127623561Y-57348645D01*
X127623565Y-57348633D01*
X127634665Y-57300000D01*
X131341759Y-57300000D01*
X131385357Y-57405254D01*
X131385362Y-57405264D01*
X131467436Y-57528096D01*
X131467439Y-57528100D01*
X131571899Y-57632560D01*
X131571907Y-57632566D01*
X131694739Y-57714640D01*
X131694743Y-57714642D01*
X131799999Y-57758240D01*
X131800000Y-57758240D01*
X132300000Y-57758240D01*
X132405256Y-57714642D01*
X132405260Y-57714640D01*
X132528092Y-57632566D01*
X132528100Y-57632560D01*
X132632560Y-57528100D01*
X132632563Y-57528096D01*
X132714637Y-57405264D01*
X132714642Y-57405254D01*
X132758241Y-57300000D01*
X135341759Y-57300000D01*
X135385357Y-57405254D01*
X135385362Y-57405264D01*
X135467436Y-57528096D01*
X135467439Y-57528100D01*
X135571899Y-57632560D01*
X135571907Y-57632566D01*
X135694739Y-57714640D01*
X135694743Y-57714642D01*
X135799999Y-57758240D01*
X135800000Y-57758240D01*
X136300000Y-57758240D01*
X136405256Y-57714642D01*
X136405260Y-57714640D01*
X136528092Y-57632566D01*
X136528100Y-57632560D01*
X136632560Y-57528100D01*
X136632563Y-57528096D01*
X136714637Y-57405264D01*
X136714642Y-57405254D01*
X136758241Y-57300000D01*
X136300000Y-57300000D01*
X136300000Y-57758240D01*
X135800000Y-57758240D01*
X135800000Y-57300000D01*
X135341759Y-57300000D01*
X132758241Y-57300000D01*
X132300000Y-57300000D01*
X132300000Y-57758240D01*
X131800000Y-57758240D01*
X131800000Y-57300000D01*
X131341759Y-57300000D01*
X127634665Y-57300000D01*
X127691045Y-57052982D01*
X127691047Y-57052966D01*
X127724999Y-56751633D01*
X127725000Y-56751631D01*
X127725000Y-56448368D01*
X127724999Y-56448366D01*
X127691047Y-56147033D01*
X127691045Y-56147017D01*
X127633805Y-55896230D01*
X127623565Y-55851366D01*
X127623561Y-55851354D01*
X127523407Y-55565133D01*
X127523401Y-55565119D01*
X127391827Y-55291903D01*
X127230484Y-55035127D01*
X127103127Y-54875425D01*
X125961290Y-56017262D01*
X125864033Y-55883398D01*
X125741602Y-55760967D01*
X125607736Y-55663708D01*
X126749573Y-54521871D01*
X126589872Y-54394515D01*
X126486392Y-54329494D01*
X126440101Y-54277159D01*
X126429453Y-54208106D01*
X126457828Y-54144257D01*
X126516217Y-54105885D01*
X126552364Y-54100500D01*
X128991549Y-54100500D01*
X129058588Y-54120185D01*
G37*
%TD.AperFunction*%
%TD*%
M02*
