%TF.GenerationSoftware,KiCad,Pcbnew,9.0.7*%
%TF.CreationDate,2026-03-05T22:31:15+08:00*%
%TF.ProjectId,pumper,70756d70-6572-42e6-9b69-6361645f7063,rev?*%
%TF.SameCoordinates,Original*%
%TF.FileFunction,Legend,Bot*%
%TF.FilePolarity,Positive*%
%FSLAX46Y46*%
G04 Gerber Fmt 4.6, Leading zero omitted, Abs format (unit mm)*
G04 Created by KiCad (PCBNEW 9.0.7) date 2026-03-05 22:31:15*
%MOMM*%
%LPD*%
G01*
G04 APERTURE LIST*
%ADD10C,0.300000*%
%ADD11C,0.180000*%
%ADD12C,0.187500*%
%ADD13C,0.120000*%
%ADD14C,0.700000*%
%ADD15C,4.400000*%
%ADD16C,1.600000*%
%ADD17C,1.300000*%
%ADD18R,1.950000X1.950000*%
%ADD19C,1.950000*%
%ADD20C,3.300000*%
%ADD21C,0.600000*%
%ADD22O,1.300000X2.300000*%
%ADD23O,1.300000X2.100000*%
%ADD24C,0.500000*%
%ADD25C,1.500000*%
G04 APERTURE END LIST*
D10*
G36*
X125686907Y-124114048D02*
G01*
X124532676Y-123933613D01*
X124532676Y-124141342D01*
X125239942Y-124244199D01*
X125380534Y-124258853D01*
X125506472Y-124269386D01*
X125380534Y-124277721D01*
X125239942Y-124296589D01*
X124532676Y-124422527D01*
X124532676Y-124640788D01*
X125239942Y-124762513D01*
X125381633Y-124782388D01*
X125508487Y-124794020D01*
X125381633Y-124803362D01*
X125239942Y-124819116D01*
X124532676Y-124924079D01*
X124532676Y-125125580D01*
X125686907Y-124940840D01*
X125686907Y-124670189D01*
X124975519Y-124561012D01*
X124840147Y-124542144D01*
X124715308Y-124529596D01*
X124840147Y-124516957D01*
X124975519Y-124498089D01*
X125686907Y-124384791D01*
X125686907Y-124114048D01*
G37*
G36*
X125348642Y-125314561D02*
G01*
X125437865Y-125339641D01*
X125514616Y-125379930D01*
X125580936Y-125435799D01*
X125634078Y-125504249D01*
X125672838Y-125584235D01*
X125697172Y-125677987D01*
X125705774Y-125788424D01*
X125697172Y-125898813D01*
X125672838Y-125992518D01*
X125634079Y-126072459D01*
X125580936Y-126140867D01*
X125514611Y-126196778D01*
X125437857Y-126237095D01*
X125348636Y-126262191D01*
X125244155Y-126271017D01*
X124975519Y-126271017D01*
X124869879Y-126262142D01*
X124780169Y-126236973D01*
X124703468Y-126196650D01*
X124637639Y-126140867D01*
X124584964Y-126072523D01*
X124546510Y-125992605D01*
X124522351Y-125898878D01*
X124513808Y-125788424D01*
X124742603Y-125788424D01*
X124749665Y-125856031D01*
X124769226Y-125909131D01*
X124800305Y-125950998D01*
X124842257Y-125981893D01*
X124896621Y-126001542D01*
X124967092Y-126008701D01*
X125252490Y-126008701D01*
X125323024Y-126001540D01*
X125377415Y-125981889D01*
X125419369Y-125950998D01*
X125450447Y-125909131D01*
X125470008Y-125856031D01*
X125477071Y-125788424D01*
X125470006Y-125720755D01*
X125450443Y-125667627D01*
X125419369Y-125625758D01*
X125377415Y-125594868D01*
X125323024Y-125575217D01*
X125252490Y-125568056D01*
X124967092Y-125568056D01*
X124896621Y-125575215D01*
X124842257Y-125594864D01*
X124800305Y-125625758D01*
X124769231Y-125667627D01*
X124749668Y-125720755D01*
X124742603Y-125788424D01*
X124513808Y-125788424D01*
X124522351Y-125677923D01*
X124546510Y-125584149D01*
X124584965Y-125504185D01*
X124637639Y-125435799D01*
X124703462Y-125380058D01*
X124780161Y-125339763D01*
X124869873Y-125314609D01*
X124975519Y-125305739D01*
X125244155Y-125305739D01*
X125348642Y-125314561D01*
G37*
G36*
X125686907Y-127234006D02*
G01*
X125679942Y-127149026D01*
X125660112Y-127076041D01*
X125628250Y-127012911D01*
X125584141Y-126958042D01*
X125529653Y-126913261D01*
X125467455Y-126881086D01*
X125396050Y-126861154D01*
X125313398Y-126854178D01*
X124392084Y-126854178D01*
X124392084Y-126474350D01*
X124154954Y-126474350D01*
X124154954Y-127116495D01*
X125307078Y-127116495D01*
X125366875Y-127126149D01*
X125410943Y-127153223D01*
X125439650Y-127195441D01*
X125449777Y-127252874D01*
X125449777Y-127590753D01*
X125686907Y-127590753D01*
X125686907Y-127234006D01*
G37*
G36*
X125686907Y-128096153D02*
G01*
X124927250Y-128096153D01*
X124927250Y-127779339D01*
X124690121Y-127779339D01*
X124690121Y-128096153D01*
X124486514Y-128096153D01*
X124412579Y-128102869D01*
X124348943Y-128122074D01*
X124293630Y-128153215D01*
X124245263Y-128196903D01*
X124206796Y-128249554D01*
X124178732Y-128310424D01*
X124161149Y-128381056D01*
X124154954Y-128463433D01*
X124154954Y-128801312D01*
X124385855Y-128801312D01*
X124385855Y-128469753D01*
X124393285Y-128423349D01*
X124414157Y-128388878D01*
X124446701Y-128366373D01*
X124490727Y-128358469D01*
X124690121Y-128358469D01*
X124690121Y-128801312D01*
X124927250Y-128801312D01*
X124927250Y-128358469D01*
X125686907Y-128358469D01*
X125686907Y-128096153D01*
G37*
G36*
X125116111Y-129229134D02*
G01*
X124872662Y-129229134D01*
X124872662Y-129900680D01*
X125116111Y-129900680D01*
X125116111Y-129229134D01*
G37*
G36*
X126064628Y-130540352D02*
G01*
X125623983Y-130704117D01*
X124532676Y-130269700D01*
X124532676Y-130546672D01*
X125122431Y-130769146D01*
X125236736Y-130806882D01*
X125351134Y-130834176D01*
X125236736Y-130858265D01*
X125122431Y-130895084D01*
X124532676Y-131100706D01*
X124532676Y-131377677D01*
X126064628Y-130815308D01*
X126064628Y-130540352D01*
G37*
G36*
X125707881Y-132082562D02*
G01*
X125699369Y-131973044D01*
X125675366Y-131880727D01*
X125637257Y-131802571D01*
X125585149Y-131736256D01*
X125520053Y-131682394D01*
X125444101Y-131643353D01*
X125355168Y-131618936D01*
X125250383Y-131610319D01*
X124532676Y-131610319D01*
X124532676Y-131872636D01*
X125248277Y-131872636D01*
X125319112Y-131879390D01*
X125374693Y-131898001D01*
X125418361Y-131927224D01*
X125451333Y-131967354D01*
X125471822Y-132018067D01*
X125479178Y-132082562D01*
X125471901Y-132145604D01*
X125451477Y-132196020D01*
X125418361Y-132236710D01*
X125374607Y-132266564D01*
X125319024Y-132285526D01*
X125248277Y-132292397D01*
X124532676Y-132292397D01*
X124532676Y-132554714D01*
X125250383Y-132554714D01*
X125355033Y-132545976D01*
X125443919Y-132521200D01*
X125519920Y-132481522D01*
X125585149Y-132426670D01*
X125637502Y-132359353D01*
X125675599Y-132281079D01*
X125699462Y-132189739D01*
X125707881Y-132082562D01*
G37*
G36*
X125426341Y-132840321D02*
G01*
X125495158Y-132859793D01*
X125555317Y-132891303D01*
X125608230Y-132935275D01*
X125650631Y-132988902D01*
X125681563Y-133051820D01*
X125701001Y-133125839D01*
X125707881Y-133213346D01*
X125700163Y-133308079D01*
X125678684Y-133385294D01*
X125644958Y-133448368D01*
X125597429Y-133500264D01*
X125540144Y-133534855D01*
X125470752Y-133553332D01*
X125686907Y-133553332D01*
X125686907Y-133809329D01*
X124904169Y-133809329D01*
X124812460Y-133801049D01*
X124735365Y-133777609D01*
X124670052Y-133739986D01*
X124614558Y-133687604D01*
X124571706Y-133624596D01*
X124539642Y-133548424D01*
X124519079Y-133456470D01*
X124511702Y-133345512D01*
X124518510Y-133241167D01*
X124537651Y-133152936D01*
X124567752Y-133078240D01*
X124608238Y-133014959D01*
X124660860Y-132960171D01*
X124719538Y-132920794D01*
X124785366Y-132895409D01*
X124860114Y-132883893D01*
X124860114Y-133135676D01*
X124819666Y-133145369D01*
X124786598Y-133165342D01*
X124759364Y-133196493D01*
X124733402Y-133257223D01*
X124723643Y-133343497D01*
X124732030Y-133423008D01*
X124754101Y-133478109D01*
X124787664Y-133515454D01*
X124834067Y-133538556D01*
X124897849Y-133547012D01*
X124979732Y-133547012D01*
X124979732Y-133278375D01*
X125149725Y-133278375D01*
X125149725Y-133547012D01*
X125286104Y-133547012D01*
X125345939Y-133539255D01*
X125395491Y-133517011D01*
X125437229Y-133479876D01*
X125467592Y-133432100D01*
X125486872Y-133372299D01*
X125493833Y-133297243D01*
X125487930Y-133233147D01*
X125471783Y-133183503D01*
X125446663Y-133145110D01*
X125412081Y-133115583D01*
X125371098Y-133097822D01*
X125321733Y-133091621D01*
X125273515Y-133097445D01*
X125232856Y-133114185D01*
X125197993Y-133141996D01*
X125171840Y-133178271D01*
X125155544Y-133222945D01*
X125149725Y-133278375D01*
X124979732Y-133278375D01*
X124979732Y-133265827D01*
X124986760Y-133164874D01*
X125006485Y-133080132D01*
X125037513Y-133008875D01*
X125079383Y-132948922D01*
X125133059Y-132898740D01*
X125194404Y-132863103D01*
X125264943Y-132841177D01*
X125346920Y-132833517D01*
X125426341Y-132840321D01*
G37*
G36*
X125686907Y-134132187D02*
G01*
X124532676Y-134132187D01*
X124532676Y-134388184D01*
X124748831Y-134388184D01*
X124680104Y-134409422D01*
X124623061Y-134443535D01*
X124575724Y-134491041D01*
X124540969Y-134548692D01*
X124519346Y-134617048D01*
X124511702Y-134698770D01*
X124519257Y-134781984D01*
X124540868Y-134853648D01*
X124575916Y-134915979D01*
X124625091Y-134970520D01*
X124684273Y-135013732D01*
X124753370Y-135045395D01*
X124834262Y-135065322D01*
X124929357Y-135072370D01*
X125686907Y-135072370D01*
X125686907Y-134810053D01*
X124960773Y-134810053D01*
X124891569Y-134803154D01*
X124837842Y-134784186D01*
X124796092Y-134754365D01*
X124764611Y-134714006D01*
X124745252Y-134664850D01*
X124738389Y-134604339D01*
X124745462Y-134541137D01*
X124765257Y-134490690D01*
X124797191Y-134450100D01*
X124839590Y-134420381D01*
X124894324Y-134401416D01*
X124964986Y-134394504D01*
X125686907Y-134394504D01*
X125686907Y-134132187D01*
G37*
G36*
X125707881Y-135859045D02*
G01*
X125701547Y-135802454D01*
X125683613Y-135755974D01*
X125654392Y-135717354D01*
X125615816Y-135688031D01*
X125569986Y-135670146D01*
X125514807Y-135663865D01*
X125459659Y-135670120D01*
X125413462Y-135687987D01*
X125374215Y-135717354D01*
X125344346Y-135756056D01*
X125326070Y-135802536D01*
X125319626Y-135859045D01*
X125326068Y-135915494D01*
X125344342Y-135961945D01*
X125374215Y-136000645D01*
X125413462Y-136030012D01*
X125459659Y-136047879D01*
X125514807Y-136054134D01*
X125569986Y-136047853D01*
X125615816Y-136029967D01*
X125654392Y-136000645D01*
X125683618Y-135962026D01*
X125701550Y-135915575D01*
X125707881Y-135859045D01*
G37*
G36*
X125367749Y-136644514D02*
G01*
X125453167Y-136664900D01*
X125526007Y-136697214D01*
X125588263Y-136741159D01*
X125640609Y-136797110D01*
X125677519Y-136859995D01*
X125700058Y-136931228D01*
X125707881Y-137012909D01*
X125700658Y-137092064D01*
X125680138Y-137159119D01*
X125647064Y-137216425D01*
X125601825Y-137264806D01*
X125545793Y-137302507D01*
X125477071Y-137329815D01*
X125686907Y-137329815D01*
X125686907Y-137585812D01*
X124154954Y-137585812D01*
X124154954Y-137323495D01*
X124478179Y-137323495D01*
X124742603Y-137331921D01*
X124673864Y-137303319D01*
X124617815Y-137264585D01*
X124572610Y-137215417D01*
X124539362Y-137157450D01*
X124525280Y-137111553D01*
X124738389Y-137111553D01*
X124745731Y-137176068D01*
X124766234Y-137227152D01*
X124799297Y-137267899D01*
X124843026Y-137297614D01*
X124899178Y-137316587D01*
X124971305Y-137323495D01*
X125248277Y-137323495D01*
X125320468Y-137316588D01*
X125376682Y-137297613D01*
X125420468Y-137267899D01*
X125453478Y-137227159D01*
X125473952Y-137176075D01*
X125481285Y-137111553D01*
X125474591Y-137046532D01*
X125456069Y-136995461D01*
X125426696Y-136955207D01*
X125386725Y-136925826D01*
X125332304Y-136906715D01*
X125258810Y-136899611D01*
X124960773Y-136899611D01*
X124887279Y-136906717D01*
X124832894Y-136925830D01*
X124792978Y-136955207D01*
X124763605Y-136995461D01*
X124745083Y-137046532D01*
X124738389Y-137111553D01*
X124525280Y-137111553D01*
X124518869Y-137090657D01*
X124511702Y-137012909D01*
X124519577Y-136930093D01*
X124542195Y-136858364D01*
X124579113Y-136795515D01*
X124631319Y-136740060D01*
X124693483Y-136696702D01*
X124766604Y-136664716D01*
X124852758Y-136644477D01*
X124954544Y-136637295D01*
X125267236Y-136637295D01*
X125367749Y-136644514D01*
G37*
G36*
X125338370Y-137901056D02*
G01*
X125419254Y-137921244D01*
X125490718Y-137953825D01*
X125554646Y-137999108D01*
X125607896Y-138055030D01*
X125651278Y-138122718D01*
X125682026Y-138197463D01*
X125701185Y-138282210D01*
X125707881Y-138378807D01*
X125697337Y-138499125D01*
X125667276Y-138602250D01*
X125618763Y-138691407D01*
X125569624Y-138749916D01*
X125514145Y-138794561D01*
X125451565Y-138826700D01*
X125380534Y-138846746D01*
X125380534Y-138586536D01*
X125413469Y-138574578D01*
X125440795Y-138552470D01*
X125463424Y-138518300D01*
X125484209Y-138456712D01*
X125491726Y-138378807D01*
X125484372Y-138306958D01*
X125464059Y-138250734D01*
X125431917Y-138206616D01*
X125388262Y-138174203D01*
X125330588Y-138153426D01*
X125254597Y-138145799D01*
X125174821Y-138145799D01*
X125174821Y-138859294D01*
X124964986Y-138859294D01*
X124875698Y-138852289D01*
X124796918Y-138832139D01*
X124726849Y-138799485D01*
X124664174Y-138754386D01*
X124611598Y-138698796D01*
X124568396Y-138631598D01*
X124537564Y-138557576D01*
X124518392Y-138473911D01*
X124511702Y-138378807D01*
X124713202Y-138378807D01*
X124721145Y-138450120D01*
X124743128Y-138505514D01*
X124778232Y-138548709D01*
X124824951Y-138580082D01*
X124885209Y-138600178D01*
X124962879Y-138607510D01*
X125002813Y-138607510D01*
X125004919Y-138145799D01*
X124964986Y-138145799D01*
X124887297Y-138153098D01*
X124826662Y-138173149D01*
X124779331Y-138204509D01*
X124743781Y-138247945D01*
X124721361Y-138304666D01*
X124713202Y-138378807D01*
X124511702Y-138378807D01*
X124518408Y-138282215D01*
X124537597Y-138197468D01*
X124568396Y-138122718D01*
X124611778Y-138055030D01*
X124665028Y-137999108D01*
X124728956Y-137953825D01*
X124800419Y-137921241D01*
X124881274Y-137901054D01*
X124973412Y-137894016D01*
X125246170Y-137894016D01*
X125338370Y-137901056D01*
G37*
G36*
X125686907Y-139469748D02*
G01*
X124532676Y-139081494D01*
X124532676Y-139356359D01*
X125233622Y-139578833D01*
X125360568Y-139615561D01*
X125470752Y-139637635D01*
X125360568Y-139659617D01*
X125235729Y-139692131D01*
X124532676Y-139912500D01*
X124532676Y-140189471D01*
X125686907Y-139803415D01*
X125686907Y-139469748D01*
G37*
D11*
G36*
X135560482Y-59686084D02*
G01*
X135627561Y-59680949D01*
X135683882Y-59666500D01*
X135731341Y-59643626D01*
X135771398Y-59612445D01*
X135803999Y-59573349D01*
X135827607Y-59527764D01*
X135842360Y-59474417D01*
X135847565Y-59411586D01*
X135847565Y-58754328D01*
X135688911Y-58754328D01*
X135688911Y-59410322D01*
X135684865Y-59452827D01*
X135673715Y-59486175D01*
X135656213Y-59512372D01*
X135632078Y-59532035D01*
X135600890Y-59544386D01*
X135560482Y-59548862D01*
X135520953Y-59544433D01*
X135489937Y-59532120D01*
X135465466Y-59512372D01*
X135447554Y-59486120D01*
X135436176Y-59452770D01*
X135432053Y-59410322D01*
X135432053Y-58754328D01*
X135273399Y-58754328D01*
X135273399Y-59411586D01*
X135278570Y-59474456D01*
X135293220Y-59527816D01*
X135316645Y-59573388D01*
X135348962Y-59612445D01*
X135388720Y-59643556D01*
X135436133Y-59666433D01*
X135492726Y-59680923D01*
X135560482Y-59686084D01*
G37*
G36*
X134801449Y-59686084D02*
G01*
X134862858Y-59682205D01*
X134916849Y-59671117D01*
X134964499Y-59653386D01*
X135008128Y-59628010D01*
X135043924Y-59596856D01*
X135072760Y-59559579D01*
X135093703Y-59517316D01*
X135106654Y-59469246D01*
X135111173Y-59414114D01*
X134956311Y-59414114D01*
X134951395Y-59453331D01*
X134937377Y-59485532D01*
X134914161Y-59512372D01*
X134884095Y-59532065D01*
X134847138Y-59544434D01*
X134801449Y-59548862D01*
X134757430Y-59544493D01*
X134722174Y-59532326D01*
X134693793Y-59512977D01*
X134672009Y-59486754D01*
X134658773Y-59455180D01*
X134654115Y-59416642D01*
X134660651Y-59373740D01*
X134679944Y-59336683D01*
X134699164Y-59316395D01*
X134723391Y-59300680D01*
X134753583Y-59289476D01*
X134876956Y-59257987D01*
X134940082Y-59235641D01*
X134991968Y-59204189D01*
X135034347Y-59163575D01*
X135066390Y-59114720D01*
X135085649Y-59060276D01*
X135092269Y-58998602D01*
X135087134Y-58941188D01*
X135072465Y-58891836D01*
X135048724Y-58849014D01*
X135015497Y-58811646D01*
X134975303Y-58781914D01*
X134928581Y-58760193D01*
X134874091Y-58746557D01*
X134810242Y-58741744D01*
X134753012Y-58745478D01*
X134702783Y-58756152D01*
X134658512Y-58773233D01*
X134618046Y-58797480D01*
X134584959Y-58826973D01*
X134558439Y-58862039D01*
X134539141Y-58901567D01*
X134527276Y-58945899D01*
X134523159Y-58996074D01*
X134676757Y-58996074D01*
X134680979Y-58962465D01*
X134693103Y-58934381D01*
X134713302Y-58910509D01*
X134739376Y-58892767D01*
X134771173Y-58881700D01*
X134810242Y-58877756D01*
X134848472Y-58881646D01*
X134879199Y-58892505D01*
X134904049Y-58909850D01*
X134923141Y-58933182D01*
X134934653Y-58960676D01*
X134938671Y-58993601D01*
X134932311Y-59033292D01*
X134914161Y-59064107D01*
X134885646Y-59087478D01*
X134845522Y-59104389D01*
X134718302Y-59135878D01*
X134668921Y-59152081D01*
X134626262Y-59174247D01*
X134589438Y-59202318D01*
X134557835Y-59236610D01*
X134532428Y-59275758D01*
X134514232Y-59318355D01*
X134503090Y-59365044D01*
X134499253Y-59416642D01*
X134503603Y-59470139D01*
X134516112Y-59517187D01*
X134536403Y-59558919D01*
X134564346Y-59595939D01*
X134599113Y-59627092D01*
X134641531Y-59652727D01*
X134687968Y-59670802D01*
X134740890Y-59682118D01*
X134801449Y-59686084D01*
G37*
G36*
X134330707Y-59673500D02*
G01*
X134034777Y-59673500D01*
X133975046Y-59669673D01*
X133922982Y-59658775D01*
X133877441Y-59641406D01*
X133835779Y-59616602D01*
X133801634Y-59586291D01*
X133774182Y-59550126D01*
X133754191Y-59509266D01*
X133741901Y-59463444D01*
X133737637Y-59411586D01*
X133738414Y-59404057D01*
X133895027Y-59404057D01*
X133899752Y-59445136D01*
X133913061Y-59478316D01*
X133934704Y-59505393D01*
X133963239Y-59525423D01*
X133998882Y-59538015D01*
X134043624Y-59542543D01*
X134177109Y-59542543D01*
X134177109Y-59260515D01*
X134043624Y-59260515D01*
X133999078Y-59265305D01*
X133963433Y-59278694D01*
X133934704Y-59300193D01*
X133912974Y-59328782D01*
X133899697Y-59362874D01*
X133895027Y-59404057D01*
X133738414Y-59404057D01*
X133743421Y-59355512D01*
X133760333Y-59305193D01*
X133787590Y-59260875D01*
X133823256Y-59225894D01*
X133866241Y-59201221D01*
X133915195Y-59188745D01*
X133915195Y-59186217D01*
X133871627Y-59173796D01*
X133834458Y-59152178D01*
X133802538Y-59120766D01*
X133778579Y-59082674D01*
X133764077Y-59039874D01*
X133760874Y-59008658D01*
X133916459Y-59008658D01*
X133920799Y-59045668D01*
X133933040Y-59075569D01*
X133953004Y-59099993D01*
X133979147Y-59118033D01*
X134011312Y-59129316D01*
X134051153Y-59133350D01*
X134177109Y-59133350D01*
X134177109Y-58885285D01*
X134051153Y-58885285D01*
X134010466Y-58889361D01*
X133978140Y-58900679D01*
X133952345Y-58918643D01*
X133932710Y-58942954D01*
X133920703Y-58972447D01*
X133916459Y-59008658D01*
X133760874Y-59008658D01*
X133759069Y-58991073D01*
X133764239Y-58938450D01*
X133779079Y-58893056D01*
X133803339Y-58853417D01*
X133837764Y-58818570D01*
X133878469Y-58791514D01*
X133926253Y-58771501D01*
X133982430Y-58758825D01*
X134048625Y-58754328D01*
X134330707Y-58754328D01*
X134330707Y-59673500D01*
G37*
G36*
X132529239Y-59686084D02*
G01*
X132588085Y-59682114D01*
X132639333Y-59670799D01*
X132684156Y-59652727D01*
X132724838Y-59627156D01*
X132758379Y-59595832D01*
X132785493Y-59558315D01*
X132805045Y-59516223D01*
X132817155Y-59468537D01*
X132821378Y-59414114D01*
X132821378Y-59013714D01*
X132817154Y-58959291D01*
X132805043Y-58911625D01*
X132785493Y-58869568D01*
X132758376Y-58832016D01*
X132724834Y-58800675D01*
X132684156Y-58775101D01*
X132639333Y-58757028D01*
X132588085Y-58745714D01*
X132529239Y-58741744D01*
X132471250Y-58745695D01*
X132420418Y-58756993D01*
X132375641Y-58775101D01*
X132334890Y-58800655D01*
X132301120Y-58831997D01*
X132273645Y-58869568D01*
X132253752Y-58911661D01*
X132241445Y-58959325D01*
X132237155Y-59013714D01*
X132395754Y-59013714D01*
X132400027Y-58972296D01*
X132411808Y-58940056D01*
X132430431Y-58914906D01*
X132455581Y-58896282D01*
X132487821Y-58884502D01*
X132529239Y-58880229D01*
X132570707Y-58884487D01*
X132603209Y-58896259D01*
X132628762Y-58914906D01*
X132647704Y-58940099D01*
X132659658Y-58972341D01*
X132663988Y-59013714D01*
X132663988Y-59414114D01*
X132659657Y-59455524D01*
X132647702Y-59487782D01*
X132628762Y-59512977D01*
X132603213Y-59531592D01*
X132570711Y-59543346D01*
X132529239Y-59547598D01*
X132487817Y-59543332D01*
X132455577Y-59531568D01*
X132430431Y-59512977D01*
X132411810Y-59487826D01*
X132400028Y-59455569D01*
X132395754Y-59414114D01*
X132237155Y-59414114D01*
X132241444Y-59468503D01*
X132253750Y-59516186D01*
X132273645Y-59558315D01*
X132301116Y-59595851D01*
X132334886Y-59627175D01*
X132375641Y-59652727D01*
X132420418Y-59670835D01*
X132471250Y-59682132D01*
X132529239Y-59686084D01*
G37*
G36*
X153147546Y-86422500D02*
G01*
X153147546Y-84890547D01*
X152832748Y-84890547D01*
X152832748Y-86139208D01*
X152213684Y-86139208D01*
X152213684Y-86422500D01*
X153147546Y-86422500D01*
G37*
G36*
X151983149Y-86422500D02*
G01*
X151983149Y-86139208D01*
X151601214Y-86139208D01*
X151601214Y-85551652D01*
X151941200Y-85551652D01*
X151941200Y-85268269D01*
X151286416Y-85268269D01*
X151286416Y-86139208D01*
X150954856Y-86139208D01*
X150954856Y-86422500D01*
X151983149Y-86422500D01*
G37*
G36*
X151458607Y-85085728D02*
G01*
X151514372Y-85080374D01*
X151559450Y-85065431D01*
X151596085Y-85041673D01*
X151624351Y-85009245D01*
X151641454Y-84970066D01*
X151647468Y-84922055D01*
X151641454Y-84874043D01*
X151624351Y-84834864D01*
X151596085Y-84802437D01*
X151559450Y-84778678D01*
X151514372Y-84763735D01*
X151458607Y-84758381D01*
X151402781Y-84763739D01*
X151357709Y-84778685D01*
X151321129Y-84802437D01*
X151292862Y-84834864D01*
X151275759Y-84874043D01*
X151269746Y-84922055D01*
X151275759Y-84970066D01*
X151292862Y-85009245D01*
X151321129Y-85041673D01*
X151357709Y-85065424D01*
X151402781Y-85080370D01*
X151458607Y-85085728D01*
G37*
G36*
X150446112Y-85255384D02*
G01*
X150519530Y-85278611D01*
X150583790Y-85316515D01*
X150640424Y-85370118D01*
X150684775Y-85433899D01*
X150717411Y-85508454D01*
X150738004Y-85595801D01*
X150745296Y-85698472D01*
X150745296Y-85908399D01*
X150737961Y-86012253D01*
X150717301Y-86100091D01*
X150684660Y-86174581D01*
X150640424Y-86237852D01*
X150583859Y-86290924D01*
X150519623Y-86328499D01*
X150446180Y-86351545D01*
X150361254Y-86359576D01*
X150291430Y-86353670D01*
X150230414Y-86336713D01*
X150176607Y-86309201D01*
X150129329Y-86271478D01*
X150089573Y-86224333D01*
X150056989Y-86166502D01*
X150059095Y-86338602D01*
X150059095Y-86382657D01*
X150064756Y-86432338D01*
X150080638Y-86472130D01*
X150106356Y-86504290D01*
X150140388Y-86527849D01*
X150184501Y-86542930D01*
X150241636Y-86548437D01*
X150566968Y-86548437D01*
X150566968Y-86800221D01*
X150231195Y-86800221D01*
X150119729Y-86792537D01*
X150025835Y-86770945D01*
X149946597Y-86736943D01*
X149879668Y-86691045D01*
X149823681Y-86632145D01*
X149783832Y-86564195D01*
X149759237Y-86485395D01*
X149750617Y-86393099D01*
X149750617Y-85709005D01*
X150065415Y-85709005D01*
X150065415Y-85897866D01*
X150071354Y-85956131D01*
X150087753Y-86001708D01*
X150113684Y-86037451D01*
X150148748Y-86064112D01*
X150192648Y-86080755D01*
X150247956Y-86086727D01*
X150304669Y-86080681D01*
X150348831Y-86063978D01*
X150383328Y-86037451D01*
X150408623Y-86001794D01*
X150424674Y-85956221D01*
X150430497Y-85897866D01*
X150430497Y-85709005D01*
X150424672Y-85650652D01*
X150408620Y-85605112D01*
X150383328Y-85569512D01*
X150348824Y-85542931D01*
X150304661Y-85526199D01*
X150247956Y-85520144D01*
X150192656Y-85526126D01*
X150148755Y-85542797D01*
X150113684Y-85569512D01*
X150087756Y-85605199D01*
X150071356Y-85650741D01*
X150065415Y-85709005D01*
X149750617Y-85709005D01*
X149750617Y-85268269D01*
X150054882Y-85268269D01*
X150054882Y-85442475D01*
X150087427Y-85384587D01*
X150127183Y-85337086D01*
X150174500Y-85298769D01*
X150228407Y-85270707D01*
X150290078Y-85253357D01*
X150361254Y-85247295D01*
X150446112Y-85255384D01*
G37*
G36*
X149473920Y-86422500D02*
G01*
X149473920Y-84890547D01*
X149159121Y-84890547D01*
X149159121Y-85268269D01*
X149169654Y-85476089D01*
X149144910Y-85410166D01*
X149108393Y-85355080D01*
X149059470Y-85309210D01*
X149001470Y-85275299D01*
X148935342Y-85254525D01*
X148859069Y-85247295D01*
X148777242Y-85255036D01*
X148706355Y-85277269D01*
X148644238Y-85313543D01*
X148589425Y-85364806D01*
X148546236Y-85425981D01*
X148514556Y-85497159D01*
X148494620Y-85580210D01*
X148487576Y-85677498D01*
X148487576Y-86422500D01*
X148802374Y-86422500D01*
X148802374Y-85709005D01*
X148808209Y-85650659D01*
X148824290Y-85605119D01*
X148849635Y-85569512D01*
X148883992Y-85542741D01*
X148926850Y-85526101D01*
X148980702Y-85520144D01*
X149034618Y-85526101D01*
X149077538Y-85542741D01*
X149111952Y-85569512D01*
X149137244Y-85605112D01*
X149153296Y-85650652D01*
X149159121Y-85709005D01*
X149159121Y-86422500D01*
X149473920Y-86422500D01*
G37*
G36*
X147608576Y-86422500D02*
G01*
X147696033Y-86415540D01*
X147769835Y-86395892D01*
X147832424Y-86364629D01*
X147885639Y-86321749D01*
X147928480Y-86268539D01*
X147959715Y-86205966D01*
X147979345Y-86132191D01*
X147986298Y-86044778D01*
X147986298Y-85551652D01*
X148296883Y-85551652D01*
X148296883Y-85268269D01*
X147986298Y-85268269D01*
X147986298Y-84943029D01*
X147671591Y-84943029D01*
X147671591Y-85268269D01*
X147220413Y-85268269D01*
X147220413Y-85551652D01*
X147671591Y-85551652D01*
X147671591Y-86034245D01*
X147665265Y-86077155D01*
X147647502Y-86109808D01*
X147618724Y-86131477D01*
X147577160Y-86139208D01*
X147230855Y-86139208D01*
X147230855Y-86422500D01*
X147608576Y-86422500D01*
G37*
G36*
X146931077Y-86422500D02*
G01*
X147073776Y-84890547D01*
X146824007Y-84890547D01*
X146746429Y-85914627D01*
X146741209Y-85997609D01*
X146734889Y-86108800D01*
X146731683Y-86212664D01*
X146722249Y-86108800D01*
X146711808Y-85997609D01*
X146704389Y-85914627D01*
X146582665Y-84890547D01*
X146343520Y-84890547D01*
X146225917Y-85914627D01*
X146216575Y-85997609D01*
X146205035Y-86108800D01*
X146194502Y-86212664D01*
X146190289Y-86108800D01*
X146185068Y-85997609D01*
X146179756Y-85914627D01*
X146108406Y-84890547D01*
X145856622Y-84890547D01*
X146009763Y-86422500D01*
X146337201Y-86422500D01*
X146439966Y-85404740D01*
X146447385Y-85311317D01*
X146456819Y-85190691D01*
X146465153Y-85079408D01*
X146471473Y-85190691D01*
X146479899Y-85311317D01*
X146488234Y-85404740D01*
X146601624Y-86422500D01*
X146931077Y-86422500D01*
G37*
G36*
X145307147Y-85254140D02*
G01*
X145395342Y-85273693D01*
X145472856Y-85304997D01*
X145543387Y-85349144D01*
X145601363Y-85402804D01*
X145648069Y-85466655D01*
X145681917Y-85538217D01*
X145702754Y-85618396D01*
X145709985Y-85709005D01*
X145709985Y-85981763D01*
X145702753Y-86072433D01*
X145681914Y-86152642D01*
X145648069Y-86224205D01*
X145601369Y-86287999D01*
X145543393Y-86341630D01*
X145472856Y-86385771D01*
X145395342Y-86417076D01*
X145307147Y-86436628D01*
X145206326Y-86443474D01*
X145104139Y-86436580D01*
X145015673Y-86416985D01*
X144938788Y-86385771D01*
X144868898Y-86341686D01*
X144811269Y-86288062D01*
X144764674Y-86224205D01*
X144730829Y-86152642D01*
X144709990Y-86072433D01*
X144702758Y-85981763D01*
X144702758Y-85709005D01*
X145017465Y-85709005D01*
X145017465Y-85981763D01*
X145023406Y-86040091D01*
X145039807Y-86085695D01*
X145065733Y-86121440D01*
X145100930Y-86147819D01*
X145146729Y-86164597D01*
X145206326Y-86170716D01*
X145264570Y-86164667D01*
X145310142Y-86147946D01*
X145345910Y-86121440D01*
X145372421Y-86085616D01*
X145389140Y-86040010D01*
X145395186Y-85981763D01*
X145395186Y-85709005D01*
X145389068Y-85649408D01*
X145372290Y-85603609D01*
X145345910Y-85568413D01*
X145310222Y-85542490D01*
X145264652Y-85526088D01*
X145206326Y-85520144D01*
X145146644Y-85526157D01*
X145100848Y-85542616D01*
X145065733Y-85568413D01*
X145039936Y-85603528D01*
X145023478Y-85649323D01*
X145017465Y-85709005D01*
X144702758Y-85709005D01*
X144709989Y-85618396D01*
X144730826Y-85538217D01*
X144764674Y-85466655D01*
X144811275Y-85402740D01*
X144868905Y-85349088D01*
X144938788Y-85304997D01*
X145015673Y-85273783D01*
X145104139Y-85254188D01*
X145206326Y-85247295D01*
X145307147Y-85254140D01*
G37*
G36*
X143748196Y-86422500D02*
G01*
X143828008Y-86416491D01*
X143898864Y-86399178D01*
X143962244Y-86371117D01*
X144019400Y-86332142D01*
X144067067Y-86284475D01*
X144106042Y-86227319D01*
X144134103Y-86163939D01*
X144151416Y-86093082D01*
X144157425Y-86013271D01*
X144157425Y-85173838D01*
X144524613Y-85173838D01*
X144524613Y-84890547D01*
X143842626Y-84890547D01*
X143842626Y-86002829D01*
X143833586Y-86058981D01*
X143808005Y-86101473D01*
X143768470Y-86129522D01*
X143716689Y-86139208D01*
X143391449Y-86139208D01*
X143391449Y-86422500D01*
X143748196Y-86422500D01*
G37*
G36*
X142919572Y-86422500D02*
G01*
X142919572Y-85709005D01*
X143225944Y-85709005D01*
X143225944Y-85425714D01*
X142919572Y-85425714D01*
X142919572Y-85247295D01*
X142912272Y-85168364D01*
X142891347Y-85100151D01*
X142857310Y-85040569D01*
X142809387Y-84988183D01*
X142751847Y-84946520D01*
X142685710Y-84916181D01*
X142609375Y-84897215D01*
X142520784Y-84890547D01*
X142182996Y-84890547D01*
X142182996Y-85163397D01*
X142510343Y-85163397D01*
X142548909Y-85170176D01*
X142578578Y-85189684D01*
X142598012Y-85219270D01*
X142604773Y-85257827D01*
X142604773Y-85425714D01*
X142182996Y-85425714D01*
X142182996Y-85709005D01*
X142604773Y-85709005D01*
X142604773Y-86422500D01*
X142919572Y-86422500D01*
G37*
G36*
X138469330Y-140930084D02*
G01*
X138537154Y-140925131D01*
X138594529Y-140911164D01*
X138643227Y-140889048D01*
X138684642Y-140858973D01*
X138718878Y-140820850D01*
X138743402Y-140776793D01*
X138758604Y-140725630D01*
X138763942Y-140665697D01*
X138605288Y-140665697D01*
X138600981Y-140702746D01*
X138588773Y-140733085D01*
X138568798Y-140758241D01*
X138542477Y-140776906D01*
X138509523Y-140788641D01*
X138468066Y-140792862D01*
X138427429Y-140788667D01*
X138394862Y-140776957D01*
X138368598Y-140758241D01*
X138348591Y-140733081D01*
X138336366Y-140702741D01*
X138332053Y-140665697D01*
X138332053Y-140596400D01*
X138336391Y-140556791D01*
X138348497Y-140525311D01*
X138367939Y-140500119D01*
X138393857Y-140481481D01*
X138426583Y-140469736D01*
X138468066Y-140465498D01*
X138583910Y-140465498D01*
X138583910Y-140339542D01*
X138372390Y-140136869D01*
X138731189Y-140136869D01*
X138731189Y-139998328D01*
X138199887Y-139998328D01*
X138199887Y-140131813D01*
X138411408Y-140334541D01*
X138356915Y-140346039D01*
X138310438Y-140363997D01*
X138270780Y-140388054D01*
X138237037Y-140418292D01*
X138209709Y-140454298D01*
X138189962Y-140495305D01*
X138177694Y-140542258D01*
X138173399Y-140596400D01*
X138173399Y-140665697D01*
X138178774Y-140725588D01*
X138194085Y-140776736D01*
X138218808Y-140820808D01*
X138253358Y-140858973D01*
X138295065Y-140889067D01*
X138343985Y-140911183D01*
X138401492Y-140925139D01*
X138469330Y-140930084D01*
G37*
G36*
X137705186Y-140930084D02*
G01*
X137739140Y-140926284D01*
X137767028Y-140915524D01*
X137790201Y-140897991D01*
X137807794Y-140874845D01*
X137818525Y-140847347D01*
X137822294Y-140814240D01*
X137818541Y-140781151D01*
X137807820Y-140753433D01*
X137790201Y-140729884D01*
X137766979Y-140711963D01*
X137739092Y-140700998D01*
X137705186Y-140697131D01*
X137671317Y-140700996D01*
X137643446Y-140711961D01*
X137620226Y-140729884D01*
X137602606Y-140753433D01*
X137591885Y-140781151D01*
X137588132Y-140814240D01*
X137591901Y-140847347D01*
X137602632Y-140874845D01*
X137620226Y-140897991D01*
X137643397Y-140915526D01*
X137671268Y-140926285D01*
X137705186Y-140930084D01*
G37*
G36*
X136954945Y-140930084D02*
G01*
X137022092Y-140925156D01*
X137079190Y-140911229D01*
X137127934Y-140889116D01*
X137169653Y-140858973D01*
X137204176Y-140820812D01*
X137228883Y-140776741D01*
X137244185Y-140725592D01*
X137249557Y-140665697D01*
X137092167Y-140665697D01*
X137087800Y-140702700D01*
X137075405Y-140733040D01*
X137055072Y-140758241D01*
X137028379Y-140776927D01*
X136995186Y-140788653D01*
X136953681Y-140792862D01*
X136912236Y-140788625D01*
X136879526Y-140776881D01*
X136853609Y-140758241D01*
X136834170Y-140733048D01*
X136822063Y-140701551D01*
X136817723Y-140661905D01*
X136817723Y-140601455D01*
X136822001Y-140561762D01*
X136833919Y-140530266D01*
X136853004Y-140505120D01*
X136878519Y-140486505D01*
X136910984Y-140474751D01*
X136952417Y-140470498D01*
X137218123Y-140470498D01*
X137218123Y-139998328D01*
X136694295Y-139998328D01*
X136694295Y-140140606D01*
X137069525Y-140140606D01*
X137068261Y-140332013D01*
X136944888Y-140332013D01*
X136876855Y-140337009D01*
X136820428Y-140350975D01*
X136773555Y-140372901D01*
X136734632Y-140402520D01*
X136703069Y-140439968D01*
X136680027Y-140484566D01*
X136665500Y-140537750D01*
X136660333Y-140601455D01*
X136660333Y-140661905D01*
X136665670Y-140723235D01*
X136680826Y-140775343D01*
X136705181Y-140819957D01*
X136739028Y-140858313D01*
X136780156Y-140888619D01*
X136828811Y-140910939D01*
X136886453Y-140925064D01*
X136954945Y-140930084D01*
G37*
G36*
X136513165Y-140917500D02*
G01*
X136513165Y-140224961D01*
X136382208Y-140224961D01*
X136382208Y-140325693D01*
X136378471Y-140325693D01*
X136372638Y-140293466D01*
X136360858Y-140266535D01*
X136343190Y-140243866D01*
X136320542Y-140226462D01*
X136294457Y-140216002D01*
X136263890Y-140212377D01*
X136233966Y-140215761D01*
X136207807Y-140225596D01*
X136184536Y-140241997D01*
X136165475Y-140263464D01*
X136150762Y-140289807D01*
X136140462Y-140321956D01*
X136133831Y-140289797D01*
X136121437Y-140263524D01*
X136103368Y-140241997D01*
X136080421Y-140225736D01*
X136053683Y-140215835D01*
X136022090Y-140212377D01*
X135982439Y-140217926D01*
X135948096Y-140234208D01*
X135917621Y-140262110D01*
X135895047Y-140297344D01*
X135881034Y-140339365D01*
X135876075Y-140389935D01*
X135876075Y-140917500D01*
X136014561Y-140917500D01*
X136014561Y-140401256D01*
X136018823Y-140369811D01*
X136030333Y-140347730D01*
X136048933Y-140333288D01*
X136075011Y-140328221D01*
X136099485Y-140332652D01*
X136116301Y-140344991D01*
X136127338Y-140366450D01*
X136131669Y-140401256D01*
X136131669Y-140917500D01*
X136257571Y-140917500D01*
X136257571Y-140401256D01*
X136261522Y-140369701D01*
X136272079Y-140347730D01*
X136289472Y-140333272D01*
X136314229Y-140328221D01*
X136340693Y-140332792D01*
X136358614Y-140345364D01*
X136370184Y-140366855D01*
X136374679Y-140401256D01*
X136374679Y-140917500D01*
X136513165Y-140917500D01*
G37*
G36*
X135757868Y-140917500D02*
G01*
X135757868Y-140224961D01*
X135626911Y-140224961D01*
X135626911Y-140325693D01*
X135623174Y-140325693D01*
X135617341Y-140293466D01*
X135605561Y-140266535D01*
X135587893Y-140243866D01*
X135565246Y-140226462D01*
X135539160Y-140216002D01*
X135508594Y-140212377D01*
X135478669Y-140215761D01*
X135452510Y-140225596D01*
X135429239Y-140241997D01*
X135410179Y-140263464D01*
X135395466Y-140289807D01*
X135385166Y-140321956D01*
X135378535Y-140289797D01*
X135366141Y-140263524D01*
X135348071Y-140241997D01*
X135325124Y-140225736D01*
X135298386Y-140215835D01*
X135266793Y-140212377D01*
X135227143Y-140217926D01*
X135192799Y-140234208D01*
X135162325Y-140262110D01*
X135139751Y-140297344D01*
X135125737Y-140339365D01*
X135120779Y-140389935D01*
X135120779Y-140917500D01*
X135259265Y-140917500D01*
X135259265Y-140401256D01*
X135263526Y-140369811D01*
X135275037Y-140347730D01*
X135293636Y-140333288D01*
X135319715Y-140328221D01*
X135344188Y-140332652D01*
X135361005Y-140344991D01*
X135372041Y-140366450D01*
X135376373Y-140401256D01*
X135376373Y-140917500D01*
X135502274Y-140917500D01*
X135502274Y-140401256D01*
X135506225Y-140369701D01*
X135516782Y-140347730D01*
X135534176Y-140333272D01*
X135558932Y-140328221D01*
X135585396Y-140332792D01*
X135603318Y-140345364D01*
X135614887Y-140366855D01*
X135619382Y-140401256D01*
X135619382Y-140917500D01*
X135757868Y-140917500D01*
G37*
G36*
X140251894Y-142429500D02*
G01*
X140251894Y-141510328D01*
X140094503Y-141510328D01*
X140094503Y-141883031D01*
X139847702Y-141883031D01*
X139847702Y-141510328D01*
X139690312Y-141510328D01*
X139690312Y-142429500D01*
X139847702Y-142429500D01*
X139847702Y-142025308D01*
X140094503Y-142025308D01*
X140094503Y-142429500D01*
X140251894Y-142429500D01*
G37*
G36*
X139272470Y-141728400D02*
G01*
X139323318Y-141739914D01*
X139368168Y-141758393D01*
X139408781Y-141784423D01*
X139442334Y-141816372D01*
X139469504Y-141854729D01*
X139489054Y-141897607D01*
X139501167Y-141946120D01*
X139505390Y-142001403D01*
X139505390Y-142165058D01*
X139501166Y-142220378D01*
X139489053Y-142268908D01*
X139469504Y-142311787D01*
X139442334Y-142350143D01*
X139408781Y-142382093D01*
X139368168Y-142408122D01*
X139323321Y-142426571D01*
X139272473Y-142438066D01*
X139214515Y-142442084D01*
X139142324Y-142435758D01*
X139080449Y-142417721D01*
X139026955Y-142388613D01*
X138991850Y-142359130D01*
X138965063Y-142325843D01*
X138945779Y-142288295D01*
X138933752Y-142245676D01*
X139089878Y-142245676D01*
X139097052Y-142265437D01*
X139110317Y-142281832D01*
X139130819Y-142295410D01*
X139167772Y-142307881D01*
X139214515Y-142312391D01*
X139257624Y-142307979D01*
X139291359Y-142295791D01*
X139317829Y-142276506D01*
X139337277Y-142250313D01*
X139349743Y-142215709D01*
X139354319Y-142170114D01*
X139354319Y-142122248D01*
X138926223Y-142122248D01*
X138926223Y-141996347D01*
X138926322Y-141995083D01*
X139077293Y-141995083D01*
X139077293Y-142019043D01*
X139354319Y-142020307D01*
X139354319Y-141996347D01*
X139349940Y-141949734D01*
X139337910Y-141913353D01*
X139319093Y-141884954D01*
X139293032Y-141863624D01*
X139259000Y-141850172D01*
X139214515Y-141845277D01*
X139171727Y-141850043D01*
X139138491Y-141863232D01*
X139112574Y-141884295D01*
X139093750Y-141912326D01*
X139081692Y-141948481D01*
X139077293Y-141995083D01*
X138926322Y-141995083D01*
X138930425Y-141942774D01*
X138942515Y-141895506D01*
X138962108Y-141853465D01*
X138989167Y-141815860D01*
X139022521Y-141784314D01*
X139062840Y-141758393D01*
X139107253Y-141739894D01*
X139157452Y-141728391D01*
X139214515Y-141724377D01*
X139272470Y-141728400D01*
G37*
G36*
X138520616Y-141728462D02*
G01*
X138573554Y-141739946D01*
X138618372Y-141758007D01*
X138656340Y-141782299D01*
X138689214Y-141813872D01*
X138712839Y-141849078D01*
X138728071Y-141888575D01*
X138734981Y-141933424D01*
X138583910Y-141933424D01*
X138578095Y-141909155D01*
X138566111Y-141889314D01*
X138547420Y-141872974D01*
X138510982Y-141857397D01*
X138459218Y-141851542D01*
X138411511Y-141856574D01*
X138378451Y-141869816D01*
X138356044Y-141889954D01*
X138342183Y-141917796D01*
X138337109Y-141956065D01*
X138337109Y-142005195D01*
X138505820Y-142005195D01*
X138566391Y-142009412D01*
X138617237Y-142021246D01*
X138659991Y-142039864D01*
X138695963Y-142064985D01*
X138726072Y-142097191D01*
X138747454Y-142133998D01*
X138760610Y-142176322D01*
X138765206Y-142225508D01*
X138761123Y-142273160D01*
X138749440Y-142314450D01*
X138730534Y-142350546D01*
X138704151Y-142382293D01*
X138671975Y-142407734D01*
X138634224Y-142426294D01*
X138589813Y-142437956D01*
X138537309Y-142442084D01*
X138480469Y-142437453D01*
X138434140Y-142424566D01*
X138396295Y-142404330D01*
X138365158Y-142375813D01*
X138344403Y-142341442D01*
X138333317Y-142299807D01*
X138333317Y-142429500D01*
X138179719Y-142429500D01*
X138179719Y-142189018D01*
X138337109Y-142189018D01*
X138341763Y-142224919D01*
X138355109Y-142254650D01*
X138377391Y-142279693D01*
X138406056Y-142297911D01*
X138441937Y-142309479D01*
X138486970Y-142313655D01*
X138525428Y-142310114D01*
X138555214Y-142300425D01*
X138578250Y-142285353D01*
X138595966Y-142264604D01*
X138606623Y-142240015D01*
X138610343Y-142210395D01*
X138606849Y-142181464D01*
X138596805Y-142157069D01*
X138580118Y-142136152D01*
X138558353Y-142120459D01*
X138531549Y-142110682D01*
X138498291Y-142107191D01*
X138337109Y-142107191D01*
X138337109Y-142189018D01*
X138179719Y-142189018D01*
X138179719Y-141959857D01*
X138184687Y-141904832D01*
X138198751Y-141858574D01*
X138221325Y-141819387D01*
X138252754Y-141786091D01*
X138290559Y-141760379D01*
X138336262Y-141741141D01*
X138391434Y-141728803D01*
X138458009Y-141724377D01*
X138520616Y-141728462D01*
G37*
G36*
X137581812Y-141704263D02*
G01*
X137576757Y-141862917D01*
X137593918Y-141821674D01*
X137617158Y-141788044D01*
X137646659Y-141760921D01*
X137681439Y-141740973D01*
X137721515Y-141728677D01*
X137768164Y-141724377D01*
X137817853Y-141729102D01*
X137860891Y-141742673D01*
X137898600Y-141764824D01*
X137931873Y-141796147D01*
X137957888Y-141833445D01*
X137977080Y-141877318D01*
X137989223Y-141929010D01*
X137993533Y-141990082D01*
X137993533Y-142177697D01*
X137989201Y-142238005D01*
X137976969Y-142289256D01*
X137957581Y-142332960D01*
X137931214Y-142370313D01*
X137897643Y-142401721D01*
X137859912Y-142423867D01*
X137817173Y-142437390D01*
X137768164Y-142442084D01*
X137720671Y-142437751D01*
X137680438Y-142425439D01*
X137646054Y-142405594D01*
X137617026Y-142378451D01*
X137594405Y-142344831D01*
X137578021Y-142303598D01*
X137578021Y-142429500D01*
X137424422Y-142429500D01*
X137424422Y-142000139D01*
X137581812Y-142000139D01*
X137581812Y-142166322D01*
X137585957Y-142209636D01*
X137597341Y-142243365D01*
X137615170Y-142269636D01*
X137639614Y-142289442D01*
X137670264Y-142301727D01*
X137708977Y-142306126D01*
X137747990Y-142302110D01*
X137778633Y-142290997D01*
X137802785Y-142273373D01*
X137820414Y-142249390D01*
X137831881Y-142216738D01*
X137836142Y-142172642D01*
X137836142Y-141993819D01*
X137831879Y-141949723D01*
X137820411Y-141917092D01*
X137802785Y-141893142D01*
X137778633Y-141875519D01*
X137747990Y-141864405D01*
X137708977Y-141860389D01*
X137670269Y-141864794D01*
X137639618Y-141877096D01*
X137615170Y-141896934D01*
X137597341Y-141923171D01*
X137585957Y-141956863D01*
X137581812Y-142000139D01*
X137424422Y-142000139D01*
X137424422Y-141510328D01*
X137581812Y-141510328D01*
X137581812Y-141704263D01*
G37*
G36*
X136934417Y-141728779D02*
G01*
X136974667Y-141741301D01*
X137009130Y-141761526D01*
X137038146Y-141789028D01*
X137060748Y-141822880D01*
X137077109Y-141864181D01*
X137077109Y-141736961D01*
X137230707Y-141736961D01*
X137230707Y-142656132D01*
X137073317Y-142656132D01*
X137073317Y-142462252D01*
X137078318Y-142298543D01*
X137061845Y-142341448D01*
X137039023Y-142376299D01*
X137009735Y-142404330D01*
X136974852Y-142424924D01*
X136934387Y-142437630D01*
X136886966Y-142442084D01*
X136837354Y-142437291D01*
X136794356Y-142423512D01*
X136756637Y-142400983D01*
X136723311Y-142369049D01*
X136697130Y-142331108D01*
X136677928Y-142287146D01*
X136665857Y-142236053D01*
X136661597Y-142176433D01*
X136661597Y-141993819D01*
X136818987Y-141993819D01*
X136818987Y-142172642D01*
X136823249Y-142216738D01*
X136834716Y-142249390D01*
X136852344Y-142273373D01*
X136876497Y-142290997D01*
X136907139Y-142302110D01*
X136946152Y-142306126D01*
X136984830Y-142301730D01*
X137015484Y-142289447D01*
X137039960Y-142269636D01*
X137057788Y-142243365D01*
X137069173Y-142209636D01*
X137073317Y-142166322D01*
X137073317Y-142000139D01*
X137069173Y-141956863D01*
X137057788Y-141923171D01*
X137039960Y-141896934D01*
X137015479Y-141877091D01*
X136984825Y-141864792D01*
X136946152Y-141860389D01*
X136907139Y-141864405D01*
X136876497Y-141875519D01*
X136852344Y-141893142D01*
X136834718Y-141917092D01*
X136823250Y-141949723D01*
X136818987Y-141993819D01*
X136661597Y-141993819D01*
X136661597Y-141988818D01*
X136664954Y-141936528D01*
X136674562Y-141890449D01*
X136689954Y-141849673D01*
X136711758Y-141812231D01*
X136738114Y-141781645D01*
X136769253Y-141757129D01*
X136804479Y-141739126D01*
X136843425Y-141728157D01*
X136886966Y-141724377D01*
X136934417Y-141728779D01*
G37*
G36*
X136475411Y-142429500D02*
G01*
X136475411Y-141510328D01*
X136318021Y-141510328D01*
X136318021Y-141736961D01*
X136321812Y-141865390D01*
X136309049Y-141824183D01*
X136288577Y-141790192D01*
X136260098Y-141762185D01*
X136225550Y-141741679D01*
X136184535Y-141728899D01*
X136135461Y-141724377D01*
X136085533Y-141728910D01*
X136042534Y-141741876D01*
X136005135Y-141762905D01*
X135972411Y-141792410D01*
X135946484Y-141827920D01*
X135927486Y-141869377D01*
X135915530Y-141917913D01*
X135911301Y-141974970D01*
X135911301Y-142429500D01*
X136068691Y-142429500D01*
X136068691Y-141993819D01*
X136072831Y-141952297D01*
X136084211Y-141920061D01*
X136102104Y-141895011D01*
X136126319Y-141876122D01*
X136155813Y-141864507D01*
X136192119Y-141860389D01*
X136230041Y-141864633D01*
X136260309Y-141876510D01*
X136284663Y-141895670D01*
X136302495Y-141921109D01*
X136313874Y-141953950D01*
X136318021Y-141996347D01*
X136318021Y-142429500D01*
X136475411Y-142429500D01*
G37*
G36*
X135505597Y-141730766D02*
G01*
X135561861Y-141745262D01*
X135609839Y-141768335D01*
X135650871Y-141799939D01*
X135684315Y-141839433D01*
X135708493Y-141885452D01*
X135723585Y-141939280D01*
X135728907Y-142002667D01*
X135728907Y-142163849D01*
X135723614Y-142226541D01*
X135708566Y-142280075D01*
X135684392Y-142326125D01*
X135650871Y-142365917D01*
X135609801Y-142397802D01*
X135561809Y-142421058D01*
X135505558Y-142435659D01*
X135439296Y-142440820D01*
X135373062Y-142435659D01*
X135316839Y-142421058D01*
X135268875Y-142397803D01*
X135227830Y-142365917D01*
X135194283Y-142326122D01*
X135170093Y-142280070D01*
X135155036Y-142226537D01*
X135149740Y-142163849D01*
X135149740Y-142002667D01*
X135150165Y-141997611D01*
X135307130Y-141997611D01*
X135307130Y-142168850D01*
X135311427Y-142211170D01*
X135323217Y-142243804D01*
X135341751Y-142268977D01*
X135366871Y-142287624D01*
X135398731Y-142299361D01*
X135439296Y-142303598D01*
X135479897Y-142299359D01*
X135511774Y-142287622D01*
X135536895Y-142268977D01*
X135555429Y-142243804D01*
X135567220Y-142211170D01*
X135571517Y-142168850D01*
X135571517Y-141997611D01*
X135567221Y-141955328D01*
X135555432Y-141922710D01*
X135536895Y-141897539D01*
X135511774Y-141878894D01*
X135479897Y-141867156D01*
X135439296Y-141862917D01*
X135398731Y-141867155D01*
X135366871Y-141878891D01*
X135341751Y-141897539D01*
X135323215Y-141922710D01*
X135311425Y-141955328D01*
X135307130Y-141997611D01*
X135150165Y-141997611D01*
X135155065Y-141939283D01*
X135170167Y-141885457D01*
X135194360Y-141839436D01*
X135227830Y-141799939D01*
X135268836Y-141768334D01*
X135316787Y-141745262D01*
X135373024Y-141730766D01*
X135439296Y-141725640D01*
X135505597Y-141730766D01*
G37*
G36*
X134964817Y-142429500D02*
G01*
X134964817Y-141736961D01*
X134811219Y-141736961D01*
X134811219Y-141866654D01*
X134798477Y-141825418D01*
X134778009Y-141791192D01*
X134749505Y-141762790D01*
X134714914Y-141741937D01*
X134673901Y-141728963D01*
X134624868Y-141724377D01*
X134574940Y-141728910D01*
X134531941Y-141741876D01*
X134494542Y-141762905D01*
X134461818Y-141792410D01*
X134435891Y-141827920D01*
X134416893Y-141869377D01*
X134404937Y-141917913D01*
X134400708Y-141974970D01*
X134400708Y-142429500D01*
X134558098Y-142429500D01*
X134558098Y-141993819D01*
X134562238Y-141952297D01*
X134573618Y-141920061D01*
X134591511Y-141895011D01*
X134615726Y-141876122D01*
X134645220Y-141864507D01*
X134681526Y-141860389D01*
X134719447Y-141864633D01*
X134749716Y-141876510D01*
X134774070Y-141895670D01*
X134791901Y-141921109D01*
X134803280Y-141953950D01*
X134807427Y-141996347D01*
X134807427Y-142429500D01*
X134964817Y-142429500D01*
G37*
G36*
X133985394Y-141728400D02*
G01*
X134036242Y-141739914D01*
X134081092Y-141758393D01*
X134121705Y-141784423D01*
X134155258Y-141816372D01*
X134182428Y-141854729D01*
X134201978Y-141897607D01*
X134214091Y-141946120D01*
X134218314Y-142001403D01*
X134218314Y-142165058D01*
X134214090Y-142220378D01*
X134201977Y-142268908D01*
X134182428Y-142311787D01*
X134155258Y-142350143D01*
X134121705Y-142382093D01*
X134081092Y-142408122D01*
X134036245Y-142426571D01*
X133985397Y-142438066D01*
X133927439Y-142442084D01*
X133855248Y-142435758D01*
X133793373Y-142417721D01*
X133739879Y-142388613D01*
X133704773Y-142359130D01*
X133677987Y-142325843D01*
X133658703Y-142288295D01*
X133646675Y-142245676D01*
X133802802Y-142245676D01*
X133809976Y-142265437D01*
X133823241Y-142281832D01*
X133843743Y-142295410D01*
X133880696Y-142307881D01*
X133927439Y-142312391D01*
X133970548Y-142307979D01*
X134004282Y-142295791D01*
X134030753Y-142276506D01*
X134050201Y-142250313D01*
X134062667Y-142215709D01*
X134067243Y-142170114D01*
X134067243Y-142122248D01*
X133639147Y-142122248D01*
X133639147Y-141996347D01*
X133639246Y-141995083D01*
X133790217Y-141995083D01*
X133790217Y-142019043D01*
X134067243Y-142020307D01*
X134067243Y-141996347D01*
X134062864Y-141949734D01*
X134050834Y-141913353D01*
X134032017Y-141884954D01*
X134005956Y-141863624D01*
X133971923Y-141850172D01*
X133927439Y-141845277D01*
X133884651Y-141850043D01*
X133851415Y-141863232D01*
X133825498Y-141884295D01*
X133806674Y-141912326D01*
X133794616Y-141948481D01*
X133790217Y-141995083D01*
X133639246Y-141995083D01*
X133643349Y-141942774D01*
X133655439Y-141895506D01*
X133675032Y-141853465D01*
X133702091Y-141815860D01*
X133735445Y-141784314D01*
X133775764Y-141758393D01*
X133820177Y-141739894D01*
X133870376Y-141728391D01*
X133927439Y-141724377D01*
X133985394Y-141728400D01*
G37*
G36*
X148943544Y-88926467D02*
G01*
X148988346Y-88943905D01*
X149023063Y-88971618D01*
X149048180Y-89008625D01*
X149064322Y-89056814D01*
X149070232Y-89119446D01*
X149070232Y-89371322D01*
X149064322Y-89434018D01*
X149048180Y-89482269D01*
X149023063Y-89519333D01*
X148988353Y-89546993D01*
X148943552Y-89564403D01*
X148885585Y-89570716D01*
X148830240Y-89564716D01*
X148786717Y-89548055D01*
X148752320Y-89521440D01*
X148726975Y-89485774D01*
X148710894Y-89440173D01*
X148705059Y-89381763D01*
X148705059Y-89109005D01*
X148710965Y-89049238D01*
X148727103Y-89003446D01*
X148752320Y-88968413D01*
X148786638Y-88942385D01*
X148830158Y-88926040D01*
X148885585Y-88920144D01*
X148943544Y-88926467D01*
G37*
G36*
X147698825Y-88887786D02*
G01*
X147749015Y-88908365D01*
X147787316Y-88941119D01*
X147814786Y-88984446D01*
X147832332Y-89039356D01*
X147838699Y-89109005D01*
X147838699Y-89136299D01*
X147431577Y-89132086D01*
X147431577Y-89104792D01*
X147437771Y-89035062D01*
X147454700Y-88980971D01*
X147480944Y-88939104D01*
X147517759Y-88907612D01*
X147567085Y-88887633D01*
X147632985Y-88880302D01*
X147698825Y-88887786D01*
G37*
G36*
X152846715Y-88991494D02*
G01*
X152638987Y-88991494D01*
X152574357Y-88984259D01*
X152521732Y-88963843D01*
X152478428Y-88930677D01*
X152445409Y-88886953D01*
X152425520Y-88836543D01*
X152418619Y-88777445D01*
X152425522Y-88718351D01*
X152445412Y-88667973D01*
X152478428Y-88624305D01*
X152521739Y-88591086D01*
X152574364Y-88570641D01*
X152638987Y-88563397D01*
X152846715Y-88563397D01*
X152846715Y-88991494D01*
G37*
G36*
X153328181Y-90366888D02*
G01*
X145659776Y-90366888D01*
X145659776Y-89088031D01*
X145826443Y-89088031D01*
X145826443Y-89203435D01*
X146141242Y-89203435D01*
X146141242Y-89109005D01*
X146147183Y-89050741D01*
X146163583Y-89005199D01*
X146189510Y-88969512D01*
X146224628Y-88942897D01*
X146269193Y-88926178D01*
X146325981Y-88920144D01*
X146382205Y-88926806D01*
X146426757Y-88945463D01*
X146462360Y-88975740D01*
X146488016Y-89015533D01*
X146504565Y-89067221D01*
X146510628Y-89134193D01*
X146510628Y-89822500D01*
X146825427Y-89822500D01*
X146825427Y-89109005D01*
X147131524Y-89109005D01*
X147131524Y-89323053D01*
X147838699Y-89323053D01*
X147838699Y-89381763D01*
X147832037Y-89452763D01*
X147814287Y-89504332D01*
X147787316Y-89541315D01*
X147749874Y-89568010D01*
X147699738Y-89585299D01*
X147632985Y-89591690D01*
X147568513Y-89586165D01*
X147515566Y-89570716D01*
X147474714Y-89543378D01*
X147456764Y-89507701D01*
X147148285Y-89507701D01*
X147171240Y-89579641D01*
X147206056Y-89643485D01*
X147253224Y-89700432D01*
X147314065Y-89751150D01*
X147406116Y-89801565D01*
X147511392Y-89832631D01*
X147632985Y-89843474D01*
X147733808Y-89836646D01*
X147822394Y-89817110D01*
X147900614Y-89785771D01*
X147971795Y-89741571D01*
X148030084Y-89687932D01*
X148076836Y-89624205D01*
X148110680Y-89552642D01*
X148131519Y-89472433D01*
X148138751Y-89381763D01*
X148138751Y-89109005D01*
X148137910Y-89098472D01*
X148390352Y-89098472D01*
X148390352Y-89109005D01*
X148390352Y-89392296D01*
X148395911Y-89479386D01*
X148411892Y-89556933D01*
X148437613Y-89626311D01*
X148473883Y-89690325D01*
X148517503Y-89743046D01*
X148568771Y-89785771D01*
X148627034Y-89817537D01*
X148691543Y-89836830D01*
X148763860Y-89843474D01*
X148837426Y-89836529D01*
X148901880Y-89816494D01*
X148959041Y-89783665D01*
X149007984Y-89739335D01*
X149047777Y-89684303D01*
X149078659Y-89616878D01*
X149070232Y-89885423D01*
X149070232Y-90200221D01*
X149385031Y-90200221D01*
X149385031Y-88941119D01*
X149602926Y-88941119D01*
X149602926Y-89822500D01*
X149873669Y-89822500D01*
X149873669Y-88976748D01*
X149879713Y-88928961D01*
X149895163Y-88899372D01*
X149918832Y-88882260D01*
X149953445Y-88876089D01*
X149985860Y-88882099D01*
X150008300Y-88898944D01*
X150023150Y-88928498D01*
X150029008Y-88976748D01*
X150029008Y-89822500D01*
X150276578Y-89822500D01*
X150276578Y-88976748D01*
X150282436Y-88928498D01*
X150297286Y-88898944D01*
X150319726Y-88882099D01*
X150352141Y-88876089D01*
X150386754Y-88882260D01*
X150410423Y-88899372D01*
X150425873Y-88928961D01*
X150431917Y-88976748D01*
X150431917Y-89822500D01*
X150702568Y-89822500D01*
X150702568Y-89373428D01*
X150916342Y-89373428D01*
X150925421Y-89482346D01*
X150951090Y-89574239D01*
X150992074Y-89652237D01*
X151048599Y-89718635D01*
X151117944Y-89771503D01*
X151199808Y-89810294D01*
X151296633Y-89834781D01*
X151411575Y-89843474D01*
X151527680Y-89834675D01*
X151624997Y-89809939D01*
X151706833Y-89770837D01*
X151775741Y-89717628D01*
X151831880Y-89650760D01*
X151872527Y-89572701D01*
X151897933Y-89481253D01*
X151906899Y-89373428D01*
X151906899Y-88777445D01*
X152103820Y-88777445D01*
X152111620Y-88872073D01*
X152134189Y-88956456D01*
X152171048Y-89032435D01*
X152221428Y-89100175D01*
X152283260Y-89156930D01*
X152357802Y-89203435D01*
X152439574Y-89236428D01*
X152532619Y-89257036D01*
X152638987Y-89264252D01*
X152846715Y-89264252D01*
X152846715Y-89822500D01*
X153161514Y-89822500D01*
X153161514Y-88290547D01*
X152638987Y-88290547D01*
X152532622Y-88297755D01*
X152439187Y-88318377D01*
X152356703Y-88351455D01*
X152281509Y-88398000D01*
X152219724Y-88454442D01*
X152169949Y-88521448D01*
X152133824Y-88596692D01*
X152111559Y-88681359D01*
X152103820Y-88777445D01*
X151906899Y-88777445D01*
X151906899Y-88668269D01*
X151592101Y-88668269D01*
X151592101Y-89371322D01*
X151583630Y-89448351D01*
X151561196Y-89502188D01*
X151526717Y-89539102D01*
X151478480Y-89562200D01*
X151411575Y-89570716D01*
X151356461Y-89564503D01*
X151312962Y-89547187D01*
X151278401Y-89519333D01*
X151253232Y-89482262D01*
X151237060Y-89434010D01*
X151231140Y-89371322D01*
X151231140Y-88668269D01*
X150916342Y-88668269D01*
X150916342Y-89373428D01*
X150702568Y-89373428D01*
X150702568Y-88668269D01*
X150444465Y-88668269D01*
X150444465Y-88846688D01*
X150440252Y-88846688D01*
X150430539Y-88790077D01*
X150410892Y-88742770D01*
X150381542Y-88702982D01*
X150343514Y-88672180D01*
X150299359Y-88653706D01*
X150247178Y-88647295D01*
X150199000Y-88653267D01*
X150155771Y-88670886D01*
X150116111Y-88700875D01*
X150083816Y-88739389D01*
X150059653Y-88785413D01*
X150043662Y-88840368D01*
X150033621Y-88783989D01*
X150013271Y-88737804D01*
X149982846Y-88699776D01*
X149943757Y-88670805D01*
X149898844Y-88653348D01*
X149846375Y-88647295D01*
X149781565Y-88656364D01*
X149724608Y-88683122D01*
X149673268Y-88729177D01*
X149635050Y-88787297D01*
X149611328Y-88856932D01*
X149602926Y-88941119D01*
X149385031Y-88941119D01*
X149385031Y-88668269D01*
X149080765Y-88668269D01*
X149080765Y-88878196D01*
X149049811Y-88809283D01*
X149009998Y-88753216D01*
X148961147Y-88708203D01*
X148903881Y-88674824D01*
X148838768Y-88654397D01*
X148763860Y-88647295D01*
X148691543Y-88653938D01*
X148627034Y-88673231D01*
X148568771Y-88704997D01*
X148517440Y-88747677D01*
X148473827Y-88800085D01*
X148437613Y-88863449D01*
X148411983Y-88932135D01*
X148395958Y-89009957D01*
X148390352Y-89098472D01*
X148137910Y-89098472D01*
X148131520Y-89018396D01*
X148110683Y-88938217D01*
X148076836Y-88866655D01*
X148030078Y-88802871D01*
X147971788Y-88749203D01*
X147900614Y-88704997D01*
X147822394Y-88673659D01*
X147733808Y-88654122D01*
X147632985Y-88647295D01*
X147532227Y-88654156D01*
X147444420Y-88673721D01*
X147367554Y-88704997D01*
X147297671Y-88749088D01*
X147240041Y-88802740D01*
X147193440Y-88866655D01*
X147159592Y-88938217D01*
X147138755Y-89018396D01*
X147131860Y-89104792D01*
X147131524Y-89109005D01*
X146825427Y-89109005D01*
X146825427Y-88668269D01*
X146521070Y-88668269D01*
X146521070Y-88886530D01*
X146497150Y-88816606D01*
X146460632Y-88758855D01*
X146410977Y-88711317D01*
X146351344Y-88676535D01*
X146281183Y-88654919D01*
X146197937Y-88647295D01*
X146112683Y-88655194D01*
X146040340Y-88677665D01*
X145978382Y-88713959D01*
X145925087Y-88764806D01*
X145883758Y-88825667D01*
X145853023Y-88898231D01*
X145833434Y-88984756D01*
X145826443Y-89088031D01*
X145659776Y-89088031D01*
X145659776Y-88123880D01*
X153328181Y-88123880D01*
X153328181Y-90366888D01*
G37*
D12*
G36*
X153269942Y-93595000D02*
G01*
X153120282Y-93595000D01*
X153120282Y-93175268D01*
X152973370Y-93175268D01*
X152783105Y-93595000D01*
X152617997Y-93595000D01*
X152822306Y-93157133D01*
X152768126Y-93131470D01*
X152722305Y-93096260D01*
X152683820Y-93050765D01*
X152655399Y-92998291D01*
X152638045Y-92939563D01*
X152632295Y-92875887D01*
X152785914Y-92875887D01*
X152791254Y-92924403D01*
X152806299Y-92963848D01*
X152830671Y-92996238D01*
X152863026Y-93020606D01*
X152902467Y-93035653D01*
X152951022Y-93040996D01*
X153120282Y-93040996D01*
X153120282Y-92708032D01*
X152951022Y-92708032D01*
X152903448Y-92713399D01*
X152864194Y-92728633D01*
X152831404Y-92753522D01*
X152806645Y-92786371D01*
X152791348Y-92826468D01*
X152785914Y-92875887D01*
X152632295Y-92875887D01*
X152632041Y-92873079D01*
X152636724Y-92813560D01*
X152650168Y-92761300D01*
X152671914Y-92715054D01*
X152701963Y-92673743D01*
X152739016Y-92639156D01*
X152783838Y-92610823D01*
X152833135Y-92590605D01*
X152888491Y-92578064D01*
X152951022Y-92573698D01*
X153269942Y-92573698D01*
X153269942Y-93595000D01*
G37*
G36*
X152432128Y-93595000D02*
G01*
X152281064Y-93595000D01*
X152281064Y-93189312D01*
X152097760Y-93189312D01*
X152032456Y-93184819D01*
X151975558Y-93172007D01*
X151925752Y-93151516D01*
X151880544Y-93122616D01*
X151843009Y-93087115D01*
X151812423Y-93044476D01*
X151790286Y-92996791D01*
X151776590Y-92942891D01*
X151771818Y-92881505D01*
X151925691Y-92881505D01*
X151931253Y-92931815D01*
X151946989Y-92973120D01*
X151972585Y-93007412D01*
X152006479Y-93033376D01*
X152047518Y-93049332D01*
X152097760Y-93054979D01*
X152281064Y-93054979D01*
X152281064Y-92708032D01*
X152097760Y-92708032D01*
X152047518Y-92713678D01*
X152006479Y-92729634D01*
X151972585Y-92755598D01*
X151946989Y-92789890D01*
X151931253Y-92831195D01*
X151925691Y-92881505D01*
X151771818Y-92881505D01*
X151776510Y-92820080D01*
X151789968Y-92766176D01*
X151811690Y-92718534D01*
X151841924Y-92675931D01*
X151879434Y-92640427D01*
X151925019Y-92611495D01*
X151975296Y-92590981D01*
X152032455Y-92578178D01*
X152097760Y-92573698D01*
X152432128Y-92573698D01*
X152432128Y-93595000D01*
G37*
G36*
X151598527Y-93595000D02*
G01*
X151598527Y-93457918D01*
X151244558Y-93087158D01*
X151191903Y-93023592D01*
X151159257Y-92969677D01*
X151139028Y-92914733D01*
X151132634Y-92863309D01*
X151137839Y-92813718D01*
X151152474Y-92773353D01*
X151176048Y-92740211D01*
X151207651Y-92715067D01*
X151246562Y-92699564D01*
X151294934Y-92694049D01*
X151344198Y-92699691D01*
X151384318Y-92715633D01*
X151417360Y-92741615D01*
X151442071Y-92775831D01*
X151457398Y-92817568D01*
X151462850Y-92868927D01*
X151613915Y-92868927D01*
X151607628Y-92807516D01*
X151593247Y-92753582D01*
X151571233Y-92705956D01*
X151541099Y-92663206D01*
X151504027Y-92627461D01*
X151459309Y-92598183D01*
X151409937Y-92577209D01*
X151354587Y-92564228D01*
X151292125Y-92559715D01*
X151229595Y-92564098D01*
X151174737Y-92576639D01*
X151126345Y-92596779D01*
X151082463Y-92625056D01*
X151046104Y-92659631D01*
X151016558Y-92701010D01*
X150995190Y-92747254D01*
X150981965Y-92799540D01*
X150977357Y-92859096D01*
X150981425Y-92908702D01*
X150993976Y-92960262D01*
X151015825Y-93014434D01*
X151044864Y-93065302D01*
X151087134Y-93122342D01*
X151145274Y-93186503D01*
X151411071Y-93457918D01*
X150966183Y-93457918D01*
X150966183Y-93595000D01*
X151598527Y-93595000D01*
G37*
G36*
X150464141Y-93608982D02*
G01*
X150537285Y-93603485D01*
X150599013Y-93587991D01*
X150651301Y-93563435D01*
X150695684Y-93529970D01*
X150732069Y-93487831D01*
X150758272Y-93438960D01*
X150774577Y-93382034D01*
X150780314Y-93315219D01*
X150629189Y-93315219D01*
X150623849Y-93362754D01*
X150608816Y-93401235D01*
X150584431Y-93432700D01*
X150552155Y-93456186D01*
X150512304Y-93470822D01*
X150462737Y-93476053D01*
X150413170Y-93470822D01*
X150373319Y-93456186D01*
X150341043Y-93432700D01*
X150316623Y-93401231D01*
X150301570Y-93362749D01*
X150296225Y-93315219D01*
X150296225Y-93242435D01*
X150301638Y-93193013D01*
X150316755Y-93153676D01*
X150341043Y-93122145D01*
X150373324Y-93098624D01*
X150413175Y-93083968D01*
X150462737Y-93078731D01*
X150581622Y-93078731D01*
X150581622Y-92952824D01*
X150339578Y-92708032D01*
X150748135Y-92708032D01*
X150748135Y-92573698D01*
X150171722Y-92573698D01*
X150171722Y-92706627D01*
X150412362Y-92950076D01*
X150351149Y-92961035D01*
X150299005Y-92979929D01*
X150254490Y-93006312D01*
X150216540Y-93040324D01*
X150185876Y-93081038D01*
X150163724Y-93127308D01*
X150149971Y-93180180D01*
X150145160Y-93241031D01*
X150145160Y-93315219D01*
X150150976Y-93381944D01*
X150167518Y-93438839D01*
X150194144Y-93487742D01*
X150231195Y-93529970D01*
X150276223Y-93563479D01*
X150328995Y-93588036D01*
X150390998Y-93603505D01*
X150464141Y-93608982D01*
G37*
G36*
X149619305Y-93608982D02*
G01*
X149691682Y-93603525D01*
X149753231Y-93588088D01*
X149805807Y-93563535D01*
X149850848Y-93529970D01*
X149887899Y-93487742D01*
X149914525Y-93438839D01*
X149931066Y-93381944D01*
X149936882Y-93315219D01*
X149785757Y-93315219D01*
X149780350Y-93362703D01*
X149765107Y-93401185D01*
X149740328Y-93432700D01*
X149707603Y-93456214D01*
X149667483Y-93470839D01*
X149617901Y-93476053D01*
X149568334Y-93470822D01*
X149528483Y-93456186D01*
X149496207Y-93432700D01*
X149471954Y-93401174D01*
X149456857Y-93361838D01*
X149451450Y-93312411D01*
X149451450Y-93248053D01*
X149456663Y-93199448D01*
X149471279Y-93160270D01*
X149494803Y-93128435D01*
X149526247Y-93104510D01*
X149565156Y-93089654D01*
X149613688Y-93084349D01*
X149901894Y-93084349D01*
X149901894Y-92573698D01*
X149338121Y-92573698D01*
X149338121Y-92710840D01*
X149759196Y-92710840D01*
X149757791Y-92950076D01*
X149606727Y-92950076D01*
X149534123Y-92955540D01*
X149473616Y-92970856D01*
X149423062Y-92994993D01*
X149380802Y-93027745D01*
X149346727Y-93068872D01*
X149321754Y-93118113D01*
X149305956Y-93177112D01*
X149300324Y-93248053D01*
X149300324Y-93312411D01*
X149306115Y-93379928D01*
X149322567Y-93437419D01*
X149348998Y-93486741D01*
X149385687Y-93529237D01*
X149430396Y-93563003D01*
X149483122Y-93587786D01*
X149545423Y-93603430D01*
X149619305Y-93608982D01*
G37*
G36*
X148809328Y-93003318D02*
G01*
X148836751Y-93019319D01*
X148854822Y-93044645D01*
X148861237Y-93080136D01*
X148854787Y-93117024D01*
X148836751Y-93143150D01*
X148809273Y-93159667D01*
X148773065Y-93165498D01*
X148736910Y-93159670D01*
X148709440Y-93143150D01*
X148691404Y-93117024D01*
X148684954Y-93080136D01*
X148691369Y-93044645D01*
X148709440Y-93019319D01*
X148736855Y-93003315D01*
X148773065Y-92997643D01*
X148809328Y-93003318D01*
G37*
G36*
X148845233Y-92565390D02*
G01*
X148906575Y-92581458D01*
X148958994Y-92607083D01*
X149003936Y-92642269D01*
X149040716Y-92686108D01*
X149067153Y-92736409D01*
X149083550Y-92794430D01*
X149089298Y-92861905D01*
X149089298Y-93305389D01*
X149083527Y-93373655D01*
X149067092Y-93432151D01*
X149040650Y-93482662D01*
X149003936Y-93526489D01*
X148958998Y-93561647D01*
X148906581Y-93587253D01*
X148845237Y-93603311D01*
X148773065Y-93608982D01*
X148709622Y-93604504D01*
X148654326Y-93591721D01*
X148605881Y-93571247D01*
X148562021Y-93542502D01*
X148525656Y-93507463D01*
X148496094Y-93465612D01*
X148474749Y-93418883D01*
X148461512Y-93365895D01*
X148456893Y-93305389D01*
X148456893Y-92861905D01*
X148600996Y-92861905D01*
X148600996Y-93305389D01*
X148606558Y-93355699D01*
X148622295Y-93397004D01*
X148647891Y-93431296D01*
X148681784Y-93457259D01*
X148722823Y-93473216D01*
X148773065Y-93478862D01*
X148823309Y-93473217D01*
X148864369Y-93457262D01*
X148898301Y-93431296D01*
X148923897Y-93397004D01*
X148939633Y-93355699D01*
X148945195Y-93305389D01*
X148945195Y-92861905D01*
X148939667Y-92812536D01*
X148923963Y-92771664D01*
X148898301Y-92737402D01*
X148864369Y-92711436D01*
X148823309Y-92695480D01*
X148773065Y-92689836D01*
X148722823Y-92695482D01*
X148681784Y-92711438D01*
X148647891Y-92737402D01*
X148622228Y-92771664D01*
X148606524Y-92812536D01*
X148600996Y-92861905D01*
X148456893Y-92861905D01*
X148462641Y-92794430D01*
X148479038Y-92736409D01*
X148505475Y-92686108D01*
X148542256Y-92642269D01*
X148587197Y-92607081D01*
X148639608Y-92581456D01*
X148700930Y-92565389D01*
X148773065Y-92559715D01*
X148845233Y-92565390D01*
G37*
G36*
X153271347Y-95275000D02*
G01*
X153120282Y-95275000D01*
X153120282Y-94869312D01*
X152936978Y-94869312D01*
X152871675Y-94864819D01*
X152814777Y-94852007D01*
X152764970Y-94831516D01*
X152719762Y-94802616D01*
X152682228Y-94767115D01*
X152651641Y-94724476D01*
X152629504Y-94676791D01*
X152615808Y-94622891D01*
X152611036Y-94561505D01*
X152764909Y-94561505D01*
X152770471Y-94611815D01*
X152786208Y-94653120D01*
X152811804Y-94687412D01*
X152845697Y-94713376D01*
X152886736Y-94729332D01*
X152936978Y-94734979D01*
X153120282Y-94734979D01*
X153120282Y-94388032D01*
X152936978Y-94388032D01*
X152886736Y-94393678D01*
X152845697Y-94409634D01*
X152811804Y-94435598D01*
X152786208Y-94469890D01*
X152770471Y-94511195D01*
X152764909Y-94561505D01*
X152611036Y-94561505D01*
X152615728Y-94500080D01*
X152629186Y-94446176D01*
X152650909Y-94398534D01*
X152681142Y-94355931D01*
X152718653Y-94320427D01*
X152764237Y-94291495D01*
X152814515Y-94270981D01*
X152871674Y-94258178D01*
X152936978Y-94253698D01*
X153271347Y-94253698D01*
X153271347Y-95275000D01*
G37*
G36*
X152118765Y-95288982D02*
G01*
X152190319Y-95283441D01*
X152251117Y-95267763D01*
X152303032Y-95242792D01*
X152347498Y-95208565D01*
X152383865Y-95165766D01*
X152410077Y-95116205D01*
X152426390Y-95058559D01*
X152432128Y-94991006D01*
X152432128Y-94537691D01*
X152426356Y-94469366D01*
X152409993Y-94411405D01*
X152383777Y-94361900D01*
X152347498Y-94319460D01*
X152303074Y-94285546D01*
X152251174Y-94260778D01*
X152190361Y-94245217D01*
X152118765Y-94239715D01*
X152047979Y-94245239D01*
X151987637Y-94260895D01*
X151935918Y-94285880D01*
X151891436Y-94320193D01*
X151855071Y-94362963D01*
X151828859Y-94412503D01*
X151812545Y-94470138D01*
X151806805Y-94537691D01*
X151957870Y-94537691D01*
X151963161Y-94486220D01*
X151977687Y-94446564D01*
X152000551Y-94415997D01*
X152031420Y-94393344D01*
X152070081Y-94379150D01*
X152118765Y-94374049D01*
X152168400Y-94379182D01*
X152207485Y-94393406D01*
X152238383Y-94415997D01*
X152261247Y-94446564D01*
X152275772Y-94486220D01*
X152281064Y-94537691D01*
X152281064Y-94991006D01*
X152275774Y-95042479D01*
X152261249Y-95082158D01*
X152238383Y-95112761D01*
X152207485Y-95135352D01*
X152168400Y-95149577D01*
X152118765Y-95154710D01*
X152070081Y-95149609D01*
X152031420Y-95135414D01*
X152000551Y-95112761D01*
X151977684Y-95082158D01*
X151963160Y-95042479D01*
X151957870Y-94991006D01*
X151806805Y-94991006D01*
X151812544Y-95058559D01*
X151828857Y-95116205D01*
X151855069Y-95165766D01*
X151891436Y-95208565D01*
X151935915Y-95242850D01*
X151987632Y-95267817D01*
X152047975Y-95283462D01*
X152118765Y-95288982D01*
G37*
G36*
X151622341Y-95275000D02*
G01*
X151622341Y-94253698D01*
X151415284Y-94253698D01*
X151293529Y-94694434D01*
X151167622Y-94253698D01*
X150959161Y-94253698D01*
X150959161Y-95275000D01*
X151101860Y-95275000D01*
X151101860Y-94818937D01*
X151098379Y-94648944D01*
X151089281Y-94467777D01*
X151076703Y-94305478D01*
X151230576Y-94825898D01*
X151357887Y-94825898D01*
X151506204Y-94318056D01*
X151495341Y-94421128D01*
X151486664Y-94546118D01*
X151481449Y-94676691D01*
X151479642Y-94818937D01*
X151479642Y-95275000D01*
X151622341Y-95275000D01*
G37*
G36*
X150458524Y-95288982D02*
G01*
X150530900Y-95283525D01*
X150592449Y-95268088D01*
X150645025Y-95243535D01*
X150690066Y-95209970D01*
X150727117Y-95167742D01*
X150753743Y-95118839D01*
X150770285Y-95061944D01*
X150776101Y-94995219D01*
X150624975Y-94995219D01*
X150619569Y-95042703D01*
X150604326Y-95081185D01*
X150579546Y-95112700D01*
X150546821Y-95136214D01*
X150506701Y-95150839D01*
X150457119Y-95156053D01*
X150407553Y-95150822D01*
X150367701Y-95136186D01*
X150335425Y-95112700D01*
X150311173Y-95081174D01*
X150296075Y-95041838D01*
X150290668Y-94992411D01*
X150290668Y-94928053D01*
X150295882Y-94879448D01*
X150310497Y-94840270D01*
X150334021Y-94808435D01*
X150365465Y-94784510D01*
X150404375Y-94769654D01*
X150452906Y-94764349D01*
X150741113Y-94764349D01*
X150741113Y-94253698D01*
X150177339Y-94253698D01*
X150177339Y-94390840D01*
X150598414Y-94390840D01*
X150597010Y-94630076D01*
X150445945Y-94630076D01*
X150373341Y-94635540D01*
X150312835Y-94650856D01*
X150262281Y-94674993D01*
X150220021Y-94707745D01*
X150185945Y-94748872D01*
X150160972Y-94798113D01*
X150145174Y-94857112D01*
X150139543Y-94928053D01*
X150139543Y-94992411D01*
X150145333Y-95059928D01*
X150161785Y-95117419D01*
X150188216Y-95166741D01*
X150224906Y-95209237D01*
X150269615Y-95243003D01*
X150322341Y-95267786D01*
X150384641Y-95283430D01*
X150458524Y-95288982D01*
G37*
G36*
X149910321Y-95275000D02*
G01*
X149910321Y-95137918D01*
X149638906Y-95137918D01*
X149638906Y-94393588D01*
X149911725Y-94595088D01*
X149911725Y-94424424D01*
X149678046Y-94253698D01*
X149487781Y-94253698D01*
X149487781Y-95137918D01*
X149268145Y-95137918D01*
X149268145Y-95275000D01*
X149910321Y-95275000D01*
G37*
G36*
X149080872Y-95275000D02*
G01*
X149080872Y-95137918D01*
X148726903Y-94767158D01*
X148674248Y-94703592D01*
X148641601Y-94649677D01*
X148621372Y-94594733D01*
X148614979Y-94543309D01*
X148620184Y-94493718D01*
X148634819Y-94453353D01*
X148658393Y-94420211D01*
X148689996Y-94395067D01*
X148728907Y-94379564D01*
X148777278Y-94374049D01*
X148826543Y-94379691D01*
X148866662Y-94395633D01*
X148899705Y-94421615D01*
X148924415Y-94455831D01*
X148939743Y-94497568D01*
X148945195Y-94548927D01*
X149096259Y-94548927D01*
X149089973Y-94487516D01*
X149075592Y-94433582D01*
X149053578Y-94385956D01*
X149023444Y-94343206D01*
X148986371Y-94307461D01*
X148941654Y-94278183D01*
X148892282Y-94257209D01*
X148836932Y-94244228D01*
X148774469Y-94239715D01*
X148711940Y-94244098D01*
X148657082Y-94256639D01*
X148608690Y-94276779D01*
X148564807Y-94305056D01*
X148528449Y-94339631D01*
X148498902Y-94381010D01*
X148477535Y-94427254D01*
X148464310Y-94479540D01*
X148459701Y-94539096D01*
X148463770Y-94588702D01*
X148476321Y-94640262D01*
X148498170Y-94694434D01*
X148527208Y-94745302D01*
X148569479Y-94802342D01*
X148627618Y-94866503D01*
X148893416Y-95137918D01*
X148448527Y-95137918D01*
X148448527Y-95275000D01*
X149080872Y-95275000D01*
G37*
G36*
X147970110Y-94683318D02*
G01*
X147997533Y-94699319D01*
X148015604Y-94724645D01*
X148022018Y-94760136D01*
X148015568Y-94797024D01*
X147997533Y-94823150D01*
X147970055Y-94839667D01*
X147933847Y-94845498D01*
X147897691Y-94839670D01*
X147870221Y-94823150D01*
X147852186Y-94797024D01*
X147845736Y-94760136D01*
X147852150Y-94724645D01*
X147870221Y-94699319D01*
X147897636Y-94683315D01*
X147933847Y-94677643D01*
X147970110Y-94683318D01*
G37*
G36*
X148006015Y-94245390D02*
G01*
X148067357Y-94261458D01*
X148119776Y-94287083D01*
X148164717Y-94322269D01*
X148201498Y-94366108D01*
X148227935Y-94416409D01*
X148244332Y-94474430D01*
X148250080Y-94541905D01*
X148250080Y-94985389D01*
X148244308Y-95053655D01*
X148227874Y-95112151D01*
X148201431Y-95162662D01*
X148164717Y-95206489D01*
X148119780Y-95241647D01*
X148067362Y-95267253D01*
X148006018Y-95283311D01*
X147933847Y-95288982D01*
X147870404Y-95284504D01*
X147815107Y-95271721D01*
X147766662Y-95251247D01*
X147722803Y-95222502D01*
X147686438Y-95187463D01*
X147656875Y-95145612D01*
X147635530Y-95098883D01*
X147622294Y-95045895D01*
X147617674Y-94985389D01*
X147617674Y-94541905D01*
X147761778Y-94541905D01*
X147761778Y-94985389D01*
X147767340Y-95035699D01*
X147783076Y-95077004D01*
X147808672Y-95111296D01*
X147842566Y-95137259D01*
X147883604Y-95153216D01*
X147933847Y-95158862D01*
X147984090Y-95153217D01*
X148025151Y-95137262D01*
X148059082Y-95111296D01*
X148084678Y-95077004D01*
X148100415Y-95035699D01*
X148105977Y-94985389D01*
X148105977Y-94541905D01*
X148100449Y-94492536D01*
X148084744Y-94451664D01*
X148059082Y-94417402D01*
X148025151Y-94391436D01*
X147984090Y-94375480D01*
X147933847Y-94369836D01*
X147883604Y-94375482D01*
X147842566Y-94391438D01*
X147808672Y-94417402D01*
X147783010Y-94451664D01*
X147767306Y-94492536D01*
X147761778Y-94541905D01*
X147617674Y-94541905D01*
X147623423Y-94474430D01*
X147639820Y-94416409D01*
X147666256Y-94366108D01*
X147703037Y-94322269D01*
X147747979Y-94287081D01*
X147800389Y-94261456D01*
X147861712Y-94245389D01*
X147933847Y-94239715D01*
X148006015Y-94245390D01*
G37*
G36*
X147454215Y-95275000D02*
G01*
X147300281Y-95275000D01*
X147238731Y-95016163D01*
X146949182Y-95016163D01*
X146887571Y-95275000D01*
X146733698Y-95275000D01*
X146832265Y-94890256D01*
X146978552Y-94890256D01*
X147210766Y-94890256D01*
X147140790Y-94595088D01*
X147110077Y-94460816D01*
X147094628Y-94381010D01*
X147078569Y-94460816D01*
X147048466Y-94596493D01*
X146978552Y-94890256D01*
X146832265Y-94890256D01*
X146995343Y-94253698D01*
X147193974Y-94253698D01*
X147454215Y-95275000D01*
G37*
G36*
X153039898Y-95925352D02*
G01*
X153099814Y-95941293D01*
X153150835Y-95966700D01*
X153194410Y-96001598D01*
X153229361Y-96044823D01*
X153254989Y-96096377D01*
X153271194Y-96157927D01*
X153276964Y-96231674D01*
X153276964Y-96657023D01*
X153271195Y-96730769D01*
X153254991Y-96792331D01*
X153229363Y-96843906D01*
X153194410Y-96887161D01*
X153150839Y-96922030D01*
X153099820Y-96947419D01*
X153039901Y-96963349D01*
X152969157Y-96968982D01*
X152898412Y-96963348D01*
X152838505Y-96947417D01*
X152787508Y-96922028D01*
X152743965Y-96887161D01*
X152709012Y-96843906D01*
X152683384Y-96792331D01*
X152667180Y-96730769D01*
X152661411Y-96657023D01*
X152661411Y-96230331D01*
X152662406Y-96217691D01*
X152812475Y-96217691D01*
X152812475Y-96671006D01*
X152817546Y-96722653D01*
X152831412Y-96762325D01*
X152853081Y-96792761D01*
X152882647Y-96815332D01*
X152920516Y-96829558D01*
X152969157Y-96834710D01*
X153017841Y-96829559D01*
X153055751Y-96815332D01*
X153085356Y-96792761D01*
X153106989Y-96762330D01*
X153120836Y-96722658D01*
X153125900Y-96671006D01*
X153125900Y-96217691D01*
X153120907Y-96165984D01*
X153107273Y-96126338D01*
X153086027Y-96095997D01*
X153056837Y-96073518D01*
X153018781Y-96059250D01*
X152969157Y-96054049D01*
X152919575Y-96059249D01*
X152881537Y-96073515D01*
X152852348Y-96095997D01*
X152831103Y-96126338D01*
X152817469Y-96165984D01*
X152812475Y-96217691D01*
X152662406Y-96217691D01*
X152667161Y-96157319D01*
X152683335Y-96096200D01*
X152708958Y-96044833D01*
X152743965Y-96001598D01*
X152787512Y-95966702D01*
X152838510Y-95941295D01*
X152898416Y-95925353D01*
X152969157Y-95919715D01*
X153039898Y-95925352D01*
G37*
G36*
X152432128Y-96955000D02*
G01*
X152281064Y-96955000D01*
X152281064Y-96549312D01*
X152097760Y-96549312D01*
X152032456Y-96544819D01*
X151975558Y-96532007D01*
X151925752Y-96511516D01*
X151880544Y-96482616D01*
X151843009Y-96447115D01*
X151812423Y-96404476D01*
X151790286Y-96356791D01*
X151776590Y-96302891D01*
X151771818Y-96241505D01*
X151925691Y-96241505D01*
X151931253Y-96291815D01*
X151946989Y-96333120D01*
X151972585Y-96367412D01*
X152006479Y-96393376D01*
X152047518Y-96409332D01*
X152097760Y-96414979D01*
X152281064Y-96414979D01*
X152281064Y-96068032D01*
X152097760Y-96068032D01*
X152047518Y-96073678D01*
X152006479Y-96089634D01*
X151972585Y-96115598D01*
X151946989Y-96149890D01*
X151931253Y-96191195D01*
X151925691Y-96241505D01*
X151771818Y-96241505D01*
X151776510Y-96180080D01*
X151789968Y-96126176D01*
X151811690Y-96078534D01*
X151841924Y-96035931D01*
X151879434Y-96000427D01*
X151925019Y-95971495D01*
X151975296Y-95950981D01*
X152032455Y-95938178D01*
X152097760Y-95933698D01*
X152432128Y-95933698D01*
X152432128Y-96955000D01*
G37*
G36*
X151650307Y-96955000D02*
G01*
X151496373Y-96955000D01*
X151434824Y-96696163D01*
X151145274Y-96696163D01*
X151083663Y-96955000D01*
X150929790Y-96955000D01*
X151028357Y-96570256D01*
X151174644Y-96570256D01*
X151406858Y-96570256D01*
X151336882Y-96275088D01*
X151306169Y-96140816D01*
X151290720Y-96061010D01*
X151274661Y-96140816D01*
X151244558Y-96276493D01*
X151174644Y-96570256D01*
X151028357Y-96570256D01*
X151191436Y-95933698D01*
X151390066Y-95933698D01*
X151650307Y-96955000D01*
G37*
G36*
X150749539Y-96955000D02*
G01*
X150749539Y-96817918D01*
X150478124Y-96817918D01*
X150478124Y-96073588D01*
X150750944Y-96275088D01*
X150750944Y-96104424D01*
X150517264Y-95933698D01*
X150326999Y-95933698D01*
X150326999Y-96817918D01*
X150107364Y-96817918D01*
X150107364Y-96955000D01*
X150749539Y-96955000D01*
G37*
G36*
X149854328Y-96346407D02*
G01*
X149894993Y-96425062D01*
X149924975Y-96498937D01*
X149944753Y-96572206D01*
X149950865Y-96636018D01*
X149945835Y-96702053D01*
X149931423Y-96759889D01*
X149908184Y-96810896D01*
X149876010Y-96856740D01*
X149836615Y-96895265D01*
X149789298Y-96927034D01*
X149736953Y-96949883D01*
X149677913Y-96964047D01*
X149610879Y-96968982D01*
X149544802Y-96964132D01*
X149486480Y-96950198D01*
X149434658Y-96927705D01*
X149387804Y-96896363D01*
X149348618Y-96857885D01*
X149316444Y-96811629D01*
X149293182Y-96760154D01*
X149278780Y-96702058D01*
X149273976Y-96638827D01*
X149423423Y-96638827D01*
X149429589Y-96696451D01*
X149447002Y-96743735D01*
X149475202Y-96782930D01*
X149512791Y-96812843D01*
X149557759Y-96831055D01*
X149612283Y-96837458D01*
X149666849Y-96831053D01*
X149711835Y-96812840D01*
X149749426Y-96782930D01*
X149777626Y-96743735D01*
X149795039Y-96696451D01*
X149801205Y-96638827D01*
X149795039Y-96581203D01*
X149777626Y-96533919D01*
X149749426Y-96494724D01*
X149711831Y-96464778D01*
X149666845Y-96446546D01*
X149612283Y-96440136D01*
X149557763Y-96446544D01*
X149512796Y-96464775D01*
X149475202Y-96494724D01*
X149447002Y-96533919D01*
X149429589Y-96581203D01*
X149423423Y-96638827D01*
X149273976Y-96638827D01*
X149273763Y-96636018D01*
X149278101Y-96575382D01*
X149290601Y-96521410D01*
X149310827Y-96473047D01*
X149339023Y-96429065D01*
X149373154Y-96392718D01*
X149413653Y-96363260D01*
X149458950Y-96341797D01*
X149509407Y-96328620D01*
X149566122Y-96324059D01*
X149612059Y-96328054D01*
X149651484Y-96339446D01*
X149685488Y-96358196D01*
X149708820Y-96381395D01*
X149714438Y-96377182D01*
X149457006Y-95933698D01*
X149626327Y-95933698D01*
X149854328Y-96346407D01*
G37*
G36*
X148780087Y-96968982D02*
G01*
X148852463Y-96963525D01*
X148914012Y-96948088D01*
X148966588Y-96923535D01*
X149011629Y-96889970D01*
X149048681Y-96847742D01*
X149075306Y-96798839D01*
X149091848Y-96741944D01*
X149097664Y-96675219D01*
X148946539Y-96675219D01*
X148941132Y-96722703D01*
X148925889Y-96761185D01*
X148901109Y-96792700D01*
X148868384Y-96816214D01*
X148828264Y-96830839D01*
X148778683Y-96836053D01*
X148729116Y-96830822D01*
X148689264Y-96816186D01*
X148656989Y-96792700D01*
X148632736Y-96761174D01*
X148617639Y-96721838D01*
X148612231Y-96672411D01*
X148612231Y-96608053D01*
X148617445Y-96559448D01*
X148632060Y-96520270D01*
X148655584Y-96488435D01*
X148687028Y-96464510D01*
X148725938Y-96449654D01*
X148774469Y-96444349D01*
X149062676Y-96444349D01*
X149062676Y-95933698D01*
X148498902Y-95933698D01*
X148498902Y-96070840D01*
X148919977Y-96070840D01*
X148918573Y-96310076D01*
X148767509Y-96310076D01*
X148694904Y-96315540D01*
X148634398Y-96330856D01*
X148583844Y-96354993D01*
X148541584Y-96387745D01*
X148507508Y-96428872D01*
X148482536Y-96478113D01*
X148466737Y-96537112D01*
X148461106Y-96608053D01*
X148461106Y-96672411D01*
X148466897Y-96739928D01*
X148483349Y-96797419D01*
X148509779Y-96846741D01*
X148546469Y-96889237D01*
X148591178Y-96923003D01*
X148643904Y-96947786D01*
X148706204Y-96963430D01*
X148780087Y-96968982D01*
G37*
G36*
X148241654Y-96955000D02*
G01*
X148241654Y-96817918D01*
X147887685Y-96447158D01*
X147835029Y-96383592D01*
X147802383Y-96329677D01*
X147782154Y-96274733D01*
X147775760Y-96223309D01*
X147780966Y-96173718D01*
X147795600Y-96133353D01*
X147819175Y-96100211D01*
X147850777Y-96075067D01*
X147889689Y-96059564D01*
X147938060Y-96054049D01*
X147987324Y-96059691D01*
X148027444Y-96075633D01*
X148060487Y-96101615D01*
X148085197Y-96135831D01*
X148100525Y-96177568D01*
X148105977Y-96228927D01*
X148257041Y-96228927D01*
X148250755Y-96167516D01*
X148236373Y-96113582D01*
X148214360Y-96065956D01*
X148184226Y-96023206D01*
X148147153Y-95987461D01*
X148102435Y-95958183D01*
X148053063Y-95937209D01*
X147997713Y-95924228D01*
X147935251Y-95919715D01*
X147872722Y-95924098D01*
X147817863Y-95936639D01*
X147769471Y-95956779D01*
X147725589Y-95985056D01*
X147689231Y-96019631D01*
X147659684Y-96061010D01*
X147638317Y-96107254D01*
X147625092Y-96159540D01*
X147620483Y-96219096D01*
X147624552Y-96268702D01*
X147637102Y-96320262D01*
X147658951Y-96374434D01*
X147687990Y-96425302D01*
X147730260Y-96482342D01*
X147788400Y-96546503D01*
X148054197Y-96817918D01*
X147609309Y-96817918D01*
X147609309Y-96955000D01*
X148241654Y-96955000D01*
G37*
G36*
X153039898Y-97605352D02*
G01*
X153099814Y-97621293D01*
X153150835Y-97646700D01*
X153194410Y-97681598D01*
X153229361Y-97724823D01*
X153254989Y-97776377D01*
X153271194Y-97837927D01*
X153276964Y-97911674D01*
X153276964Y-98337023D01*
X153271195Y-98410769D01*
X153254991Y-98472331D01*
X153229363Y-98523906D01*
X153194410Y-98567161D01*
X153150839Y-98602030D01*
X153099820Y-98627419D01*
X153039901Y-98643349D01*
X152969157Y-98648982D01*
X152898412Y-98643348D01*
X152838505Y-98627417D01*
X152787508Y-98602028D01*
X152743965Y-98567161D01*
X152709012Y-98523906D01*
X152683384Y-98472331D01*
X152667180Y-98410769D01*
X152661411Y-98337023D01*
X152661411Y-97910331D01*
X152662406Y-97897691D01*
X152812475Y-97897691D01*
X152812475Y-98351006D01*
X152817546Y-98402653D01*
X152831412Y-98442325D01*
X152853081Y-98472761D01*
X152882647Y-98495332D01*
X152920516Y-98509558D01*
X152969157Y-98514710D01*
X153017841Y-98509559D01*
X153055751Y-98495332D01*
X153085356Y-98472761D01*
X153106989Y-98442330D01*
X153120836Y-98402658D01*
X153125900Y-98351006D01*
X153125900Y-97897691D01*
X153120907Y-97845984D01*
X153107273Y-97806338D01*
X153086027Y-97775997D01*
X153056837Y-97753518D01*
X153018781Y-97739250D01*
X152969157Y-97734049D01*
X152919575Y-97739249D01*
X152881537Y-97753515D01*
X152852348Y-97775997D01*
X152831103Y-97806338D01*
X152817469Y-97845984D01*
X152812475Y-97897691D01*
X152662406Y-97897691D01*
X152667161Y-97837319D01*
X152683335Y-97776200D01*
X152708958Y-97724833D01*
X152743965Y-97681598D01*
X152787512Y-97646702D01*
X152838510Y-97621295D01*
X152898416Y-97605353D01*
X152969157Y-97599715D01*
X153039898Y-97605352D01*
G37*
G36*
X152432128Y-98635000D02*
G01*
X152281064Y-98635000D01*
X152281064Y-98229312D01*
X152097760Y-98229312D01*
X152032456Y-98224819D01*
X151975558Y-98212007D01*
X151925752Y-98191516D01*
X151880544Y-98162616D01*
X151843009Y-98127115D01*
X151812423Y-98084476D01*
X151790286Y-98036791D01*
X151776590Y-97982891D01*
X151771818Y-97921505D01*
X151925691Y-97921505D01*
X151931253Y-97971815D01*
X151946989Y-98013120D01*
X151972585Y-98047412D01*
X152006479Y-98073376D01*
X152047518Y-98089332D01*
X152097760Y-98094979D01*
X152281064Y-98094979D01*
X152281064Y-97748032D01*
X152097760Y-97748032D01*
X152047518Y-97753678D01*
X152006479Y-97769634D01*
X151972585Y-97795598D01*
X151946989Y-97829890D01*
X151931253Y-97871195D01*
X151925691Y-97921505D01*
X151771818Y-97921505D01*
X151776510Y-97860080D01*
X151789968Y-97806176D01*
X151811690Y-97758534D01*
X151841924Y-97715931D01*
X151879434Y-97680427D01*
X151925019Y-97651495D01*
X151975296Y-97630981D01*
X152032455Y-97618178D01*
X152097760Y-97613698D01*
X152432128Y-97613698D01*
X152432128Y-98635000D01*
G37*
G36*
X151650307Y-98635000D02*
G01*
X151496373Y-98635000D01*
X151434824Y-98376163D01*
X151145274Y-98376163D01*
X151083663Y-98635000D01*
X150929790Y-98635000D01*
X151028357Y-98250256D01*
X151174644Y-98250256D01*
X151406858Y-98250256D01*
X151336882Y-97955088D01*
X151306169Y-97820816D01*
X151290720Y-97741010D01*
X151274661Y-97820816D01*
X151244558Y-97956493D01*
X151174644Y-98250256D01*
X151028357Y-98250256D01*
X151191436Y-97613698D01*
X151390066Y-97613698D01*
X151650307Y-98635000D01*
G37*
G36*
X150749539Y-98635000D02*
G01*
X150749539Y-98497918D01*
X150478124Y-98497918D01*
X150478124Y-97753588D01*
X150750944Y-97955088D01*
X150750944Y-97784424D01*
X150517264Y-97613698D01*
X150326999Y-97613698D01*
X150326999Y-98497918D01*
X150107364Y-98497918D01*
X150107364Y-98635000D01*
X150749539Y-98635000D01*
G37*
G36*
X149854328Y-98026407D02*
G01*
X149894993Y-98105062D01*
X149924975Y-98178937D01*
X149944753Y-98252206D01*
X149950865Y-98316018D01*
X149945835Y-98382053D01*
X149931423Y-98439889D01*
X149908184Y-98490896D01*
X149876010Y-98536740D01*
X149836615Y-98575265D01*
X149789298Y-98607034D01*
X149736953Y-98629883D01*
X149677913Y-98644047D01*
X149610879Y-98648982D01*
X149544802Y-98644132D01*
X149486480Y-98630198D01*
X149434658Y-98607705D01*
X149387804Y-98576363D01*
X149348618Y-98537885D01*
X149316444Y-98491629D01*
X149293182Y-98440154D01*
X149278780Y-98382058D01*
X149273976Y-98318827D01*
X149423423Y-98318827D01*
X149429589Y-98376451D01*
X149447002Y-98423735D01*
X149475202Y-98462930D01*
X149512791Y-98492843D01*
X149557759Y-98511055D01*
X149612283Y-98517458D01*
X149666849Y-98511053D01*
X149711835Y-98492840D01*
X149749426Y-98462930D01*
X149777626Y-98423735D01*
X149795039Y-98376451D01*
X149801205Y-98318827D01*
X149795039Y-98261203D01*
X149777626Y-98213919D01*
X149749426Y-98174724D01*
X149711831Y-98144778D01*
X149666845Y-98126546D01*
X149612283Y-98120136D01*
X149557763Y-98126544D01*
X149512796Y-98144775D01*
X149475202Y-98174724D01*
X149447002Y-98213919D01*
X149429589Y-98261203D01*
X149423423Y-98318827D01*
X149273976Y-98318827D01*
X149273763Y-98316018D01*
X149278101Y-98255382D01*
X149290601Y-98201410D01*
X149310827Y-98153047D01*
X149339023Y-98109065D01*
X149373154Y-98072718D01*
X149413653Y-98043260D01*
X149458950Y-98021797D01*
X149509407Y-98008620D01*
X149566122Y-98004059D01*
X149612059Y-98008054D01*
X149651484Y-98019446D01*
X149685488Y-98038196D01*
X149708820Y-98061395D01*
X149714438Y-98057182D01*
X149457006Y-97613698D01*
X149626327Y-97613698D01*
X149854328Y-98026407D01*
G37*
G36*
X149080872Y-98635000D02*
G01*
X149080872Y-98497918D01*
X148726903Y-98127158D01*
X148674248Y-98063592D01*
X148641601Y-98009677D01*
X148621372Y-97954733D01*
X148614979Y-97903309D01*
X148620184Y-97853718D01*
X148634819Y-97813353D01*
X148658393Y-97780211D01*
X148689996Y-97755067D01*
X148728907Y-97739564D01*
X148777278Y-97734049D01*
X148826543Y-97739691D01*
X148866662Y-97755633D01*
X148899705Y-97781615D01*
X148924415Y-97815831D01*
X148939743Y-97857568D01*
X148945195Y-97908927D01*
X149096259Y-97908927D01*
X149089973Y-97847516D01*
X149075592Y-97793582D01*
X149053578Y-97745956D01*
X149023444Y-97703206D01*
X148986371Y-97667461D01*
X148941654Y-97638183D01*
X148892282Y-97617209D01*
X148836932Y-97604228D01*
X148774469Y-97599715D01*
X148711940Y-97604098D01*
X148657082Y-97616639D01*
X148608690Y-97636779D01*
X148564807Y-97665056D01*
X148528449Y-97699631D01*
X148498902Y-97741010D01*
X148477535Y-97787254D01*
X148464310Y-97839540D01*
X148459701Y-97899096D01*
X148463770Y-97948702D01*
X148476321Y-98000262D01*
X148498170Y-98054434D01*
X148527208Y-98105302D01*
X148569479Y-98162342D01*
X148627618Y-98226503D01*
X148893416Y-98497918D01*
X148448527Y-98497918D01*
X148448527Y-98635000D01*
X149080872Y-98635000D01*
G37*
G36*
X148241654Y-98635000D02*
G01*
X148241654Y-98497918D01*
X147887685Y-98127158D01*
X147835029Y-98063592D01*
X147802383Y-98009677D01*
X147782154Y-97954733D01*
X147775760Y-97903309D01*
X147780966Y-97853718D01*
X147795600Y-97813353D01*
X147819175Y-97780211D01*
X147850777Y-97755067D01*
X147889689Y-97739564D01*
X147938060Y-97734049D01*
X147987324Y-97739691D01*
X148027444Y-97755633D01*
X148060487Y-97781615D01*
X148085197Y-97815831D01*
X148100525Y-97857568D01*
X148105977Y-97908927D01*
X148257041Y-97908927D01*
X148250755Y-97847516D01*
X148236373Y-97793582D01*
X148214360Y-97745956D01*
X148184226Y-97703206D01*
X148147153Y-97667461D01*
X148102435Y-97638183D01*
X148053063Y-97617209D01*
X147997713Y-97604228D01*
X147935251Y-97599715D01*
X147872722Y-97604098D01*
X147817863Y-97616639D01*
X147769471Y-97636779D01*
X147725589Y-97665056D01*
X147689231Y-97699631D01*
X147659684Y-97741010D01*
X147638317Y-97787254D01*
X147625092Y-97839540D01*
X147620483Y-97899096D01*
X147624552Y-97948702D01*
X147637102Y-98000262D01*
X147658951Y-98054434D01*
X147687990Y-98105302D01*
X147730260Y-98162342D01*
X147788400Y-98226503D01*
X148054197Y-98497918D01*
X147609309Y-98497918D01*
X147609309Y-98635000D01*
X148241654Y-98635000D01*
G37*
D13*
%TO.C,TP6*%
X141850000Y-104400000D02*
G75*
G02*
X139950000Y-104400000I-950000J0D01*
G01*
X139950000Y-104400000D02*
G75*
G02*
X141850000Y-104400000I950000J0D01*
G01*
%TO.C,TP5*%
X128150000Y-103400000D02*
G75*
G02*
X126250000Y-103400000I-950000J0D01*
G01*
X126250000Y-103400000D02*
G75*
G02*
X128150000Y-103400000I950000J0D01*
G01*
%TO.C,TP4*%
X141850000Y-95300000D02*
G75*
G02*
X139950000Y-95300000I-950000J0D01*
G01*
X139950000Y-95300000D02*
G75*
G02*
X141850000Y-95300000I950000J0D01*
G01*
%TO.C,TP8*%
X132350000Y-89000000D02*
G75*
G02*
X130450000Y-89000000I-950000J0D01*
G01*
X130450000Y-89000000D02*
G75*
G02*
X132350000Y-89000000I950000J0D01*
G01*
%TO.C,TP9*%
X135250000Y-89000000D02*
G75*
G02*
X133350000Y-89000000I-950000J0D01*
G01*
X133350000Y-89000000D02*
G75*
G02*
X135250000Y-89000000I950000J0D01*
G01*
%TO.C,TP1*%
X134550000Y-63000000D02*
G75*
G02*
X132650000Y-63000000I-950000J0D01*
G01*
X132650000Y-63000000D02*
G75*
G02*
X134550000Y-63000000I950000J0D01*
G01*
%TO.C,TP3*%
X132850000Y-69600000D02*
G75*
G02*
X130950000Y-69600000I-950000J0D01*
G01*
X130950000Y-69600000D02*
G75*
G02*
X132850000Y-69600000I950000J0D01*
G01*
%TO.C,TP2*%
X136850000Y-69600000D02*
G75*
G02*
X134950000Y-69600000I-950000J0D01*
G01*
X134950000Y-69600000D02*
G75*
G02*
X136850000Y-69600000I950000J0D01*
G01*
%TO.C,TP7*%
X141850000Y-101400000D02*
G75*
G02*
X139950000Y-101400000I-950000J0D01*
G01*
X139950000Y-101400000D02*
G75*
G02*
X141850000Y-101400000I950000J0D01*
G01*
%TD*%
%LPC*%
D14*
%TO.C,H5*%
X123375000Y-143700000D03*
X123858274Y-142533274D03*
X123858274Y-144866726D03*
X125025000Y-142050000D03*
D15*
X125025000Y-143700000D03*
D14*
X125025000Y-145350000D03*
X126191726Y-142533274D03*
X126191726Y-144866726D03*
X126675000Y-143700000D03*
%TD*%
D16*
%TO.C,J2*%
X136950000Y-145050000D03*
X136950000Y-138050000D03*
%TD*%
D14*
%TO.C,H4*%
X151200000Y-56600000D03*
X151683274Y-55433274D03*
X151683274Y-57766726D03*
X152850000Y-54950000D03*
D15*
X152850000Y-56600000D03*
D14*
X152850000Y-58250000D03*
X154016726Y-55433274D03*
X154016726Y-57766726D03*
X154500000Y-56600000D03*
%TD*%
D17*
%TO.C,H1*%
X149100000Y-56300000D03*
%TD*%
D14*
%TO.C,H3*%
X123375000Y-56600000D03*
X123858274Y-55433274D03*
X123858274Y-57766726D03*
X125025000Y-54950000D03*
D15*
X125025000Y-56600000D03*
D14*
X125025000Y-58250000D03*
X126191726Y-55433274D03*
X126191726Y-57766726D03*
X126675000Y-56600000D03*
%TD*%
%TO.C,H6*%
X151200000Y-143700000D03*
X151683274Y-142533274D03*
X151683274Y-144866726D03*
X152850000Y-142050000D03*
D15*
X152850000Y-143700000D03*
D14*
X152850000Y-145350000D03*
X154016726Y-142533274D03*
X154016726Y-144866726D03*
X154500000Y-143700000D03*
%TD*%
D18*
%TO.C,VR1*%
X148050000Y-136900000D03*
D19*
X145550000Y-136900000D03*
X148050000Y-66900000D03*
D18*
X153050000Y-136900000D03*
D19*
X150550000Y-136900000D03*
X153050000Y-66900000D03*
D20*
X149300000Y-126900000D03*
X149300000Y-79400000D03*
%TD*%
D17*
%TO.C,H2*%
X129000000Y-145100000D03*
%TD*%
D21*
%TO.C,J1*%
X136940000Y-59350000D03*
X131160000Y-59350000D03*
D22*
X138380000Y-59870000D03*
D23*
X138380000Y-55670000D03*
D24*
X136050000Y-57050000D03*
X136050000Y-55050000D03*
X132050000Y-57050000D03*
X132050000Y-55050000D03*
D22*
X129720000Y-59870000D03*
D23*
X129720000Y-55670000D03*
%TD*%
D25*
%TO.C,TP6*%
X140900000Y-104400000D03*
%TD*%
%TO.C,TP5*%
X127200000Y-103400000D03*
%TD*%
%TO.C,TP4*%
X140900000Y-95300000D03*
%TD*%
%TO.C,TP8*%
X131400000Y-89000000D03*
%TD*%
%TO.C,TP9*%
X134300000Y-89000000D03*
%TD*%
%TO.C,TP1*%
X133600000Y-63000000D03*
%TD*%
%TO.C,TP3*%
X131900000Y-69600000D03*
%TD*%
%TO.C,TP2*%
X135900000Y-69600000D03*
%TD*%
%TO.C,TP7*%
X140900000Y-101400000D03*
%TD*%
%LPD*%
M02*
