%TF.GenerationSoftware,KiCad,Pcbnew,9.0.7*%
%TF.CreationDate,2026-03-06T23:58:07+08:00*%
%TF.ProjectId,pumper,70756d70-6572-42e6-9b69-6361645f7063,rev?*%
%TF.SameCoordinates,Original*%
%TF.FileFunction,Soldermask,Bot*%
%TF.FilePolarity,Negative*%
%FSLAX46Y46*%
G04 Gerber Fmt 4.6, Leading zero omitted, Abs format (unit mm)*
G04 Created by KiCad (PCBNEW 9.0.7) date 2026-03-06 23:58:07*
%MOMM*%
%LPD*%
G01*
G04 APERTURE LIST*
%ADD10C,1.000000*%
%ADD11C,0.700000*%
%ADD12C,4.400000*%
%ADD13C,1.600000*%
%ADD14C,1.300000*%
%ADD15R,1.950000X1.950000*%
%ADD16C,1.950000*%
%ADD17C,3.300000*%
%ADD18C,0.600000*%
%ADD19O,1.300000X2.300000*%
%ADD20O,1.300000X2.100000*%
%ADD21C,0.500000*%
G04 APERTURE END LIST*
D10*
%TO.C,TP9*%
X134300000Y-89000000D03*
%TD*%
%TO.C,TP8*%
X131400000Y-89000000D03*
%TD*%
%TO.C,TP7*%
X140900000Y-101400000D03*
%TD*%
%TO.C,TP6*%
X140900000Y-104400000D03*
%TD*%
%TO.C,TP5*%
X127200000Y-103400000D03*
%TD*%
%TO.C,TP4*%
X140900000Y-95300000D03*
%TD*%
%TO.C,TP3*%
X131900000Y-69600000D03*
%TD*%
%TO.C,TP2*%
X135900000Y-69600000D03*
%TD*%
%TO.C,TP1*%
X133600000Y-63000000D03*
%TD*%
D11*
%TO.C,H5*%
X123375000Y-143700000D03*
X123858274Y-142533274D03*
X123858274Y-144866726D03*
X125025000Y-142050000D03*
D12*
X125025000Y-143700000D03*
D11*
X125025000Y-145350000D03*
X126191726Y-142533274D03*
X126191726Y-144866726D03*
X126675000Y-143700000D03*
%TD*%
D13*
%TO.C,J2*%
X136950000Y-145050000D03*
X136950000Y-138050000D03*
%TD*%
D11*
%TO.C,H4*%
X151200000Y-56600000D03*
X151683274Y-55433274D03*
X151683274Y-57766726D03*
X152850000Y-54950000D03*
D12*
X152850000Y-56600000D03*
D11*
X152850000Y-58250000D03*
X154016726Y-55433274D03*
X154016726Y-57766726D03*
X154500000Y-56600000D03*
%TD*%
D14*
%TO.C,H1*%
X149100000Y-56300000D03*
%TD*%
D11*
%TO.C,H3*%
X123375000Y-56600000D03*
X123858274Y-55433274D03*
X123858274Y-57766726D03*
X125025000Y-54950000D03*
D12*
X125025000Y-56600000D03*
D11*
X125025000Y-58250000D03*
X126191726Y-55433274D03*
X126191726Y-57766726D03*
X126675000Y-56600000D03*
%TD*%
%TO.C,H6*%
X151200000Y-143700000D03*
X151683274Y-142533274D03*
X151683274Y-144866726D03*
X152850000Y-142050000D03*
D12*
X152850000Y-143700000D03*
D11*
X152850000Y-145350000D03*
X154016726Y-142533274D03*
X154016726Y-144866726D03*
X154500000Y-143700000D03*
%TD*%
D15*
%TO.C,VR1*%
X148050000Y-136900000D03*
D16*
X145550000Y-136900000D03*
X148050000Y-66900000D03*
D15*
X153050000Y-136900000D03*
D16*
X150550000Y-136900000D03*
X153050000Y-66900000D03*
D17*
X149300000Y-126900000D03*
X149300000Y-79400000D03*
%TD*%
D14*
%TO.C,H2*%
X129000000Y-145100000D03*
%TD*%
D18*
%TO.C,J1*%
X136940000Y-59350000D03*
X131160000Y-59350000D03*
D19*
X138380000Y-59870000D03*
D20*
X138380000Y-55670000D03*
D21*
X136050000Y-57050000D03*
X136050000Y-55050000D03*
X132050000Y-57050000D03*
X132050000Y-55050000D03*
D19*
X129720000Y-59870000D03*
D20*
X129720000Y-55670000D03*
%TD*%
M02*
