%TF.GenerationSoftware,KiCad,Pcbnew,9.0.7*%
%TF.CreationDate,2026-02-23T00:53:33+08:00*%
%TF.ProjectId,pumper,70756d70-6572-42e6-9b69-6361645f7063,rev?*%
%TF.SameCoordinates,Original*%
%TF.FileFunction,Soldermask,Bot*%
%TF.FilePolarity,Negative*%
%FSLAX46Y46*%
G04 Gerber Fmt 4.6, Leading zero omitted, Abs format (unit mm)*
G04 Created by KiCad (PCBNEW 9.0.7) date 2026-02-23 00:53:33*
%MOMM*%
%LPD*%
G01*
G04 APERTURE LIST*
G04 Aperture macros list*
%AMRoundRect*
0 Rectangle with rounded corners*
0 $1 Rounding radius*
0 $2 $3 $4 $5 $6 $7 $8 $9 X,Y pos of 4 corners*
0 Add a 4 corners polygon primitive as box body*
4,1,4,$2,$3,$4,$5,$6,$7,$8,$9,$2,$3,0*
0 Add four circle primitives for the rounded corners*
1,1,$1+$1,$2,$3*
1,1,$1+$1,$4,$5*
1,1,$1+$1,$6,$7*
1,1,$1+$1,$8,$9*
0 Add four rect primitives between the rounded corners*
20,1,$1+$1,$2,$3,$4,$5,0*
20,1,$1+$1,$4,$5,$6,$7,0*
20,1,$1+$1,$6,$7,$8,$9,0*
20,1,$1+$1,$8,$9,$2,$3,0*%
G04 Aperture macros list end*
%ADD10C,0.700000*%
%ADD11C,4.400000*%
%ADD12C,1.600000*%
%ADD13C,1.300000*%
%ADD14C,1.700000*%
%ADD15RoundRect,0.250000X0.600000X-0.600000X0.600000X0.600000X-0.600000X0.600000X-0.600000X-0.600000X0*%
%ADD16R,1.950000X1.950000*%
%ADD17C,1.950000*%
%ADD18C,3.300000*%
%ADD19C,0.600000*%
%ADD20O,1.300000X2.300000*%
%ADD21O,1.300000X2.100000*%
%ADD22C,0.500000*%
G04 APERTURE END LIST*
D10*
%TO.C,H5*%
X122975000Y-144100000D03*
X123458274Y-142933274D03*
X123458274Y-145266726D03*
X124625000Y-142450000D03*
D11*
X124625000Y-144100000D03*
D10*
X124625000Y-145750000D03*
X125791726Y-142933274D03*
X125791726Y-145266726D03*
X126275000Y-144100000D03*
%TD*%
D12*
%TO.C,J3*%
X136950000Y-145050000D03*
X136950000Y-138050000D03*
%TD*%
D10*
%TO.C,H4*%
X151600000Y-56200000D03*
X152083274Y-55033274D03*
X152083274Y-57366726D03*
X153250000Y-54550000D03*
D11*
X153250000Y-56200000D03*
D10*
X153250000Y-57850000D03*
X154416726Y-55033274D03*
X154416726Y-57366726D03*
X154900000Y-56200000D03*
%TD*%
D13*
%TO.C,H1*%
X149100000Y-56300000D03*
%TD*%
D10*
%TO.C,H3*%
X122975000Y-56200000D03*
X123458274Y-55033274D03*
X123458274Y-57366726D03*
X124625000Y-54550000D03*
D11*
X124625000Y-56200000D03*
D10*
X124625000Y-57850000D03*
X125791726Y-55033274D03*
X125791726Y-57366726D03*
X126275000Y-56200000D03*
%TD*%
D14*
%TO.C,J2*%
X129210000Y-93850000D03*
D15*
X131750000Y-93850000D03*
D14*
X134290000Y-93850000D03*
%TD*%
D10*
%TO.C,H6*%
X151600000Y-144100000D03*
X152083274Y-142933274D03*
X152083274Y-145266726D03*
X153250000Y-142450000D03*
D11*
X153250000Y-144100000D03*
D10*
X153250000Y-145750000D03*
X154416726Y-142933274D03*
X154416726Y-145266726D03*
X154900000Y-144100000D03*
%TD*%
D16*
%TO.C,VR1*%
X148050000Y-134550000D03*
D17*
X145550000Y-134550000D03*
X148050000Y-64550000D03*
D16*
X153050000Y-134550000D03*
D17*
X150550000Y-134550000D03*
X153050000Y-64550000D03*
D18*
X149300000Y-124550000D03*
X149300000Y-77050000D03*
%TD*%
D13*
%TO.C,H2*%
X129000000Y-145100000D03*
%TD*%
D19*
%TO.C,J1*%
X136940000Y-59350000D03*
X131160000Y-59350000D03*
D20*
X138380000Y-59870000D03*
D21*
X138380000Y-55670000D03*
D22*
X136050000Y-57050000D03*
X136050000Y-55050000D03*
X132050000Y-57050000D03*
X132050000Y-55050000D03*
D20*
X129720000Y-59870000D03*
D21*
X129720000Y-55670000D03*
%TD*%
M02*
