%TF.GenerationSoftware,KiCad,Pcbnew,9.0.7*%
%TF.CreationDate,2026-02-24T17:57:31+08:00*%
%TF.ProjectId,pumper,70756d70-6572-42e6-9b69-6361645f7063,rev?*%
%TF.SameCoordinates,Original*%
%TF.FileFunction,Legend,Top*%
%TF.FilePolarity,Positive*%
%FSLAX46Y46*%
G04 Gerber Fmt 4.6, Leading zero omitted, Abs format (unit mm)*
G04 Created by KiCad (PCBNEW 9.0.7) date 2026-02-24 17:57:31*
%MOMM*%
%LPD*%
G01*
G04 APERTURE LIST*
G04 Aperture macros list*
%AMRoundRect*
0 Rectangle with rounded corners*
0 $1 Rounding radius*
0 $2 $3 $4 $5 $6 $7 $8 $9 X,Y pos of 4 corners*
0 Add a 4 corners polygon primitive as box body*
4,1,4,$2,$3,$4,$5,$6,$7,$8,$9,$2,$3,0*
0 Add four circle primitives for the rounded corners*
1,1,$1+$1,$2,$3*
1,1,$1+$1,$4,$5*
1,1,$1+$1,$6,$7*
1,1,$1+$1,$8,$9*
0 Add four rect primitives between the rounded corners*
20,1,$1+$1,$2,$3,$4,$5,0*
20,1,$1+$1,$4,$5,$6,$7,0*
20,1,$1+$1,$6,$7,$8,$9,0*
20,1,$1+$1,$8,$9,$2,$3,0*%
G04 Aperture macros list end*
%ADD10C,0.180000*%
%ADD11C,0.250000*%
%ADD12C,0.127000*%
%ADD13C,0.200000*%
%ADD14C,0.120000*%
%ADD15C,0.150000*%
%ADD16C,0.100000*%
%ADD17C,0.010000*%
%ADD18RoundRect,0.159000X-0.189000X0.159000X-0.189000X-0.159000X0.189000X-0.159000X0.189000X0.159000X0*%
%ADD19RoundRect,0.159000X-0.159000X-0.189000X0.159000X-0.189000X0.159000X0.189000X-0.159000X0.189000X0*%
%ADD20R,1.000000X1.600000*%
%ADD21RoundRect,0.159000X0.159000X0.189000X-0.159000X0.189000X-0.159000X-0.189000X0.159000X-0.189000X0*%
%ADD22RoundRect,0.159000X0.189000X-0.159000X0.189000X0.159000X-0.189000X0.159000X-0.189000X-0.159000X0*%
%ADD23C,0.700000*%
%ADD24C,4.400000*%
%ADD25RoundRect,0.149250X0.447750X-0.572750X0.447750X0.572750X-0.447750X0.572750X-0.447750X-0.572750X0*%
%ADD26RoundRect,0.099250X0.297750X-0.622750X0.297750X0.622750X-0.297750X0.622750X-0.297750X-0.622750X0*%
%ADD27C,1.600000*%
%ADD28R,2.500000X1.200000*%
%ADD29RoundRect,0.100500X-0.986500X-0.301500X0.986500X-0.301500X0.986500X0.301500X-0.986500X0.301500X0*%
%ADD30R,0.800000X1.520000*%
%ADD31RoundRect,0.093750X-0.093750X-0.106250X0.093750X-0.106250X0.093750X0.106250X-0.093750X0.106250X0*%
%ADD32C,1.300000*%
%ADD33C,1.700000*%
%ADD34RoundRect,0.250000X0.600000X-0.600000X0.600000X0.600000X-0.600000X0.600000X-0.600000X-0.600000X0*%
%ADD35RoundRect,0.220000X0.220000X0.255000X-0.220000X0.255000X-0.220000X-0.255000X0.220000X-0.255000X0*%
%ADD36RoundRect,0.050000X-0.350000X-0.050000X0.350000X-0.050000X0.350000X0.050000X-0.350000X0.050000X0*%
%ADD37RoundRect,0.050000X-0.050000X-0.350000X0.050000X-0.350000X0.050000X0.350000X-0.050000X0.350000X0*%
%ADD38R,3.400000X3.400000*%
%ADD39RoundRect,0.219000X0.294000X-0.219000X0.294000X0.219000X-0.294000X0.219000X-0.294000X-0.219000X0*%
%ADD40R,1.950000X1.950000*%
%ADD41C,1.950000*%
%ADD42C,3.300000*%
%ADD43RoundRect,0.100000X0.100000X-0.637500X0.100000X0.637500X-0.100000X0.637500X-0.100000X-0.637500X0*%
%ADD44RoundRect,0.093750X0.106250X-0.093750X0.106250X0.093750X-0.106250X0.093750X-0.106250X-0.093750X0*%
%ADD45R,1.600000X1.000000*%
%ADD46R,1.400000X1.200000*%
%ADD47RoundRect,0.244000X-0.244000X-0.269000X0.244000X-0.269000X0.244000X0.269000X-0.244000X0.269000X0*%
%ADD48R,0.810000X0.860000*%
%ADD49RoundRect,0.062500X0.062500X-0.187500X0.062500X0.187500X-0.062500X0.187500X-0.062500X-0.187500X0*%
%ADD50R,2.650000X1.000000*%
%ADD51C,0.600000*%
%ADD52R,0.300000X1.400000*%
%ADD53R,0.500000X1.400000*%
%ADD54O,1.300000X2.300000*%
%ADD55O,1.300000X2.100000*%
%ADD56C,0.500000*%
%ADD57RoundRect,0.500000X2.000000X1.000000X-2.000000X1.000000X-2.000000X-1.000000X2.000000X-1.000000X0*%
G04 APERTURE END LIST*
D10*
G36*
X126848704Y-62963199D02*
G01*
X126907242Y-62976024D01*
X126958408Y-62996495D01*
X127005120Y-63025349D01*
X127043784Y-63060421D01*
X127075218Y-63102130D01*
X127098153Y-63148989D01*
X127112303Y-63201941D01*
X127117227Y-63262292D01*
X127111385Y-63328867D01*
X127094493Y-63387862D01*
X127066852Y-63440711D01*
X127029227Y-63486782D01*
X126984322Y-63522648D01*
X126931175Y-63549094D01*
X127131210Y-63980000D01*
X126939541Y-63980000D01*
X126760450Y-63574312D01*
X126633138Y-63574312D01*
X126633138Y-63980000D01*
X126459665Y-63980000D01*
X126459665Y-63420378D01*
X126633138Y-63420378D01*
X126781455Y-63420378D01*
X126829283Y-63415438D01*
X126867247Y-63401705D01*
X126897531Y-63379834D01*
X126920333Y-63350315D01*
X126934485Y-63313697D01*
X126939541Y-63267909D01*
X126934446Y-63222100D01*
X126920102Y-63184971D01*
X126896859Y-63154581D01*
X126866048Y-63131802D01*
X126828241Y-63117668D01*
X126781455Y-63112632D01*
X126633138Y-63112632D01*
X126633138Y-63420378D01*
X126459665Y-63420378D01*
X126459665Y-62958698D01*
X126781455Y-62958698D01*
X126848704Y-62963199D01*
G37*
G36*
X127675710Y-63200990D02*
G01*
X127731487Y-63213771D01*
X127780835Y-63234326D01*
X127825634Y-63263127D01*
X127862694Y-63298178D01*
X127892760Y-63339961D01*
X127914529Y-63386674D01*
X127927963Y-63439194D01*
X127932632Y-63498719D01*
X127932632Y-63638609D01*
X127456969Y-63638609D01*
X127456969Y-63691793D01*
X127462054Y-63742454D01*
X127475905Y-63780903D01*
X127497514Y-63810006D01*
X127526926Y-63831435D01*
X127564408Y-63844977D01*
X127612308Y-63849879D01*
X127664244Y-63844868D01*
X127705303Y-63831011D01*
X127728083Y-63815925D01*
X127742822Y-63797708D01*
X127750793Y-63775751D01*
X127924267Y-63775751D01*
X127910903Y-63823105D01*
X127889477Y-63864825D01*
X127859713Y-63901811D01*
X127820708Y-63934570D01*
X127761270Y-63966913D01*
X127692520Y-63986953D01*
X127612308Y-63993982D01*
X127547910Y-63989518D01*
X127491411Y-63976746D01*
X127441582Y-63956247D01*
X127396456Y-63927326D01*
X127359175Y-63891826D01*
X127328986Y-63849207D01*
X127307266Y-63801565D01*
X127293807Y-63747642D01*
X127289113Y-63686175D01*
X127289113Y-63504337D01*
X127289542Y-63498719D01*
X127456969Y-63498719D01*
X127456969Y-63525341D01*
X127764776Y-63523937D01*
X127764776Y-63497315D01*
X127759888Y-63445534D01*
X127746491Y-63405363D01*
X127725575Y-63374216D01*
X127696779Y-63350814D01*
X127659849Y-63336159D01*
X127612308Y-63330863D01*
X127562880Y-63336302D01*
X127525066Y-63351249D01*
X127496109Y-63374949D01*
X127475202Y-63406503D01*
X127461835Y-63446926D01*
X127456969Y-63498719D01*
X127289542Y-63498719D01*
X127293806Y-63442911D01*
X127307264Y-63389008D01*
X127328986Y-63341366D01*
X127359175Y-63298747D01*
X127396456Y-63263247D01*
X127441582Y-63234326D01*
X127491415Y-63213793D01*
X127547913Y-63201000D01*
X127612308Y-63196530D01*
X127675710Y-63200990D01*
G37*
G36*
X128417943Y-63992578D02*
G01*
X128348912Y-63988158D01*
X128290883Y-63975768D01*
X128242084Y-63956358D01*
X128201055Y-63930357D01*
X128166064Y-63896339D01*
X128141508Y-63857621D01*
X128126525Y-63813260D01*
X128121310Y-63761769D01*
X128293379Y-63761769D01*
X128297221Y-63789933D01*
X128308110Y-63812320D01*
X128326229Y-63830340D01*
X128363403Y-63847564D01*
X128417943Y-63854092D01*
X128479492Y-63854092D01*
X128520954Y-63851037D01*
X128552663Y-63842799D01*
X128576701Y-63830340D01*
X128595676Y-63812212D01*
X128606984Y-63789819D01*
X128610956Y-63761769D01*
X128604524Y-63723975D01*
X128587142Y-63699487D01*
X128559283Y-63683368D01*
X128514480Y-63672192D01*
X128322810Y-63647035D01*
X128263990Y-63632802D01*
X128217439Y-63608935D01*
X128180783Y-63575717D01*
X128153850Y-63533997D01*
X128137087Y-63483884D01*
X128131141Y-63423187D01*
X128136098Y-63369688D01*
X128150099Y-63325071D01*
X128172554Y-63287573D01*
X128203864Y-63256003D01*
X128241254Y-63232104D01*
X128287423Y-63213967D01*
X128344187Y-63202194D01*
X128413729Y-63197934D01*
X128478087Y-63197934D01*
X128542730Y-63202058D01*
X128597843Y-63213689D01*
X128644906Y-63232030D01*
X128685144Y-63256735D01*
X128719972Y-63288993D01*
X128744599Y-63325269D01*
X128760027Y-63366323D01*
X128766294Y-63413417D01*
X128592821Y-63413417D01*
X128588605Y-63390745D01*
X128578088Y-63371680D01*
X128560642Y-63355348D01*
X128526315Y-63339549D01*
X128478087Y-63333672D01*
X128413729Y-63333672D01*
X128362133Y-63340074D01*
X128328367Y-63356753D01*
X128312056Y-63373916D01*
X128302365Y-63394305D01*
X128298996Y-63418974D01*
X128304776Y-63450254D01*
X128320673Y-63470753D01*
X128345636Y-63483792D01*
X128384359Y-63491758D01*
X128564794Y-63516915D01*
X128632866Y-63531825D01*
X128685188Y-63557015D01*
X128725017Y-63591775D01*
X128754046Y-63636159D01*
X128772319Y-63690957D01*
X128778873Y-63758960D01*
X128773717Y-63813708D01*
X128759106Y-63859691D01*
X128735568Y-63898653D01*
X128702608Y-63931762D01*
X128663498Y-63956679D01*
X128614713Y-63975683D01*
X128554199Y-63988076D01*
X128479492Y-63992578D01*
X128417943Y-63992578D01*
G37*
G36*
X129354147Y-63200990D02*
G01*
X129409924Y-63213771D01*
X129459272Y-63234326D01*
X129504071Y-63263127D01*
X129541130Y-63298178D01*
X129571196Y-63339961D01*
X129592966Y-63386674D01*
X129606399Y-63439194D01*
X129611069Y-63498719D01*
X129611069Y-63638609D01*
X129135406Y-63638609D01*
X129135406Y-63691793D01*
X129140491Y-63742454D01*
X129154342Y-63780903D01*
X129175950Y-63810006D01*
X129205363Y-63831435D01*
X129242845Y-63844977D01*
X129290744Y-63849879D01*
X129342681Y-63844868D01*
X129383740Y-63831011D01*
X129406520Y-63815925D01*
X129421259Y-63797708D01*
X129429230Y-63775751D01*
X129602704Y-63775751D01*
X129589340Y-63823105D01*
X129567914Y-63864825D01*
X129538150Y-63901811D01*
X129499145Y-63934570D01*
X129439706Y-63966913D01*
X129370957Y-63986953D01*
X129290744Y-63993982D01*
X129226347Y-63989518D01*
X129169848Y-63976746D01*
X129120019Y-63956247D01*
X129074893Y-63927326D01*
X129037612Y-63891826D01*
X129007423Y-63849207D01*
X128985702Y-63801565D01*
X128972244Y-63747642D01*
X128967550Y-63686175D01*
X128967550Y-63504337D01*
X128967979Y-63498719D01*
X129135406Y-63498719D01*
X129135406Y-63525341D01*
X129443213Y-63523937D01*
X129443213Y-63497315D01*
X129438325Y-63445534D01*
X129424928Y-63405363D01*
X129404012Y-63374216D01*
X129375216Y-63350814D01*
X129338286Y-63336159D01*
X129290744Y-63330863D01*
X129241317Y-63336302D01*
X129203503Y-63351249D01*
X129174546Y-63374949D01*
X129153639Y-63406503D01*
X129140272Y-63446926D01*
X129135406Y-63498719D01*
X128967979Y-63498719D01*
X128972242Y-63442911D01*
X128985700Y-63389008D01*
X129007423Y-63341366D01*
X129037612Y-63298747D01*
X129074893Y-63263247D01*
X129120019Y-63234326D01*
X129169852Y-63213793D01*
X129226350Y-63201000D01*
X129290744Y-63196530D01*
X129354147Y-63200990D01*
G37*
G36*
X130205495Y-63980000D02*
G01*
X130152154Y-63975741D01*
X130106676Y-63963665D01*
X130067674Y-63944360D01*
X130034098Y-63917779D01*
X130006844Y-63884776D01*
X129987122Y-63846432D01*
X129974811Y-63801707D01*
X129970472Y-63749190D01*
X129970472Y-63368599D01*
X129757798Y-63368599D01*
X129757798Y-63210512D01*
X129970472Y-63210512D01*
X129970472Y-62993686D01*
X130146694Y-62993686D01*
X130146694Y-63210512D01*
X130453096Y-63210512D01*
X130453096Y-63368599D01*
X130146694Y-63368599D01*
X130146694Y-63744977D01*
X130151601Y-63776134D01*
X130165561Y-63800237D01*
X130187622Y-63816272D01*
X130218074Y-63821913D01*
X130446135Y-63821913D01*
X130446135Y-63980000D01*
X130205495Y-63980000D01*
G37*
G36*
X146779894Y-142367360D02*
G01*
X146808907Y-142378256D01*
X146831786Y-142395608D01*
X146848597Y-142418964D01*
X146859356Y-142449492D01*
X146863293Y-142489337D01*
X146863293Y-142671175D01*
X146859403Y-142710115D01*
X146848682Y-142740516D01*
X146831786Y-142764293D01*
X146808854Y-142782037D01*
X146779839Y-142793144D01*
X146742943Y-142797144D01*
X146704298Y-142792935D01*
X146674430Y-142781329D01*
X146651290Y-142762889D01*
X146634546Y-142738179D01*
X146623784Y-142706012D01*
X146619844Y-142664214D01*
X146619844Y-142496297D01*
X146623784Y-142454543D01*
X146634546Y-142422416D01*
X146651290Y-142397745D01*
X146674435Y-142379270D01*
X146704303Y-142367644D01*
X146742943Y-142363429D01*
X146779894Y-142367360D01*
G37*
G36*
X147621942Y-142341755D02*
G01*
X147654826Y-142355074D01*
X147679370Y-142376069D01*
X147696866Y-142403981D01*
X147708152Y-142440041D01*
X147712281Y-142486528D01*
X147712281Y-142504724D01*
X147440867Y-142507533D01*
X147440867Y-142489337D01*
X147445111Y-142442904D01*
X147456808Y-142406297D01*
X147475122Y-142377412D01*
X147500656Y-142355577D01*
X147534116Y-142341857D01*
X147578009Y-142336868D01*
X147621942Y-142341755D01*
G37*
G36*
X144283757Y-142130427D02*
G01*
X144318840Y-142144057D01*
X144347714Y-142166203D01*
X144369725Y-142195315D01*
X144382985Y-142228900D01*
X144387587Y-142268297D01*
X144382986Y-142307695D01*
X144369727Y-142341302D01*
X144347714Y-142370451D01*
X144318844Y-142392562D01*
X144283761Y-142406172D01*
X144240675Y-142410996D01*
X144102189Y-142410996D01*
X144102189Y-142125598D01*
X144240675Y-142125598D01*
X144283757Y-142130427D01*
G37*
G36*
X148893481Y-143327925D02*
G01*
X143781212Y-143327925D01*
X143781212Y-142410996D01*
X143892323Y-142410996D01*
X143892323Y-142965000D01*
X144102189Y-142965000D01*
X144102189Y-142665619D01*
X144728733Y-142665619D01*
X144734711Y-142737502D01*
X144751648Y-142798467D01*
X144778746Y-142850507D01*
X144816172Y-142895085D01*
X144862110Y-142930558D01*
X144916668Y-142956626D01*
X144981546Y-142973116D01*
X145058949Y-142978982D01*
X145135577Y-142973187D01*
X145200127Y-142956862D01*
X145254703Y-142931002D01*
X145300933Y-142895757D01*
X145338617Y-142851491D01*
X145365939Y-142799492D01*
X145383052Y-142738230D01*
X145389105Y-142665619D01*
X145389105Y-142195512D01*
X145531620Y-142195512D01*
X145531620Y-142965000D01*
X145712055Y-142965000D01*
X145712055Y-142401165D01*
X145716084Y-142369307D01*
X145726384Y-142349581D01*
X145742163Y-142338173D01*
X145765239Y-142334059D01*
X145786849Y-142338066D01*
X145801808Y-142349296D01*
X145811708Y-142368998D01*
X145815614Y-142401165D01*
X145815614Y-142965000D01*
X145980661Y-142965000D01*
X145980661Y-142401165D01*
X145984566Y-142368998D01*
X145994466Y-142349296D01*
X146009426Y-142338066D01*
X146031036Y-142334059D01*
X146054111Y-142338173D01*
X146069891Y-142349581D01*
X146080190Y-142369307D01*
X146084220Y-142401165D01*
X146084220Y-142965000D01*
X146264715Y-142965000D01*
X146264715Y-142377412D01*
X146259114Y-142321288D01*
X146243299Y-142274864D01*
X146217821Y-142236118D01*
X146183594Y-142205415D01*
X146162515Y-142195512D01*
X146409979Y-142195512D01*
X146409979Y-142496297D01*
X146409979Y-143216814D01*
X146619844Y-143216814D01*
X146619844Y-143006948D01*
X146614227Y-142827918D01*
X146634815Y-142872869D01*
X146661343Y-142909556D01*
X146693972Y-142939110D01*
X146732079Y-142960996D01*
X146775048Y-142974353D01*
X146824092Y-142978982D01*
X146872304Y-142974553D01*
X146915310Y-142961691D01*
X146954152Y-142940514D01*
X146988330Y-142912031D01*
X147017410Y-142876883D01*
X147041591Y-142834207D01*
X147058738Y-142787955D01*
X147069392Y-142736257D01*
X147073098Y-142678197D01*
X147073098Y-142489337D01*
X147240832Y-142489337D01*
X147240832Y-142671175D01*
X147245653Y-142731622D01*
X147259546Y-142785095D01*
X147282109Y-142832803D01*
X147313276Y-142875288D01*
X147352136Y-142911047D01*
X147399590Y-142940514D01*
X147451737Y-142961406D01*
X147510794Y-142974431D01*
X147578009Y-142978982D01*
X147659071Y-142971754D01*
X147729255Y-142951043D01*
X147790622Y-142917433D01*
X147831183Y-142883621D01*
X147862628Y-142845657D01*
X147885839Y-142803094D01*
X147901142Y-142755134D01*
X147695490Y-142755134D01*
X147683523Y-142778918D01*
X147656289Y-142797144D01*
X147620991Y-142807443D01*
X147578009Y-142811127D01*
X147533507Y-142806866D01*
X147500083Y-142795340D01*
X147475122Y-142777543D01*
X147457141Y-142752888D01*
X147445308Y-142718509D01*
X147440867Y-142671175D01*
X147440867Y-142632035D01*
X147912316Y-142632035D01*
X147912316Y-142489337D01*
X147907496Y-142428931D01*
X147893604Y-142375478D01*
X147871039Y-142327770D01*
X147839972Y-142285160D01*
X147801552Y-142249392D01*
X147754963Y-142219998D01*
X147703719Y-142199147D01*
X147687405Y-142195512D01*
X148116381Y-142195512D01*
X148116381Y-142965000D01*
X148326247Y-142965000D01*
X148326247Y-142506128D01*
X148330289Y-142461480D01*
X148341322Y-142427022D01*
X148358426Y-142400493D01*
X148382161Y-142380308D01*
X148411862Y-142367870D01*
X148449345Y-142363429D01*
X148487204Y-142367452D01*
X148516914Y-142378598D01*
X148540326Y-142396341D01*
X148557610Y-142420132D01*
X148568544Y-142450494D01*
X148572505Y-142489337D01*
X148572505Y-142552290D01*
X148782370Y-142552290D01*
X148782370Y-142475354D01*
X148777710Y-142406504D01*
X148764651Y-142348821D01*
X148744160Y-142300444D01*
X148716608Y-142259870D01*
X148681078Y-142225972D01*
X148639773Y-142201777D01*
X148591544Y-142186796D01*
X148534708Y-142181530D01*
X148479210Y-142186612D01*
X148432436Y-142201023D01*
X148392681Y-142224211D01*
X148359578Y-142255903D01*
X148335232Y-142294404D01*
X148319286Y-142341020D01*
X148319286Y-142195512D01*
X148116381Y-142195512D01*
X147687405Y-142195512D01*
X147645181Y-142186104D01*
X147578009Y-142181530D01*
X147510794Y-142186081D01*
X147451737Y-142199106D01*
X147399590Y-142219998D01*
X147352140Y-142249469D01*
X147313280Y-142285247D01*
X147282109Y-142327770D01*
X147259544Y-142375478D01*
X147245652Y-142428931D01*
X147240832Y-142489337D01*
X147073098Y-142489337D01*
X147073098Y-142482315D01*
X147069360Y-142423304D01*
X147058677Y-142371423D01*
X147041591Y-142325633D01*
X147017448Y-142283390D01*
X146988373Y-142248451D01*
X146954152Y-142219998D01*
X146915310Y-142198821D01*
X146872304Y-142185959D01*
X146824092Y-142181530D01*
X146774154Y-142186264D01*
X146730745Y-142199882D01*
X146692568Y-142222135D01*
X146660001Y-142252144D01*
X146633459Y-142289522D01*
X146612822Y-142335464D01*
X146612822Y-142195512D01*
X146409979Y-142195512D01*
X146162515Y-142195512D01*
X146145623Y-142187576D01*
X146102416Y-142181530D01*
X146067437Y-142185565D01*
X146037495Y-142197203D01*
X146011435Y-142216517D01*
X145991152Y-142241869D01*
X145977585Y-142272659D01*
X145970891Y-142310245D01*
X145960231Y-142273608D01*
X145944122Y-142242926D01*
X145922592Y-142217250D01*
X145896152Y-142197257D01*
X145867332Y-142185511D01*
X145835214Y-142181530D01*
X145800426Y-142185804D01*
X145770990Y-142198120D01*
X145745638Y-142218654D01*
X145726071Y-142245180D01*
X145712973Y-142276718D01*
X145706498Y-142314459D01*
X145703689Y-142314459D01*
X145703689Y-142195512D01*
X145531620Y-142195512D01*
X145389105Y-142195512D01*
X145179239Y-142195512D01*
X145179239Y-142664214D01*
X145175292Y-142706007D01*
X145164511Y-142738174D01*
X145147732Y-142762889D01*
X145124691Y-142781458D01*
X145095692Y-142793002D01*
X145058949Y-142797144D01*
X145014346Y-142791466D01*
X144982188Y-142776068D01*
X144959202Y-142751458D01*
X144944246Y-142715567D01*
X144938599Y-142664214D01*
X144938599Y-142195512D01*
X144728733Y-142195512D01*
X144728733Y-142665619D01*
X144102189Y-142665619D01*
X144102189Y-142592834D01*
X144240675Y-142592834D01*
X144311587Y-142588024D01*
X144373616Y-142574285D01*
X144428131Y-142552290D01*
X144477826Y-142521286D01*
X144519047Y-142483450D01*
X144552634Y-142438290D01*
X144577207Y-142387637D01*
X144592253Y-142331382D01*
X144597452Y-142268297D01*
X144592293Y-142204239D01*
X144577450Y-142147794D01*
X144553367Y-142097632D01*
X144520183Y-142052961D01*
X144478993Y-142015333D01*
X144428864Y-141984303D01*
X144373875Y-141962251D01*
X144311585Y-141948503D01*
X144240675Y-141943698D01*
X143892323Y-141943698D01*
X143892323Y-142410996D01*
X143781212Y-142410996D01*
X143781212Y-141832587D01*
X148893481Y-141832587D01*
X148893481Y-143327925D01*
G37*
G36*
X127266249Y-67663695D02*
G01*
X127328669Y-67677779D01*
X127381761Y-67700015D01*
X127426989Y-67730078D01*
X127465239Y-67768797D01*
X127492195Y-67812840D01*
X127508684Y-67863277D01*
X127514428Y-67921748D01*
X127508864Y-67975971D01*
X127492750Y-68023527D01*
X127466129Y-68065851D01*
X127430663Y-68100753D01*
X127389364Y-68124773D01*
X127340955Y-68138574D01*
X127340955Y-68141383D01*
X127395348Y-68155246D01*
X127443109Y-68182660D01*
X127482738Y-68221528D01*
X127513024Y-68270771D01*
X127531815Y-68326680D01*
X127538242Y-68388984D01*
X127533504Y-68446605D01*
X127519849Y-68497518D01*
X127497636Y-68542918D01*
X127467134Y-68583101D01*
X127429195Y-68616780D01*
X127382903Y-68644340D01*
X127332303Y-68663639D01*
X127274454Y-68675748D01*
X127208087Y-68680000D01*
X126879275Y-68680000D01*
X126879275Y-68534492D01*
X127049939Y-68534492D01*
X127198256Y-68534492D01*
X127247969Y-68529461D01*
X127287572Y-68515470D01*
X127319278Y-68493215D01*
X127343326Y-68463129D01*
X127358114Y-68426263D01*
X127363364Y-68380619D01*
X127358175Y-68334861D01*
X127343423Y-68296980D01*
X127319278Y-68265214D01*
X127287357Y-68241326D01*
X127247752Y-68226450D01*
X127198256Y-68221128D01*
X127049939Y-68221128D01*
X127049939Y-68534492D01*
X126879275Y-68534492D01*
X126879275Y-68079834D01*
X127049939Y-68079834D01*
X127189890Y-68079834D01*
X127234158Y-68075351D01*
X127269898Y-68062815D01*
X127298945Y-68042770D01*
X127321127Y-68015632D01*
X127334728Y-67982409D01*
X127339550Y-67941287D01*
X127334835Y-67901053D01*
X127321493Y-67868282D01*
X127299678Y-67841270D01*
X127271016Y-67821310D01*
X127235098Y-67808735D01*
X127189890Y-67804206D01*
X127049939Y-67804206D01*
X127049939Y-68079834D01*
X126879275Y-68079834D01*
X126879275Y-67658698D01*
X127192699Y-67658698D01*
X127266249Y-67663695D01*
G37*
G36*
X128104149Y-67903629D02*
G01*
X128166634Y-67919735D01*
X128219913Y-67945371D01*
X128265475Y-67980488D01*
X128302664Y-68024374D01*
X128329546Y-68075508D01*
X128346325Y-68135315D01*
X128352242Y-68205741D01*
X128352242Y-68384832D01*
X128346358Y-68454486D01*
X128329627Y-68513967D01*
X128302749Y-68565136D01*
X128265475Y-68609352D01*
X128219870Y-68644781D01*
X128166576Y-68670620D01*
X128104106Y-68686843D01*
X128030513Y-68692578D01*
X127956888Y-68686843D01*
X127894387Y-68670620D01*
X127841063Y-68644780D01*
X127795430Y-68609352D01*
X127758184Y-68565139D01*
X127731324Y-68513972D01*
X127714604Y-68454490D01*
X127708723Y-68384832D01*
X127708723Y-68205741D01*
X127709195Y-68200123D01*
X127883601Y-68200123D01*
X127883601Y-68390389D01*
X127888375Y-68437411D01*
X127901476Y-68473672D01*
X127922069Y-68501641D01*
X127949982Y-68522357D01*
X127985400Y-68535399D01*
X128030513Y-68540109D01*
X128075585Y-68535401D01*
X128110985Y-68522360D01*
X128138896Y-68501641D01*
X128159490Y-68473672D01*
X128172590Y-68437411D01*
X128177364Y-68390389D01*
X128177364Y-68200123D01*
X128172592Y-68153142D01*
X128159492Y-68116900D01*
X128138896Y-68088932D01*
X128110985Y-68068213D01*
X128075585Y-68055172D01*
X128030513Y-68050464D01*
X127985400Y-68055174D01*
X127949982Y-68068216D01*
X127922069Y-68088932D01*
X127901473Y-68116900D01*
X127888374Y-68153142D01*
X127883601Y-68200123D01*
X127709195Y-68200123D01*
X127714637Y-68135311D01*
X127731406Y-68075503D01*
X127758269Y-68024370D01*
X127795430Y-67980488D01*
X127841021Y-67945372D01*
X127894330Y-67919735D01*
X127956846Y-67903629D01*
X128030513Y-67897934D01*
X128104149Y-67903629D01*
G37*
G36*
X128943367Y-67903629D02*
G01*
X129005852Y-67919735D01*
X129059131Y-67945371D01*
X129104693Y-67980488D01*
X129141882Y-68024374D01*
X129168764Y-68075508D01*
X129185544Y-68135315D01*
X129191461Y-68205741D01*
X129191461Y-68384832D01*
X129185576Y-68454486D01*
X129168846Y-68513967D01*
X129141968Y-68565136D01*
X129104693Y-68609352D01*
X129059089Y-68644781D01*
X129005794Y-68670620D01*
X128943325Y-68686843D01*
X128869732Y-68692578D01*
X128796107Y-68686843D01*
X128733606Y-68670620D01*
X128680282Y-68644780D01*
X128634648Y-68609352D01*
X128597402Y-68565139D01*
X128570543Y-68513972D01*
X128553823Y-68454490D01*
X128547942Y-68384832D01*
X128547942Y-68205741D01*
X128548414Y-68200123D01*
X128722820Y-68200123D01*
X128722820Y-68390389D01*
X128727594Y-68437411D01*
X128740694Y-68473672D01*
X128761288Y-68501641D01*
X128789200Y-68522357D01*
X128824619Y-68535399D01*
X128869732Y-68540109D01*
X128914803Y-68535401D01*
X128950203Y-68522360D01*
X128978114Y-68501641D01*
X128998708Y-68473672D01*
X129011809Y-68437411D01*
X129016583Y-68390389D01*
X129016583Y-68200123D01*
X129011810Y-68153142D01*
X128998711Y-68116900D01*
X128978114Y-68088932D01*
X128950203Y-68068213D01*
X128914803Y-68055172D01*
X128869732Y-68050464D01*
X128824619Y-68055174D01*
X128789200Y-68068216D01*
X128761288Y-68088932D01*
X128740692Y-68116900D01*
X128727592Y-68153142D01*
X128722820Y-68200123D01*
X128548414Y-68200123D01*
X128553855Y-68135311D01*
X128570624Y-68075503D01*
X128597488Y-68024370D01*
X128634648Y-67980488D01*
X128680239Y-67945372D01*
X128733548Y-67919735D01*
X128796064Y-67903629D01*
X128869732Y-67897934D01*
X128943367Y-67903629D01*
G37*
G36*
X129785887Y-68680000D02*
G01*
X129732545Y-68675741D01*
X129687068Y-68663665D01*
X129648065Y-68644360D01*
X129614489Y-68617779D01*
X129587236Y-68584776D01*
X129567514Y-68546432D01*
X129555202Y-68501707D01*
X129550864Y-68449190D01*
X129550864Y-68068599D01*
X129338189Y-68068599D01*
X129338189Y-67910512D01*
X129550864Y-67910512D01*
X129550864Y-67693686D01*
X129727085Y-67693686D01*
X129727085Y-67910512D01*
X130033488Y-67910512D01*
X130033488Y-68068599D01*
X129727085Y-68068599D01*
X129727085Y-68444977D01*
X129731992Y-68476134D01*
X129745953Y-68500237D01*
X129768013Y-68516272D01*
X129798465Y-68521913D01*
X130026527Y-68521913D01*
X130026527Y-68680000D01*
X129785887Y-68680000D01*
G37*
G36*
X143849783Y-140565000D02*
G01*
X143849783Y-139543698D01*
X144059649Y-139543698D01*
X144059649Y-140376139D01*
X144472358Y-140376139D01*
X144472358Y-140565000D01*
X143849783Y-140565000D01*
G37*
G36*
X144626048Y-140565000D02*
G01*
X144626048Y-140376139D01*
X144880671Y-140376139D01*
X144880671Y-139984434D01*
X144654014Y-139984434D01*
X144654014Y-139795512D01*
X145090537Y-139795512D01*
X145090537Y-140376139D01*
X145311577Y-140376139D01*
X145311577Y-140565000D01*
X144626048Y-140565000D01*
G37*
G36*
X144975743Y-139673818D02*
G01*
X144938566Y-139670249D01*
X144908514Y-139660287D01*
X144884091Y-139644448D01*
X144865247Y-139622830D01*
X144853845Y-139596711D01*
X144849836Y-139564703D01*
X144853845Y-139532695D01*
X144865247Y-139506576D01*
X144884091Y-139484958D01*
X144908514Y-139469118D01*
X144938566Y-139459156D01*
X144975743Y-139455587D01*
X145012960Y-139459159D01*
X145043008Y-139469123D01*
X145067395Y-139484958D01*
X145086239Y-139506576D01*
X145097641Y-139532695D01*
X145101650Y-139564703D01*
X145097641Y-139596711D01*
X145086239Y-139622830D01*
X145067395Y-139644448D01*
X145043008Y-139660283D01*
X145012960Y-139670247D01*
X144975743Y-139673818D01*
G37*
G36*
X145754762Y-139785571D02*
G01*
X145795876Y-139797138D01*
X145831814Y-139815846D01*
X145863359Y-139841391D01*
X145889863Y-139873058D01*
X145911559Y-139911650D01*
X145911559Y-139795512D01*
X146114403Y-139795512D01*
X146114403Y-140545399D01*
X146108656Y-140606930D01*
X146092259Y-140659463D01*
X146065693Y-140704763D01*
X146028369Y-140744030D01*
X145983749Y-140774628D01*
X145930924Y-140797296D01*
X145868328Y-140811691D01*
X145794018Y-140816814D01*
X145570169Y-140816814D01*
X145570169Y-140648958D01*
X145787057Y-140648958D01*
X145825147Y-140645286D01*
X145854556Y-140635233D01*
X145877243Y-140619527D01*
X145894389Y-140598087D01*
X145904977Y-140571558D01*
X145908751Y-140538438D01*
X145908751Y-140509068D01*
X145910155Y-140394335D01*
X145888432Y-140432888D01*
X145861928Y-140464318D01*
X145830410Y-140489467D01*
X145794538Y-140507808D01*
X145753861Y-140519113D01*
X145707311Y-140523051D01*
X145650694Y-140517697D01*
X145601732Y-140502332D01*
X145558908Y-140477282D01*
X145521198Y-140441901D01*
X145491708Y-140399720D01*
X145469947Y-140350060D01*
X145456173Y-140291502D01*
X145451284Y-140222266D01*
X145451284Y-140089337D01*
X145661149Y-140089337D01*
X145661149Y-140215244D01*
X145665032Y-140254147D01*
X145675732Y-140284529D01*
X145692596Y-140308300D01*
X145715593Y-140325985D01*
X145745035Y-140337121D01*
X145782843Y-140341151D01*
X145819715Y-140337170D01*
X145848982Y-140326075D01*
X145872358Y-140308300D01*
X145889646Y-140284472D01*
X145900578Y-140254087D01*
X145904537Y-140215244D01*
X145904537Y-140089337D01*
X145900577Y-140050494D01*
X145889643Y-140020132D01*
X145872358Y-139996341D01*
X145848977Y-139978531D01*
X145819710Y-139967417D01*
X145782843Y-139963429D01*
X145745040Y-139967466D01*
X145715598Y-139978621D01*
X145692596Y-139996341D01*
X145675734Y-140020075D01*
X145665033Y-140050434D01*
X145661149Y-140089337D01*
X145451284Y-140089337D01*
X145451284Y-140082315D01*
X145456145Y-140013867D01*
X145469874Y-139955636D01*
X145491631Y-139905933D01*
X145521198Y-139863412D01*
X145558954Y-139827677D01*
X145601794Y-139802407D01*
X145650740Y-139786923D01*
X145707311Y-139781530D01*
X145754762Y-139785571D01*
G37*
G36*
X146298868Y-140565000D02*
G01*
X146298868Y-139543698D01*
X146508733Y-139543698D01*
X146508733Y-139795512D01*
X146501711Y-139934059D01*
X146518207Y-139890111D01*
X146542552Y-139853387D01*
X146575167Y-139822807D01*
X146613834Y-139800199D01*
X146657919Y-139786350D01*
X146708768Y-139781530D01*
X146763320Y-139786691D01*
X146810578Y-139801512D01*
X146851989Y-139825695D01*
X146888531Y-139859870D01*
X146917324Y-139900654D01*
X146938444Y-139948106D01*
X146951734Y-140003473D01*
X146956430Y-140068332D01*
X146956430Y-140565000D01*
X146746565Y-140565000D01*
X146746565Y-140089337D01*
X146742675Y-140050439D01*
X146731954Y-140020079D01*
X146715057Y-139996341D01*
X146692153Y-139978494D01*
X146663581Y-139967400D01*
X146627679Y-139963429D01*
X146591735Y-139967400D01*
X146563122Y-139978494D01*
X146540179Y-139996341D01*
X146523318Y-140020075D01*
X146512617Y-140050434D01*
X146508733Y-140089337D01*
X146508733Y-140565000D01*
X146298868Y-140565000D01*
G37*
G36*
X147542430Y-140565000D02*
G01*
X147484125Y-140560360D01*
X147434924Y-140547261D01*
X147393198Y-140526419D01*
X147357721Y-140497833D01*
X147329161Y-140462359D01*
X147308338Y-140420644D01*
X147295251Y-140371461D01*
X147290616Y-140313185D01*
X147290616Y-139984434D01*
X147083559Y-139984434D01*
X147083559Y-139795512D01*
X147290616Y-139795512D01*
X147290616Y-139578686D01*
X147500420Y-139578686D01*
X147500420Y-139795512D01*
X147801205Y-139795512D01*
X147801205Y-139984434D01*
X147500420Y-139984434D01*
X147500420Y-140306163D01*
X147504638Y-140334770D01*
X147516479Y-140356538D01*
X147535665Y-140370984D01*
X147563374Y-140376139D01*
X147794244Y-140376139D01*
X147794244Y-140565000D01*
X147542430Y-140565000D01*
G37*
G36*
X147994096Y-140565000D02*
G01*
X147898964Y-139543698D01*
X148065476Y-139543698D01*
X148117195Y-140226418D01*
X148120675Y-140281739D01*
X148124888Y-140355867D01*
X148127025Y-140425109D01*
X148133315Y-140355867D01*
X148140275Y-140281739D01*
X148145221Y-140226418D01*
X148226371Y-139543698D01*
X148385801Y-139543698D01*
X148464203Y-140226418D01*
X148470431Y-140281739D01*
X148478124Y-140355867D01*
X148485146Y-140425109D01*
X148487955Y-140355867D01*
X148491436Y-140281739D01*
X148494977Y-140226418D01*
X148542543Y-139543698D01*
X148710399Y-139543698D01*
X148608306Y-140565000D01*
X148390014Y-140565000D01*
X148321504Y-139886493D01*
X148316558Y-139824211D01*
X148310268Y-139743794D01*
X148304712Y-139669605D01*
X148300499Y-139743794D01*
X148294881Y-139824211D01*
X148289325Y-139886493D01*
X148213731Y-140565000D01*
X147994096Y-140565000D01*
G37*
G36*
X149212055Y-139786125D02*
G01*
X149271032Y-139799189D01*
X149322289Y-139819998D01*
X149368878Y-139849392D01*
X149407297Y-139885160D01*
X149438365Y-139927770D01*
X149460930Y-139975478D01*
X149474822Y-140028931D01*
X149479642Y-140089337D01*
X149479642Y-140271175D01*
X149474821Y-140331622D01*
X149460928Y-140385095D01*
X149438365Y-140432803D01*
X149407301Y-140475375D01*
X149368882Y-140511124D01*
X149322289Y-140540514D01*
X149271032Y-140561323D01*
X149212055Y-140574387D01*
X149143930Y-140578982D01*
X149076716Y-140574419D01*
X149017920Y-140561384D01*
X148966244Y-140540514D01*
X148919219Y-140511086D01*
X148880568Y-140475332D01*
X148849435Y-140432803D01*
X148826871Y-140385095D01*
X148812979Y-140331622D01*
X148808158Y-140271175D01*
X148808158Y-140089337D01*
X149018023Y-140089337D01*
X149018023Y-140271175D01*
X149022054Y-140310006D01*
X149033200Y-140340410D01*
X149050874Y-140364293D01*
X149074719Y-140381964D01*
X149105101Y-140393111D01*
X149143930Y-140397144D01*
X149183662Y-140393064D01*
X149214194Y-140381879D01*
X149237659Y-140364293D01*
X149254943Y-140340463D01*
X149265877Y-140310061D01*
X149269838Y-140271175D01*
X149269838Y-140089337D01*
X149265829Y-140049549D01*
X149254857Y-140019018D01*
X149237659Y-139995608D01*
X149214249Y-139978410D01*
X149183718Y-139967438D01*
X149143930Y-139963429D01*
X149105046Y-139967392D01*
X149074666Y-139978326D01*
X149050874Y-139995608D01*
X149033288Y-140019073D01*
X149022102Y-140049605D01*
X149018023Y-140089337D01*
X148808158Y-140089337D01*
X148812978Y-140028931D01*
X148826869Y-139975478D01*
X148849435Y-139927770D01*
X148880572Y-139885203D01*
X148919223Y-139849429D01*
X148966244Y-139819998D01*
X149017920Y-139799128D01*
X149076716Y-139786093D01*
X149143930Y-139781530D01*
X149212055Y-139786125D01*
G37*
G36*
X150116017Y-140565000D02*
G01*
X150062809Y-140560994D01*
X150015572Y-140549452D01*
X149973318Y-140530744D01*
X149935214Y-140504761D01*
X149903436Y-140472983D01*
X149877453Y-140434879D01*
X149858745Y-140392626D01*
X149847203Y-140345388D01*
X149843198Y-140292180D01*
X149843198Y-139732559D01*
X149598405Y-139732559D01*
X149598405Y-139543698D01*
X150053063Y-139543698D01*
X150053063Y-140285219D01*
X150059090Y-140322654D01*
X150076144Y-140350982D01*
X150102501Y-140369681D01*
X150137022Y-140376139D01*
X150353848Y-140376139D01*
X150353848Y-140565000D01*
X150116017Y-140565000D01*
G37*
G36*
X150668433Y-140565000D02*
G01*
X150668433Y-140089337D01*
X150464185Y-140089337D01*
X150464185Y-139900476D01*
X150668433Y-139900476D01*
X150668433Y-139781530D01*
X150673300Y-139728909D01*
X150687249Y-139683434D01*
X150709941Y-139643712D01*
X150741889Y-139608789D01*
X150780249Y-139581013D01*
X150824341Y-139560787D01*
X150875231Y-139548143D01*
X150934292Y-139543698D01*
X151159483Y-139543698D01*
X151159483Y-139725598D01*
X150941252Y-139725598D01*
X150915542Y-139730117D01*
X150895762Y-139743122D01*
X150882806Y-139762846D01*
X150878299Y-139788551D01*
X150878299Y-139900476D01*
X151159483Y-139900476D01*
X151159483Y-140089337D01*
X150878299Y-140089337D01*
X150878299Y-140565000D01*
X150668433Y-140565000D01*
G37*
D11*
%TO.C,L1*%
X136290000Y-71600000D02*
X135750000Y-71600000D01*
X136290000Y-73200000D02*
X135750000Y-73200000D01*
X135250000Y-73500000D02*
G75*
G02*
X134990000Y-73500000I-130000J0D01*
G01*
X134990000Y-73500000D02*
G75*
G02*
X135250000Y-73500000I130000J0D01*
G01*
D12*
%TO.C,D1*%
X131225000Y-64625000D02*
X131225000Y-65925000D01*
X134375000Y-65925000D02*
X134375000Y-64625000D01*
D13*
X132100000Y-67475000D02*
G75*
G02*
X131900000Y-67475000I-100000J0D01*
G01*
X131900000Y-67475000D02*
G75*
G02*
X132100000Y-67475000I100000J0D01*
G01*
D12*
%TO.C,U8*%
X129705000Y-129750000D02*
X128900000Y-129750000D01*
X129705000Y-132750000D02*
X128900000Y-132750000D01*
X131900000Y-129750000D02*
X131095000Y-129750000D01*
X131900000Y-132750000D02*
X131095000Y-132750000D01*
D13*
X132895000Y-132450000D02*
G75*
G02*
X132695000Y-132450000I-100000J0D01*
G01*
X132695000Y-132450000D02*
G75*
G02*
X132895000Y-132450000I100000J0D01*
G01*
D14*
%TO.C,J3*%
X133780000Y-134430000D02*
X133780000Y-135650000D01*
X133780000Y-134430000D02*
X141450000Y-134430000D01*
X133780000Y-139650000D02*
X133780000Y-137250000D01*
X133780000Y-142650000D02*
X133780000Y-141250000D01*
X133780000Y-146770000D02*
X133780000Y-144250000D01*
X134330000Y-146770000D02*
X133780000Y-146770000D01*
X134330000Y-148770000D02*
X134330000Y-146770000D01*
X139570000Y-146770000D02*
X139570000Y-148770000D01*
X139570000Y-148770000D02*
X134330000Y-148770000D01*
X140120000Y-136150000D02*
X140120000Y-146770000D01*
X140120000Y-146770000D02*
X139570000Y-146770000D01*
X141450000Y-136150000D02*
X140120000Y-136150000D01*
D12*
%TO.C,U6*%
X130605000Y-117855000D02*
X134505000Y-117855000D01*
X130605000Y-122905000D02*
X134505000Y-122905000D01*
D13*
X128615000Y-118075000D02*
G75*
G02*
X128415000Y-118075000I-100000J0D01*
G01*
X128415000Y-118075000D02*
G75*
G02*
X128615000Y-118075000I100000J0D01*
G01*
D11*
%TO.C,SW2*%
X126950000Y-66650000D02*
X129950000Y-66650000D01*
X129950000Y-64650000D02*
X126950000Y-64650000D01*
X129090000Y-65650000D02*
G75*
G02*
X127810000Y-65650000I-640000J0D01*
G01*
X127810000Y-65650000D02*
G75*
G02*
X129090000Y-65650000I640000J0D01*
G01*
D14*
%TO.C,U2*%
X126350000Y-97190000D02*
X128350000Y-97190000D01*
X126350000Y-99410000D02*
X128350000Y-99410000D01*
X126110000Y-97290000D02*
X125830000Y-97290000D01*
X126110000Y-97010000D01*
X126110000Y-97290000D01*
G36*
X126110000Y-97290000D02*
G01*
X125830000Y-97290000D01*
X126110000Y-97010000D01*
X126110000Y-97290000D01*
G37*
%TO.C,J2*%
X127838400Y-92470000D02*
X135670000Y-92470000D01*
X127838400Y-95230000D02*
X127838400Y-92470000D01*
X127838400Y-95230000D02*
X135670000Y-95230000D01*
X135670000Y-95230000D02*
X135670000Y-92470000D01*
D15*
%TO.C,FB1*%
X132800000Y-109290000D02*
X132480000Y-109290000D01*
X132800000Y-110310000D02*
X132480000Y-110310000D01*
D14*
%TO.C,U4*%
X130140000Y-77590000D02*
X130140000Y-77380000D01*
X130140000Y-84360000D02*
X130140000Y-83910000D01*
X130590000Y-77140000D02*
X130440000Y-77140000D01*
X130590000Y-84360000D02*
X130140000Y-84360000D01*
X136910000Y-77140000D02*
X137360000Y-77140000D01*
X136910000Y-84360000D02*
X137360000Y-84360000D01*
X137360000Y-77140000D02*
X137360000Y-77590000D01*
X137360000Y-84360000D02*
X137360000Y-83910000D01*
X130140000Y-77140000D02*
X129900000Y-76810000D01*
X130380000Y-76810000D01*
X130140000Y-77140000D01*
G36*
X130140000Y-77140000D02*
G01*
X129900000Y-76810000D01*
X130380000Y-76810000D01*
X130140000Y-77140000D01*
G37*
D16*
%TO.C,VR1*%
X144800000Y-62050000D02*
X144800000Y-133550000D01*
X144800000Y-135550000D02*
X144800000Y-137050000D01*
X144800000Y-137050000D02*
X153800000Y-137050000D01*
X153800000Y-62050000D02*
X144800000Y-62050000D01*
X153800000Y-63550000D02*
X153800000Y-62050000D01*
X153800000Y-133550000D02*
X153800000Y-65550000D01*
X153800000Y-137050000D02*
X153800000Y-135550000D01*
D14*
%TO.C,U7*%
X126305000Y-104712500D02*
X126305000Y-102512500D01*
X126305000Y-104712500D02*
X126305000Y-106912500D01*
X133075000Y-104712500D02*
X133075000Y-102512500D01*
X133075000Y-104712500D02*
X133075000Y-106912500D01*
X127005000Y-108902500D02*
X126525000Y-108902500D01*
X126765000Y-108572500D01*
X127005000Y-108902500D01*
G36*
X127005000Y-108902500D02*
G01*
X126525000Y-108902500D01*
X126765000Y-108572500D01*
X127005000Y-108902500D01*
G37*
%TO.C,U1*%
X137990000Y-69825000D02*
X137990000Y-67825000D01*
X140210000Y-69825000D02*
X140210000Y-67825000D01*
X138090000Y-70345000D02*
X137810000Y-70065000D01*
X138090000Y-70065000D01*
X138090000Y-70345000D01*
G36*
X138090000Y-70345000D02*
G01*
X137810000Y-70065000D01*
X138090000Y-70065000D01*
X138090000Y-70345000D01*
G37*
D15*
%TO.C,U5*%
X129340000Y-89150000D02*
X129340000Y-90810000D01*
X129340000Y-90810000D02*
X131200000Y-90810000D01*
X129570000Y-87220000D02*
X133630000Y-87220000D01*
X129570000Y-90580000D02*
X129570000Y-87220000D01*
X133630000Y-87220000D02*
X133630000Y-90580000D01*
X133630000Y-90580000D02*
X129570000Y-90580000D01*
%TO.C,F1*%
X136250000Y-64370000D02*
X136250000Y-65130000D01*
X137270000Y-64120000D02*
X136510000Y-64120000D01*
X137270000Y-65380000D02*
X136510000Y-65380000D01*
X138030000Y-64120000D02*
X138790000Y-64120000D01*
X138030000Y-65380000D02*
X138790000Y-65380000D01*
X139050000Y-64370000D02*
X139050000Y-65130000D01*
X137619706Y-64813773D02*
G75*
G02*
X137780000Y-64370000I130294J203773D01*
G01*
X137619708Y-64813773D02*
G75*
G02*
X137522870Y-65246803I-49708J-216227D01*
G01*
D11*
%TO.C,SW1*%
X126950000Y-71350000D02*
X129950000Y-71350000D01*
X129950000Y-69350000D02*
X126950000Y-69350000D01*
X129090000Y-70350000D02*
G75*
G02*
X127810000Y-70350000I-640000J0D01*
G01*
X127810000Y-70350000D02*
G75*
G02*
X129090000Y-70350000I640000J0D01*
G01*
D14*
%TO.C,U3*%
X136560000Y-107850000D02*
X136560000Y-105850000D01*
X139840000Y-107850000D02*
X139840000Y-105850000D01*
X136630000Y-108500000D02*
X136350000Y-108220000D01*
X136630000Y-108220000D01*
X136630000Y-108500000D01*
G36*
X136630000Y-108500000D02*
G01*
X136350000Y-108220000D01*
X136630000Y-108220000D01*
X136630000Y-108500000D01*
G37*
%TD*%
%LPC*%
D17*
%TO.C,U8*%
X129370000Y-130440000D02*
X128630000Y-130440000D01*
X128630000Y-130060000D01*
X129370000Y-130060000D01*
X129370000Y-130440000D01*
G36*
X129370000Y-130440000D02*
G01*
X128630000Y-130440000D01*
X128630000Y-130060000D01*
X129370000Y-130060000D01*
X129370000Y-130440000D01*
G37*
X129370000Y-130940000D02*
X128630000Y-130940000D01*
X128630000Y-130560000D01*
X129370000Y-130560000D01*
X129370000Y-130940000D01*
G36*
X129370000Y-130940000D02*
G01*
X128630000Y-130940000D01*
X128630000Y-130560000D01*
X129370000Y-130560000D01*
X129370000Y-130940000D01*
G37*
X129370000Y-131440000D02*
X128630000Y-131440000D01*
X128630000Y-131060000D01*
X129370000Y-131060000D01*
X129370000Y-131440000D01*
G36*
X129370000Y-131440000D02*
G01*
X128630000Y-131440000D01*
X128630000Y-131060000D01*
X129370000Y-131060000D01*
X129370000Y-131440000D01*
G37*
X129370000Y-131940000D02*
X128630000Y-131940000D01*
X128630000Y-131560000D01*
X129370000Y-131560000D01*
X129370000Y-131940000D01*
G36*
X129370000Y-131940000D02*
G01*
X128630000Y-131940000D01*
X128630000Y-131560000D01*
X129370000Y-131560000D01*
X129370000Y-131940000D01*
G37*
X129370000Y-132440000D02*
X128630000Y-132440000D01*
X128630000Y-132060000D01*
X129370000Y-132060000D01*
X129370000Y-132440000D01*
G36*
X129370000Y-132440000D02*
G01*
X128630000Y-132440000D01*
X128630000Y-132060000D01*
X129370000Y-132060000D01*
X129370000Y-132440000D01*
G37*
X132170000Y-130440000D02*
X131430000Y-130440000D01*
X131430000Y-130060000D01*
X132170000Y-130060000D01*
X132170000Y-130440000D01*
G36*
X132170000Y-130440000D02*
G01*
X131430000Y-130440000D01*
X131430000Y-130060000D01*
X132170000Y-130060000D01*
X132170000Y-130440000D01*
G37*
X132170000Y-130940000D02*
X131430000Y-130940000D01*
X131430000Y-130560000D01*
X132170000Y-130560000D01*
X132170000Y-130940000D01*
G36*
X132170000Y-130940000D02*
G01*
X131430000Y-130940000D01*
X131430000Y-130560000D01*
X132170000Y-130560000D01*
X132170000Y-130940000D01*
G37*
X132170000Y-131440000D02*
X131430000Y-131440000D01*
X131430000Y-131060000D01*
X132170000Y-131060000D01*
X132170000Y-131440000D01*
G36*
X132170000Y-131440000D02*
G01*
X131430000Y-131440000D01*
X131430000Y-131060000D01*
X132170000Y-131060000D01*
X132170000Y-131440000D01*
G37*
X132170000Y-131940000D02*
X131430000Y-131940000D01*
X131430000Y-131560000D01*
X132170000Y-131560000D01*
X132170000Y-131940000D01*
G36*
X132170000Y-131940000D02*
G01*
X131430000Y-131940000D01*
X131430000Y-131560000D01*
X132170000Y-131560000D01*
X132170000Y-131940000D01*
G37*
X132170000Y-132440000D02*
X131430000Y-132440000D01*
X131430000Y-132060000D01*
X132170000Y-132060000D01*
X132170000Y-132440000D01*
G36*
X132170000Y-132440000D02*
G01*
X131430000Y-132440000D01*
X131430000Y-132060000D01*
X132170000Y-132060000D01*
X132170000Y-132440000D01*
G37*
X130345000Y-129980000D02*
X130455000Y-129980000D01*
X130455000Y-129480000D01*
X130845000Y-129480000D01*
X130845000Y-129980000D01*
X131295000Y-129980000D01*
X131295000Y-132520000D01*
X130845000Y-132520000D01*
X130845000Y-133020000D01*
X130455000Y-133020000D01*
X130455000Y-132520000D01*
X130345000Y-132520000D01*
X130345000Y-133020000D01*
X129955000Y-133020000D01*
X129955000Y-132520000D01*
X129505000Y-132520000D01*
X129505000Y-129980000D01*
X129955000Y-129980000D01*
X129955000Y-129480000D01*
X130345000Y-129480000D01*
X130345000Y-129980000D01*
G36*
X130345000Y-129980000D02*
G01*
X130455000Y-129980000D01*
X130455000Y-129480000D01*
X130845000Y-129480000D01*
X130845000Y-129980000D01*
X131295000Y-129980000D01*
X131295000Y-132520000D01*
X130845000Y-132520000D01*
X130845000Y-133020000D01*
X130455000Y-133020000D01*
X130455000Y-132520000D01*
X130345000Y-132520000D01*
X130345000Y-133020000D01*
X129955000Y-133020000D01*
X129955000Y-132520000D01*
X129505000Y-132520000D01*
X129505000Y-129980000D01*
X129955000Y-129980000D01*
X129955000Y-129480000D01*
X130345000Y-129480000D01*
X130345000Y-129980000D01*
G37*
%TO.C,D3*%
X131113000Y-140231000D02*
X131119000Y-140231000D01*
X131125000Y-140233000D01*
X131131000Y-140234000D01*
X131137000Y-140236000D01*
X131143000Y-140238000D01*
X131149000Y-140240000D01*
X131154000Y-140243000D01*
X131160000Y-140246000D01*
X131165000Y-140249000D01*
X131171000Y-140253000D01*
X131176000Y-140257000D01*
X131180000Y-140261000D01*
X131185000Y-140265000D01*
X131189000Y-140270000D01*
X131193000Y-140274000D01*
X131197000Y-140279000D01*
X131201000Y-140285000D01*
X131204000Y-140290000D01*
X131207000Y-140296000D01*
X131210000Y-140301000D01*
X131212000Y-140307000D01*
X131214000Y-140313000D01*
X131216000Y-140319000D01*
X131217000Y-140325000D01*
X131219000Y-140331000D01*
X131219000Y-140337000D01*
X131220000Y-140344000D01*
X131220000Y-140350000D01*
X131220000Y-140550000D01*
X131220000Y-140556000D01*
X131219000Y-140563000D01*
X131219000Y-140569000D01*
X131217000Y-140575000D01*
X131216000Y-140581000D01*
X131214000Y-140587000D01*
X131212000Y-140593000D01*
X131210000Y-140599000D01*
X131207000Y-140604000D01*
X131204000Y-140610000D01*
X131201000Y-140615000D01*
X131197000Y-140621000D01*
X131193000Y-140626000D01*
X131189000Y-140630000D01*
X131185000Y-140635000D01*
X131180000Y-140639000D01*
X131176000Y-140643000D01*
X131171000Y-140647000D01*
X131165000Y-140651000D01*
X131160000Y-140654000D01*
X131154000Y-140657000D01*
X131149000Y-140660000D01*
X131143000Y-140662000D01*
X131137000Y-140664000D01*
X131131000Y-140666000D01*
X131125000Y-140667000D01*
X131119000Y-140669000D01*
X131113000Y-140669000D01*
X131106000Y-140670000D01*
X131100000Y-140670000D01*
X130700000Y-140670000D01*
X130694000Y-140670000D01*
X130687000Y-140669000D01*
X130681000Y-140669000D01*
X130675000Y-140667000D01*
X130669000Y-140666000D01*
X130663000Y-140664000D01*
X130657000Y-140662000D01*
X130651000Y-140660000D01*
X130646000Y-140657000D01*
X130640000Y-140654000D01*
X130635000Y-140651000D01*
X130629000Y-140647000D01*
X130624000Y-140643000D01*
X130620000Y-140639000D01*
X130615000Y-140635000D01*
X130611000Y-140630000D01*
X130607000Y-140626000D01*
X130603000Y-140621000D01*
X130599000Y-140615000D01*
X130596000Y-140610000D01*
X130593000Y-140604000D01*
X130590000Y-140599000D01*
X130588000Y-140593000D01*
X130586000Y-140587000D01*
X130584000Y-140581000D01*
X130583000Y-140575000D01*
X130581000Y-140569000D01*
X130581000Y-140563000D01*
X130580000Y-140556000D01*
X130580000Y-140550000D01*
X130580000Y-140350000D01*
X130580000Y-140344000D01*
X130581000Y-140337000D01*
X130581000Y-140331000D01*
X130583000Y-140325000D01*
X130584000Y-140319000D01*
X130586000Y-140313000D01*
X130588000Y-140307000D01*
X130590000Y-140301000D01*
X130593000Y-140296000D01*
X130596000Y-140290000D01*
X130599000Y-140285000D01*
X130603000Y-140279000D01*
X130607000Y-140274000D01*
X130611000Y-140270000D01*
X130615000Y-140265000D01*
X130620000Y-140261000D01*
X130624000Y-140257000D01*
X130629000Y-140253000D01*
X130635000Y-140249000D01*
X130640000Y-140246000D01*
X130646000Y-140243000D01*
X130651000Y-140240000D01*
X130657000Y-140238000D01*
X130663000Y-140236000D01*
X130669000Y-140234000D01*
X130675000Y-140233000D01*
X130681000Y-140231000D01*
X130687000Y-140231000D01*
X130694000Y-140230000D01*
X130700000Y-140230000D01*
X131100000Y-140230000D01*
X131106000Y-140230000D01*
X131113000Y-140231000D01*
G36*
X131113000Y-140231000D02*
G01*
X131119000Y-140231000D01*
X131125000Y-140233000D01*
X131131000Y-140234000D01*
X131137000Y-140236000D01*
X131143000Y-140238000D01*
X131149000Y-140240000D01*
X131154000Y-140243000D01*
X131160000Y-140246000D01*
X131165000Y-140249000D01*
X131171000Y-140253000D01*
X131176000Y-140257000D01*
X131180000Y-140261000D01*
X131185000Y-140265000D01*
X131189000Y-140270000D01*
X131193000Y-140274000D01*
X131197000Y-140279000D01*
X131201000Y-140285000D01*
X131204000Y-140290000D01*
X131207000Y-140296000D01*
X131210000Y-140301000D01*
X131212000Y-140307000D01*
X131214000Y-140313000D01*
X131216000Y-140319000D01*
X131217000Y-140325000D01*
X131219000Y-140331000D01*
X131219000Y-140337000D01*
X131220000Y-140344000D01*
X131220000Y-140350000D01*
X131220000Y-140550000D01*
X131220000Y-140556000D01*
X131219000Y-140563000D01*
X131219000Y-140569000D01*
X131217000Y-140575000D01*
X131216000Y-140581000D01*
X131214000Y-140587000D01*
X131212000Y-140593000D01*
X131210000Y-140599000D01*
X131207000Y-140604000D01*
X131204000Y-140610000D01*
X131201000Y-140615000D01*
X131197000Y-140621000D01*
X131193000Y-140626000D01*
X131189000Y-140630000D01*
X131185000Y-140635000D01*
X131180000Y-140639000D01*
X131176000Y-140643000D01*
X131171000Y-140647000D01*
X131165000Y-140651000D01*
X131160000Y-140654000D01*
X131154000Y-140657000D01*
X131149000Y-140660000D01*
X131143000Y-140662000D01*
X131137000Y-140664000D01*
X131131000Y-140666000D01*
X131125000Y-140667000D01*
X131119000Y-140669000D01*
X131113000Y-140669000D01*
X131106000Y-140670000D01*
X131100000Y-140670000D01*
X130700000Y-140670000D01*
X130694000Y-140670000D01*
X130687000Y-140669000D01*
X130681000Y-140669000D01*
X130675000Y-140667000D01*
X130669000Y-140666000D01*
X130663000Y-140664000D01*
X130657000Y-140662000D01*
X130651000Y-140660000D01*
X130646000Y-140657000D01*
X130640000Y-140654000D01*
X130635000Y-140651000D01*
X130629000Y-140647000D01*
X130624000Y-140643000D01*
X130620000Y-140639000D01*
X130615000Y-140635000D01*
X130611000Y-140630000D01*
X130607000Y-140626000D01*
X130603000Y-140621000D01*
X130599000Y-140615000D01*
X130596000Y-140610000D01*
X130593000Y-140604000D01*
X130590000Y-140599000D01*
X130588000Y-140593000D01*
X130586000Y-140587000D01*
X130584000Y-140581000D01*
X130583000Y-140575000D01*
X130581000Y-140569000D01*
X130581000Y-140563000D01*
X130580000Y-140556000D01*
X130580000Y-140550000D01*
X130580000Y-140350000D01*
X130580000Y-140344000D01*
X130581000Y-140337000D01*
X130581000Y-140331000D01*
X130583000Y-140325000D01*
X130584000Y-140319000D01*
X130586000Y-140313000D01*
X130588000Y-140307000D01*
X130590000Y-140301000D01*
X130593000Y-140296000D01*
X130596000Y-140290000D01*
X130599000Y-140285000D01*
X130603000Y-140279000D01*
X130607000Y-140274000D01*
X130611000Y-140270000D01*
X130615000Y-140265000D01*
X130620000Y-140261000D01*
X130624000Y-140257000D01*
X130629000Y-140253000D01*
X130635000Y-140249000D01*
X130640000Y-140246000D01*
X130646000Y-140243000D01*
X130651000Y-140240000D01*
X130657000Y-140238000D01*
X130663000Y-140236000D01*
X130669000Y-140234000D01*
X130675000Y-140233000D01*
X130681000Y-140231000D01*
X130687000Y-140231000D01*
X130694000Y-140230000D01*
X130700000Y-140230000D01*
X131100000Y-140230000D01*
X131106000Y-140230000D01*
X131113000Y-140231000D01*
G37*
X131113000Y-140931000D02*
X131119000Y-140931000D01*
X131125000Y-140933000D01*
X131131000Y-140934000D01*
X131137000Y-140936000D01*
X131143000Y-140938000D01*
X131149000Y-140940000D01*
X131154000Y-140943000D01*
X131160000Y-140946000D01*
X131165000Y-140949000D01*
X131171000Y-140953000D01*
X131176000Y-140957000D01*
X131180000Y-140961000D01*
X131185000Y-140965000D01*
X131189000Y-140970000D01*
X131193000Y-140974000D01*
X131197000Y-140979000D01*
X131201000Y-140985000D01*
X131204000Y-140990000D01*
X131207000Y-140996000D01*
X131210000Y-141001000D01*
X131212000Y-141007000D01*
X131214000Y-141013000D01*
X131216000Y-141019000D01*
X131217000Y-141025000D01*
X131219000Y-141031000D01*
X131219000Y-141037000D01*
X131220000Y-141044000D01*
X131220000Y-141050000D01*
X131220000Y-141250000D01*
X131220000Y-141256000D01*
X131219000Y-141263000D01*
X131219000Y-141269000D01*
X131217000Y-141275000D01*
X131216000Y-141281000D01*
X131214000Y-141287000D01*
X131212000Y-141293000D01*
X131210000Y-141299000D01*
X131207000Y-141304000D01*
X131204000Y-141310000D01*
X131201000Y-141315000D01*
X131197000Y-141321000D01*
X131193000Y-141326000D01*
X131189000Y-141330000D01*
X131185000Y-141335000D01*
X131180000Y-141339000D01*
X131176000Y-141343000D01*
X131171000Y-141347000D01*
X131165000Y-141351000D01*
X131160000Y-141354000D01*
X131154000Y-141357000D01*
X131149000Y-141360000D01*
X131143000Y-141362000D01*
X131137000Y-141364000D01*
X131131000Y-141366000D01*
X131125000Y-141367000D01*
X131119000Y-141369000D01*
X131113000Y-141369000D01*
X131106000Y-141370000D01*
X131100000Y-141370000D01*
X130700000Y-141370000D01*
X130694000Y-141370000D01*
X130687000Y-141369000D01*
X130681000Y-141369000D01*
X130675000Y-141367000D01*
X130669000Y-141366000D01*
X130663000Y-141364000D01*
X130657000Y-141362000D01*
X130651000Y-141360000D01*
X130646000Y-141357000D01*
X130640000Y-141354000D01*
X130635000Y-141351000D01*
X130629000Y-141347000D01*
X130624000Y-141343000D01*
X130620000Y-141339000D01*
X130615000Y-141335000D01*
X130611000Y-141330000D01*
X130607000Y-141326000D01*
X130603000Y-141321000D01*
X130599000Y-141315000D01*
X130596000Y-141310000D01*
X130593000Y-141304000D01*
X130590000Y-141299000D01*
X130588000Y-141293000D01*
X130586000Y-141287000D01*
X130584000Y-141281000D01*
X130583000Y-141275000D01*
X130581000Y-141269000D01*
X130581000Y-141263000D01*
X130580000Y-141256000D01*
X130580000Y-141250000D01*
X130580000Y-141050000D01*
X130580000Y-141044000D01*
X130581000Y-141037000D01*
X130581000Y-141031000D01*
X130583000Y-141025000D01*
X130584000Y-141019000D01*
X130586000Y-141013000D01*
X130588000Y-141007000D01*
X130590000Y-141001000D01*
X130593000Y-140996000D01*
X130596000Y-140990000D01*
X130599000Y-140985000D01*
X130603000Y-140979000D01*
X130607000Y-140974000D01*
X130611000Y-140970000D01*
X130615000Y-140965000D01*
X130620000Y-140961000D01*
X130624000Y-140957000D01*
X130629000Y-140953000D01*
X130635000Y-140949000D01*
X130640000Y-140946000D01*
X130646000Y-140943000D01*
X130651000Y-140940000D01*
X130657000Y-140938000D01*
X130663000Y-140936000D01*
X130669000Y-140934000D01*
X130675000Y-140933000D01*
X130681000Y-140931000D01*
X130687000Y-140931000D01*
X130694000Y-140930000D01*
X130700000Y-140930000D01*
X131100000Y-140930000D01*
X131106000Y-140930000D01*
X131113000Y-140931000D01*
G36*
X131113000Y-140931000D02*
G01*
X131119000Y-140931000D01*
X131125000Y-140933000D01*
X131131000Y-140934000D01*
X131137000Y-140936000D01*
X131143000Y-140938000D01*
X131149000Y-140940000D01*
X131154000Y-140943000D01*
X131160000Y-140946000D01*
X131165000Y-140949000D01*
X131171000Y-140953000D01*
X131176000Y-140957000D01*
X131180000Y-140961000D01*
X131185000Y-140965000D01*
X131189000Y-140970000D01*
X131193000Y-140974000D01*
X131197000Y-140979000D01*
X131201000Y-140985000D01*
X131204000Y-140990000D01*
X131207000Y-140996000D01*
X131210000Y-141001000D01*
X131212000Y-141007000D01*
X131214000Y-141013000D01*
X131216000Y-141019000D01*
X131217000Y-141025000D01*
X131219000Y-141031000D01*
X131219000Y-141037000D01*
X131220000Y-141044000D01*
X131220000Y-141050000D01*
X131220000Y-141250000D01*
X131220000Y-141256000D01*
X131219000Y-141263000D01*
X131219000Y-141269000D01*
X131217000Y-141275000D01*
X131216000Y-141281000D01*
X131214000Y-141287000D01*
X131212000Y-141293000D01*
X131210000Y-141299000D01*
X131207000Y-141304000D01*
X131204000Y-141310000D01*
X131201000Y-141315000D01*
X131197000Y-141321000D01*
X131193000Y-141326000D01*
X131189000Y-141330000D01*
X131185000Y-141335000D01*
X131180000Y-141339000D01*
X131176000Y-141343000D01*
X131171000Y-141347000D01*
X131165000Y-141351000D01*
X131160000Y-141354000D01*
X131154000Y-141357000D01*
X131149000Y-141360000D01*
X131143000Y-141362000D01*
X131137000Y-141364000D01*
X131131000Y-141366000D01*
X131125000Y-141367000D01*
X131119000Y-141369000D01*
X131113000Y-141369000D01*
X131106000Y-141370000D01*
X131100000Y-141370000D01*
X130700000Y-141370000D01*
X130694000Y-141370000D01*
X130687000Y-141369000D01*
X130681000Y-141369000D01*
X130675000Y-141367000D01*
X130669000Y-141366000D01*
X130663000Y-141364000D01*
X130657000Y-141362000D01*
X130651000Y-141360000D01*
X130646000Y-141357000D01*
X130640000Y-141354000D01*
X130635000Y-141351000D01*
X130629000Y-141347000D01*
X130624000Y-141343000D01*
X130620000Y-141339000D01*
X130615000Y-141335000D01*
X130611000Y-141330000D01*
X130607000Y-141326000D01*
X130603000Y-141321000D01*
X130599000Y-141315000D01*
X130596000Y-141310000D01*
X130593000Y-141304000D01*
X130590000Y-141299000D01*
X130588000Y-141293000D01*
X130586000Y-141287000D01*
X130584000Y-141281000D01*
X130583000Y-141275000D01*
X130581000Y-141269000D01*
X130581000Y-141263000D01*
X130580000Y-141256000D01*
X130580000Y-141250000D01*
X130580000Y-141050000D01*
X130580000Y-141044000D01*
X130581000Y-141037000D01*
X130581000Y-141031000D01*
X130583000Y-141025000D01*
X130584000Y-141019000D01*
X130586000Y-141013000D01*
X130588000Y-141007000D01*
X130590000Y-141001000D01*
X130593000Y-140996000D01*
X130596000Y-140990000D01*
X130599000Y-140985000D01*
X130603000Y-140979000D01*
X130607000Y-140974000D01*
X130611000Y-140970000D01*
X130615000Y-140965000D01*
X130620000Y-140961000D01*
X130624000Y-140957000D01*
X130629000Y-140953000D01*
X130635000Y-140949000D01*
X130640000Y-140946000D01*
X130646000Y-140943000D01*
X130651000Y-140940000D01*
X130657000Y-140938000D01*
X130663000Y-140936000D01*
X130669000Y-140934000D01*
X130675000Y-140933000D01*
X130681000Y-140931000D01*
X130687000Y-140931000D01*
X130694000Y-140930000D01*
X130700000Y-140930000D01*
X131100000Y-140930000D01*
X131106000Y-140930000D01*
X131113000Y-140931000D01*
G37*
%TO.C,D2*%
X131113000Y-136231000D02*
X131119000Y-136231000D01*
X131125000Y-136233000D01*
X131131000Y-136234000D01*
X131137000Y-136236000D01*
X131143000Y-136238000D01*
X131149000Y-136240000D01*
X131154000Y-136243000D01*
X131160000Y-136246000D01*
X131165000Y-136249000D01*
X131171000Y-136253000D01*
X131176000Y-136257000D01*
X131180000Y-136261000D01*
X131185000Y-136265000D01*
X131189000Y-136270000D01*
X131193000Y-136274000D01*
X131197000Y-136279000D01*
X131201000Y-136285000D01*
X131204000Y-136290000D01*
X131207000Y-136296000D01*
X131210000Y-136301000D01*
X131212000Y-136307000D01*
X131214000Y-136313000D01*
X131216000Y-136319000D01*
X131217000Y-136325000D01*
X131219000Y-136331000D01*
X131219000Y-136337000D01*
X131220000Y-136344000D01*
X131220000Y-136350000D01*
X131220000Y-136550000D01*
X131220000Y-136556000D01*
X131219000Y-136563000D01*
X131219000Y-136569000D01*
X131217000Y-136575000D01*
X131216000Y-136581000D01*
X131214000Y-136587000D01*
X131212000Y-136593000D01*
X131210000Y-136599000D01*
X131207000Y-136604000D01*
X131204000Y-136610000D01*
X131201000Y-136615000D01*
X131197000Y-136621000D01*
X131193000Y-136626000D01*
X131189000Y-136630000D01*
X131185000Y-136635000D01*
X131180000Y-136639000D01*
X131176000Y-136643000D01*
X131171000Y-136647000D01*
X131165000Y-136651000D01*
X131160000Y-136654000D01*
X131154000Y-136657000D01*
X131149000Y-136660000D01*
X131143000Y-136662000D01*
X131137000Y-136664000D01*
X131131000Y-136666000D01*
X131125000Y-136667000D01*
X131119000Y-136669000D01*
X131113000Y-136669000D01*
X131106000Y-136670000D01*
X131100000Y-136670000D01*
X130700000Y-136670000D01*
X130694000Y-136670000D01*
X130687000Y-136669000D01*
X130681000Y-136669000D01*
X130675000Y-136667000D01*
X130669000Y-136666000D01*
X130663000Y-136664000D01*
X130657000Y-136662000D01*
X130651000Y-136660000D01*
X130646000Y-136657000D01*
X130640000Y-136654000D01*
X130635000Y-136651000D01*
X130629000Y-136647000D01*
X130624000Y-136643000D01*
X130620000Y-136639000D01*
X130615000Y-136635000D01*
X130611000Y-136630000D01*
X130607000Y-136626000D01*
X130603000Y-136621000D01*
X130599000Y-136615000D01*
X130596000Y-136610000D01*
X130593000Y-136604000D01*
X130590000Y-136599000D01*
X130588000Y-136593000D01*
X130586000Y-136587000D01*
X130584000Y-136581000D01*
X130583000Y-136575000D01*
X130581000Y-136569000D01*
X130581000Y-136563000D01*
X130580000Y-136556000D01*
X130580000Y-136550000D01*
X130580000Y-136350000D01*
X130580000Y-136344000D01*
X130581000Y-136337000D01*
X130581000Y-136331000D01*
X130583000Y-136325000D01*
X130584000Y-136319000D01*
X130586000Y-136313000D01*
X130588000Y-136307000D01*
X130590000Y-136301000D01*
X130593000Y-136296000D01*
X130596000Y-136290000D01*
X130599000Y-136285000D01*
X130603000Y-136279000D01*
X130607000Y-136274000D01*
X130611000Y-136270000D01*
X130615000Y-136265000D01*
X130620000Y-136261000D01*
X130624000Y-136257000D01*
X130629000Y-136253000D01*
X130635000Y-136249000D01*
X130640000Y-136246000D01*
X130646000Y-136243000D01*
X130651000Y-136240000D01*
X130657000Y-136238000D01*
X130663000Y-136236000D01*
X130669000Y-136234000D01*
X130675000Y-136233000D01*
X130681000Y-136231000D01*
X130687000Y-136231000D01*
X130694000Y-136230000D01*
X130700000Y-136230000D01*
X131100000Y-136230000D01*
X131106000Y-136230000D01*
X131113000Y-136231000D01*
G36*
X131113000Y-136231000D02*
G01*
X131119000Y-136231000D01*
X131125000Y-136233000D01*
X131131000Y-136234000D01*
X131137000Y-136236000D01*
X131143000Y-136238000D01*
X131149000Y-136240000D01*
X131154000Y-136243000D01*
X131160000Y-136246000D01*
X131165000Y-136249000D01*
X131171000Y-136253000D01*
X131176000Y-136257000D01*
X131180000Y-136261000D01*
X131185000Y-136265000D01*
X131189000Y-136270000D01*
X131193000Y-136274000D01*
X131197000Y-136279000D01*
X131201000Y-136285000D01*
X131204000Y-136290000D01*
X131207000Y-136296000D01*
X131210000Y-136301000D01*
X131212000Y-136307000D01*
X131214000Y-136313000D01*
X131216000Y-136319000D01*
X131217000Y-136325000D01*
X131219000Y-136331000D01*
X131219000Y-136337000D01*
X131220000Y-136344000D01*
X131220000Y-136350000D01*
X131220000Y-136550000D01*
X131220000Y-136556000D01*
X131219000Y-136563000D01*
X131219000Y-136569000D01*
X131217000Y-136575000D01*
X131216000Y-136581000D01*
X131214000Y-136587000D01*
X131212000Y-136593000D01*
X131210000Y-136599000D01*
X131207000Y-136604000D01*
X131204000Y-136610000D01*
X131201000Y-136615000D01*
X131197000Y-136621000D01*
X131193000Y-136626000D01*
X131189000Y-136630000D01*
X131185000Y-136635000D01*
X131180000Y-136639000D01*
X131176000Y-136643000D01*
X131171000Y-136647000D01*
X131165000Y-136651000D01*
X131160000Y-136654000D01*
X131154000Y-136657000D01*
X131149000Y-136660000D01*
X131143000Y-136662000D01*
X131137000Y-136664000D01*
X131131000Y-136666000D01*
X131125000Y-136667000D01*
X131119000Y-136669000D01*
X131113000Y-136669000D01*
X131106000Y-136670000D01*
X131100000Y-136670000D01*
X130700000Y-136670000D01*
X130694000Y-136670000D01*
X130687000Y-136669000D01*
X130681000Y-136669000D01*
X130675000Y-136667000D01*
X130669000Y-136666000D01*
X130663000Y-136664000D01*
X130657000Y-136662000D01*
X130651000Y-136660000D01*
X130646000Y-136657000D01*
X130640000Y-136654000D01*
X130635000Y-136651000D01*
X130629000Y-136647000D01*
X130624000Y-136643000D01*
X130620000Y-136639000D01*
X130615000Y-136635000D01*
X130611000Y-136630000D01*
X130607000Y-136626000D01*
X130603000Y-136621000D01*
X130599000Y-136615000D01*
X130596000Y-136610000D01*
X130593000Y-136604000D01*
X130590000Y-136599000D01*
X130588000Y-136593000D01*
X130586000Y-136587000D01*
X130584000Y-136581000D01*
X130583000Y-136575000D01*
X130581000Y-136569000D01*
X130581000Y-136563000D01*
X130580000Y-136556000D01*
X130580000Y-136550000D01*
X130580000Y-136350000D01*
X130580000Y-136344000D01*
X130581000Y-136337000D01*
X130581000Y-136331000D01*
X130583000Y-136325000D01*
X130584000Y-136319000D01*
X130586000Y-136313000D01*
X130588000Y-136307000D01*
X130590000Y-136301000D01*
X130593000Y-136296000D01*
X130596000Y-136290000D01*
X130599000Y-136285000D01*
X130603000Y-136279000D01*
X130607000Y-136274000D01*
X130611000Y-136270000D01*
X130615000Y-136265000D01*
X130620000Y-136261000D01*
X130624000Y-136257000D01*
X130629000Y-136253000D01*
X130635000Y-136249000D01*
X130640000Y-136246000D01*
X130646000Y-136243000D01*
X130651000Y-136240000D01*
X130657000Y-136238000D01*
X130663000Y-136236000D01*
X130669000Y-136234000D01*
X130675000Y-136233000D01*
X130681000Y-136231000D01*
X130687000Y-136231000D01*
X130694000Y-136230000D01*
X130700000Y-136230000D01*
X131100000Y-136230000D01*
X131106000Y-136230000D01*
X131113000Y-136231000D01*
G37*
X131113000Y-136931000D02*
X131119000Y-136931000D01*
X131125000Y-136933000D01*
X131131000Y-136934000D01*
X131137000Y-136936000D01*
X131143000Y-136938000D01*
X131149000Y-136940000D01*
X131154000Y-136943000D01*
X131160000Y-136946000D01*
X131165000Y-136949000D01*
X131171000Y-136953000D01*
X131176000Y-136957000D01*
X131180000Y-136961000D01*
X131185000Y-136965000D01*
X131189000Y-136970000D01*
X131193000Y-136974000D01*
X131197000Y-136979000D01*
X131201000Y-136985000D01*
X131204000Y-136990000D01*
X131207000Y-136996000D01*
X131210000Y-137001000D01*
X131212000Y-137007000D01*
X131214000Y-137013000D01*
X131216000Y-137019000D01*
X131217000Y-137025000D01*
X131219000Y-137031000D01*
X131219000Y-137037000D01*
X131220000Y-137044000D01*
X131220000Y-137050000D01*
X131220000Y-137250000D01*
X131220000Y-137256000D01*
X131219000Y-137263000D01*
X131219000Y-137269000D01*
X131217000Y-137275000D01*
X131216000Y-137281000D01*
X131214000Y-137287000D01*
X131212000Y-137293000D01*
X131210000Y-137299000D01*
X131207000Y-137304000D01*
X131204000Y-137310000D01*
X131201000Y-137315000D01*
X131197000Y-137321000D01*
X131193000Y-137326000D01*
X131189000Y-137330000D01*
X131185000Y-137335000D01*
X131180000Y-137339000D01*
X131176000Y-137343000D01*
X131171000Y-137347000D01*
X131165000Y-137351000D01*
X131160000Y-137354000D01*
X131154000Y-137357000D01*
X131149000Y-137360000D01*
X131143000Y-137362000D01*
X131137000Y-137364000D01*
X131131000Y-137366000D01*
X131125000Y-137367000D01*
X131119000Y-137369000D01*
X131113000Y-137369000D01*
X131106000Y-137370000D01*
X131100000Y-137370000D01*
X130700000Y-137370000D01*
X130694000Y-137370000D01*
X130687000Y-137369000D01*
X130681000Y-137369000D01*
X130675000Y-137367000D01*
X130669000Y-137366000D01*
X130663000Y-137364000D01*
X130657000Y-137362000D01*
X130651000Y-137360000D01*
X130646000Y-137357000D01*
X130640000Y-137354000D01*
X130635000Y-137351000D01*
X130629000Y-137347000D01*
X130624000Y-137343000D01*
X130620000Y-137339000D01*
X130615000Y-137335000D01*
X130611000Y-137330000D01*
X130607000Y-137326000D01*
X130603000Y-137321000D01*
X130599000Y-137315000D01*
X130596000Y-137310000D01*
X130593000Y-137304000D01*
X130590000Y-137299000D01*
X130588000Y-137293000D01*
X130586000Y-137287000D01*
X130584000Y-137281000D01*
X130583000Y-137275000D01*
X130581000Y-137269000D01*
X130581000Y-137263000D01*
X130580000Y-137256000D01*
X130580000Y-137250000D01*
X130580000Y-137050000D01*
X130580000Y-137044000D01*
X130581000Y-137037000D01*
X130581000Y-137031000D01*
X130583000Y-137025000D01*
X130584000Y-137019000D01*
X130586000Y-137013000D01*
X130588000Y-137007000D01*
X130590000Y-137001000D01*
X130593000Y-136996000D01*
X130596000Y-136990000D01*
X130599000Y-136985000D01*
X130603000Y-136979000D01*
X130607000Y-136974000D01*
X130611000Y-136970000D01*
X130615000Y-136965000D01*
X130620000Y-136961000D01*
X130624000Y-136957000D01*
X130629000Y-136953000D01*
X130635000Y-136949000D01*
X130640000Y-136946000D01*
X130646000Y-136943000D01*
X130651000Y-136940000D01*
X130657000Y-136938000D01*
X130663000Y-136936000D01*
X130669000Y-136934000D01*
X130675000Y-136933000D01*
X130681000Y-136931000D01*
X130687000Y-136931000D01*
X130694000Y-136930000D01*
X130700000Y-136930000D01*
X131100000Y-136930000D01*
X131106000Y-136930000D01*
X131113000Y-136931000D01*
G36*
X131113000Y-136931000D02*
G01*
X131119000Y-136931000D01*
X131125000Y-136933000D01*
X131131000Y-136934000D01*
X131137000Y-136936000D01*
X131143000Y-136938000D01*
X131149000Y-136940000D01*
X131154000Y-136943000D01*
X131160000Y-136946000D01*
X131165000Y-136949000D01*
X131171000Y-136953000D01*
X131176000Y-136957000D01*
X131180000Y-136961000D01*
X131185000Y-136965000D01*
X131189000Y-136970000D01*
X131193000Y-136974000D01*
X131197000Y-136979000D01*
X131201000Y-136985000D01*
X131204000Y-136990000D01*
X131207000Y-136996000D01*
X131210000Y-137001000D01*
X131212000Y-137007000D01*
X131214000Y-137013000D01*
X131216000Y-137019000D01*
X131217000Y-137025000D01*
X131219000Y-137031000D01*
X131219000Y-137037000D01*
X131220000Y-137044000D01*
X131220000Y-137050000D01*
X131220000Y-137250000D01*
X131220000Y-137256000D01*
X131219000Y-137263000D01*
X131219000Y-137269000D01*
X131217000Y-137275000D01*
X131216000Y-137281000D01*
X131214000Y-137287000D01*
X131212000Y-137293000D01*
X131210000Y-137299000D01*
X131207000Y-137304000D01*
X131204000Y-137310000D01*
X131201000Y-137315000D01*
X131197000Y-137321000D01*
X131193000Y-137326000D01*
X131189000Y-137330000D01*
X131185000Y-137335000D01*
X131180000Y-137339000D01*
X131176000Y-137343000D01*
X131171000Y-137347000D01*
X131165000Y-137351000D01*
X131160000Y-137354000D01*
X131154000Y-137357000D01*
X131149000Y-137360000D01*
X131143000Y-137362000D01*
X131137000Y-137364000D01*
X131131000Y-137366000D01*
X131125000Y-137367000D01*
X131119000Y-137369000D01*
X131113000Y-137369000D01*
X131106000Y-137370000D01*
X131100000Y-137370000D01*
X130700000Y-137370000D01*
X130694000Y-137370000D01*
X130687000Y-137369000D01*
X130681000Y-137369000D01*
X130675000Y-137367000D01*
X130669000Y-137366000D01*
X130663000Y-137364000D01*
X130657000Y-137362000D01*
X130651000Y-137360000D01*
X130646000Y-137357000D01*
X130640000Y-137354000D01*
X130635000Y-137351000D01*
X130629000Y-137347000D01*
X130624000Y-137343000D01*
X130620000Y-137339000D01*
X130615000Y-137335000D01*
X130611000Y-137330000D01*
X130607000Y-137326000D01*
X130603000Y-137321000D01*
X130599000Y-137315000D01*
X130596000Y-137310000D01*
X130593000Y-137304000D01*
X130590000Y-137299000D01*
X130588000Y-137293000D01*
X130586000Y-137287000D01*
X130584000Y-137281000D01*
X130583000Y-137275000D01*
X130581000Y-137269000D01*
X130581000Y-137263000D01*
X130580000Y-137256000D01*
X130580000Y-137250000D01*
X130580000Y-137050000D01*
X130580000Y-137044000D01*
X130581000Y-137037000D01*
X130581000Y-137031000D01*
X130583000Y-137025000D01*
X130584000Y-137019000D01*
X130586000Y-137013000D01*
X130588000Y-137007000D01*
X130590000Y-137001000D01*
X130593000Y-136996000D01*
X130596000Y-136990000D01*
X130599000Y-136985000D01*
X130603000Y-136979000D01*
X130607000Y-136974000D01*
X130611000Y-136970000D01*
X130615000Y-136965000D01*
X130620000Y-136961000D01*
X130624000Y-136957000D01*
X130629000Y-136953000D01*
X130635000Y-136949000D01*
X130640000Y-136946000D01*
X130646000Y-136943000D01*
X130651000Y-136940000D01*
X130657000Y-136938000D01*
X130663000Y-136936000D01*
X130669000Y-136934000D01*
X130675000Y-136933000D01*
X130681000Y-136931000D01*
X130687000Y-136931000D01*
X130694000Y-136930000D01*
X130700000Y-136930000D01*
X131100000Y-136930000D01*
X131106000Y-136930000D01*
X131113000Y-136931000D01*
G37*
%TD*%
D18*
%TO.C,C10*%
X140020000Y-109710000D03*
X140020000Y-110710000D03*
%TD*%
D19*
%TO.C,C19*%
X139350000Y-81150000D03*
X140350000Y-81150000D03*
%TD*%
D20*
%TO.C,L1*%
X137020000Y-72400000D03*
X135020000Y-72400000D03*
%TD*%
D18*
%TO.C,C41*%
X128390000Y-110400000D03*
X128390000Y-111400000D03*
%TD*%
D19*
%TO.C,C20*%
X138750000Y-78250000D03*
X139750000Y-78250000D03*
%TD*%
D21*
%TO.C,C4*%
X130100000Y-96550000D03*
X129100000Y-96550000D03*
%TD*%
D22*
%TO.C,C5*%
X124500000Y-98250000D03*
X124500000Y-97250000D03*
%TD*%
D21*
%TO.C,C3*%
X129600000Y-62500000D03*
X128600000Y-62500000D03*
%TD*%
D19*
%TO.C,C40*%
X132250000Y-97120000D03*
X133250000Y-97120000D03*
%TD*%
D18*
%TO.C,R1*%
X135250000Y-63250000D03*
X135250000Y-64250000D03*
%TD*%
%TO.C,R6*%
X140850000Y-103700000D03*
X140850000Y-104700000D03*
%TD*%
D23*
%TO.C,H5*%
X122975000Y-144100000D03*
X123458274Y-142933274D03*
X123458274Y-145266726D03*
X124625000Y-142450000D03*
D24*
X124625000Y-144100000D03*
D23*
X124625000Y-145750000D03*
X125791726Y-142933274D03*
X125791726Y-145266726D03*
X126275000Y-144100000D03*
%TD*%
D22*
%TO.C,R3*%
X136250000Y-110710000D03*
X136250000Y-109710000D03*
%TD*%
D25*
%TO.C,D1*%
X132040000Y-66330000D03*
D26*
X133760000Y-66330000D03*
X133760000Y-64220000D03*
X131840000Y-64220000D03*
%TD*%
D21*
%TO.C,C27*%
X138700000Y-118300000D03*
X137700000Y-118300000D03*
%TD*%
%TO.C,C28*%
X138700000Y-117400000D03*
X137700000Y-117400000D03*
%TD*%
D22*
%TO.C,R7*%
X139960000Y-104700000D03*
X139960000Y-103700000D03*
%TD*%
D19*
%TO.C,C13*%
X139350000Y-80150000D03*
X140350000Y-80150000D03*
%TD*%
D22*
%TO.C,C25*%
X127850000Y-90400000D03*
X127850000Y-89400000D03*
%TD*%
D19*
%TO.C,C7*%
X138090000Y-109708260D03*
X139090000Y-109708260D03*
%TD*%
D27*
%TO.C,J3*%
X136950000Y-145050000D03*
X136950000Y-138050000D03*
D28*
X133700000Y-140450000D03*
X133700000Y-143450000D03*
X140200000Y-135350000D03*
X133700000Y-136450000D03*
%TD*%
D18*
%TO.C,C35*%
X137430000Y-123335000D03*
X137430000Y-124335000D03*
%TD*%
D29*
%TO.C,U6*%
X130085000Y-118475000D03*
X130085000Y-119745000D03*
X130085000Y-121015000D03*
X130085000Y-122285000D03*
X135025000Y-122285000D03*
X135025000Y-121015000D03*
X135025000Y-119745000D03*
X135025000Y-118475000D03*
%TD*%
D19*
%TO.C,C44*%
X135200000Y-128900000D03*
X136200000Y-128900000D03*
%TD*%
%TO.C,C32*%
X131600000Y-112000000D03*
X132600000Y-112000000D03*
%TD*%
D21*
%TO.C,R9*%
X139850000Y-75750000D03*
X138850000Y-75750000D03*
%TD*%
%TO.C,C16*%
X128400000Y-81950000D03*
X127400000Y-81950000D03*
%TD*%
D30*
%TO.C,SW2*%
X130100000Y-65650000D03*
X126800000Y-65650000D03*
%TD*%
D31*
%TO.C,U2*%
X126462500Y-97650000D03*
X126462500Y-98300000D03*
X126462500Y-98950000D03*
X128237500Y-98950000D03*
X128237500Y-98300000D03*
X128237500Y-97650000D03*
D20*
X127350000Y-98300000D03*
%TD*%
D19*
%TO.C,C37*%
X127390000Y-109350000D03*
X128390000Y-109350000D03*
%TD*%
D23*
%TO.C,H4*%
X151600000Y-56200000D03*
X152083274Y-55033274D03*
X152083274Y-57366726D03*
X153250000Y-54550000D03*
D24*
X153250000Y-56200000D03*
D23*
X153250000Y-57850000D03*
X154416726Y-55033274D03*
X154416726Y-57366726D03*
X154900000Y-56200000D03*
%TD*%
D18*
%TO.C,C18*%
X137100000Y-85650000D03*
X137100000Y-86650000D03*
%TD*%
%TO.C,C30*%
X124490000Y-101150000D03*
X124490000Y-102150000D03*
%TD*%
%TO.C,C1*%
X141000000Y-67850000D03*
X141000000Y-68850000D03*
%TD*%
D32*
%TO.C,H1*%
X149100000Y-56300000D03*
%TD*%
D23*
%TO.C,H3*%
X122975000Y-56200000D03*
X123458274Y-55033274D03*
X123458274Y-57366726D03*
X124625000Y-54550000D03*
D24*
X124625000Y-56200000D03*
D23*
X124625000Y-57850000D03*
X125791726Y-55033274D03*
X125791726Y-57366726D03*
X126275000Y-56200000D03*
%TD*%
D33*
%TO.C,J2*%
X129210000Y-93850000D03*
D34*
X131750000Y-93850000D03*
D33*
X134290000Y-93850000D03*
%TD*%
D35*
%TO.C,FB1*%
X133430000Y-109800000D03*
X131850000Y-109800000D03*
%TD*%
D36*
%TO.C,U4*%
X130300000Y-77950000D03*
X130300000Y-78350000D03*
X130300000Y-78750000D03*
X130300000Y-79150000D03*
X130300000Y-79550000D03*
X130300000Y-79950000D03*
X130300000Y-80350000D03*
X130300000Y-80750000D03*
X130300000Y-81150000D03*
X130300000Y-81550000D03*
X130300000Y-81950000D03*
X130300000Y-82350000D03*
X130300000Y-82750000D03*
X130300000Y-83150000D03*
X130300000Y-83550000D03*
D37*
X130950000Y-84200000D03*
X131350000Y-84200000D03*
X131750000Y-84200000D03*
X132150000Y-84200000D03*
X132550000Y-84200000D03*
X132950000Y-84200000D03*
X133350000Y-84200000D03*
X133750000Y-84200000D03*
X134150000Y-84200000D03*
X134550000Y-84200000D03*
X134950000Y-84200000D03*
X135350000Y-84200000D03*
X135750000Y-84200000D03*
X136150000Y-84200000D03*
X136550000Y-84200000D03*
D36*
X137200000Y-83550000D03*
X137200000Y-83150000D03*
X137200000Y-82750000D03*
X137200000Y-82350000D03*
X137200000Y-81950000D03*
X137200000Y-81550000D03*
X137200000Y-81150000D03*
X137200000Y-80750000D03*
X137200000Y-80350000D03*
X137200000Y-79950000D03*
X137200000Y-79550000D03*
X137200000Y-79150000D03*
X137200000Y-78750000D03*
X137200000Y-78350000D03*
X137200000Y-77950000D03*
D37*
X136550000Y-77300000D03*
X136150000Y-77300000D03*
X135750000Y-77300000D03*
X135350000Y-77300000D03*
X134950000Y-77300000D03*
X134550000Y-77300000D03*
X134150000Y-77300000D03*
X133750000Y-77300000D03*
X133350000Y-77300000D03*
X132950000Y-77300000D03*
X132550000Y-77300000D03*
X132150000Y-77300000D03*
X131750000Y-77300000D03*
X131350000Y-77300000D03*
X130950000Y-77300000D03*
D38*
X133750000Y-80750000D03*
%TD*%
D19*
%TO.C,C6*%
X138090000Y-110598260D03*
X139090000Y-110598260D03*
%TD*%
D22*
%TO.C,R12*%
X137050000Y-88650000D03*
X137050000Y-87650000D03*
%TD*%
D19*
%TO.C,C34*%
X129300000Y-124680000D03*
X130300000Y-124680000D03*
%TD*%
D21*
%TO.C,C15*%
X128350000Y-77900000D03*
X127350000Y-77900000D03*
%TD*%
%TO.C,C17*%
X130350000Y-85650000D03*
X129350000Y-85650000D03*
%TD*%
D39*
%TO.C,R11*%
X132550000Y-73520000D03*
X132550000Y-71880000D03*
%TD*%
D23*
%TO.C,H6*%
X151600000Y-144100000D03*
X152083274Y-142933274D03*
X152083274Y-145266726D03*
X153250000Y-142450000D03*
D24*
X153250000Y-144100000D03*
D23*
X153250000Y-145750000D03*
X154416726Y-142933274D03*
X154416726Y-145266726D03*
X154900000Y-144100000D03*
%TD*%
D40*
%TO.C,VR1*%
X148050000Y-134550000D03*
D41*
X145550000Y-134550000D03*
X148050000Y-64550000D03*
D40*
X153050000Y-134550000D03*
D41*
X150550000Y-134550000D03*
X153050000Y-64550000D03*
D42*
X149300000Y-124550000D03*
X149300000Y-77050000D03*
%TD*%
D19*
%TO.C,C39*%
X135200000Y-131550000D03*
X136200000Y-131550000D03*
%TD*%
%TO.C,C33*%
X129300000Y-123780000D03*
X130300000Y-123780000D03*
%TD*%
D18*
%TO.C,R15*%
X137430000Y-121335000D03*
X137430000Y-122335000D03*
%TD*%
D21*
%TO.C,C11*%
X128350000Y-79950000D03*
X127350000Y-79950000D03*
%TD*%
D18*
%TO.C,C42*%
X126300000Y-131350000D03*
X126300000Y-132350000D03*
%TD*%
D43*
%TO.C,U7*%
X126765000Y-107575000D03*
X127415000Y-107575000D03*
X128065000Y-107575000D03*
X128715000Y-107575000D03*
X129365000Y-107575000D03*
X130015000Y-107575000D03*
X130665000Y-107575000D03*
X131315000Y-107575000D03*
X131965000Y-107575000D03*
X132615000Y-107575000D03*
X132615000Y-101850000D03*
X131965000Y-101850000D03*
X131315000Y-101850000D03*
X130665000Y-101850000D03*
X130015000Y-101850000D03*
X129365000Y-101850000D03*
X128715000Y-101850000D03*
X128065000Y-101850000D03*
X127415000Y-101850000D03*
X126765000Y-101850000D03*
%TD*%
D18*
%TO.C,R17*%
X129800000Y-133750000D03*
X129800000Y-134750000D03*
%TD*%
%TO.C,R4*%
X137180000Y-109710000D03*
X137180000Y-110710000D03*
%TD*%
D19*
%TO.C,C38*%
X135200000Y-130600000D03*
X136200000Y-130600000D03*
%TD*%
%TO.C,C9*%
X137680000Y-104030000D03*
X138680000Y-104030000D03*
%TD*%
%TO.C,C31*%
X131600000Y-111100000D03*
X132600000Y-111100000D03*
%TD*%
%TO.C,R8*%
X129450000Y-75250000D03*
X130450000Y-75250000D03*
%TD*%
D44*
%TO.C,U1*%
X138450000Y-69712500D03*
X139100000Y-69712500D03*
X139750000Y-69712500D03*
X139750000Y-67937500D03*
X139100000Y-67937500D03*
X138450000Y-67937500D03*
D45*
X139100000Y-68825000D03*
%TD*%
D46*
%TO.C,U5*%
X130500000Y-89750000D03*
X132700000Y-89750000D03*
X132700000Y-88050000D03*
X130500000Y-88050000D03*
%TD*%
D22*
%TO.C,C36*%
X126730000Y-121130000D03*
X126730000Y-120130000D03*
%TD*%
D21*
%TO.C,R2*%
X129600000Y-61600000D03*
X128600000Y-61600000D03*
%TD*%
D47*
%TO.C,C23*%
X135240000Y-75400000D03*
X136800000Y-75400000D03*
%TD*%
D19*
%TO.C,R13*%
X132200000Y-86550000D03*
X133200000Y-86550000D03*
%TD*%
D18*
%TO.C,C29*%
X125590000Y-108350000D03*
X125590000Y-109350000D03*
%TD*%
D22*
%TO.C,R16*%
X128850000Y-134750000D03*
X128850000Y-133750000D03*
%TD*%
D19*
%TO.C,C8*%
X137670000Y-101910000D03*
X138670000Y-101910000D03*
%TD*%
D32*
%TO.C,H2*%
X129000000Y-145100000D03*
%TD*%
D48*
%TO.C,F1*%
X136900000Y-64750000D03*
X138400000Y-64750000D03*
%TD*%
D18*
%TO.C,C26*%
X134350000Y-89150000D03*
X134350000Y-90150000D03*
%TD*%
D39*
%TO.C,R10*%
X131150000Y-73500000D03*
X131150000Y-71860000D03*
%TD*%
D22*
%TO.C,R19*%
X129800000Y-128750000D03*
X129800000Y-127750000D03*
%TD*%
D18*
%TO.C,R14*%
X127880000Y-120130000D03*
X127880000Y-121130000D03*
%TD*%
%TO.C,R18*%
X128850000Y-127750000D03*
X128850000Y-128750000D03*
%TD*%
D19*
%TO.C,C21*%
X138750000Y-77350000D03*
X139750000Y-77350000D03*
%TD*%
D30*
%TO.C,SW1*%
X130100000Y-70350000D03*
X126800000Y-70350000D03*
%TD*%
D19*
%TO.C,C2*%
X138600000Y-71350000D03*
X139600000Y-71350000D03*
%TD*%
D49*
%TO.C,U3*%
X136950000Y-107800000D03*
X137450000Y-107800000D03*
X137950000Y-107800000D03*
X138450000Y-107800000D03*
X138950000Y-107800000D03*
X139450000Y-107800000D03*
X139450000Y-105900000D03*
X138950000Y-105900000D03*
X138450000Y-105900000D03*
X137950000Y-105900000D03*
X137450000Y-105900000D03*
X136950000Y-105900000D03*
D50*
X138200000Y-106850000D03*
%TD*%
D47*
%TO.C,C24*%
X135240000Y-74050000D03*
X136800000Y-74050000D03*
%TD*%
D18*
%TO.C,C12*%
X134340000Y-86950000D03*
X134340000Y-87950000D03*
%TD*%
D21*
%TO.C,C14*%
X132650000Y-75250000D03*
X131650000Y-75250000D03*
%TD*%
D22*
%TO.C,C22*%
X138750000Y-74750000D03*
X138750000Y-73750000D03*
%TD*%
D19*
%TO.C,C43*%
X135200000Y-128000000D03*
X136200000Y-128000000D03*
%TD*%
D21*
%TO.C,R5*%
X138670000Y-102790000D03*
X137670000Y-102790000D03*
%TD*%
%TO.C,R20*%
X127300000Y-130450000D03*
X126300000Y-130450000D03*
%TD*%
D51*
%TO.C,J1*%
X136940000Y-59350000D03*
X131160000Y-59350000D03*
D52*
X135300000Y-60550000D03*
X134300000Y-60550000D03*
X133800000Y-60550000D03*
X132800000Y-60550000D03*
D53*
X131650000Y-60550000D03*
X130850000Y-60550000D03*
D52*
X132300000Y-60550000D03*
X133300000Y-60550000D03*
X134800000Y-60550000D03*
X135800000Y-60550000D03*
D53*
X136450000Y-60550000D03*
X137250000Y-60550000D03*
D54*
X138380000Y-59870000D03*
D55*
X138380000Y-55670000D03*
D56*
X136050000Y-57050000D03*
X136050000Y-55050000D03*
D57*
X134050000Y-56050000D03*
D56*
X132050000Y-57050000D03*
X132050000Y-55050000D03*
D54*
X129720000Y-59870000D03*
D55*
X129720000Y-55670000D03*
%TD*%
%LPD*%
M02*
