%TF.GenerationSoftware,KiCad,Pcbnew,9.0.7*%
%TF.CreationDate,2026-02-23T00:53:33+08:00*%
%TF.ProjectId,pumper,70756d70-6572-42e6-9b69-6361645f7063,rev?*%
%TF.SameCoordinates,Original*%
%TF.FileFunction,Copper,L1,Top*%
%TF.FilePolarity,Positive*%
%FSLAX46Y46*%
G04 Gerber Fmt 4.6, Leading zero omitted, Abs format (unit mm)*
G04 Created by KiCad (PCBNEW 9.0.7) date 2026-02-23 00:53:33*
%MOMM*%
%LPD*%
G01*
G04 APERTURE LIST*
G04 Aperture macros list*
%AMRoundRect*
0 Rectangle with rounded corners*
0 $1 Rounding radius*
0 $2 $3 $4 $5 $6 $7 $8 $9 X,Y pos of 4 corners*
0 Add a 4 corners polygon primitive as box body*
4,1,4,$2,$3,$4,$5,$6,$7,$8,$9,$2,$3,0*
0 Add four circle primitives for the rounded corners*
1,1,$1+$1,$2,$3*
1,1,$1+$1,$4,$5*
1,1,$1+$1,$6,$7*
1,1,$1+$1,$8,$9*
0 Add four rect primitives between the rounded corners*
20,1,$1+$1,$2,$3,$4,$5,0*
20,1,$1+$1,$4,$5,$6,$7,0*
20,1,$1+$1,$6,$7,$8,$9,0*
20,1,$1+$1,$8,$9,$2,$3,0*%
%AMFreePoly0*
4,1,45,-0.121464,1.703536,-0.120000,1.700000,-0.120000,1.205000,0.120000,1.205000,0.120000,1.700000,0.121464,1.703536,0.125000,1.705000,0.375000,1.705000,0.378536,1.703536,0.380000,1.700000,0.380000,1.205000,0.825000,1.205000,0.828536,1.203536,0.830000,1.200000,0.830000,-1.200000,0.828536,-1.203536,0.825000,-1.205000,0.380000,-1.205000,0.380000,-1.700000,0.378536,-1.703536,
0.375000,-1.705000,0.125000,-1.705000,0.121464,-1.703536,0.120000,-1.700000,0.120000,-1.205000,-0.120000,-1.205000,-0.120000,-1.700000,-0.121464,-1.703536,-0.125000,-1.705000,-0.375000,-1.705000,-0.378536,-1.703536,-0.380000,-1.700000,-0.380000,-1.205000,-0.825000,-1.205000,-0.828536,-1.203536,-0.830000,-1.200000,-0.830000,1.200000,-0.828536,1.203536,-0.825000,1.205000,-0.380000,1.205000,
-0.380000,1.700000,-0.378536,1.703536,-0.375000,1.705000,-0.125000,1.705000,-0.121464,1.703536,-0.121464,1.703536,$1*%
G04 Aperture macros list end*
%TA.AperFunction,SMDPad,CuDef*%
%ADD10RoundRect,0.140000X-0.170000X0.140000X-0.170000X-0.140000X0.170000X-0.140000X0.170000X0.140000X0*%
%TD*%
%TA.AperFunction,SMDPad,CuDef*%
%ADD11RoundRect,0.140000X-0.140000X-0.170000X0.140000X-0.170000X0.140000X0.170000X-0.140000X0.170000X0*%
%TD*%
%TA.AperFunction,SMDPad,CuDef*%
%ADD12R,1.000000X1.600000*%
%TD*%
%TA.AperFunction,SMDPad,CuDef*%
%ADD13RoundRect,0.140000X0.140000X0.170000X-0.140000X0.170000X-0.140000X-0.170000X0.140000X-0.170000X0*%
%TD*%
%TA.AperFunction,SMDPad,CuDef*%
%ADD14RoundRect,0.140000X0.170000X-0.140000X0.170000X0.140000X-0.170000X0.140000X-0.170000X-0.140000X0*%
%TD*%
%TA.AperFunction,ComponentPad*%
%ADD15C,0.700000*%
%TD*%
%TA.AperFunction,ComponentPad*%
%ADD16C,4.400000*%
%TD*%
%TA.AperFunction,SMDPad,CuDef*%
%ADD17RoundRect,0.123750X0.371250X-0.496250X0.371250X0.496250X-0.371250X0.496250X-0.371250X-0.496250X0*%
%TD*%
%TA.AperFunction,SMDPad,CuDef*%
%ADD18RoundRect,0.073750X0.221250X-0.546250X0.221250X0.546250X-0.221250X0.546250X-0.221250X-0.546250X0*%
%TD*%
%TA.AperFunction,SMDPad,CuDef*%
%ADD19RoundRect,0.030000X0.270000X0.090000X-0.270000X0.090000X-0.270000X-0.090000X0.270000X-0.090000X0*%
%TD*%
%TA.AperFunction,SMDPad,CuDef*%
%ADD20FreePoly0,180.000000*%
%TD*%
%TA.AperFunction,ComponentPad*%
%ADD21C,0.300000*%
%TD*%
%TA.AperFunction,SMDPad,CuDef*%
%ADD22R,2.500000X1.200000*%
%TD*%
%TA.AperFunction,SMDPad,CuDef*%
%ADD23RoundRect,0.075000X-0.910000X-0.225000X0.910000X-0.225000X0.910000X0.225000X-0.910000X0.225000X0*%
%TD*%
%TA.AperFunction,SMDPad,CuDef*%
%ADD24R,0.800000X1.520000*%
%TD*%
%TA.AperFunction,SMDPad,CuDef*%
%ADD25RoundRect,0.093750X-0.093750X-0.106250X0.093750X-0.106250X0.093750X0.106250X-0.093750X0.106250X0*%
%TD*%
%TA.AperFunction,HeatsinkPad*%
%ADD26C,0.500000*%
%TD*%
%TA.AperFunction,HeatsinkPad*%
%ADD27R,1.000000X1.600000*%
%TD*%
%TA.AperFunction,ComponentPad*%
%ADD28C,1.700000*%
%TD*%
%TA.AperFunction,ComponentPad*%
%ADD29RoundRect,0.250000X0.600000X-0.600000X0.600000X0.600000X-0.600000X0.600000X-0.600000X-0.600000X0*%
%TD*%
%TA.AperFunction,SMDPad,CuDef*%
%ADD30RoundRect,0.220000X0.220000X0.255000X-0.220000X0.255000X-0.220000X-0.255000X0.220000X-0.255000X0*%
%TD*%
%TA.AperFunction,SMDPad,CuDef*%
%ADD31RoundRect,0.050000X-0.350000X-0.050000X0.350000X-0.050000X0.350000X0.050000X-0.350000X0.050000X0*%
%TD*%
%TA.AperFunction,SMDPad,CuDef*%
%ADD32RoundRect,0.050000X-0.050000X-0.350000X0.050000X-0.350000X0.050000X0.350000X-0.050000X0.350000X0*%
%TD*%
%TA.AperFunction,HeatsinkPad*%
%ADD33R,3.400000X3.400000*%
%TD*%
%TA.AperFunction,SMDPad,CuDef*%
%ADD34RoundRect,0.200000X0.275000X-0.200000X0.275000X0.200000X-0.275000X0.200000X-0.275000X-0.200000X0*%
%TD*%
%TA.AperFunction,ComponentPad*%
%ADD35R,1.950000X1.950000*%
%TD*%
%TA.AperFunction,ComponentPad*%
%ADD36C,1.950000*%
%TD*%
%TA.AperFunction,ComponentPad*%
%ADD37C,3.300000*%
%TD*%
%TA.AperFunction,SMDPad,CuDef*%
%ADD38RoundRect,0.052500X0.197500X-0.097500X0.197500X0.097500X-0.197500X0.097500X-0.197500X-0.097500X0*%
%TD*%
%TA.AperFunction,SMDPad,CuDef*%
%ADD39RoundRect,0.100000X0.100000X-0.637500X0.100000X0.637500X-0.100000X0.637500X-0.100000X-0.637500X0*%
%TD*%
%TA.AperFunction,SMDPad,CuDef*%
%ADD40RoundRect,0.093750X0.106250X-0.093750X0.106250X0.093750X-0.106250X0.093750X-0.106250X-0.093750X0*%
%TD*%
%TA.AperFunction,HeatsinkPad*%
%ADD41R,1.600000X1.000000*%
%TD*%
%TA.AperFunction,SMDPad,CuDef*%
%ADD42R,1.400000X1.200000*%
%TD*%
%TA.AperFunction,SMDPad,CuDef*%
%ADD43RoundRect,0.225000X-0.225000X-0.250000X0.225000X-0.250000X0.225000X0.250000X-0.225000X0.250000X0*%
%TD*%
%TA.AperFunction,SMDPad,CuDef*%
%ADD44R,0.810000X0.860000*%
%TD*%
%TA.AperFunction,SMDPad,CuDef*%
%ADD45RoundRect,0.062500X0.062500X-0.187500X0.062500X0.187500X-0.062500X0.187500X-0.062500X-0.187500X0*%
%TD*%
%TA.AperFunction,ComponentPad*%
%ADD46C,0.600000*%
%TD*%
%TA.AperFunction,SMDPad,CuDef*%
%ADD47R,2.650000X1.000000*%
%TD*%
%TA.AperFunction,SMDPad,CuDef*%
%ADD48R,0.300000X1.400000*%
%TD*%
%TA.AperFunction,SMDPad,CuDef*%
%ADD49R,0.500000X1.400000*%
%TD*%
%TA.AperFunction,ComponentPad*%
%ADD50O,1.300000X2.300000*%
%TD*%
%TA.AperFunction,ComponentPad*%
%ADD51O,1.300000X2.100000*%
%TD*%
%TA.AperFunction,ComponentPad*%
%ADD52C,0.500000*%
%TD*%
%TA.AperFunction,SMDPad,CuDef*%
%ADD53RoundRect,0.500000X2.000000X1.000000X-2.000000X1.000000X-2.000000X-1.000000X2.000000X-1.000000X0*%
%TD*%
%TA.AperFunction,ViaPad*%
%ADD54C,0.600000*%
%TD*%
%TA.AperFunction,ViaPad*%
%ADD55C,0.450000*%
%TD*%
%TA.AperFunction,Conductor*%
%ADD56C,0.300000*%
%TD*%
%TA.AperFunction,Conductor*%
%ADD57C,0.250000*%
%TD*%
%TA.AperFunction,Conductor*%
%ADD58C,0.200000*%
%TD*%
%TA.AperFunction,Conductor*%
%ADD59C,0.500000*%
%TD*%
G04 APERTURE END LIST*
D10*
%TO.P,C10,1*%
%TO.N,Net-(U3-CP)*%
X140020000Y-109710000D03*
%TO.P,C10,2*%
%TO.N,GND*%
X140020000Y-110710000D03*
%TD*%
D11*
%TO.P,C19,1*%
%TO.N,+3V3*%
X139350000Y-81150000D03*
%TO.P,C19,2*%
%TO.N,GND*%
X140350000Y-81150000D03*
%TD*%
D12*
%TO.P,L1,1,1*%
%TO.N,Net-(U4-VREG_LX)*%
X137020000Y-72400000D03*
%TO.P,L1,2,2*%
%TO.N,+1V1*%
X135020000Y-72400000D03*
%TD*%
D10*
%TO.P,C40,1*%
%TO.N,Net-(U7-VNEG)*%
X128390000Y-110400000D03*
%TO.P,C40,2*%
%TO.N,GND*%
X128390000Y-111400000D03*
%TD*%
D11*
%TO.P,C20,1*%
%TO.N,+3V3*%
X138750000Y-78250000D03*
%TO.P,C20,2*%
%TO.N,GND*%
X139750000Y-78250000D03*
%TD*%
D13*
%TO.P,C4,1*%
%TO.N,VBUS*%
X130100000Y-96550000D03*
%TO.P,C4,2*%
%TO.N,GND*%
X129100000Y-96550000D03*
%TD*%
D14*
%TO.P,C5,1*%
%TO.N,+AUDIO_3V3*%
X124500000Y-98250000D03*
%TO.P,C5,2*%
%TO.N,GND*%
X124500000Y-97250000D03*
%TD*%
D13*
%TO.P,C3,1*%
%TO.N,VBUS*%
X128300000Y-62400000D03*
%TO.P,C3,2*%
%TO.N,GND*%
X127300000Y-62400000D03*
%TD*%
D11*
%TO.P,C39,1*%
%TO.N,Net-(U7-LDOO)*%
X132250000Y-97120000D03*
%TO.P,C39,2*%
%TO.N,GND*%
X133250000Y-97120000D03*
%TD*%
D10*
%TO.P,R1,1*%
%TO.N,Net-(J1-CC1)*%
X135250000Y-63250000D03*
%TO.P,R1,2*%
%TO.N,GND*%
X135250000Y-64250000D03*
%TD*%
%TO.P,R6,1*%
%TO.N,GND*%
X140850000Y-103700000D03*
%TO.P,R6,2*%
%TO.N,Net-(U3-FB-)*%
X140850000Y-104700000D03*
%TD*%
D15*
%TO.P,H5,1,1*%
%TO.N,GND*%
X122975000Y-144100000D03*
X123458274Y-142933274D03*
X123458274Y-145266726D03*
X124625000Y-142450000D03*
D16*
X124625000Y-144100000D03*
D15*
X124625000Y-145750000D03*
X125791726Y-142933274D03*
X125791726Y-145266726D03*
X126275000Y-144100000D03*
%TD*%
D14*
%TO.P,R3,1*%
%TO.N,+4V5*%
X136250000Y-110710000D03*
%TO.P,R3,2*%
%TO.N,Net-(U3-FB+)*%
X136250000Y-109710000D03*
%TD*%
D17*
%TO.P,D2,1*%
%TO.N,GND*%
X132040000Y-66330000D03*
D18*
%TO.P,D2,2*%
%TO.N,2350DN*%
X133760000Y-66330000D03*
%TO.P,D2,3*%
%TO.N,2350DP*%
X133760000Y-64220000D03*
%TO.P,D2,4*%
%TO.N,VBUS*%
X131840000Y-64220000D03*
%TD*%
D13*
%TO.P,C27,1*%
%TO.N,+4V5*%
X133100000Y-112800000D03*
%TO.P,C27,2*%
%TO.N,GND*%
X132100000Y-112800000D03*
%TD*%
D19*
%TO.P,U8,1,+INA*%
%TO.N,/Audio processing/VOLOUTL*%
X131800000Y-132250000D03*
%TO.P,U8,2,V+*%
%TO.N,+4V5*%
X131800000Y-131750000D03*
%TO.P,U8,3,GND*%
%TO.N,GND*%
X131800000Y-131250000D03*
%TO.P,U8,4,V-*%
%TO.N,-4V5*%
X131800000Y-130750000D03*
%TO.P,U8,5,+INB*%
%TO.N,/Audio processing/VOLOUTR*%
X131800000Y-130250000D03*
%TO.P,U8,6,-INB*%
%TO.N,Net-(U8--INB)*%
X129000000Y-130250000D03*
%TO.P,U8,7,OUTB*%
%TO.N,/Audio processing/OUTR*%
X129000000Y-130750000D03*
%TO.P,U8,8,EN*%
%TO.N,Net-(U8-EN)*%
X129000000Y-131250000D03*
%TO.P,U8,9,OUTA*%
%TO.N,/Audio processing/OUTL*%
X129000000Y-131750000D03*
%TO.P,U8,10,-INA*%
%TO.N,Net-(U8--INA)*%
X129000000Y-132250000D03*
D20*
%TO.P,U8,11,EXP*%
%TO.N,-4V5*%
X130400000Y-131250000D03*
D21*
%TO.P,U8,12,EXP*%
X130400000Y-132200000D03*
%TO.P,U8,13,EXP*%
X130975000Y-131250000D03*
%TO.P,U8,14,EXP*%
X129825000Y-131250000D03*
%TO.P,U8,15,EXP*%
X130400000Y-130300000D03*
%TD*%
D13*
%TO.P,C28,1*%
%TO.N,+4V5*%
X133100000Y-111900000D03*
%TO.P,C28,2*%
%TO.N,GND*%
X132100000Y-111900000D03*
%TD*%
D14*
%TO.P,R7,1*%
%TO.N,Net-(U3-FB-)*%
X139960000Y-104700000D03*
%TO.P,R7,2*%
%TO.N,-4V5*%
X139960000Y-103700000D03*
%TD*%
D11*
%TO.P,C13,1*%
%TO.N,+1V1*%
X139350000Y-80150000D03*
%TO.P,C13,2*%
%TO.N,GND*%
X140350000Y-80150000D03*
%TD*%
D14*
%TO.P,C25,1*%
%TO.N,GND*%
X127850000Y-90400000D03*
%TO.P,C25,2*%
%TO.N,Net-(U4-XIN)*%
X127850000Y-89400000D03*
%TD*%
D11*
%TO.P,C7,1*%
%TO.N,VBUS*%
X138090000Y-109708260D03*
%TO.P,C7,2*%
%TO.N,GND*%
X139090000Y-109708260D03*
%TD*%
D22*
%TO.P,J3,R1*%
%TO.N,/Audio processing/OUTR*%
X133700000Y-140450000D03*
%TO.P,J3,R2*%
%TO.N,GND*%
X133700000Y-143450000D03*
%TO.P,J3,S*%
X140200000Y-135350000D03*
%TO.P,J3,T*%
%TO.N,/Audio processing/OUTL*%
X133700000Y-136450000D03*
%TD*%
D10*
%TO.P,C34,1*%
%TO.N,/Audio processing/5102OUTR*%
X137430000Y-120155000D03*
%TO.P,C34,2*%
%TO.N,GND*%
X137430000Y-121155000D03*
%TD*%
D23*
%TO.P,U6,1*%
%TO.N,/Audio processing/1652OUTL*%
X130085000Y-115295000D03*
%TO.P,U6,2*%
X130085000Y-116565000D03*
%TO.P,U6,3*%
%TO.N,/Audio processing/5102OUTL*%
X130085000Y-117835000D03*
%TO.P,U6,4*%
%TO.N,-4V5*%
X130085000Y-119105000D03*
%TO.P,U6,5*%
%TO.N,/Audio processing/5102OUTR*%
X135025000Y-119105000D03*
%TO.P,U6,6*%
%TO.N,/Audio processing/1652OUTR*%
X135025000Y-117835000D03*
%TO.P,U6,7*%
X135025000Y-116565000D03*
%TO.P,U6,8*%
%TO.N,+4V5*%
X135025000Y-115295000D03*
%TD*%
D11*
%TO.P,C43,1*%
%TO.N,-4V5*%
X135200000Y-128900000D03*
%TO.P,C43,2*%
%TO.N,GND*%
X136200000Y-128900000D03*
%TD*%
D14*
%TO.P,C31,1*%
%TO.N,/Audio processing/5102AVDD*%
X134000000Y-108000000D03*
%TO.P,C31,2*%
%TO.N,GND*%
X134000000Y-107000000D03*
%TD*%
D13*
%TO.P,R9,1*%
%TO.N,+3V3*%
X139850000Y-75750000D03*
%TO.P,R9,2*%
%TO.N,Net-(U4-VREG_AVDD)*%
X138850000Y-75750000D03*
%TD*%
%TO.P,C16,1*%
%TO.N,+3V3*%
X128400000Y-81950000D03*
%TO.P,C16,2*%
%TO.N,GND*%
X127400000Y-81950000D03*
%TD*%
D24*
%TO.P,SW2,1,1*%
%TO.N,GND*%
X130100000Y-65650000D03*
%TO.P,SW2,2,2*%
%TO.N,/MCU/RUN*%
X126800000Y-65650000D03*
%TD*%
D25*
%TO.P,U2,1,OUT*%
%TO.N,+AUDIO_3V3*%
X126462500Y-97650000D03*
%TO.P,U2,2,SNS*%
X126462500Y-98300000D03*
%TO.P,U2,3,GND*%
%TO.N,GND*%
X126462500Y-98950000D03*
%TO.P,U2,4,EN*%
%TO.N,VBUS*%
X128237500Y-98950000D03*
%TO.P,U2,5,GND*%
%TO.N,GND*%
X128237500Y-98300000D03*
%TO.P,U2,6,IN*%
%TO.N,VBUS*%
X128237500Y-97650000D03*
D26*
%TO.P,U2,7,PAD*%
%TO.N,GND*%
X127350000Y-97750000D03*
D27*
X127350000Y-98300000D03*
D26*
X127350000Y-98850000D03*
%TD*%
D11*
%TO.P,C36,1*%
%TO.N,Net-(U7-CAPP)*%
X127390000Y-109350000D03*
%TO.P,C36,2*%
%TO.N,Net-(U7-CAPM)*%
X128390000Y-109350000D03*
%TD*%
D15*
%TO.P,H4,1,1*%
%TO.N,GND*%
X151600000Y-56200000D03*
X152083274Y-55033274D03*
X152083274Y-57366726D03*
X153250000Y-54550000D03*
D16*
X153250000Y-56200000D03*
D15*
X153250000Y-57850000D03*
X154416726Y-55033274D03*
X154416726Y-57366726D03*
X154900000Y-56200000D03*
%TD*%
D10*
%TO.P,C18,1*%
%TO.N,+3V3*%
X137100000Y-85650000D03*
%TO.P,C18,2*%
%TO.N,GND*%
X137100000Y-86650000D03*
%TD*%
%TO.P,C30,1*%
%TO.N,+AUDIO_3V3*%
X124490000Y-101150000D03*
%TO.P,C30,2*%
%TO.N,GND*%
X124490000Y-102150000D03*
%TD*%
%TO.P,C1,1*%
%TO.N,VBUS*%
X141000000Y-67850000D03*
%TO.P,C1,2*%
%TO.N,GND*%
X141000000Y-68850000D03*
%TD*%
D15*
%TO.P,H3,1,1*%
%TO.N,GND*%
X122975000Y-56200000D03*
X123458274Y-55033274D03*
X123458274Y-57366726D03*
X124625000Y-54550000D03*
D16*
X124625000Y-56200000D03*
D15*
X124625000Y-57850000D03*
X125791726Y-55033274D03*
X125791726Y-57366726D03*
X126275000Y-56200000D03*
%TD*%
D28*
%TO.P,J2,1,Pin_1*%
%TO.N,/MCU/SWCLK*%
X129210000Y-93850000D03*
D29*
%TO.P,J2,2,Pin_2*%
%TO.N,GND*%
X131750000Y-93850000D03*
D28*
%TO.P,J2,3,Pin_3*%
%TO.N,/MCU/SWDIO*%
X134290000Y-93850000D03*
%TD*%
D30*
%TO.P,FB1,1*%
%TO.N,+AUDIO_3V3*%
X133430000Y-109800000D03*
%TO.P,FB1,2*%
%TO.N,/Audio processing/5102AVDD*%
X131850000Y-109800000D03*
%TD*%
D31*
%TO.P,U4,1,IOVDD*%
%TO.N,+3V3*%
X130300000Y-77950000D03*
%TO.P,U4,2,GPIO0*%
%TO.N,/MCU/GP0*%
X130300000Y-78350000D03*
%TO.P,U4,3,GPIO1*%
%TO.N,/MCU/GP1*%
X130300000Y-78750000D03*
%TO.P,U4,4,GPIO2*%
%TO.N,/MCU/GP2*%
X130300000Y-79150000D03*
%TO.P,U4,5,GPIO3*%
%TO.N,/MCU/GP3*%
X130300000Y-79550000D03*
%TO.P,U4,6,DVDD*%
%TO.N,+1V1*%
X130300000Y-79950000D03*
%TO.P,U4,7,GPIO4*%
%TO.N,/MCU/GP4*%
X130300000Y-80350000D03*
%TO.P,U4,8,GPIO5*%
%TO.N,/MCU/GP5*%
X130300000Y-80750000D03*
%TO.P,U4,9,GPIO6*%
%TO.N,/MCU/GP6*%
X130300000Y-81150000D03*
%TO.P,U4,10,GPIO7*%
%TO.N,/MCU/GP7*%
X130300000Y-81550000D03*
%TO.P,U4,11,IOVDD*%
%TO.N,+3V3*%
X130300000Y-81950000D03*
%TO.P,U4,12,GPIO8*%
%TO.N,/MCU/GP8*%
X130300000Y-82350000D03*
%TO.P,U4,13,GPIO9*%
%TO.N,/MCU/GP9*%
X130300000Y-82750000D03*
%TO.P,U4,14,GPIO10*%
%TO.N,/MCU/GP10*%
X130300000Y-83150000D03*
%TO.P,U4,15,GPIO11*%
%TO.N,/MCU/GP11*%
X130300000Y-83550000D03*
D32*
%TO.P,U4,16,GPIO12*%
%TO.N,/MCU/GP12*%
X130950000Y-84200000D03*
%TO.P,U4,17,GPIO13*%
%TO.N,/MCU/GP13*%
X131350000Y-84200000D03*
%TO.P,U4,18,GPIO14*%
%TO.N,/MCU/GP14*%
X131750000Y-84200000D03*
%TO.P,U4,19,GPIO15*%
%TO.N,/MCU/GP15*%
X132150000Y-84200000D03*
%TO.P,U4,20,IOVDD*%
%TO.N,+3V3*%
X132550000Y-84200000D03*
%TO.P,U4,21,XIN*%
%TO.N,Net-(U4-XIN)*%
X132950000Y-84200000D03*
%TO.P,U4,22,XOUT*%
%TO.N,Net-(U4-XOUT)*%
X133350000Y-84200000D03*
%TO.P,U4,23,DVDD*%
%TO.N,+1V1*%
X133750000Y-84200000D03*
%TO.P,U4,24,SWCLK*%
%TO.N,/MCU/SWCLK*%
X134150000Y-84200000D03*
%TO.P,U4,25,SWDIO*%
%TO.N,/MCU/SWDIO*%
X134550000Y-84200000D03*
%TO.P,U4,26,RUN*%
%TO.N,/MCU/RUN*%
X134950000Y-84200000D03*
%TO.P,U4,27,GPIO16*%
%TO.N,/MCU/GP16*%
X135350000Y-84200000D03*
%TO.P,U4,28,GPIO17*%
%TO.N,/MCU/GP17*%
X135750000Y-84200000D03*
%TO.P,U4,29,GPIO18*%
%TO.N,/MCU/GP18*%
X136150000Y-84200000D03*
%TO.P,U4,30,IOVDD*%
%TO.N,+3V3*%
X136550000Y-84200000D03*
D31*
%TO.P,U4,31,GPIO19*%
%TO.N,GP19*%
X137200000Y-83550000D03*
%TO.P,U4,32,GPIO20*%
%TO.N,GP20*%
X137200000Y-83150000D03*
%TO.P,U4,33,GPIO21*%
%TO.N,GP21*%
X137200000Y-82750000D03*
%TO.P,U4,34,GPIO22*%
%TO.N,/MCU/GP22*%
X137200000Y-82350000D03*
%TO.P,U4,35,GPIO23*%
%TO.N,/MCU/GP23*%
X137200000Y-81950000D03*
%TO.P,U4,36,GPIO24*%
%TO.N,/MCU/GP24*%
X137200000Y-81550000D03*
%TO.P,U4,37,GPIO25*%
%TO.N,/MCU/GP25*%
X137200000Y-81150000D03*
%TO.P,U4,38,IOVDD*%
%TO.N,+3V3*%
X137200000Y-80750000D03*
%TO.P,U4,39,DVDD*%
%TO.N,+1V1*%
X137200000Y-80350000D03*
%TO.P,U4,40,GPIO26_ADC0*%
%TO.N,/MCU/GP26*%
X137200000Y-79950000D03*
%TO.P,U4,41,GPIO27_ADC1*%
%TO.N,/MCU/GP27*%
X137200000Y-79550000D03*
%TO.P,U4,42,GPIO28_ADC2*%
%TO.N,/MCU/GP28*%
X137200000Y-79150000D03*
%TO.P,U4,43,GPIO29_ADC3*%
%TO.N,/MCU/GP29*%
X137200000Y-78750000D03*
%TO.P,U4,44,ADC_AVDD*%
%TO.N,+3V3*%
X137200000Y-78350000D03*
%TO.P,U4,45,IOVDD*%
X137200000Y-77950000D03*
D32*
%TO.P,U4,46,VREG_AVDD*%
%TO.N,Net-(U4-VREG_AVDD)*%
X136550000Y-77300000D03*
%TO.P,U4,47,VREG_PGND*%
%TO.N,GND*%
X136150000Y-77300000D03*
%TO.P,U4,48,VREG_LX*%
%TO.N,Net-(U4-VREG_LX)*%
X135750000Y-77300000D03*
%TO.P,U4,49,VREG_VIN*%
%TO.N,+3V3*%
X135350000Y-77300000D03*
%TO.P,U4,50,VREG_FB*%
%TO.N,+1V1*%
X134950000Y-77300000D03*
%TO.P,U4,51,USB_DM*%
%TO.N,Net-(U4-USB_DM)*%
X134550000Y-77300000D03*
%TO.P,U4,52,USB_DP*%
%TO.N,Net-(U4-USB_DP)*%
X134150000Y-77300000D03*
%TO.P,U4,53,USB_OTP_VDD*%
%TO.N,+3V3*%
X133750000Y-77300000D03*
%TO.P,U4,54,QSPI_IOVDD*%
X133350000Y-77300000D03*
%TO.P,U4,55,QSPI_SD3*%
%TO.N,unconnected-(U4-QSPI_SD3-Pad55)*%
X132950000Y-77300000D03*
%TO.P,U4,56,QSPI_SCLK*%
%TO.N,unconnected-(U4-QSPI_SCLK-Pad56)*%
X132550000Y-77300000D03*
%TO.P,U4,57,QSPI_SD0*%
%TO.N,unconnected-(U4-QSPI_SD0-Pad57)*%
X132150000Y-77300000D03*
%TO.P,U4,58,QSPI_SD2*%
%TO.N,unconnected-(U4-QSPI_SD2-Pad58)*%
X131750000Y-77300000D03*
%TO.P,U4,59,QSPI_SD1*%
%TO.N,unconnected-(U4-QSPI_SD1-Pad59)*%
X131350000Y-77300000D03*
%TO.P,U4,60,QSPI_SS*%
%TO.N,/MCU/QSPI_SS*%
X130950000Y-77300000D03*
D26*
%TO.P,U4,61,GND*%
%TO.N,GND*%
X132300000Y-79300000D03*
X132300000Y-80750000D03*
X132300000Y-82200000D03*
X133750000Y-79300000D03*
X133750000Y-80750000D03*
D33*
X133750000Y-80750000D03*
D26*
X133750000Y-82200000D03*
X135200000Y-79300000D03*
X135200000Y-80750000D03*
X135200000Y-82200000D03*
%TD*%
D11*
%TO.P,C6,1*%
%TO.N,VBUS*%
X138090000Y-110598260D03*
%TO.P,C6,2*%
%TO.N,GND*%
X139090000Y-110598260D03*
%TD*%
D14*
%TO.P,R12,1*%
%TO.N,+3V3*%
X137050000Y-88650000D03*
%TO.P,R12,2*%
%TO.N,/MCU/RUN*%
X137050000Y-87650000D03*
%TD*%
D11*
%TO.P,C33,1*%
%TO.N,-4V5*%
X129300000Y-121500000D03*
%TO.P,C33,2*%
%TO.N,GND*%
X130300000Y-121500000D03*
%TD*%
D13*
%TO.P,C15,1*%
%TO.N,+3V3*%
X128350000Y-77900000D03*
%TO.P,C15,2*%
%TO.N,GND*%
X127350000Y-77900000D03*
%TD*%
%TO.P,C17,1*%
%TO.N,+3V3*%
X130350000Y-85650000D03*
%TO.P,C17,2*%
%TO.N,GND*%
X129350000Y-85650000D03*
%TD*%
D34*
%TO.P,R11,1*%
%TO.N,Net-(U4-USB_DM)*%
X132550000Y-73520000D03*
%TO.P,R11,2*%
%TO.N,2350DN*%
X132550000Y-71880000D03*
%TD*%
D15*
%TO.P,H6,1,1*%
%TO.N,GND*%
X151600000Y-144100000D03*
X152083274Y-142933274D03*
X152083274Y-145266726D03*
X153250000Y-142450000D03*
D16*
X153250000Y-144100000D03*
D15*
X153250000Y-145750000D03*
X154416726Y-142933274D03*
X154416726Y-145266726D03*
X154900000Y-144100000D03*
%TD*%
D35*
%TO.P,VR1,A1,1*%
%TO.N,GND*%
X148050000Y-134550000D03*
D36*
%TO.P,VR1,A2,2*%
%TO.N,/Audio processing/VOLOUTL*%
X145550000Y-134550000D03*
%TO.P,VR1,A3,3*%
%TO.N,/Audio processing/1652OUTL*%
X148050000Y-64550000D03*
D35*
%TO.P,VR1,B1,1'*%
%TO.N,GND*%
X153050000Y-134550000D03*
D36*
%TO.P,VR1,B2,2'*%
%TO.N,/Audio processing/VOLOUTR*%
X150550000Y-134550000D03*
%TO.P,VR1,B3,3'*%
%TO.N,/Audio processing/1652OUTR*%
X153050000Y-64550000D03*
D37*
%TO.P,VR1,MH1,MH1*%
%TO.N,GND*%
X149300000Y-124550000D03*
%TO.P,VR1,MH2,MH2*%
X149300000Y-77050000D03*
%TD*%
D11*
%TO.P,C38,1*%
%TO.N,+4V5*%
X135200000Y-131550000D03*
%TO.P,C38,2*%
%TO.N,GND*%
X136200000Y-131550000D03*
%TD*%
%TO.P,C32,1*%
%TO.N,-4V5*%
X129300000Y-120600000D03*
%TO.P,C32,2*%
%TO.N,GND*%
X130300000Y-120600000D03*
%TD*%
D10*
%TO.P,R15,1*%
%TO.N,Net-(U7-OUTR)*%
X137430000Y-118155000D03*
%TO.P,R15,2*%
%TO.N,/Audio processing/5102OUTR*%
X137430000Y-119155000D03*
%TD*%
D38*
%TO.P,D5,1*%
%TO.N,GND*%
X129200000Y-139250000D03*
%TO.P,D5,2*%
%TO.N,/Audio processing/OUTR*%
X129200000Y-138550000D03*
%TD*%
D13*
%TO.P,C11,1*%
%TO.N,+1V1*%
X128350000Y-79950000D03*
%TO.P,C11,2*%
%TO.N,GND*%
X127350000Y-79950000D03*
%TD*%
D10*
%TO.P,C41,1*%
%TO.N,Net-(U8-EN)*%
X126300000Y-131350000D03*
%TO.P,C41,2*%
%TO.N,GND*%
X126300000Y-132350000D03*
%TD*%
D39*
%TO.P,U7,1,CPVDD*%
%TO.N,+AUDIO_3V3*%
X126765000Y-107575000D03*
%TO.P,U7,2,CAPP*%
%TO.N,Net-(U7-CAPP)*%
X127415000Y-107575000D03*
%TO.P,U7,3,CPGND*%
%TO.N,GND*%
X128065000Y-107575000D03*
%TO.P,U7,4,CAPM*%
%TO.N,Net-(U7-CAPM)*%
X128715000Y-107575000D03*
%TO.P,U7,5,VNEG*%
%TO.N,Net-(U7-VNEG)*%
X129365000Y-107575000D03*
%TO.P,U7,6,OUTL*%
%TO.N,Net-(U7-OUTL)*%
X130015000Y-107575000D03*
%TO.P,U7,7,OUTR*%
%TO.N,Net-(U7-OUTR)*%
X130665000Y-107575000D03*
%TO.P,U7,8,AVDD*%
%TO.N,/Audio processing/5102AVDD*%
X131315000Y-107575000D03*
%TO.P,U7,9,AGND*%
%TO.N,GND*%
X131965000Y-107575000D03*
%TO.P,U7,10,DEMP*%
X132615000Y-107575000D03*
%TO.P,U7,11,FLT*%
X132615000Y-101850000D03*
%TO.P,U7,12,SCK*%
X131965000Y-101850000D03*
%TO.P,U7,13,BCK*%
%TO.N,GP19*%
X131315000Y-101850000D03*
%TO.P,U7,14,DIN*%
%TO.N,GP21*%
X130665000Y-101850000D03*
%TO.P,U7,15,LRCK*%
%TO.N,GP20*%
X130015000Y-101850000D03*
%TO.P,U7,16,FMT*%
%TO.N,GND*%
X129365000Y-101850000D03*
%TO.P,U7,17,XSMT*%
%TO.N,+AUDIO_3V3*%
X128715000Y-101850000D03*
%TO.P,U7,18,LDOO*%
%TO.N,Net-(U7-LDOO)*%
X128065000Y-101850000D03*
%TO.P,U7,19,DGND*%
%TO.N,GND*%
X127415000Y-101850000D03*
%TO.P,U7,20,DVDD*%
%TO.N,+AUDIO_3V3*%
X126765000Y-101850000D03*
%TD*%
D10*
%TO.P,R17,1*%
%TO.N,Net-(U8--INA)*%
X129800000Y-133750000D03*
%TO.P,R17,2*%
%TO.N,GND*%
X129800000Y-134750000D03*
%TD*%
%TO.P,R4,1*%
%TO.N,Net-(U3-FB+)*%
X137180000Y-109710000D03*
%TO.P,R4,2*%
%TO.N,GND*%
X137180000Y-110710000D03*
%TD*%
D11*
%TO.P,C37,1*%
%TO.N,+4V5*%
X135200000Y-130600000D03*
%TO.P,C37,2*%
%TO.N,GND*%
X136200000Y-130600000D03*
%TD*%
%TO.P,C9,1*%
%TO.N,Net-(U3-C+)*%
X137680000Y-104030000D03*
%TO.P,C9,2*%
%TO.N,Net-(U3-C-)*%
X138680000Y-104030000D03*
%TD*%
D14*
%TO.P,C44,1*%
%TO.N,/Audio processing/5102AVDD*%
X135000000Y-108000000D03*
%TO.P,C44,2*%
%TO.N,GND*%
X135000000Y-107000000D03*
%TD*%
D11*
%TO.P,R8,1*%
%TO.N,Net-(R8-Pad1)*%
X129450000Y-75250000D03*
%TO.P,R8,2*%
%TO.N,/MCU/QSPI_SS*%
X130450000Y-75250000D03*
%TD*%
D40*
%TO.P,U1,1,OUT*%
%TO.N,+3V3*%
X138450000Y-69712500D03*
%TO.P,U1,2,SNS*%
X139100000Y-69712500D03*
%TO.P,U1,3,GND*%
%TO.N,GND*%
X139750000Y-69712500D03*
%TO.P,U1,4,EN*%
%TO.N,VBUS*%
X139750000Y-67937500D03*
%TO.P,U1,5,GND*%
%TO.N,GND*%
X139100000Y-67937500D03*
%TO.P,U1,6,IN*%
%TO.N,VBUS*%
X138450000Y-67937500D03*
D26*
%TO.P,U1,7,PAD*%
%TO.N,GND*%
X138550000Y-68825000D03*
D41*
X139100000Y-68825000D03*
D26*
X139650000Y-68825000D03*
%TD*%
D42*
%TO.P,U5,1,1*%
%TO.N,Net-(U4-XIN)*%
X130500000Y-89750000D03*
%TO.P,U5,2,GND*%
%TO.N,GND*%
X132700000Y-89750000D03*
%TO.P,U5,3,3*%
%TO.N,Net-(C26-Pad1)*%
X132700000Y-88050000D03*
%TO.P,U5,4,GND*%
%TO.N,GND*%
X130500000Y-88050000D03*
%TD*%
D14*
%TO.P,C35,1*%
%TO.N,/Audio processing/5102OUTL*%
X126730000Y-117950000D03*
%TO.P,C35,2*%
%TO.N,GND*%
X126730000Y-116950000D03*
%TD*%
D13*
%TO.P,R2,1*%
%TO.N,Net-(J1-CC2)*%
X128300000Y-61500000D03*
%TO.P,R2,2*%
%TO.N,GND*%
X127300000Y-61500000D03*
%TD*%
D43*
%TO.P,C23,1*%
%TO.N,+3V3*%
X135240000Y-75400000D03*
%TO.P,C23,2*%
%TO.N,GND*%
X136800000Y-75400000D03*
%TD*%
D11*
%TO.P,R13,1*%
%TO.N,Net-(C26-Pad1)*%
X132200000Y-86550000D03*
%TO.P,R13,2*%
%TO.N,Net-(U4-XOUT)*%
X133200000Y-86550000D03*
%TD*%
D10*
%TO.P,C29,1*%
%TO.N,+AUDIO_3V3*%
X125590000Y-108350000D03*
%TO.P,C29,2*%
%TO.N,GND*%
X125590000Y-109350000D03*
%TD*%
D14*
%TO.P,R16,1*%
%TO.N,/Audio processing/OUTL*%
X128850000Y-134750000D03*
%TO.P,R16,2*%
%TO.N,Net-(U8--INA)*%
X128850000Y-133750000D03*
%TD*%
D11*
%TO.P,C8,1*%
%TO.N,Net-(U3-EN+)*%
X137670000Y-101910000D03*
%TO.P,C8,2*%
%TO.N,GND*%
X138670000Y-101910000D03*
%TD*%
D44*
%TO.P,F1,1,1*%
%TO.N,Net-(F1-Pad1)*%
X136900000Y-64750000D03*
%TO.P,F1,2,2*%
%TO.N,VBUS*%
X138400000Y-64750000D03*
%TD*%
D10*
%TO.P,C26,1*%
%TO.N,Net-(C26-Pad1)*%
X134350000Y-89150000D03*
%TO.P,C26,2*%
%TO.N,GND*%
X134350000Y-90150000D03*
%TD*%
D34*
%TO.P,R10,1*%
%TO.N,Net-(U4-USB_DP)*%
X131150000Y-73500000D03*
%TO.P,R10,2*%
%TO.N,2350DP*%
X131150000Y-71860000D03*
%TD*%
D14*
%TO.P,R19,1*%
%TO.N,Net-(U8--INB)*%
X129800000Y-128750000D03*
%TO.P,R19,2*%
%TO.N,GND*%
X129800000Y-127750000D03*
%TD*%
D10*
%TO.P,R14,1*%
%TO.N,Net-(U7-OUTL)*%
X127880000Y-116950000D03*
%TO.P,R14,2*%
%TO.N,/Audio processing/5102OUTL*%
X127880000Y-117950000D03*
%TD*%
%TO.P,R18,1*%
%TO.N,/Audio processing/OUTR*%
X128850000Y-127750000D03*
%TO.P,R18,2*%
%TO.N,Net-(U8--INB)*%
X128850000Y-128750000D03*
%TD*%
D11*
%TO.P,C21,1*%
%TO.N,+3V3*%
X138750000Y-77350000D03*
%TO.P,C21,2*%
%TO.N,GND*%
X139750000Y-77350000D03*
%TD*%
D24*
%TO.P,SW1,1,1*%
%TO.N,GND*%
X130100000Y-70350000D03*
%TO.P,SW1,2,2*%
%TO.N,Net-(R8-Pad1)*%
X126800000Y-70350000D03*
%TD*%
D11*
%TO.P,C2,1*%
%TO.N,+3V3*%
X138600000Y-71350000D03*
%TO.P,C2,2*%
%TO.N,GND*%
X139600000Y-71350000D03*
%TD*%
D45*
%TO.P,U3,1,PGOOD*%
%TO.N,GND*%
X136950000Y-107800000D03*
%TO.P,U3,2,FB+*%
%TO.N,Net-(U3-FB+)*%
X137450000Y-107800000D03*
%TO.P,U3,3,VIN*%
%TO.N,VBUS*%
X137950000Y-107800000D03*
%TO.P,U3,4,GND*%
%TO.N,GND*%
X138450000Y-107800000D03*
%TO.P,U3,5,CP*%
%TO.N,Net-(U3-CP)*%
X138950000Y-107800000D03*
%TO.P,U3,6,OUT-*%
%TO.N,-4V5*%
X139450000Y-107800000D03*
%TO.P,U3,7,FB-*%
%TO.N,Net-(U3-FB-)*%
X139450000Y-105900000D03*
%TO.P,U3,8,EN-*%
%TO.N,Net-(U3-EN+)*%
X138950000Y-105900000D03*
%TO.P,U3,9,C-*%
%TO.N,Net-(U3-C-)*%
X138450000Y-105900000D03*
%TO.P,U3,10,C+*%
%TO.N,Net-(U3-C+)*%
X137950000Y-105900000D03*
%TO.P,U3,11,OUT+*%
%TO.N,+4V5*%
X137450000Y-105900000D03*
%TO.P,U3,12,EN+*%
%TO.N,Net-(U3-EN+)*%
X136950000Y-105900000D03*
D46*
%TO.P,U3,13,PAD*%
%TO.N,GND*%
X137200000Y-106850000D03*
X138200000Y-106850000D03*
D47*
X138200000Y-106850000D03*
D46*
X139200000Y-106850000D03*
%TD*%
D43*
%TO.P,C24,1*%
%TO.N,+1V1*%
X135240000Y-74050000D03*
%TO.P,C24,2*%
%TO.N,GND*%
X136800000Y-74050000D03*
%TD*%
D10*
%TO.P,C12,1*%
%TO.N,+1V1*%
X134340000Y-86950000D03*
%TO.P,C12,2*%
%TO.N,GND*%
X134340000Y-87950000D03*
%TD*%
D13*
%TO.P,C14,1*%
%TO.N,+3V3*%
X132650000Y-75250000D03*
%TO.P,C14,2*%
%TO.N,GND*%
X131650000Y-75250000D03*
%TD*%
D14*
%TO.P,C22,1*%
%TO.N,Net-(U4-VREG_AVDD)*%
X138750000Y-74750000D03*
%TO.P,C22,2*%
%TO.N,GND*%
X138750000Y-73750000D03*
%TD*%
D11*
%TO.P,C42,1*%
%TO.N,-4V5*%
X135200000Y-128000000D03*
%TO.P,C42,2*%
%TO.N,GND*%
X136200000Y-128000000D03*
%TD*%
D13*
%TO.P,R5,1*%
%TO.N,VBUS*%
X138670000Y-102790000D03*
%TO.P,R5,2*%
%TO.N,Net-(U3-EN+)*%
X137670000Y-102790000D03*
%TD*%
D38*
%TO.P,D4,1*%
%TO.N,GND*%
X130900000Y-137150000D03*
%TO.P,D4,2*%
%TO.N,/Audio processing/OUTL*%
X130900000Y-136450000D03*
%TD*%
D13*
%TO.P,R20,1*%
%TO.N,+4V5*%
X127300000Y-130450000D03*
%TO.P,R20,2*%
%TO.N,Net-(U8-EN)*%
X126300000Y-130450000D03*
%TD*%
D48*
%TO.P,J1,A5,CC1*%
%TO.N,Net-(J1-CC1)*%
X135300000Y-60550000D03*
%TO.P,J1,A6,D+*%
%TO.N,2350DP*%
X134300000Y-60550000D03*
%TO.P,J1,A7,D-*%
%TO.N,2350DN*%
X133800000Y-60550000D03*
%TO.P,J1,A8,SBU1*%
%TO.N,unconnected-(J1-SBU1-PadA8)*%
X132800000Y-60550000D03*
D49*
%TO.P,J1,A9B4,VBUS*%
%TO.N,Net-(F1-Pad1)*%
X131650000Y-60550000D03*
%TO.P,J1,A12B1,GND*%
%TO.N,GND*%
X130850000Y-60550000D03*
D48*
%TO.P,J1,B5,CC2*%
%TO.N,Net-(J1-CC2)*%
X132300000Y-60550000D03*
%TO.P,J1,B6,D+*%
%TO.N,2350DP*%
X133300000Y-60550000D03*
%TO.P,J1,B7,D-*%
%TO.N,2350DN*%
X134800000Y-60550000D03*
%TO.P,J1,B8,SBU2*%
%TO.N,unconnected-(J1-SBU2-PadB8)*%
X135800000Y-60550000D03*
D49*
%TO.P,J1,B9A4,VBUS*%
%TO.N,Net-(F1-Pad1)*%
X136450000Y-60550000D03*
%TO.P,J1,B12A1,GND*%
%TO.N,GND*%
X137250000Y-60550000D03*
D50*
%TO.P,J1,S1,SHIELD*%
X138380000Y-59870000D03*
D51*
X138380000Y-55670000D03*
D52*
X136050000Y-57050000D03*
X136050000Y-55050000D03*
D53*
X134050000Y-56050000D03*
D52*
X132050000Y-57050000D03*
X132050000Y-55050000D03*
D50*
X129720000Y-59870000D03*
D51*
X129720000Y-55670000D03*
%TD*%
D54*
%TO.N,VBUS*%
X129850000Y-98050000D03*
X138319613Y-111828404D03*
X139730000Y-102790000D03*
X137000000Y-67712500D03*
X130800000Y-64400000D03*
X137000000Y-67112500D03*
%TO.N,+3V3*%
X128400000Y-81050000D03*
X139350000Y-70462500D03*
X139850000Y-76540000D03*
X139350000Y-82150000D03*
X128350000Y-76900000D03*
X137050000Y-89650000D03*
X138100000Y-85650000D03*
X138600000Y-70462500D03*
X129850000Y-84900000D03*
X132100000Y-76150000D03*
D55*
%TO.N,GND*%
X147000000Y-145800000D03*
X137775555Y-100350000D03*
D54*
X140020000Y-111500000D03*
D55*
X148500000Y-145800000D03*
D54*
X128940380Y-98300000D03*
X126300000Y-133250000D03*
X126490000Y-109350000D03*
D55*
X122900000Y-113050000D03*
X122900000Y-66550000D03*
D54*
X131100000Y-121500000D03*
D55*
X122900000Y-117550000D03*
X122900000Y-69550000D03*
D54*
X141611489Y-82155781D03*
D55*
X122900000Y-83050000D03*
X140000000Y-54500000D03*
D54*
X137200000Y-128000000D03*
D55*
X122900000Y-139850000D03*
X122900000Y-120550000D03*
X122900000Y-125050000D03*
D54*
X131200000Y-112800000D03*
D55*
X139350000Y-96550000D03*
D54*
X141700000Y-102940000D03*
D55*
X148900000Y-54500000D03*
X142700000Y-100350000D03*
X122900000Y-131050000D03*
X126500000Y-87350000D03*
X122900000Y-128050000D03*
X150000000Y-145800000D03*
X122900000Y-137050000D03*
D54*
X137820000Y-74700000D03*
X124490000Y-103050000D03*
D55*
X132000000Y-145800000D03*
D54*
X131100000Y-120600000D03*
D55*
X122900000Y-111550000D03*
X126500000Y-84650000D03*
X138596296Y-100350000D03*
X122900000Y-141350000D03*
X122900000Y-126550000D03*
X144500000Y-54500000D03*
D54*
X140000000Y-112230000D03*
D55*
X122900000Y-107050000D03*
D54*
X131300000Y-143450000D03*
D55*
X122900000Y-108550000D03*
X141500000Y-54500000D03*
X136954815Y-100350000D03*
D54*
X137820000Y-75400000D03*
D55*
X126500000Y-88250000D03*
X133500000Y-145800000D03*
X122900000Y-65050000D03*
X122900000Y-102550000D03*
X139350000Y-92050000D03*
X122900000Y-119050000D03*
D54*
X137300000Y-131550000D03*
D55*
X122900000Y-129550000D03*
D54*
X130600000Y-127750000D03*
D55*
X141300000Y-145800000D03*
X139900000Y-145800000D03*
X122900000Y-86050000D03*
X122900000Y-122050000D03*
D54*
X137430000Y-122005000D03*
X139150000Y-67025000D03*
D55*
X122900000Y-116050000D03*
X139350000Y-92950000D03*
X126500000Y-85550000D03*
X144300000Y-145800000D03*
D54*
X130950000Y-74450000D03*
D55*
X135313333Y-100350000D03*
X122900000Y-68050000D03*
X122900000Y-75550000D03*
X122900000Y-110050000D03*
X122900000Y-80050000D03*
X126500000Y-83750000D03*
X139350000Y-93850000D03*
D54*
X130800000Y-67012500D03*
X129200000Y-140200000D03*
X130900000Y-138000000D03*
X133300000Y-106350000D03*
X135250000Y-65150000D03*
D55*
X126500000Y-82850000D03*
D54*
X131200000Y-111900000D03*
D55*
X150400000Y-54500000D03*
D54*
X142400000Y-135350000D03*
X134429808Y-131125000D03*
D55*
X145600000Y-145800000D03*
X122900000Y-96550000D03*
X122900000Y-78550000D03*
D54*
X130600000Y-134750000D03*
D55*
X135000000Y-145800000D03*
D54*
X126400000Y-62400000D03*
X134345262Y-88370000D03*
D55*
X122900000Y-63550000D03*
X122900000Y-132550000D03*
X141879259Y-100350000D03*
X122900000Y-90550000D03*
X122900000Y-89050000D03*
X139417037Y-100350000D03*
D54*
X137200000Y-112130000D03*
D55*
X139350000Y-94750000D03*
X122900000Y-72550000D03*
X139350000Y-97450000D03*
X122900000Y-87550000D03*
D54*
X130800000Y-69000000D03*
X126730000Y-116105000D03*
D55*
X136134074Y-100350000D03*
D54*
X133550000Y-91050000D03*
X128390000Y-106350000D03*
X139730000Y-101910000D03*
D55*
X122900000Y-93550000D03*
X141058518Y-100350000D03*
X122900000Y-135550000D03*
D54*
X127380000Y-100280000D03*
D55*
X122900000Y-104050000D03*
X122900000Y-74050000D03*
X122900000Y-101050000D03*
X122900000Y-60550000D03*
D54*
X136500000Y-108550000D03*
D55*
X142800000Y-145800000D03*
X122900000Y-77050000D03*
X122900000Y-62050000D03*
D54*
X133240000Y-100512500D03*
X129619283Y-100238292D03*
D55*
X122900000Y-81550000D03*
D54*
X139949000Y-84538404D03*
D55*
X130600000Y-145800000D03*
D54*
X126400000Y-61500000D03*
D55*
X126500000Y-86450000D03*
D54*
X127590000Y-111400000D03*
D55*
X147400000Y-54500000D03*
X122900000Y-95050000D03*
X146000000Y-54500000D03*
X122900000Y-98050000D03*
X122900000Y-114550000D03*
X143000000Y-54500000D03*
X122900000Y-84550000D03*
X122900000Y-123550000D03*
X122900000Y-71050000D03*
X122900000Y-99550000D03*
X122900000Y-92050000D03*
X139350000Y-95650000D03*
X122900000Y-134050000D03*
X122900000Y-105550000D03*
X122900000Y-138550000D03*
D54*
X137820000Y-74000000D03*
D55*
X140237778Y-100350000D03*
D54*
%TO.N,-4V5*%
X135200000Y-127200000D03*
X139944264Y-108705736D03*
X128400000Y-119150000D03*
X140529225Y-102825259D03*
%TO.N,+4V5*%
X137329233Y-104806872D03*
X137100000Y-129950000D03*
X135400000Y-113800000D03*
X127400000Y-129550000D03*
X136250000Y-111500000D03*
%TO.N,+AUDIO_3V3*%
X125590000Y-101150000D03*
X134700000Y-109750000D03*
X125590000Y-106950000D03*
X125750000Y-98350000D03*
%TO.N,+1V1*%
X139350000Y-79450000D03*
X133970000Y-72600000D03*
X128350000Y-79150000D03*
X133970000Y-71850000D03*
X133970000Y-73350000D03*
X133975735Y-86124265D03*
%TO.N,GP19*%
X141174265Y-82825735D03*
X139813278Y-83750000D03*
%TO.N,/Audio processing/1652OUTL*%
X133800000Y-113750000D03*
%TO.N,/Audio processing/1652OUTR*%
X136700000Y-116620000D03*
%TD*%
D56*
%TO.N,VBUS*%
X138450000Y-67937500D02*
X138450000Y-66112500D01*
D57*
X139122798Y-66112500D02*
X138450000Y-66112500D01*
D56*
X129850000Y-98350000D02*
X129250000Y-98950000D01*
X128237500Y-97650000D02*
X129450000Y-97650000D01*
D57*
X139837500Y-67850000D02*
X139750000Y-67937500D01*
X141000000Y-67850000D02*
X139837500Y-67850000D01*
X137950000Y-109568260D02*
X138090000Y-109708260D01*
D56*
X129250000Y-98950000D02*
X128237500Y-98950000D01*
X129450000Y-97650000D02*
X129850000Y-98050000D01*
D57*
X131840000Y-64220000D02*
X130980000Y-64220000D01*
D56*
X141100000Y-67950000D02*
X141000000Y-67850000D01*
D57*
X130100000Y-97800000D02*
X129850000Y-98050000D01*
X130980000Y-64220000D02*
X130800000Y-64400000D01*
X139776000Y-67911500D02*
X139776000Y-66765702D01*
X137950000Y-107800000D02*
X137950000Y-109568260D01*
X128300000Y-62400000D02*
X130600000Y-62400000D01*
D56*
X129850000Y-98050000D02*
X129850000Y-98350000D01*
X138090000Y-110598260D02*
X138319613Y-110827873D01*
D57*
X130100000Y-96550000D02*
X130100000Y-97800000D01*
X130800000Y-62600000D02*
X130800000Y-64400000D01*
X139750000Y-67937500D02*
X139776000Y-67911500D01*
D56*
X138450000Y-66112500D02*
X138450000Y-64800000D01*
D57*
X130600000Y-62400000D02*
X130800000Y-62600000D01*
X139776000Y-66765702D02*
X139122798Y-66112500D01*
D56*
X138090000Y-109708260D02*
X138090000Y-110598260D01*
D57*
X138670000Y-102790000D02*
X139740000Y-102790000D01*
D56*
X138450000Y-64800000D02*
X138400000Y-64750000D01*
X138319613Y-110827873D02*
X138319613Y-111828404D01*
D58*
%TO.N,+3V3*%
X130350000Y-85400000D02*
X129850000Y-84900000D01*
X135350000Y-77300000D02*
X135350000Y-75510000D01*
X133750000Y-76867100D02*
X133350000Y-76467100D01*
X136550000Y-85100000D02*
X137100000Y-85650000D01*
X132267100Y-76150000D02*
X132650000Y-75767100D01*
X137950000Y-80750000D02*
X138350000Y-81150000D01*
X137200000Y-77950000D02*
X138150000Y-77950000D01*
X135350000Y-77300000D02*
X135350000Y-77797774D01*
X133750000Y-77800000D02*
X134000000Y-78050000D01*
X139850000Y-76540000D02*
X139850000Y-75750000D01*
X138350000Y-81150000D02*
X139350000Y-81150000D01*
X138650000Y-78350000D02*
X138750000Y-78250000D01*
X138750000Y-77050000D02*
X138750000Y-77350000D01*
X137200000Y-78350000D02*
X138650000Y-78350000D01*
X137100000Y-85650000D02*
X138100000Y-85650000D01*
D57*
X138600000Y-70462500D02*
X139350000Y-70462500D01*
D58*
X130350000Y-85650000D02*
X130350000Y-85400000D01*
X128600000Y-77900000D02*
X130250000Y-77900000D01*
X139350000Y-81150000D02*
X139350000Y-82150000D01*
X130250000Y-77900000D02*
X130300000Y-77950000D01*
D57*
X138600000Y-70462500D02*
X138600000Y-71350000D01*
D58*
X133350000Y-77300000D02*
X133350000Y-76467100D01*
X138150000Y-77950000D02*
X138750000Y-77350000D01*
X132550000Y-84700000D02*
X132100000Y-85150000D01*
X135350000Y-75510000D02*
X135240000Y-75400000D01*
X133750000Y-77300000D02*
X133750000Y-77800000D01*
X139260000Y-76540000D02*
X138750000Y-77050000D01*
D57*
X139100000Y-69712500D02*
X138450000Y-69712500D01*
D58*
X137050000Y-88650000D02*
X137050000Y-89650000D01*
X132550000Y-84200000D02*
X132550000Y-84700000D01*
X130850000Y-85150000D02*
X130350000Y-85650000D01*
D57*
X138450000Y-70312500D02*
X138600000Y-70462500D01*
D58*
X135097774Y-78050000D02*
X135350000Y-77797774D01*
X136550000Y-84200000D02*
X136550000Y-85100000D01*
X134000000Y-78050000D02*
X135097774Y-78050000D01*
X128400000Y-81050000D02*
X128400000Y-81950000D01*
X132100000Y-85150000D02*
X130850000Y-85150000D01*
X133350000Y-76467100D02*
X132650000Y-75767100D01*
D57*
X138450000Y-69712500D02*
X138450000Y-70312500D01*
D58*
X132100000Y-76150000D02*
X132267100Y-76150000D01*
X139850000Y-76540000D02*
X139260000Y-76540000D01*
X132650000Y-75767100D02*
X132650000Y-75300000D01*
X138750000Y-77350000D02*
X138750000Y-78250000D01*
X137200000Y-80750000D02*
X137950000Y-80750000D01*
X130300000Y-81950000D02*
X128400000Y-81950000D01*
X128350000Y-76900000D02*
X128350000Y-77900000D01*
X133750000Y-77300000D02*
X133750000Y-76867100D01*
%TO.N,GND*%
X130100000Y-70350000D02*
X130100000Y-69700000D01*
D57*
X137430000Y-122005000D02*
X137430000Y-121155000D01*
D58*
X133300000Y-106350000D02*
X133350000Y-106350000D01*
D57*
X136200000Y-131550000D02*
X137300000Y-131550000D01*
D56*
X139090000Y-111220000D02*
X139090000Y-110598260D01*
D57*
X136200000Y-130600000D02*
X136200000Y-131550000D01*
X136950000Y-108100000D02*
X136500000Y-108550000D01*
D56*
X140000000Y-112230000D02*
X140000000Y-112130000D01*
D57*
X140850000Y-103411217D02*
X140850000Y-103700000D01*
D56*
X133700000Y-143450000D02*
X131300000Y-143450000D01*
D58*
X137770000Y-74050000D02*
X137820000Y-74000000D01*
D56*
X130500000Y-88050000D02*
X130600000Y-88050000D01*
D57*
X126300000Y-132350000D02*
X126300000Y-133250000D01*
X140020000Y-110710000D02*
X140020000Y-111500000D01*
D58*
X133300000Y-106350000D02*
X133100000Y-106350000D01*
X129365000Y-100750000D02*
X129365000Y-100626470D01*
X132615000Y-101850000D02*
X132615000Y-101137500D01*
X132615000Y-101137500D02*
X133240000Y-100512500D01*
D57*
X139150000Y-67025000D02*
X139150000Y-67887500D01*
D58*
X135250000Y-64250000D02*
X135250000Y-65150000D01*
D57*
X132615000Y-107575000D02*
X132615000Y-107035000D01*
D58*
X131650000Y-75250000D02*
X130950000Y-74550000D01*
X136800000Y-76000000D02*
X136800000Y-75400000D01*
X131650000Y-75300000D02*
X131650000Y-75250000D01*
D57*
X126462500Y-99362500D02*
X127380000Y-100280000D01*
X130300000Y-121500000D02*
X131100000Y-121500000D01*
X132100000Y-111900000D02*
X131200000Y-111900000D01*
X132615000Y-107575000D02*
X131965000Y-107575000D01*
X141700000Y-102940000D02*
X141699695Y-102940305D01*
D58*
X130100000Y-69700000D02*
X130800000Y-69000000D01*
X128390000Y-106350000D02*
X128065000Y-106675000D01*
D57*
X136950000Y-107800000D02*
X136950000Y-108100000D01*
X131800000Y-131250000D02*
X134304808Y-131250000D01*
D58*
X131965000Y-100875000D02*
X131965000Y-101850000D01*
X136150000Y-76650000D02*
X136800000Y-76000000D01*
X131965000Y-106775000D02*
X131965000Y-107575000D01*
D59*
X137250000Y-60550000D02*
X137700000Y-60550000D01*
D57*
X130900000Y-137150000D02*
X130900000Y-138000000D01*
D56*
X139090000Y-110598260D02*
X139090000Y-109708260D01*
D57*
X127300000Y-61500000D02*
X126400000Y-61500000D01*
X141699695Y-102940305D02*
X141320912Y-102940305D01*
D58*
X125590000Y-109350000D02*
X126490000Y-109350000D01*
X133100000Y-106350000D02*
X132615000Y-106835000D01*
D59*
X130850000Y-60550000D02*
X130400000Y-60550000D01*
D57*
X126462500Y-98950000D02*
X126462500Y-99362500D01*
X130300000Y-120600000D02*
X131100000Y-120600000D01*
X136200000Y-128900000D02*
X136200000Y-128000000D01*
D58*
X128065000Y-106675000D02*
X128065000Y-107575000D01*
D57*
X129800000Y-127750000D02*
X130600000Y-127750000D01*
X134000000Y-107000000D02*
X135000000Y-107000000D01*
D58*
X133240000Y-100512500D02*
X132327500Y-100512500D01*
D57*
X137180000Y-112110000D02*
X137180000Y-110710000D01*
D58*
X129365000Y-101850000D02*
X129365000Y-100750000D01*
D57*
X137200000Y-112130000D02*
X137180000Y-112110000D01*
D58*
X129365000Y-100495000D02*
X129365000Y-100750000D01*
X134340000Y-88364738D02*
X134345262Y-88370000D01*
X133350000Y-106350000D02*
X134000000Y-107000000D01*
D57*
X126730000Y-116950000D02*
X126730000Y-116105000D01*
D58*
X132327500Y-100512500D02*
X131965000Y-100875000D01*
D57*
X129200000Y-139250000D02*
X129200000Y-140200000D01*
D56*
X132300000Y-89750000D02*
X132700000Y-89750000D01*
D58*
X129619283Y-100238292D02*
X129619283Y-100240717D01*
D56*
X139090000Y-109700000D02*
X139090000Y-109708260D01*
D57*
X139150000Y-67887500D02*
X139100000Y-67937500D01*
X134304808Y-131250000D02*
X134429808Y-131125000D01*
D58*
X134350000Y-90250000D02*
X133550000Y-91050000D01*
D57*
X132100000Y-112800000D02*
X131200000Y-112800000D01*
D58*
X124490000Y-102150000D02*
X124490000Y-103050000D01*
D57*
X127415000Y-101850000D02*
X127415000Y-100315000D01*
X141320912Y-102940305D02*
X140850000Y-103411217D01*
D58*
X130100000Y-66312500D02*
X130800000Y-67012500D01*
D59*
X130400000Y-60550000D02*
X129720000Y-59870000D01*
D57*
X138670000Y-101910000D02*
X139730000Y-101910000D01*
X127300000Y-62400000D02*
X126400000Y-62400000D01*
D56*
X128237500Y-98300000D02*
X128940380Y-98300000D01*
X130600000Y-88050000D02*
X132300000Y-89750000D01*
D58*
X129619283Y-100240717D02*
X129365000Y-100495000D01*
D57*
X129800000Y-134750000D02*
X130600000Y-134750000D01*
D58*
X134350000Y-90150000D02*
X134350000Y-90250000D01*
X128390000Y-111400000D02*
X127590000Y-111400000D01*
X130950000Y-74550000D02*
X130950000Y-74450000D01*
X133300000Y-106350000D02*
X132390000Y-106350000D01*
D56*
X140000000Y-112130000D02*
X139090000Y-111220000D01*
D57*
X138450000Y-107800000D02*
X138450000Y-109068260D01*
X138450000Y-109068260D02*
X139090000Y-109708260D01*
D58*
X130100000Y-65650000D02*
X130100000Y-66312500D01*
X132615000Y-106835000D02*
X132615000Y-107575000D01*
D57*
X136200000Y-128000000D02*
X137200000Y-128000000D01*
D58*
X132390000Y-106350000D02*
X131965000Y-106775000D01*
X136150000Y-77300000D02*
X136150000Y-76650000D01*
D56*
X129450000Y-60550000D02*
X129450000Y-59851364D01*
D57*
X127415000Y-100315000D02*
X127380000Y-100280000D01*
D59*
X137700000Y-60550000D02*
X138380000Y-59870000D01*
D56*
X140200000Y-135350000D02*
X142400000Y-135350000D01*
D58*
X134340000Y-87950000D02*
X134340000Y-88364738D01*
D57*
%TO.N,-4V5*%
X130900000Y-130750000D02*
X130400000Y-131250000D01*
X135200000Y-129350000D02*
X135200000Y-128900000D01*
X133800000Y-130750000D02*
X135200000Y-129350000D01*
X131800000Y-130750000D02*
X130900000Y-130750000D01*
X129300000Y-120050000D02*
X128400000Y-119150000D01*
X129300000Y-120600000D02*
X129300000Y-120050000D01*
D56*
X139450000Y-107800000D02*
X139450000Y-108300000D01*
D57*
X131800000Y-130750000D02*
X133800000Y-130750000D01*
X139989298Y-103416000D02*
X139960000Y-103416000D01*
D56*
X130060000Y-119160000D02*
X128410000Y-119160000D01*
D57*
X140529225Y-102825259D02*
X140356000Y-102998484D01*
X140356000Y-103049298D02*
X139989298Y-103416000D01*
D56*
X139450000Y-108300000D02*
X139855736Y-108705736D01*
D57*
X129300000Y-120600000D02*
X129300000Y-121500000D01*
X139944264Y-108705736D02*
X139755736Y-108705736D01*
X140356000Y-102998484D02*
X140356000Y-103049298D01*
D56*
X139855736Y-108705736D02*
X139944264Y-108705736D01*
D57*
X135200000Y-128900000D02*
X135200000Y-128000000D01*
D56*
X128410000Y-119160000D02*
X128400000Y-119150000D01*
D57*
X139960000Y-103416000D02*
X139960000Y-103700000D01*
D56*
X135200000Y-127200000D02*
X135200000Y-128000000D01*
D57*
%TO.N,+4V5*%
X131800000Y-131750000D02*
X135000000Y-131750000D01*
X135200000Y-130600000D02*
X135850000Y-129950000D01*
X136250000Y-110710000D02*
X136250000Y-111440000D01*
X127300000Y-129650000D02*
X127400000Y-129550000D01*
X135200000Y-131550000D02*
X135200000Y-130600000D01*
X133500000Y-111900000D02*
X134400000Y-112800000D01*
X133100000Y-111900000D02*
X133500000Y-111900000D01*
X135400000Y-113800000D02*
X135400000Y-114920000D01*
D56*
X137450000Y-104927639D02*
X137450000Y-105900000D01*
D57*
X134400000Y-112800000D02*
X135400000Y-113800000D01*
X135400000Y-114920000D02*
X135025000Y-115295000D01*
X127300000Y-130450000D02*
X127300000Y-129650000D01*
X135000000Y-131750000D02*
X135200000Y-131550000D01*
X133100000Y-112800000D02*
X134400000Y-112800000D01*
D56*
X137329233Y-104806872D02*
X137450000Y-104927639D01*
D57*
X135850000Y-129950000D02*
X137100000Y-129950000D01*
D58*
X137329233Y-104806872D02*
X137329233Y-104884233D01*
D56*
%TO.N,+AUDIO_3V3*%
X134700000Y-109750000D02*
X134660000Y-109790000D01*
D57*
X125650000Y-98250000D02*
X125750000Y-98350000D01*
D58*
X127066001Y-102888500D02*
X126765000Y-102587499D01*
D56*
X125590000Y-101150000D02*
X125590000Y-101250000D01*
X133440000Y-109790000D02*
X133430000Y-109800000D01*
X126190000Y-101850000D02*
X126765000Y-101850000D01*
D58*
X126765000Y-102587499D02*
X126765000Y-101850000D01*
D56*
X125590000Y-101250000D02*
X126190000Y-101850000D01*
X126462500Y-97650000D02*
X126462500Y-98300000D01*
X126215000Y-107575000D02*
X125590000Y-106950000D01*
D58*
X125590000Y-108350000D02*
X125590000Y-106950000D01*
X128413999Y-102888500D02*
X127066001Y-102888500D01*
D56*
X126462500Y-98300000D02*
X125800000Y-98300000D01*
X134660000Y-109790000D02*
X133440000Y-109790000D01*
D58*
X128715000Y-102587499D02*
X128413999Y-102888500D01*
D56*
X126765000Y-107575000D02*
X126215000Y-107575000D01*
X125800000Y-98300000D02*
X125750000Y-98350000D01*
D58*
X128715000Y-101850000D02*
X128715000Y-102587499D01*
D57*
X124490000Y-101150000D02*
X125590000Y-101150000D01*
X124500000Y-98250000D02*
X125650000Y-98250000D01*
D56*
%TO.N,Net-(F1-Pad1)*%
X136450000Y-64300000D02*
X136900000Y-64750000D01*
X131650000Y-60550000D02*
X131650000Y-59851364D01*
X131650000Y-59851364D02*
X132851364Y-58650000D01*
X136450000Y-59851364D02*
X136450000Y-60550000D01*
X135248636Y-58650000D02*
X136450000Y-59851364D01*
X136450000Y-60550000D02*
X136450000Y-64300000D01*
X132851364Y-58650000D02*
X135248636Y-58650000D01*
D57*
%TO.N,Net-(J1-CC1)*%
X135250000Y-63250000D02*
X135300000Y-63200000D01*
X135300000Y-63200000D02*
X135300000Y-60550000D01*
%TO.N,Net-(J1-CC2)*%
X132100000Y-61576000D02*
X132300000Y-61376000D01*
X128300000Y-61500000D02*
X128376000Y-61576000D01*
X128376000Y-61576000D02*
X132100000Y-61576000D01*
X132300000Y-61376000D02*
X132300000Y-60550000D01*
%TO.N,/Audio processing/5102AVDD*%
X134000000Y-108000000D02*
X133650000Y-108000000D01*
X135000000Y-108000000D02*
X134000000Y-108000000D01*
D56*
X131850000Y-109800000D02*
X131315000Y-109265000D01*
D57*
X133650000Y-108000000D02*
X131850000Y-109800000D01*
D56*
X131315000Y-109265000D02*
X131315000Y-107575000D01*
D57*
%TO.N,/Audio processing/5102OUTL*%
X126730000Y-117950000D02*
X127880000Y-117950000D01*
X129995000Y-117825000D02*
X130060000Y-117890000D01*
X127880000Y-117950000D02*
X130000000Y-117950000D01*
X130000000Y-117950000D02*
X130060000Y-117890000D01*
D58*
%TO.N,+1V1*%
X128350000Y-79950000D02*
X128350000Y-79150000D01*
X137200000Y-80350000D02*
X139150000Y-80350000D01*
X139150000Y-80350000D02*
X139350000Y-80150000D01*
X133975735Y-86124265D02*
X133750000Y-85898530D01*
X134950000Y-77300000D02*
X134950000Y-76335110D01*
X134950000Y-76335110D02*
X134489000Y-75874110D01*
X139350000Y-80150000D02*
X139350000Y-79450000D01*
X128350000Y-79950000D02*
X130300000Y-79950000D01*
X133975735Y-86124265D02*
X134340000Y-86488530D01*
X128450000Y-80050000D02*
X128350000Y-79950000D01*
X133750000Y-85898530D02*
X133750000Y-84200000D01*
X134489000Y-75874110D02*
X134489000Y-74161000D01*
X134340000Y-86488530D02*
X134340000Y-86950000D01*
D56*
%TO.N,/Audio processing/OUTR*%
X129900000Y-138500000D02*
X128600000Y-138500000D01*
X124800000Y-134700000D02*
X124800000Y-128350000D01*
X131850000Y-140450000D02*
X129900000Y-138500000D01*
X128600000Y-138500000D02*
X124800000Y-134700000D01*
X125400000Y-127750000D02*
X128850000Y-127750000D01*
D57*
X128214000Y-130328292D02*
X128635708Y-130750000D01*
X128850000Y-127750000D02*
X128214000Y-128386000D01*
X128214000Y-128386000D02*
X128214000Y-130328292D01*
D56*
X133700000Y-140450000D02*
X131850000Y-140450000D01*
D57*
X128635708Y-130750000D02*
X129000000Y-130750000D01*
D56*
X124800000Y-128350000D02*
X125400000Y-127750000D01*
D57*
%TO.N,/Audio processing/OUTL*%
X128164000Y-132221708D02*
X128635708Y-131750000D01*
X128164000Y-134064000D02*
X128850000Y-134750000D01*
X128635708Y-131750000D02*
X129000000Y-131750000D01*
D56*
X128400000Y-136450000D02*
X128164000Y-136214000D01*
D57*
X128164000Y-134064000D02*
X128164000Y-132221708D01*
D56*
X133700000Y-136450000D02*
X128400000Y-136450000D01*
X128164000Y-136214000D02*
X128164000Y-134064000D01*
D57*
%TO.N,/Audio processing/5102OUTR*%
X137430000Y-119175000D02*
X137530000Y-119075000D01*
X135000000Y-119160000D02*
X137425000Y-119160000D01*
X137510000Y-119075000D02*
X137430000Y-119155000D01*
X135085000Y-119075000D02*
X135000000Y-119160000D01*
X137530000Y-119075000D02*
X137510000Y-119075000D01*
X137425000Y-119160000D02*
X137430000Y-119155000D01*
X137430000Y-119155000D02*
X137430000Y-120155000D01*
%TO.N,/Audio processing/VOLOUTR*%
X144900000Y-124350000D02*
X150550000Y-130000000D01*
X150550000Y-130000000D02*
X150550000Y-134550000D01*
X131800000Y-130250000D02*
X133200000Y-128850000D01*
X134100000Y-124350000D02*
X144900000Y-124350000D01*
X133200000Y-128850000D02*
X133200000Y-125250000D01*
X133200000Y-125250000D02*
X134100000Y-124350000D01*
%TO.N,/Audio processing/VOLOUTL*%
X144150000Y-133150000D02*
X145550000Y-134550000D01*
X133750000Y-133150000D02*
X144150000Y-133150000D01*
X131800000Y-132250000D02*
X132850000Y-132250000D01*
X132850000Y-132250000D02*
X133750000Y-133150000D01*
D58*
%TO.N,/MCU/SWCLK*%
X130910000Y-92150000D02*
X129210000Y-93850000D01*
X134150000Y-85450000D02*
X134961000Y-86261000D01*
X134150000Y-84200000D02*
X134150000Y-85450000D01*
X134961000Y-91339000D02*
X134150000Y-92150000D01*
X134961000Y-86261000D02*
X134961000Y-91339000D01*
X134150000Y-92150000D02*
X130910000Y-92150000D01*
%TO.N,/MCU/SWDIO*%
X135362000Y-92778000D02*
X135362000Y-86062000D01*
X134290000Y-93850000D02*
X135362000Y-92778000D01*
X135362000Y-86062000D02*
X134550000Y-85250000D01*
X134550000Y-85250000D02*
X134550000Y-84200000D01*
D57*
%TO.N,2350DP*%
X133300000Y-63760000D02*
X133760000Y-64220000D01*
X133300000Y-60550000D02*
X133300000Y-59548000D01*
D58*
X131150000Y-71860000D02*
X131024000Y-71734000D01*
D57*
X133300000Y-59548000D02*
X133324000Y-59524000D01*
D58*
X131150000Y-71860000D02*
X132836000Y-70174000D01*
X132836000Y-65144000D02*
X133760000Y-64220000D01*
X132836000Y-70174000D02*
X132836000Y-65144000D01*
D57*
X134276000Y-59524000D02*
X134300000Y-59548000D01*
X134300000Y-59548000D02*
X134300000Y-60550000D01*
X133300000Y-60550000D02*
X133300000Y-63760000D01*
D58*
X131024000Y-71900000D02*
X131024000Y-71974000D01*
D57*
X133324000Y-59524000D02*
X134276000Y-59524000D01*
%TO.N,2350DN*%
X134800000Y-61552000D02*
X134776000Y-61576000D01*
X134400000Y-61576000D02*
X133926000Y-61576000D01*
D58*
X133760000Y-70060000D02*
X133760000Y-66330000D01*
D57*
X133800000Y-61450000D02*
X133800000Y-60550000D01*
X134776000Y-61576000D02*
X134400000Y-61576000D01*
X134800000Y-60550000D02*
X134800000Y-61552000D01*
D58*
X133760000Y-66330000D02*
X134400000Y-65690000D01*
X133760000Y-70060000D02*
X132550000Y-71270000D01*
D57*
X133926000Y-61576000D02*
X133800000Y-61450000D01*
D58*
X132550000Y-71270000D02*
X132550000Y-71880000D01*
X134400000Y-65690000D02*
X134400000Y-61576000D01*
%TO.N,/MCU/QSPI_SS*%
X130950000Y-77300000D02*
X130950000Y-75750000D01*
X130950000Y-75750000D02*
X130450000Y-75250000D01*
%TO.N,/MCU/RUN*%
X126800000Y-65950000D02*
X126800000Y-65650000D01*
X125500000Y-94900000D02*
X125500000Y-67250000D01*
X137050000Y-87650000D02*
X136150000Y-86750000D01*
X136150000Y-95050000D02*
X135350000Y-95850000D01*
X134950000Y-84697774D02*
X134950000Y-84200000D01*
X125500000Y-67250000D02*
X126800000Y-65950000D01*
X136150000Y-86750000D02*
X136150000Y-95050000D01*
X136150000Y-86750000D02*
X136150000Y-85897774D01*
X135350000Y-95850000D02*
X126450000Y-95850000D01*
X126450000Y-95850000D02*
X125500000Y-94900000D01*
X136150000Y-85897774D02*
X134950000Y-84697774D01*
%TO.N,GP20*%
X130015000Y-101850000D02*
X130015000Y-100825000D01*
X140549000Y-83616100D02*
X140549000Y-98083900D01*
X130310000Y-100530000D02*
X130310000Y-99550000D01*
X140549000Y-98083900D02*
X139683900Y-98949000D01*
X137200000Y-83150000D02*
X140082900Y-83150000D01*
X139683900Y-98949000D02*
X138850000Y-98949000D01*
X130911000Y-98949000D02*
X138850000Y-98949000D01*
X140082900Y-83150000D02*
X140549000Y-83616100D01*
X130310000Y-99550000D02*
X130911000Y-98949000D01*
X130015000Y-100825000D02*
X130310000Y-100530000D01*
%TO.N,GP21*%
X139850000Y-99350000D02*
X140950000Y-98250000D01*
X140950000Y-83450000D02*
X140250000Y-82750000D01*
X140950000Y-98250000D02*
X140950000Y-83450000D01*
X130848550Y-100574407D02*
X130848550Y-99578550D01*
X130848550Y-99578550D02*
X131077100Y-99350000D01*
X130665000Y-101850000D02*
X130665000Y-100757957D01*
X140250000Y-82750000D02*
X137200000Y-82750000D01*
X130665000Y-100757957D02*
X130848550Y-100574407D01*
X131077100Y-99350000D02*
X139850000Y-99350000D01*
%TO.N,GP19*%
X139813278Y-83750000D02*
X138350000Y-83750000D01*
X131315000Y-100355000D02*
X131315000Y-101850000D01*
X141350000Y-98550000D02*
X140149000Y-99751000D01*
X141350000Y-83001470D02*
X141350000Y-98550000D01*
X131919000Y-99751000D02*
X131315000Y-100355000D01*
X138350000Y-83750000D02*
X138150000Y-83550000D01*
X138150000Y-83550000D02*
X137200000Y-83550000D01*
X141174265Y-82825735D02*
X141350000Y-83001470D01*
X140149000Y-99751000D02*
X131919000Y-99751000D01*
%TO.N,Net-(R8-Pad1)*%
X126800000Y-70350000D02*
X125900000Y-71250000D01*
X127350000Y-75250000D02*
X129450000Y-75250000D01*
X125900000Y-73800000D02*
X127350000Y-75250000D01*
X125900000Y-71250000D02*
X125900000Y-73800000D01*
D57*
%TO.N,/Audio processing/1652OUTL*%
X133800000Y-113750000D02*
X130800000Y-113750000D01*
X130060000Y-116620000D02*
X130060000Y-115350000D01*
X130800000Y-113750000D02*
X130060000Y-114490000D01*
X130060000Y-114490000D02*
X130060000Y-115350000D01*
%TO.N,/Audio processing/1652OUTR*%
X136700000Y-116620000D02*
X135000000Y-116620000D01*
X135000000Y-116620000D02*
X135000000Y-117890000D01*
D58*
%TO.N,Net-(U3-EN+)*%
X139261000Y-103673450D02*
X139006550Y-103419000D01*
X136720000Y-103920000D02*
X136720000Y-105670000D01*
X137670000Y-102970000D02*
X136720000Y-103920000D01*
X138299000Y-103419000D02*
X137670000Y-102790000D01*
X139261000Y-104386550D02*
X139261000Y-103673450D01*
X138950000Y-105900000D02*
X138950000Y-104697550D01*
X136720000Y-105670000D02*
X136950000Y-105900000D01*
X137670000Y-102790000D02*
X137670000Y-102970000D01*
X137670000Y-102790000D02*
X137670000Y-101910000D01*
X139006550Y-103419000D02*
X138299000Y-103419000D01*
X138950000Y-104697550D02*
X139261000Y-104386550D01*
D57*
%TO.N,Net-(U3-C+)*%
X137950000Y-105900000D02*
X137955233Y-105894767D01*
X137955233Y-105894767D02*
X137955233Y-104305233D01*
X137955233Y-104305233D02*
X137680000Y-104030000D01*
%TO.N,Net-(U3-C-)*%
X138680000Y-104030000D02*
X138450000Y-104260000D01*
X138450000Y-104260000D02*
X138450000Y-105900000D01*
%TO.N,Net-(U3-CP)*%
X140020000Y-109665356D02*
X140020000Y-109710000D01*
X139414869Y-109060225D02*
X140020000Y-109665356D01*
X138950000Y-108930450D02*
X139079775Y-109060225D01*
X139079775Y-109060225D02*
X139414869Y-109060225D01*
X138950000Y-107800000D02*
X138950000Y-108930450D01*
D58*
%TO.N,Net-(U4-VREG_AVDD)*%
X137866450Y-76633550D02*
X136733550Y-76633550D01*
X138750000Y-75750000D02*
X138750000Y-74750000D01*
X138750000Y-75750000D02*
X137866450Y-76633550D01*
X136733550Y-76633550D02*
X136550000Y-76817100D01*
X136550000Y-76817100D02*
X136550000Y-77300000D01*
%TO.N,Net-(U4-XIN)*%
X129600000Y-86650000D02*
X129100000Y-87150000D01*
X129100000Y-88900000D02*
X129600000Y-89400000D01*
X129600000Y-89400000D02*
X129950000Y-89750000D01*
X130500000Y-89750000D02*
X130600000Y-89750000D01*
X132600000Y-85650000D02*
X131850000Y-85650000D01*
X129950000Y-89750000D02*
X130500000Y-89750000D01*
X127850000Y-89400000D02*
X129600000Y-89400000D01*
X132950000Y-85300000D02*
X132600000Y-85650000D01*
X131850000Y-85650000D02*
X130850000Y-86650000D01*
X132950000Y-84200000D02*
X132950000Y-85300000D01*
X129100000Y-87150000D02*
X129100000Y-88900000D01*
X130850000Y-86650000D02*
X129600000Y-86650000D01*
X130400000Y-89650000D02*
X130500000Y-89750000D01*
%TO.N,Net-(C26-Pad1)*%
X132800000Y-88050000D02*
X132700000Y-88050000D01*
X134350000Y-89150000D02*
X133900000Y-89150000D01*
X132200000Y-86550000D02*
X132200000Y-87550000D01*
X132200000Y-87550000D02*
X132700000Y-88050000D01*
X133900000Y-89150000D02*
X132800000Y-88050000D01*
%TO.N,Net-(U7-CAPP)*%
X127390000Y-109350000D02*
X127390000Y-107600000D01*
X127390000Y-107600000D02*
X127415000Y-107575000D01*
%TO.N,Net-(U7-CAPM)*%
X128715000Y-109025000D02*
X128715000Y-107575000D01*
X128390000Y-109350000D02*
X128715000Y-109025000D01*
D57*
%TO.N,Net-(U7-LDOO)*%
X128270000Y-99720000D02*
X129270000Y-99720000D01*
X128065000Y-99925000D02*
X128270000Y-99720000D01*
X131040000Y-97120000D02*
X132250000Y-97120000D01*
X129270000Y-99720000D02*
X130610000Y-98380000D01*
X128065000Y-101850000D02*
X128065000Y-99925000D01*
X130610000Y-97550000D02*
X131040000Y-97120000D01*
X130610000Y-98380000D02*
X130610000Y-97550000D01*
D58*
%TO.N,Net-(U7-VNEG)*%
X128390000Y-110400000D02*
X129365000Y-109425000D01*
X129365000Y-109425000D02*
X129365000Y-107575000D01*
D57*
%TO.N,Net-(U8-EN)*%
X126400000Y-131250000D02*
X129000000Y-131250000D01*
X126300000Y-131350000D02*
X126400000Y-131250000D01*
X126300000Y-130450000D02*
X126300000Y-131350000D01*
D58*
%TO.N,Net-(U4-VREG_LX)*%
X136020000Y-73400000D02*
X136020000Y-76100000D01*
X137020000Y-72400000D02*
X136020000Y-73400000D01*
X135750000Y-76370000D02*
X136020000Y-76100000D01*
X135750000Y-77300000D02*
X135750000Y-76370000D01*
D57*
%TO.N,Net-(U3-FB+)*%
X136250000Y-109710000D02*
X137180000Y-109710000D01*
X137450000Y-109440000D02*
X137450000Y-107800000D01*
X137180000Y-109710000D02*
X137450000Y-109440000D01*
%TO.N,Net-(U3-FB-)*%
X139450000Y-105210000D02*
X139960000Y-104700000D01*
X139960000Y-104700000D02*
X140850000Y-104700000D01*
X139450000Y-105900000D02*
X139450000Y-105210000D01*
D58*
%TO.N,Net-(U4-USB_DP)*%
X132750000Y-74300000D02*
X133549000Y-75099000D01*
X131150000Y-73700000D02*
X131150000Y-73500000D01*
X133549000Y-76099000D02*
X134150000Y-76700000D01*
X131150000Y-73500000D02*
X131950000Y-74300000D01*
X134150000Y-76700000D02*
X134150000Y-77300000D01*
X133549000Y-75099000D02*
X133549000Y-76099000D01*
X131950000Y-74300000D02*
X132750000Y-74300000D01*
%TO.N,Net-(U4-USB_DM)*%
X132970000Y-73520000D02*
X133950000Y-74500000D01*
X133950000Y-75932900D02*
X134550000Y-76532900D01*
X134550000Y-77300000D02*
X134550000Y-76532900D01*
X133950000Y-74500000D02*
X133950000Y-75932900D01*
X132550000Y-73520000D02*
X132970000Y-73520000D01*
%TO.N,Net-(U4-XOUT)*%
X133350000Y-86400000D02*
X133350000Y-84200000D01*
X133200000Y-86550000D02*
X133350000Y-86400000D01*
D57*
%TO.N,Net-(U7-OUTL)*%
X127880000Y-114070000D02*
X130015000Y-111935000D01*
X130015000Y-111935000D02*
X130015000Y-107575000D01*
X127880000Y-116950000D02*
X127880000Y-114070000D01*
%TO.N,Net-(U7-OUTR)*%
X130665000Y-110415000D02*
X130665000Y-107575000D01*
X138200000Y-114700000D02*
X134250000Y-110750000D01*
X137430000Y-118155000D02*
X138200000Y-117385000D01*
X138200000Y-117385000D02*
X138200000Y-114700000D01*
X131000000Y-110750000D02*
X130665000Y-110415000D01*
X134250000Y-110750000D02*
X131000000Y-110750000D01*
%TO.N,Net-(U8--INA)*%
X129800000Y-133750000D02*
X128850000Y-133750000D01*
X128850000Y-132400000D02*
X129000000Y-132250000D01*
X128850000Y-133750000D02*
X128850000Y-132400000D01*
%TO.N,Net-(U8--INB)*%
X128850000Y-128750000D02*
X128850000Y-130100000D01*
X129800000Y-128750000D02*
X128850000Y-128750000D01*
X128850000Y-130100000D02*
X129000000Y-130250000D01*
%TD*%
%TA.AperFunction,Conductor*%
%TO.N,GND*%
G36*
X129058588Y-54120185D02*
G01*
X129104343Y-54172989D01*
X129114287Y-54242147D01*
X129085262Y-54305703D01*
X129064434Y-54324819D01*
X128970824Y-54392829D01*
X128842823Y-54520830D01*
X128736434Y-54667265D01*
X128654252Y-54828552D01*
X128654251Y-54828555D01*
X128598317Y-55000706D01*
X128570000Y-55179493D01*
X128570000Y-55420000D01*
X129470000Y-55420000D01*
X129470000Y-55920000D01*
X128570000Y-55920000D01*
X128570000Y-56160506D01*
X128598317Y-56339293D01*
X128654251Y-56511444D01*
X128654252Y-56511447D01*
X128736434Y-56672734D01*
X128842823Y-56819169D01*
X128970830Y-56947176D01*
X129117265Y-57053565D01*
X129278552Y-57135747D01*
X129278555Y-57135748D01*
X129450699Y-57191680D01*
X129450712Y-57191683D01*
X129470000Y-57194738D01*
X129470000Y-56119728D01*
X129508060Y-56211614D01*
X129578386Y-56281940D01*
X129670272Y-56320000D01*
X129769728Y-56320000D01*
X129861614Y-56281940D01*
X129931940Y-56211614D01*
X129970000Y-56119728D01*
X129970000Y-57194737D01*
X129989287Y-57191683D01*
X129989300Y-57191680D01*
X130061296Y-57168288D01*
X130161444Y-57135748D01*
X130161447Y-57135747D01*
X130322734Y-57053565D01*
X130368709Y-57020163D01*
X131900000Y-57020163D01*
X131900000Y-57079837D01*
X131922836Y-57134968D01*
X131965032Y-57177164D01*
X132020163Y-57200000D01*
X132079837Y-57200000D01*
X132134968Y-57177164D01*
X132177164Y-57134968D01*
X132200000Y-57079837D01*
X132200000Y-57020163D01*
X135900000Y-57020163D01*
X135900000Y-57079837D01*
X135922836Y-57134968D01*
X135965032Y-57177164D01*
X136020163Y-57200000D01*
X136079837Y-57200000D01*
X136134968Y-57177164D01*
X136177164Y-57134968D01*
X136200000Y-57079837D01*
X136200000Y-57020163D01*
X136177164Y-56965032D01*
X136134968Y-56922836D01*
X136079837Y-56900000D01*
X136020163Y-56900000D01*
X135965032Y-56922836D01*
X135922836Y-56965032D01*
X135900000Y-57020163D01*
X132200000Y-57020163D01*
X132177164Y-56965032D01*
X132134968Y-56922836D01*
X132079837Y-56900000D01*
X132020163Y-56900000D01*
X131965032Y-56922836D01*
X131922836Y-56965032D01*
X131900000Y-57020163D01*
X130368709Y-57020163D01*
X130469169Y-56947176D01*
X130597170Y-56819175D01*
X130611102Y-56799999D01*
X131341759Y-56799999D01*
X131341759Y-56800000D01*
X131800000Y-56800000D01*
X132300000Y-56800000D01*
X132758241Y-56800000D01*
X132758240Y-56799999D01*
X135341759Y-56799999D01*
X135341759Y-56800000D01*
X135800000Y-56800000D01*
X136300000Y-56800000D01*
X136758241Y-56800000D01*
X136758240Y-56799999D01*
X136714642Y-56694745D01*
X136714637Y-56694735D01*
X136632563Y-56571903D01*
X136632560Y-56571899D01*
X136528100Y-56467439D01*
X136528096Y-56467436D01*
X136405264Y-56385362D01*
X136405254Y-56385357D01*
X136300000Y-56341759D01*
X136300000Y-56800000D01*
X135800000Y-56800000D01*
X135800000Y-56341759D01*
X135799999Y-56341759D01*
X135694745Y-56385357D01*
X135694735Y-56385362D01*
X135571903Y-56467436D01*
X135571899Y-56467439D01*
X135467439Y-56571899D01*
X135467436Y-56571903D01*
X135385362Y-56694735D01*
X135385357Y-56694745D01*
X135341759Y-56799999D01*
X132758240Y-56799999D01*
X132714642Y-56694745D01*
X132714637Y-56694735D01*
X132632563Y-56571903D01*
X132632560Y-56571899D01*
X132528100Y-56467439D01*
X132528096Y-56467436D01*
X132405264Y-56385362D01*
X132405254Y-56385357D01*
X132300000Y-56341759D01*
X132300000Y-56800000D01*
X131800000Y-56800000D01*
X131800000Y-56341759D01*
X131799999Y-56341759D01*
X131694745Y-56385357D01*
X131694735Y-56385362D01*
X131571903Y-56467436D01*
X131571899Y-56467439D01*
X131467439Y-56571899D01*
X131467436Y-56571903D01*
X131385362Y-56694735D01*
X131385357Y-56694745D01*
X131341759Y-56799999D01*
X130611102Y-56799999D01*
X130654043Y-56740896D01*
X130654045Y-56740894D01*
X130703565Y-56672734D01*
X130785747Y-56511447D01*
X130785748Y-56511444D01*
X130841682Y-56339293D01*
X130870000Y-56160506D01*
X130870000Y-55920000D01*
X129970000Y-55920000D01*
X129970000Y-55420000D01*
X130870000Y-55420000D01*
X130870000Y-55300000D01*
X131341759Y-55300000D01*
X131385357Y-55405254D01*
X131385362Y-55405264D01*
X131467436Y-55528096D01*
X131467439Y-55528100D01*
X131571899Y-55632560D01*
X131571907Y-55632566D01*
X131694739Y-55714640D01*
X131694743Y-55714642D01*
X131799999Y-55758240D01*
X131800000Y-55758240D01*
X132300000Y-55758240D01*
X132405256Y-55714642D01*
X132405260Y-55714640D01*
X132528092Y-55632566D01*
X132528100Y-55632560D01*
X132632560Y-55528100D01*
X132632563Y-55528096D01*
X132714637Y-55405264D01*
X132714642Y-55405254D01*
X132758241Y-55300000D01*
X135341759Y-55300000D01*
X135385357Y-55405254D01*
X135385362Y-55405264D01*
X135467436Y-55528096D01*
X135467439Y-55528100D01*
X135571899Y-55632560D01*
X135571907Y-55632566D01*
X135694739Y-55714640D01*
X135694743Y-55714642D01*
X135799999Y-55758240D01*
X135800000Y-55758240D01*
X136300000Y-55758240D01*
X136310051Y-55754077D01*
X136405256Y-55714642D01*
X136405260Y-55714640D01*
X136528092Y-55632566D01*
X136528100Y-55632560D01*
X136632560Y-55528100D01*
X136632563Y-55528096D01*
X136714637Y-55405264D01*
X136714642Y-55405254D01*
X136758241Y-55300000D01*
X136300000Y-55300000D01*
X136300000Y-55758240D01*
X135800000Y-55758240D01*
X135800000Y-55300000D01*
X135341759Y-55300000D01*
X132758241Y-55300000D01*
X132300000Y-55300000D01*
X132300000Y-55758240D01*
X131800000Y-55758240D01*
X131800000Y-55300000D01*
X131341759Y-55300000D01*
X130870000Y-55300000D01*
X130870000Y-55179493D01*
X130844764Y-55020163D01*
X131900000Y-55020163D01*
X131900000Y-55079837D01*
X131922836Y-55134968D01*
X131965032Y-55177164D01*
X132020163Y-55200000D01*
X132079837Y-55200000D01*
X132134968Y-55177164D01*
X132177164Y-55134968D01*
X132200000Y-55079837D01*
X132200000Y-55020163D01*
X135900000Y-55020163D01*
X135900000Y-55079837D01*
X135922836Y-55134968D01*
X135965032Y-55177164D01*
X136020163Y-55200000D01*
X136079837Y-55200000D01*
X136134968Y-55177164D01*
X136177164Y-55134968D01*
X136200000Y-55079837D01*
X136200000Y-55020163D01*
X136177164Y-54965032D01*
X136134968Y-54922836D01*
X136079837Y-54900000D01*
X136020163Y-54900000D01*
X135965032Y-54922836D01*
X135922836Y-54965032D01*
X135900000Y-55020163D01*
X132200000Y-55020163D01*
X132177164Y-54965032D01*
X132134968Y-54922836D01*
X132079837Y-54900000D01*
X132020163Y-54900000D01*
X131965032Y-54922836D01*
X131922836Y-54965032D01*
X131900000Y-55020163D01*
X130844764Y-55020163D01*
X130841682Y-55000706D01*
X130785748Y-54828555D01*
X130785747Y-54828552D01*
X130703565Y-54667265D01*
X130597176Y-54520830D01*
X130469175Y-54392829D01*
X130375566Y-54324819D01*
X130332900Y-54269489D01*
X130326921Y-54199876D01*
X130359526Y-54138080D01*
X130420365Y-54103723D01*
X130448451Y-54100500D01*
X131759061Y-54100500D01*
X131826100Y-54120185D01*
X131871855Y-54172989D01*
X131881799Y-54242147D01*
X131852774Y-54305703D01*
X131806514Y-54339061D01*
X131694745Y-54385357D01*
X131694735Y-54385362D01*
X131571903Y-54467436D01*
X131571899Y-54467439D01*
X131467439Y-54571899D01*
X131467436Y-54571903D01*
X131385362Y-54694735D01*
X131385357Y-54694745D01*
X131341759Y-54799999D01*
X131341759Y-54800000D01*
X132758241Y-54800000D01*
X132758240Y-54799999D01*
X132714642Y-54694745D01*
X132714637Y-54694735D01*
X132632563Y-54571903D01*
X132632560Y-54571899D01*
X132528100Y-54467439D01*
X132528096Y-54467436D01*
X132405264Y-54385362D01*
X132405254Y-54385357D01*
X132293486Y-54339061D01*
X132239083Y-54295220D01*
X132217018Y-54228926D01*
X132234297Y-54161226D01*
X132285435Y-54113616D01*
X132340939Y-54100500D01*
X135759061Y-54100500D01*
X135826100Y-54120185D01*
X135871855Y-54172989D01*
X135881799Y-54242147D01*
X135852774Y-54305703D01*
X135806514Y-54339061D01*
X135694745Y-54385357D01*
X135694735Y-54385362D01*
X135571903Y-54467436D01*
X135571899Y-54467439D01*
X135467439Y-54571899D01*
X135467436Y-54571903D01*
X135385362Y-54694735D01*
X135385357Y-54694745D01*
X135341759Y-54799999D01*
X135341759Y-54800000D01*
X136758241Y-54800000D01*
X136758240Y-54799999D01*
X136714642Y-54694745D01*
X136714637Y-54694735D01*
X136632563Y-54571903D01*
X136632560Y-54571899D01*
X136528100Y-54467439D01*
X136528096Y-54467436D01*
X136405264Y-54385362D01*
X136405254Y-54385357D01*
X136293486Y-54339061D01*
X136239083Y-54295220D01*
X136217018Y-54228926D01*
X136234297Y-54161226D01*
X136285435Y-54113616D01*
X136340939Y-54100500D01*
X137651549Y-54100500D01*
X137718588Y-54120185D01*
X137764343Y-54172989D01*
X137774287Y-54242147D01*
X137745262Y-54305703D01*
X137724434Y-54324819D01*
X137630824Y-54392829D01*
X137502823Y-54520830D01*
X137396434Y-54667265D01*
X137314252Y-54828552D01*
X137314251Y-54828555D01*
X137258317Y-55000706D01*
X137230000Y-55179493D01*
X137230000Y-55420000D01*
X138130000Y-55420000D01*
X138130000Y-55920000D01*
X137230000Y-55920000D01*
X137230000Y-56160506D01*
X137258317Y-56339293D01*
X137314251Y-56511444D01*
X137314252Y-56511447D01*
X137396434Y-56672734D01*
X137502823Y-56819169D01*
X137630830Y-56947176D01*
X137777265Y-57053565D01*
X137938552Y-57135747D01*
X137938555Y-57135748D01*
X138110699Y-57191680D01*
X138110712Y-57191683D01*
X138130000Y-57194738D01*
X138130000Y-56119728D01*
X138168060Y-56211614D01*
X138238386Y-56281940D01*
X138330272Y-56320000D01*
X138429728Y-56320000D01*
X138521614Y-56281940D01*
X138591940Y-56211614D01*
X138630000Y-56119728D01*
X138630000Y-57194737D01*
X138649287Y-57191683D01*
X138649300Y-57191680D01*
X138821444Y-57135748D01*
X138821447Y-57135747D01*
X138982734Y-57053565D01*
X139129169Y-56947176D01*
X139257176Y-56819169D01*
X139363565Y-56672734D01*
X139445747Y-56511447D01*
X139445748Y-56511444D01*
X139501682Y-56339293D01*
X139530000Y-56160506D01*
X139530000Y-55920000D01*
X138630000Y-55920000D01*
X138630000Y-55420000D01*
X139530000Y-55420000D01*
X139530000Y-55179493D01*
X139501682Y-55000706D01*
X139445748Y-54828555D01*
X139445747Y-54828552D01*
X139363565Y-54667265D01*
X139257176Y-54520830D01*
X139129175Y-54392829D01*
X139035566Y-54324819D01*
X138992900Y-54269489D01*
X138986921Y-54199876D01*
X139019526Y-54138080D01*
X139080365Y-54103723D01*
X139108451Y-54100500D01*
X143606609Y-54100500D01*
X143673648Y-54120185D01*
X143719403Y-54172989D01*
X143730608Y-54224365D01*
X143732893Y-56339293D01*
X143779716Y-99697388D01*
X143777355Y-99721605D01*
X143765561Y-99781174D01*
X143747059Y-99825930D01*
X143720267Y-99866071D01*
X143686033Y-99900326D01*
X143645910Y-99927142D01*
X143601166Y-99945672D01*
X143541603Y-99957503D01*
X143517388Y-99959879D01*
X141127667Y-99958782D01*
X141127665Y-99958782D01*
X141089771Y-99958764D01*
X141022741Y-99939048D01*
X140977011Y-99886222D01*
X140967101Y-99817059D01*
X140996156Y-99753517D01*
X141002121Y-99747112D01*
X141708506Y-99040728D01*
X141708511Y-99040724D01*
X141718714Y-99030520D01*
X141718716Y-99030520D01*
X141830520Y-98918716D01*
X141909577Y-98781784D01*
X141950500Y-98629057D01*
X141950500Y-83080530D01*
X141950501Y-83080527D01*
X141950501Y-83038766D01*
X141952884Y-83014578D01*
X141974765Y-82904579D01*
X141974765Y-82746890D01*
X141974764Y-82746888D01*
X141967923Y-82712495D01*
X141944002Y-82592238D01*
X141935667Y-82572115D01*
X141883662Y-82446562D01*
X141883655Y-82446549D01*
X141796054Y-82315446D01*
X141796051Y-82315442D01*
X141684557Y-82203948D01*
X141684553Y-82203945D01*
X141553450Y-82116344D01*
X141553437Y-82116337D01*
X141407766Y-82055999D01*
X141407754Y-82055996D01*
X141253110Y-82025235D01*
X141253107Y-82025235D01*
X141095423Y-82025235D01*
X141095420Y-82025235D01*
X140940775Y-82055996D01*
X140940763Y-82055999D01*
X140795092Y-82116337D01*
X140795079Y-82116344D01*
X140658911Y-82207330D01*
X140658112Y-82206134D01*
X140600417Y-82230626D01*
X140531551Y-82218822D01*
X140524084Y-82214844D01*
X140481788Y-82190424D01*
X140481789Y-82190424D01*
X140469263Y-82187067D01*
X140329057Y-82149499D01*
X140267847Y-82149499D01*
X140200808Y-82129814D01*
X140155053Y-82077010D01*
X140146230Y-82049690D01*
X140119738Y-81916510D01*
X140119737Y-81916503D01*
X140102950Y-81875975D01*
X140059396Y-81770825D01*
X140059395Y-81770824D01*
X140059394Y-81770821D01*
X140053991Y-81762735D01*
X140033114Y-81696060D01*
X140050362Y-81630726D01*
X140082494Y-81576395D01*
X140125730Y-81427577D01*
X140127642Y-81420997D01*
X140127643Y-81420991D01*
X140130499Y-81384697D01*
X140130500Y-81384690D01*
X140130500Y-80915310D01*
X140127643Y-80879007D01*
X140111624Y-80823871D01*
X140082496Y-80723611D01*
X140082495Y-80723610D01*
X140082494Y-80723605D01*
X140076292Y-80713119D01*
X140059110Y-80645400D01*
X140076292Y-80586881D01*
X140082494Y-80576395D01*
X140121220Y-80443102D01*
X140127642Y-80420997D01*
X140127643Y-80420991D01*
X140130500Y-80384690D01*
X140130500Y-79915310D01*
X140127643Y-79879007D01*
X140103147Y-79794693D01*
X140103346Y-79724826D01*
X140107657Y-79712659D01*
X140119737Y-79683497D01*
X140150500Y-79528842D01*
X140150500Y-79371158D01*
X140150500Y-79371155D01*
X140150499Y-79371153D01*
X140144418Y-79340581D01*
X140119737Y-79216503D01*
X140094526Y-79155638D01*
X140059397Y-79070827D01*
X140059390Y-79070814D01*
X139971789Y-78939711D01*
X139971786Y-78939707D01*
X139860292Y-78828213D01*
X139860288Y-78828210D01*
X139729185Y-78740609D01*
X139729176Y-78740604D01*
X139594949Y-78685006D01*
X139540546Y-78641165D01*
X139518481Y-78574871D01*
X139523326Y-78535851D01*
X139527643Y-78520993D01*
X139530500Y-78484690D01*
X139530500Y-78015310D01*
X139527643Y-77979007D01*
X139485687Y-77834595D01*
X139485687Y-77765404D01*
X139527643Y-77620993D01*
X139530500Y-77584690D01*
X139530500Y-77443724D01*
X139550185Y-77376685D01*
X139602989Y-77330930D01*
X139672147Y-77320986D01*
X139678683Y-77322105D01*
X139713913Y-77329113D01*
X139771156Y-77340500D01*
X139771158Y-77340500D01*
X139928844Y-77340500D01*
X139928845Y-77340499D01*
X140083497Y-77309737D01*
X140229179Y-77249394D01*
X140360289Y-77161789D01*
X140471789Y-77050289D01*
X140559394Y-76919179D01*
X140619737Y-76773497D01*
X140650500Y-76618842D01*
X140650500Y-76461158D01*
X140650500Y-76461155D01*
X140650499Y-76461153D01*
X140619738Y-76306510D01*
X140619737Y-76306503D01*
X140592293Y-76240249D01*
X140584825Y-76170782D01*
X140587776Y-76158213D01*
X140627643Y-76020993D01*
X140630500Y-75984690D01*
X140630500Y-75515310D01*
X140627643Y-75479007D01*
X140616486Y-75440606D01*
X140582495Y-75323609D01*
X140582494Y-75323606D01*
X140582494Y-75323605D01*
X140500117Y-75184313D01*
X140500115Y-75184311D01*
X140500112Y-75184307D01*
X140385692Y-75069887D01*
X140385684Y-75069881D01*
X140293409Y-75015310D01*
X140246395Y-74987506D01*
X140246394Y-74987505D01*
X140246393Y-74987505D01*
X140246390Y-74987504D01*
X140090997Y-74942357D01*
X140090991Y-74942356D01*
X140054697Y-74939500D01*
X140054690Y-74939500D01*
X139684500Y-74939500D01*
X139617461Y-74919815D01*
X139571706Y-74867011D01*
X139560500Y-74815500D01*
X139560500Y-74545317D01*
X139560499Y-74545302D01*
X139557643Y-74509008D01*
X139557642Y-74509002D01*
X139512495Y-74353609D01*
X139512494Y-74353606D01*
X139512494Y-74353605D01*
X139430117Y-74214313D01*
X139430115Y-74214311D01*
X139430112Y-74214307D01*
X139315692Y-74099887D01*
X139315684Y-74099881D01*
X139176393Y-74017505D01*
X139176390Y-74017504D01*
X139020997Y-73972357D01*
X139020991Y-73972356D01*
X138984697Y-73969500D01*
X138984690Y-73969500D01*
X138515310Y-73969500D01*
X138515302Y-73969500D01*
X138479008Y-73972356D01*
X138479002Y-73972357D01*
X138323609Y-74017504D01*
X138323606Y-74017505D01*
X138184315Y-74099881D01*
X138184307Y-74099887D01*
X138069887Y-74214307D01*
X138069881Y-74214315D01*
X137987505Y-74353606D01*
X137987504Y-74353609D01*
X137942357Y-74509002D01*
X137942356Y-74509008D01*
X137939500Y-74545302D01*
X137939500Y-74954697D01*
X137942356Y-74990991D01*
X137942357Y-74990997D01*
X137987504Y-75146390D01*
X137987505Y-75146393D01*
X138069881Y-75285685D01*
X138073819Y-75290761D01*
X138086305Y-75322563D01*
X138099199Y-75354170D01*
X138099108Y-75355170D01*
X138099354Y-75355797D01*
X138097750Y-75389434D01*
X138096628Y-75395464D01*
X138072357Y-75479007D01*
X138069500Y-75515310D01*
X138069500Y-75541336D01*
X138067410Y-75552575D01*
X138056566Y-75573950D01*
X138049815Y-75596942D01*
X138036554Y-75613397D01*
X138035800Y-75614885D01*
X138034958Y-75615378D01*
X138033181Y-75617584D01*
X137654034Y-75996731D01*
X137592711Y-76030216D01*
X137566353Y-76033050D01*
X136820219Y-76033050D01*
X136820203Y-76033049D01*
X136812607Y-76033049D01*
X136744500Y-76033049D01*
X136677461Y-76013364D01*
X136631706Y-75960560D01*
X136620500Y-75909049D01*
X136620500Y-73824499D01*
X136640185Y-73757460D01*
X136692989Y-73711705D01*
X136744500Y-73700499D01*
X137567871Y-73700499D01*
X137567872Y-73700499D01*
X137627483Y-73694091D01*
X137762331Y-73643796D01*
X137877546Y-73557546D01*
X137963796Y-73442331D01*
X138014091Y-73307483D01*
X138020500Y-73247873D01*
X138020499Y-72221599D01*
X138040183Y-72154561D01*
X138092987Y-72108806D01*
X138162146Y-72098862D01*
X138195870Y-72110733D01*
X138196449Y-72109397D01*
X138203600Y-72112491D01*
X138203605Y-72112494D01*
X138217783Y-72116613D01*
X138359002Y-72157642D01*
X138359005Y-72157642D01*
X138359007Y-72157643D01*
X138395310Y-72160500D01*
X138395318Y-72160500D01*
X138804682Y-72160500D01*
X138804690Y-72160500D01*
X138840993Y-72157643D01*
X138840995Y-72157642D01*
X138840997Y-72157642D01*
X138881975Y-72145736D01*
X138996395Y-72112494D01*
X139135687Y-72030117D01*
X139250117Y-71915687D01*
X139332494Y-71776395D01*
X139377643Y-71620993D01*
X139380500Y-71584690D01*
X139380500Y-71374380D01*
X139400185Y-71307341D01*
X139452989Y-71261586D01*
X139480309Y-71252763D01*
X139532143Y-71242452D01*
X139583497Y-71232237D01*
X139729179Y-71171894D01*
X139860289Y-71084289D01*
X139971789Y-70972789D01*
X140059394Y-70841679D01*
X140119737Y-70695997D01*
X140150500Y-70541342D01*
X140150500Y-70383658D01*
X140150500Y-70383655D01*
X140150499Y-70383653D01*
X140124091Y-70250893D01*
X140119737Y-70229003D01*
X140119735Y-70228998D01*
X140059397Y-70083327D01*
X140059390Y-70083314D01*
X139971789Y-69952211D01*
X139971786Y-69952207D01*
X139860292Y-69840713D01*
X139860284Y-69840707D01*
X139855605Y-69837580D01*
X139850516Y-69831491D01*
X139843297Y-69828194D01*
X139828431Y-69805062D01*
X139810802Y-69783966D01*
X139808851Y-69774594D01*
X139805523Y-69769416D01*
X139800500Y-69734481D01*
X139800500Y-69657308D01*
X139820185Y-69590269D01*
X139872989Y-69544514D01*
X139877047Y-69542747D01*
X139974024Y-69502577D01*
X139649655Y-69178209D01*
X139583788Y-69158868D01*
X139575343Y-69152929D01*
X139505940Y-69099673D01*
X139505937Y-69099671D01*
X139361383Y-69039796D01*
X139361381Y-69039795D01*
X139361380Y-69039795D01*
X139361378Y-69039794D01*
X139353530Y-69037692D01*
X139354014Y-69035884D01*
X139299580Y-69011795D01*
X139261116Y-68953465D01*
X139259023Y-68945755D01*
X139225657Y-68805109D01*
X139550000Y-68805109D01*
X139550000Y-68844891D01*
X139565224Y-68881645D01*
X139593355Y-68909776D01*
X139630109Y-68925000D01*
X139669891Y-68925000D01*
X139706645Y-68909776D01*
X139734776Y-68881645D01*
X139750000Y-68844891D01*
X139750000Y-68805109D01*
X139734776Y-68768355D01*
X139706645Y-68740224D01*
X139669891Y-68725000D01*
X139630109Y-68725000D01*
X139593355Y-68740224D01*
X139565224Y-68768355D01*
X139550000Y-68805109D01*
X139225657Y-68805109D01*
X139201713Y-68704178D01*
X139201776Y-68702973D01*
X139201198Y-68701914D01*
X139203611Y-68668172D01*
X139205391Y-68634406D01*
X139206095Y-68633426D01*
X139206182Y-68632222D01*
X139226457Y-68605137D01*
X139246208Y-68577698D01*
X139247330Y-68577255D01*
X139248054Y-68576289D01*
X139279729Y-68564474D01*
X139311203Y-68552059D01*
X139312387Y-68552293D01*
X139313518Y-68551872D01*
X139369815Y-68560994D01*
X139488620Y-68610205D01*
X139604798Y-68625500D01*
X139604805Y-68625500D01*
X139752692Y-68625500D01*
X139819731Y-68645185D01*
X139840373Y-68661819D01*
X140327577Y-69149024D01*
X140327578Y-69149024D01*
X140371175Y-69043775D01*
X140371179Y-69043760D01*
X140399999Y-68898873D01*
X140400000Y-68898871D01*
X140400000Y-68751128D01*
X140399999Y-68751126D01*
X140392983Y-68715850D01*
X140399210Y-68646258D01*
X140442074Y-68591081D01*
X140507963Y-68567837D01*
X140565561Y-68581447D01*
X140566449Y-68579397D01*
X140573600Y-68582491D01*
X140573605Y-68582494D01*
X140581546Y-68584801D01*
X140729002Y-68627642D01*
X140729005Y-68627642D01*
X140729007Y-68627643D01*
X140765310Y-68630500D01*
X140765318Y-68630500D01*
X141234682Y-68630500D01*
X141234690Y-68630500D01*
X141270993Y-68627643D01*
X141270995Y-68627642D01*
X141270997Y-68627642D01*
X141331014Y-68610205D01*
X141426395Y-68582494D01*
X141565687Y-68500117D01*
X141680117Y-68385687D01*
X141762494Y-68246395D01*
X141807643Y-68090993D01*
X141810500Y-68054690D01*
X141810500Y-67645310D01*
X141807643Y-67609007D01*
X141805729Y-67602420D01*
X141771051Y-67483057D01*
X141762494Y-67453605D01*
X141680117Y-67314313D01*
X141680115Y-67314311D01*
X141680112Y-67314307D01*
X141565692Y-67199887D01*
X141565684Y-67199881D01*
X141426393Y-67117505D01*
X141426390Y-67117504D01*
X141270997Y-67072357D01*
X141270991Y-67072356D01*
X141234697Y-67069500D01*
X141234690Y-67069500D01*
X140765310Y-67069500D01*
X140765302Y-67069500D01*
X140729008Y-67072356D01*
X140729002Y-67072357D01*
X140566113Y-67119682D01*
X140565663Y-67118133D01*
X140505399Y-67125570D01*
X140442437Y-67095278D01*
X140405847Y-67035756D01*
X140401500Y-67003210D01*
X140401500Y-66704096D01*
X140398781Y-66690429D01*
X140398780Y-66690423D01*
X140384330Y-66617776D01*
X140377463Y-66583250D01*
X140357906Y-66536035D01*
X140353494Y-66525384D01*
X140330314Y-66469420D01*
X140330312Y-66469416D01*
X140284699Y-66401153D01*
X140284697Y-66401150D01*
X140261859Y-66366970D01*
X140261855Y-66366965D01*
X140171637Y-66276747D01*
X140171606Y-66276718D01*
X139615948Y-65721060D01*
X139608658Y-65713770D01*
X139608656Y-65713767D01*
X139521531Y-65626642D01*
X139470307Y-65592415D01*
X139419084Y-65558188D01*
X139419081Y-65558186D01*
X139419080Y-65558186D01*
X139419079Y-65558185D01*
X139338235Y-65524699D01*
X139283831Y-65480858D01*
X139261766Y-65414564D01*
X139269504Y-65366809D01*
X139299091Y-65287483D01*
X139305500Y-65227873D01*
X139305499Y-64272128D01*
X139299091Y-64212517D01*
X139261556Y-64111881D01*
X139248797Y-64077671D01*
X139248793Y-64077664D01*
X139162547Y-63962455D01*
X139162544Y-63962452D01*
X139047335Y-63876206D01*
X139047328Y-63876202D01*
X138912482Y-63825908D01*
X138912483Y-63825908D01*
X138852883Y-63819501D01*
X138852881Y-63819500D01*
X138852873Y-63819500D01*
X138852864Y-63819500D01*
X137947129Y-63819500D01*
X137947123Y-63819501D01*
X137887516Y-63825908D01*
X137752671Y-63876202D01*
X137752665Y-63876205D01*
X137724309Y-63897433D01*
X137658845Y-63921849D01*
X137590572Y-63906997D01*
X137575691Y-63897433D01*
X137547334Y-63876205D01*
X137547328Y-63876202D01*
X137412482Y-63825908D01*
X137412483Y-63825908D01*
X137352883Y-63819501D01*
X137352881Y-63819500D01*
X137352873Y-63819500D01*
X137352865Y-63819500D01*
X137224500Y-63819500D01*
X137157461Y-63799815D01*
X137111706Y-63747011D01*
X137100500Y-63695500D01*
X137100500Y-61591438D01*
X137120185Y-61524399D01*
X137125234Y-61517126D01*
X137143796Y-61492331D01*
X137194091Y-61357483D01*
X137200500Y-61297873D01*
X137200499Y-61084685D01*
X137220183Y-61017648D01*
X137272987Y-60971893D01*
X137342145Y-60961949D01*
X137405701Y-60990974D01*
X137424817Y-61011802D01*
X137502823Y-61119168D01*
X137502827Y-61119173D01*
X137630830Y-61247176D01*
X137777265Y-61353565D01*
X137938552Y-61435747D01*
X137938555Y-61435748D01*
X138110699Y-61491680D01*
X138110712Y-61491683D01*
X138130000Y-61494738D01*
X138130000Y-60469728D01*
X138168060Y-60561614D01*
X138238386Y-60631940D01*
X138330272Y-60670000D01*
X138429728Y-60670000D01*
X138521614Y-60631940D01*
X138591940Y-60561614D01*
X138630000Y-60469728D01*
X138630000Y-61494737D01*
X138649287Y-61491683D01*
X138649300Y-61491680D01*
X138821444Y-61435748D01*
X138821447Y-61435747D01*
X138982734Y-61353565D01*
X139129169Y-61247176D01*
X139257176Y-61119169D01*
X139363565Y-60972734D01*
X139445747Y-60811447D01*
X139445748Y-60811444D01*
X139501682Y-60639293D01*
X139530000Y-60460506D01*
X139530000Y-60120000D01*
X138630000Y-60120000D01*
X138630000Y-59620000D01*
X139530000Y-59620000D01*
X139530000Y-59279493D01*
X139501682Y-59100706D01*
X139445748Y-58928555D01*
X139445747Y-58928552D01*
X139363565Y-58767265D01*
X139257176Y-58620830D01*
X139129169Y-58492823D01*
X138982734Y-58386434D01*
X138821447Y-58304252D01*
X138821441Y-58304250D01*
X138649295Y-58248318D01*
X138649285Y-58248315D01*
X138630000Y-58245260D01*
X138630000Y-59270272D01*
X138591940Y-59178386D01*
X138521614Y-59108060D01*
X138429728Y-59070000D01*
X138330272Y-59070000D01*
X138238386Y-59108060D01*
X138168060Y-59178386D01*
X138130000Y-59270272D01*
X138130000Y-58245260D01*
X138110714Y-58248315D01*
X138110704Y-58248318D01*
X137938558Y-58304250D01*
X137938552Y-58304252D01*
X137777265Y-58386434D01*
X137630830Y-58492823D01*
X137502823Y-58620830D01*
X137396433Y-58767265D01*
X137372842Y-58813565D01*
X137324866Y-58864360D01*
X137257045Y-58881154D01*
X137200358Y-58864655D01*
X137152488Y-58837017D01*
X137152489Y-58837017D01*
X137141006Y-58833940D01*
X137012475Y-58799500D01*
X136867525Y-58799500D01*
X136738993Y-58833940D01*
X136727511Y-58837017D01*
X136601988Y-58909488D01*
X136595539Y-58914438D01*
X136594590Y-58913202D01*
X136541375Y-58942253D01*
X136471684Y-58937261D01*
X136427348Y-58908765D01*
X135663309Y-58144726D01*
X135663305Y-58144723D01*
X135556763Y-58073535D01*
X135438380Y-58024499D01*
X135438374Y-58024497D01*
X135312707Y-57999500D01*
X135312705Y-57999500D01*
X132787295Y-57999500D01*
X132787293Y-57999500D01*
X132661625Y-58024497D01*
X132661619Y-58024499D01*
X132543234Y-58073535D01*
X132436695Y-58144722D01*
X132436688Y-58144728D01*
X131672651Y-58908765D01*
X131611328Y-58942250D01*
X131541636Y-58937266D01*
X131505007Y-58913725D01*
X131504461Y-58914438D01*
X131498011Y-58909488D01*
X131372488Y-58837017D01*
X131372489Y-58837017D01*
X131361006Y-58833940D01*
X131232475Y-58799500D01*
X131087525Y-58799500D01*
X130947515Y-58837016D01*
X130947514Y-58837016D01*
X130947512Y-58837017D01*
X130899640Y-58864656D01*
X130831740Y-58881128D01*
X130765713Y-58858275D01*
X130727156Y-58813563D01*
X130703565Y-58767265D01*
X130597176Y-58620830D01*
X130469169Y-58492823D01*
X130322734Y-58386434D01*
X130161447Y-58304252D01*
X130161441Y-58304250D01*
X129989295Y-58248318D01*
X129989285Y-58248315D01*
X129970000Y-58245260D01*
X129970000Y-59270272D01*
X129931940Y-59178386D01*
X129861614Y-59108060D01*
X129769728Y-59070000D01*
X129670272Y-59070000D01*
X129578386Y-59108060D01*
X129508060Y-59178386D01*
X129470000Y-59270272D01*
X129470000Y-58245260D01*
X129450714Y-58248315D01*
X129450704Y-58248318D01*
X129278558Y-58304250D01*
X129278552Y-58304252D01*
X129117265Y-58386434D01*
X128970830Y-58492823D01*
X128842823Y-58620830D01*
X128736434Y-58767265D01*
X128654252Y-58928552D01*
X128654251Y-58928555D01*
X128598317Y-59100706D01*
X128570000Y-59279493D01*
X128570000Y-59620000D01*
X129470000Y-59620000D01*
X129470000Y-60120000D01*
X128570000Y-60120000D01*
X128570000Y-60460506D01*
X128583557Y-60546102D01*
X128574602Y-60615396D01*
X128529606Y-60668848D01*
X128462855Y-60689487D01*
X128461084Y-60689500D01*
X128095302Y-60689500D01*
X128059008Y-60692356D01*
X128059002Y-60692357D01*
X127903609Y-60737504D01*
X127903606Y-60737505D01*
X127764315Y-60819881D01*
X127764307Y-60819887D01*
X127649887Y-60934307D01*
X127649881Y-60934315D01*
X127567505Y-61073606D01*
X127567504Y-61073609D01*
X127522357Y-61229002D01*
X127522356Y-61229008D01*
X127519500Y-61265302D01*
X127519500Y-61734697D01*
X127522356Y-61770991D01*
X127522357Y-61770997D01*
X127564312Y-61915405D01*
X127564312Y-61984595D01*
X127522357Y-62129002D01*
X127522356Y-62129008D01*
X127519500Y-62165302D01*
X127519500Y-62634697D01*
X127522356Y-62670991D01*
X127522357Y-62670997D01*
X127567504Y-62826390D01*
X127567505Y-62826393D01*
X127649881Y-62965684D01*
X127649887Y-62965692D01*
X127764307Y-63080112D01*
X127764311Y-63080115D01*
X127764313Y-63080117D01*
X127903605Y-63162494D01*
X127926136Y-63169040D01*
X128059002Y-63207642D01*
X128059005Y-63207642D01*
X128059007Y-63207643D01*
X128095310Y-63210500D01*
X128095318Y-63210500D01*
X128504682Y-63210500D01*
X128504690Y-63210500D01*
X128540993Y-63207643D01*
X128540995Y-63207642D01*
X128540997Y-63207642D01*
X128581975Y-63195736D01*
X128696395Y-63162494D01*
X128835687Y-63080117D01*
X128835692Y-63080112D01*
X128853986Y-63061819D01*
X128915309Y-63028334D01*
X128941667Y-63025500D01*
X130050500Y-63025500D01*
X130117539Y-63045185D01*
X130163294Y-63097989D01*
X130174500Y-63149500D01*
X130174500Y-63857650D01*
X130154815Y-63924689D01*
X130153602Y-63926541D01*
X130090609Y-64020815D01*
X130090602Y-64020828D01*
X130030264Y-64166498D01*
X130030261Y-64166510D01*
X129999500Y-64321153D01*
X129999500Y-64478846D01*
X130030261Y-64633489D01*
X130030264Y-64633501D01*
X130090602Y-64779172D01*
X130090609Y-64779185D01*
X130178210Y-64910288D01*
X130178213Y-64910292D01*
X130289707Y-65021786D01*
X130289711Y-65021789D01*
X130420814Y-65109390D01*
X130420827Y-65109397D01*
X130566498Y-65169735D01*
X130566503Y-65169737D01*
X130721153Y-65200499D01*
X130721156Y-65200500D01*
X130721158Y-65200500D01*
X130878844Y-65200500D01*
X130878845Y-65200499D01*
X131033497Y-65169737D01*
X131076890Y-65151762D01*
X131146358Y-65144294D01*
X131201824Y-65172058D01*
X131202743Y-65170862D01*
X131209188Y-65175807D01*
X131209190Y-65175810D01*
X131329147Y-65267856D01*
X131468841Y-65325719D01*
X131581113Y-65340500D01*
X132098886Y-65340499D01*
X132098893Y-65340499D01*
X132102936Y-65340234D01*
X132103064Y-65342190D01*
X132164294Y-65351708D01*
X132216573Y-65398062D01*
X132235500Y-65463908D01*
X132235500Y-69873903D01*
X132215815Y-69940942D01*
X132199181Y-69961584D01*
X131237584Y-70923181D01*
X131176261Y-70956666D01*
X131149903Y-70959500D01*
X130818384Y-70959500D01*
X130799145Y-70961248D01*
X130747807Y-70965913D01*
X130585393Y-71016522D01*
X130439811Y-71104530D01*
X130319530Y-71224811D01*
X130231522Y-71370393D01*
X130180913Y-71532807D01*
X130174500Y-71603386D01*
X130174500Y-72116613D01*
X130180913Y-72187192D01*
X130231522Y-72349606D01*
X130319530Y-72495188D01*
X130416661Y-72592319D01*
X130450146Y-72653642D01*
X130445162Y-72723334D01*
X130416661Y-72767681D01*
X130319531Y-72864810D01*
X130319530Y-72864811D01*
X130231522Y-73010393D01*
X130180913Y-73172807D01*
X130174500Y-73243386D01*
X130174500Y-73756613D01*
X130180913Y-73827192D01*
X130231522Y-73989606D01*
X130319530Y-74135188D01*
X130412161Y-74227819D01*
X130445646Y-74289142D01*
X130440662Y-74358834D01*
X130398790Y-74414767D01*
X130333326Y-74439184D01*
X130324480Y-74439500D01*
X130245302Y-74439500D01*
X130209008Y-74442356D01*
X130209002Y-74442357D01*
X130053609Y-74487504D01*
X130053604Y-74487506D01*
X130013119Y-74511448D01*
X129945394Y-74528629D01*
X129886881Y-74511448D01*
X129846395Y-74487506D01*
X129846390Y-74487504D01*
X129690997Y-74442357D01*
X129690991Y-74442356D01*
X129654697Y-74439500D01*
X129654690Y-74439500D01*
X129245310Y-74439500D01*
X129245302Y-74439500D01*
X129209008Y-74442356D01*
X129209002Y-74442357D01*
X129053609Y-74487504D01*
X129053606Y-74487505D01*
X128914315Y-74569881D01*
X128914307Y-74569887D01*
X128871016Y-74613180D01*
X128809693Y-74646666D01*
X128783334Y-74649500D01*
X127650098Y-74649500D01*
X127583059Y-74629815D01*
X127562417Y-74613181D01*
X126536819Y-73587583D01*
X126503334Y-73526260D01*
X126500500Y-73499902D01*
X126500500Y-71734499D01*
X126520185Y-71667460D01*
X126572989Y-71621705D01*
X126624500Y-71610499D01*
X127247871Y-71610499D01*
X127247872Y-71610499D01*
X127307483Y-71604091D01*
X127442331Y-71553796D01*
X127557546Y-71467546D01*
X127643796Y-71352331D01*
X127694091Y-71217483D01*
X127700500Y-71157873D01*
X127700499Y-69542128D01*
X127694091Y-69482517D01*
X127687043Y-69463621D01*
X127643797Y-69347671D01*
X127643793Y-69347664D01*
X127557547Y-69232455D01*
X127557544Y-69232452D01*
X127442335Y-69146206D01*
X127442328Y-69146202D01*
X127307482Y-69095908D01*
X127307483Y-69095908D01*
X127247883Y-69089501D01*
X127247881Y-69089500D01*
X127247873Y-69089500D01*
X127247864Y-69089500D01*
X126352129Y-69089500D01*
X126352123Y-69089501D01*
X126292514Y-69095909D01*
X126267832Y-69105115D01*
X126198140Y-69110099D01*
X126136818Y-69076613D01*
X126103333Y-69015289D01*
X126100500Y-68988933D01*
X126100500Y-67550096D01*
X126120185Y-67483057D01*
X126136815Y-67462419D01*
X126652416Y-66946817D01*
X126713739Y-66913333D01*
X126740097Y-66910499D01*
X127247871Y-66910499D01*
X127247872Y-66910499D01*
X127307483Y-66904091D01*
X127442331Y-66853796D01*
X127557546Y-66767546D01*
X127643796Y-66652331D01*
X127694091Y-66517483D01*
X127700500Y-66457873D01*
X127700499Y-64842128D01*
X127694091Y-64782517D01*
X127692848Y-64779185D01*
X127643797Y-64647671D01*
X127643793Y-64647664D01*
X127557547Y-64532455D01*
X127557544Y-64532452D01*
X127442335Y-64446206D01*
X127442328Y-64446202D01*
X127307482Y-64395908D01*
X127307483Y-64395908D01*
X127247883Y-64389501D01*
X127247881Y-64389500D01*
X127247873Y-64389500D01*
X127247864Y-64389500D01*
X126352129Y-64389500D01*
X126352123Y-64389501D01*
X126292516Y-64395908D01*
X126157671Y-64446202D01*
X126157664Y-64446206D01*
X126042455Y-64532452D01*
X126042452Y-64532455D01*
X125956206Y-64647664D01*
X125956202Y-64647671D01*
X125905908Y-64782517D01*
X125899501Y-64842116D01*
X125899501Y-64842123D01*
X125899500Y-64842135D01*
X125899500Y-65949901D01*
X125879815Y-66016940D01*
X125863181Y-66037582D01*
X125131286Y-66769478D01*
X125019481Y-66881282D01*
X125019479Y-66881284D01*
X125000657Y-66913887D01*
X124982100Y-66946029D01*
X124940423Y-67018215D01*
X124899499Y-67170943D01*
X124899499Y-67170945D01*
X124899499Y-67339046D01*
X124899500Y-67339059D01*
X124899500Y-94813330D01*
X124899499Y-94813348D01*
X124899499Y-94979054D01*
X124899498Y-94979054D01*
X124899499Y-94979057D01*
X124940423Y-95131785D01*
X124960897Y-95167246D01*
X124994106Y-95224767D01*
X125019479Y-95268715D01*
X125138349Y-95387585D01*
X125138355Y-95387590D01*
X125969478Y-96218713D01*
X125969480Y-96218716D01*
X126081284Y-96330520D01*
X126128026Y-96357506D01*
X126188961Y-96392687D01*
X126218209Y-96409574D01*
X126218210Y-96409575D01*
X126218212Y-96409575D01*
X126218215Y-96409577D01*
X126370943Y-96450501D01*
X126370946Y-96450501D01*
X126536653Y-96450501D01*
X126536669Y-96450500D01*
X129195500Y-96450500D01*
X129262539Y-96470185D01*
X129308294Y-96522989D01*
X129319500Y-96574500D01*
X129319500Y-96784697D01*
X129322356Y-96820991D01*
X129322357Y-96820993D01*
X129328141Y-96840904D01*
X129327943Y-96910773D01*
X129290002Y-96969443D01*
X129226364Y-96998287D01*
X129209066Y-96999500D01*
X128594830Y-96999500D01*
X128547379Y-96990061D01*
X128486380Y-96964795D01*
X128486378Y-96964794D01*
X128370211Y-96949501D01*
X128370208Y-96949500D01*
X128370202Y-96949500D01*
X128104798Y-96949500D01*
X128104792Y-96949500D01*
X128104788Y-96949501D01*
X127988621Y-96964794D01*
X127988616Y-96964796D01*
X127844061Y-97024672D01*
X127800834Y-97057841D01*
X127735664Y-97083034D01*
X127677896Y-97074025D01*
X127568767Y-97028822D01*
X127568759Y-97028820D01*
X127423872Y-97000000D01*
X127276128Y-97000000D01*
X127131240Y-97028820D01*
X127131228Y-97028823D01*
X127022102Y-97074025D01*
X126952633Y-97081494D01*
X126899164Y-97057840D01*
X126855939Y-97024673D01*
X126855937Y-97024671D01*
X126711383Y-96964796D01*
X126711378Y-96964794D01*
X126595211Y-96949501D01*
X126595208Y-96949500D01*
X126595202Y-96949500D01*
X126329798Y-96949500D01*
X126329792Y-96949500D01*
X126329788Y-96949501D01*
X126213621Y-96964794D01*
X126213616Y-96964796D01*
X126069063Y-97024671D01*
X125944926Y-97119926D01*
X125849671Y-97244063D01*
X125789796Y-97388616D01*
X125789795Y-97388620D01*
X125782740Y-97442205D01*
X125754473Y-97506101D01*
X125696148Y-97544571D01*
X125671961Y-97549420D01*
X125671159Y-97549498D01*
X125516510Y-97580261D01*
X125516498Y-97580264D01*
X125432492Y-97615061D01*
X125424315Y-97616687D01*
X125419975Y-97619477D01*
X125385040Y-97624500D01*
X125139878Y-97624500D01*
X125072839Y-97604815D01*
X125066763Y-97600519D01*
X124926393Y-97517505D01*
X124926390Y-97517504D01*
X124770997Y-97472357D01*
X124770991Y-97472356D01*
X124734697Y-97469500D01*
X124734690Y-97469500D01*
X124265310Y-97469500D01*
X124265302Y-97469500D01*
X124229008Y-97472356D01*
X124229002Y-97472357D01*
X124073609Y-97517504D01*
X124073606Y-97517505D01*
X123934315Y-97599881D01*
X123934307Y-97599887D01*
X123819887Y-97714307D01*
X123819881Y-97714315D01*
X123737505Y-97853606D01*
X123737504Y-97853609D01*
X123692357Y-98009002D01*
X123692356Y-98009008D01*
X123689500Y-98045302D01*
X123689500Y-98454697D01*
X123692356Y-98490991D01*
X123692357Y-98490997D01*
X123737504Y-98646390D01*
X123737505Y-98646393D01*
X123819881Y-98785684D01*
X123819887Y-98785692D01*
X123934307Y-98900112D01*
X123934311Y-98900115D01*
X123934313Y-98900117D01*
X124073605Y-98982494D01*
X124093001Y-98988129D01*
X124229002Y-99027642D01*
X124229005Y-99027642D01*
X124229007Y-99027643D01*
X124265310Y-99030500D01*
X124265318Y-99030500D01*
X124734682Y-99030500D01*
X124734690Y-99030500D01*
X124770993Y-99027643D01*
X124770995Y-99027642D01*
X124770997Y-99027642D01*
X124817752Y-99014058D01*
X124926395Y-98982494D01*
X125047214Y-98911041D01*
X125114937Y-98893859D01*
X125181199Y-98916019D01*
X125198016Y-98930094D01*
X125239707Y-98971786D01*
X125239711Y-98971789D01*
X125370814Y-99059390D01*
X125370827Y-99059397D01*
X125516498Y-99119735D01*
X125516503Y-99119737D01*
X125671153Y-99150499D01*
X125671156Y-99150500D01*
X125671158Y-99150500D01*
X125828844Y-99150500D01*
X125828845Y-99150499D01*
X125983497Y-99119737D01*
X126129179Y-99059394D01*
X126197030Y-99014056D01*
X126263702Y-98993179D01*
X126282091Y-98994219D01*
X126329798Y-99000500D01*
X126329805Y-99000500D01*
X126517691Y-99000500D01*
X126584730Y-99020185D01*
X126630485Y-99072989D01*
X126632252Y-99077047D01*
X126672421Y-99174024D01*
X126996790Y-98849656D01*
X127002530Y-98830109D01*
X127250000Y-98830109D01*
X127250000Y-98869891D01*
X127265224Y-98906645D01*
X127293355Y-98934776D01*
X127330109Y-98950000D01*
X127369891Y-98950000D01*
X127406645Y-98934776D01*
X127434776Y-98906645D01*
X127450000Y-98869891D01*
X127450000Y-98830109D01*
X127434776Y-98793355D01*
X127406645Y-98765224D01*
X127369891Y-98750000D01*
X127330109Y-98750000D01*
X127293355Y-98765224D01*
X127265224Y-98793355D01*
X127250000Y-98830109D01*
X127002530Y-98830109D01*
X127016131Y-98783790D01*
X127022054Y-98775364D01*
X127075327Y-98705939D01*
X127135205Y-98561380D01*
X127135206Y-98561371D01*
X127137308Y-98553530D01*
X127139118Y-98554015D01*
X127163191Y-98499595D01*
X127221514Y-98461122D01*
X127229244Y-98459023D01*
X127470821Y-98401713D01*
X127472024Y-98401776D01*
X127473084Y-98401198D01*
X127506822Y-98403610D01*
X127540593Y-98405391D01*
X127541572Y-98406095D01*
X127542776Y-98406182D01*
X127569865Y-98426460D01*
X127597301Y-98446208D01*
X127597743Y-98447329D01*
X127598710Y-98448053D01*
X127610531Y-98479746D01*
X127622940Y-98511203D01*
X127622705Y-98512387D01*
X127623127Y-98513517D01*
X127614004Y-98569816D01*
X127564796Y-98688616D01*
X127564794Y-98688621D01*
X127549501Y-98804788D01*
X127549500Y-98804804D01*
X127549500Y-98952691D01*
X127529815Y-99019730D01*
X127513181Y-99040372D01*
X127025974Y-99527577D01*
X127131236Y-99571178D01*
X127131240Y-99571179D01*
X127276126Y-99599999D01*
X127276129Y-99600000D01*
X127340797Y-99600000D01*
X127361011Y-99605935D01*
X127382049Y-99607063D01*
X127393863Y-99615582D01*
X127407836Y-99619685D01*
X127421630Y-99635604D01*
X127438722Y-99647929D01*
X127444055Y-99661484D01*
X127453591Y-99672489D01*
X127456589Y-99693341D01*
X127464303Y-99712947D01*
X127462974Y-99737748D01*
X127463535Y-99741647D01*
X127462417Y-99748175D01*
X127446952Y-99825930D01*
X127441641Y-99852632D01*
X127409256Y-99914543D01*
X127348540Y-99949117D01*
X127319966Y-99952441D01*
X122649443Y-99950296D01*
X122582413Y-99930581D01*
X122536682Y-99877756D01*
X122525500Y-99826296D01*
X122525500Y-57997307D01*
X122545185Y-57930268D01*
X122561819Y-57909626D01*
X123688708Y-56782736D01*
X123785967Y-56916602D01*
X123908398Y-57039033D01*
X124042262Y-57136290D01*
X122900425Y-58278127D01*
X123060127Y-58405484D01*
X123316903Y-58566827D01*
X123590119Y-58698401D01*
X123590133Y-58698407D01*
X123876354Y-58798561D01*
X123876366Y-58798565D01*
X124172017Y-58866045D01*
X124172033Y-58866047D01*
X124473366Y-58899999D01*
X124473368Y-58900000D01*
X124776632Y-58900000D01*
X124776633Y-58899999D01*
X125077966Y-58866047D01*
X125077982Y-58866045D01*
X125373633Y-58798565D01*
X125373645Y-58798561D01*
X125659866Y-58698407D01*
X125659880Y-58698401D01*
X125933096Y-58566827D01*
X126189872Y-58405484D01*
X126349573Y-58278126D01*
X125207737Y-57136290D01*
X125341602Y-57039033D01*
X125464033Y-56916602D01*
X125561290Y-56782737D01*
X126703126Y-57924573D01*
X126830484Y-57764872D01*
X126991827Y-57508096D01*
X127092041Y-57300000D01*
X131341759Y-57300000D01*
X131385357Y-57405254D01*
X131385362Y-57405264D01*
X131467436Y-57528096D01*
X131467439Y-57528100D01*
X131571899Y-57632560D01*
X131571907Y-57632566D01*
X131694739Y-57714640D01*
X131694743Y-57714642D01*
X131799999Y-57758240D01*
X131800000Y-57758240D01*
X132300000Y-57758240D01*
X132405256Y-57714642D01*
X132405260Y-57714640D01*
X132528092Y-57632566D01*
X132528100Y-57632560D01*
X132632560Y-57528100D01*
X132632563Y-57528096D01*
X132714637Y-57405264D01*
X132714642Y-57405254D01*
X132758241Y-57300000D01*
X135341759Y-57300000D01*
X135385357Y-57405254D01*
X135385362Y-57405264D01*
X135467436Y-57528096D01*
X135467439Y-57528100D01*
X135571899Y-57632560D01*
X135571907Y-57632566D01*
X135694739Y-57714640D01*
X135694743Y-57714642D01*
X135799999Y-57758240D01*
X135800000Y-57758240D01*
X136300000Y-57758240D01*
X136405256Y-57714642D01*
X136405260Y-57714640D01*
X136528092Y-57632566D01*
X136528100Y-57632560D01*
X136632560Y-57528100D01*
X136632563Y-57528096D01*
X136714637Y-57405264D01*
X136714642Y-57405254D01*
X136758241Y-57300000D01*
X136300000Y-57300000D01*
X136300000Y-57758240D01*
X135800000Y-57758240D01*
X135800000Y-57300000D01*
X135341759Y-57300000D01*
X132758241Y-57300000D01*
X132300000Y-57300000D01*
X132300000Y-57758240D01*
X131800000Y-57758240D01*
X131800000Y-57300000D01*
X131341759Y-57300000D01*
X127092041Y-57300000D01*
X127123401Y-57234880D01*
X127123407Y-57234866D01*
X127223561Y-56948645D01*
X127223565Y-56948633D01*
X127291045Y-56652982D01*
X127291047Y-56652966D01*
X127324999Y-56351633D01*
X127325000Y-56351631D01*
X127325000Y-56048368D01*
X127324999Y-56048364D01*
X127306314Y-55882521D01*
X127291047Y-55747033D01*
X127291045Y-55747017D01*
X127223565Y-55451366D01*
X127223561Y-55451354D01*
X127123407Y-55165133D01*
X127123401Y-55165119D01*
X126991827Y-54891903D01*
X126830484Y-54635127D01*
X126703127Y-54475425D01*
X125561290Y-55617262D01*
X125464033Y-55483398D01*
X125341602Y-55360967D01*
X125207736Y-55263709D01*
X126334627Y-54136819D01*
X126395950Y-54103334D01*
X126422308Y-54100500D01*
X128991549Y-54100500D01*
X129058588Y-54120185D01*
G37*
%TD.AperFunction*%
%TA.AperFunction,Conductor*%
G36*
X137916941Y-84170185D02*
G01*
X137937583Y-84186819D01*
X137981284Y-84230520D01*
X137981286Y-84230521D01*
X137981290Y-84230524D01*
X138057460Y-84274500D01*
X138118216Y-84309577D01*
X138270943Y-84350501D01*
X138270945Y-84350501D01*
X138436654Y-84350501D01*
X138436670Y-84350500D01*
X139233512Y-84350500D01*
X139300551Y-84370185D01*
X139302403Y-84371398D01*
X139434092Y-84459390D01*
X139434105Y-84459397D01*
X139579776Y-84519735D01*
X139579781Y-84519737D01*
X139734431Y-84550499D01*
X139734434Y-84550500D01*
X139824500Y-84550500D01*
X139891539Y-84570185D01*
X139937294Y-84622989D01*
X139948500Y-84674500D01*
X139948500Y-97783803D01*
X139928815Y-97850842D01*
X139912181Y-97871484D01*
X139471484Y-98312181D01*
X139410161Y-98345666D01*
X139383803Y-98348500D01*
X131359500Y-98348500D01*
X131292461Y-98328815D01*
X131246706Y-98276011D01*
X131235500Y-98224500D01*
X131235500Y-97869500D01*
X131238050Y-97860814D01*
X131236762Y-97851853D01*
X131247740Y-97827812D01*
X131255185Y-97802461D01*
X131262025Y-97796533D01*
X131265787Y-97788297D01*
X131288021Y-97774007D01*
X131307989Y-97756706D01*
X131318503Y-97754418D01*
X131324565Y-97750523D01*
X131359500Y-97745500D01*
X131608333Y-97745500D01*
X131675372Y-97765185D01*
X131696014Y-97781819D01*
X131714307Y-97800112D01*
X131714311Y-97800115D01*
X131714313Y-97800117D01*
X131853605Y-97882494D01*
X131894587Y-97894400D01*
X132009002Y-97927642D01*
X132009005Y-97927642D01*
X132009007Y-97927643D01*
X132045310Y-97930500D01*
X132045318Y-97930500D01*
X132454682Y-97930500D01*
X132454690Y-97930500D01*
X132490993Y-97927643D01*
X132490995Y-97927642D01*
X132490997Y-97927642D01*
X132546977Y-97911378D01*
X132646395Y-97882494D01*
X132785687Y-97800117D01*
X132900117Y-97685687D01*
X132982494Y-97546395D01*
X133027643Y-97390993D01*
X133030500Y-97354690D01*
X133030500Y-96885310D01*
X133027643Y-96849007D01*
X132982494Y-96693605D01*
X132949384Y-96637620D01*
X132932202Y-96569897D01*
X132954362Y-96503635D01*
X133008828Y-96459871D01*
X133056117Y-96450500D01*
X135263331Y-96450500D01*
X135263347Y-96450501D01*
X135270943Y-96450501D01*
X135429054Y-96450501D01*
X135429057Y-96450501D01*
X135581785Y-96409577D01*
X135671974Y-96357506D01*
X135718716Y-96330520D01*
X135830520Y-96218716D01*
X135830520Y-96218714D01*
X135840724Y-96208511D01*
X135840728Y-96208506D01*
X136518713Y-95530521D01*
X136518716Y-95530520D01*
X136630520Y-95418716D01*
X136680639Y-95331904D01*
X136709577Y-95281785D01*
X136750501Y-95129057D01*
X136750501Y-94970943D01*
X136750501Y-94963348D01*
X136750500Y-94963330D01*
X136750500Y-90557702D01*
X136770185Y-90490663D01*
X136822989Y-90444908D01*
X136892147Y-90434964D01*
X136898667Y-90436080D01*
X136955435Y-90447372D01*
X136971157Y-90450500D01*
X136971158Y-90450500D01*
X137128844Y-90450500D01*
X137128845Y-90450499D01*
X137283497Y-90419737D01*
X137429179Y-90359394D01*
X137560289Y-90271789D01*
X137671789Y-90160289D01*
X137759394Y-90029179D01*
X137819737Y-89883497D01*
X137850500Y-89728842D01*
X137850500Y-89571158D01*
X137850500Y-89571155D01*
X137850499Y-89571153D01*
X137819737Y-89416503D01*
X137819735Y-89416498D01*
X137759397Y-89270827D01*
X137756521Y-89265446D01*
X137758042Y-89264632D01*
X137739617Y-89205794D01*
X137756865Y-89140458D01*
X137812494Y-89046395D01*
X137857643Y-88890993D01*
X137860500Y-88854690D01*
X137860500Y-88445310D01*
X137857643Y-88409007D01*
X137854020Y-88396538D01*
X137812495Y-88253609D01*
X137812494Y-88253605D01*
X137788551Y-88213120D01*
X137771368Y-88145398D01*
X137788552Y-88086878D01*
X137812494Y-88046395D01*
X137857643Y-87890993D01*
X137860500Y-87854690D01*
X137860500Y-87445310D01*
X137857643Y-87409007D01*
X137855646Y-87402135D01*
X137812495Y-87253609D01*
X137812494Y-87253606D01*
X137812494Y-87253605D01*
X137730117Y-87114313D01*
X137730115Y-87114311D01*
X137730112Y-87114307D01*
X137615692Y-86999887D01*
X137615684Y-86999881D01*
X137476393Y-86917505D01*
X137476390Y-86917504D01*
X137320997Y-86872357D01*
X137320991Y-86872356D01*
X137284697Y-86869500D01*
X137284690Y-86869500D01*
X137170097Y-86869500D01*
X137103058Y-86849815D01*
X137082416Y-86833181D01*
X136891416Y-86642181D01*
X136857931Y-86580858D01*
X136862915Y-86511166D01*
X136904787Y-86455233D01*
X136970251Y-86430816D01*
X136979097Y-86430500D01*
X137334682Y-86430500D01*
X137334690Y-86430500D01*
X137370993Y-86427643D01*
X137370995Y-86427642D01*
X137370997Y-86427642D01*
X137449501Y-86404834D01*
X137526395Y-86382494D01*
X137580726Y-86350362D01*
X137648446Y-86333179D01*
X137712735Y-86353991D01*
X137720821Y-86359394D01*
X137720824Y-86359395D01*
X137720825Y-86359396D01*
X137866498Y-86419735D01*
X137866503Y-86419737D01*
X138021153Y-86450499D01*
X138021156Y-86450500D01*
X138021158Y-86450500D01*
X138178844Y-86450500D01*
X138178845Y-86450499D01*
X138333497Y-86419737D01*
X138479179Y-86359394D01*
X138610289Y-86271789D01*
X138721789Y-86160289D01*
X138809394Y-86029179D01*
X138869737Y-85883497D01*
X138900500Y-85728842D01*
X138900500Y-85571158D01*
X138900500Y-85571155D01*
X138900499Y-85571153D01*
X138869738Y-85416510D01*
X138869737Y-85416503D01*
X138867163Y-85410288D01*
X138809397Y-85270827D01*
X138809390Y-85270814D01*
X138721789Y-85139711D01*
X138721786Y-85139707D01*
X138610292Y-85028213D01*
X138610288Y-85028210D01*
X138479185Y-84940609D01*
X138479172Y-84940602D01*
X138333501Y-84880264D01*
X138333489Y-84880261D01*
X138178845Y-84849500D01*
X138178842Y-84849500D01*
X138021158Y-84849500D01*
X138021155Y-84849500D01*
X137866510Y-84880261D01*
X137866498Y-84880264D01*
X137720828Y-84940602D01*
X137720814Y-84940610D01*
X137712734Y-84946009D01*
X137646056Y-84966885D01*
X137580725Y-84949637D01*
X137574590Y-84946009D01*
X137526395Y-84917506D01*
X137526394Y-84917505D01*
X137526393Y-84917505D01*
X137526390Y-84917504D01*
X137370997Y-84872357D01*
X137370991Y-84872356D01*
X137334697Y-84869500D01*
X137334690Y-84869500D01*
X137274500Y-84869500D01*
X137207461Y-84849815D01*
X137161706Y-84797011D01*
X137150500Y-84745500D01*
X137150500Y-84274500D01*
X137170185Y-84207461D01*
X137222989Y-84161706D01*
X137274500Y-84150500D01*
X137849902Y-84150500D01*
X137916941Y-84170185D01*
G37*
%TD.AperFunction*%
%TA.AperFunction,Conductor*%
G36*
X127250000Y-97730109D02*
G01*
X127250000Y-97769891D01*
X127265224Y-97806645D01*
X127293355Y-97834776D01*
X127330109Y-97850000D01*
X127369891Y-97850000D01*
X127406645Y-97834776D01*
X127434776Y-97806645D01*
X127450000Y-97769891D01*
X127450000Y-97730109D01*
X127448472Y-97726422D01*
X127474245Y-97728266D01*
X127477889Y-97730993D01*
X127482398Y-97731641D01*
X127505607Y-97751742D01*
X127530179Y-97770136D01*
X127531996Y-97774597D01*
X127535213Y-97777384D01*
X127549882Y-97809485D01*
X127552596Y-97818720D01*
X127564795Y-97911380D01*
X127616541Y-98036308D01*
X127618412Y-98042672D01*
X127618418Y-98071242D01*
X127621473Y-98099652D01*
X127618426Y-98105738D01*
X127618428Y-98112542D01*
X127602988Y-98136579D01*
X127590198Y-98162131D01*
X127584345Y-98165603D01*
X127580668Y-98171329D01*
X127554675Y-98183206D01*
X127530108Y-98197783D01*
X127523309Y-98197540D01*
X127517119Y-98200369D01*
X127488830Y-98196308D01*
X127460283Y-98195289D01*
X127454694Y-98191408D01*
X127447958Y-98190442D01*
X127411762Y-98165316D01*
X127350000Y-98103554D01*
X127349999Y-98103554D01*
X127345546Y-98108007D01*
X127284223Y-98141492D01*
X127214531Y-98136506D01*
X127158598Y-98094634D01*
X127139989Y-98058808D01*
X127136425Y-98047893D01*
X127135205Y-98038620D01*
X127126676Y-98018030D01*
X127125192Y-98013483D01*
X127124283Y-97983158D01*
X127121039Y-97952984D01*
X127123162Y-97945753D01*
X127123099Y-97943644D01*
X127124433Y-97941424D01*
X127128508Y-97927547D01*
X127135205Y-97911380D01*
X127146147Y-97828261D01*
X127174413Y-97764367D01*
X127232737Y-97725895D01*
X127251839Y-97725667D01*
X127250000Y-97730109D01*
G37*
%TD.AperFunction*%
%TA.AperFunction,Conductor*%
G36*
X126305703Y-75055384D02*
G01*
X126312177Y-75061412D01*
X126981284Y-75730520D01*
X126981286Y-75730521D01*
X126981290Y-75730524D01*
X127118209Y-75809573D01*
X127118216Y-75809577D01*
X127270943Y-75850501D01*
X127270945Y-75850501D01*
X127436654Y-75850501D01*
X127436670Y-75850500D01*
X128783334Y-75850500D01*
X128850373Y-75870185D01*
X128871016Y-75886820D01*
X128914307Y-75930112D01*
X128914311Y-75930115D01*
X128914313Y-75930117D01*
X129053605Y-76012494D01*
X129082862Y-76020994D01*
X129209002Y-76057642D01*
X129209005Y-76057642D01*
X129209007Y-76057643D01*
X129245310Y-76060500D01*
X129245318Y-76060500D01*
X129654682Y-76060500D01*
X129654690Y-76060500D01*
X129690993Y-76057643D01*
X129690995Y-76057642D01*
X129690997Y-76057642D01*
X129731975Y-76045736D01*
X129846395Y-76012494D01*
X129886879Y-75988551D01*
X129954602Y-75971368D01*
X130013120Y-75988551D01*
X130053605Y-76012494D01*
X130082862Y-76020994D01*
X130209002Y-76057642D01*
X130209005Y-76057642D01*
X130209007Y-76057643D01*
X130235227Y-76059706D01*
X130300515Y-76084588D01*
X130341987Y-76140818D01*
X130349500Y-76183324D01*
X130349500Y-77175499D01*
X130346949Y-77184184D01*
X130348238Y-77193144D01*
X130337260Y-77217183D01*
X130329815Y-77242538D01*
X130322974Y-77248465D01*
X130319214Y-77256700D01*
X130296979Y-77270989D01*
X130277011Y-77288293D01*
X130266499Y-77290579D01*
X130260437Y-77294476D01*
X130225505Y-77299498D01*
X130225502Y-77299499D01*
X130170943Y-77299499D01*
X130170939Y-77299499D01*
X130163333Y-77299500D01*
X130163332Y-77299499D01*
X130163331Y-77299500D01*
X129236555Y-77299500D01*
X129169516Y-77279815D01*
X129123761Y-77227011D01*
X129113817Y-77157853D01*
X129118840Y-77139588D01*
X129117969Y-77139324D01*
X129119731Y-77133509D01*
X129119737Y-77133497D01*
X129150500Y-76978842D01*
X129150500Y-76821158D01*
X129150500Y-76821155D01*
X129150499Y-76821153D01*
X129141020Y-76773501D01*
X129119737Y-76666503D01*
X129099996Y-76618844D01*
X129059397Y-76520827D01*
X129059390Y-76520814D01*
X128971789Y-76389711D01*
X128971786Y-76389707D01*
X128860292Y-76278213D01*
X128860288Y-76278210D01*
X128729185Y-76190609D01*
X128729172Y-76190602D01*
X128583501Y-76130264D01*
X128583489Y-76130261D01*
X128428845Y-76099500D01*
X128428842Y-76099500D01*
X128271158Y-76099500D01*
X128271155Y-76099500D01*
X128116510Y-76130261D01*
X128116498Y-76130264D01*
X127970827Y-76190602D01*
X127970814Y-76190609D01*
X127839711Y-76278210D01*
X127839707Y-76278213D01*
X127728213Y-76389707D01*
X127728210Y-76389711D01*
X127640609Y-76520814D01*
X127640602Y-76520827D01*
X127580264Y-76666498D01*
X127580261Y-76666510D01*
X127549500Y-76821153D01*
X127549500Y-76978846D01*
X127580261Y-77133489D01*
X127580264Y-77133501D01*
X127640603Y-77279173D01*
X127640604Y-77279175D01*
X127640606Y-77279179D01*
X127646006Y-77287262D01*
X127666885Y-77353936D01*
X127649638Y-77419272D01*
X127617504Y-77473608D01*
X127617504Y-77473609D01*
X127572357Y-77629002D01*
X127572356Y-77629008D01*
X127569500Y-77665302D01*
X127569500Y-78134697D01*
X127572356Y-78170991D01*
X127572357Y-78170997D01*
X127617504Y-78326390D01*
X127617505Y-78326393D01*
X127699881Y-78465684D01*
X127699887Y-78465692D01*
X127714609Y-78480414D01*
X127748094Y-78541737D01*
X127743110Y-78611429D01*
X127730031Y-78636985D01*
X127640608Y-78770816D01*
X127640602Y-78770827D01*
X127580264Y-78916498D01*
X127580261Y-78916510D01*
X127549500Y-79071153D01*
X127549500Y-79228846D01*
X127580261Y-79383489D01*
X127580263Y-79383497D01*
X127609413Y-79453871D01*
X127616882Y-79523341D01*
X127613928Y-79535919D01*
X127572357Y-79679002D01*
X127572356Y-79679008D01*
X127569500Y-79715302D01*
X127569500Y-80184697D01*
X127572356Y-80220991D01*
X127572357Y-80220997D01*
X127617504Y-80376390D01*
X127617505Y-80376393D01*
X127703854Y-80522402D01*
X127701145Y-80524003D01*
X127721359Y-80575503D01*
X127707672Y-80644019D01*
X127700948Y-80655342D01*
X127690610Y-80670814D01*
X127690602Y-80670828D01*
X127630264Y-80816498D01*
X127630261Y-80816510D01*
X127599500Y-80971153D01*
X127599500Y-81128846D01*
X127630261Y-81283489D01*
X127630263Y-81283497D01*
X127672178Y-81384690D01*
X127680382Y-81404495D01*
X127687851Y-81473965D01*
X127672556Y-81515064D01*
X127667505Y-81523604D01*
X127667505Y-81523605D01*
X127622357Y-81679002D01*
X127622356Y-81679008D01*
X127619500Y-81715302D01*
X127619500Y-82184697D01*
X127622356Y-82220991D01*
X127622357Y-82220997D01*
X127667504Y-82376390D01*
X127667505Y-82376393D01*
X127667506Y-82376395D01*
X127704357Y-82438707D01*
X127749881Y-82515684D01*
X127749887Y-82515692D01*
X127864307Y-82630112D01*
X127864311Y-82630115D01*
X127864313Y-82630117D01*
X128003605Y-82712494D01*
X128044587Y-82724400D01*
X128159002Y-82757642D01*
X128159005Y-82757642D01*
X128159007Y-82757643D01*
X128195310Y-82760500D01*
X128195318Y-82760500D01*
X128604682Y-82760500D01*
X128604690Y-82760500D01*
X128640993Y-82757643D01*
X128640995Y-82757642D01*
X128640997Y-82757642D01*
X128681975Y-82745736D01*
X128796395Y-82712494D01*
X128935687Y-82630117D01*
X128978984Y-82586820D01*
X129005912Y-82572115D01*
X129031731Y-82555523D01*
X129037930Y-82554631D01*
X129040307Y-82553334D01*
X129066666Y-82550500D01*
X129275500Y-82550500D01*
X129342539Y-82570185D01*
X129388294Y-82622989D01*
X129399500Y-82674500D01*
X129399500Y-82843102D01*
X129403640Y-82877577D01*
X129410561Y-82935217D01*
X129410561Y-82964783D01*
X129404718Y-83013440D01*
X129399500Y-83056898D01*
X129399500Y-83243102D01*
X129403601Y-83277250D01*
X129410561Y-83335217D01*
X129410561Y-83364783D01*
X129404718Y-83413440D01*
X129399500Y-83456898D01*
X129399500Y-83643102D01*
X129405126Y-83689954D01*
X129410122Y-83731561D01*
X129465639Y-83872343D01*
X129553464Y-83988158D01*
X129578287Y-84053470D01*
X129563859Y-84121833D01*
X129514761Y-84171544D01*
X129502113Y-84177644D01*
X129470824Y-84190604D01*
X129470814Y-84190609D01*
X129339711Y-84278210D01*
X129339707Y-84278213D01*
X129228213Y-84389707D01*
X129228210Y-84389711D01*
X129140609Y-84520814D01*
X129140602Y-84520827D01*
X129080264Y-84666498D01*
X129080261Y-84666510D01*
X129049500Y-84821153D01*
X129049500Y-84978846D01*
X129080261Y-85133489D01*
X129080264Y-85133501D01*
X129140602Y-85279172D01*
X129140609Y-85279185D01*
X129228210Y-85410288D01*
X129228213Y-85410292D01*
X129339710Y-85521789D01*
X129470815Y-85609390D01*
X129470821Y-85609394D01*
X129470827Y-85609396D01*
X129470828Y-85609397D01*
X129492952Y-85618561D01*
X129507535Y-85630312D01*
X129524735Y-85637739D01*
X129534179Y-85651783D01*
X129547356Y-85662402D01*
X129553271Y-85680175D01*
X129563724Y-85695719D01*
X129568293Y-85725307D01*
X129569421Y-85728696D01*
X129569473Y-85730541D01*
X129569500Y-85731838D01*
X129569500Y-85884690D01*
X129572357Y-85920993D01*
X129573520Y-85924998D01*
X129573783Y-85937603D01*
X129567131Y-85962135D01*
X129564464Y-85987411D01*
X129558141Y-85995288D01*
X129555498Y-86005038D01*
X129536638Y-86022079D01*
X129520730Y-86041901D01*
X129508312Y-86047676D01*
X129503658Y-86051882D01*
X129496854Y-86053005D01*
X129481905Y-86059958D01*
X129368220Y-86090421D01*
X129368209Y-86090426D01*
X129231290Y-86169475D01*
X129231282Y-86169481D01*
X128724217Y-86676546D01*
X128724214Y-86676548D01*
X128724215Y-86676549D01*
X128619478Y-86781286D01*
X128589243Y-86833657D01*
X128589242Y-86833659D01*
X128540423Y-86918214D01*
X128540423Y-86918215D01*
X128499499Y-87070943D01*
X128499499Y-87070945D01*
X128499499Y-87239046D01*
X128499500Y-87239059D01*
X128499500Y-88582054D01*
X128479815Y-88649093D01*
X128427011Y-88694848D01*
X128357853Y-88704792D01*
X128312381Y-88688787D01*
X128276395Y-88667506D01*
X128276390Y-88667504D01*
X128120997Y-88622357D01*
X128120991Y-88622356D01*
X128084697Y-88619500D01*
X128084690Y-88619500D01*
X127615310Y-88619500D01*
X127615302Y-88619500D01*
X127579008Y-88622356D01*
X127579002Y-88622357D01*
X127423609Y-88667504D01*
X127423606Y-88667505D01*
X127284315Y-88749881D01*
X127284307Y-88749887D01*
X127169887Y-88864307D01*
X127169881Y-88864315D01*
X127087505Y-89003606D01*
X127087504Y-89003609D01*
X127042357Y-89159002D01*
X127042356Y-89159008D01*
X127039500Y-89195302D01*
X127039500Y-89604697D01*
X127042356Y-89640991D01*
X127042357Y-89640997D01*
X127087504Y-89796390D01*
X127087505Y-89796393D01*
X127169881Y-89935684D01*
X127169887Y-89935692D01*
X127284307Y-90050112D01*
X127284311Y-90050115D01*
X127284313Y-90050117D01*
X127423605Y-90132494D01*
X127464587Y-90144400D01*
X127579002Y-90177642D01*
X127579005Y-90177642D01*
X127579007Y-90177643D01*
X127615310Y-90180500D01*
X127615318Y-90180500D01*
X128084682Y-90180500D01*
X128084690Y-90180500D01*
X128120993Y-90177643D01*
X128120995Y-90177642D01*
X128120997Y-90177642D01*
X128180725Y-90160289D01*
X128276395Y-90132494D01*
X128415687Y-90050117D01*
X128415692Y-90050112D01*
X128428986Y-90036819D01*
X128490309Y-90003334D01*
X128516667Y-90000500D01*
X129175501Y-90000500D01*
X129242540Y-90020185D01*
X129288295Y-90072989D01*
X129299501Y-90124500D01*
X129299501Y-90397876D01*
X129305908Y-90457483D01*
X129356202Y-90592328D01*
X129356206Y-90592335D01*
X129442452Y-90707544D01*
X129442455Y-90707547D01*
X129557664Y-90793793D01*
X129557671Y-90793797D01*
X129692517Y-90844091D01*
X129692516Y-90844091D01*
X129699444Y-90844835D01*
X129752127Y-90850500D01*
X131247872Y-90850499D01*
X131307483Y-90844091D01*
X131442331Y-90793796D01*
X131557546Y-90707546D01*
X131643796Y-90592331D01*
X131694091Y-90457483D01*
X131700500Y-90397873D01*
X131700499Y-89251065D01*
X131720184Y-89184027D01*
X131772987Y-89138272D01*
X131842146Y-89128328D01*
X131867828Y-89134882D01*
X131892517Y-89144091D01*
X131952127Y-89150500D01*
X132999902Y-89150499D01*
X133066941Y-89170183D01*
X133087583Y-89186818D01*
X133415139Y-89514374D01*
X133415149Y-89514385D01*
X133419479Y-89518715D01*
X133419480Y-89518716D01*
X133531284Y-89630520D01*
X133618095Y-89680639D01*
X133668215Y-89709577D01*
X133683548Y-89713685D01*
X133695096Y-89719551D01*
X133707909Y-89731621D01*
X133726620Y-89742424D01*
X133784313Y-89800117D01*
X133923605Y-89882494D01*
X133964587Y-89894400D01*
X134079002Y-89927642D01*
X134079005Y-89927642D01*
X134079007Y-89927643D01*
X134115310Y-89930500D01*
X134236500Y-89930500D01*
X134303539Y-89950185D01*
X134349294Y-90002989D01*
X134360500Y-90054500D01*
X134360500Y-91038903D01*
X134340815Y-91105942D01*
X134324181Y-91126584D01*
X133937584Y-91513181D01*
X133876261Y-91546666D01*
X133849903Y-91549500D01*
X130989057Y-91549500D01*
X130830943Y-91549500D01*
X130678215Y-91590423D01*
X130678214Y-91590423D01*
X130678212Y-91590424D01*
X130678209Y-91590425D01*
X130628096Y-91619359D01*
X130628095Y-91619360D01*
X130584689Y-91644420D01*
X130541285Y-91669479D01*
X130541282Y-91669481D01*
X130429478Y-91781286D01*
X129694522Y-92516241D01*
X129633199Y-92549726D01*
X129568523Y-92546491D01*
X129526245Y-92532754D01*
X129386272Y-92510584D01*
X129316287Y-92499500D01*
X129103713Y-92499500D01*
X129055042Y-92507208D01*
X128893760Y-92532753D01*
X128691585Y-92598444D01*
X128502179Y-92694951D01*
X128330213Y-92819890D01*
X128179890Y-92970213D01*
X128054951Y-93142179D01*
X127958444Y-93331585D01*
X127892753Y-93533760D01*
X127859500Y-93743713D01*
X127859500Y-93956286D01*
X127892753Y-94166239D01*
X127958444Y-94368414D01*
X128054951Y-94557820D01*
X128179890Y-94729786D01*
X128330213Y-94880109D01*
X128502182Y-95005050D01*
X128521739Y-95015015D01*
X128572536Y-95062989D01*
X128589331Y-95130810D01*
X128566794Y-95196945D01*
X128512079Y-95240397D01*
X128465445Y-95249500D01*
X126750097Y-95249500D01*
X126683058Y-95229815D01*
X126662416Y-95213181D01*
X126136819Y-94687584D01*
X126103334Y-94626261D01*
X126100500Y-94599903D01*
X126100500Y-75149097D01*
X126120185Y-75082058D01*
X126172989Y-75036303D01*
X126242147Y-75026359D01*
X126305703Y-75055384D01*
G37*
%TD.AperFunction*%
%TA.AperFunction,Conductor*%
G36*
X131450301Y-87001446D02*
G01*
X131506235Y-87043317D01*
X131513702Y-87054508D01*
X131544654Y-87106846D01*
X131561836Y-87174570D01*
X131554103Y-87213298D01*
X131505909Y-87342514D01*
X131505908Y-87342516D01*
X131499501Y-87402116D01*
X131499500Y-87402135D01*
X131499500Y-88548933D01*
X131479815Y-88615972D01*
X131427011Y-88661727D01*
X131357853Y-88671671D01*
X131332168Y-88665115D01*
X131307485Y-88655909D01*
X131307483Y-88655908D01*
X131247883Y-88649501D01*
X131247881Y-88649500D01*
X131247873Y-88649500D01*
X131247865Y-88649500D01*
X129824500Y-88649500D01*
X129757461Y-88629815D01*
X129711706Y-88577011D01*
X129700500Y-88525500D01*
X129700500Y-87450098D01*
X129709144Y-87420660D01*
X129715668Y-87390670D01*
X129719423Y-87385653D01*
X129720185Y-87383059D01*
X129736819Y-87362416D01*
X129812418Y-87286818D01*
X129873742Y-87253334D01*
X129900099Y-87250500D01*
X130763331Y-87250500D01*
X130763347Y-87250501D01*
X130770943Y-87250501D01*
X130929054Y-87250501D01*
X130929057Y-87250501D01*
X131081785Y-87209577D01*
X131131904Y-87180639D01*
X131218716Y-87130520D01*
X131319289Y-87029946D01*
X131380610Y-86996462D01*
X131450301Y-87001446D01*
G37*
%TD.AperFunction*%
%TA.AperFunction,Conductor*%
G36*
X134045185Y-87720722D02*
G01*
X134069007Y-87727643D01*
X134105310Y-87730500D01*
X134239626Y-87730500D01*
X134242728Y-87730656D01*
X134272901Y-87741188D01*
X134303539Y-87750185D01*
X134305649Y-87752620D01*
X134308694Y-87753683D01*
X134328380Y-87778853D01*
X134349294Y-87802989D01*
X134349752Y-87806179D01*
X134351739Y-87808719D01*
X134360500Y-87854500D01*
X134360500Y-88245500D01*
X134340815Y-88312539D01*
X134288011Y-88358294D01*
X134236500Y-88369500D01*
X134115302Y-88369500D01*
X134079013Y-88372356D01*
X134079008Y-88372356D01*
X134079007Y-88372357D01*
X134079004Y-88372357D01*
X134079003Y-88372358D01*
X134066186Y-88376081D01*
X133996317Y-88375877D01*
X133943918Y-88344683D01*
X133936818Y-88337583D01*
X133903333Y-88276260D01*
X133900499Y-88249902D01*
X133900499Y-87843839D01*
X133903926Y-87832165D01*
X133902802Y-87820050D01*
X133913587Y-87799264D01*
X133920184Y-87776800D01*
X133929378Y-87768833D01*
X133934983Y-87758032D01*
X133955294Y-87746376D01*
X133972988Y-87731045D01*
X133985029Y-87729313D01*
X133995584Y-87723257D01*
X134030727Y-87719995D01*
X134045185Y-87720722D01*
G37*
%TD.AperFunction*%
%TA.AperFunction,Conductor*%
G36*
X136161628Y-78111949D02*
G01*
X136183348Y-78111660D01*
X136204559Y-78121007D01*
X136208746Y-78121891D01*
X136213507Y-78124951D01*
X136215645Y-78125893D01*
X136220423Y-78128874D01*
X136227658Y-78134361D01*
X136231889Y-78136029D01*
X136241502Y-78142028D01*
X136287956Y-78194219D01*
X136299357Y-78253192D01*
X136299500Y-78253192D01*
X136299500Y-78253931D01*
X136299636Y-78254635D01*
X136299501Y-78256889D01*
X136299500Y-78256898D01*
X136299500Y-78443102D01*
X136302213Y-78465692D01*
X136310561Y-78535217D01*
X136310561Y-78564783D01*
X136307402Y-78591093D01*
X136299500Y-78656898D01*
X136299500Y-78843102D01*
X136305222Y-78890754D01*
X136310561Y-78935217D01*
X136310561Y-78964783D01*
X136304832Y-79012494D01*
X136299500Y-79056898D01*
X136299500Y-79243102D01*
X136303572Y-79277011D01*
X136310561Y-79335217D01*
X136310561Y-79364783D01*
X136304718Y-79413440D01*
X136299500Y-79456898D01*
X136299500Y-79643102D01*
X136302838Y-79670900D01*
X136310561Y-79735217D01*
X136310561Y-79764783D01*
X136304718Y-79813440D01*
X136299500Y-79856898D01*
X136299500Y-80043102D01*
X136303021Y-80072421D01*
X136310561Y-80135217D01*
X136310561Y-80164783D01*
X136308171Y-80184690D01*
X136299500Y-80256898D01*
X136299500Y-80443102D01*
X136305222Y-80490754D01*
X136310561Y-80535217D01*
X136310561Y-80564783D01*
X136304718Y-80613440D01*
X136299500Y-80656898D01*
X136299500Y-80843102D01*
X136303811Y-80879002D01*
X136310561Y-80935217D01*
X136310561Y-80964783D01*
X136309796Y-80971158D01*
X136299500Y-81056898D01*
X136299500Y-81243102D01*
X136304350Y-81283489D01*
X136310561Y-81335217D01*
X136310561Y-81364783D01*
X136308172Y-81384682D01*
X136299500Y-81456898D01*
X136299500Y-81643102D01*
X136303811Y-81679002D01*
X136310561Y-81735217D01*
X136310561Y-81764783D01*
X136309836Y-81770824D01*
X136299500Y-81856898D01*
X136299500Y-82043102D01*
X136301049Y-82055998D01*
X136310561Y-82135217D01*
X136310561Y-82164783D01*
X136305596Y-82206134D01*
X136299500Y-82256898D01*
X136299500Y-82443102D01*
X136305222Y-82490754D01*
X136310561Y-82535217D01*
X136310561Y-82564783D01*
X136307264Y-82592245D01*
X136299500Y-82656898D01*
X136299500Y-82843102D01*
X136303640Y-82877577D01*
X136310561Y-82935217D01*
X136311271Y-82956559D01*
X136310722Y-82966916D01*
X136310123Y-82968436D01*
X136299500Y-83056898D01*
X136299500Y-83178774D01*
X136299326Y-83182059D01*
X136288770Y-83212041D01*
X136279815Y-83242539D01*
X136277250Y-83244761D01*
X136276123Y-83247964D01*
X136251023Y-83267486D01*
X136227011Y-83288294D01*
X136223210Y-83289120D01*
X136220973Y-83290861D01*
X136211135Y-83291747D01*
X136175500Y-83299500D01*
X136056898Y-83299500D01*
X136013440Y-83304718D01*
X135964783Y-83310561D01*
X135935217Y-83310561D01*
X135886559Y-83304718D01*
X135843102Y-83299500D01*
X135656898Y-83299500D01*
X135613440Y-83304718D01*
X135564783Y-83310561D01*
X135535217Y-83310561D01*
X135486559Y-83304718D01*
X135443102Y-83299500D01*
X135256898Y-83299500D01*
X135213440Y-83304718D01*
X135164783Y-83310561D01*
X135135217Y-83310561D01*
X135086559Y-83304718D01*
X135043102Y-83299500D01*
X134856898Y-83299500D01*
X134813440Y-83304718D01*
X134764783Y-83310561D01*
X134735217Y-83310561D01*
X134686559Y-83304718D01*
X134643102Y-83299500D01*
X134456898Y-83299500D01*
X134413440Y-83304718D01*
X134364783Y-83310561D01*
X134335217Y-83310561D01*
X134286559Y-83304718D01*
X134243102Y-83299500D01*
X134056898Y-83299500D01*
X134013440Y-83304718D01*
X133964783Y-83310561D01*
X133935217Y-83310561D01*
X133886559Y-83304718D01*
X133843102Y-83299500D01*
X133656898Y-83299500D01*
X133613440Y-83304718D01*
X133564783Y-83310561D01*
X133535217Y-83310561D01*
X133486559Y-83304718D01*
X133443102Y-83299500D01*
X133256898Y-83299500D01*
X133213440Y-83304718D01*
X133164783Y-83310561D01*
X133135217Y-83310561D01*
X133086559Y-83304718D01*
X133043102Y-83299500D01*
X132856898Y-83299500D01*
X132813440Y-83304718D01*
X132764783Y-83310561D01*
X132735217Y-83310561D01*
X132686559Y-83304718D01*
X132643102Y-83299500D01*
X132456898Y-83299500D01*
X132413440Y-83304718D01*
X132364783Y-83310561D01*
X132335217Y-83310561D01*
X132286559Y-83304718D01*
X132243102Y-83299500D01*
X132056898Y-83299500D01*
X132013440Y-83304718D01*
X131964783Y-83310561D01*
X131935217Y-83310561D01*
X131886559Y-83304718D01*
X131843102Y-83299500D01*
X131656898Y-83299500D01*
X131613440Y-83304718D01*
X131564783Y-83310561D01*
X131543441Y-83311271D01*
X131533083Y-83310722D01*
X131531564Y-83310123D01*
X131443102Y-83299500D01*
X131321226Y-83299500D01*
X131317941Y-83299326D01*
X131287958Y-83288770D01*
X131257461Y-83279815D01*
X131255238Y-83277250D01*
X131252036Y-83276123D01*
X131232513Y-83251023D01*
X131211706Y-83227011D01*
X131210879Y-83223210D01*
X131209139Y-83220973D01*
X131208252Y-83211135D01*
X131200500Y-83175500D01*
X131200500Y-83056897D01*
X131195418Y-83014578D01*
X131189877Y-82968436D01*
X131189876Y-82968434D01*
X131189438Y-82964785D01*
X131189237Y-82936990D01*
X131189784Y-82931797D01*
X131189877Y-82931564D01*
X131196360Y-82877577D01*
X131975975Y-82877577D01*
X132081236Y-82921178D01*
X132081240Y-82921179D01*
X132226126Y-82949999D01*
X132226129Y-82950000D01*
X132373871Y-82950000D01*
X132373873Y-82949999D01*
X132518760Y-82921179D01*
X132518775Y-82921175D01*
X132624024Y-82877578D01*
X132624024Y-82877577D01*
X133425975Y-82877577D01*
X133531236Y-82921178D01*
X133531240Y-82921179D01*
X133676126Y-82949999D01*
X133676129Y-82950000D01*
X133823871Y-82950000D01*
X133823873Y-82949999D01*
X133968760Y-82921179D01*
X133968775Y-82921175D01*
X134074024Y-82877578D01*
X134074024Y-82877577D01*
X134875975Y-82877577D01*
X134981236Y-82921178D01*
X134981240Y-82921179D01*
X135126126Y-82949999D01*
X135126129Y-82950000D01*
X135273871Y-82950000D01*
X135273873Y-82949999D01*
X135418760Y-82921179D01*
X135418775Y-82921175D01*
X135524024Y-82877578D01*
X135524024Y-82877577D01*
X135200001Y-82553554D01*
X135200000Y-82553554D01*
X134875975Y-82877577D01*
X134074024Y-82877577D01*
X133750001Y-82553554D01*
X133750000Y-82553554D01*
X133425975Y-82877577D01*
X132624024Y-82877577D01*
X132300001Y-82553554D01*
X132300000Y-82553554D01*
X131975975Y-82877577D01*
X131196360Y-82877577D01*
X131200500Y-82843102D01*
X131200500Y-82656898D01*
X131189877Y-82568436D01*
X131189876Y-82568434D01*
X131189438Y-82564785D01*
X131189438Y-82535215D01*
X131189876Y-82531565D01*
X131189877Y-82531564D01*
X131200500Y-82443102D01*
X131200500Y-82256898D01*
X131189877Y-82168436D01*
X131189876Y-82168434D01*
X131189438Y-82164785D01*
X131189438Y-82135215D01*
X131189876Y-82131566D01*
X131189877Y-82131564D01*
X131190530Y-82126126D01*
X131550000Y-82126126D01*
X131550000Y-82273873D01*
X131578820Y-82418759D01*
X131578822Y-82418767D01*
X131622421Y-82524024D01*
X131946446Y-82200000D01*
X131946446Y-82199999D01*
X131926556Y-82180109D01*
X132200000Y-82180109D01*
X132200000Y-82219891D01*
X132215224Y-82256645D01*
X132243355Y-82284776D01*
X132280109Y-82300000D01*
X132319891Y-82300000D01*
X132356645Y-82284776D01*
X132384776Y-82256645D01*
X132400000Y-82219891D01*
X132400000Y-82199999D01*
X132653554Y-82199999D01*
X132653554Y-82200001D01*
X132977576Y-82524023D01*
X133000807Y-82519403D01*
X133049191Y-82519403D01*
X133072422Y-82524024D01*
X133396446Y-82200000D01*
X133396446Y-82199999D01*
X133376556Y-82180109D01*
X133650000Y-82180109D01*
X133650000Y-82219891D01*
X133665224Y-82256645D01*
X133693355Y-82284776D01*
X133730109Y-82300000D01*
X133769891Y-82300000D01*
X133806645Y-82284776D01*
X133834776Y-82256645D01*
X133850000Y-82219891D01*
X133850000Y-82199999D01*
X134103554Y-82199999D01*
X134103554Y-82200001D01*
X134427576Y-82524023D01*
X134450807Y-82519403D01*
X134499191Y-82519403D01*
X134522422Y-82524024D01*
X134846446Y-82200000D01*
X134846446Y-82199999D01*
X134826556Y-82180109D01*
X135100000Y-82180109D01*
X135100000Y-82219891D01*
X135115224Y-82256645D01*
X135143355Y-82284776D01*
X135180109Y-82300000D01*
X135219891Y-82300000D01*
X135256645Y-82284776D01*
X135284776Y-82256645D01*
X135300000Y-82219891D01*
X135300000Y-82199999D01*
X135553554Y-82199999D01*
X135553554Y-82200001D01*
X135877577Y-82524024D01*
X135877578Y-82524024D01*
X135921175Y-82418775D01*
X135921179Y-82418760D01*
X135949999Y-82273873D01*
X135950000Y-82273871D01*
X135950000Y-82126128D01*
X135949999Y-82126126D01*
X135921179Y-81981240D01*
X135921178Y-81981236D01*
X135877577Y-81875975D01*
X135553554Y-82199999D01*
X135300000Y-82199999D01*
X135300000Y-82180109D01*
X135284776Y-82143355D01*
X135256645Y-82115224D01*
X135219891Y-82100000D01*
X135180109Y-82100000D01*
X135143355Y-82115224D01*
X135115224Y-82143355D01*
X135100000Y-82180109D01*
X134826556Y-82180109D01*
X134522421Y-81875974D01*
X134499190Y-81880595D01*
X134450808Y-81880595D01*
X134427577Y-81875974D01*
X134103554Y-82199999D01*
X133850000Y-82199999D01*
X133850000Y-82180109D01*
X133834776Y-82143355D01*
X133806645Y-82115224D01*
X133769891Y-82100000D01*
X133730109Y-82100000D01*
X133693355Y-82115224D01*
X133665224Y-82143355D01*
X133650000Y-82180109D01*
X133376556Y-82180109D01*
X133072421Y-81875974D01*
X133049190Y-81880595D01*
X133000808Y-81880595D01*
X132977577Y-81875974D01*
X132653554Y-82199999D01*
X132400000Y-82199999D01*
X132400000Y-82180109D01*
X132384776Y-82143355D01*
X132356645Y-82115224D01*
X132319891Y-82100000D01*
X132280109Y-82100000D01*
X132243355Y-82115224D01*
X132215224Y-82143355D01*
X132200000Y-82180109D01*
X131926556Y-82180109D01*
X131622421Y-81875974D01*
X131622420Y-81875974D01*
X131578823Y-81981228D01*
X131578820Y-81981240D01*
X131550000Y-82126126D01*
X131190530Y-82126126D01*
X131200500Y-82043102D01*
X131200500Y-81856898D01*
X131189877Y-81768436D01*
X131189876Y-81768434D01*
X131189438Y-81764785D01*
X131189438Y-81735215D01*
X131189876Y-81731565D01*
X131189877Y-81731564D01*
X131200500Y-81643102D01*
X131200500Y-81456898D01*
X131196979Y-81427577D01*
X131975974Y-81427577D01*
X131980595Y-81450808D01*
X131980595Y-81499190D01*
X131975974Y-81522421D01*
X132300000Y-81846446D01*
X132300001Y-81846446D01*
X132624024Y-81522422D01*
X132619403Y-81499191D01*
X132619403Y-81490853D01*
X132617513Y-81486050D01*
X132619403Y-81450807D01*
X132624023Y-81427577D01*
X133425974Y-81427577D01*
X133430595Y-81450808D01*
X133430595Y-81499190D01*
X133425974Y-81522421D01*
X133750000Y-81846446D01*
X133750001Y-81846446D01*
X134074024Y-81522422D01*
X134069403Y-81499191D01*
X134069403Y-81490853D01*
X134067513Y-81486050D01*
X134069403Y-81450807D01*
X134074023Y-81427577D01*
X134875974Y-81427577D01*
X134880595Y-81450808D01*
X134880595Y-81499190D01*
X134875974Y-81522421D01*
X135200000Y-81846446D01*
X135200001Y-81846446D01*
X135524024Y-81522422D01*
X135519403Y-81499191D01*
X135519403Y-81450807D01*
X135524023Y-81427576D01*
X135200001Y-81103554D01*
X135200000Y-81103554D01*
X134875974Y-81427577D01*
X134074023Y-81427577D01*
X134074023Y-81427576D01*
X133750001Y-81103554D01*
X133750000Y-81103554D01*
X133425974Y-81427577D01*
X132624023Y-81427577D01*
X132624023Y-81427576D01*
X132300001Y-81103554D01*
X132300000Y-81103554D01*
X131975974Y-81427577D01*
X131196979Y-81427577D01*
X131189877Y-81368436D01*
X131189876Y-81368434D01*
X131189438Y-81364785D01*
X131189438Y-81335215D01*
X131189876Y-81331565D01*
X131189877Y-81331564D01*
X131200500Y-81243102D01*
X131200500Y-81056898D01*
X131189877Y-80968436D01*
X131189876Y-80968434D01*
X131189438Y-80964785D01*
X131189438Y-80935215D01*
X131189876Y-80931565D01*
X131189877Y-80931564D01*
X131200500Y-80843102D01*
X131200500Y-80676126D01*
X131550000Y-80676126D01*
X131550000Y-80823873D01*
X131578820Y-80968759D01*
X131578822Y-80968767D01*
X131622421Y-81074024D01*
X131946446Y-80750000D01*
X131946446Y-80749999D01*
X131926556Y-80730109D01*
X132200000Y-80730109D01*
X132200000Y-80769891D01*
X132215224Y-80806645D01*
X132243355Y-80834776D01*
X132280109Y-80850000D01*
X132319891Y-80850000D01*
X132356645Y-80834776D01*
X132384776Y-80806645D01*
X132400000Y-80769891D01*
X132400000Y-80749999D01*
X132653554Y-80749999D01*
X132653554Y-80750001D01*
X132977576Y-81074023D01*
X133000807Y-81069403D01*
X133049191Y-81069403D01*
X133072422Y-81074024D01*
X133396446Y-80750000D01*
X133396446Y-80749999D01*
X133376556Y-80730109D01*
X133650000Y-80730109D01*
X133650000Y-80769891D01*
X133665224Y-80806645D01*
X133693355Y-80834776D01*
X133730109Y-80850000D01*
X133769891Y-80850000D01*
X133806645Y-80834776D01*
X133834776Y-80806645D01*
X133850000Y-80769891D01*
X133850000Y-80749999D01*
X134103554Y-80749999D01*
X134103554Y-80750001D01*
X134427576Y-81074023D01*
X134450807Y-81069403D01*
X134499191Y-81069403D01*
X134522422Y-81074024D01*
X134846446Y-80750000D01*
X134846446Y-80749999D01*
X134826556Y-80730109D01*
X135100000Y-80730109D01*
X135100000Y-80769891D01*
X135115224Y-80806645D01*
X135143355Y-80834776D01*
X135180109Y-80850000D01*
X135219891Y-80850000D01*
X135256645Y-80834776D01*
X135284776Y-80806645D01*
X135300000Y-80769891D01*
X135300000Y-80749999D01*
X135553554Y-80749999D01*
X135553554Y-80750001D01*
X135877577Y-81074024D01*
X135877578Y-81074024D01*
X135921175Y-80968775D01*
X135921179Y-80968760D01*
X135949999Y-80823873D01*
X135950000Y-80823871D01*
X135950000Y-80676128D01*
X135949999Y-80676126D01*
X135921179Y-80531240D01*
X135921178Y-80531236D01*
X135877577Y-80425975D01*
X135553554Y-80749999D01*
X135300000Y-80749999D01*
X135300000Y-80730109D01*
X135284776Y-80693355D01*
X135256645Y-80665224D01*
X135219891Y-80650000D01*
X135180109Y-80650000D01*
X135143355Y-80665224D01*
X135115224Y-80693355D01*
X135100000Y-80730109D01*
X134826556Y-80730109D01*
X134522421Y-80425974D01*
X134499190Y-80430595D01*
X134450808Y-80430595D01*
X134427577Y-80425974D01*
X134103554Y-80749999D01*
X133850000Y-80749999D01*
X133850000Y-80730109D01*
X133834776Y-80693355D01*
X133806645Y-80665224D01*
X133769891Y-80650000D01*
X133730109Y-80650000D01*
X133693355Y-80665224D01*
X133665224Y-80693355D01*
X133650000Y-80730109D01*
X133376556Y-80730109D01*
X133072421Y-80425974D01*
X133049190Y-80430595D01*
X133000808Y-80430595D01*
X132977577Y-80425974D01*
X132653554Y-80749999D01*
X132400000Y-80749999D01*
X132400000Y-80730109D01*
X132384776Y-80693355D01*
X132356645Y-80665224D01*
X132319891Y-80650000D01*
X132280109Y-80650000D01*
X132243355Y-80665224D01*
X132215224Y-80693355D01*
X132200000Y-80730109D01*
X131926556Y-80730109D01*
X131622421Y-80425974D01*
X131622420Y-80425974D01*
X131578823Y-80531228D01*
X131578820Y-80531240D01*
X131550000Y-80676126D01*
X131200500Y-80676126D01*
X131200500Y-80656898D01*
X131189877Y-80568436D01*
X131189876Y-80568434D01*
X131189438Y-80564785D01*
X131189438Y-80535215D01*
X131189876Y-80531565D01*
X131189877Y-80531564D01*
X131200500Y-80443102D01*
X131200500Y-80256898D01*
X131189877Y-80168436D01*
X131189876Y-80168434D01*
X131189438Y-80164785D01*
X131188747Y-80143064D01*
X131189310Y-80132999D01*
X131189877Y-80131564D01*
X131200500Y-80043102D01*
X131200500Y-79977577D01*
X131975974Y-79977577D01*
X131980595Y-80000808D01*
X131980595Y-80049190D01*
X131975974Y-80072421D01*
X132300000Y-80396446D01*
X132300001Y-80396446D01*
X132624024Y-80072422D01*
X132619403Y-80049191D01*
X132619403Y-80040853D01*
X132617513Y-80036050D01*
X132619403Y-80000807D01*
X132624023Y-79977577D01*
X133425974Y-79977577D01*
X133430595Y-80000808D01*
X133430595Y-80049190D01*
X133425974Y-80072421D01*
X133750000Y-80396446D01*
X133750001Y-80396446D01*
X134074024Y-80072422D01*
X134069403Y-80049191D01*
X134069403Y-80040853D01*
X134067513Y-80036050D01*
X134069403Y-80000807D01*
X134074023Y-79977577D01*
X134875974Y-79977577D01*
X134880595Y-80000808D01*
X134880595Y-80049190D01*
X134875974Y-80072421D01*
X135200000Y-80396446D01*
X135200001Y-80396446D01*
X135524024Y-80072422D01*
X135519403Y-80049191D01*
X135519403Y-80000807D01*
X135524023Y-79977576D01*
X135200001Y-79653554D01*
X135200000Y-79653554D01*
X134875974Y-79977577D01*
X134074023Y-79977577D01*
X134074023Y-79977576D01*
X133750001Y-79653554D01*
X133750000Y-79653554D01*
X133425974Y-79977577D01*
X132624023Y-79977577D01*
X132624023Y-79977576D01*
X132300001Y-79653554D01*
X132300000Y-79653554D01*
X131975974Y-79977577D01*
X131200500Y-79977577D01*
X131200500Y-79856898D01*
X131189877Y-79768436D01*
X131189401Y-79767231D01*
X131188806Y-79757916D01*
X131189438Y-79755112D01*
X131189438Y-79735215D01*
X131189876Y-79731565D01*
X131189877Y-79731564D01*
X131200500Y-79643102D01*
X131200500Y-79456898D01*
X131189877Y-79368436D01*
X131189876Y-79368434D01*
X131189438Y-79364785D01*
X131189074Y-79338649D01*
X131189679Y-79332065D01*
X131189877Y-79331564D01*
X131200500Y-79243102D01*
X131200500Y-79226126D01*
X131550000Y-79226126D01*
X131550000Y-79373873D01*
X131578820Y-79518759D01*
X131578822Y-79518767D01*
X131622421Y-79624024D01*
X131946446Y-79300000D01*
X131946446Y-79299999D01*
X131926556Y-79280109D01*
X132200000Y-79280109D01*
X132200000Y-79319891D01*
X132215224Y-79356645D01*
X132243355Y-79384776D01*
X132280109Y-79400000D01*
X132319891Y-79400000D01*
X132356645Y-79384776D01*
X132384776Y-79356645D01*
X132400000Y-79319891D01*
X132400000Y-79299999D01*
X132653554Y-79299999D01*
X132653554Y-79300001D01*
X132977576Y-79624023D01*
X133000807Y-79619403D01*
X133049191Y-79619403D01*
X133072422Y-79624024D01*
X133396446Y-79300000D01*
X133396446Y-79299999D01*
X133376556Y-79280109D01*
X133650000Y-79280109D01*
X133650000Y-79319891D01*
X133665224Y-79356645D01*
X133693355Y-79384776D01*
X133730109Y-79400000D01*
X133769891Y-79400000D01*
X133806645Y-79384776D01*
X133834776Y-79356645D01*
X133850000Y-79319891D01*
X133850000Y-79299999D01*
X134103554Y-79299999D01*
X134103554Y-79300001D01*
X134427576Y-79624023D01*
X134450807Y-79619403D01*
X134499191Y-79619403D01*
X134522422Y-79624024D01*
X134846446Y-79300000D01*
X134846446Y-79299999D01*
X134826556Y-79280109D01*
X135100000Y-79280109D01*
X135100000Y-79319891D01*
X135115224Y-79356645D01*
X135143355Y-79384776D01*
X135180109Y-79400000D01*
X135219891Y-79400000D01*
X135256645Y-79384776D01*
X135284776Y-79356645D01*
X135300000Y-79319891D01*
X135300000Y-79299999D01*
X135553554Y-79299999D01*
X135553554Y-79300001D01*
X135877577Y-79624024D01*
X135877578Y-79624024D01*
X135921175Y-79518775D01*
X135921179Y-79518760D01*
X135949999Y-79373873D01*
X135950000Y-79373871D01*
X135950000Y-79226128D01*
X135949999Y-79226126D01*
X135921179Y-79081240D01*
X135921178Y-79081236D01*
X135877577Y-78975975D01*
X135553554Y-79299999D01*
X135300000Y-79299999D01*
X135300000Y-79280109D01*
X135284776Y-79243355D01*
X135256645Y-79215224D01*
X135219891Y-79200000D01*
X135180109Y-79200000D01*
X135143355Y-79215224D01*
X135115224Y-79243355D01*
X135100000Y-79280109D01*
X134826556Y-79280109D01*
X134522421Y-78975974D01*
X134499190Y-78980595D01*
X134450808Y-78980595D01*
X134427577Y-78975974D01*
X134103554Y-79299999D01*
X133850000Y-79299999D01*
X133850000Y-79280109D01*
X133834776Y-79243355D01*
X133806645Y-79215224D01*
X133769891Y-79200000D01*
X133730109Y-79200000D01*
X133693355Y-79215224D01*
X133665224Y-79243355D01*
X133650000Y-79280109D01*
X133376556Y-79280109D01*
X133072421Y-78975974D01*
X133049190Y-78980595D01*
X133000808Y-78980595D01*
X132977577Y-78975974D01*
X132653554Y-79299999D01*
X132400000Y-79299999D01*
X132400000Y-79280109D01*
X132384776Y-79243355D01*
X132356645Y-79215224D01*
X132319891Y-79200000D01*
X132280109Y-79200000D01*
X132243355Y-79215224D01*
X132215224Y-79243355D01*
X132200000Y-79280109D01*
X131926556Y-79280109D01*
X131622421Y-78975974D01*
X131622420Y-78975974D01*
X131578823Y-79081228D01*
X131578820Y-79081240D01*
X131550000Y-79226126D01*
X131200500Y-79226126D01*
X131200500Y-79056898D01*
X131189877Y-78968436D01*
X131189876Y-78968434D01*
X131189438Y-78964785D01*
X131189438Y-78935215D01*
X131189876Y-78931565D01*
X131189877Y-78931564D01*
X131200500Y-78843102D01*
X131200500Y-78656898D01*
X131196360Y-78622420D01*
X131975974Y-78622420D01*
X131975974Y-78622421D01*
X132300000Y-78946446D01*
X132300001Y-78946446D01*
X132624024Y-78622421D01*
X132518767Y-78578822D01*
X132518759Y-78578820D01*
X132373872Y-78550000D01*
X132226128Y-78550000D01*
X132081240Y-78578820D01*
X132081228Y-78578823D01*
X131975974Y-78622420D01*
X131196360Y-78622420D01*
X131189877Y-78568436D01*
X131189784Y-78568202D01*
X131189237Y-78563010D01*
X131189438Y-78561908D01*
X131189438Y-78535215D01*
X131189876Y-78531565D01*
X131189877Y-78531564D01*
X131200500Y-78443102D01*
X131200500Y-78324500D01*
X131202115Y-78318997D01*
X131201000Y-78313371D01*
X131211851Y-78285840D01*
X131220185Y-78257461D01*
X131224518Y-78253706D01*
X131226622Y-78248369D01*
X131250633Y-78231076D01*
X131272989Y-78211706D01*
X131279881Y-78210014D01*
X131283320Y-78207538D01*
X131305228Y-78203793D01*
X131317940Y-78200674D01*
X131321224Y-78200500D01*
X131443102Y-78200500D01*
X131531564Y-78189877D01*
X131533089Y-78189275D01*
X131543440Y-78188727D01*
X131546441Y-78189438D01*
X131564785Y-78189438D01*
X131568434Y-78189876D01*
X131568436Y-78189877D01*
X131640821Y-78198569D01*
X131656897Y-78200500D01*
X131656898Y-78200500D01*
X131843103Y-78200500D01*
X131859178Y-78198569D01*
X131931564Y-78189877D01*
X131931565Y-78189876D01*
X131935215Y-78189438D01*
X131964785Y-78189438D01*
X131968434Y-78189876D01*
X131968436Y-78189877D01*
X132040821Y-78198569D01*
X132056897Y-78200500D01*
X132056898Y-78200500D01*
X132243103Y-78200500D01*
X132259178Y-78198569D01*
X132331564Y-78189877D01*
X132331565Y-78189876D01*
X132335215Y-78189438D01*
X132364785Y-78189438D01*
X132368434Y-78189876D01*
X132368436Y-78189877D01*
X132440821Y-78198569D01*
X132456897Y-78200500D01*
X132456898Y-78200500D01*
X132643103Y-78200500D01*
X132659178Y-78198569D01*
X132731564Y-78189877D01*
X132731565Y-78189876D01*
X132735215Y-78189438D01*
X132764785Y-78189438D01*
X132768434Y-78189876D01*
X132768436Y-78189877D01*
X132840821Y-78198569D01*
X132856897Y-78200500D01*
X132856898Y-78200500D01*
X133043103Y-78200500D01*
X133059178Y-78198569D01*
X133131564Y-78189877D01*
X133131565Y-78189876D01*
X133135215Y-78189438D01*
X133164499Y-78189404D01*
X133168401Y-78189863D01*
X133168436Y-78189877D01*
X133256898Y-78200500D01*
X133258746Y-78200500D01*
X133264191Y-78201141D01*
X133293174Y-78213490D01*
X133322835Y-78224159D01*
X133327411Y-78228078D01*
X133328469Y-78228529D01*
X133329208Y-78229616D01*
X133337373Y-78236609D01*
X133388349Y-78287585D01*
X133388355Y-78287590D01*
X133504910Y-78404145D01*
X133538395Y-78465468D01*
X133533411Y-78535160D01*
X133491539Y-78591093D01*
X133464683Y-78606387D01*
X133425974Y-78622421D01*
X133749999Y-78946446D01*
X134009627Y-78686819D01*
X134070950Y-78653334D01*
X134097308Y-78650500D01*
X134852692Y-78650500D01*
X134919731Y-78670185D01*
X134940373Y-78686819D01*
X135200000Y-78946446D01*
X135200001Y-78946446D01*
X135524024Y-78622422D01*
X135512161Y-78562785D01*
X135512868Y-78554879D01*
X135510094Y-78547442D01*
X135515937Y-78520574D01*
X135518388Y-78493193D01*
X135523635Y-78485186D01*
X135524944Y-78479169D01*
X135546089Y-78450922D01*
X135546092Y-78450918D01*
X135578294Y-78418716D01*
X135578295Y-78418713D01*
X135708506Y-78288502D01*
X135708511Y-78288498D01*
X135718714Y-78278294D01*
X135718716Y-78278294D01*
X135760259Y-78236750D01*
X135821580Y-78203266D01*
X135840534Y-78200653D01*
X135843084Y-78200500D01*
X135843102Y-78200500D01*
X135931564Y-78189877D01*
X136072342Y-78134361D01*
X136075072Y-78132290D01*
X136078010Y-78131173D01*
X136079733Y-78130205D01*
X136079878Y-78130463D01*
X136095369Y-78124575D01*
X136113484Y-78112590D01*
X136127388Y-78112404D01*
X136140382Y-78107466D01*
X136161628Y-78111949D01*
G37*
%TD.AperFunction*%
%TA.AperFunction,Conductor*%
G36*
X131216942Y-74420185D02*
G01*
X131237584Y-74436819D01*
X131465139Y-74664374D01*
X131465149Y-74664385D01*
X131469479Y-74668715D01*
X131469480Y-74668716D01*
X131581284Y-74780520D01*
X131655910Y-74823605D01*
X131718215Y-74859577D01*
X131787054Y-74878022D01*
X131794955Y-74881363D01*
X131815622Y-74898267D01*
X131838423Y-74912165D01*
X131842252Y-74920049D01*
X131849038Y-74925599D01*
X131857285Y-74950996D01*
X131868952Y-74975012D01*
X131869559Y-74988788D01*
X131870619Y-74992052D01*
X131869834Y-74995034D01*
X131870287Y-75005298D01*
X131869501Y-75015289D01*
X131869500Y-75015317D01*
X131869500Y-75296167D01*
X131865654Y-75309261D01*
X131866589Y-75322877D01*
X131856003Y-75342129D01*
X131849815Y-75363206D01*
X131838786Y-75373444D01*
X131832926Y-75384103D01*
X131813031Y-75397353D01*
X131804610Y-75405172D01*
X131798927Y-75408253D01*
X131720821Y-75440606D01*
X131641380Y-75493686D01*
X131636349Y-75496415D01*
X131607548Y-75502592D01*
X131579452Y-75511390D01*
X131573782Y-75509834D01*
X131568033Y-75511068D01*
X131540464Y-75500694D01*
X131512072Y-75492905D01*
X131507645Y-75488344D01*
X131502640Y-75486461D01*
X131492210Y-75472443D01*
X131469852Y-75449410D01*
X131430520Y-75381284D01*
X131266819Y-75217583D01*
X131233334Y-75156260D01*
X131230500Y-75129902D01*
X131230500Y-75015317D01*
X131230499Y-75015302D01*
X131228669Y-74992052D01*
X131227643Y-74979007D01*
X131226482Y-74975012D01*
X131192945Y-74859577D01*
X131182494Y-74823605D01*
X131100117Y-74684313D01*
X131100115Y-74684311D01*
X131100112Y-74684307D01*
X131027986Y-74612181D01*
X131017373Y-74592744D01*
X131002873Y-74576011D01*
X131000956Y-74562679D01*
X130994501Y-74550858D01*
X130996080Y-74528771D01*
X130992929Y-74506853D01*
X130998524Y-74494601D01*
X130999485Y-74481166D01*
X131012755Y-74463439D01*
X131021954Y-74443297D01*
X131033285Y-74436014D01*
X131041357Y-74425233D01*
X131062102Y-74417495D01*
X131080732Y-74405523D01*
X131102650Y-74402371D01*
X131106821Y-74400816D01*
X131115667Y-74400500D01*
X131149903Y-74400500D01*
X131216942Y-74420185D01*
G37*
%TD.AperFunction*%
%TA.AperFunction,Conductor*%
G36*
X135710774Y-63993004D02*
G01*
X135769444Y-64030946D01*
X135798288Y-64094584D01*
X135799500Y-64111881D01*
X135799500Y-64364069D01*
X135818902Y-64461606D01*
X135822331Y-64478846D01*
X135824499Y-64489744D01*
X135842190Y-64532455D01*
X135873535Y-64608127D01*
X135944723Y-64714669D01*
X135958180Y-64728126D01*
X135991665Y-64789446D01*
X135994500Y-64815808D01*
X135994500Y-65227870D01*
X135994501Y-65227876D01*
X136000908Y-65287483D01*
X136051202Y-65422328D01*
X136051206Y-65422335D01*
X136137452Y-65537544D01*
X136137455Y-65537547D01*
X136252664Y-65623793D01*
X136252671Y-65623797D01*
X136387517Y-65674091D01*
X136387516Y-65674091D01*
X136394444Y-65674835D01*
X136447127Y-65680500D01*
X137352872Y-65680499D01*
X137412483Y-65674091D01*
X137547329Y-65623797D01*
X137547331Y-65623796D01*
X137564501Y-65610942D01*
X137575687Y-65602568D01*
X137600444Y-65593333D01*
X137623641Y-65580667D01*
X137632668Y-65581312D01*
X137641149Y-65578149D01*
X137666972Y-65583765D01*
X137693333Y-65585651D01*
X137705046Y-65592047D01*
X137709422Y-65592999D01*
X137724308Y-65602564D01*
X137749811Y-65621657D01*
X137791682Y-65677590D01*
X137799500Y-65720923D01*
X137799500Y-66083000D01*
X137779815Y-66150039D01*
X137727011Y-66195794D01*
X137675500Y-66207000D01*
X136862211Y-66207000D01*
X136835647Y-66208304D01*
X136812690Y-66209431D01*
X136812652Y-66209434D01*
X136788528Y-66211809D01*
X136788477Y-66211815D01*
X136739431Y-66219090D01*
X136739413Y-66219093D01*
X136739410Y-66219094D01*
X136731828Y-66220602D01*
X136679905Y-66230929D01*
X136585070Y-66259697D01*
X136540380Y-66278207D01*
X136452992Y-66324917D01*
X136452981Y-66324923D01*
X136422807Y-66345085D01*
X136419318Y-66347417D01*
X136412884Y-66351716D01*
X136412880Y-66351718D01*
X136336276Y-66414586D01*
X136302086Y-66448776D01*
X136239218Y-66525380D01*
X136239216Y-66525384D01*
X136212422Y-66565483D01*
X136212418Y-66565490D01*
X136165706Y-66652885D01*
X136165705Y-66652888D01*
X136147189Y-66697591D01*
X136118432Y-66792395D01*
X136106595Y-66851907D01*
X136106592Y-66851925D01*
X136099322Y-66900928D01*
X136099315Y-66900987D01*
X136096935Y-66925144D01*
X136096935Y-66925153D01*
X136096935Y-66925154D01*
X136094500Y-66974710D01*
X136094500Y-67850289D01*
X136096935Y-67899845D01*
X136096935Y-67899854D01*
X136099315Y-67924011D01*
X136099322Y-67924070D01*
X136106592Y-67973073D01*
X136106595Y-67973091D01*
X136118432Y-68032600D01*
X136147190Y-68127412D01*
X136165702Y-68172107D01*
X136165703Y-68172108D01*
X136165704Y-68172110D01*
X136212422Y-68259516D01*
X136239214Y-68299613D01*
X136302080Y-68376214D01*
X136302085Y-68376219D01*
X136336280Y-68410415D01*
X136336285Y-68410419D01*
X136412891Y-68473288D01*
X136412898Y-68473292D01*
X136412904Y-68473297D01*
X136452974Y-68500071D01*
X136452983Y-68500076D01*
X136452986Y-68500078D01*
X136540373Y-68546787D01*
X136556642Y-68553526D01*
X136585061Y-68565298D01*
X136585063Y-68565298D01*
X136585069Y-68565301D01*
X136679897Y-68594067D01*
X136739399Y-68605903D01*
X136748298Y-68607223D01*
X136788447Y-68613180D01*
X136788461Y-68613181D01*
X136788464Y-68613182D01*
X136812655Y-68615565D01*
X136862211Y-68618000D01*
X136862225Y-68618000D01*
X137676299Y-68618000D01*
X137743338Y-68637685D01*
X137789093Y-68690489D01*
X137798186Y-68745039D01*
X137800000Y-68745039D01*
X137800000Y-68898873D01*
X137828820Y-69043759D01*
X137828822Y-69043767D01*
X137874025Y-69152896D01*
X137881494Y-69222366D01*
X137857841Y-69275834D01*
X137824672Y-69319061D01*
X137764796Y-69463616D01*
X137764794Y-69463621D01*
X137749501Y-69579788D01*
X137749500Y-69579804D01*
X137749500Y-69845195D01*
X137749501Y-69845211D01*
X137764794Y-69961378D01*
X137764796Y-69961383D01*
X137815061Y-70082734D01*
X137816687Y-70090910D01*
X137819477Y-70095251D01*
X137824500Y-70130186D01*
X137824500Y-70245763D01*
X137822117Y-70269955D01*
X137799500Y-70383655D01*
X137799500Y-70541346D01*
X137830261Y-70695989D01*
X137830264Y-70696001D01*
X137877337Y-70809646D01*
X137884806Y-70879115D01*
X137880718Y-70895384D01*
X137876486Y-70908419D01*
X137867506Y-70923605D01*
X137832977Y-71042453D01*
X137832383Y-71044283D01*
X137813710Y-71071606D01*
X137795911Y-71099478D01*
X137794091Y-71100315D01*
X137792961Y-71101969D01*
X137762489Y-71114856D01*
X137732438Y-71128684D01*
X137730324Y-71128459D01*
X137728610Y-71129185D01*
X137715018Y-71126836D01*
X137671110Y-71122180D01*
X137627481Y-71105908D01*
X137627483Y-71105908D01*
X137567883Y-71099501D01*
X137567881Y-71099500D01*
X137567873Y-71099500D01*
X137567864Y-71099500D01*
X136472129Y-71099500D01*
X136472123Y-71099501D01*
X136412516Y-71105908D01*
X136277671Y-71156202D01*
X136277664Y-71156206D01*
X136162455Y-71242452D01*
X136119266Y-71300145D01*
X136063332Y-71342015D01*
X135993640Y-71346999D01*
X135932317Y-71313513D01*
X135920734Y-71300145D01*
X135885263Y-71252763D01*
X135877546Y-71242454D01*
X135877544Y-71242453D01*
X135877544Y-71242452D01*
X135762335Y-71156206D01*
X135762328Y-71156202D01*
X135627482Y-71105908D01*
X135627483Y-71105908D01*
X135567883Y-71099501D01*
X135567881Y-71099500D01*
X135567873Y-71099500D01*
X135567864Y-71099500D01*
X134472129Y-71099500D01*
X134472123Y-71099501D01*
X134412516Y-71105908D01*
X134380822Y-71117730D01*
X134311131Y-71122714D01*
X134290038Y-71116109D01*
X134203501Y-71080264D01*
X134203489Y-71080261D01*
X134048845Y-71049500D01*
X134048842Y-71049500D01*
X133919096Y-71049500D01*
X133852057Y-71029815D01*
X133806302Y-70977011D01*
X133796358Y-70907853D01*
X133825383Y-70844297D01*
X133831415Y-70837819D01*
X133973245Y-70695989D01*
X134118506Y-70550728D01*
X134118511Y-70550724D01*
X134128714Y-70540520D01*
X134128716Y-70540520D01*
X134240520Y-70428716D01*
X134319577Y-70291784D01*
X134360500Y-70139057D01*
X134360500Y-67367403D01*
X134380185Y-67300364D01*
X134386124Y-67291917D01*
X134392430Y-67283697D01*
X134482856Y-67165853D01*
X134540719Y-67026159D01*
X134555500Y-66913887D01*
X134555499Y-66435097D01*
X134575183Y-66368059D01*
X134591818Y-66347417D01*
X134708306Y-66230929D01*
X134880520Y-66058716D01*
X134959577Y-65921784D01*
X135000501Y-65769057D01*
X135000501Y-65610942D01*
X135000501Y-65603347D01*
X135000500Y-65603329D01*
X135000500Y-64154500D01*
X135020185Y-64087461D01*
X135072989Y-64041706D01*
X135124500Y-64030500D01*
X135484682Y-64030500D01*
X135484690Y-64030500D01*
X135520993Y-64027643D01*
X135640904Y-63992805D01*
X135710774Y-63993004D01*
G37*
%TD.AperFunction*%
%TA.AperFunction,Conductor*%
G36*
X138962131Y-68584801D02*
G01*
X138997783Y-68644890D01*
X138995289Y-68714715D01*
X138965317Y-68763237D01*
X138903554Y-68825000D01*
X138908006Y-68829452D01*
X138941491Y-68890775D01*
X138936507Y-68960467D01*
X138894635Y-69016400D01*
X138858808Y-69035010D01*
X138847888Y-69038574D01*
X138838620Y-69039795D01*
X138818041Y-69048318D01*
X138813483Y-69049807D01*
X138783155Y-69050715D01*
X138752979Y-69053959D01*
X138745751Y-69051836D01*
X138743644Y-69051900D01*
X138741426Y-69050567D01*
X138727551Y-69046493D01*
X138720950Y-69043759D01*
X138711380Y-69039795D01*
X138681673Y-69035884D01*
X138628262Y-69028852D01*
X138564366Y-69000585D01*
X138525895Y-68942260D01*
X138525667Y-68923160D01*
X138530109Y-68925000D01*
X138569891Y-68925000D01*
X138606645Y-68909776D01*
X138634776Y-68881645D01*
X138650000Y-68844891D01*
X138650000Y-68805109D01*
X138634776Y-68768355D01*
X138606645Y-68740224D01*
X138569891Y-68725000D01*
X138530109Y-68725000D01*
X138526422Y-68726526D01*
X138528266Y-68700752D01*
X138570138Y-68644819D01*
X138628261Y-68621147D01*
X138711380Y-68610205D01*
X138830184Y-68560994D01*
X138899651Y-68553526D01*
X138962131Y-68584801D01*
G37*
%TD.AperFunction*%
%TD*%
%TA.AperFunction,Conductor*%
%TO.N,VBUS*%
G36*
X138311922Y-66732185D02*
G01*
X138357677Y-66784989D01*
X138367621Y-66854147D01*
X138366500Y-66860692D01*
X138349500Y-66946155D01*
X138349500Y-67103846D01*
X138380261Y-67258489D01*
X138380264Y-67258501D01*
X138440602Y-67404172D01*
X138440608Y-67404183D01*
X138460581Y-67434075D01*
X138461914Y-67438333D01*
X138465130Y-67441426D01*
X138472259Y-67471374D01*
X138481458Y-67500753D01*
X138480567Y-67506274D01*
X138481311Y-67509396D01*
X138476966Y-67528617D01*
X138474483Y-67544023D01*
X138473342Y-67547273D01*
X138414795Y-67688620D01*
X138409422Y-67729427D01*
X138405166Y-67741558D01*
X138391977Y-67759911D01*
X138382833Y-67780583D01*
X138371979Y-67787741D01*
X138364394Y-67798298D01*
X138343375Y-67806608D01*
X138324508Y-67819053D01*
X138304204Y-67822095D01*
X138299419Y-67823988D01*
X138296033Y-67823320D01*
X138288164Y-67824500D01*
X138252131Y-67824500D01*
X138252123Y-67824501D01*
X138192516Y-67830908D01*
X138057671Y-67881202D01*
X138057664Y-67881206D01*
X137942455Y-67967452D01*
X137942452Y-67967455D01*
X137871069Y-68062811D01*
X137815136Y-68104682D01*
X137771803Y-68112500D01*
X136862211Y-68112500D01*
X136838020Y-68110117D01*
X136823189Y-68107167D01*
X136778518Y-68098281D01*
X136733822Y-68079767D01*
X136693727Y-68052977D01*
X136659522Y-68018772D01*
X136632730Y-67978675D01*
X136614218Y-67933980D01*
X136602383Y-67874480D01*
X136600000Y-67850289D01*
X136600000Y-66974710D01*
X136602383Y-66950519D01*
X136614218Y-66891019D01*
X136632729Y-66846326D01*
X136659524Y-66806224D01*
X136693724Y-66772024D01*
X136733826Y-66745229D01*
X136778514Y-66726719D01*
X136838028Y-66714881D01*
X136862211Y-66712500D01*
X138244883Y-66712500D01*
X138311922Y-66732185D01*
G37*
%TD.AperFunction*%
%TD*%
%TA.AperFunction,Conductor*%
%TO.N,+1V1*%
G36*
X133919096Y-71555000D02*
G01*
X133997921Y-71555000D01*
X134000164Y-71555221D01*
X134054938Y-71566115D01*
X134057093Y-71566768D01*
X134096591Y-71583130D01*
X134138980Y-71598511D01*
X134160073Y-71605116D01*
X134203676Y-71616661D01*
X134347190Y-71626926D01*
X134416881Y-71621942D01*
X134416894Y-71621941D01*
X134489820Y-71606074D01*
X134491008Y-71605882D01*
X134497168Y-71605220D01*
X134498611Y-71605066D01*
X134499837Y-71605000D01*
X135461863Y-71605000D01*
X135469995Y-71608368D01*
X135471425Y-71610111D01*
X135499699Y-71652427D01*
X135501416Y-71656572D01*
X135519779Y-71748888D01*
X135520000Y-71751132D01*
X135520000Y-73200000D01*
X135552937Y-73257641D01*
X135552939Y-73257644D01*
X135686692Y-73491711D01*
X135687346Y-73493052D01*
X135711055Y-73550835D01*
X135711819Y-73553712D01*
X135719403Y-73611816D01*
X135719500Y-73613304D01*
X135719500Y-74301380D01*
X135719279Y-74303624D01*
X135701416Y-74393427D01*
X135699699Y-74397572D01*
X135648047Y-74474874D01*
X135644874Y-74478047D01*
X135567572Y-74529699D01*
X135563427Y-74531416D01*
X135471111Y-74549779D01*
X135468867Y-74550000D01*
X134720712Y-74550000D01*
X134718545Y-74549794D01*
X134629242Y-74532656D01*
X134625215Y-74531051D01*
X134548602Y-74482076D01*
X134546887Y-74480735D01*
X134540700Y-74474874D01*
X133748915Y-73724761D01*
X133747394Y-73722995D01*
X133691700Y-73643193D01*
X133689866Y-73638931D01*
X133684588Y-73613304D01*
X133672316Y-73553712D01*
X133670236Y-73543612D01*
X133670000Y-73541292D01*
X133670000Y-71751132D01*
X133670221Y-71748889D01*
X133670502Y-71747471D01*
X133688584Y-71656570D01*
X133690298Y-71652430D01*
X133741952Y-71575124D01*
X133745125Y-71571952D01*
X133770165Y-71555221D01*
X133793145Y-71539865D01*
X133801170Y-71538045D01*
X133919096Y-71555000D01*
G37*
%TD.AperFunction*%
%TD*%
M02*
