%TF.GenerationSoftware,KiCad,Pcbnew,9.0.7*%
%TF.CreationDate,2026-03-05T22:31:15+08:00*%
%TF.ProjectId,pumper,70756d70-6572-42e6-9b69-6361645f7063,rev?*%
%TF.SameCoordinates,Original*%
%TF.FileFunction,Copper,L3,Inr*%
%TF.FilePolarity,Positive*%
%FSLAX46Y46*%
G04 Gerber Fmt 4.6, Leading zero omitted, Abs format (unit mm)*
G04 Created by KiCad (PCBNEW 9.0.7) date 2026-03-05 22:31:15*
%MOMM*%
%LPD*%
G01*
G04 APERTURE LIST*
%TA.AperFunction,ComponentPad*%
%ADD10C,0.700000*%
%TD*%
%TA.AperFunction,ComponentPad*%
%ADD11C,4.400000*%
%TD*%
%TA.AperFunction,ComponentPad*%
%ADD12C,0.300000*%
%TD*%
%TA.AperFunction,HeatsinkPad*%
%ADD13C,0.500000*%
%TD*%
%TA.AperFunction,ComponentPad*%
%ADD14R,1.950000X1.950000*%
%TD*%
%TA.AperFunction,ComponentPad*%
%ADD15C,1.950000*%
%TD*%
%TA.AperFunction,ComponentPad*%
%ADD16C,3.300000*%
%TD*%
%TA.AperFunction,ComponentPad*%
%ADD17C,0.600000*%
%TD*%
%TA.AperFunction,ComponentPad*%
%ADD18O,1.300000X2.300000*%
%TD*%
%TA.AperFunction,ComponentPad*%
%ADD19O,1.300000X2.100000*%
%TD*%
%TA.AperFunction,ComponentPad*%
%ADD20C,0.500000*%
%TD*%
%TA.AperFunction,ViaPad*%
%ADD21C,0.600000*%
%TD*%
%TA.AperFunction,ViaPad*%
%ADD22C,0.450000*%
%TD*%
%TA.AperFunction,Conductor*%
%ADD23C,0.300000*%
%TD*%
%TA.AperFunction,Conductor*%
%ADD24C,0.400000*%
%TD*%
%TA.AperFunction,Conductor*%
%ADD25C,0.250000*%
%TD*%
%TA.AperFunction,Conductor*%
%ADD26C,0.200000*%
%TD*%
G04 APERTURE END LIST*
D10*
%TO.N,GND*%
%TO.C,H5*%
X123375000Y-143700000D03*
X123858274Y-142533274D03*
X123858274Y-144866726D03*
X125025000Y-142050000D03*
D11*
X125025000Y-143700000D03*
D10*
X125025000Y-145350000D03*
X126191726Y-142533274D03*
X126191726Y-144866726D03*
X126675000Y-143700000D03*
%TD*%
D12*
%TO.N,-4V5*%
%TO.C,U8*%
X130400000Y-132200000D03*
X130975000Y-131250000D03*
X129825000Y-131250000D03*
X130400000Y-130300000D03*
%TD*%
D13*
%TO.N,GND*%
%TO.C,U2*%
X125950000Y-99900000D03*
X127050000Y-99900000D03*
%TD*%
D10*
%TO.N,GND*%
%TO.C,H4*%
X151200000Y-56600000D03*
X151683274Y-55433274D03*
X151683274Y-57766726D03*
X152850000Y-54950000D03*
D11*
X152850000Y-56600000D03*
D10*
X152850000Y-58250000D03*
X154016726Y-55433274D03*
X154016726Y-57766726D03*
X154500000Y-56600000D03*
%TD*%
%TO.N,GND*%
%TO.C,H3*%
X123375000Y-56600000D03*
X123858274Y-55433274D03*
X123858274Y-57766726D03*
X125025000Y-54950000D03*
D11*
X125025000Y-56600000D03*
D10*
X125025000Y-58250000D03*
X126191726Y-55433274D03*
X126191726Y-57766726D03*
X126675000Y-56600000D03*
%TD*%
D13*
%TO.N,GND*%
%TO.C,U4*%
X132300000Y-79300000D03*
X132300000Y-80750000D03*
X132300000Y-82200000D03*
X133750000Y-79300000D03*
X133750000Y-80750000D03*
X133750000Y-82200000D03*
X135200000Y-79300000D03*
X135200000Y-80750000D03*
X135200000Y-82200000D03*
%TD*%
D10*
%TO.N,GND*%
%TO.C,H6*%
X151200000Y-143700000D03*
X151683274Y-142533274D03*
X151683274Y-144866726D03*
X152850000Y-142050000D03*
D11*
X152850000Y-143700000D03*
D10*
X152850000Y-145350000D03*
X154016726Y-142533274D03*
X154016726Y-144866726D03*
X154500000Y-143700000D03*
%TD*%
D14*
%TO.N,GND*%
%TO.C,VR1*%
X148050000Y-136900000D03*
D15*
%TO.N,/Audio processing/VOLOUTL*%
X145550000Y-136900000D03*
%TO.N,/Audio processing/1652OUTL*%
X148050000Y-66900000D03*
D14*
%TO.N,GND*%
X153050000Y-136900000D03*
D15*
%TO.N,/Audio processing/VOLOUTR*%
X150550000Y-136900000D03*
%TO.N,/Audio processing/1652OUTR*%
X153050000Y-66900000D03*
D16*
%TO.N,GND*%
X149300000Y-126900000D03*
X149300000Y-79400000D03*
%TD*%
D13*
%TO.N,GND*%
%TO.C,U1*%
X138550000Y-68825000D03*
X139650000Y-68825000D03*
%TD*%
D17*
%TO.N,GND*%
%TO.C,U3*%
X145728928Y-61279775D03*
X145728928Y-60279775D03*
X145728928Y-59279775D03*
%TD*%
D18*
%TO.N,GND*%
%TO.C,J1*%
X138380000Y-59870000D03*
D19*
X138380000Y-55670000D03*
D20*
X136050000Y-57050000D03*
X136050000Y-55050000D03*
X132050000Y-57050000D03*
X132050000Y-55050000D03*
D18*
X129720000Y-59870000D03*
D19*
X129720000Y-55670000D03*
%TD*%
D21*
%TO.N,GND*%
X149200000Y-144100000D03*
X149100000Y-141400000D03*
%TO.N,+3V3*%
X128700000Y-85300000D03*
%TO.N,/MCU/GP12*%
X130200000Y-85500000D03*
%TO.N,GND*%
X127500000Y-83400000D03*
%TO.N,/MCU/GP12*%
X143700000Y-141400000D03*
%TO.N,VBUS*%
X145500000Y-144000000D03*
X142600000Y-142800000D03*
%TO.N,GND*%
X145500000Y-141400000D03*
X144600000Y-144800000D03*
X140600000Y-122300000D03*
X125700000Y-123200000D03*
%TO.N,VBUS*%
X130400000Y-68500000D03*
X126250000Y-97400000D03*
X141668928Y-58749775D03*
D22*
%TO.N,GND*%
X122900000Y-68050000D03*
D21*
%TO.N,VBUS*%
X137000000Y-67712500D03*
X148450000Y-60410847D03*
X130800000Y-64400000D03*
X148450000Y-60410847D03*
X137000000Y-67112500D03*
%TO.N,+3V3*%
X128400000Y-81050000D03*
X139350000Y-70462500D03*
X139850000Y-76540000D03*
X139350000Y-82150000D03*
X128350000Y-76900000D03*
X137050000Y-89650000D03*
X138100000Y-85650000D03*
X138600000Y-70462500D03*
X132100000Y-76150000D03*
D22*
%TO.N,GND*%
X147000000Y-145800000D03*
D21*
X128200000Y-100800000D03*
X150378928Y-58459775D03*
D22*
X148500000Y-145800000D03*
D21*
X132000000Y-98600000D03*
X126500000Y-98309620D03*
X124700000Y-98900000D03*
X126300000Y-133250000D03*
X130425000Y-110900000D03*
X131424265Y-86924265D03*
D22*
X122900000Y-113050000D03*
X122900000Y-66550000D03*
D21*
X140600000Y-78300000D03*
X131100000Y-124680000D03*
D22*
X122900000Y-117550000D03*
X122900000Y-69550000D03*
D21*
X141200000Y-80150000D03*
D22*
X122900000Y-83050000D03*
X140000000Y-54500000D03*
D21*
X137200000Y-128000000D03*
D22*
X122900000Y-139850000D03*
X122900000Y-120550000D03*
X122900000Y-125050000D03*
D21*
X126500000Y-81950000D03*
X141040000Y-70076000D03*
X136800000Y-118300000D03*
X141818928Y-56779775D03*
D22*
X148900000Y-54500000D03*
D21*
X142100000Y-68800000D03*
D22*
X122900000Y-131050000D03*
X122900000Y-128050000D03*
X150000000Y-145800000D03*
D21*
X136535000Y-114450000D03*
D22*
X122900000Y-137050000D03*
D21*
X137820000Y-74700000D03*
X128425000Y-104600000D03*
D22*
X132000000Y-145800000D03*
D21*
X131100000Y-123780000D03*
X127700000Y-62500000D03*
D22*
X122900000Y-111550000D03*
X122900000Y-141350000D03*
X122900000Y-126550000D03*
X144500000Y-54500000D03*
D21*
X127700000Y-61600000D03*
X148587188Y-59389775D03*
D22*
X122900000Y-107050000D03*
D21*
X130500000Y-65700000D03*
X131300000Y-143450000D03*
D22*
X122900000Y-108550000D03*
X141500000Y-54500000D03*
D21*
X137820000Y-75400000D03*
X142939153Y-63700000D03*
D22*
X133500000Y-145800000D03*
X122900000Y-65050000D03*
X122900000Y-102550000D03*
X122900000Y-119050000D03*
D21*
X137300000Y-131550000D03*
D22*
X122900000Y-129550000D03*
D21*
X130600000Y-127750000D03*
D22*
X141300000Y-145800000D03*
X139900000Y-145800000D03*
X122900000Y-86050000D03*
X122900000Y-122050000D03*
D21*
X130000000Y-69500000D03*
X125450000Y-103650000D03*
X145239153Y-56300000D03*
X137430000Y-125185000D03*
X139150000Y-67025000D03*
D22*
X122900000Y-116050000D03*
X144300000Y-145800000D03*
D21*
X130950000Y-74450000D03*
D22*
X122900000Y-75550000D03*
X122900000Y-110050000D03*
X122900000Y-80050000D03*
D21*
X130900000Y-142000000D03*
X135400000Y-87800003D03*
X130900000Y-138000000D03*
X137235000Y-107900000D03*
X135250000Y-65150000D03*
X136800000Y-117400000D03*
D22*
X150400000Y-54500000D03*
D21*
X142400000Y-135350000D03*
X151539153Y-60400000D03*
X134429808Y-131125000D03*
D22*
X145600000Y-145800000D03*
X122900000Y-96550000D03*
X122900000Y-78550000D03*
D21*
X130600000Y-134750000D03*
D22*
X135000000Y-145800000D03*
X122900000Y-63550000D03*
X122900000Y-132550000D03*
X122900000Y-90550000D03*
X122900000Y-89050000D03*
D21*
X151008928Y-61279775D03*
D22*
X122900000Y-72550000D03*
X122900000Y-87550000D03*
D21*
X126730000Y-119285000D03*
X133550000Y-91050000D03*
X132325000Y-107900000D03*
X140788928Y-58749775D03*
D22*
X122900000Y-93550000D03*
X122900000Y-135550000D03*
D21*
X131315000Y-101830000D03*
D22*
X122900000Y-104050000D03*
X122900000Y-74050000D03*
D21*
X126500000Y-79950000D03*
X141200000Y-81150000D03*
X138200000Y-87000000D03*
X126450000Y-77900000D03*
D22*
X122900000Y-101050000D03*
X122900000Y-60550000D03*
D21*
X130500000Y-66800000D03*
X147428928Y-61979775D03*
D22*
X142800000Y-145800000D03*
X122900000Y-77050000D03*
X122900000Y-62050000D03*
D21*
X137175000Y-102062500D03*
X132700000Y-101800000D03*
D22*
X122900000Y-81550000D03*
D21*
X139949000Y-84538404D03*
D22*
X130600000Y-145800000D03*
D21*
X131525000Y-112950000D03*
D22*
X147400000Y-54500000D03*
X122900000Y-95050000D03*
X146000000Y-54500000D03*
X122900000Y-98050000D03*
X122900000Y-114550000D03*
X143000000Y-54500000D03*
X122900000Y-84550000D03*
X122900000Y-123550000D03*
X122900000Y-71050000D03*
X122900000Y-99550000D03*
X122900000Y-92050000D03*
D21*
X128400000Y-91300000D03*
D22*
X122900000Y-134050000D03*
X122900000Y-105550000D03*
X122900000Y-138550000D03*
D21*
X137820000Y-74000000D03*
%TO.N,-4V5*%
X135200000Y-127200000D03*
X147584664Y-58535511D03*
X128400000Y-122330000D03*
X141704187Y-57950550D03*
X143800000Y-101400000D03*
%TO.N,+4V5*%
X143682664Y-61159775D03*
X137100000Y-129950000D03*
X144139153Y-62579775D03*
X133800000Y-117300000D03*
X127400000Y-129550000D03*
X143024971Y-104400000D03*
X150318928Y-62229775D03*
%TO.N,+AUDIO_3V3*%
X129525000Y-102700000D03*
X137335000Y-112750000D03*
X129525000Y-108500000D03*
X126550000Y-101500000D03*
%TO.N,Net-(F1-Pad1)*%
X136450000Y-62300000D03*
%TO.N,+1V1*%
X139350000Y-79450000D03*
X133970000Y-72600000D03*
X128350000Y-79150000D03*
X133970000Y-71850000D03*
X133970000Y-73350000D03*
X133975735Y-86124265D03*
%TO.N,/MCU/SWCLK*%
X135400000Y-87000000D03*
%TO.N,/MCU/SWDIO*%
X135800000Y-88593655D03*
%TO.N,GP19*%
X141174265Y-82825735D03*
X139813278Y-83750000D03*
%TO.N,/Audio processing/1652OUTL*%
X131800000Y-117225000D03*
%TO.N,/Audio processing/1652OUTR*%
X136700000Y-119800000D03*
%TD*%
D23*
%TO.N,VBUS*%
X144300000Y-142800000D02*
X145500000Y-144000000D01*
X142600000Y-142800000D02*
X144300000Y-142800000D01*
X129700000Y-142800000D02*
X142600000Y-142800000D01*
X129100000Y-142200000D02*
X129700000Y-142800000D01*
X124700000Y-137800000D02*
X129100000Y-142200000D01*
X124700000Y-101600000D02*
X124700000Y-137800000D01*
X124700000Y-100229346D02*
X124700000Y-101600000D01*
X125400000Y-99529346D02*
X124700000Y-100229346D01*
X125400000Y-97250000D02*
X125400000Y-99529346D01*
X125750000Y-96900000D02*
X125400000Y-97250000D01*
D24*
X130900000Y-68000000D02*
X130400000Y-68500000D01*
X130900000Y-67712500D02*
X130900000Y-68000000D01*
X131800000Y-67712500D02*
X130900000Y-67712500D01*
D25*
X137000000Y-67712500D02*
X137000000Y-67112500D01*
X131800000Y-65400000D02*
X131800000Y-67712500D01*
D24*
X130900000Y-67712500D02*
X128587500Y-67712500D01*
X131800000Y-67712500D02*
X137000000Y-67712500D01*
D25*
X130800000Y-64400000D02*
X131800000Y-65400000D01*
D24*
X141668928Y-58749775D02*
X141668928Y-60100000D01*
X128587500Y-67712500D02*
X125750000Y-70550000D01*
X137087500Y-67112500D02*
X137000000Y-67112500D01*
X141668928Y-62531072D02*
X137087500Y-67112500D01*
X141668928Y-60100000D02*
X141668928Y-62531072D01*
X146617928Y-58578775D02*
X148450000Y-60410847D01*
D23*
X148450000Y-60410847D02*
X148450000Y-60321501D01*
D24*
X141668928Y-60100000D02*
X143190153Y-58578775D01*
X125750000Y-96900000D02*
X126250000Y-97400000D01*
X125750000Y-70550000D02*
X125750000Y-96900000D01*
D23*
X141789928Y-58628775D02*
X141668928Y-58749775D01*
D24*
X143190153Y-58578775D02*
X146617928Y-58578775D01*
%TO.N,-4V5*%
X143724971Y-65924971D02*
X143724971Y-117175029D01*
X143701000Y-117248942D02*
X138619942Y-122330000D01*
X138619942Y-122330000D02*
X128400000Y-122330000D01*
X135200000Y-125749942D02*
X135200000Y-127200000D01*
X143724971Y-117175029D02*
X143701000Y-117199000D01*
X147025126Y-57975973D02*
X148675973Y-57975973D01*
X143701000Y-117199000D02*
X143701000Y-117248942D01*
X144740153Y-64059847D02*
X144740153Y-64909789D01*
X138619942Y-122330000D02*
X135200000Y-125749942D01*
X148675973Y-57975973D02*
X150399000Y-59699000D01*
X152300000Y-60000000D02*
X152300000Y-61240067D01*
X147025126Y-57950550D02*
X147025126Y-57975973D01*
X147025126Y-57975973D02*
X147584664Y-58535511D01*
X145200000Y-63600000D02*
X144740153Y-64059847D01*
X150399000Y-59699000D02*
X151999000Y-59699000D01*
X149940067Y-63600000D02*
X145200000Y-63600000D01*
X141704187Y-57950550D02*
X147025126Y-57950550D01*
X144740153Y-64909789D02*
X143724971Y-65924971D01*
X151999000Y-59699000D02*
X152300000Y-60000000D01*
X152300000Y-61240067D02*
X149940067Y-63600000D01*
%TO.N,+4V5*%
X132600000Y-116100000D02*
X133800000Y-117300000D01*
X129800000Y-116100000D02*
X132600000Y-116100000D01*
X149618928Y-62881072D02*
X144700000Y-62881072D01*
X150270225Y-62229775D02*
X149618928Y-62881072D01*
X144139153Y-64660847D02*
X143100000Y-65700000D01*
D26*
X143628928Y-61207414D02*
X143676567Y-61159775D01*
D24*
X150318928Y-62229775D02*
X150270225Y-62229775D01*
X127400000Y-129550000D02*
X127431000Y-129519000D01*
D26*
X144028928Y-62579775D02*
X143628928Y-62179775D01*
D24*
X141099000Y-119001000D02*
X135501000Y-119001000D01*
X144139153Y-62579775D02*
X144139153Y-64660847D01*
D26*
X143628928Y-62179775D02*
X143628928Y-61207414D01*
D24*
X135501000Y-119001000D02*
X133800000Y-117300000D01*
X136700000Y-129550000D02*
X127400000Y-129550000D01*
X144700000Y-62881072D02*
X144440450Y-62881072D01*
X127431000Y-128700000D02*
X127431000Y-118469000D01*
X143100000Y-117000000D02*
X141099000Y-119001000D01*
X144440450Y-62881072D02*
X144139153Y-62579775D01*
D26*
X150318928Y-62229775D02*
X150318928Y-62289775D01*
X143676567Y-61159775D02*
X143682664Y-61159775D01*
D24*
X136700000Y-129550000D02*
X137100000Y-129950000D01*
D25*
X144139153Y-62579775D02*
X144165153Y-62605775D01*
X137100000Y-129950000D02*
X137100000Y-129900000D01*
D24*
X127431000Y-118469000D02*
X129800000Y-116100000D01*
X143100000Y-65700000D02*
X143100000Y-117000000D01*
X127431000Y-129519000D02*
X127431000Y-128700000D01*
D23*
%TO.N,+AUDIO_3V3*%
X137335000Y-109160000D02*
X135225000Y-107050000D01*
X129525000Y-102325000D02*
X128700000Y-101500000D01*
X129525000Y-105550000D02*
X129525000Y-105350000D01*
X137335000Y-112750000D02*
X137335000Y-109160000D01*
X129587500Y-108562500D02*
X129525000Y-108500000D01*
X131025000Y-107050000D02*
X129525000Y-105550000D01*
X129525000Y-105350000D02*
X129525000Y-102700000D01*
X129545000Y-102680000D02*
X129525000Y-102700000D01*
X129525000Y-102700000D02*
X129525000Y-102325000D01*
X129525000Y-105350000D02*
X129525000Y-108500000D01*
X128700000Y-101500000D02*
X126550000Y-101500000D01*
X135225000Y-107050000D02*
X131025000Y-107050000D01*
%TO.N,+1V1*%
X139420000Y-79520000D02*
X139350000Y-79450000D01*
X134161470Y-86310000D02*
X133975735Y-86124265D01*
X142262489Y-84727511D02*
X140680000Y-86310000D01*
X141466000Y-69426000D02*
X141690000Y-69650000D01*
X141690000Y-78770000D02*
X140940000Y-79520000D01*
X128350000Y-79150000D02*
X127300000Y-78100000D01*
X140940000Y-79520000D02*
X139420000Y-79520000D01*
X133970000Y-71850000D02*
X133970000Y-73350000D01*
X127300000Y-78100000D02*
X127300000Y-71380000D01*
X133970000Y-71350000D02*
X133970000Y-71850000D01*
X133300000Y-70680000D02*
X133970000Y-71350000D01*
X127300000Y-71380000D02*
X128000000Y-70680000D01*
X136394000Y-69426000D02*
X141466000Y-69426000D01*
X141690000Y-78770000D02*
X142262489Y-79342489D01*
X140680000Y-86310000D02*
X134161470Y-86310000D01*
X128000000Y-70680000D02*
X133300000Y-70680000D01*
X142262489Y-79342489D02*
X142262489Y-84727511D01*
X133970000Y-71850000D02*
X136394000Y-69426000D01*
X141690000Y-69650000D02*
X141690000Y-78770000D01*
%TD*%
%TA.AperFunction,Conductor*%
%TO.N,+3V3*%
G36*
X140152617Y-70085445D02*
G01*
X140183511Y-70092746D01*
X140185895Y-70095217D01*
X140189191Y-70096185D01*
X140209980Y-70120177D01*
X140232027Y-70143025D01*
X140233571Y-70147402D01*
X140234946Y-70148989D01*
X140243769Y-70176308D01*
X140270261Y-70309491D01*
X140270264Y-70309501D01*
X140330602Y-70455172D01*
X140330609Y-70455185D01*
X140418210Y-70586288D01*
X140418213Y-70586292D01*
X140529707Y-70697786D01*
X140529711Y-70697789D01*
X140660814Y-70785390D01*
X140660827Y-70785397D01*
X140770082Y-70830651D01*
X140806503Y-70845737D01*
X140850192Y-70854427D01*
X140912101Y-70886811D01*
X140946676Y-70947526D01*
X140950000Y-70976044D01*
X140950000Y-77402342D01*
X140930315Y-77469381D01*
X140877511Y-77515136D01*
X140808353Y-77525080D01*
X140801809Y-77523959D01*
X140678845Y-77499500D01*
X140678842Y-77499500D01*
X140521158Y-77499500D01*
X140521155Y-77499500D01*
X140366510Y-77530261D01*
X140366498Y-77530264D01*
X140220827Y-77590602D01*
X140220814Y-77590609D01*
X140089711Y-77678210D01*
X140089707Y-77678213D01*
X139978213Y-77789707D01*
X139978210Y-77789711D01*
X139890609Y-77920814D01*
X139890602Y-77920827D01*
X139830264Y-78066498D01*
X139830261Y-78066510D01*
X139799500Y-78221153D01*
X139799500Y-78378846D01*
X139830261Y-78533489D01*
X139830263Y-78533496D01*
X139840192Y-78557468D01*
X139847659Y-78626937D01*
X139816384Y-78689416D01*
X139756294Y-78725068D01*
X139686469Y-78722573D01*
X139678178Y-78719480D01*
X139583501Y-78680264D01*
X139583489Y-78680261D01*
X139428845Y-78649500D01*
X139428842Y-78649500D01*
X139271158Y-78649500D01*
X139271155Y-78649500D01*
X139116510Y-78680261D01*
X139116498Y-78680264D01*
X138970827Y-78740602D01*
X138970814Y-78740609D01*
X138839711Y-78828210D01*
X138839707Y-78828213D01*
X138728213Y-78939707D01*
X138728210Y-78939711D01*
X138640609Y-79070814D01*
X138640602Y-79070827D01*
X138580264Y-79216498D01*
X138580261Y-79216510D01*
X138549500Y-79371153D01*
X138549500Y-79528846D01*
X138580261Y-79683489D01*
X138580264Y-79683501D01*
X138640602Y-79829172D01*
X138640609Y-79829185D01*
X138728210Y-79960288D01*
X138728213Y-79960292D01*
X138839707Y-80071786D01*
X138839711Y-80071789D01*
X138970814Y-80159390D01*
X138970827Y-80159397D01*
X139116498Y-80219735D01*
X139116503Y-80219737D01*
X139233398Y-80242989D01*
X139271153Y-80250499D01*
X139271156Y-80250500D01*
X139271158Y-80250500D01*
X139428844Y-80250500D01*
X139428845Y-80250499D01*
X139505152Y-80235320D01*
X139583488Y-80219739D01*
X139583490Y-80219738D01*
X139583497Y-80219737D01*
X139679579Y-80179939D01*
X139727031Y-80170500D01*
X140286131Y-80170500D01*
X140353170Y-80190185D01*
X140398925Y-80242989D01*
X140407748Y-80270309D01*
X140430261Y-80383489D01*
X140430264Y-80383501D01*
X140490602Y-80529172D01*
X140490609Y-80529185D01*
X140525304Y-80581109D01*
X140546182Y-80647786D01*
X140527698Y-80715167D01*
X140525304Y-80718891D01*
X140490609Y-80770814D01*
X140490602Y-80770827D01*
X140430264Y-80916498D01*
X140430261Y-80916510D01*
X140399500Y-81071153D01*
X140399500Y-81228846D01*
X140430261Y-81383489D01*
X140430264Y-81383501D01*
X140490602Y-81529172D01*
X140490609Y-81529185D01*
X140578210Y-81660288D01*
X140578213Y-81660292D01*
X140689707Y-81771786D01*
X140689711Y-81771789D01*
X140820817Y-81859392D01*
X140820819Y-81859392D01*
X140820821Y-81859394D01*
X140841540Y-81867976D01*
X140895944Y-81911816D01*
X140918009Y-81978110D01*
X140900730Y-82045810D01*
X140849594Y-82093420D01*
X140841542Y-82097098D01*
X140795085Y-82116341D01*
X140795079Y-82116344D01*
X140663976Y-82203945D01*
X140663972Y-82203948D01*
X140552478Y-82315442D01*
X140552475Y-82315446D01*
X140464874Y-82446549D01*
X140464867Y-82446562D01*
X140404529Y-82592233D01*
X140404526Y-82592245D01*
X140373765Y-82746888D01*
X140373765Y-82746893D01*
X140373765Y-82904577D01*
X140373765Y-82904579D01*
X140373764Y-82904579D01*
X140374464Y-82908094D01*
X140374295Y-82909971D01*
X140374362Y-82910642D01*
X140374234Y-82910654D01*
X140368235Y-82977686D01*
X140325370Y-83032862D01*
X140259479Y-83056104D01*
X140198266Y-83042502D01*
X140198086Y-83042937D01*
X140195612Y-83041912D01*
X140194395Y-83041642D01*
X140192450Y-83040602D01*
X140046779Y-82980264D01*
X140046767Y-82980261D01*
X139892123Y-82949500D01*
X139892120Y-82949500D01*
X139734436Y-82949500D01*
X139734433Y-82949500D01*
X139579788Y-82980261D01*
X139579776Y-82980264D01*
X139434105Y-83040602D01*
X139434092Y-83040609D01*
X139302989Y-83128210D01*
X139302985Y-83128213D01*
X139191491Y-83239707D01*
X139191488Y-83239711D01*
X139103887Y-83370814D01*
X139103880Y-83370827D01*
X139043542Y-83516498D01*
X139043539Y-83516510D01*
X139012778Y-83671153D01*
X139012778Y-83828846D01*
X139043539Y-83983489D01*
X139043542Y-83983501D01*
X139103880Y-84129172D01*
X139103890Y-84129190D01*
X139160370Y-84213719D01*
X139181248Y-84280396D01*
X139178885Y-84306800D01*
X139148500Y-84459557D01*
X139148500Y-84617250D01*
X139179261Y-84771893D01*
X139179264Y-84771905D01*
X139239602Y-84917576D01*
X139239609Y-84917589D01*
X139327210Y-85048692D01*
X139327213Y-85048696D01*
X139438707Y-85160190D01*
X139438711Y-85160193D01*
X139569814Y-85247794D01*
X139569827Y-85247801D01*
X139715498Y-85308139D01*
X139715503Y-85308141D01*
X139870153Y-85338903D01*
X139870156Y-85338904D01*
X139870158Y-85338904D01*
X140027844Y-85338904D01*
X140027845Y-85338903D01*
X140182497Y-85308141D01*
X140328179Y-85247798D01*
X140459289Y-85160193D01*
X140570789Y-85048693D01*
X140658394Y-84917583D01*
X140674702Y-84878213D01*
X140711439Y-84789520D01*
X140755279Y-84735116D01*
X140821573Y-84713051D01*
X140889273Y-84730330D01*
X140936884Y-84781467D01*
X140950000Y-84836972D01*
X140950000Y-85068692D01*
X140930315Y-85135731D01*
X140913681Y-85156373D01*
X140446873Y-85623181D01*
X140385550Y-85656666D01*
X140359192Y-85659500D01*
X134693533Y-85659500D01*
X134626494Y-85639815D01*
X134602055Y-85618059D01*
X134601832Y-85618283D01*
X134597992Y-85614443D01*
X134597683Y-85614168D01*
X134597527Y-85613978D01*
X134486027Y-85502478D01*
X134486023Y-85502475D01*
X134354920Y-85414874D01*
X134354907Y-85414867D01*
X134209236Y-85354529D01*
X134209224Y-85354526D01*
X134054580Y-85323765D01*
X134054577Y-85323765D01*
X133896893Y-85323765D01*
X133896890Y-85323765D01*
X133742245Y-85354526D01*
X133742233Y-85354529D01*
X133596562Y-85414867D01*
X133596549Y-85414874D01*
X133465446Y-85502475D01*
X133465442Y-85502478D01*
X133353948Y-85613972D01*
X133353945Y-85613976D01*
X133266344Y-85745079D01*
X133266337Y-85745092D01*
X133205999Y-85890763D01*
X133205996Y-85890775D01*
X133175235Y-86045418D01*
X133175235Y-86203111D01*
X133205996Y-86357754D01*
X133205999Y-86357766D01*
X133266337Y-86503437D01*
X133266344Y-86503450D01*
X133353945Y-86634553D01*
X133353948Y-86634557D01*
X133465442Y-86746051D01*
X133465446Y-86746054D01*
X133596549Y-86833655D01*
X133596562Y-86833662D01*
X133724042Y-86886465D01*
X133742238Y-86894002D01*
X133896888Y-86924764D01*
X133896891Y-86924765D01*
X133896893Y-86924765D01*
X133921142Y-86924765D01*
X133968590Y-86934202D01*
X133971726Y-86935501D01*
X133971730Y-86935501D01*
X133971731Y-86935502D01*
X134097398Y-86960500D01*
X134097401Y-86960500D01*
X134475500Y-86960500D01*
X134542539Y-86980185D01*
X134588294Y-87032989D01*
X134596991Y-87072970D01*
X134598903Y-87072782D01*
X134599500Y-87078846D01*
X134630261Y-87233489D01*
X134630264Y-87233501D01*
X134679575Y-87352549D01*
X134687044Y-87422018D01*
X134679575Y-87447453D01*
X134630264Y-87566501D01*
X134630261Y-87566513D01*
X134599500Y-87721156D01*
X134599500Y-87878849D01*
X134630261Y-88033492D01*
X134630264Y-88033504D01*
X134690602Y-88179175D01*
X134690609Y-88179188D01*
X134778210Y-88310291D01*
X134778213Y-88310295D01*
X134889707Y-88421789D01*
X134889715Y-88421795D01*
X134944390Y-88458328D01*
X134989196Y-88511940D01*
X134999500Y-88561430D01*
X134999500Y-88672501D01*
X135030261Y-88827144D01*
X135030264Y-88827156D01*
X135090602Y-88972827D01*
X135090609Y-88972840D01*
X135178210Y-89103943D01*
X135178213Y-89103947D01*
X135289707Y-89215441D01*
X135289711Y-89215444D01*
X135420814Y-89303045D01*
X135420827Y-89303052D01*
X135566498Y-89363390D01*
X135566503Y-89363392D01*
X135721153Y-89394154D01*
X135721156Y-89394155D01*
X135721158Y-89394155D01*
X135878844Y-89394155D01*
X135878845Y-89394154D01*
X136033497Y-89363392D01*
X136179179Y-89303049D01*
X136310289Y-89215444D01*
X136421789Y-89103944D01*
X136509394Y-88972834D01*
X136569737Y-88827152D01*
X136600500Y-88672497D01*
X136600500Y-88514813D01*
X136600500Y-88514810D01*
X136600499Y-88514808D01*
X136569738Y-88360165D01*
X136569737Y-88360158D01*
X136549082Y-88310291D01*
X136509397Y-88214482D01*
X136509390Y-88214469D01*
X136421789Y-88083366D01*
X136421786Y-88083362D01*
X136310292Y-87971868D01*
X136255608Y-87935329D01*
X136210804Y-87881716D01*
X136200500Y-87832227D01*
X136200500Y-87721158D01*
X136200499Y-87721156D01*
X136183095Y-87633662D01*
X136169737Y-87566506D01*
X136120423Y-87447452D01*
X136112955Y-87377984D01*
X136120424Y-87352549D01*
X136169737Y-87233497D01*
X136200500Y-87078842D01*
X136200500Y-87078835D01*
X136201097Y-87072782D01*
X136203860Y-87073054D01*
X136220185Y-87017461D01*
X136272989Y-86971706D01*
X136324500Y-86960500D01*
X137275500Y-86960500D01*
X137342539Y-86980185D01*
X137388294Y-87032989D01*
X137396991Y-87072970D01*
X137398903Y-87072782D01*
X137399500Y-87078846D01*
X137430261Y-87233489D01*
X137430264Y-87233501D01*
X137490602Y-87379172D01*
X137490609Y-87379185D01*
X137578210Y-87510288D01*
X137578213Y-87510292D01*
X137689707Y-87621786D01*
X137689711Y-87621789D01*
X137820814Y-87709390D01*
X137820827Y-87709397D01*
X137966498Y-87769735D01*
X137966503Y-87769737D01*
X138121153Y-87800499D01*
X138121156Y-87800500D01*
X138121158Y-87800500D01*
X138278844Y-87800500D01*
X138278845Y-87800499D01*
X138433497Y-87769737D01*
X138579179Y-87709394D01*
X138710289Y-87621789D01*
X138821789Y-87510289D01*
X138909394Y-87379179D01*
X138969737Y-87233497D01*
X139000500Y-87078842D01*
X139000500Y-87078835D01*
X139001097Y-87072782D01*
X139003860Y-87073054D01*
X139020185Y-87017461D01*
X139072989Y-86971706D01*
X139124500Y-86960500D01*
X140744071Y-86960500D01*
X140801808Y-86949015D01*
X140871400Y-86955242D01*
X140926577Y-86998104D01*
X140949822Y-87063994D01*
X140950000Y-87070632D01*
X140950000Y-90087789D01*
X140947617Y-90111980D01*
X140947617Y-90111982D01*
X140935781Y-90171482D01*
X140917267Y-90216179D01*
X140890481Y-90256268D01*
X140856269Y-90290479D01*
X140821975Y-90313394D01*
X140816179Y-90317267D01*
X140771482Y-90335781D01*
X140747453Y-90340561D01*
X140711978Y-90347617D01*
X140687789Y-90350000D01*
X133976524Y-90350000D01*
X133929072Y-90340561D01*
X133783501Y-90280264D01*
X133783489Y-90280261D01*
X133628845Y-90249500D01*
X133628842Y-90249500D01*
X133471158Y-90249500D01*
X133471155Y-90249500D01*
X133316510Y-90280261D01*
X133316498Y-90280264D01*
X133170928Y-90340561D01*
X133123476Y-90350000D01*
X128212211Y-90350000D01*
X128188020Y-90347617D01*
X128173189Y-90344667D01*
X128128518Y-90335781D01*
X128083822Y-90317267D01*
X128043727Y-90290477D01*
X128009522Y-90256272D01*
X127982730Y-90216175D01*
X127964218Y-90171480D01*
X127952383Y-90111980D01*
X127950000Y-90087789D01*
X127950000Y-86845418D01*
X130623765Y-86845418D01*
X130623765Y-87003111D01*
X130654526Y-87157754D01*
X130654529Y-87157766D01*
X130714867Y-87303437D01*
X130714874Y-87303450D01*
X130802475Y-87434553D01*
X130802478Y-87434557D01*
X130913972Y-87546051D01*
X130913976Y-87546054D01*
X131045079Y-87633655D01*
X131045092Y-87633662D01*
X131190763Y-87694000D01*
X131190768Y-87694002D01*
X131327290Y-87721158D01*
X131345418Y-87724764D01*
X131345421Y-87724765D01*
X131345423Y-87724765D01*
X131503109Y-87724765D01*
X131503110Y-87724764D01*
X131657762Y-87694002D01*
X131803444Y-87633659D01*
X131934554Y-87546054D01*
X132046054Y-87434554D01*
X132133659Y-87303444D01*
X132194002Y-87157762D01*
X132224765Y-87003107D01*
X132224765Y-86845423D01*
X132224765Y-86845420D01*
X132224764Y-86845418D01*
X132222424Y-86833655D01*
X132194002Y-86690768D01*
X132170717Y-86634553D01*
X132133662Y-86545092D01*
X132133655Y-86545079D01*
X132046054Y-86413976D01*
X132046051Y-86413972D01*
X131934557Y-86302478D01*
X131934553Y-86302475D01*
X131803450Y-86214874D01*
X131803437Y-86214867D01*
X131657766Y-86154529D01*
X131657754Y-86154526D01*
X131503110Y-86123765D01*
X131503107Y-86123765D01*
X131345423Y-86123765D01*
X131345420Y-86123765D01*
X131190775Y-86154526D01*
X131190763Y-86154529D01*
X131045092Y-86214867D01*
X131045079Y-86214874D01*
X130913976Y-86302475D01*
X130913972Y-86302478D01*
X130802478Y-86413972D01*
X130802475Y-86413976D01*
X130714874Y-86545079D01*
X130714867Y-86545092D01*
X130654529Y-86690763D01*
X130654526Y-86690775D01*
X130623765Y-86845418D01*
X127950000Y-86845418D01*
X127950000Y-85421153D01*
X129399500Y-85421153D01*
X129399500Y-85578846D01*
X129430261Y-85733489D01*
X129430264Y-85733501D01*
X129490602Y-85879172D01*
X129490609Y-85879185D01*
X129578210Y-86010288D01*
X129578213Y-86010292D01*
X129689707Y-86121786D01*
X129689711Y-86121789D01*
X129820814Y-86209390D01*
X129820827Y-86209397D01*
X129966498Y-86269735D01*
X129966503Y-86269737D01*
X130121153Y-86300499D01*
X130121156Y-86300500D01*
X130121158Y-86300500D01*
X130278844Y-86300500D01*
X130278845Y-86300499D01*
X130433497Y-86269737D01*
X130579179Y-86209394D01*
X130710289Y-86121789D01*
X130821789Y-86010289D01*
X130909394Y-85879179D01*
X130969737Y-85733497D01*
X131000500Y-85578842D01*
X131000500Y-85421158D01*
X131000500Y-85421155D01*
X131000499Y-85421153D01*
X130999249Y-85414867D01*
X130969737Y-85266503D01*
X130969735Y-85266498D01*
X130909397Y-85120827D01*
X130909390Y-85120814D01*
X130821789Y-84989711D01*
X130821786Y-84989707D01*
X130710292Y-84878213D01*
X130710288Y-84878210D01*
X130579185Y-84790609D01*
X130579172Y-84790602D01*
X130433501Y-84730264D01*
X130433489Y-84730261D01*
X130278845Y-84699500D01*
X130278842Y-84699500D01*
X130121158Y-84699500D01*
X130121155Y-84699500D01*
X129966510Y-84730261D01*
X129966498Y-84730264D01*
X129820827Y-84790602D01*
X129820814Y-84790609D01*
X129689711Y-84878210D01*
X129689707Y-84878213D01*
X129578213Y-84989707D01*
X129578210Y-84989711D01*
X129490609Y-85120814D01*
X129490602Y-85120827D01*
X129430264Y-85266498D01*
X129430261Y-85266510D01*
X129399500Y-85421153D01*
X127950000Y-85421153D01*
X127950000Y-84128351D01*
X127969685Y-84061312D01*
X128005111Y-84025248D01*
X128010289Y-84021789D01*
X128121789Y-83910289D01*
X128209394Y-83779179D01*
X128269737Y-83633497D01*
X128300500Y-83478842D01*
X128300500Y-83321158D01*
X128300500Y-83321155D01*
X128300499Y-83321153D01*
X128269738Y-83166510D01*
X128269737Y-83166503D01*
X128253876Y-83128210D01*
X128209397Y-83020827D01*
X128209390Y-83020814D01*
X128121789Y-82889711D01*
X128121786Y-82889707D01*
X128010292Y-82778213D01*
X128010287Y-82778209D01*
X128005106Y-82774747D01*
X127960302Y-82721133D01*
X127950000Y-82671647D01*
X127950000Y-80036348D01*
X127969685Y-79969309D01*
X128022489Y-79923554D01*
X128091647Y-79913610D01*
X128110434Y-79918766D01*
X128110676Y-79917969D01*
X128116492Y-79919732D01*
X128116503Y-79919737D01*
X128229120Y-79942138D01*
X128271153Y-79950499D01*
X128271156Y-79950500D01*
X128271158Y-79950500D01*
X128428844Y-79950500D01*
X128428845Y-79950499D01*
X128583497Y-79919737D01*
X128729179Y-79859394D01*
X128860289Y-79771789D01*
X128971789Y-79660289D01*
X129059394Y-79529179D01*
X129119737Y-79383497D01*
X129121642Y-79373920D01*
X131549499Y-79373920D01*
X131578340Y-79518907D01*
X131578343Y-79518917D01*
X131634912Y-79655488D01*
X131634919Y-79655501D01*
X131717048Y-79778415D01*
X131717051Y-79778419D01*
X131821580Y-79882948D01*
X131821584Y-79882951D01*
X131879871Y-79921898D01*
X131924676Y-79975511D01*
X131933383Y-80044836D01*
X131903228Y-80107863D01*
X131879871Y-80128102D01*
X131821584Y-80167048D01*
X131821580Y-80167051D01*
X131717051Y-80271580D01*
X131717048Y-80271584D01*
X131634919Y-80394498D01*
X131634912Y-80394511D01*
X131578343Y-80531082D01*
X131578340Y-80531092D01*
X131549500Y-80676079D01*
X131549500Y-80676082D01*
X131549500Y-80823918D01*
X131549500Y-80823920D01*
X131549499Y-80823920D01*
X131578340Y-80968907D01*
X131578343Y-80968917D01*
X131634912Y-81105488D01*
X131634919Y-81105501D01*
X131717048Y-81228415D01*
X131717051Y-81228419D01*
X131821580Y-81332948D01*
X131821584Y-81332951D01*
X131879871Y-81371898D01*
X131924676Y-81425511D01*
X131933383Y-81494836D01*
X131903228Y-81557863D01*
X131879871Y-81578102D01*
X131821584Y-81617048D01*
X131821580Y-81617051D01*
X131717051Y-81721580D01*
X131717048Y-81721584D01*
X131634919Y-81844498D01*
X131634912Y-81844511D01*
X131578343Y-81981082D01*
X131578340Y-81981092D01*
X131549500Y-82126079D01*
X131549500Y-82126082D01*
X131549500Y-82273918D01*
X131549500Y-82273920D01*
X131549499Y-82273920D01*
X131578340Y-82418907D01*
X131578343Y-82418917D01*
X131634912Y-82555488D01*
X131634919Y-82555501D01*
X131717048Y-82678415D01*
X131717051Y-82678419D01*
X131821580Y-82782948D01*
X131821584Y-82782951D01*
X131944498Y-82865080D01*
X131944511Y-82865087D01*
X132052872Y-82909971D01*
X132081087Y-82921658D01*
X132081091Y-82921658D01*
X132081092Y-82921659D01*
X132226079Y-82950500D01*
X132226082Y-82950500D01*
X132373920Y-82950500D01*
X132471462Y-82931096D01*
X132518913Y-82921658D01*
X132655495Y-82865084D01*
X132778416Y-82782951D01*
X132882951Y-82678416D01*
X132921898Y-82620128D01*
X132975510Y-82575323D01*
X133044835Y-82566616D01*
X133107862Y-82596770D01*
X133128102Y-82620128D01*
X133167048Y-82678416D01*
X133271580Y-82782948D01*
X133271584Y-82782951D01*
X133394498Y-82865080D01*
X133394511Y-82865087D01*
X133502872Y-82909971D01*
X133531087Y-82921658D01*
X133531091Y-82921658D01*
X133531092Y-82921659D01*
X133676079Y-82950500D01*
X133676082Y-82950500D01*
X133823920Y-82950500D01*
X133921462Y-82931096D01*
X133968913Y-82921658D01*
X134105495Y-82865084D01*
X134228416Y-82782951D01*
X134332951Y-82678416D01*
X134371898Y-82620128D01*
X134425510Y-82575323D01*
X134494835Y-82566616D01*
X134557862Y-82596770D01*
X134578102Y-82620128D01*
X134617048Y-82678416D01*
X134721580Y-82782948D01*
X134721584Y-82782951D01*
X134844498Y-82865080D01*
X134844511Y-82865087D01*
X134952872Y-82909971D01*
X134981087Y-82921658D01*
X134981091Y-82921658D01*
X134981092Y-82921659D01*
X135126079Y-82950500D01*
X135126082Y-82950500D01*
X135273920Y-82950500D01*
X135371462Y-82931096D01*
X135418913Y-82921658D01*
X135555495Y-82865084D01*
X135678416Y-82782951D01*
X135782951Y-82678416D01*
X135865084Y-82555495D01*
X135921658Y-82418913D01*
X135931096Y-82371462D01*
X135950500Y-82273920D01*
X135950500Y-82126079D01*
X135921659Y-81981092D01*
X135921658Y-81981091D01*
X135921658Y-81981087D01*
X135920425Y-81978110D01*
X135865087Y-81844511D01*
X135865080Y-81844498D01*
X135782951Y-81721584D01*
X135782948Y-81721580D01*
X135678416Y-81617048D01*
X135620128Y-81578102D01*
X135575323Y-81524490D01*
X135566616Y-81455165D01*
X135596770Y-81392138D01*
X135620128Y-81371898D01*
X135678416Y-81332951D01*
X135782948Y-81228419D01*
X135782951Y-81228416D01*
X135865084Y-81105495D01*
X135921658Y-80968913D01*
X135950500Y-80823918D01*
X135950500Y-80676082D01*
X135950500Y-80676079D01*
X135921659Y-80531092D01*
X135921658Y-80531091D01*
X135921658Y-80531087D01*
X135920865Y-80529172D01*
X135865087Y-80394511D01*
X135865080Y-80394498D01*
X135782951Y-80271584D01*
X135782948Y-80271580D01*
X135678416Y-80167048D01*
X135620128Y-80128102D01*
X135575323Y-80074490D01*
X135566616Y-80005165D01*
X135596770Y-79942138D01*
X135620128Y-79921898D01*
X135678416Y-79882951D01*
X135782948Y-79778419D01*
X135782951Y-79778416D01*
X135865084Y-79655495D01*
X135921658Y-79518913D01*
X135948595Y-79383497D01*
X135950500Y-79373920D01*
X135950500Y-79226079D01*
X135921659Y-79081092D01*
X135921658Y-79081091D01*
X135921658Y-79081087D01*
X135917403Y-79070814D01*
X135865087Y-78944511D01*
X135865080Y-78944498D01*
X135782951Y-78821584D01*
X135782948Y-78821580D01*
X135678419Y-78717051D01*
X135678415Y-78717048D01*
X135555501Y-78634919D01*
X135555488Y-78634912D01*
X135418917Y-78578343D01*
X135418907Y-78578340D01*
X135273920Y-78549500D01*
X135273918Y-78549500D01*
X135126082Y-78549500D01*
X135126080Y-78549500D01*
X134981092Y-78578340D01*
X134981082Y-78578343D01*
X134844511Y-78634912D01*
X134844498Y-78634919D01*
X134721584Y-78717048D01*
X134721580Y-78717051D01*
X134617051Y-78821580D01*
X134617048Y-78821584D01*
X134578102Y-78879871D01*
X134524489Y-78924676D01*
X134455164Y-78933383D01*
X134392137Y-78903228D01*
X134371898Y-78879871D01*
X134332951Y-78821584D01*
X134332948Y-78821580D01*
X134228419Y-78717051D01*
X134228415Y-78717048D01*
X134105501Y-78634919D01*
X134105488Y-78634912D01*
X133968917Y-78578343D01*
X133968907Y-78578340D01*
X133823920Y-78549500D01*
X133823918Y-78549500D01*
X133676082Y-78549500D01*
X133676080Y-78549500D01*
X133531092Y-78578340D01*
X133531082Y-78578343D01*
X133394511Y-78634912D01*
X133394498Y-78634919D01*
X133271584Y-78717048D01*
X133271580Y-78717051D01*
X133167051Y-78821580D01*
X133167048Y-78821584D01*
X133128102Y-78879871D01*
X133074489Y-78924676D01*
X133005164Y-78933383D01*
X132942137Y-78903228D01*
X132921898Y-78879871D01*
X132882951Y-78821584D01*
X132882948Y-78821580D01*
X132778419Y-78717051D01*
X132778415Y-78717048D01*
X132655501Y-78634919D01*
X132655488Y-78634912D01*
X132518917Y-78578343D01*
X132518907Y-78578340D01*
X132373920Y-78549500D01*
X132373918Y-78549500D01*
X132226082Y-78549500D01*
X132226080Y-78549500D01*
X132081092Y-78578340D01*
X132081082Y-78578343D01*
X131944511Y-78634912D01*
X131944498Y-78634919D01*
X131821584Y-78717048D01*
X131821580Y-78717051D01*
X131717051Y-78821580D01*
X131717048Y-78821584D01*
X131634919Y-78944498D01*
X131634912Y-78944511D01*
X131578343Y-79081082D01*
X131578340Y-79081092D01*
X131549500Y-79226079D01*
X131549500Y-79226082D01*
X131549500Y-79373918D01*
X131549500Y-79373920D01*
X131549499Y-79373920D01*
X129121642Y-79373920D01*
X129150500Y-79228842D01*
X129150500Y-79071158D01*
X129150500Y-79071155D01*
X129150499Y-79071153D01*
X129125307Y-78944505D01*
X129119737Y-78916503D01*
X129085592Y-78834069D01*
X129059397Y-78770827D01*
X129059390Y-78770814D01*
X128971789Y-78639711D01*
X128971786Y-78639707D01*
X128860292Y-78528213D01*
X128860288Y-78528210D01*
X128729185Y-78440609D01*
X128729172Y-78440602D01*
X128583501Y-78380264D01*
X128583489Y-78380261D01*
X128516420Y-78366920D01*
X128454509Y-78334535D01*
X128452930Y-78332984D01*
X127986819Y-77866873D01*
X127953334Y-77805550D01*
X127950500Y-77779192D01*
X127950500Y-74371153D01*
X130149500Y-74371153D01*
X130149500Y-74528846D01*
X130180261Y-74683489D01*
X130180264Y-74683501D01*
X130240602Y-74829172D01*
X130240609Y-74829185D01*
X130328210Y-74960288D01*
X130328213Y-74960292D01*
X130439707Y-75071786D01*
X130439711Y-75071789D01*
X130570814Y-75159390D01*
X130570827Y-75159397D01*
X130716498Y-75219735D01*
X130716503Y-75219737D01*
X130871153Y-75250499D01*
X130871156Y-75250500D01*
X130871158Y-75250500D01*
X131028844Y-75250500D01*
X131028845Y-75250499D01*
X131183497Y-75219737D01*
X131329179Y-75159394D01*
X131460289Y-75071789D01*
X131571789Y-74960289D01*
X131659394Y-74829179D01*
X131719737Y-74683497D01*
X131750500Y-74528842D01*
X131750500Y-74371158D01*
X131750500Y-74371155D01*
X131750499Y-74371153D01*
X131723117Y-74233497D01*
X131719737Y-74216503D01*
X131692398Y-74150500D01*
X131659397Y-74070827D01*
X131659390Y-74070814D01*
X131571789Y-73939711D01*
X131571786Y-73939707D01*
X131460292Y-73828213D01*
X131460288Y-73828210D01*
X131329185Y-73740609D01*
X131329172Y-73740602D01*
X131183501Y-73680264D01*
X131183489Y-73680261D01*
X131028845Y-73649500D01*
X131028842Y-73649500D01*
X130871158Y-73649500D01*
X130871155Y-73649500D01*
X130716510Y-73680261D01*
X130716498Y-73680264D01*
X130570827Y-73740602D01*
X130570814Y-73740609D01*
X130439711Y-73828210D01*
X130439707Y-73828213D01*
X130328213Y-73939707D01*
X130328210Y-73939711D01*
X130240609Y-74070814D01*
X130240602Y-74070827D01*
X130180264Y-74216498D01*
X130180261Y-74216510D01*
X130149500Y-74371153D01*
X127950500Y-74371153D01*
X127950500Y-71700808D01*
X127970185Y-71633769D01*
X127986819Y-71613127D01*
X128233127Y-71366819D01*
X128294450Y-71333334D01*
X128320808Y-71330500D01*
X132979192Y-71330500D01*
X133008632Y-71339144D01*
X133038619Y-71345668D01*
X133043634Y-71349422D01*
X133046231Y-71350185D01*
X133066873Y-71366819D01*
X133175737Y-71475683D01*
X133209222Y-71537006D01*
X133204238Y-71606698D01*
X133202620Y-71610810D01*
X133200264Y-71616498D01*
X133200261Y-71616505D01*
X133169500Y-71771153D01*
X133169500Y-71928846D01*
X133200261Y-72083489D01*
X133200264Y-72083501D01*
X133239219Y-72177548D01*
X133246688Y-72247018D01*
X133239219Y-72272452D01*
X133200264Y-72366498D01*
X133200261Y-72366510D01*
X133169500Y-72521153D01*
X133169500Y-72678846D01*
X133200261Y-72833489D01*
X133200264Y-72833501D01*
X133239219Y-72927548D01*
X133246688Y-72997018D01*
X133239219Y-73022452D01*
X133200264Y-73116498D01*
X133200261Y-73116510D01*
X133169500Y-73271153D01*
X133169500Y-73428846D01*
X133200261Y-73583489D01*
X133200264Y-73583501D01*
X133260602Y-73729172D01*
X133260609Y-73729185D01*
X133348210Y-73860288D01*
X133348213Y-73860292D01*
X133459707Y-73971786D01*
X133459711Y-73971789D01*
X133590814Y-74059390D01*
X133590827Y-74059397D01*
X133736498Y-74119735D01*
X133736503Y-74119737D01*
X133891153Y-74150499D01*
X133891156Y-74150500D01*
X133891158Y-74150500D01*
X134048844Y-74150500D01*
X134048845Y-74150499D01*
X134203497Y-74119737D01*
X134321592Y-74070821D01*
X134349172Y-74059397D01*
X134349172Y-74059396D01*
X134349179Y-74059394D01*
X134480289Y-73971789D01*
X134530925Y-73921153D01*
X137019500Y-73921153D01*
X137019500Y-74078846D01*
X137050260Y-74233488D01*
X137050262Y-74233493D01*
X137050263Y-74233497D01*
X137078864Y-74302547D01*
X137078865Y-74302549D01*
X137086333Y-74372018D01*
X137078865Y-74397447D01*
X137050263Y-74466503D01*
X137050262Y-74466506D01*
X137050260Y-74466511D01*
X137019500Y-74621153D01*
X137019500Y-74778846D01*
X137050260Y-74933488D01*
X137050262Y-74933493D01*
X137050263Y-74933497D01*
X137061362Y-74960292D01*
X137078865Y-75002549D01*
X137086333Y-75072018D01*
X137078865Y-75097447D01*
X137050263Y-75166503D01*
X137050262Y-75166506D01*
X137050260Y-75166511D01*
X137019500Y-75321153D01*
X137019500Y-75478846D01*
X137050261Y-75633489D01*
X137050264Y-75633501D01*
X137110602Y-75779172D01*
X137110609Y-75779185D01*
X137198210Y-75910288D01*
X137198213Y-75910292D01*
X137309707Y-76021786D01*
X137309711Y-76021789D01*
X137440814Y-76109390D01*
X137440827Y-76109397D01*
X137586498Y-76169735D01*
X137586503Y-76169737D01*
X137741153Y-76200499D01*
X137741156Y-76200500D01*
X137741158Y-76200500D01*
X137898844Y-76200500D01*
X137898845Y-76200499D01*
X138053497Y-76169737D01*
X138199179Y-76109394D01*
X138330289Y-76021789D01*
X138441789Y-75910289D01*
X138529394Y-75779179D01*
X138589737Y-75633497D01*
X138620500Y-75478842D01*
X138620500Y-75321158D01*
X138620500Y-75321155D01*
X138620499Y-75321153D01*
X138600326Y-75219737D01*
X138589737Y-75166503D01*
X138561134Y-75097450D01*
X138553666Y-75027984D01*
X138561133Y-75002552D01*
X138589737Y-74933497D01*
X138620500Y-74778842D01*
X138620500Y-74621158D01*
X138620500Y-74621155D01*
X138620499Y-74621153D01*
X138602137Y-74528842D01*
X138589737Y-74466503D01*
X138561134Y-74397450D01*
X138553666Y-74327984D01*
X138561133Y-74302552D01*
X138589737Y-74233497D01*
X138620500Y-74078842D01*
X138620500Y-73921158D01*
X138620500Y-73921155D01*
X138620499Y-73921153D01*
X138602012Y-73828213D01*
X138589737Y-73766503D01*
X138589735Y-73766498D01*
X138529397Y-73620827D01*
X138529390Y-73620814D01*
X138441789Y-73489711D01*
X138441786Y-73489707D01*
X138330292Y-73378213D01*
X138330288Y-73378210D01*
X138199185Y-73290609D01*
X138199172Y-73290602D01*
X138053501Y-73230264D01*
X138053489Y-73230261D01*
X137898845Y-73199500D01*
X137898842Y-73199500D01*
X137741158Y-73199500D01*
X137741155Y-73199500D01*
X137586510Y-73230261D01*
X137586498Y-73230264D01*
X137440827Y-73290602D01*
X137440814Y-73290609D01*
X137309711Y-73378210D01*
X137309707Y-73378213D01*
X137198213Y-73489707D01*
X137198210Y-73489711D01*
X137110609Y-73620814D01*
X137110602Y-73620827D01*
X137050264Y-73766498D01*
X137050261Y-73766510D01*
X137019500Y-73921153D01*
X134530925Y-73921153D01*
X134591789Y-73860289D01*
X134679394Y-73729179D01*
X134739737Y-73583497D01*
X134770500Y-73428842D01*
X134770500Y-73271158D01*
X134770500Y-73271155D01*
X134770499Y-73271153D01*
X134739738Y-73116510D01*
X134739737Y-73116503D01*
X134700778Y-73022449D01*
X134693310Y-72952984D01*
X134700775Y-72927556D01*
X134739737Y-72833497D01*
X134770500Y-72678842D01*
X134770500Y-72521158D01*
X134770500Y-72521155D01*
X134770499Y-72521153D01*
X134739738Y-72366510D01*
X134739737Y-72366503D01*
X134700778Y-72272449D01*
X134693310Y-72202984D01*
X134700775Y-72177556D01*
X134739737Y-72083497D01*
X134753079Y-72016416D01*
X134785463Y-71954509D01*
X134786958Y-71952986D01*
X136627127Y-70112819D01*
X136688450Y-70079334D01*
X136714808Y-70076500D01*
X140122152Y-70076500D01*
X140152617Y-70085445D01*
G37*
%TD.AperFunction*%
%TD*%
M02*
