M48
; DRILL file {KiCad 9.0.7} date 2026-03-05T22:31:15+0800
; FORMAT={-:-/ absolute / inch / decimal}
; #@! TF.CreationDate,2026-03-05T22:31:15+08:00
; #@! TF.GenerationSoftware,Kicad,Pcbnew,9.0.7
; #@! TF.FileFunction,Plated,1,4,PTH
FMAT,2
INCH
; #@! TA.AperFunction,Plated,PTH,ComponentDrill
T1C0.0079
; #@! TA.AperFunction,Plated,PTH,ViaDrill
T2C0.0118
; #@! TA.AperFunction,Plated,PTH,ComponentDrill
T3C0.0118
; #@! TA.AperFunction,Plated,PTH,ComponentDrill
T4C0.0157
; #@! TA.AperFunction,Plated,PTH,ComponentDrill
T5C0.0197
; #@! TA.AperFunction,Plated,PTH,ComponentDrill
T6C0.0512
; #@! TA.AperFunction,Plated,PTH,ComponentDrill
T7C0.0866
%
G90
G05
T1
X4.9587Y-3.9331
X5.002Y-3.9331
X5.1112Y-5.1673
X5.1339Y-5.1299
X5.1339Y-5.2047
X5.1565Y-5.1673
X5.2087Y-3.122
X5.2087Y-3.1791
X5.2087Y-3.2362
X5.2657Y-3.122
X5.2657Y-3.1791
X5.2657Y-3.2362
X5.3228Y-3.122
X5.3228Y-3.1791
X5.3228Y-3.2362
X5.4547Y-2.7096
X5.498Y-2.7096
T2
X4.8386Y-2.3839
X4.8386Y-2.4429
X4.8386Y-2.502
X4.8386Y-2.561
X4.8386Y-2.6201
X4.8386Y-2.6791
X4.8386Y-2.7382
X4.8386Y-2.7972
X4.8386Y-2.8563
X4.8386Y-2.9154
X4.8386Y-2.9744
X4.8386Y-3.0335
X4.8386Y-3.0925
X4.8386Y-3.1516
X4.8386Y-3.2106
X4.8386Y-3.2697
X4.8386Y-3.3287
X4.8386Y-3.3878
X4.8386Y-3.4469
X4.8386Y-3.5059
X4.8386Y-3.565
X4.8386Y-3.624
X4.8386Y-3.6831
X4.8386Y-3.7421
X4.8386Y-3.8012
X4.8386Y-3.8602
X4.8386Y-3.9193
X4.8386Y-3.9783
X4.8386Y-4.0374
X4.8386Y-4.0965
X4.8386Y-4.1555
X4.8386Y-4.2146
X4.8386Y-4.2736
X4.8386Y-4.3327
X4.8386Y-4.3917
X4.8386Y-4.4508
X4.8386Y-4.5098
X4.8386Y-4.5689
X4.8386Y-4.628
X4.8386Y-4.687
X4.8386Y-4.7461
X4.8386Y-4.8051
X4.8386Y-4.8642
X4.8386Y-4.9232
X4.8386Y-4.9823
X4.8386Y-5.0413
X4.8386Y-5.1004
X4.8386Y-5.1594
X4.8386Y-5.2185
X4.8386Y-5.2776
X4.8386Y-5.3366
X4.8386Y-5.3957
X4.8386Y-5.4547
X4.8386Y-5.5059
X4.8386Y-5.565
X4.9094Y-3.8937
X4.939Y-4.0807
X4.9488Y-4.8504
X4.9705Y-3.8346
X4.9724Y-5.2461
X4.9783Y-3.0669
X4.9803Y-3.1476
X4.9803Y-3.2264
X4.9803Y-3.8705
X4.9823Y-3.9961
X4.9894Y-4.6963
X5.0157Y-5.1004
X5.0197Y-3.2835
X5.0276Y-2.4252
X5.0276Y-2.4606
X5.0472Y-3.9685
X5.0531Y-3.0276
X5.0531Y-3.1161
X5.0551Y-3.1909
X5.0551Y-3.5945
X5.0551Y-4.8161
X5.0561Y-4.1181
X5.0669Y-3.3583
X5.0994Y-4.0433
X5.0994Y-4.2717
X5.1181Y-2.7362
X5.126Y-3.3661
X5.1339Y-2.6969
X5.1348Y-4.3661
X5.1378Y-2.5866
X5.1378Y-2.6299
X5.1417Y-5.0295
X5.1417Y-5.3051
X5.1417Y-5.7402
X5.1496Y-2.5354
X5.1535Y-5.4331
X5.1535Y-5.5906
X5.1555Y-2.9311
X5.1614Y-4.8732
X5.1614Y-4.9087
X5.1693Y-5.6476
X5.1699Y-4.0091
X5.1742Y-3.4222
X5.1781Y-4.4469
X5.189Y-4.6152
X5.1969Y-3.8819
X5.1969Y-5.7402
X5.2008Y-2.998
X5.2096Y-4.248
X5.2244Y-4.0079
X5.2559Y-5.7402
X5.2579Y-3.5846
X5.2677Y-4.6181
X5.2744Y-2.8287
X5.2744Y-2.8583
X5.2744Y-2.8878
X5.2746Y-3.3907
X5.2925Y-5.1624
X5.315Y-5.7402
X5.3228Y-5.0079
X5.3248Y-2.565
X5.3307Y-3.4252
X5.3307Y-3.4567
X5.3465Y-3.4879
X5.372Y-2.4528
X5.3754Y-4.5059
X5.3819Y-4.7165
X5.3858Y-4.622
X5.3858Y-4.6575
X5.3937Y-2.6422
X5.3937Y-2.6658
X5.3957Y-3.5295
X5.3976Y-5.1161
X5.4006Y-4.0182
X5.4016Y-5.0394
X5.403Y-4.248
X5.4055Y-5.1791
X5.4069Y-4.439
X5.4106Y-4.9285
X5.426Y-2.9134
X5.426Y-2.9409
X5.426Y-2.9685
X5.437Y-3.372
X5.4409Y-3.4252
X5.4567Y-2.7741
X5.4783Y-2.6388
X5.4862Y-2.7741
X5.4862Y-3.128
X5.4862Y-3.2343
X5.5045Y-3.2972
X5.5059Y-3.0134
X5.5079Y-5.7402
X5.5098Y-3.3283
X5.5118Y-2.1457
X5.5354Y-3.0827
X5.5354Y-4.815
X5.5429Y-2.313
X5.5528Y-2.7589
X5.558Y-3.2609
X5.5591Y-3.1555
X5.5591Y-3.1949
X5.563Y-5.7402
X5.5709Y-2.1457
X5.5775Y-2.313
X5.5789Y-2.2815
X5.5834Y-2.2354
X5.5945Y-2.7087
X5.6063Y-5.3287
X5.6142Y-5.622
X5.622Y-5.7402
X5.6275Y-2.5079
X5.6299Y-2.1457
X5.6309Y-4.1102
X5.6568Y-2.4079
X5.6575Y-5.5669
X5.6614Y-3.9921
X5.6748Y-2.4638
X5.6811Y-5.7402
X5.689Y-2.1457
X5.6929Y-5.7008
X5.7181Y-2.2165
X5.7283Y-5.5669
X5.7283Y-5.6693
X5.7323Y-5.7402
X5.748Y-2.1457
X5.7874Y-5.7402
X5.8031Y-2.1457
X5.8043Y-2.4401
X5.8104Y-2.3045
X5.8445Y-2.3784
X5.8445Y-2.3784
X5.8465Y-5.7402
X5.8499Y-2.3382
X5.8622Y-2.1457
X5.8701Y-5.5669
X5.874Y-5.6732
X5.9055Y-5.7402
X5.9181Y-2.45
X5.9204Y-2.3016
X5.9213Y-2.1457
X5.9452Y-2.4126
X5.9661Y-2.378
T3
X5.1988Y-2.1673
X5.1988Y-2.2461
X5.3563Y-2.1673
X5.3563Y-2.2461
X5.7374Y-2.3338
X5.7374Y-2.3732
X5.7374Y-2.4126
T4
X4.8573Y-2.2283
X4.8573Y-5.6575
X4.8763Y-2.1824
X4.8763Y-2.2743
X4.8763Y-5.6115
X4.8763Y-5.7034
X4.9222Y-2.1634
X4.9222Y-2.2933
X4.9222Y-5.5925
X4.9222Y-5.7224
X4.9682Y-2.1824
X4.9682Y-2.2743
X4.9682Y-5.6115
X4.9682Y-5.7034
X4.9872Y-2.2283
X4.9872Y-5.6575
X5.9528Y-2.2283
X5.9528Y-5.6575
X5.9718Y-2.1824
X5.9718Y-2.2743
X5.9718Y-5.6115
X5.9718Y-5.7034
X6.0177Y-2.1634
X6.0177Y-2.2933
X6.0177Y-5.5925
X6.0177Y-5.7224
X6.0637Y-2.1824
X6.0637Y-2.2743
X6.0637Y-5.6115
X6.0637Y-5.7034
X6.0827Y-2.2283
X6.0827Y-5.6575
T6
X5.7303Y-5.3898
X5.8287Y-2.6339
X5.8287Y-5.3898
X5.9272Y-5.3898
X6.0256Y-2.6339
X6.0256Y-5.3898
T7
X4.9222Y-2.2283
X4.9222Y-5.6575
X5.878Y-3.126
X5.878Y-4.9961
X6.0177Y-2.2283
X6.0177Y-5.6575
T5
G00X5.1071Y-2.2075
M15
G01X5.1071Y-2.176
M16
G05
G00X5.1071Y-2.3787
M15
G01X5.1071Y-2.3354
M16
G05
G00X5.448Y-2.2075
M15
G01X5.448Y-2.176
M16
G05
G00X5.448Y-2.3787
M15
G01X5.448Y-2.3354
M16
G05
M30
