%TF.GenerationSoftware,KiCad,Pcbnew,9.0.7*%
%TF.CreationDate,2026-02-23T00:53:33+08:00*%
%TF.ProjectId,pumper,70756d70-6572-42e6-9b69-6361645f7063,rev?*%
%TF.SameCoordinates,Original*%
%TF.FileFunction,Copper,L3,Inr*%
%TF.FilePolarity,Positive*%
%FSLAX46Y46*%
G04 Gerber Fmt 4.6, Leading zero omitted, Abs format (unit mm)*
G04 Created by KiCad (PCBNEW 9.0.7) date 2026-02-23 00:53:33*
%MOMM*%
%LPD*%
G01*
G04 APERTURE LIST*
G04 Aperture macros list*
%AMRoundRect*
0 Rectangle with rounded corners*
0 $1 Rounding radius*
0 $2 $3 $4 $5 $6 $7 $8 $9 X,Y pos of 4 corners*
0 Add a 4 corners polygon primitive as box body*
4,1,4,$2,$3,$4,$5,$6,$7,$8,$9,$2,$3,0*
0 Add four circle primitives for the rounded corners*
1,1,$1+$1,$2,$3*
1,1,$1+$1,$4,$5*
1,1,$1+$1,$6,$7*
1,1,$1+$1,$8,$9*
0 Add four rect primitives between the rounded corners*
20,1,$1+$1,$2,$3,$4,$5,0*
20,1,$1+$1,$4,$5,$6,$7,0*
20,1,$1+$1,$6,$7,$8,$9,0*
20,1,$1+$1,$8,$9,$2,$3,0*%
G04 Aperture macros list end*
%TA.AperFunction,ComponentPad*%
%ADD10C,0.700000*%
%TD*%
%TA.AperFunction,ComponentPad*%
%ADD11C,4.400000*%
%TD*%
%TA.AperFunction,ComponentPad*%
%ADD12C,0.300000*%
%TD*%
%TA.AperFunction,HeatsinkPad*%
%ADD13C,0.500000*%
%TD*%
%TA.AperFunction,ComponentPad*%
%ADD14C,1.700000*%
%TD*%
%TA.AperFunction,ComponentPad*%
%ADD15RoundRect,0.250000X0.600000X-0.600000X0.600000X0.600000X-0.600000X0.600000X-0.600000X-0.600000X0*%
%TD*%
%TA.AperFunction,ComponentPad*%
%ADD16R,1.950000X1.950000*%
%TD*%
%TA.AperFunction,ComponentPad*%
%ADD17C,1.950000*%
%TD*%
%TA.AperFunction,ComponentPad*%
%ADD18C,3.300000*%
%TD*%
%TA.AperFunction,ComponentPad*%
%ADD19C,0.600000*%
%TD*%
%TA.AperFunction,ComponentPad*%
%ADD20O,1.300000X2.300000*%
%TD*%
%TA.AperFunction,ComponentPad*%
%ADD21O,1.300000X2.100000*%
%TD*%
%TA.AperFunction,ComponentPad*%
%ADD22C,0.500000*%
%TD*%
%TA.AperFunction,ViaPad*%
%ADD23C,0.600000*%
%TD*%
%TA.AperFunction,ViaPad*%
%ADD24C,0.450000*%
%TD*%
%TA.AperFunction,Conductor*%
%ADD25C,0.400000*%
%TD*%
%TA.AperFunction,Conductor*%
%ADD26C,0.250000*%
%TD*%
%TA.AperFunction,Conductor*%
%ADD27C,0.300000*%
%TD*%
%TA.AperFunction,Conductor*%
%ADD28C,0.200000*%
%TD*%
G04 APERTURE END LIST*
D10*
%TO.N,GND*%
%TO.C,H5*%
X122975000Y-144100000D03*
X123458274Y-142933274D03*
X123458274Y-145266726D03*
X124625000Y-142450000D03*
D11*
X124625000Y-144100000D03*
D10*
X124625000Y-145750000D03*
X125791726Y-142933274D03*
X125791726Y-145266726D03*
X126275000Y-144100000D03*
%TD*%
D12*
%TO.N,-4V5*%
%TO.C,U8*%
X130400000Y-132200000D03*
X130975000Y-131250000D03*
X129825000Y-131250000D03*
X130400000Y-130300000D03*
%TD*%
D13*
%TO.N,GND*%
%TO.C,U2*%
X127350000Y-97750000D03*
X127350000Y-98850000D03*
%TD*%
D10*
%TO.N,GND*%
%TO.C,H4*%
X151600000Y-56200000D03*
X152083274Y-55033274D03*
X152083274Y-57366726D03*
X153250000Y-54550000D03*
D11*
X153250000Y-56200000D03*
D10*
X153250000Y-57850000D03*
X154416726Y-55033274D03*
X154416726Y-57366726D03*
X154900000Y-56200000D03*
%TD*%
%TO.N,GND*%
%TO.C,H3*%
X122975000Y-56200000D03*
X123458274Y-55033274D03*
X123458274Y-57366726D03*
X124625000Y-54550000D03*
D11*
X124625000Y-56200000D03*
D10*
X124625000Y-57850000D03*
X125791726Y-55033274D03*
X125791726Y-57366726D03*
X126275000Y-56200000D03*
%TD*%
D14*
%TO.N,/MCU/SWCLK*%
%TO.C,J2*%
X129210000Y-93850000D03*
D15*
%TO.N,GND*%
X131750000Y-93850000D03*
D14*
%TO.N,/MCU/SWDIO*%
X134290000Y-93850000D03*
%TD*%
D13*
%TO.N,GND*%
%TO.C,U4*%
X132300000Y-79300000D03*
X132300000Y-80750000D03*
X132300000Y-82200000D03*
X133750000Y-79300000D03*
X133750000Y-80750000D03*
X133750000Y-82200000D03*
X135200000Y-79300000D03*
X135200000Y-80750000D03*
X135200000Y-82200000D03*
%TD*%
D10*
%TO.N,GND*%
%TO.C,H6*%
X151600000Y-144100000D03*
X152083274Y-142933274D03*
X152083274Y-145266726D03*
X153250000Y-142450000D03*
D11*
X153250000Y-144100000D03*
D10*
X153250000Y-145750000D03*
X154416726Y-142933274D03*
X154416726Y-145266726D03*
X154900000Y-144100000D03*
%TD*%
D16*
%TO.N,GND*%
%TO.C,VR1*%
X148050000Y-134550000D03*
D17*
%TO.N,/Audio processing/VOLOUTL*%
X145550000Y-134550000D03*
%TO.N,/Audio processing/1652OUTL*%
X148050000Y-64550000D03*
D16*
%TO.N,GND*%
X153050000Y-134550000D03*
D17*
%TO.N,/Audio processing/VOLOUTR*%
X150550000Y-134550000D03*
%TO.N,/Audio processing/1652OUTR*%
X153050000Y-64550000D03*
D18*
%TO.N,GND*%
X149300000Y-124550000D03*
X149300000Y-77050000D03*
%TD*%
D13*
%TO.N,GND*%
%TO.C,U1*%
X138550000Y-68825000D03*
X139650000Y-68825000D03*
%TD*%
D19*
%TO.N,GND*%
%TO.C,U3*%
X137200000Y-106850000D03*
X138200000Y-106850000D03*
X139200000Y-106850000D03*
%TD*%
D20*
%TO.N,GND*%
%TO.C,J1*%
X138380000Y-59870000D03*
D21*
X138380000Y-55670000D03*
D22*
X136050000Y-57050000D03*
X136050000Y-55050000D03*
X132050000Y-57050000D03*
X132050000Y-55050000D03*
D20*
X129720000Y-59870000D03*
D21*
X129720000Y-55670000D03*
%TD*%
D23*
%TO.N,VBUS*%
X129850000Y-98050000D03*
X138319613Y-111828404D03*
X139730000Y-102790000D03*
X137000000Y-67712500D03*
X130800000Y-64400000D03*
X137000000Y-67112500D03*
%TO.N,+3V3*%
X128400000Y-81050000D03*
X139350000Y-70462500D03*
X139850000Y-76540000D03*
X139350000Y-82150000D03*
X128350000Y-76900000D03*
X137050000Y-89650000D03*
X138100000Y-85650000D03*
X138600000Y-70462500D03*
X129850000Y-84900000D03*
X132100000Y-76150000D03*
D24*
%TO.N,GND*%
X147000000Y-145800000D03*
X137775555Y-100350000D03*
D23*
X140020000Y-111500000D03*
D24*
X148500000Y-145800000D03*
D23*
X128940380Y-98300000D03*
X126300000Y-133250000D03*
X126490000Y-109350000D03*
D24*
X122900000Y-113050000D03*
X122900000Y-66550000D03*
D23*
X131100000Y-121500000D03*
D24*
X122900000Y-117550000D03*
X122900000Y-69550000D03*
D23*
X141611489Y-82155781D03*
D24*
X122900000Y-83050000D03*
X140000000Y-54500000D03*
D23*
X137200000Y-128000000D03*
D24*
X122900000Y-139850000D03*
X122900000Y-120550000D03*
X122900000Y-125050000D03*
D23*
X131200000Y-112800000D03*
D24*
X139350000Y-96550000D03*
D23*
X141700000Y-102940000D03*
D24*
X148900000Y-54500000D03*
X142700000Y-100350000D03*
X122900000Y-131050000D03*
X126500000Y-87350000D03*
X122900000Y-128050000D03*
X150000000Y-145800000D03*
X122900000Y-137050000D03*
D23*
X137820000Y-74700000D03*
X124490000Y-103050000D03*
D24*
X132000000Y-145800000D03*
D23*
X131100000Y-120600000D03*
D24*
X122900000Y-111550000D03*
X126500000Y-84650000D03*
X138596296Y-100350000D03*
X122900000Y-141350000D03*
X122900000Y-126550000D03*
X144500000Y-54500000D03*
D23*
X140000000Y-112230000D03*
D24*
X122900000Y-107050000D03*
D23*
X131300000Y-143450000D03*
D24*
X122900000Y-108550000D03*
X141500000Y-54500000D03*
X136954815Y-100350000D03*
D23*
X137820000Y-75400000D03*
D24*
X126500000Y-88250000D03*
X133500000Y-145800000D03*
X122900000Y-65050000D03*
X122900000Y-102550000D03*
X139350000Y-92050000D03*
X122900000Y-119050000D03*
D23*
X137300000Y-131550000D03*
D24*
X122900000Y-129550000D03*
D23*
X130600000Y-127750000D03*
D24*
X141300000Y-145800000D03*
X139900000Y-145800000D03*
X122900000Y-86050000D03*
X122900000Y-122050000D03*
D23*
X137430000Y-122005000D03*
X139150000Y-67025000D03*
D24*
X122900000Y-116050000D03*
X139350000Y-92950000D03*
X126500000Y-85550000D03*
X144300000Y-145800000D03*
D23*
X130950000Y-74450000D03*
D24*
X135313333Y-100350000D03*
X122900000Y-68050000D03*
X122900000Y-75550000D03*
X122900000Y-110050000D03*
X122900000Y-80050000D03*
X126500000Y-83750000D03*
X139350000Y-93850000D03*
D23*
X130800000Y-67012500D03*
X129200000Y-140200000D03*
X130900000Y-138000000D03*
X133300000Y-106350000D03*
X135250000Y-65150000D03*
D24*
X126500000Y-82850000D03*
D23*
X131200000Y-111900000D03*
D24*
X150400000Y-54500000D03*
D23*
X142400000Y-135350000D03*
X134429808Y-131125000D03*
D24*
X145600000Y-145800000D03*
X122900000Y-96550000D03*
X122900000Y-78550000D03*
D23*
X130600000Y-134750000D03*
D24*
X135000000Y-145800000D03*
D23*
X126400000Y-62400000D03*
X134345262Y-88370000D03*
D24*
X122900000Y-63550000D03*
X122900000Y-132550000D03*
X141879259Y-100350000D03*
X122900000Y-90550000D03*
X122900000Y-89050000D03*
X139417037Y-100350000D03*
D23*
X137200000Y-112130000D03*
D24*
X139350000Y-94750000D03*
X122900000Y-72550000D03*
X139350000Y-97450000D03*
X122900000Y-87550000D03*
D23*
X130800000Y-69000000D03*
X126730000Y-116105000D03*
D24*
X136134074Y-100350000D03*
D23*
X133550000Y-91050000D03*
X128390000Y-106350000D03*
X139730000Y-101910000D03*
D24*
X122900000Y-93550000D03*
X141058518Y-100350000D03*
X122900000Y-135550000D03*
D23*
X127380000Y-100280000D03*
D24*
X122900000Y-104050000D03*
X122900000Y-74050000D03*
X122900000Y-101050000D03*
X122900000Y-60550000D03*
D23*
X136500000Y-108550000D03*
D24*
X142800000Y-145800000D03*
X122900000Y-77050000D03*
X122900000Y-62050000D03*
D23*
X133240000Y-100512500D03*
X129619283Y-100238292D03*
D24*
X122900000Y-81550000D03*
D23*
X139949000Y-84538404D03*
D24*
X130600000Y-145800000D03*
D23*
X126400000Y-61500000D03*
D24*
X126500000Y-86450000D03*
D23*
X127590000Y-111400000D03*
D24*
X147400000Y-54500000D03*
X122900000Y-95050000D03*
X146000000Y-54500000D03*
X122900000Y-98050000D03*
X122900000Y-114550000D03*
X143000000Y-54500000D03*
X122900000Y-84550000D03*
X122900000Y-123550000D03*
X122900000Y-71050000D03*
X122900000Y-99550000D03*
X122900000Y-92050000D03*
X139350000Y-95650000D03*
X122900000Y-134050000D03*
X122900000Y-105550000D03*
X122900000Y-138550000D03*
D23*
X137820000Y-74000000D03*
D24*
X140237778Y-100350000D03*
D23*
%TO.N,-4V5*%
X135200000Y-127200000D03*
X139944264Y-108705736D03*
X128400000Y-119150000D03*
X140529225Y-102825259D03*
%TO.N,+4V5*%
X137329233Y-104806872D03*
X137100000Y-129950000D03*
X135400000Y-113800000D03*
X127400000Y-129550000D03*
X136250000Y-111500000D03*
%TO.N,+AUDIO_3V3*%
X125590000Y-101150000D03*
X134700000Y-109750000D03*
X125590000Y-106950000D03*
X125750000Y-98350000D03*
%TO.N,+1V1*%
X139350000Y-79450000D03*
X133970000Y-72600000D03*
X128350000Y-79150000D03*
X133970000Y-71850000D03*
X133970000Y-73350000D03*
X133975735Y-86124265D03*
%TO.N,GP19*%
X141174265Y-82825735D03*
X139813278Y-83750000D03*
%TO.N,/Audio processing/1652OUTL*%
X133800000Y-113750000D03*
%TO.N,/Audio processing/1652OUTR*%
X136700000Y-116620000D03*
%TD*%
D25*
%TO.N,VBUS*%
X128587500Y-67712500D02*
X131800000Y-67712500D01*
D26*
X137000000Y-67712500D02*
X137000000Y-67112500D01*
D27*
X134450000Y-99300000D02*
X134450000Y-101810000D01*
X139851000Y-102911000D02*
X139730000Y-102790000D01*
D26*
X131800000Y-65400000D02*
X131800000Y-67712500D01*
D27*
X129850000Y-98050000D02*
X133200000Y-98050000D01*
X133200000Y-98050000D02*
X134450000Y-99300000D01*
D25*
X131800000Y-67712500D02*
X137000000Y-67712500D01*
X126080000Y-96430000D02*
X125750000Y-96100000D01*
D26*
X130800000Y-64400000D02*
X131800000Y-65400000D01*
D25*
X129850000Y-98050000D02*
X129850000Y-96950000D01*
D27*
X135430000Y-102790000D02*
X139730000Y-102790000D01*
X139851000Y-107878346D02*
X139851000Y-102911000D01*
X138319613Y-111828404D02*
X138319613Y-109409733D01*
X138319613Y-109409733D02*
X139851000Y-107878346D01*
D25*
X129330000Y-96430000D02*
X126080000Y-96430000D01*
X129850000Y-96950000D02*
X129330000Y-96430000D01*
X125750000Y-96100000D02*
X125750000Y-70550000D01*
X125750000Y-70550000D02*
X128587500Y-67712500D01*
D27*
X134450000Y-101810000D02*
X135430000Y-102790000D01*
%TO.N,-4V5*%
X135200000Y-127200000D02*
X137650000Y-127200000D01*
D26*
X140529225Y-108120775D02*
X139944264Y-108705736D01*
D27*
X142000000Y-117450000D02*
X142000000Y-109950000D01*
X140300000Y-124550000D02*
X140300000Y-119150000D01*
X137650000Y-127200000D02*
X140300000Y-124550000D01*
D26*
X140529225Y-102825259D02*
X140529225Y-108120775D01*
D27*
X140300000Y-119150000D02*
X142000000Y-117450000D01*
X140755736Y-108705736D02*
X139944264Y-108705736D01*
X128400000Y-119150000D02*
X140300000Y-119150000D01*
X142000000Y-109950000D02*
X140755736Y-108705736D01*
D26*
%TO.N,+4V5*%
X135400000Y-114450000D02*
X135400000Y-113800000D01*
X127400000Y-116750000D02*
X127400000Y-129550000D01*
D28*
X137329233Y-104806872D02*
X137272361Y-104750000D01*
D26*
X127400000Y-129550000D02*
X136700000Y-129550000D01*
X135400000Y-111650000D02*
X135900000Y-111150000D01*
X136700000Y-129550000D02*
X137100000Y-129950000D01*
X127400000Y-115550000D02*
X127400000Y-116750000D01*
D28*
X135900000Y-105150000D02*
X135900000Y-111150000D01*
D26*
X135400000Y-113800000D02*
X135400000Y-111650000D01*
D28*
X137272361Y-104750000D02*
X136300000Y-104750000D01*
X135900000Y-111150000D02*
X136250000Y-111500000D01*
D26*
X128500000Y-114450000D02*
X127400000Y-115550000D01*
D28*
X136300000Y-104750000D02*
X135900000Y-105150000D01*
D26*
X127400000Y-116750000D02*
X127400000Y-117050000D01*
X135400000Y-114450000D02*
X128500000Y-114450000D01*
D27*
%TO.N,+AUDIO_3V3*%
X125750000Y-98350000D02*
X125610000Y-98490000D01*
X134540000Y-109750000D02*
X133390000Y-108600000D01*
X125590000Y-105412500D02*
X125590000Y-101150000D01*
X125652500Y-107012500D02*
X125590000Y-106950000D01*
X132802500Y-107012500D02*
X125652500Y-107012500D01*
X133390000Y-108600000D02*
X133390000Y-107600000D01*
X125610000Y-101130000D02*
X125590000Y-101150000D01*
X125590000Y-104662500D02*
X125590000Y-106950000D01*
X134700000Y-109750000D02*
X134540000Y-109750000D01*
X125610000Y-98490000D02*
X125610000Y-101130000D01*
X133390000Y-107600000D02*
X132802500Y-107012500D01*
%TO.N,+1V1*%
X139420000Y-79520000D02*
X139350000Y-79450000D01*
X134161470Y-86310000D02*
X133975735Y-86124265D01*
X142262489Y-84727511D02*
X140680000Y-86310000D01*
X141466000Y-69426000D02*
X141690000Y-69650000D01*
X141690000Y-78770000D02*
X140940000Y-79520000D01*
X128350000Y-79150000D02*
X127300000Y-78100000D01*
X140940000Y-79520000D02*
X139420000Y-79520000D01*
X133970000Y-71850000D02*
X133970000Y-73350000D01*
X127300000Y-78100000D02*
X127300000Y-71380000D01*
X133300000Y-70680000D02*
X133970000Y-71350000D01*
X127300000Y-71380000D02*
X128000000Y-70680000D01*
X136394000Y-69426000D02*
X141466000Y-69426000D01*
X141690000Y-78770000D02*
X142262489Y-79342489D01*
X140680000Y-86310000D02*
X134161470Y-86310000D01*
X128000000Y-70680000D02*
X133300000Y-70680000D01*
D28*
X133970000Y-71350000D02*
X133970000Y-71850000D01*
D27*
X142262489Y-79342489D02*
X142262489Y-84727511D01*
X133970000Y-71850000D02*
X136394000Y-69426000D01*
X141690000Y-69650000D02*
X141690000Y-78770000D01*
%TD*%
%TA.AperFunction,Conductor*%
%TO.N,+3V3*%
G36*
X140893039Y-70096185D02*
G01*
X140938794Y-70148989D01*
X140950000Y-70200500D01*
X140950000Y-78538692D01*
X140930315Y-78605731D01*
X140913681Y-78626373D01*
X140706873Y-78833181D01*
X140645550Y-78866666D01*
X140619192Y-78869500D01*
X139952941Y-78869500D01*
X139885902Y-78849815D01*
X139865260Y-78833181D01*
X139860292Y-78828213D01*
X139860288Y-78828210D01*
X139729185Y-78740609D01*
X139729172Y-78740602D01*
X139583501Y-78680264D01*
X139583489Y-78680261D01*
X139428845Y-78649500D01*
X139428842Y-78649500D01*
X139271158Y-78649500D01*
X139271155Y-78649500D01*
X139116510Y-78680261D01*
X139116498Y-78680264D01*
X138970827Y-78740602D01*
X138970814Y-78740609D01*
X138839711Y-78828210D01*
X138839707Y-78828213D01*
X138728213Y-78939707D01*
X138728210Y-78939711D01*
X138640609Y-79070814D01*
X138640602Y-79070827D01*
X138580264Y-79216498D01*
X138580261Y-79216510D01*
X138549500Y-79371153D01*
X138549500Y-79528846D01*
X138580261Y-79683489D01*
X138580264Y-79683501D01*
X138640602Y-79829172D01*
X138640609Y-79829185D01*
X138728210Y-79960288D01*
X138728213Y-79960292D01*
X138839707Y-80071786D01*
X138839711Y-80071789D01*
X138970814Y-80159390D01*
X138970827Y-80159397D01*
X139116498Y-80219735D01*
X139116503Y-80219737D01*
X139233398Y-80242989D01*
X139271153Y-80250499D01*
X139271156Y-80250500D01*
X139271158Y-80250500D01*
X139428844Y-80250500D01*
X139428845Y-80250499D01*
X139505152Y-80235320D01*
X139583488Y-80219739D01*
X139583490Y-80219738D01*
X139583497Y-80219737D01*
X139679579Y-80179939D01*
X139727031Y-80170500D01*
X140826000Y-80170500D01*
X140893039Y-80190185D01*
X140938794Y-80242989D01*
X140950000Y-80294500D01*
X140950000Y-81667292D01*
X140930315Y-81734331D01*
X140929102Y-81736183D01*
X140902093Y-81776604D01*
X140841753Y-81922279D01*
X140841750Y-81922289D01*
X140814407Y-82059750D01*
X140782022Y-82121661D01*
X140761682Y-82138660D01*
X140663972Y-82203948D01*
X140552478Y-82315442D01*
X140552475Y-82315446D01*
X140464874Y-82446549D01*
X140464867Y-82446562D01*
X140404529Y-82592233D01*
X140404526Y-82592245D01*
X140373765Y-82746888D01*
X140373765Y-82746893D01*
X140373765Y-82904577D01*
X140373765Y-82904579D01*
X140373764Y-82904579D01*
X140374464Y-82908094D01*
X140374295Y-82909971D01*
X140374362Y-82910642D01*
X140374234Y-82910654D01*
X140368235Y-82977686D01*
X140325370Y-83032862D01*
X140259479Y-83056104D01*
X140198266Y-83042502D01*
X140198086Y-83042937D01*
X140195612Y-83041912D01*
X140194395Y-83041642D01*
X140192450Y-83040602D01*
X140046779Y-82980264D01*
X140046767Y-82980261D01*
X139892123Y-82949500D01*
X139892120Y-82949500D01*
X139734436Y-82949500D01*
X139734433Y-82949500D01*
X139579788Y-82980261D01*
X139579776Y-82980264D01*
X139434105Y-83040602D01*
X139434092Y-83040609D01*
X139302989Y-83128210D01*
X139302985Y-83128213D01*
X139191491Y-83239707D01*
X139191488Y-83239711D01*
X139103887Y-83370814D01*
X139103880Y-83370827D01*
X139043542Y-83516498D01*
X139043539Y-83516510D01*
X139012778Y-83671153D01*
X139012778Y-83828846D01*
X139043539Y-83983489D01*
X139043542Y-83983501D01*
X139103880Y-84129172D01*
X139103890Y-84129190D01*
X139160370Y-84213719D01*
X139181248Y-84280396D01*
X139178885Y-84306800D01*
X139148500Y-84459557D01*
X139148500Y-84617250D01*
X139179261Y-84771893D01*
X139179264Y-84771905D01*
X139239602Y-84917576D01*
X139239609Y-84917589D01*
X139327210Y-85048692D01*
X139327213Y-85048696D01*
X139438707Y-85160190D01*
X139438711Y-85160193D01*
X139569814Y-85247794D01*
X139569827Y-85247801D01*
X139715498Y-85308139D01*
X139715503Y-85308141D01*
X139870153Y-85338903D01*
X139870156Y-85338904D01*
X139870158Y-85338904D01*
X140027844Y-85338904D01*
X140027845Y-85338903D01*
X140182497Y-85308141D01*
X140328179Y-85247798D01*
X140459289Y-85160193D01*
X140570789Y-85048693D01*
X140658394Y-84917583D01*
X140711439Y-84789519D01*
X140755279Y-84735116D01*
X140821573Y-84713051D01*
X140889273Y-84730330D01*
X140936884Y-84781467D01*
X140950000Y-84836972D01*
X140950000Y-85068692D01*
X140930315Y-85135731D01*
X140913681Y-85156373D01*
X140446873Y-85623181D01*
X140385550Y-85656666D01*
X140359192Y-85659500D01*
X134693533Y-85659500D01*
X134626494Y-85639815D01*
X134602055Y-85618059D01*
X134601832Y-85618283D01*
X134597992Y-85614443D01*
X134597683Y-85614168D01*
X134597527Y-85613978D01*
X134486027Y-85502478D01*
X134486023Y-85502475D01*
X134354920Y-85414874D01*
X134354907Y-85414867D01*
X134209236Y-85354529D01*
X134209224Y-85354526D01*
X134054580Y-85323765D01*
X134054577Y-85323765D01*
X133896893Y-85323765D01*
X133896890Y-85323765D01*
X133742245Y-85354526D01*
X133742233Y-85354529D01*
X133596562Y-85414867D01*
X133596549Y-85414874D01*
X133465446Y-85502475D01*
X133465442Y-85502478D01*
X133353948Y-85613972D01*
X133353945Y-85613976D01*
X133266344Y-85745079D01*
X133266337Y-85745092D01*
X133205999Y-85890763D01*
X133205996Y-85890775D01*
X133175235Y-86045418D01*
X133175235Y-86203111D01*
X133205996Y-86357754D01*
X133205999Y-86357766D01*
X133266337Y-86503437D01*
X133266344Y-86503450D01*
X133353945Y-86634553D01*
X133353948Y-86634557D01*
X133465442Y-86746051D01*
X133465446Y-86746054D01*
X133596549Y-86833655D01*
X133596562Y-86833662D01*
X133724042Y-86886465D01*
X133742238Y-86894002D01*
X133896888Y-86924764D01*
X133896891Y-86924765D01*
X133896893Y-86924765D01*
X133921142Y-86924765D01*
X133968590Y-86934202D01*
X133971726Y-86935501D01*
X133971730Y-86935501D01*
X133971731Y-86935502D01*
X134097398Y-86960500D01*
X134097401Y-86960500D01*
X140744071Y-86960500D01*
X140801808Y-86949015D01*
X140871400Y-86955242D01*
X140926577Y-86998104D01*
X140949822Y-87063994D01*
X140950000Y-87070632D01*
X140950000Y-90087789D01*
X140947617Y-90111980D01*
X140947617Y-90111982D01*
X140935781Y-90171482D01*
X140917267Y-90216179D01*
X140890481Y-90256268D01*
X140856269Y-90290479D01*
X140821975Y-90313394D01*
X140816179Y-90317267D01*
X140771482Y-90335781D01*
X140747453Y-90340561D01*
X140711978Y-90347617D01*
X140687789Y-90350000D01*
X133976524Y-90350000D01*
X133929072Y-90340561D01*
X133783501Y-90280264D01*
X133783489Y-90280261D01*
X133628845Y-90249500D01*
X133628842Y-90249500D01*
X133471158Y-90249500D01*
X133471155Y-90249500D01*
X133316510Y-90280261D01*
X133316498Y-90280264D01*
X133170928Y-90340561D01*
X133123476Y-90350000D01*
X128212211Y-90350000D01*
X128188020Y-90347617D01*
X128173189Y-90344667D01*
X128128518Y-90335781D01*
X128083822Y-90317267D01*
X128043727Y-90290477D01*
X128009522Y-90256272D01*
X127982730Y-90216175D01*
X127964218Y-90171480D01*
X127952383Y-90111980D01*
X127950000Y-90087789D01*
X127950000Y-88291153D01*
X133544762Y-88291153D01*
X133544762Y-88448846D01*
X133575523Y-88603489D01*
X133575526Y-88603501D01*
X133635864Y-88749172D01*
X133635871Y-88749185D01*
X133723472Y-88880288D01*
X133723475Y-88880292D01*
X133834969Y-88991786D01*
X133834973Y-88991789D01*
X133966076Y-89079390D01*
X133966089Y-89079397D01*
X134111760Y-89139735D01*
X134111765Y-89139737D01*
X134266415Y-89170499D01*
X134266418Y-89170500D01*
X134266420Y-89170500D01*
X134424106Y-89170500D01*
X134424107Y-89170499D01*
X134578759Y-89139737D01*
X134724441Y-89079394D01*
X134855551Y-88991789D01*
X134967051Y-88880289D01*
X135054656Y-88749179D01*
X135114999Y-88603497D01*
X135145762Y-88448842D01*
X135145762Y-88291158D01*
X135145762Y-88291155D01*
X135145761Y-88291153D01*
X135115000Y-88136510D01*
X135114999Y-88136503D01*
X135114997Y-88136498D01*
X135054659Y-87990827D01*
X135054652Y-87990814D01*
X134967051Y-87859711D01*
X134967048Y-87859707D01*
X134855554Y-87748213D01*
X134855550Y-87748210D01*
X134724447Y-87660609D01*
X134724434Y-87660602D01*
X134578763Y-87600264D01*
X134578751Y-87600261D01*
X134424107Y-87569500D01*
X134424104Y-87569500D01*
X134266420Y-87569500D01*
X134266417Y-87569500D01*
X134111772Y-87600261D01*
X134111760Y-87600264D01*
X133966089Y-87660602D01*
X133966076Y-87660609D01*
X133834973Y-87748210D01*
X133834969Y-87748213D01*
X133723475Y-87859707D01*
X133723472Y-87859711D01*
X133635871Y-87990814D01*
X133635864Y-87990827D01*
X133575526Y-88136498D01*
X133575523Y-88136510D01*
X133544762Y-88291153D01*
X127950000Y-88291153D01*
X127950000Y-80036348D01*
X127969685Y-79969309D01*
X128022489Y-79923554D01*
X128091647Y-79913610D01*
X128110434Y-79918766D01*
X128110676Y-79917969D01*
X128116492Y-79919732D01*
X128116503Y-79919737D01*
X128229120Y-79942138D01*
X128271153Y-79950499D01*
X128271156Y-79950500D01*
X128271158Y-79950500D01*
X128428844Y-79950500D01*
X128428845Y-79950499D01*
X128583497Y-79919737D01*
X128729179Y-79859394D01*
X128860289Y-79771789D01*
X128971789Y-79660289D01*
X129059394Y-79529179D01*
X129119737Y-79383497D01*
X129121642Y-79373920D01*
X131549499Y-79373920D01*
X131578340Y-79518907D01*
X131578343Y-79518917D01*
X131634912Y-79655488D01*
X131634919Y-79655501D01*
X131717048Y-79778415D01*
X131717051Y-79778419D01*
X131821580Y-79882948D01*
X131821584Y-79882951D01*
X131879871Y-79921898D01*
X131924676Y-79975511D01*
X131933383Y-80044836D01*
X131903228Y-80107863D01*
X131879871Y-80128102D01*
X131821584Y-80167048D01*
X131821580Y-80167051D01*
X131717051Y-80271580D01*
X131717048Y-80271584D01*
X131634919Y-80394498D01*
X131634912Y-80394511D01*
X131578343Y-80531082D01*
X131578340Y-80531092D01*
X131549500Y-80676079D01*
X131549500Y-80676082D01*
X131549500Y-80823918D01*
X131549500Y-80823920D01*
X131549499Y-80823920D01*
X131578340Y-80968907D01*
X131578343Y-80968917D01*
X131634912Y-81105488D01*
X131634919Y-81105501D01*
X131717048Y-81228415D01*
X131717051Y-81228419D01*
X131821580Y-81332948D01*
X131821584Y-81332951D01*
X131879871Y-81371898D01*
X131924676Y-81425511D01*
X131933383Y-81494836D01*
X131903228Y-81557863D01*
X131879871Y-81578102D01*
X131821584Y-81617048D01*
X131821580Y-81617051D01*
X131717051Y-81721580D01*
X131717048Y-81721584D01*
X131634919Y-81844498D01*
X131634912Y-81844511D01*
X131578343Y-81981082D01*
X131578340Y-81981092D01*
X131549500Y-82126079D01*
X131549500Y-82126082D01*
X131549500Y-82273918D01*
X131549500Y-82273920D01*
X131549499Y-82273920D01*
X131578340Y-82418907D01*
X131578343Y-82418917D01*
X131634912Y-82555488D01*
X131634919Y-82555501D01*
X131717048Y-82678415D01*
X131717051Y-82678419D01*
X131821580Y-82782948D01*
X131821584Y-82782951D01*
X131944498Y-82865080D01*
X131944511Y-82865087D01*
X132052872Y-82909971D01*
X132081087Y-82921658D01*
X132081091Y-82921658D01*
X132081092Y-82921659D01*
X132226079Y-82950500D01*
X132226082Y-82950500D01*
X132373920Y-82950500D01*
X132471462Y-82931096D01*
X132518913Y-82921658D01*
X132639373Y-82871762D01*
X132655488Y-82865087D01*
X132655488Y-82865086D01*
X132655495Y-82865084D01*
X132778416Y-82782951D01*
X132882951Y-82678416D01*
X132921898Y-82620128D01*
X132975510Y-82575323D01*
X133044835Y-82566616D01*
X133107862Y-82596770D01*
X133128102Y-82620128D01*
X133167048Y-82678416D01*
X133271580Y-82782948D01*
X133271584Y-82782951D01*
X133394498Y-82865080D01*
X133394511Y-82865087D01*
X133502872Y-82909971D01*
X133531087Y-82921658D01*
X133531091Y-82921658D01*
X133531092Y-82921659D01*
X133676079Y-82950500D01*
X133676082Y-82950500D01*
X133823920Y-82950500D01*
X133921462Y-82931096D01*
X133968913Y-82921658D01*
X134089373Y-82871762D01*
X134105488Y-82865087D01*
X134105488Y-82865086D01*
X134105495Y-82865084D01*
X134228416Y-82782951D01*
X134332951Y-82678416D01*
X134371898Y-82620128D01*
X134425510Y-82575323D01*
X134494835Y-82566616D01*
X134557862Y-82596770D01*
X134578102Y-82620128D01*
X134617048Y-82678416D01*
X134721580Y-82782948D01*
X134721584Y-82782951D01*
X134844498Y-82865080D01*
X134844511Y-82865087D01*
X134952872Y-82909971D01*
X134981087Y-82921658D01*
X134981091Y-82921658D01*
X134981092Y-82921659D01*
X135126079Y-82950500D01*
X135126082Y-82950500D01*
X135273920Y-82950500D01*
X135371462Y-82931096D01*
X135418913Y-82921658D01*
X135539373Y-82871762D01*
X135555488Y-82865087D01*
X135555488Y-82865086D01*
X135555495Y-82865084D01*
X135678416Y-82782951D01*
X135782951Y-82678416D01*
X135865084Y-82555495D01*
X135921658Y-82418913D01*
X135931096Y-82371462D01*
X135950500Y-82273920D01*
X135950500Y-82126079D01*
X135921659Y-81981092D01*
X135921658Y-81981091D01*
X135921658Y-81981087D01*
X135897299Y-81922279D01*
X135865087Y-81844511D01*
X135865080Y-81844498D01*
X135782951Y-81721584D01*
X135782948Y-81721580D01*
X135678416Y-81617048D01*
X135620128Y-81578102D01*
X135575323Y-81524490D01*
X135566616Y-81455165D01*
X135596770Y-81392138D01*
X135620128Y-81371898D01*
X135678416Y-81332951D01*
X135782948Y-81228419D01*
X135782951Y-81228416D01*
X135865084Y-81105495D01*
X135921658Y-80968913D01*
X135950500Y-80823918D01*
X135950500Y-80676082D01*
X135950500Y-80676079D01*
X135921659Y-80531092D01*
X135921658Y-80531091D01*
X135921658Y-80531087D01*
X135921656Y-80531082D01*
X135865087Y-80394511D01*
X135865080Y-80394498D01*
X135782951Y-80271584D01*
X135782948Y-80271580D01*
X135678416Y-80167048D01*
X135620128Y-80128102D01*
X135575323Y-80074490D01*
X135566616Y-80005165D01*
X135596770Y-79942138D01*
X135620128Y-79921898D01*
X135678416Y-79882951D01*
X135782948Y-79778419D01*
X135782951Y-79778416D01*
X135865084Y-79655495D01*
X135921658Y-79518913D01*
X135948595Y-79383497D01*
X135950500Y-79373920D01*
X135950500Y-79226079D01*
X135921659Y-79081092D01*
X135921658Y-79081091D01*
X135921658Y-79081087D01*
X135917403Y-79070814D01*
X135865087Y-78944511D01*
X135865080Y-78944498D01*
X135782951Y-78821584D01*
X135782948Y-78821580D01*
X135678419Y-78717051D01*
X135678415Y-78717048D01*
X135555501Y-78634919D01*
X135555488Y-78634912D01*
X135418917Y-78578343D01*
X135418907Y-78578340D01*
X135273920Y-78549500D01*
X135273918Y-78549500D01*
X135126082Y-78549500D01*
X135126080Y-78549500D01*
X134981092Y-78578340D01*
X134981082Y-78578343D01*
X134844511Y-78634912D01*
X134844498Y-78634919D01*
X134721584Y-78717048D01*
X134721580Y-78717051D01*
X134617051Y-78821580D01*
X134617048Y-78821584D01*
X134578102Y-78879871D01*
X134524489Y-78924676D01*
X134455164Y-78933383D01*
X134392137Y-78903228D01*
X134371898Y-78879871D01*
X134332951Y-78821584D01*
X134332948Y-78821580D01*
X134228419Y-78717051D01*
X134228415Y-78717048D01*
X134105501Y-78634919D01*
X134105488Y-78634912D01*
X133968917Y-78578343D01*
X133968907Y-78578340D01*
X133823920Y-78549500D01*
X133823918Y-78549500D01*
X133676082Y-78549500D01*
X133676080Y-78549500D01*
X133531092Y-78578340D01*
X133531082Y-78578343D01*
X133394511Y-78634912D01*
X133394498Y-78634919D01*
X133271584Y-78717048D01*
X133271580Y-78717051D01*
X133167051Y-78821580D01*
X133167048Y-78821584D01*
X133128102Y-78879871D01*
X133074489Y-78924676D01*
X133005164Y-78933383D01*
X132942137Y-78903228D01*
X132921898Y-78879871D01*
X132882951Y-78821584D01*
X132882948Y-78821580D01*
X132778419Y-78717051D01*
X132778415Y-78717048D01*
X132655501Y-78634919D01*
X132655488Y-78634912D01*
X132518917Y-78578343D01*
X132518907Y-78578340D01*
X132373920Y-78549500D01*
X132373918Y-78549500D01*
X132226082Y-78549500D01*
X132226080Y-78549500D01*
X132081092Y-78578340D01*
X132081082Y-78578343D01*
X131944511Y-78634912D01*
X131944498Y-78634919D01*
X131821584Y-78717048D01*
X131821580Y-78717051D01*
X131717051Y-78821580D01*
X131717048Y-78821584D01*
X131634919Y-78944498D01*
X131634912Y-78944511D01*
X131578343Y-79081082D01*
X131578340Y-79081092D01*
X131549500Y-79226079D01*
X131549500Y-79226082D01*
X131549500Y-79373918D01*
X131549500Y-79373920D01*
X131549499Y-79373920D01*
X129121642Y-79373920D01*
X129150500Y-79228842D01*
X129150500Y-79071158D01*
X129150500Y-79071155D01*
X129150499Y-79071153D01*
X129125307Y-78944505D01*
X129119737Y-78916503D01*
X129085224Y-78833181D01*
X129059397Y-78770827D01*
X129059390Y-78770814D01*
X128971789Y-78639711D01*
X128971786Y-78639707D01*
X128860292Y-78528213D01*
X128860288Y-78528210D01*
X128729185Y-78440609D01*
X128729172Y-78440602D01*
X128583501Y-78380264D01*
X128583489Y-78380261D01*
X128516420Y-78366920D01*
X128454509Y-78334535D01*
X128452930Y-78332984D01*
X127986819Y-77866873D01*
X127953334Y-77805550D01*
X127950500Y-77779192D01*
X127950500Y-74371153D01*
X130149500Y-74371153D01*
X130149500Y-74528846D01*
X130180261Y-74683489D01*
X130180264Y-74683501D01*
X130240602Y-74829172D01*
X130240609Y-74829185D01*
X130328210Y-74960288D01*
X130328213Y-74960292D01*
X130439707Y-75071786D01*
X130439711Y-75071789D01*
X130570814Y-75159390D01*
X130570827Y-75159397D01*
X130716498Y-75219735D01*
X130716503Y-75219737D01*
X130871153Y-75250499D01*
X130871156Y-75250500D01*
X130871158Y-75250500D01*
X131028844Y-75250500D01*
X131028845Y-75250499D01*
X131183497Y-75219737D01*
X131329179Y-75159394D01*
X131460289Y-75071789D01*
X131571789Y-74960289D01*
X131659394Y-74829179D01*
X131719737Y-74683497D01*
X131750500Y-74528842D01*
X131750500Y-74371158D01*
X131750500Y-74371155D01*
X131750499Y-74371153D01*
X131723117Y-74233497D01*
X131719737Y-74216503D01*
X131692398Y-74150500D01*
X131659397Y-74070827D01*
X131659390Y-74070814D01*
X131571789Y-73939711D01*
X131571786Y-73939707D01*
X131460292Y-73828213D01*
X131460288Y-73828210D01*
X131329185Y-73740609D01*
X131329172Y-73740602D01*
X131183501Y-73680264D01*
X131183489Y-73680261D01*
X131028845Y-73649500D01*
X131028842Y-73649500D01*
X130871158Y-73649500D01*
X130871155Y-73649500D01*
X130716510Y-73680261D01*
X130716498Y-73680264D01*
X130570827Y-73740602D01*
X130570814Y-73740609D01*
X130439711Y-73828210D01*
X130439707Y-73828213D01*
X130328213Y-73939707D01*
X130328210Y-73939711D01*
X130240609Y-74070814D01*
X130240602Y-74070827D01*
X130180264Y-74216498D01*
X130180261Y-74216510D01*
X130149500Y-74371153D01*
X127950500Y-74371153D01*
X127950500Y-71700808D01*
X127970185Y-71633769D01*
X127986819Y-71613127D01*
X128233127Y-71366819D01*
X128294450Y-71333334D01*
X128320808Y-71330500D01*
X132979192Y-71330500D01*
X133008632Y-71339144D01*
X133038619Y-71345668D01*
X133043634Y-71349422D01*
X133046231Y-71350185D01*
X133066873Y-71366819D01*
X133175737Y-71475683D01*
X133209222Y-71537006D01*
X133204238Y-71606698D01*
X133202620Y-71610810D01*
X133200264Y-71616498D01*
X133200261Y-71616505D01*
X133169500Y-71771153D01*
X133169500Y-71928846D01*
X133200261Y-72083489D01*
X133200264Y-72083501D01*
X133239219Y-72177548D01*
X133246688Y-72247018D01*
X133239219Y-72272452D01*
X133200264Y-72366498D01*
X133200261Y-72366510D01*
X133169500Y-72521153D01*
X133169500Y-72678846D01*
X133200261Y-72833489D01*
X133200264Y-72833501D01*
X133239219Y-72927548D01*
X133246688Y-72997018D01*
X133239219Y-73022452D01*
X133200264Y-73116498D01*
X133200261Y-73116510D01*
X133169500Y-73271153D01*
X133169500Y-73428846D01*
X133200261Y-73583489D01*
X133200264Y-73583501D01*
X133260602Y-73729172D01*
X133260609Y-73729185D01*
X133348210Y-73860288D01*
X133348213Y-73860292D01*
X133459707Y-73971786D01*
X133459711Y-73971789D01*
X133590814Y-74059390D01*
X133590827Y-74059397D01*
X133736498Y-74119735D01*
X133736503Y-74119737D01*
X133891153Y-74150499D01*
X133891156Y-74150500D01*
X133891158Y-74150500D01*
X134048844Y-74150500D01*
X134048845Y-74150499D01*
X134203497Y-74119737D01*
X134321592Y-74070821D01*
X134349172Y-74059397D01*
X134349172Y-74059396D01*
X134349179Y-74059394D01*
X134480289Y-73971789D01*
X134530925Y-73921153D01*
X137019500Y-73921153D01*
X137019500Y-74078846D01*
X137050260Y-74233488D01*
X137050262Y-74233493D01*
X137050263Y-74233497D01*
X137078864Y-74302547D01*
X137078865Y-74302549D01*
X137086333Y-74372018D01*
X137078865Y-74397447D01*
X137050263Y-74466503D01*
X137050262Y-74466506D01*
X137050260Y-74466511D01*
X137019500Y-74621153D01*
X137019500Y-74778846D01*
X137050260Y-74933488D01*
X137050262Y-74933493D01*
X137050263Y-74933497D01*
X137061362Y-74960292D01*
X137078865Y-75002549D01*
X137086333Y-75072018D01*
X137078865Y-75097447D01*
X137050263Y-75166503D01*
X137050262Y-75166506D01*
X137050260Y-75166511D01*
X137019500Y-75321153D01*
X137019500Y-75478846D01*
X137050261Y-75633489D01*
X137050264Y-75633501D01*
X137110602Y-75779172D01*
X137110609Y-75779185D01*
X137198210Y-75910288D01*
X137198213Y-75910292D01*
X137309707Y-76021786D01*
X137309711Y-76021789D01*
X137440814Y-76109390D01*
X137440827Y-76109397D01*
X137586498Y-76169735D01*
X137586503Y-76169737D01*
X137741153Y-76200499D01*
X137741156Y-76200500D01*
X137741158Y-76200500D01*
X137898844Y-76200500D01*
X137898845Y-76200499D01*
X138053497Y-76169737D01*
X138199179Y-76109394D01*
X138330289Y-76021789D01*
X138441789Y-75910289D01*
X138529394Y-75779179D01*
X138589737Y-75633497D01*
X138620500Y-75478842D01*
X138620500Y-75321158D01*
X138620500Y-75321155D01*
X138620499Y-75321153D01*
X138600326Y-75219737D01*
X138589737Y-75166503D01*
X138561134Y-75097450D01*
X138553666Y-75027984D01*
X138561133Y-75002552D01*
X138589737Y-74933497D01*
X138620500Y-74778842D01*
X138620500Y-74621158D01*
X138620500Y-74621155D01*
X138620499Y-74621153D01*
X138602137Y-74528842D01*
X138589737Y-74466503D01*
X138561134Y-74397450D01*
X138553666Y-74327984D01*
X138561133Y-74302552D01*
X138589737Y-74233497D01*
X138620500Y-74078842D01*
X138620500Y-73921158D01*
X138620500Y-73921155D01*
X138620499Y-73921153D01*
X138602012Y-73828213D01*
X138589737Y-73766503D01*
X138589735Y-73766498D01*
X138529397Y-73620827D01*
X138529390Y-73620814D01*
X138441789Y-73489711D01*
X138441786Y-73489707D01*
X138330292Y-73378213D01*
X138330288Y-73378210D01*
X138199185Y-73290609D01*
X138199172Y-73290602D01*
X138053501Y-73230264D01*
X138053489Y-73230261D01*
X137898845Y-73199500D01*
X137898842Y-73199500D01*
X137741158Y-73199500D01*
X137741155Y-73199500D01*
X137586510Y-73230261D01*
X137586498Y-73230264D01*
X137440827Y-73290602D01*
X137440814Y-73290609D01*
X137309711Y-73378210D01*
X137309707Y-73378213D01*
X137198213Y-73489707D01*
X137198210Y-73489711D01*
X137110609Y-73620814D01*
X137110602Y-73620827D01*
X137050264Y-73766498D01*
X137050261Y-73766510D01*
X137019500Y-73921153D01*
X134530925Y-73921153D01*
X134591789Y-73860289D01*
X134679394Y-73729179D01*
X134739737Y-73583497D01*
X134770500Y-73428842D01*
X134770500Y-73271158D01*
X134770500Y-73271155D01*
X134770499Y-73271153D01*
X134739738Y-73116510D01*
X134739737Y-73116503D01*
X134700778Y-73022449D01*
X134693310Y-72952984D01*
X134700775Y-72927556D01*
X134739737Y-72833497D01*
X134770500Y-72678842D01*
X134770500Y-72521158D01*
X134770500Y-72521155D01*
X134770499Y-72521153D01*
X134739738Y-72366510D01*
X134739737Y-72366503D01*
X134700778Y-72272449D01*
X134698017Y-72246765D01*
X134691381Y-72221797D01*
X134694004Y-72209443D01*
X134693310Y-72202984D01*
X134697305Y-72187004D01*
X134698847Y-72182211D01*
X134739737Y-72083497D01*
X134754473Y-72009410D01*
X134756661Y-72002614D01*
X134772446Y-71979391D01*
X134785463Y-71954509D01*
X134786958Y-71952986D01*
X136627127Y-70112819D01*
X136688450Y-70079334D01*
X136714808Y-70076500D01*
X140826000Y-70076500D01*
X140893039Y-70096185D01*
G37*
%TD.AperFunction*%
%TD*%
M02*
