%TF.GenerationSoftware,KiCad,Pcbnew,9.0.7*%
%TF.CreationDate,2026-02-23T00:53:33+08:00*%
%TF.ProjectId,pumper,70756d70-6572-42e6-9b69-6361645f7063,rev?*%
%TF.SameCoordinates,Original*%
%TF.FileFunction,Soldermask,Top*%
%TF.FilePolarity,Negative*%
%FSLAX46Y46*%
G04 Gerber Fmt 4.6, Leading zero omitted, Abs format (unit mm)*
G04 Created by KiCad (PCBNEW 9.0.7) date 2026-02-23 00:53:33*
%MOMM*%
%LPD*%
G01*
G04 APERTURE LIST*
G04 Aperture macros list*
%AMRoundRect*
0 Rectangle with rounded corners*
0 $1 Rounding radius*
0 $2 $3 $4 $5 $6 $7 $8 $9 X,Y pos of 4 corners*
0 Add a 4 corners polygon primitive as box body*
4,1,4,$2,$3,$4,$5,$6,$7,$8,$9,$2,$3,0*
0 Add four circle primitives for the rounded corners*
1,1,$1+$1,$2,$3*
1,1,$1+$1,$4,$5*
1,1,$1+$1,$6,$7*
1,1,$1+$1,$8,$9*
0 Add four rect primitives between the rounded corners*
20,1,$1+$1,$2,$3,$4,$5,0*
20,1,$1+$1,$4,$5,$6,$7,0*
20,1,$1+$1,$6,$7,$8,$9,0*
20,1,$1+$1,$8,$9,$2,$3,0*%
G04 Aperture macros list end*
%ADD10C,0.010000*%
%ADD11RoundRect,0.159000X-0.189000X0.159000X-0.189000X-0.159000X0.189000X-0.159000X0.189000X0.159000X0*%
%ADD12RoundRect,0.159000X-0.159000X-0.189000X0.159000X-0.189000X0.159000X0.189000X-0.159000X0.189000X0*%
%ADD13R,1.000000X1.600000*%
%ADD14RoundRect,0.159000X0.159000X0.189000X-0.159000X0.189000X-0.159000X-0.189000X0.159000X-0.189000X0*%
%ADD15RoundRect,0.159000X0.189000X-0.159000X0.189000X0.159000X-0.189000X0.159000X-0.189000X-0.159000X0*%
%ADD16C,0.700000*%
%ADD17C,4.400000*%
%ADD18RoundRect,0.149250X0.447750X-0.572750X0.447750X0.572750X-0.447750X0.572750X-0.447750X-0.572750X0*%
%ADD19RoundRect,0.099250X0.297750X-0.622750X0.297750X0.622750X-0.297750X0.622750X-0.297750X-0.622750X0*%
%ADD20R,2.500000X1.200000*%
%ADD21RoundRect,0.100500X-0.986500X-0.301500X0.986500X-0.301500X0.986500X0.301500X-0.986500X0.301500X0*%
%ADD22R,0.800000X1.520000*%
%ADD23RoundRect,0.093750X-0.093750X-0.106250X0.093750X-0.106250X0.093750X0.106250X-0.093750X0.106250X0*%
%ADD24C,1.300000*%
%ADD25C,1.700000*%
%ADD26RoundRect,0.250000X0.600000X-0.600000X0.600000X0.600000X-0.600000X0.600000X-0.600000X-0.600000X0*%
%ADD27RoundRect,0.220000X0.220000X0.255000X-0.220000X0.255000X-0.220000X-0.255000X0.220000X-0.255000X0*%
%ADD28RoundRect,0.050000X-0.350000X-0.050000X0.350000X-0.050000X0.350000X0.050000X-0.350000X0.050000X0*%
%ADD29RoundRect,0.050000X-0.050000X-0.350000X0.050000X-0.350000X0.050000X0.350000X-0.050000X0.350000X0*%
%ADD30R,3.400000X3.400000*%
%ADD31RoundRect,0.219000X0.294000X-0.219000X0.294000X0.219000X-0.294000X0.219000X-0.294000X-0.219000X0*%
%ADD32R,1.950000X1.950000*%
%ADD33C,1.950000*%
%ADD34C,3.300000*%
%ADD35RoundRect,0.100000X0.100000X-0.637500X0.100000X0.637500X-0.100000X0.637500X-0.100000X-0.637500X0*%
%ADD36RoundRect,0.093750X0.106250X-0.093750X0.106250X0.093750X-0.106250X0.093750X-0.106250X-0.093750X0*%
%ADD37R,1.600000X1.000000*%
%ADD38R,1.400000X1.200000*%
%ADD39RoundRect,0.244000X-0.244000X-0.269000X0.244000X-0.269000X0.244000X0.269000X-0.244000X0.269000X0*%
%ADD40R,0.810000X0.860000*%
%ADD41RoundRect,0.062500X0.062500X-0.187500X0.062500X0.187500X-0.062500X0.187500X-0.062500X-0.187500X0*%
%ADD42R,2.650000X1.000000*%
%ADD43R,0.300000X1.400000*%
%ADD44R,0.500000X1.400000*%
%ADD45O,1.300000X2.300000*%
%ADD46O,1.300000X2.100000*%
%ADD47C,0.500000*%
%ADD48RoundRect,0.500000X2.000000X1.000000X-2.000000X1.000000X-2.000000X-1.000000X2.000000X-1.000000X0*%
G04 APERTURE END LIST*
D10*
%TO.C,U8*%
X129370000Y-130440000D02*
X128630000Y-130440000D01*
X128630000Y-130060000D01*
X129370000Y-130060000D01*
X129370000Y-130440000D01*
G36*
X129370000Y-130440000D02*
G01*
X128630000Y-130440000D01*
X128630000Y-130060000D01*
X129370000Y-130060000D01*
X129370000Y-130440000D01*
G37*
X129370000Y-130940000D02*
X128630000Y-130940000D01*
X128630000Y-130560000D01*
X129370000Y-130560000D01*
X129370000Y-130940000D01*
G36*
X129370000Y-130940000D02*
G01*
X128630000Y-130940000D01*
X128630000Y-130560000D01*
X129370000Y-130560000D01*
X129370000Y-130940000D01*
G37*
X129370000Y-131440000D02*
X128630000Y-131440000D01*
X128630000Y-131060000D01*
X129370000Y-131060000D01*
X129370000Y-131440000D01*
G36*
X129370000Y-131440000D02*
G01*
X128630000Y-131440000D01*
X128630000Y-131060000D01*
X129370000Y-131060000D01*
X129370000Y-131440000D01*
G37*
X129370000Y-131940000D02*
X128630000Y-131940000D01*
X128630000Y-131560000D01*
X129370000Y-131560000D01*
X129370000Y-131940000D01*
G36*
X129370000Y-131940000D02*
G01*
X128630000Y-131940000D01*
X128630000Y-131560000D01*
X129370000Y-131560000D01*
X129370000Y-131940000D01*
G37*
X129370000Y-132440000D02*
X128630000Y-132440000D01*
X128630000Y-132060000D01*
X129370000Y-132060000D01*
X129370000Y-132440000D01*
G36*
X129370000Y-132440000D02*
G01*
X128630000Y-132440000D01*
X128630000Y-132060000D01*
X129370000Y-132060000D01*
X129370000Y-132440000D01*
G37*
X132170000Y-130440000D02*
X131430000Y-130440000D01*
X131430000Y-130060000D01*
X132170000Y-130060000D01*
X132170000Y-130440000D01*
G36*
X132170000Y-130440000D02*
G01*
X131430000Y-130440000D01*
X131430000Y-130060000D01*
X132170000Y-130060000D01*
X132170000Y-130440000D01*
G37*
X132170000Y-130940000D02*
X131430000Y-130940000D01*
X131430000Y-130560000D01*
X132170000Y-130560000D01*
X132170000Y-130940000D01*
G36*
X132170000Y-130940000D02*
G01*
X131430000Y-130940000D01*
X131430000Y-130560000D01*
X132170000Y-130560000D01*
X132170000Y-130940000D01*
G37*
X132170000Y-131440000D02*
X131430000Y-131440000D01*
X131430000Y-131060000D01*
X132170000Y-131060000D01*
X132170000Y-131440000D01*
G36*
X132170000Y-131440000D02*
G01*
X131430000Y-131440000D01*
X131430000Y-131060000D01*
X132170000Y-131060000D01*
X132170000Y-131440000D01*
G37*
X132170000Y-131940000D02*
X131430000Y-131940000D01*
X131430000Y-131560000D01*
X132170000Y-131560000D01*
X132170000Y-131940000D01*
G36*
X132170000Y-131940000D02*
G01*
X131430000Y-131940000D01*
X131430000Y-131560000D01*
X132170000Y-131560000D01*
X132170000Y-131940000D01*
G37*
X132170000Y-132440000D02*
X131430000Y-132440000D01*
X131430000Y-132060000D01*
X132170000Y-132060000D01*
X132170000Y-132440000D01*
G36*
X132170000Y-132440000D02*
G01*
X131430000Y-132440000D01*
X131430000Y-132060000D01*
X132170000Y-132060000D01*
X132170000Y-132440000D01*
G37*
X130345000Y-129980000D02*
X130455000Y-129980000D01*
X130455000Y-129480000D01*
X130845000Y-129480000D01*
X130845000Y-129980000D01*
X131295000Y-129980000D01*
X131295000Y-132520000D01*
X130845000Y-132520000D01*
X130845000Y-133020000D01*
X130455000Y-133020000D01*
X130455000Y-132520000D01*
X130345000Y-132520000D01*
X130345000Y-133020000D01*
X129955000Y-133020000D01*
X129955000Y-132520000D01*
X129505000Y-132520000D01*
X129505000Y-129980000D01*
X129955000Y-129980000D01*
X129955000Y-129480000D01*
X130345000Y-129480000D01*
X130345000Y-129980000D01*
G36*
X130345000Y-129980000D02*
G01*
X130455000Y-129980000D01*
X130455000Y-129480000D01*
X130845000Y-129480000D01*
X130845000Y-129980000D01*
X131295000Y-129980000D01*
X131295000Y-132520000D01*
X130845000Y-132520000D01*
X130845000Y-133020000D01*
X130455000Y-133020000D01*
X130455000Y-132520000D01*
X130345000Y-132520000D01*
X130345000Y-133020000D01*
X129955000Y-133020000D01*
X129955000Y-132520000D01*
X129505000Y-132520000D01*
X129505000Y-129980000D01*
X129955000Y-129980000D01*
X129955000Y-129480000D01*
X130345000Y-129480000D01*
X130345000Y-129980000D01*
G37*
%TO.C,D5*%
X129413000Y-138331000D02*
X129419000Y-138331000D01*
X129425000Y-138333000D01*
X129431000Y-138334000D01*
X129437000Y-138336000D01*
X129443000Y-138338000D01*
X129449000Y-138340000D01*
X129454000Y-138343000D01*
X129460000Y-138346000D01*
X129465000Y-138349000D01*
X129471000Y-138353000D01*
X129476000Y-138357000D01*
X129480000Y-138361000D01*
X129485000Y-138365000D01*
X129489000Y-138370000D01*
X129493000Y-138374000D01*
X129497000Y-138379000D01*
X129501000Y-138385000D01*
X129504000Y-138390000D01*
X129507000Y-138396000D01*
X129510000Y-138401000D01*
X129512000Y-138407000D01*
X129514000Y-138413000D01*
X129516000Y-138419000D01*
X129517000Y-138425000D01*
X129519000Y-138431000D01*
X129519000Y-138437000D01*
X129520000Y-138444000D01*
X129520000Y-138450000D01*
X129520000Y-138650000D01*
X129520000Y-138656000D01*
X129519000Y-138663000D01*
X129519000Y-138669000D01*
X129517000Y-138675000D01*
X129516000Y-138681000D01*
X129514000Y-138687000D01*
X129512000Y-138693000D01*
X129510000Y-138699000D01*
X129507000Y-138704000D01*
X129504000Y-138710000D01*
X129501000Y-138715000D01*
X129497000Y-138721000D01*
X129493000Y-138726000D01*
X129489000Y-138730000D01*
X129485000Y-138735000D01*
X129480000Y-138739000D01*
X129476000Y-138743000D01*
X129471000Y-138747000D01*
X129465000Y-138751000D01*
X129460000Y-138754000D01*
X129454000Y-138757000D01*
X129449000Y-138760000D01*
X129443000Y-138762000D01*
X129437000Y-138764000D01*
X129431000Y-138766000D01*
X129425000Y-138767000D01*
X129419000Y-138769000D01*
X129413000Y-138769000D01*
X129406000Y-138770000D01*
X129400000Y-138770000D01*
X129000000Y-138770000D01*
X128994000Y-138770000D01*
X128987000Y-138769000D01*
X128981000Y-138769000D01*
X128975000Y-138767000D01*
X128969000Y-138766000D01*
X128963000Y-138764000D01*
X128957000Y-138762000D01*
X128951000Y-138760000D01*
X128946000Y-138757000D01*
X128940000Y-138754000D01*
X128935000Y-138751000D01*
X128929000Y-138747000D01*
X128924000Y-138743000D01*
X128920000Y-138739000D01*
X128915000Y-138735000D01*
X128911000Y-138730000D01*
X128907000Y-138726000D01*
X128903000Y-138721000D01*
X128899000Y-138715000D01*
X128896000Y-138710000D01*
X128893000Y-138704000D01*
X128890000Y-138699000D01*
X128888000Y-138693000D01*
X128886000Y-138687000D01*
X128884000Y-138681000D01*
X128883000Y-138675000D01*
X128881000Y-138669000D01*
X128881000Y-138663000D01*
X128880000Y-138656000D01*
X128880000Y-138650000D01*
X128880000Y-138450000D01*
X128880000Y-138444000D01*
X128881000Y-138437000D01*
X128881000Y-138431000D01*
X128883000Y-138425000D01*
X128884000Y-138419000D01*
X128886000Y-138413000D01*
X128888000Y-138407000D01*
X128890000Y-138401000D01*
X128893000Y-138396000D01*
X128896000Y-138390000D01*
X128899000Y-138385000D01*
X128903000Y-138379000D01*
X128907000Y-138374000D01*
X128911000Y-138370000D01*
X128915000Y-138365000D01*
X128920000Y-138361000D01*
X128924000Y-138357000D01*
X128929000Y-138353000D01*
X128935000Y-138349000D01*
X128940000Y-138346000D01*
X128946000Y-138343000D01*
X128951000Y-138340000D01*
X128957000Y-138338000D01*
X128963000Y-138336000D01*
X128969000Y-138334000D01*
X128975000Y-138333000D01*
X128981000Y-138331000D01*
X128987000Y-138331000D01*
X128994000Y-138330000D01*
X129000000Y-138330000D01*
X129400000Y-138330000D01*
X129406000Y-138330000D01*
X129413000Y-138331000D01*
G36*
X129413000Y-138331000D02*
G01*
X129419000Y-138331000D01*
X129425000Y-138333000D01*
X129431000Y-138334000D01*
X129437000Y-138336000D01*
X129443000Y-138338000D01*
X129449000Y-138340000D01*
X129454000Y-138343000D01*
X129460000Y-138346000D01*
X129465000Y-138349000D01*
X129471000Y-138353000D01*
X129476000Y-138357000D01*
X129480000Y-138361000D01*
X129485000Y-138365000D01*
X129489000Y-138370000D01*
X129493000Y-138374000D01*
X129497000Y-138379000D01*
X129501000Y-138385000D01*
X129504000Y-138390000D01*
X129507000Y-138396000D01*
X129510000Y-138401000D01*
X129512000Y-138407000D01*
X129514000Y-138413000D01*
X129516000Y-138419000D01*
X129517000Y-138425000D01*
X129519000Y-138431000D01*
X129519000Y-138437000D01*
X129520000Y-138444000D01*
X129520000Y-138450000D01*
X129520000Y-138650000D01*
X129520000Y-138656000D01*
X129519000Y-138663000D01*
X129519000Y-138669000D01*
X129517000Y-138675000D01*
X129516000Y-138681000D01*
X129514000Y-138687000D01*
X129512000Y-138693000D01*
X129510000Y-138699000D01*
X129507000Y-138704000D01*
X129504000Y-138710000D01*
X129501000Y-138715000D01*
X129497000Y-138721000D01*
X129493000Y-138726000D01*
X129489000Y-138730000D01*
X129485000Y-138735000D01*
X129480000Y-138739000D01*
X129476000Y-138743000D01*
X129471000Y-138747000D01*
X129465000Y-138751000D01*
X129460000Y-138754000D01*
X129454000Y-138757000D01*
X129449000Y-138760000D01*
X129443000Y-138762000D01*
X129437000Y-138764000D01*
X129431000Y-138766000D01*
X129425000Y-138767000D01*
X129419000Y-138769000D01*
X129413000Y-138769000D01*
X129406000Y-138770000D01*
X129400000Y-138770000D01*
X129000000Y-138770000D01*
X128994000Y-138770000D01*
X128987000Y-138769000D01*
X128981000Y-138769000D01*
X128975000Y-138767000D01*
X128969000Y-138766000D01*
X128963000Y-138764000D01*
X128957000Y-138762000D01*
X128951000Y-138760000D01*
X128946000Y-138757000D01*
X128940000Y-138754000D01*
X128935000Y-138751000D01*
X128929000Y-138747000D01*
X128924000Y-138743000D01*
X128920000Y-138739000D01*
X128915000Y-138735000D01*
X128911000Y-138730000D01*
X128907000Y-138726000D01*
X128903000Y-138721000D01*
X128899000Y-138715000D01*
X128896000Y-138710000D01*
X128893000Y-138704000D01*
X128890000Y-138699000D01*
X128888000Y-138693000D01*
X128886000Y-138687000D01*
X128884000Y-138681000D01*
X128883000Y-138675000D01*
X128881000Y-138669000D01*
X128881000Y-138663000D01*
X128880000Y-138656000D01*
X128880000Y-138650000D01*
X128880000Y-138450000D01*
X128880000Y-138444000D01*
X128881000Y-138437000D01*
X128881000Y-138431000D01*
X128883000Y-138425000D01*
X128884000Y-138419000D01*
X128886000Y-138413000D01*
X128888000Y-138407000D01*
X128890000Y-138401000D01*
X128893000Y-138396000D01*
X128896000Y-138390000D01*
X128899000Y-138385000D01*
X128903000Y-138379000D01*
X128907000Y-138374000D01*
X128911000Y-138370000D01*
X128915000Y-138365000D01*
X128920000Y-138361000D01*
X128924000Y-138357000D01*
X128929000Y-138353000D01*
X128935000Y-138349000D01*
X128940000Y-138346000D01*
X128946000Y-138343000D01*
X128951000Y-138340000D01*
X128957000Y-138338000D01*
X128963000Y-138336000D01*
X128969000Y-138334000D01*
X128975000Y-138333000D01*
X128981000Y-138331000D01*
X128987000Y-138331000D01*
X128994000Y-138330000D01*
X129000000Y-138330000D01*
X129400000Y-138330000D01*
X129406000Y-138330000D01*
X129413000Y-138331000D01*
G37*
X129413000Y-139031000D02*
X129419000Y-139031000D01*
X129425000Y-139033000D01*
X129431000Y-139034000D01*
X129437000Y-139036000D01*
X129443000Y-139038000D01*
X129449000Y-139040000D01*
X129454000Y-139043000D01*
X129460000Y-139046000D01*
X129465000Y-139049000D01*
X129471000Y-139053000D01*
X129476000Y-139057000D01*
X129480000Y-139061000D01*
X129485000Y-139065000D01*
X129489000Y-139070000D01*
X129493000Y-139074000D01*
X129497000Y-139079000D01*
X129501000Y-139085000D01*
X129504000Y-139090000D01*
X129507000Y-139096000D01*
X129510000Y-139101000D01*
X129512000Y-139107000D01*
X129514000Y-139113000D01*
X129516000Y-139119000D01*
X129517000Y-139125000D01*
X129519000Y-139131000D01*
X129519000Y-139137000D01*
X129520000Y-139144000D01*
X129520000Y-139150000D01*
X129520000Y-139350000D01*
X129520000Y-139356000D01*
X129519000Y-139363000D01*
X129519000Y-139369000D01*
X129517000Y-139375000D01*
X129516000Y-139381000D01*
X129514000Y-139387000D01*
X129512000Y-139393000D01*
X129510000Y-139399000D01*
X129507000Y-139404000D01*
X129504000Y-139410000D01*
X129501000Y-139415000D01*
X129497000Y-139421000D01*
X129493000Y-139426000D01*
X129489000Y-139430000D01*
X129485000Y-139435000D01*
X129480000Y-139439000D01*
X129476000Y-139443000D01*
X129471000Y-139447000D01*
X129465000Y-139451000D01*
X129460000Y-139454000D01*
X129454000Y-139457000D01*
X129449000Y-139460000D01*
X129443000Y-139462000D01*
X129437000Y-139464000D01*
X129431000Y-139466000D01*
X129425000Y-139467000D01*
X129419000Y-139469000D01*
X129413000Y-139469000D01*
X129406000Y-139470000D01*
X129400000Y-139470000D01*
X129000000Y-139470000D01*
X128994000Y-139470000D01*
X128987000Y-139469000D01*
X128981000Y-139469000D01*
X128975000Y-139467000D01*
X128969000Y-139466000D01*
X128963000Y-139464000D01*
X128957000Y-139462000D01*
X128951000Y-139460000D01*
X128946000Y-139457000D01*
X128940000Y-139454000D01*
X128935000Y-139451000D01*
X128929000Y-139447000D01*
X128924000Y-139443000D01*
X128920000Y-139439000D01*
X128915000Y-139435000D01*
X128911000Y-139430000D01*
X128907000Y-139426000D01*
X128903000Y-139421000D01*
X128899000Y-139415000D01*
X128896000Y-139410000D01*
X128893000Y-139404000D01*
X128890000Y-139399000D01*
X128888000Y-139393000D01*
X128886000Y-139387000D01*
X128884000Y-139381000D01*
X128883000Y-139375000D01*
X128881000Y-139369000D01*
X128881000Y-139363000D01*
X128880000Y-139356000D01*
X128880000Y-139350000D01*
X128880000Y-139150000D01*
X128880000Y-139144000D01*
X128881000Y-139137000D01*
X128881000Y-139131000D01*
X128883000Y-139125000D01*
X128884000Y-139119000D01*
X128886000Y-139113000D01*
X128888000Y-139107000D01*
X128890000Y-139101000D01*
X128893000Y-139096000D01*
X128896000Y-139090000D01*
X128899000Y-139085000D01*
X128903000Y-139079000D01*
X128907000Y-139074000D01*
X128911000Y-139070000D01*
X128915000Y-139065000D01*
X128920000Y-139061000D01*
X128924000Y-139057000D01*
X128929000Y-139053000D01*
X128935000Y-139049000D01*
X128940000Y-139046000D01*
X128946000Y-139043000D01*
X128951000Y-139040000D01*
X128957000Y-139038000D01*
X128963000Y-139036000D01*
X128969000Y-139034000D01*
X128975000Y-139033000D01*
X128981000Y-139031000D01*
X128987000Y-139031000D01*
X128994000Y-139030000D01*
X129000000Y-139030000D01*
X129400000Y-139030000D01*
X129406000Y-139030000D01*
X129413000Y-139031000D01*
G36*
X129413000Y-139031000D02*
G01*
X129419000Y-139031000D01*
X129425000Y-139033000D01*
X129431000Y-139034000D01*
X129437000Y-139036000D01*
X129443000Y-139038000D01*
X129449000Y-139040000D01*
X129454000Y-139043000D01*
X129460000Y-139046000D01*
X129465000Y-139049000D01*
X129471000Y-139053000D01*
X129476000Y-139057000D01*
X129480000Y-139061000D01*
X129485000Y-139065000D01*
X129489000Y-139070000D01*
X129493000Y-139074000D01*
X129497000Y-139079000D01*
X129501000Y-139085000D01*
X129504000Y-139090000D01*
X129507000Y-139096000D01*
X129510000Y-139101000D01*
X129512000Y-139107000D01*
X129514000Y-139113000D01*
X129516000Y-139119000D01*
X129517000Y-139125000D01*
X129519000Y-139131000D01*
X129519000Y-139137000D01*
X129520000Y-139144000D01*
X129520000Y-139150000D01*
X129520000Y-139350000D01*
X129520000Y-139356000D01*
X129519000Y-139363000D01*
X129519000Y-139369000D01*
X129517000Y-139375000D01*
X129516000Y-139381000D01*
X129514000Y-139387000D01*
X129512000Y-139393000D01*
X129510000Y-139399000D01*
X129507000Y-139404000D01*
X129504000Y-139410000D01*
X129501000Y-139415000D01*
X129497000Y-139421000D01*
X129493000Y-139426000D01*
X129489000Y-139430000D01*
X129485000Y-139435000D01*
X129480000Y-139439000D01*
X129476000Y-139443000D01*
X129471000Y-139447000D01*
X129465000Y-139451000D01*
X129460000Y-139454000D01*
X129454000Y-139457000D01*
X129449000Y-139460000D01*
X129443000Y-139462000D01*
X129437000Y-139464000D01*
X129431000Y-139466000D01*
X129425000Y-139467000D01*
X129419000Y-139469000D01*
X129413000Y-139469000D01*
X129406000Y-139470000D01*
X129400000Y-139470000D01*
X129000000Y-139470000D01*
X128994000Y-139470000D01*
X128987000Y-139469000D01*
X128981000Y-139469000D01*
X128975000Y-139467000D01*
X128969000Y-139466000D01*
X128963000Y-139464000D01*
X128957000Y-139462000D01*
X128951000Y-139460000D01*
X128946000Y-139457000D01*
X128940000Y-139454000D01*
X128935000Y-139451000D01*
X128929000Y-139447000D01*
X128924000Y-139443000D01*
X128920000Y-139439000D01*
X128915000Y-139435000D01*
X128911000Y-139430000D01*
X128907000Y-139426000D01*
X128903000Y-139421000D01*
X128899000Y-139415000D01*
X128896000Y-139410000D01*
X128893000Y-139404000D01*
X128890000Y-139399000D01*
X128888000Y-139393000D01*
X128886000Y-139387000D01*
X128884000Y-139381000D01*
X128883000Y-139375000D01*
X128881000Y-139369000D01*
X128881000Y-139363000D01*
X128880000Y-139356000D01*
X128880000Y-139350000D01*
X128880000Y-139150000D01*
X128880000Y-139144000D01*
X128881000Y-139137000D01*
X128881000Y-139131000D01*
X128883000Y-139125000D01*
X128884000Y-139119000D01*
X128886000Y-139113000D01*
X128888000Y-139107000D01*
X128890000Y-139101000D01*
X128893000Y-139096000D01*
X128896000Y-139090000D01*
X128899000Y-139085000D01*
X128903000Y-139079000D01*
X128907000Y-139074000D01*
X128911000Y-139070000D01*
X128915000Y-139065000D01*
X128920000Y-139061000D01*
X128924000Y-139057000D01*
X128929000Y-139053000D01*
X128935000Y-139049000D01*
X128940000Y-139046000D01*
X128946000Y-139043000D01*
X128951000Y-139040000D01*
X128957000Y-139038000D01*
X128963000Y-139036000D01*
X128969000Y-139034000D01*
X128975000Y-139033000D01*
X128981000Y-139031000D01*
X128987000Y-139031000D01*
X128994000Y-139030000D01*
X129000000Y-139030000D01*
X129400000Y-139030000D01*
X129406000Y-139030000D01*
X129413000Y-139031000D01*
G37*
%TO.C,D4*%
X131113000Y-136231000D02*
X131119000Y-136231000D01*
X131125000Y-136233000D01*
X131131000Y-136234000D01*
X131137000Y-136236000D01*
X131143000Y-136238000D01*
X131149000Y-136240000D01*
X131154000Y-136243000D01*
X131160000Y-136246000D01*
X131165000Y-136249000D01*
X131171000Y-136253000D01*
X131176000Y-136257000D01*
X131180000Y-136261000D01*
X131185000Y-136265000D01*
X131189000Y-136270000D01*
X131193000Y-136274000D01*
X131197000Y-136279000D01*
X131201000Y-136285000D01*
X131204000Y-136290000D01*
X131207000Y-136296000D01*
X131210000Y-136301000D01*
X131212000Y-136307000D01*
X131214000Y-136313000D01*
X131216000Y-136319000D01*
X131217000Y-136325000D01*
X131219000Y-136331000D01*
X131219000Y-136337000D01*
X131220000Y-136344000D01*
X131220000Y-136350000D01*
X131220000Y-136550000D01*
X131220000Y-136556000D01*
X131219000Y-136563000D01*
X131219000Y-136569000D01*
X131217000Y-136575000D01*
X131216000Y-136581000D01*
X131214000Y-136587000D01*
X131212000Y-136593000D01*
X131210000Y-136599000D01*
X131207000Y-136604000D01*
X131204000Y-136610000D01*
X131201000Y-136615000D01*
X131197000Y-136621000D01*
X131193000Y-136626000D01*
X131189000Y-136630000D01*
X131185000Y-136635000D01*
X131180000Y-136639000D01*
X131176000Y-136643000D01*
X131171000Y-136647000D01*
X131165000Y-136651000D01*
X131160000Y-136654000D01*
X131154000Y-136657000D01*
X131149000Y-136660000D01*
X131143000Y-136662000D01*
X131137000Y-136664000D01*
X131131000Y-136666000D01*
X131125000Y-136667000D01*
X131119000Y-136669000D01*
X131113000Y-136669000D01*
X131106000Y-136670000D01*
X131100000Y-136670000D01*
X130700000Y-136670000D01*
X130694000Y-136670000D01*
X130687000Y-136669000D01*
X130681000Y-136669000D01*
X130675000Y-136667000D01*
X130669000Y-136666000D01*
X130663000Y-136664000D01*
X130657000Y-136662000D01*
X130651000Y-136660000D01*
X130646000Y-136657000D01*
X130640000Y-136654000D01*
X130635000Y-136651000D01*
X130629000Y-136647000D01*
X130624000Y-136643000D01*
X130620000Y-136639000D01*
X130615000Y-136635000D01*
X130611000Y-136630000D01*
X130607000Y-136626000D01*
X130603000Y-136621000D01*
X130599000Y-136615000D01*
X130596000Y-136610000D01*
X130593000Y-136604000D01*
X130590000Y-136599000D01*
X130588000Y-136593000D01*
X130586000Y-136587000D01*
X130584000Y-136581000D01*
X130583000Y-136575000D01*
X130581000Y-136569000D01*
X130581000Y-136563000D01*
X130580000Y-136556000D01*
X130580000Y-136550000D01*
X130580000Y-136350000D01*
X130580000Y-136344000D01*
X130581000Y-136337000D01*
X130581000Y-136331000D01*
X130583000Y-136325000D01*
X130584000Y-136319000D01*
X130586000Y-136313000D01*
X130588000Y-136307000D01*
X130590000Y-136301000D01*
X130593000Y-136296000D01*
X130596000Y-136290000D01*
X130599000Y-136285000D01*
X130603000Y-136279000D01*
X130607000Y-136274000D01*
X130611000Y-136270000D01*
X130615000Y-136265000D01*
X130620000Y-136261000D01*
X130624000Y-136257000D01*
X130629000Y-136253000D01*
X130635000Y-136249000D01*
X130640000Y-136246000D01*
X130646000Y-136243000D01*
X130651000Y-136240000D01*
X130657000Y-136238000D01*
X130663000Y-136236000D01*
X130669000Y-136234000D01*
X130675000Y-136233000D01*
X130681000Y-136231000D01*
X130687000Y-136231000D01*
X130694000Y-136230000D01*
X130700000Y-136230000D01*
X131100000Y-136230000D01*
X131106000Y-136230000D01*
X131113000Y-136231000D01*
G36*
X131113000Y-136231000D02*
G01*
X131119000Y-136231000D01*
X131125000Y-136233000D01*
X131131000Y-136234000D01*
X131137000Y-136236000D01*
X131143000Y-136238000D01*
X131149000Y-136240000D01*
X131154000Y-136243000D01*
X131160000Y-136246000D01*
X131165000Y-136249000D01*
X131171000Y-136253000D01*
X131176000Y-136257000D01*
X131180000Y-136261000D01*
X131185000Y-136265000D01*
X131189000Y-136270000D01*
X131193000Y-136274000D01*
X131197000Y-136279000D01*
X131201000Y-136285000D01*
X131204000Y-136290000D01*
X131207000Y-136296000D01*
X131210000Y-136301000D01*
X131212000Y-136307000D01*
X131214000Y-136313000D01*
X131216000Y-136319000D01*
X131217000Y-136325000D01*
X131219000Y-136331000D01*
X131219000Y-136337000D01*
X131220000Y-136344000D01*
X131220000Y-136350000D01*
X131220000Y-136550000D01*
X131220000Y-136556000D01*
X131219000Y-136563000D01*
X131219000Y-136569000D01*
X131217000Y-136575000D01*
X131216000Y-136581000D01*
X131214000Y-136587000D01*
X131212000Y-136593000D01*
X131210000Y-136599000D01*
X131207000Y-136604000D01*
X131204000Y-136610000D01*
X131201000Y-136615000D01*
X131197000Y-136621000D01*
X131193000Y-136626000D01*
X131189000Y-136630000D01*
X131185000Y-136635000D01*
X131180000Y-136639000D01*
X131176000Y-136643000D01*
X131171000Y-136647000D01*
X131165000Y-136651000D01*
X131160000Y-136654000D01*
X131154000Y-136657000D01*
X131149000Y-136660000D01*
X131143000Y-136662000D01*
X131137000Y-136664000D01*
X131131000Y-136666000D01*
X131125000Y-136667000D01*
X131119000Y-136669000D01*
X131113000Y-136669000D01*
X131106000Y-136670000D01*
X131100000Y-136670000D01*
X130700000Y-136670000D01*
X130694000Y-136670000D01*
X130687000Y-136669000D01*
X130681000Y-136669000D01*
X130675000Y-136667000D01*
X130669000Y-136666000D01*
X130663000Y-136664000D01*
X130657000Y-136662000D01*
X130651000Y-136660000D01*
X130646000Y-136657000D01*
X130640000Y-136654000D01*
X130635000Y-136651000D01*
X130629000Y-136647000D01*
X130624000Y-136643000D01*
X130620000Y-136639000D01*
X130615000Y-136635000D01*
X130611000Y-136630000D01*
X130607000Y-136626000D01*
X130603000Y-136621000D01*
X130599000Y-136615000D01*
X130596000Y-136610000D01*
X130593000Y-136604000D01*
X130590000Y-136599000D01*
X130588000Y-136593000D01*
X130586000Y-136587000D01*
X130584000Y-136581000D01*
X130583000Y-136575000D01*
X130581000Y-136569000D01*
X130581000Y-136563000D01*
X130580000Y-136556000D01*
X130580000Y-136550000D01*
X130580000Y-136350000D01*
X130580000Y-136344000D01*
X130581000Y-136337000D01*
X130581000Y-136331000D01*
X130583000Y-136325000D01*
X130584000Y-136319000D01*
X130586000Y-136313000D01*
X130588000Y-136307000D01*
X130590000Y-136301000D01*
X130593000Y-136296000D01*
X130596000Y-136290000D01*
X130599000Y-136285000D01*
X130603000Y-136279000D01*
X130607000Y-136274000D01*
X130611000Y-136270000D01*
X130615000Y-136265000D01*
X130620000Y-136261000D01*
X130624000Y-136257000D01*
X130629000Y-136253000D01*
X130635000Y-136249000D01*
X130640000Y-136246000D01*
X130646000Y-136243000D01*
X130651000Y-136240000D01*
X130657000Y-136238000D01*
X130663000Y-136236000D01*
X130669000Y-136234000D01*
X130675000Y-136233000D01*
X130681000Y-136231000D01*
X130687000Y-136231000D01*
X130694000Y-136230000D01*
X130700000Y-136230000D01*
X131100000Y-136230000D01*
X131106000Y-136230000D01*
X131113000Y-136231000D01*
G37*
X131113000Y-136931000D02*
X131119000Y-136931000D01*
X131125000Y-136933000D01*
X131131000Y-136934000D01*
X131137000Y-136936000D01*
X131143000Y-136938000D01*
X131149000Y-136940000D01*
X131154000Y-136943000D01*
X131160000Y-136946000D01*
X131165000Y-136949000D01*
X131171000Y-136953000D01*
X131176000Y-136957000D01*
X131180000Y-136961000D01*
X131185000Y-136965000D01*
X131189000Y-136970000D01*
X131193000Y-136974000D01*
X131197000Y-136979000D01*
X131201000Y-136985000D01*
X131204000Y-136990000D01*
X131207000Y-136996000D01*
X131210000Y-137001000D01*
X131212000Y-137007000D01*
X131214000Y-137013000D01*
X131216000Y-137019000D01*
X131217000Y-137025000D01*
X131219000Y-137031000D01*
X131219000Y-137037000D01*
X131220000Y-137044000D01*
X131220000Y-137050000D01*
X131220000Y-137250000D01*
X131220000Y-137256000D01*
X131219000Y-137263000D01*
X131219000Y-137269000D01*
X131217000Y-137275000D01*
X131216000Y-137281000D01*
X131214000Y-137287000D01*
X131212000Y-137293000D01*
X131210000Y-137299000D01*
X131207000Y-137304000D01*
X131204000Y-137310000D01*
X131201000Y-137315000D01*
X131197000Y-137321000D01*
X131193000Y-137326000D01*
X131189000Y-137330000D01*
X131185000Y-137335000D01*
X131180000Y-137339000D01*
X131176000Y-137343000D01*
X131171000Y-137347000D01*
X131165000Y-137351000D01*
X131160000Y-137354000D01*
X131154000Y-137357000D01*
X131149000Y-137360000D01*
X131143000Y-137362000D01*
X131137000Y-137364000D01*
X131131000Y-137366000D01*
X131125000Y-137367000D01*
X131119000Y-137369000D01*
X131113000Y-137369000D01*
X131106000Y-137370000D01*
X131100000Y-137370000D01*
X130700000Y-137370000D01*
X130694000Y-137370000D01*
X130687000Y-137369000D01*
X130681000Y-137369000D01*
X130675000Y-137367000D01*
X130669000Y-137366000D01*
X130663000Y-137364000D01*
X130657000Y-137362000D01*
X130651000Y-137360000D01*
X130646000Y-137357000D01*
X130640000Y-137354000D01*
X130635000Y-137351000D01*
X130629000Y-137347000D01*
X130624000Y-137343000D01*
X130620000Y-137339000D01*
X130615000Y-137335000D01*
X130611000Y-137330000D01*
X130607000Y-137326000D01*
X130603000Y-137321000D01*
X130599000Y-137315000D01*
X130596000Y-137310000D01*
X130593000Y-137304000D01*
X130590000Y-137299000D01*
X130588000Y-137293000D01*
X130586000Y-137287000D01*
X130584000Y-137281000D01*
X130583000Y-137275000D01*
X130581000Y-137269000D01*
X130581000Y-137263000D01*
X130580000Y-137256000D01*
X130580000Y-137250000D01*
X130580000Y-137050000D01*
X130580000Y-137044000D01*
X130581000Y-137037000D01*
X130581000Y-137031000D01*
X130583000Y-137025000D01*
X130584000Y-137019000D01*
X130586000Y-137013000D01*
X130588000Y-137007000D01*
X130590000Y-137001000D01*
X130593000Y-136996000D01*
X130596000Y-136990000D01*
X130599000Y-136985000D01*
X130603000Y-136979000D01*
X130607000Y-136974000D01*
X130611000Y-136970000D01*
X130615000Y-136965000D01*
X130620000Y-136961000D01*
X130624000Y-136957000D01*
X130629000Y-136953000D01*
X130635000Y-136949000D01*
X130640000Y-136946000D01*
X130646000Y-136943000D01*
X130651000Y-136940000D01*
X130657000Y-136938000D01*
X130663000Y-136936000D01*
X130669000Y-136934000D01*
X130675000Y-136933000D01*
X130681000Y-136931000D01*
X130687000Y-136931000D01*
X130694000Y-136930000D01*
X130700000Y-136930000D01*
X131100000Y-136930000D01*
X131106000Y-136930000D01*
X131113000Y-136931000D01*
G36*
X131113000Y-136931000D02*
G01*
X131119000Y-136931000D01*
X131125000Y-136933000D01*
X131131000Y-136934000D01*
X131137000Y-136936000D01*
X131143000Y-136938000D01*
X131149000Y-136940000D01*
X131154000Y-136943000D01*
X131160000Y-136946000D01*
X131165000Y-136949000D01*
X131171000Y-136953000D01*
X131176000Y-136957000D01*
X131180000Y-136961000D01*
X131185000Y-136965000D01*
X131189000Y-136970000D01*
X131193000Y-136974000D01*
X131197000Y-136979000D01*
X131201000Y-136985000D01*
X131204000Y-136990000D01*
X131207000Y-136996000D01*
X131210000Y-137001000D01*
X131212000Y-137007000D01*
X131214000Y-137013000D01*
X131216000Y-137019000D01*
X131217000Y-137025000D01*
X131219000Y-137031000D01*
X131219000Y-137037000D01*
X131220000Y-137044000D01*
X131220000Y-137050000D01*
X131220000Y-137250000D01*
X131220000Y-137256000D01*
X131219000Y-137263000D01*
X131219000Y-137269000D01*
X131217000Y-137275000D01*
X131216000Y-137281000D01*
X131214000Y-137287000D01*
X131212000Y-137293000D01*
X131210000Y-137299000D01*
X131207000Y-137304000D01*
X131204000Y-137310000D01*
X131201000Y-137315000D01*
X131197000Y-137321000D01*
X131193000Y-137326000D01*
X131189000Y-137330000D01*
X131185000Y-137335000D01*
X131180000Y-137339000D01*
X131176000Y-137343000D01*
X131171000Y-137347000D01*
X131165000Y-137351000D01*
X131160000Y-137354000D01*
X131154000Y-137357000D01*
X131149000Y-137360000D01*
X131143000Y-137362000D01*
X131137000Y-137364000D01*
X131131000Y-137366000D01*
X131125000Y-137367000D01*
X131119000Y-137369000D01*
X131113000Y-137369000D01*
X131106000Y-137370000D01*
X131100000Y-137370000D01*
X130700000Y-137370000D01*
X130694000Y-137370000D01*
X130687000Y-137369000D01*
X130681000Y-137369000D01*
X130675000Y-137367000D01*
X130669000Y-137366000D01*
X130663000Y-137364000D01*
X130657000Y-137362000D01*
X130651000Y-137360000D01*
X130646000Y-137357000D01*
X130640000Y-137354000D01*
X130635000Y-137351000D01*
X130629000Y-137347000D01*
X130624000Y-137343000D01*
X130620000Y-137339000D01*
X130615000Y-137335000D01*
X130611000Y-137330000D01*
X130607000Y-137326000D01*
X130603000Y-137321000D01*
X130599000Y-137315000D01*
X130596000Y-137310000D01*
X130593000Y-137304000D01*
X130590000Y-137299000D01*
X130588000Y-137293000D01*
X130586000Y-137287000D01*
X130584000Y-137281000D01*
X130583000Y-137275000D01*
X130581000Y-137269000D01*
X130581000Y-137263000D01*
X130580000Y-137256000D01*
X130580000Y-137250000D01*
X130580000Y-137050000D01*
X130580000Y-137044000D01*
X130581000Y-137037000D01*
X130581000Y-137031000D01*
X130583000Y-137025000D01*
X130584000Y-137019000D01*
X130586000Y-137013000D01*
X130588000Y-137007000D01*
X130590000Y-137001000D01*
X130593000Y-136996000D01*
X130596000Y-136990000D01*
X130599000Y-136985000D01*
X130603000Y-136979000D01*
X130607000Y-136974000D01*
X130611000Y-136970000D01*
X130615000Y-136965000D01*
X130620000Y-136961000D01*
X130624000Y-136957000D01*
X130629000Y-136953000D01*
X130635000Y-136949000D01*
X130640000Y-136946000D01*
X130646000Y-136943000D01*
X130651000Y-136940000D01*
X130657000Y-136938000D01*
X130663000Y-136936000D01*
X130669000Y-136934000D01*
X130675000Y-136933000D01*
X130681000Y-136931000D01*
X130687000Y-136931000D01*
X130694000Y-136930000D01*
X130700000Y-136930000D01*
X131100000Y-136930000D01*
X131106000Y-136930000D01*
X131113000Y-136931000D01*
G37*
%TD*%
D11*
%TO.C,C10*%
X140020000Y-109710000D03*
X140020000Y-110710000D03*
%TD*%
D12*
%TO.C,C19*%
X139350000Y-81150000D03*
X140350000Y-81150000D03*
%TD*%
D13*
%TO.C,L1*%
X137020000Y-72400000D03*
X135020000Y-72400000D03*
%TD*%
D11*
%TO.C,C40*%
X128390000Y-110400000D03*
X128390000Y-111400000D03*
%TD*%
D12*
%TO.C,C20*%
X138750000Y-78250000D03*
X139750000Y-78250000D03*
%TD*%
D14*
%TO.C,C4*%
X130100000Y-96550000D03*
X129100000Y-96550000D03*
%TD*%
D15*
%TO.C,C5*%
X124500000Y-98250000D03*
X124500000Y-97250000D03*
%TD*%
D14*
%TO.C,C3*%
X128300000Y-62400000D03*
X127300000Y-62400000D03*
%TD*%
D12*
%TO.C,C39*%
X132250000Y-97120000D03*
X133250000Y-97120000D03*
%TD*%
D11*
%TO.C,R1*%
X135250000Y-63250000D03*
X135250000Y-64250000D03*
%TD*%
%TO.C,R6*%
X140850000Y-103700000D03*
X140850000Y-104700000D03*
%TD*%
D16*
%TO.C,H5*%
X122975000Y-144100000D03*
X123458274Y-142933274D03*
X123458274Y-145266726D03*
X124625000Y-142450000D03*
D17*
X124625000Y-144100000D03*
D16*
X124625000Y-145750000D03*
X125791726Y-142933274D03*
X125791726Y-145266726D03*
X126275000Y-144100000D03*
%TD*%
D15*
%TO.C,R3*%
X136250000Y-110710000D03*
X136250000Y-109710000D03*
%TD*%
D18*
%TO.C,D2*%
X132040000Y-66330000D03*
D19*
X133760000Y-66330000D03*
X133760000Y-64220000D03*
X131840000Y-64220000D03*
%TD*%
D14*
%TO.C,C27*%
X133100000Y-112800000D03*
X132100000Y-112800000D03*
%TD*%
%TO.C,C28*%
X133100000Y-111900000D03*
X132100000Y-111900000D03*
%TD*%
D15*
%TO.C,R7*%
X139960000Y-104700000D03*
X139960000Y-103700000D03*
%TD*%
D12*
%TO.C,C13*%
X139350000Y-80150000D03*
X140350000Y-80150000D03*
%TD*%
D15*
%TO.C,C25*%
X127850000Y-90400000D03*
X127850000Y-89400000D03*
%TD*%
D12*
%TO.C,C7*%
X138090000Y-109708260D03*
X139090000Y-109708260D03*
%TD*%
D20*
%TO.C,J3*%
X133700000Y-140450000D03*
X133700000Y-143450000D03*
X140200000Y-135350000D03*
X133700000Y-136450000D03*
%TD*%
D11*
%TO.C,C34*%
X137430000Y-120155000D03*
X137430000Y-121155000D03*
%TD*%
D21*
%TO.C,U6*%
X130085000Y-115295000D03*
X130085000Y-116565000D03*
X130085000Y-117835000D03*
X130085000Y-119105000D03*
X135025000Y-119105000D03*
X135025000Y-117835000D03*
X135025000Y-116565000D03*
X135025000Y-115295000D03*
%TD*%
D12*
%TO.C,C43*%
X135200000Y-128900000D03*
X136200000Y-128900000D03*
%TD*%
D15*
%TO.C,C31*%
X134000000Y-108000000D03*
X134000000Y-107000000D03*
%TD*%
D14*
%TO.C,R9*%
X139850000Y-75750000D03*
X138850000Y-75750000D03*
%TD*%
%TO.C,C16*%
X128400000Y-81950000D03*
X127400000Y-81950000D03*
%TD*%
D22*
%TO.C,SW2*%
X130100000Y-65650000D03*
X126800000Y-65650000D03*
%TD*%
D23*
%TO.C,U2*%
X126462500Y-97650000D03*
X126462500Y-98300000D03*
X126462500Y-98950000D03*
X128237500Y-98950000D03*
X128237500Y-98300000D03*
X128237500Y-97650000D03*
D13*
X127350000Y-98300000D03*
%TD*%
D12*
%TO.C,C36*%
X127390000Y-109350000D03*
X128390000Y-109350000D03*
%TD*%
D16*
%TO.C,H4*%
X151600000Y-56200000D03*
X152083274Y-55033274D03*
X152083274Y-57366726D03*
X153250000Y-54550000D03*
D17*
X153250000Y-56200000D03*
D16*
X153250000Y-57850000D03*
X154416726Y-55033274D03*
X154416726Y-57366726D03*
X154900000Y-56200000D03*
%TD*%
D11*
%TO.C,C18*%
X137100000Y-85650000D03*
X137100000Y-86650000D03*
%TD*%
%TO.C,C30*%
X124490000Y-101150000D03*
X124490000Y-102150000D03*
%TD*%
%TO.C,C1*%
X141000000Y-67850000D03*
X141000000Y-68850000D03*
%TD*%
D24*
%TO.C,H1*%
X149100000Y-56300000D03*
%TD*%
D16*
%TO.C,H3*%
X122975000Y-56200000D03*
X123458274Y-55033274D03*
X123458274Y-57366726D03*
X124625000Y-54550000D03*
D17*
X124625000Y-56200000D03*
D16*
X124625000Y-57850000D03*
X125791726Y-55033274D03*
X125791726Y-57366726D03*
X126275000Y-56200000D03*
%TD*%
D25*
%TO.C,J2*%
X129210000Y-93850000D03*
D26*
X131750000Y-93850000D03*
D25*
X134290000Y-93850000D03*
%TD*%
D27*
%TO.C,FB1*%
X133430000Y-109800000D03*
X131850000Y-109800000D03*
%TD*%
D28*
%TO.C,U4*%
X130300000Y-77950000D03*
X130300000Y-78350000D03*
X130300000Y-78750000D03*
X130300000Y-79150000D03*
X130300000Y-79550000D03*
X130300000Y-79950000D03*
X130300000Y-80350000D03*
X130300000Y-80750000D03*
X130300000Y-81150000D03*
X130300000Y-81550000D03*
X130300000Y-81950000D03*
X130300000Y-82350000D03*
X130300000Y-82750000D03*
X130300000Y-83150000D03*
X130300000Y-83550000D03*
D29*
X130950000Y-84200000D03*
X131350000Y-84200000D03*
X131750000Y-84200000D03*
X132150000Y-84200000D03*
X132550000Y-84200000D03*
X132950000Y-84200000D03*
X133350000Y-84200000D03*
X133750000Y-84200000D03*
X134150000Y-84200000D03*
X134550000Y-84200000D03*
X134950000Y-84200000D03*
X135350000Y-84200000D03*
X135750000Y-84200000D03*
X136150000Y-84200000D03*
X136550000Y-84200000D03*
D28*
X137200000Y-83550000D03*
X137200000Y-83150000D03*
X137200000Y-82750000D03*
X137200000Y-82350000D03*
X137200000Y-81950000D03*
X137200000Y-81550000D03*
X137200000Y-81150000D03*
X137200000Y-80750000D03*
X137200000Y-80350000D03*
X137200000Y-79950000D03*
X137200000Y-79550000D03*
X137200000Y-79150000D03*
X137200000Y-78750000D03*
X137200000Y-78350000D03*
X137200000Y-77950000D03*
D29*
X136550000Y-77300000D03*
X136150000Y-77300000D03*
X135750000Y-77300000D03*
X135350000Y-77300000D03*
X134950000Y-77300000D03*
X134550000Y-77300000D03*
X134150000Y-77300000D03*
X133750000Y-77300000D03*
X133350000Y-77300000D03*
X132950000Y-77300000D03*
X132550000Y-77300000D03*
X132150000Y-77300000D03*
X131750000Y-77300000D03*
X131350000Y-77300000D03*
X130950000Y-77300000D03*
D30*
X133750000Y-80750000D03*
%TD*%
D12*
%TO.C,C6*%
X138090000Y-110598260D03*
X139090000Y-110598260D03*
%TD*%
D15*
%TO.C,R12*%
X137050000Y-88650000D03*
X137050000Y-87650000D03*
%TD*%
D12*
%TO.C,C33*%
X129300000Y-121500000D03*
X130300000Y-121500000D03*
%TD*%
D14*
%TO.C,C15*%
X128350000Y-77900000D03*
X127350000Y-77900000D03*
%TD*%
%TO.C,C17*%
X130350000Y-85650000D03*
X129350000Y-85650000D03*
%TD*%
D31*
%TO.C,R11*%
X132550000Y-73520000D03*
X132550000Y-71880000D03*
%TD*%
D16*
%TO.C,H6*%
X151600000Y-144100000D03*
X152083274Y-142933274D03*
X152083274Y-145266726D03*
X153250000Y-142450000D03*
D17*
X153250000Y-144100000D03*
D16*
X153250000Y-145750000D03*
X154416726Y-142933274D03*
X154416726Y-145266726D03*
X154900000Y-144100000D03*
%TD*%
D32*
%TO.C,VR1*%
X148050000Y-134550000D03*
D33*
X145550000Y-134550000D03*
X148050000Y-64550000D03*
D32*
X153050000Y-134550000D03*
D33*
X150550000Y-134550000D03*
X153050000Y-64550000D03*
D34*
X149300000Y-124550000D03*
X149300000Y-77050000D03*
%TD*%
D12*
%TO.C,C38*%
X135200000Y-131550000D03*
X136200000Y-131550000D03*
%TD*%
%TO.C,C32*%
X129300000Y-120600000D03*
X130300000Y-120600000D03*
%TD*%
D11*
%TO.C,R15*%
X137430000Y-118155000D03*
X137430000Y-119155000D03*
%TD*%
D14*
%TO.C,C11*%
X128350000Y-79950000D03*
X127350000Y-79950000D03*
%TD*%
D11*
%TO.C,C41*%
X126300000Y-131350000D03*
X126300000Y-132350000D03*
%TD*%
D35*
%TO.C,U7*%
X126765000Y-107575000D03*
X127415000Y-107575000D03*
X128065000Y-107575000D03*
X128715000Y-107575000D03*
X129365000Y-107575000D03*
X130015000Y-107575000D03*
X130665000Y-107575000D03*
X131315000Y-107575000D03*
X131965000Y-107575000D03*
X132615000Y-107575000D03*
X132615000Y-101850000D03*
X131965000Y-101850000D03*
X131315000Y-101850000D03*
X130665000Y-101850000D03*
X130015000Y-101850000D03*
X129365000Y-101850000D03*
X128715000Y-101850000D03*
X128065000Y-101850000D03*
X127415000Y-101850000D03*
X126765000Y-101850000D03*
%TD*%
D11*
%TO.C,R17*%
X129800000Y-133750000D03*
X129800000Y-134750000D03*
%TD*%
%TO.C,R4*%
X137180000Y-109710000D03*
X137180000Y-110710000D03*
%TD*%
D12*
%TO.C,C37*%
X135200000Y-130600000D03*
X136200000Y-130600000D03*
%TD*%
%TO.C,C9*%
X137680000Y-104030000D03*
X138680000Y-104030000D03*
%TD*%
D15*
%TO.C,C44*%
X135000000Y-108000000D03*
X135000000Y-107000000D03*
%TD*%
D12*
%TO.C,R8*%
X129450000Y-75250000D03*
X130450000Y-75250000D03*
%TD*%
D36*
%TO.C,U1*%
X138450000Y-69712500D03*
X139100000Y-69712500D03*
X139750000Y-69712500D03*
X139750000Y-67937500D03*
X139100000Y-67937500D03*
X138450000Y-67937500D03*
D37*
X139100000Y-68825000D03*
%TD*%
D38*
%TO.C,U5*%
X130500000Y-89750000D03*
X132700000Y-89750000D03*
X132700000Y-88050000D03*
X130500000Y-88050000D03*
%TD*%
D15*
%TO.C,C35*%
X126730000Y-117950000D03*
X126730000Y-116950000D03*
%TD*%
D14*
%TO.C,R2*%
X128300000Y-61500000D03*
X127300000Y-61500000D03*
%TD*%
D39*
%TO.C,C23*%
X135240000Y-75400000D03*
X136800000Y-75400000D03*
%TD*%
D12*
%TO.C,R13*%
X132200000Y-86550000D03*
X133200000Y-86550000D03*
%TD*%
D11*
%TO.C,C29*%
X125590000Y-108350000D03*
X125590000Y-109350000D03*
%TD*%
D15*
%TO.C,R16*%
X128850000Y-134750000D03*
X128850000Y-133750000D03*
%TD*%
D12*
%TO.C,C8*%
X137670000Y-101910000D03*
X138670000Y-101910000D03*
%TD*%
D24*
%TO.C,H2*%
X129000000Y-145100000D03*
%TD*%
D40*
%TO.C,F1*%
X136900000Y-64750000D03*
X138400000Y-64750000D03*
%TD*%
D11*
%TO.C,C26*%
X134350000Y-89150000D03*
X134350000Y-90150000D03*
%TD*%
D31*
%TO.C,R10*%
X131150000Y-73500000D03*
X131150000Y-71860000D03*
%TD*%
D15*
%TO.C,R19*%
X129800000Y-128750000D03*
X129800000Y-127750000D03*
%TD*%
D11*
%TO.C,R14*%
X127880000Y-116950000D03*
X127880000Y-117950000D03*
%TD*%
%TO.C,R18*%
X128850000Y-127750000D03*
X128850000Y-128750000D03*
%TD*%
D12*
%TO.C,C21*%
X138750000Y-77350000D03*
X139750000Y-77350000D03*
%TD*%
D22*
%TO.C,SW1*%
X130100000Y-70350000D03*
X126800000Y-70350000D03*
%TD*%
D12*
%TO.C,C2*%
X138600000Y-71350000D03*
X139600000Y-71350000D03*
%TD*%
D41*
%TO.C,U3*%
X136950000Y-107800000D03*
X137450000Y-107800000D03*
X137950000Y-107800000D03*
X138450000Y-107800000D03*
X138950000Y-107800000D03*
X139450000Y-107800000D03*
X139450000Y-105900000D03*
X138950000Y-105900000D03*
X138450000Y-105900000D03*
X137950000Y-105900000D03*
X137450000Y-105900000D03*
X136950000Y-105900000D03*
D42*
X138200000Y-106850000D03*
%TD*%
D39*
%TO.C,C24*%
X135240000Y-74050000D03*
X136800000Y-74050000D03*
%TD*%
D11*
%TO.C,C12*%
X134340000Y-86950000D03*
X134340000Y-87950000D03*
%TD*%
D14*
%TO.C,C14*%
X132650000Y-75250000D03*
X131650000Y-75250000D03*
%TD*%
D15*
%TO.C,C22*%
X138750000Y-74750000D03*
X138750000Y-73750000D03*
%TD*%
D12*
%TO.C,C42*%
X135200000Y-128000000D03*
X136200000Y-128000000D03*
%TD*%
D14*
%TO.C,R5*%
X138670000Y-102790000D03*
X137670000Y-102790000D03*
%TD*%
%TO.C,R20*%
X127300000Y-130450000D03*
X126300000Y-130450000D03*
%TD*%
D43*
%TO.C,J1*%
X135300000Y-60550000D03*
X134300000Y-60550000D03*
X133800000Y-60550000D03*
X132800000Y-60550000D03*
D44*
X131650000Y-60550000D03*
X130850000Y-60550000D03*
D43*
X132300000Y-60550000D03*
X133300000Y-60550000D03*
X134800000Y-60550000D03*
X135800000Y-60550000D03*
D44*
X136450000Y-60550000D03*
X137250000Y-60550000D03*
D45*
X138380000Y-59870000D03*
D46*
X138380000Y-55670000D03*
D47*
X136050000Y-57050000D03*
X136050000Y-55050000D03*
D48*
X134050000Y-56050000D03*
D47*
X132050000Y-57050000D03*
X132050000Y-55050000D03*
D45*
X129720000Y-59870000D03*
D46*
X129720000Y-55670000D03*
%TD*%
M02*
