%TF.GenerationSoftware,KiCad,Pcbnew,9.0.7*%
%TF.CreationDate,2026-03-06T23:58:07+08:00*%
%TF.ProjectId,pumper,70756d70-6572-42e6-9b69-6361645f7063,rev?*%
%TF.SameCoordinates,Original*%
%TF.FileFunction,Copper,L1,Top*%
%TF.FilePolarity,Positive*%
%FSLAX46Y46*%
G04 Gerber Fmt 4.6, Leading zero omitted, Abs format (unit mm)*
G04 Created by KiCad (PCBNEW 9.0.7) date 2026-03-06 23:58:07*
%MOMM*%
%LPD*%
G01*
G04 APERTURE LIST*
G04 Aperture macros list*
%AMRoundRect*
0 Rectangle with rounded corners*
0 $1 Rounding radius*
0 $2 $3 $4 $5 $6 $7 $8 $9 X,Y pos of 4 corners*
0 Add a 4 corners polygon primitive as box body*
4,1,4,$2,$3,$4,$5,$6,$7,$8,$9,$2,$3,0*
0 Add four circle primitives for the rounded corners*
1,1,$1+$1,$2,$3*
1,1,$1+$1,$4,$5*
1,1,$1+$1,$6,$7*
1,1,$1+$1,$8,$9*
0 Add four rect primitives between the rounded corners*
20,1,$1+$1,$2,$3,$4,$5,0*
20,1,$1+$1,$4,$5,$6,$7,0*
20,1,$1+$1,$6,$7,$8,$9,0*
20,1,$1+$1,$8,$9,$2,$3,0*%
%AMFreePoly0*
4,1,45,-0.121464,1.703536,-0.120000,1.700000,-0.120000,1.205000,0.120000,1.205000,0.120000,1.700000,0.121464,1.703536,0.125000,1.705000,0.375000,1.705000,0.378536,1.703536,0.380000,1.700000,0.380000,1.205000,0.825000,1.205000,0.828536,1.203536,0.830000,1.200000,0.830000,-1.200000,0.828536,-1.203536,0.825000,-1.205000,0.380000,-1.205000,0.380000,-1.700000,0.378536,-1.703536,
0.375000,-1.705000,0.125000,-1.705000,0.121464,-1.703536,0.120000,-1.700000,0.120000,-1.205000,-0.120000,-1.205000,-0.120000,-1.700000,-0.121464,-1.703536,-0.125000,-1.705000,-0.375000,-1.705000,-0.378536,-1.703536,-0.380000,-1.700000,-0.380000,-1.205000,-0.825000,-1.205000,-0.828536,-1.203536,-0.830000,-1.200000,-0.830000,1.200000,-0.828536,1.203536,-0.825000,1.205000,-0.380000,1.205000,
-0.380000,1.700000,-0.378536,1.703536,-0.375000,1.705000,-0.125000,1.705000,-0.121464,1.703536,-0.121464,1.703536,$1*%
G04 Aperture macros list end*
%TA.AperFunction,SMDPad,CuDef*%
%ADD10RoundRect,0.140000X0.170000X-0.140000X0.170000X0.140000X-0.170000X0.140000X-0.170000X-0.140000X0*%
%TD*%
%TA.AperFunction,SMDPad,CuDef*%
%ADD11RoundRect,0.140000X-0.140000X-0.170000X0.140000X-0.170000X0.140000X0.170000X-0.140000X0.170000X0*%
%TD*%
%TA.AperFunction,SMDPad,CuDef*%
%ADD12R,1.000000X1.600000*%
%TD*%
%TA.AperFunction,SMDPad,CuDef*%
%ADD13RoundRect,0.140000X-0.170000X0.140000X-0.170000X-0.140000X0.170000X-0.140000X0.170000X0.140000X0*%
%TD*%
%TA.AperFunction,SMDPad,CuDef*%
%ADD14RoundRect,0.140000X0.140000X0.170000X-0.140000X0.170000X-0.140000X-0.170000X0.140000X-0.170000X0*%
%TD*%
%TA.AperFunction,ComponentPad*%
%ADD15C,0.700000*%
%TD*%
%TA.AperFunction,ComponentPad*%
%ADD16C,4.400000*%
%TD*%
%TA.AperFunction,SMDPad,CuDef*%
%ADD17RoundRect,0.220000X-0.255000X0.220000X-0.255000X-0.220000X0.255000X-0.220000X0.255000X0.220000X0*%
%TD*%
%TA.AperFunction,SMDPad,CuDef*%
%ADD18RoundRect,0.123750X0.371250X-0.496250X0.371250X0.496250X-0.371250X0.496250X-0.371250X-0.496250X0*%
%TD*%
%TA.AperFunction,SMDPad,CuDef*%
%ADD19RoundRect,0.073750X0.221250X-0.546250X0.221250X0.546250X-0.221250X0.546250X-0.221250X-0.546250X0*%
%TD*%
%TA.AperFunction,SMDPad,CuDef*%
%ADD20RoundRect,0.030000X0.270000X0.090000X-0.270000X0.090000X-0.270000X-0.090000X0.270000X-0.090000X0*%
%TD*%
%TA.AperFunction,SMDPad,CuDef*%
%ADD21FreePoly0,180.000000*%
%TD*%
%TA.AperFunction,ComponentPad*%
%ADD22C,0.300000*%
%TD*%
%TA.AperFunction,SMDPad,CuDef*%
%ADD23RoundRect,0.200000X0.275000X-0.200000X0.275000X0.200000X-0.275000X0.200000X-0.275000X-0.200000X0*%
%TD*%
%TA.AperFunction,SMDPad,CuDef*%
%ADD24R,2.500000X1.200000*%
%TD*%
%TA.AperFunction,SMDPad,CuDef*%
%ADD25RoundRect,0.075000X-0.910000X-0.225000X0.910000X-0.225000X0.910000X0.225000X-0.910000X0.225000X0*%
%TD*%
%TA.AperFunction,SMDPad,CuDef*%
%ADD26R,0.800000X1.520000*%
%TD*%
%TA.AperFunction,SMDPad,CuDef*%
%ADD27RoundRect,0.093750X0.106250X-0.093750X0.106250X0.093750X-0.106250X0.093750X-0.106250X-0.093750X0*%
%TD*%
%TA.AperFunction,HeatsinkPad*%
%ADD28C,0.500000*%
%TD*%
%TA.AperFunction,HeatsinkPad*%
%ADD29R,1.600000X1.000000*%
%TD*%
%TA.AperFunction,SMDPad,CuDef*%
%ADD30RoundRect,0.220000X0.220000X0.255000X-0.220000X0.255000X-0.220000X-0.255000X0.220000X-0.255000X0*%
%TD*%
%TA.AperFunction,SMDPad,CuDef*%
%ADD31RoundRect,0.050000X-0.350000X-0.050000X0.350000X-0.050000X0.350000X0.050000X-0.350000X0.050000X0*%
%TD*%
%TA.AperFunction,SMDPad,CuDef*%
%ADD32RoundRect,0.050000X-0.050000X-0.350000X0.050000X-0.350000X0.050000X0.350000X-0.050000X0.350000X0*%
%TD*%
%TA.AperFunction,HeatsinkPad*%
%ADD33R,3.400000X3.400000*%
%TD*%
%TA.AperFunction,ComponentPad*%
%ADD34R,1.950000X1.950000*%
%TD*%
%TA.AperFunction,ComponentPad*%
%ADD35C,1.950000*%
%TD*%
%TA.AperFunction,ComponentPad*%
%ADD36C,3.300000*%
%TD*%
%TA.AperFunction,SMDPad,CuDef*%
%ADD37RoundRect,0.225000X0.225000X0.250000X-0.225000X0.250000X-0.225000X-0.250000X0.225000X-0.250000X0*%
%TD*%
%TA.AperFunction,SMDPad,CuDef*%
%ADD38RoundRect,0.052500X0.197500X-0.097500X0.197500X0.097500X-0.197500X0.097500X-0.197500X-0.097500X0*%
%TD*%
%TA.AperFunction,SMDPad,CuDef*%
%ADD39RoundRect,0.100000X0.100000X-0.637500X0.100000X0.637500X-0.100000X0.637500X-0.100000X-0.637500X0*%
%TD*%
%TA.AperFunction,SMDPad,CuDef*%
%ADD40R,1.400000X1.200000*%
%TD*%
%TA.AperFunction,SMDPad,CuDef*%
%ADD41RoundRect,0.225000X-0.225000X-0.250000X0.225000X-0.250000X0.225000X0.250000X-0.225000X0.250000X0*%
%TD*%
%TA.AperFunction,SMDPad,CuDef*%
%ADD42RoundRect,0.225000X-0.250000X0.225000X-0.250000X-0.225000X0.250000X-0.225000X0.250000X0.225000X0*%
%TD*%
%TA.AperFunction,SMDPad,CuDef*%
%ADD43R,0.860000X0.810000*%
%TD*%
%TA.AperFunction,SMDPad,CuDef*%
%ADD44RoundRect,0.062500X0.187500X0.062500X-0.187500X0.062500X-0.187500X-0.062500X0.187500X-0.062500X0*%
%TD*%
%TA.AperFunction,ComponentPad*%
%ADD45C,0.600000*%
%TD*%
%TA.AperFunction,SMDPad,CuDef*%
%ADD46R,1.000000X2.650000*%
%TD*%
%TA.AperFunction,SMDPad,CuDef*%
%ADD47R,0.300000X1.400000*%
%TD*%
%TA.AperFunction,SMDPad,CuDef*%
%ADD48R,0.500000X1.400000*%
%TD*%
%TA.AperFunction,ComponentPad*%
%ADD49O,1.300000X2.300000*%
%TD*%
%TA.AperFunction,ComponentPad*%
%ADD50O,1.300000X2.100000*%
%TD*%
%TA.AperFunction,ComponentPad*%
%ADD51C,0.500000*%
%TD*%
%TA.AperFunction,SMDPad,CuDef*%
%ADD52RoundRect,0.500000X2.000000X1.000000X-2.000000X1.000000X-2.000000X-1.000000X2.000000X-1.000000X0*%
%TD*%
%TA.AperFunction,ViaPad*%
%ADD53C,0.450000*%
%TD*%
%TA.AperFunction,ViaPad*%
%ADD54C,0.600000*%
%TD*%
%TA.AperFunction,Conductor*%
%ADD55C,0.300000*%
%TD*%
%TA.AperFunction,Conductor*%
%ADD56C,0.200000*%
%TD*%
%TA.AperFunction,Conductor*%
%ADD57C,0.500000*%
%TD*%
%TA.AperFunction,Conductor*%
%ADD58C,0.250000*%
%TD*%
G04 APERTURE END LIST*
D10*
%TO.P,C9,2*%
%TO.N,Net-(U3-C-)*%
X142908928Y-59800000D03*
%TO.P,C9,1*%
%TO.N,Net-(U3-C+)*%
X142908928Y-60800000D03*
%TD*%
D11*
%TO.P,C10,1*%
%TO.N,Net-(U3-CP)*%
X148588928Y-58459775D03*
%TO.P,C10,2*%
%TO.N,GND*%
X149588928Y-58459775D03*
%TD*%
%TO.P,C20,1*%
%TO.N,+3V3*%
X139350000Y-81150000D03*
%TO.P,C20,2*%
%TO.N,GND*%
X140350000Y-81150000D03*
%TD*%
D12*
%TO.P,L1,1,1*%
%TO.N,Net-(U4-VREG_LX)*%
X137020000Y-72400000D03*
%TO.P,L1,2,2*%
%TO.N,+1V1*%
X135020000Y-72400000D03*
%TD*%
D13*
%TO.P,C44,1*%
%TO.N,Net-(U7-VNEG)*%
X132325000Y-111950000D03*
%TO.P,C44,2*%
%TO.N,GND*%
X132325000Y-112950000D03*
%TD*%
D11*
%TO.P,C21,1*%
%TO.N,+3V3*%
X138750000Y-78250000D03*
%TO.P,C21,2*%
%TO.N,GND*%
X139750000Y-78250000D03*
%TD*%
D13*
%TO.P,C4,1*%
%TO.N,VBUS*%
X124750000Y-97150000D03*
%TO.P,C4,2*%
%TO.N,GND*%
X124750000Y-98150000D03*
%TD*%
D14*
%TO.P,C5,1*%
%TO.N,+AUDIO_3V3*%
X126450000Y-102750000D03*
%TO.P,C5,2*%
%TO.N,GND*%
X125450000Y-102750000D03*
%TD*%
%TO.P,C3,1*%
%TO.N,VBUS*%
X129600000Y-62500000D03*
%TO.P,C3,2*%
%TO.N,GND*%
X128600000Y-62500000D03*
%TD*%
D10*
%TO.P,C43,1*%
%TO.N,Net-(U7-LDOO)*%
X132000000Y-100400000D03*
%TO.P,C43,2*%
%TO.N,GND*%
X132000000Y-99400000D03*
%TD*%
D13*
%TO.P,R1,1*%
%TO.N,Net-(J1-CC1)*%
X135250000Y-63250000D03*
%TO.P,R1,2*%
%TO.N,GND*%
X135250000Y-64250000D03*
%TD*%
D11*
%TO.P,R6,1*%
%TO.N,GND*%
X142578928Y-57629775D03*
%TO.P,R6,2*%
%TO.N,Net-(U3-FB-)*%
X143578928Y-57629775D03*
%TD*%
D15*
%TO.P,H5,1,1*%
%TO.N,GND*%
X123375000Y-143700000D03*
X123858274Y-142533274D03*
X123858274Y-144866726D03*
X125025000Y-142050000D03*
D16*
X125025000Y-143700000D03*
D15*
X125025000Y-145350000D03*
X126191726Y-142533274D03*
X126191726Y-144866726D03*
X126675000Y-143700000D03*
%TD*%
D14*
%TO.P,R3,1*%
%TO.N,+4V5*%
X149588928Y-62229775D03*
%TO.P,R3,2*%
%TO.N,Net-(U3-FB+)*%
X148588928Y-62229775D03*
%TD*%
D17*
%TO.P,D2,1,K*%
%TO.N,/MCU/GP9*%
X148600000Y-141810000D03*
%TO.P,D2,2,A*%
%TO.N,Net-(D2-A)*%
X148600000Y-143390000D03*
%TD*%
D18*
%TO.P,D1,1*%
%TO.N,GND*%
X132040000Y-66330000D03*
D19*
%TO.P,D1,2*%
%TO.N,2350DN*%
X133760000Y-66330000D03*
%TO.P,D1,3*%
%TO.N,2350DP*%
X133760000Y-64220000D03*
%TO.P,D1,4*%
%TO.N,VBUS*%
X131840000Y-64220000D03*
%TD*%
D14*
%TO.P,C30,1*%
%TO.N,+4V5*%
X138700000Y-118300000D03*
%TO.P,C30,2*%
%TO.N,GND*%
X137700000Y-118300000D03*
%TD*%
D20*
%TO.P,U8,1,+INA*%
%TO.N,/Audio processing/VOLOUTL*%
X131800000Y-132250000D03*
%TO.P,U8,2,V+*%
%TO.N,+4V5*%
X131800000Y-131750000D03*
%TO.P,U8,3,GND*%
%TO.N,GND*%
X131800000Y-131250000D03*
%TO.P,U8,4,V-*%
%TO.N,-4V5*%
X131800000Y-130750000D03*
%TO.P,U8,5,+INB*%
%TO.N,/Audio processing/VOLOUTR*%
X131800000Y-130250000D03*
%TO.P,U8,6,-INB*%
%TO.N,Net-(U8--INB)*%
X129000000Y-130250000D03*
%TO.P,U8,7,OUTB*%
%TO.N,/Audio processing/OUTR*%
X129000000Y-130750000D03*
%TO.P,U8,8,EN*%
%TO.N,Net-(U8-EN)*%
X129000000Y-131250000D03*
%TO.P,U8,9,OUTA*%
%TO.N,/Audio processing/OUTL*%
X129000000Y-131750000D03*
%TO.P,U8,10,-INA*%
%TO.N,Net-(U8--INA)*%
X129000000Y-132250000D03*
D21*
%TO.P,U8,11,EXP*%
%TO.N,-4V5*%
X130400000Y-131250000D03*
D22*
%TO.P,U8,12,EXP*%
X130400000Y-132200000D03*
%TO.P,U8,13,EXP*%
X130975000Y-131250000D03*
%TO.P,U8,14,EXP*%
X129825000Y-131250000D03*
%TO.P,U8,15,EXP*%
X130400000Y-130300000D03*
%TD*%
D14*
%TO.P,C31,1*%
%TO.N,+4V5*%
X138700000Y-117400000D03*
%TO.P,C31,2*%
%TO.N,GND*%
X137700000Y-117400000D03*
%TD*%
D23*
%TO.P,R23,1*%
%TO.N,Net-(D2-A)*%
X147000000Y-143620000D03*
%TO.P,R23,2*%
%TO.N,+3V3*%
X147000000Y-141980000D03*
%TD*%
D14*
%TO.P,R7,1*%
%TO.N,Net-(U3-FB-)*%
X143578928Y-58519775D03*
%TO.P,R7,2*%
%TO.N,-4V5*%
X142578928Y-58519775D03*
%TD*%
D11*
%TO.P,C14,1*%
%TO.N,+1V1*%
X139350000Y-80150000D03*
%TO.P,C14,2*%
%TO.N,GND*%
X140350000Y-80150000D03*
%TD*%
D10*
%TO.P,C26,1*%
%TO.N,GND*%
X128400000Y-90400000D03*
%TO.P,C26,2*%
%TO.N,Net-(U4-XIN)*%
X128400000Y-89400000D03*
%TD*%
D24*
%TO.P,J2,R1*%
%TO.N,/Audio processing/OUTR*%
X133700000Y-140450000D03*
%TO.P,J2,R2*%
%TO.N,GND*%
X133700000Y-143450000D03*
%TO.P,J2,S*%
X140200000Y-135350000D03*
%TO.P,J2,T*%
%TO.N,/Audio processing/OUTL*%
X133700000Y-136450000D03*
%TD*%
D13*
%TO.P,C38,1*%
%TO.N,/Audio processing/5102OUTR*%
X137430000Y-123335000D03*
%TO.P,C38,2*%
%TO.N,GND*%
X137430000Y-124335000D03*
%TD*%
D25*
%TO.P,U6,1*%
%TO.N,/Audio processing/1652OUTL*%
X130085000Y-118475000D03*
%TO.P,U6,2*%
X130085000Y-119745000D03*
%TO.P,U6,3*%
%TO.N,/Audio processing/5102OUTL*%
X130085000Y-121015000D03*
%TO.P,U6,4*%
%TO.N,-4V5*%
X130085000Y-122285000D03*
%TO.P,U6,5*%
%TO.N,/Audio processing/5102OUTR*%
X135025000Y-122285000D03*
%TO.P,U6,6*%
%TO.N,/Audio processing/1652OUTR*%
X135025000Y-121015000D03*
%TO.P,U6,7*%
X135025000Y-119745000D03*
%TO.P,U6,8*%
%TO.N,+4V5*%
X135025000Y-118475000D03*
%TD*%
D11*
%TO.P,C47,1*%
%TO.N,-4V5*%
X135200000Y-128900000D03*
%TO.P,C47,2*%
%TO.N,GND*%
X136200000Y-128900000D03*
%TD*%
%TO.P,C35,1*%
%TO.N,/Audio processing/5102AVDD*%
X135535000Y-113550000D03*
%TO.P,C35,2*%
%TO.N,GND*%
X136535000Y-113550000D03*
%TD*%
D14*
%TO.P,R9,1*%
%TO.N,+3V3*%
X139850000Y-75750000D03*
%TO.P,R9,2*%
%TO.N,Net-(U4-VREG_AVDD)*%
X138850000Y-75750000D03*
%TD*%
%TO.P,C17,1*%
%TO.N,+3V3*%
X128400000Y-81950000D03*
%TO.P,C17,2*%
%TO.N,GND*%
X127400000Y-81950000D03*
%TD*%
D26*
%TO.P,SW2,1,1*%
%TO.N,GND*%
X129550000Y-66200000D03*
%TO.P,SW2,2,2*%
%TO.N,/MCU/RUN*%
X126250000Y-66200000D03*
%TD*%
D27*
%TO.P,U2,1,OUT*%
%TO.N,+AUDIO_3V3*%
X125850000Y-100787500D03*
%TO.P,U2,2,SNS*%
X126500000Y-100787500D03*
%TO.P,U2,3,GND*%
%TO.N,GND*%
X127150000Y-100787500D03*
%TO.P,U2,4,EN*%
%TO.N,VBUS*%
X127150000Y-99012500D03*
%TO.P,U2,5,GND*%
%TO.N,GND*%
X126500000Y-99012500D03*
%TO.P,U2,6,IN*%
%TO.N,VBUS*%
X125850000Y-99012500D03*
D28*
%TO.P,U2,7,PAD*%
%TO.N,GND*%
X125950000Y-99900000D03*
D29*
X126500000Y-99900000D03*
D28*
X127050000Y-99900000D03*
%TD*%
D11*
%TO.P,C40,1*%
%TO.N,Net-(U7-CAPP)*%
X131325000Y-110900000D03*
%TO.P,C40,2*%
%TO.N,Net-(U7-CAPM)*%
X132325000Y-110900000D03*
%TD*%
D15*
%TO.P,H4,1,1*%
%TO.N,GND*%
X151200000Y-56600000D03*
X151683274Y-55433274D03*
X151683274Y-57766726D03*
X152850000Y-54950000D03*
D16*
X152850000Y-56600000D03*
D15*
X152850000Y-58250000D03*
X154016726Y-55433274D03*
X154016726Y-57766726D03*
X154500000Y-56600000D03*
%TD*%
D13*
%TO.P,C19,1*%
%TO.N,+3V3*%
X137100000Y-85650000D03*
%TO.P,C19,2*%
%TO.N,GND*%
X137100000Y-86650000D03*
%TD*%
%TO.P,C33,1*%
%TO.N,+AUDIO_3V3*%
X128425000Y-102700000D03*
%TO.P,C33,2*%
%TO.N,GND*%
X128425000Y-103700000D03*
%TD*%
%TO.P,C1,1*%
%TO.N,VBUS*%
X141000000Y-67850000D03*
%TO.P,C1,2*%
%TO.N,GND*%
X141000000Y-68850000D03*
%TD*%
D15*
%TO.P,H3,1,1*%
%TO.N,GND*%
X123375000Y-56600000D03*
X123858274Y-55433274D03*
X123858274Y-57766726D03*
X125025000Y-54950000D03*
D16*
X125025000Y-56600000D03*
D15*
X125025000Y-58250000D03*
X126191726Y-55433274D03*
X126191726Y-57766726D03*
X126675000Y-56600000D03*
%TD*%
D30*
%TO.P,FB1,1*%
%TO.N,+AUDIO_3V3*%
X137365000Y-111350000D03*
%TO.P,FB1,2*%
%TO.N,/Audio processing/5102AVDD*%
X135785000Y-111350000D03*
%TD*%
D31*
%TO.P,U4,1,IOVDD*%
%TO.N,+3V3*%
X130300000Y-77950000D03*
%TO.P,U4,2,GPIO0*%
%TO.N,/MCU/GP0*%
X130300000Y-78350000D03*
%TO.P,U4,3,GPIO1*%
%TO.N,/MCU/GP1*%
X130300000Y-78750000D03*
%TO.P,U4,4,GPIO2*%
%TO.N,/MCU/GP2*%
X130300000Y-79150000D03*
%TO.P,U4,5,GPIO3*%
%TO.N,/MCU/GP3*%
X130300000Y-79550000D03*
%TO.P,U4,6,DVDD*%
%TO.N,+1V1*%
X130300000Y-79950000D03*
%TO.P,U4,7,GPIO4*%
%TO.N,/MCU/GP4*%
X130300000Y-80350000D03*
%TO.P,U4,8,GPIO5*%
%TO.N,/MCU/GP5*%
X130300000Y-80750000D03*
%TO.P,U4,9,GPIO6*%
%TO.N,/MCU/GP6*%
X130300000Y-81150000D03*
%TO.P,U4,10,GPIO7*%
%TO.N,/MCU/GP7*%
X130300000Y-81550000D03*
%TO.P,U4,11,IOVDD*%
%TO.N,+3V3*%
X130300000Y-81950000D03*
%TO.P,U4,12,GPIO8*%
%TO.N,/MCU/GP8*%
X130300000Y-82350000D03*
%TO.P,U4,13,GPIO9*%
%TO.N,/MCU/GP9*%
X130300000Y-82750000D03*
%TO.P,U4,14,GPIO10*%
%TO.N,/MCU/GP10*%
X130300000Y-83150000D03*
%TO.P,U4,15,GPIO11*%
%TO.N,/MCU/GP11*%
X130300000Y-83550000D03*
D32*
%TO.P,U4,16,GPIO12*%
%TO.N,/MCU/GP12*%
X130950000Y-84200000D03*
%TO.P,U4,17,GPIO13*%
%TO.N,/MCU/GP13*%
X131350000Y-84200000D03*
%TO.P,U4,18,GPIO14*%
%TO.N,/MCU/GP14*%
X131750000Y-84200000D03*
%TO.P,U4,19,GPIO15*%
%TO.N,/MCU/GP15*%
X132150000Y-84200000D03*
%TO.P,U4,20,IOVDD*%
%TO.N,+3V3*%
X132550000Y-84200000D03*
%TO.P,U4,21,XIN*%
%TO.N,Net-(U4-XIN)*%
X132950000Y-84200000D03*
%TO.P,U4,22,XOUT*%
%TO.N,Net-(U4-XOUT)*%
X133350000Y-84200000D03*
%TO.P,U4,23,DVDD*%
%TO.N,+1V1*%
X133750000Y-84200000D03*
%TO.P,U4,24,SWCLK*%
%TO.N,/MCU/SWCLK*%
X134150000Y-84200000D03*
%TO.P,U4,25,SWDIO*%
%TO.N,/MCU/SWDIO*%
X134550000Y-84200000D03*
%TO.P,U4,26,RUN*%
%TO.N,/MCU/RUN*%
X134950000Y-84200000D03*
%TO.P,U4,27,GPIO16*%
%TO.N,/MCU/GP16*%
X135350000Y-84200000D03*
%TO.P,U4,28,GPIO17*%
%TO.N,/MCU/GP17*%
X135750000Y-84200000D03*
%TO.P,U4,29,GPIO18*%
%TO.N,/MCU/GP18*%
X136150000Y-84200000D03*
%TO.P,U4,30,IOVDD*%
%TO.N,+3V3*%
X136550000Y-84200000D03*
D31*
%TO.P,U4,31,GPIO19*%
%TO.N,GP19*%
X137200000Y-83550000D03*
%TO.P,U4,32,GPIO20*%
%TO.N,GP20*%
X137200000Y-83150000D03*
%TO.P,U4,33,GPIO21*%
%TO.N,GP21*%
X137200000Y-82750000D03*
%TO.P,U4,34,GPIO22*%
%TO.N,/MCU/GP22*%
X137200000Y-82350000D03*
%TO.P,U4,35,GPIO23*%
%TO.N,/MCU/GP23*%
X137200000Y-81950000D03*
%TO.P,U4,36,GPIO24*%
%TO.N,/MCU/GP24*%
X137200000Y-81550000D03*
%TO.P,U4,37,GPIO25*%
%TO.N,/MCU/GP25*%
X137200000Y-81150000D03*
%TO.P,U4,38,IOVDD*%
%TO.N,+3V3*%
X137200000Y-80750000D03*
%TO.P,U4,39,DVDD*%
%TO.N,+1V1*%
X137200000Y-80350000D03*
%TO.P,U4,40,GPIO26_ADC0*%
%TO.N,/MCU/GP26*%
X137200000Y-79950000D03*
%TO.P,U4,41,GPIO27_ADC1*%
%TO.N,/MCU/GP27*%
X137200000Y-79550000D03*
%TO.P,U4,42,GPIO28_ADC2*%
%TO.N,/MCU/GP28*%
X137200000Y-79150000D03*
%TO.P,U4,43,GPIO29_ADC3*%
%TO.N,/MCU/GP29*%
X137200000Y-78750000D03*
%TO.P,U4,44,ADC_AVDD*%
%TO.N,+3V3*%
X137200000Y-78350000D03*
%TO.P,U4,45,IOVDD*%
X137200000Y-77950000D03*
D32*
%TO.P,U4,46,VREG_AVDD*%
%TO.N,Net-(U4-VREG_AVDD)*%
X136550000Y-77300000D03*
%TO.P,U4,47,VREG_PGND*%
%TO.N,GND*%
X136150000Y-77300000D03*
%TO.P,U4,48,VREG_LX*%
%TO.N,Net-(U4-VREG_LX)*%
X135750000Y-77300000D03*
%TO.P,U4,49,VREG_VIN*%
%TO.N,+3V3*%
X135350000Y-77300000D03*
%TO.P,U4,50,VREG_FB*%
%TO.N,+1V1*%
X134950000Y-77300000D03*
%TO.P,U4,51,USB_DM*%
%TO.N,Net-(U4-USB_DM)*%
X134550000Y-77300000D03*
%TO.P,U4,52,USB_DP*%
%TO.N,Net-(U4-USB_DP)*%
X134150000Y-77300000D03*
%TO.P,U4,53,USB_OTP_VDD*%
%TO.N,+3V3*%
X133750000Y-77300000D03*
%TO.P,U4,54,QSPI_IOVDD*%
X133350000Y-77300000D03*
%TO.P,U4,55,QSPI_SD3*%
%TO.N,unconnected-(U4-QSPI_SD3-Pad55)*%
X132950000Y-77300000D03*
%TO.P,U4,56,QSPI_SCLK*%
%TO.N,unconnected-(U4-QSPI_SCLK-Pad56)*%
X132550000Y-77300000D03*
%TO.P,U4,57,QSPI_SD0*%
%TO.N,unconnected-(U4-QSPI_SD0-Pad57)*%
X132150000Y-77300000D03*
%TO.P,U4,58,QSPI_SD2*%
%TO.N,unconnected-(U4-QSPI_SD2-Pad58)*%
X131750000Y-77300000D03*
%TO.P,U4,59,QSPI_SD1*%
%TO.N,unconnected-(U4-QSPI_SD1-Pad59)*%
X131350000Y-77300000D03*
%TO.P,U4,60,QSPI_SS*%
%TO.N,/MCU/QSPI_SS*%
X130950000Y-77300000D03*
D28*
%TO.P,U4,61,GND*%
%TO.N,GND*%
X132300000Y-79300000D03*
X132300000Y-80750000D03*
X132300000Y-82200000D03*
X133750000Y-79300000D03*
X133750000Y-80750000D03*
D33*
X133750000Y-80750000D03*
D28*
X133750000Y-82200000D03*
X135200000Y-79300000D03*
X135200000Y-80750000D03*
X135200000Y-82200000D03*
%TD*%
D10*
%TO.P,R12,1*%
%TO.N,+3V3*%
X137050000Y-88650000D03*
%TO.P,R12,2*%
%TO.N,/MCU/RUN*%
X137050000Y-87650000D03*
%TD*%
D11*
%TO.P,C37,1*%
%TO.N,-4V5*%
X129300000Y-124680000D03*
%TO.P,C37,2*%
%TO.N,GND*%
X130300000Y-124680000D03*
%TD*%
D14*
%TO.P,C16,1*%
%TO.N,+3V3*%
X128350000Y-77900000D03*
%TO.P,C16,2*%
%TO.N,GND*%
X127350000Y-77900000D03*
%TD*%
%TO.P,C18,1*%
%TO.N,+3V3*%
X128700000Y-86200000D03*
%TO.P,C18,2*%
%TO.N,GND*%
X127700000Y-86200000D03*
%TD*%
D23*
%TO.P,R11,1*%
%TO.N,Net-(U4-USB_DM)*%
X132550000Y-73520000D03*
%TO.P,R11,2*%
%TO.N,2350DN*%
X132550000Y-71880000D03*
%TD*%
D15*
%TO.P,H6,1,1*%
%TO.N,GND*%
X151200000Y-143700000D03*
X151683274Y-142533274D03*
X151683274Y-144866726D03*
X152850000Y-142050000D03*
D16*
X152850000Y-143700000D03*
D15*
X152850000Y-145350000D03*
X154016726Y-142533274D03*
X154016726Y-144866726D03*
X154500000Y-143700000D03*
%TD*%
D34*
%TO.P,VR1,A1,1*%
%TO.N,GND*%
X148050000Y-136900000D03*
D35*
%TO.P,VR1,A2,2*%
%TO.N,/Audio processing/VOLOUTL*%
X145550000Y-136900000D03*
%TO.P,VR1,A3,3*%
%TO.N,/Audio processing/1652OUTL*%
X148050000Y-66900000D03*
D34*
%TO.P,VR1,B1,1'*%
%TO.N,GND*%
X153050000Y-136900000D03*
D35*
%TO.P,VR1,B2,2'*%
%TO.N,/Audio processing/VOLOUTR*%
X150550000Y-136900000D03*
%TO.P,VR1,B3,3'*%
%TO.N,/Audio processing/1652OUTR*%
X153050000Y-66900000D03*
D36*
%TO.P,VR1,MH1,MH1*%
%TO.N,GND*%
X149300000Y-126900000D03*
%TO.P,VR1,MH2,MH2*%
X149300000Y-79400000D03*
%TD*%
D14*
%TO.P,R15,1*%
%TO.N,/Audio processing/5102OUTL*%
X126700000Y-122200000D03*
%TO.P,R15,2*%
%TO.N,GND*%
X125700000Y-122200000D03*
%TD*%
D37*
%TO.P,C11,1*%
%TO.N,-4V5*%
X146819153Y-57400000D03*
%TO.P,C11,2*%
%TO.N,GND*%
X145259153Y-57400000D03*
%TD*%
D11*
%TO.P,C7,1*%
%TO.N,VBUS*%
X149539153Y-60400000D03*
%TO.P,C7,2*%
%TO.N,GND*%
X150539153Y-60400000D03*
%TD*%
%TO.P,C42,1*%
%TO.N,+4V5*%
X135200000Y-131550000D03*
%TO.P,C42,2*%
%TO.N,GND*%
X136200000Y-131550000D03*
%TD*%
%TO.P,C36,1*%
%TO.N,-4V5*%
X129300000Y-123780000D03*
%TO.P,C36,2*%
%TO.N,GND*%
X130300000Y-123780000D03*
%TD*%
D13*
%TO.P,R17,1*%
%TO.N,Net-(U7-OUTR)*%
X137430000Y-121335000D03*
%TO.P,R17,2*%
%TO.N,/Audio processing/5102OUTR*%
X137430000Y-122335000D03*
%TD*%
D38*
%TO.P,D5,1*%
%TO.N,GND*%
X130900000Y-141150000D03*
%TO.P,D5,2*%
%TO.N,/Audio processing/OUTR*%
X130900000Y-140450000D03*
%TD*%
D14*
%TO.P,C12,1*%
%TO.N,+1V1*%
X128350000Y-79950000D03*
%TO.P,C12,2*%
%TO.N,GND*%
X127350000Y-79950000D03*
%TD*%
D11*
%TO.P,R14,1*%
%TO.N,/Audio processing/5102OUTR*%
X138500000Y-122300000D03*
%TO.P,R14,2*%
%TO.N,GND*%
X139500000Y-122300000D03*
%TD*%
D13*
%TO.P,C45,1*%
%TO.N,Net-(U8-EN)*%
X126300000Y-131350000D03*
%TO.P,C45,2*%
%TO.N,GND*%
X126300000Y-132350000D03*
%TD*%
D39*
%TO.P,U7,1,CPVDD*%
%TO.N,+AUDIO_3V3*%
X130700000Y-109125000D03*
%TO.P,U7,2,CAPP*%
%TO.N,Net-(U7-CAPP)*%
X131350000Y-109125000D03*
%TO.P,U7,3,CPGND*%
%TO.N,GND*%
X132000000Y-109125000D03*
%TO.P,U7,4,CAPM*%
%TO.N,Net-(U7-CAPM)*%
X132650000Y-109125000D03*
%TO.P,U7,5,VNEG*%
%TO.N,Net-(U7-VNEG)*%
X133300000Y-109125000D03*
%TO.P,U7,6,OUTL*%
%TO.N,Net-(U7-OUTL)*%
X133950000Y-109125000D03*
%TO.P,U7,7,OUTR*%
%TO.N,Net-(U7-OUTR)*%
X134600000Y-109125000D03*
%TO.P,U7,8,AVDD*%
%TO.N,/Audio processing/5102AVDD*%
X135250000Y-109125000D03*
%TO.P,U7,9,AGND*%
%TO.N,GND*%
X135900000Y-109125000D03*
%TO.P,U7,10,DEMP*%
X136550000Y-109125000D03*
%TO.P,U7,11,FLT*%
X136550000Y-103400000D03*
%TO.P,U7,12,SCK*%
X135900000Y-103400000D03*
%TO.P,U7,13,BCK*%
%TO.N,GP19*%
X135250000Y-103400000D03*
%TO.P,U7,14,DIN*%
%TO.N,GP21*%
X134600000Y-103400000D03*
%TO.P,U7,15,LRCK*%
%TO.N,GP20*%
X133950000Y-103400000D03*
%TO.P,U7,16,FMT*%
%TO.N,GND*%
X133300000Y-103400000D03*
%TO.P,U7,17,XSMT*%
%TO.N,+AUDIO_3V3*%
X132650000Y-103400000D03*
%TO.P,U7,18,LDOO*%
%TO.N,Net-(U7-LDOO)*%
X132000000Y-103400000D03*
%TO.P,U7,19,DGND*%
%TO.N,GND*%
X131350000Y-103400000D03*
%TO.P,U7,20,DVDD*%
%TO.N,+AUDIO_3V3*%
X130700000Y-103400000D03*
%TD*%
D13*
%TO.P,R19,1*%
%TO.N,Net-(U8--INA)*%
X129800000Y-133750000D03*
%TO.P,R19,2*%
%TO.N,GND*%
X129800000Y-134750000D03*
%TD*%
D11*
%TO.P,R4,1*%
%TO.N,Net-(U3-FB+)*%
X148588928Y-61299775D03*
%TO.P,R4,2*%
%TO.N,GND*%
X149588928Y-61299775D03*
%TD*%
%TO.P,C41,1*%
%TO.N,+4V5*%
X135200000Y-130600000D03*
%TO.P,C41,2*%
%TO.N,GND*%
X136200000Y-130600000D03*
%TD*%
D23*
%TO.P,R24,1*%
%TO.N,Net-(D3-Pad2)*%
X143500000Y-143620000D03*
%TO.P,R24,2*%
%TO.N,+3V3*%
X143500000Y-141980000D03*
%TD*%
D11*
%TO.P,C34,1*%
%TO.N,/Audio processing/5102AVDD*%
X135535000Y-112650000D03*
%TO.P,C34,2*%
%TO.N,GND*%
X136535000Y-112650000D03*
%TD*%
%TO.P,R8,1*%
%TO.N,Net-(R8-Pad1)*%
X129450000Y-75250000D03*
%TO.P,R8,2*%
%TO.N,/MCU/QSPI_SS*%
X130450000Y-75250000D03*
%TD*%
D27*
%TO.P,U1,1,OUT*%
%TO.N,+3V3*%
X138450000Y-69712500D03*
%TO.P,U1,2,SNS*%
X139100000Y-69712500D03*
%TO.P,U1,3,GND*%
%TO.N,GND*%
X139750000Y-69712500D03*
%TO.P,U1,4,EN*%
%TO.N,VBUS*%
X139750000Y-67937500D03*
%TO.P,U1,5,GND*%
%TO.N,GND*%
X139100000Y-67937500D03*
%TO.P,U1,6,IN*%
%TO.N,VBUS*%
X138450000Y-67937500D03*
D28*
%TO.P,U1,7,PAD*%
%TO.N,GND*%
X138550000Y-68825000D03*
D29*
X139100000Y-68825000D03*
D28*
X139650000Y-68825000D03*
%TD*%
D40*
%TO.P,U5,1,1*%
%TO.N,Net-(U4-XIN)*%
X130500000Y-89750000D03*
%TO.P,U5,2,GND*%
%TO.N,GND*%
X132700000Y-89750000D03*
%TO.P,U5,3,3*%
%TO.N,Net-(C29-Pad1)*%
X132700000Y-88050000D03*
%TO.P,U5,4,GND*%
%TO.N,GND*%
X130500000Y-88050000D03*
%TD*%
D10*
%TO.P,C39,1*%
%TO.N,/Audio processing/5102OUTL*%
X126730000Y-121130000D03*
%TO.P,C39,2*%
%TO.N,GND*%
X126730000Y-120130000D03*
%TD*%
D14*
%TO.P,R2,1*%
%TO.N,Net-(J1-CC2)*%
X129600000Y-61600000D03*
%TO.P,R2,2*%
%TO.N,GND*%
X128600000Y-61600000D03*
%TD*%
D41*
%TO.P,C24,1*%
%TO.N,+3V3*%
X135240000Y-75400000D03*
%TO.P,C24,2*%
%TO.N,GND*%
X136800000Y-75400000D03*
%TD*%
D11*
%TO.P,R13,1*%
%TO.N,Net-(C29-Pad1)*%
X132200000Y-86550000D03*
%TO.P,R13,2*%
%TO.N,Net-(U4-XOUT)*%
X133200000Y-86550000D03*
%TD*%
D42*
%TO.P,C6,1*%
%TO.N,+4V5*%
X141639153Y-62120000D03*
%TO.P,C6,2*%
%TO.N,GND*%
X141639153Y-63680000D03*
%TD*%
D13*
%TO.P,C32,1*%
%TO.N,+AUDIO_3V3*%
X129525000Y-109900000D03*
%TO.P,C32,2*%
%TO.N,GND*%
X129525000Y-110900000D03*
%TD*%
D10*
%TO.P,R18,1*%
%TO.N,/Audio processing/OUTL*%
X128850000Y-134750000D03*
%TO.P,R18,2*%
%TO.N,Net-(U8--INA)*%
X128850000Y-133750000D03*
%TD*%
%TO.P,C8,1*%
%TO.N,Net-(U3-EN+)*%
X140788928Y-60809775D03*
%TO.P,C8,2*%
%TO.N,GND*%
X140788928Y-59809775D03*
%TD*%
D43*
%TO.P,F1,1,1*%
%TO.N,Net-(F1-Pad1)*%
X136600000Y-63450000D03*
%TO.P,F1,2,2*%
%TO.N,VBUS*%
X136600000Y-64950000D03*
%TD*%
D13*
%TO.P,C29,1*%
%TO.N,Net-(C29-Pad1)*%
X134350000Y-89150000D03*
%TO.P,C29,2*%
%TO.N,GND*%
X134350000Y-90150000D03*
%TD*%
D23*
%TO.P,R10,1*%
%TO.N,Net-(U4-USB_DP)*%
X131150000Y-73500000D03*
%TO.P,R10,2*%
%TO.N,2350DP*%
X131150000Y-71860000D03*
%TD*%
D10*
%TO.P,R21,1*%
%TO.N,Net-(U8--INB)*%
X129800000Y-128750000D03*
%TO.P,R21,2*%
%TO.N,GND*%
X129800000Y-127750000D03*
%TD*%
D13*
%TO.P,R16,1*%
%TO.N,Net-(U7-OUTL)*%
X127880000Y-120130000D03*
%TO.P,R16,2*%
%TO.N,/Audio processing/5102OUTL*%
X127880000Y-121130000D03*
%TD*%
%TO.P,R20,1*%
%TO.N,/Audio processing/OUTR*%
X128850000Y-127750000D03*
%TO.P,R20,2*%
%TO.N,Net-(U8--INB)*%
X128850000Y-128750000D03*
%TD*%
D11*
%TO.P,C22,1*%
%TO.N,+3V3*%
X138750000Y-77350000D03*
%TO.P,C22,2*%
%TO.N,GND*%
X139750000Y-77350000D03*
%TD*%
D26*
%TO.P,SW1,1,1*%
%TO.N,GND*%
X129550000Y-70900000D03*
%TO.P,SW1,2,2*%
%TO.N,Net-(R8-Pad1)*%
X126250000Y-70900000D03*
%TD*%
D11*
%TO.P,C2,1*%
%TO.N,+3V3*%
X138600000Y-71350000D03*
%TO.P,C2,2*%
%TO.N,GND*%
X139600000Y-71350000D03*
%TD*%
D44*
%TO.P,U3,1,PGOOD*%
%TO.N,GND*%
X146678928Y-61529775D03*
%TO.P,U3,2,FB+*%
%TO.N,Net-(U3-FB+)*%
X146678928Y-61029775D03*
%TO.P,U3,3,VIN*%
%TO.N,VBUS*%
X146678928Y-60529775D03*
%TO.P,U3,4,GND*%
%TO.N,GND*%
X146678928Y-60029775D03*
%TO.P,U3,5,CP*%
%TO.N,Net-(U3-CP)*%
X146678928Y-59529775D03*
%TO.P,U3,6,OUT-*%
%TO.N,-4V5*%
X146678928Y-59029775D03*
%TO.P,U3,7,FB-*%
%TO.N,Net-(U3-FB-)*%
X144778928Y-59029775D03*
%TO.P,U3,8,EN-*%
%TO.N,Net-(U3-EN+)*%
X144778928Y-59529775D03*
%TO.P,U3,9,C-*%
%TO.N,Net-(U3-C-)*%
X144778928Y-60029775D03*
%TO.P,U3,10,C+*%
%TO.N,Net-(U3-C+)*%
X144778928Y-60529775D03*
%TO.P,U3,11,OUT+*%
%TO.N,+4V5*%
X144778928Y-61029775D03*
%TO.P,U3,12,EN+*%
%TO.N,Net-(U3-EN+)*%
X144778928Y-61529775D03*
D45*
%TO.P,U3,13,PAD*%
%TO.N,GND*%
X145728928Y-61279775D03*
X145728928Y-60279775D03*
D46*
X145728928Y-60279775D03*
D45*
X145728928Y-59279775D03*
%TD*%
D41*
%TO.P,C25,1*%
%TO.N,+1V1*%
X135240000Y-74050000D03*
%TO.P,C25,2*%
%TO.N,GND*%
X136800000Y-74050000D03*
%TD*%
D13*
%TO.P,C13,1*%
%TO.N,+1V1*%
X134340000Y-86950000D03*
%TO.P,C13,2*%
%TO.N,GND*%
X134340000Y-87950000D03*
%TD*%
D14*
%TO.P,C15,1*%
%TO.N,+3V3*%
X132650000Y-75250000D03*
%TO.P,C15,2*%
%TO.N,GND*%
X131650000Y-75250000D03*
%TD*%
D17*
%TO.P,D3,1*%
%TO.N,/MCU/GP10*%
X145100000Y-141810000D03*
%TO.P,D3,2*%
%TO.N,Net-(D3-Pad2)*%
X145100000Y-143390000D03*
%TD*%
D10*
%TO.P,C23,1*%
%TO.N,Net-(U4-VREG_AVDD)*%
X138750000Y-74750000D03*
%TO.P,C23,2*%
%TO.N,GND*%
X138750000Y-73750000D03*
%TD*%
D11*
%TO.P,C46,1*%
%TO.N,-4V5*%
X135200000Y-128000000D03*
%TO.P,C46,2*%
%TO.N,GND*%
X136200000Y-128000000D03*
%TD*%
D13*
%TO.P,R5,1*%
%TO.N,VBUS*%
X141668928Y-59809775D03*
%TO.P,R5,2*%
%TO.N,Net-(U3-EN+)*%
X141668928Y-60809775D03*
%TD*%
D38*
%TO.P,D4,1*%
%TO.N,GND*%
X130900000Y-137150000D03*
%TO.P,D4,2*%
%TO.N,/Audio processing/OUTL*%
X130900000Y-136450000D03*
%TD*%
D14*
%TO.P,R22,1*%
%TO.N,+4V5*%
X127300000Y-130450000D03*
%TO.P,R22,2*%
%TO.N,Net-(U8-EN)*%
X126300000Y-130450000D03*
%TD*%
D47*
%TO.P,J1,A5,CC1*%
%TO.N,Net-(J1-CC1)*%
X135300000Y-60550000D03*
%TO.P,J1,A6,D+*%
%TO.N,2350DP*%
X134300000Y-60550000D03*
%TO.P,J1,A7,D-*%
%TO.N,2350DN*%
X133800000Y-60550000D03*
%TO.P,J1,A8,SBU1*%
%TO.N,unconnected-(J1-SBU1-PadA8)*%
X132800000Y-60550000D03*
D48*
%TO.P,J1,A9B4,VBUS*%
%TO.N,Net-(F1-Pad1)*%
X131650000Y-60550000D03*
%TO.P,J1,A12B1,GND*%
%TO.N,GND*%
X130850000Y-60550000D03*
D47*
%TO.P,J1,B5,CC2*%
%TO.N,Net-(J1-CC2)*%
X132300000Y-60550000D03*
%TO.P,J1,B6,D+*%
%TO.N,2350DP*%
X133300000Y-60550000D03*
%TO.P,J1,B7,D-*%
%TO.N,2350DN*%
X134800000Y-60550000D03*
%TO.P,J1,B8,SBU2*%
%TO.N,unconnected-(J1-SBU2-PadB8)*%
X135800000Y-60550000D03*
D48*
%TO.P,J1,B9A4,VBUS*%
%TO.N,Net-(F1-Pad1)*%
X136450000Y-60550000D03*
%TO.P,J1,B12A1,GND*%
%TO.N,GND*%
X137250000Y-60550000D03*
D49*
%TO.P,J1,S1,SHIELD*%
X138380000Y-59870000D03*
D50*
X138380000Y-55670000D03*
D51*
X136050000Y-57050000D03*
X136050000Y-55050000D03*
D52*
X134050000Y-56050000D03*
D51*
X132050000Y-57050000D03*
X132050000Y-55050000D03*
D49*
X129720000Y-59870000D03*
D50*
X129720000Y-55670000D03*
%TD*%
D53*
%TO.N,GND*%
X142400000Y-65000000D03*
X141350000Y-65000000D03*
X140300000Y-65000000D03*
X140000000Y-63200000D03*
X140000000Y-62128571D03*
X140000000Y-59985714D03*
X140000000Y-58914286D03*
X140000000Y-61057143D03*
X140000000Y-55700000D03*
X140000000Y-56771429D03*
X140000000Y-57842857D03*
D54*
%TO.N,VBUS*%
X126250000Y-97400000D03*
X141668928Y-58749775D03*
X130400000Y-68500000D03*
X137000000Y-67712500D03*
X148450000Y-60410847D03*
X130800000Y-64400000D03*
X137000000Y-67112500D03*
%TO.N,+3V3*%
X128400000Y-81050000D03*
X139350000Y-70462500D03*
X139850000Y-76540000D03*
X129900000Y-85800000D03*
X139350000Y-82150000D03*
X128350000Y-76900000D03*
X143000000Y-140600000D03*
X137050000Y-89650000D03*
X138100000Y-85650000D03*
X138600000Y-70462500D03*
X146400000Y-140600000D03*
X132100000Y-76150000D03*
D53*
%TO.N,GND*%
X147000000Y-145800000D03*
D54*
X128200000Y-100800000D03*
X150378928Y-58459775D03*
D53*
X148500000Y-145800000D03*
D54*
X132000000Y-98600000D03*
X126500000Y-98309620D03*
X124700000Y-98900000D03*
X126300000Y-133250000D03*
X130425000Y-110900000D03*
X131424265Y-86924265D03*
D53*
X122900000Y-113050000D03*
X122900000Y-66550000D03*
D54*
X140600000Y-78300000D03*
X131100000Y-124680000D03*
D53*
X122900000Y-117550000D03*
X122900000Y-69550000D03*
D54*
X141200000Y-80150000D03*
D53*
X122900000Y-83050000D03*
X140000000Y-54500000D03*
D54*
X137200000Y-128000000D03*
D53*
X122900000Y-139850000D03*
X122900000Y-120550000D03*
X122900000Y-125050000D03*
D54*
X126500000Y-81950000D03*
X141040000Y-70076000D03*
X136800000Y-118300000D03*
X141818928Y-56779775D03*
D53*
X148900000Y-54500000D03*
D54*
X142100000Y-68800000D03*
D53*
X122900000Y-131050000D03*
X122900000Y-128050000D03*
X150000000Y-145800000D03*
D54*
X136535000Y-114450000D03*
D53*
X122900000Y-137050000D03*
D54*
X137820000Y-74700000D03*
X128425000Y-104600000D03*
D53*
X132000000Y-145800000D03*
D54*
X131100000Y-123780000D03*
X127700000Y-62500000D03*
D53*
X122900000Y-111550000D03*
X122900000Y-141350000D03*
X122900000Y-126550000D03*
X144500000Y-54500000D03*
D54*
X127700000Y-61600000D03*
X148587188Y-59389775D03*
D53*
X122900000Y-107050000D03*
D54*
X130500000Y-65700000D03*
X131300000Y-143450000D03*
D53*
X122900000Y-108550000D03*
X141500000Y-54500000D03*
D54*
X137820000Y-75400000D03*
X142939153Y-63700000D03*
D53*
X133500000Y-145800000D03*
X122900000Y-65050000D03*
X122900000Y-102550000D03*
X122900000Y-119050000D03*
D54*
X137300000Y-131550000D03*
D53*
X122900000Y-129550000D03*
D54*
X130600000Y-127750000D03*
D53*
X141300000Y-145800000D03*
X139900000Y-145800000D03*
X122900000Y-86050000D03*
X122900000Y-122050000D03*
D54*
X130000000Y-69500000D03*
X125450000Y-103650000D03*
X145239153Y-56300000D03*
X137430000Y-125185000D03*
X139150000Y-67025000D03*
D53*
X122900000Y-116050000D03*
X144300000Y-145800000D03*
D54*
X130950000Y-74450000D03*
X125700000Y-123200000D03*
D53*
X122900000Y-68050000D03*
X122900000Y-75550000D03*
X122900000Y-110050000D03*
X122900000Y-80050000D03*
D54*
X130900000Y-142000000D03*
X135400000Y-87800003D03*
X130900000Y-138000000D03*
X137235000Y-107900000D03*
X135250000Y-65150000D03*
X136800000Y-117400000D03*
D53*
X150400000Y-54500000D03*
D54*
X142400000Y-135350000D03*
X140600000Y-122300000D03*
X151539153Y-60400000D03*
X134429808Y-131125000D03*
D53*
X145600000Y-145800000D03*
X122900000Y-96550000D03*
X122900000Y-78550000D03*
D54*
X130600000Y-134750000D03*
D53*
X135000000Y-145800000D03*
X122900000Y-63550000D03*
D54*
X128516770Y-87009133D03*
D53*
X122900000Y-132550000D03*
X122900000Y-90550000D03*
X122900000Y-89050000D03*
D54*
X151008928Y-61279775D03*
D53*
X122900000Y-72550000D03*
X122900000Y-87550000D03*
D54*
X126730000Y-119285000D03*
X133550000Y-91050000D03*
X132325000Y-107900000D03*
X140788928Y-58749775D03*
D53*
X122900000Y-93550000D03*
X122900000Y-135550000D03*
D54*
X131315000Y-101830000D03*
D53*
X122900000Y-104050000D03*
X122900000Y-74050000D03*
D54*
X126500000Y-79950000D03*
X141200000Y-81150000D03*
X138200000Y-87000000D03*
X126450000Y-77900000D03*
D53*
X122900000Y-101050000D03*
X122900000Y-60550000D03*
D54*
X130500000Y-66800000D03*
X147428928Y-61979775D03*
D53*
X142800000Y-145800000D03*
X122900000Y-77050000D03*
X122900000Y-62050000D03*
D54*
X137175000Y-102062500D03*
X132700000Y-101800000D03*
D53*
X122900000Y-81550000D03*
D54*
X139949000Y-84538404D03*
D53*
X130600000Y-145800000D03*
D54*
X131525000Y-112950000D03*
D53*
X147400000Y-54500000D03*
X122900000Y-95050000D03*
X146000000Y-54500000D03*
X122900000Y-98050000D03*
X122900000Y-114550000D03*
X143000000Y-54500000D03*
X122900000Y-84550000D03*
X122900000Y-123550000D03*
X122900000Y-71050000D03*
X122900000Y-99550000D03*
X122900000Y-92050000D03*
D54*
X128400000Y-91300000D03*
D53*
X122900000Y-134050000D03*
X122900000Y-105550000D03*
X122900000Y-138550000D03*
D54*
X137820000Y-74000000D03*
%TO.N,-4V5*%
X135200000Y-127200000D03*
X147584664Y-58535511D03*
X128400000Y-122330000D03*
X141704187Y-57950550D03*
X143800000Y-101400000D03*
%TO.N,+4V5*%
X143682664Y-61159776D03*
X137100000Y-129950000D03*
X144139153Y-62579775D03*
X133800000Y-117300000D03*
X127400000Y-129550000D03*
X143024971Y-104400000D03*
X150318928Y-62229775D03*
%TO.N,+AUDIO_3V3*%
X129525000Y-102700000D03*
X137335000Y-112750000D03*
X129525000Y-108500000D03*
X126550000Y-101500000D03*
%TO.N,Net-(F1-Pad1)*%
X136450000Y-62300000D03*
%TO.N,+1V1*%
X139350000Y-79450000D03*
X133970000Y-72600000D03*
X128350000Y-79150000D03*
X133970000Y-71850000D03*
X133970000Y-73350000D03*
X133975735Y-86124265D03*
%TO.N,/MCU/SWCLK*%
X135400000Y-87000000D03*
%TO.N,/MCU/SWDIO*%
X135800000Y-88593655D03*
%TO.N,/MCU/GP9*%
X128850000Y-82750000D03*
X147638291Y-141180860D03*
%TO.N,/MCU/GP10*%
X128841940Y-83641944D03*
X146100000Y-141400000D03*
%TO.N,GP19*%
X141174265Y-82825735D03*
X139813278Y-83750000D03*
%TO.N,/Audio processing/1652OUTL*%
X131800000Y-117225000D03*
%TO.N,/Audio processing/1652OUTR*%
X136700000Y-119800000D03*
%TD*%
D55*
%TO.N,+4V5*%
X143806567Y-61029775D02*
X144778928Y-61029775D01*
X143682664Y-61153678D02*
X143806567Y-61029775D01*
X143682664Y-61159776D02*
X143682664Y-61153678D01*
D56*
X143691897Y-61150542D02*
X143763161Y-61150542D01*
X143682664Y-61159776D02*
X143691897Y-61150542D01*
D55*
%TO.N,VBUS*%
X126550000Y-97400000D02*
X127150000Y-98000000D01*
X125850000Y-99012500D02*
X125850000Y-97800000D01*
D57*
X136600000Y-64950000D02*
X136600000Y-65900000D01*
D58*
X139837500Y-67850000D02*
X139750000Y-67937500D01*
X141000000Y-67850000D02*
X139837500Y-67850000D01*
X148331072Y-60529775D02*
X148450000Y-60410847D01*
D57*
X136600000Y-65900000D02*
X136600000Y-66712500D01*
D55*
X127150000Y-98000000D02*
X127150000Y-99012500D01*
X125850000Y-97800000D02*
X126250000Y-97400000D01*
D58*
X130800000Y-62900000D02*
X130400000Y-62500000D01*
X131840000Y-64220000D02*
X130980000Y-64220000D01*
D55*
X141100000Y-67950000D02*
X141000000Y-67850000D01*
D58*
X149539153Y-60400000D02*
X148460847Y-60400000D01*
X148460847Y-60400000D02*
X148450000Y-60410847D01*
X126000000Y-97150000D02*
X126250000Y-97400000D01*
X146678928Y-60529775D02*
X148331072Y-60529775D01*
X130400000Y-62500000D02*
X129600000Y-62500000D01*
X130980000Y-64220000D02*
X130800000Y-64400000D01*
X139776000Y-66765702D02*
X139409298Y-66399000D01*
X139409298Y-66399000D02*
X138890702Y-66399000D01*
D55*
X126250000Y-97400000D02*
X126550000Y-97400000D01*
D58*
X136950000Y-64600000D02*
X136600000Y-64950000D01*
X139750000Y-67937500D02*
X139776000Y-67911500D01*
X124750000Y-97150000D02*
X126000000Y-97150000D01*
X138450000Y-66839702D02*
X138450000Y-67937500D01*
X130800000Y-64400000D02*
X130800000Y-62900000D01*
D57*
X136600000Y-66712500D02*
X137000000Y-67112500D01*
D58*
X138890702Y-66399000D02*
X138450000Y-66839702D01*
X141668928Y-59809775D02*
X141668928Y-58739775D01*
X139776000Y-67911500D02*
X139776000Y-66765702D01*
D56*
%TO.N,+3V3*%
X129100000Y-85800000D02*
X128700000Y-86200000D01*
X135350000Y-77300000D02*
X135350000Y-75510000D01*
X133750000Y-76867100D02*
X133350000Y-76467100D01*
X129900000Y-85800000D02*
X129100000Y-85800000D01*
D58*
X143000000Y-140600000D02*
X143000000Y-141150000D01*
D56*
X136550000Y-85100000D02*
X137100000Y-85650000D01*
X132267100Y-76150000D02*
X132650000Y-75767100D01*
X137950000Y-80750000D02*
X138350000Y-81150000D01*
X137200000Y-77950000D02*
X138150000Y-77950000D01*
X135350000Y-77300000D02*
X135350000Y-77797774D01*
X132550000Y-84700000D02*
X132100000Y-85150000D01*
X133750000Y-77800000D02*
X134000000Y-78050000D01*
X139850000Y-76540000D02*
X139850000Y-75750000D01*
X138350000Y-81150000D02*
X139350000Y-81150000D01*
X130732900Y-86200000D02*
X128700000Y-86200000D01*
X138650000Y-78350000D02*
X138750000Y-78250000D01*
X138750000Y-77050000D02*
X138750000Y-77350000D01*
X137200000Y-78350000D02*
X138650000Y-78350000D01*
X137100000Y-85650000D02*
X138100000Y-85650000D01*
D58*
X138600000Y-70462500D02*
X139350000Y-70462500D01*
D56*
X128600000Y-77900000D02*
X130250000Y-77900000D01*
D58*
X143500000Y-141650000D02*
X143500000Y-141980000D01*
D56*
X139350000Y-81150000D02*
X139350000Y-82150000D01*
X130250000Y-77900000D02*
X130300000Y-77950000D01*
X128700000Y-86200000D02*
X129000000Y-86200000D01*
D58*
X138600000Y-70462500D02*
X138600000Y-71350000D01*
D56*
X133350000Y-77300000D02*
X133350000Y-76467100D01*
X138150000Y-77950000D02*
X138750000Y-77350000D01*
X132100000Y-85150000D02*
X131782900Y-85150000D01*
D58*
X147000000Y-141200000D02*
X146400000Y-140600000D01*
D56*
X135350000Y-75510000D02*
X135240000Y-75400000D01*
X133750000Y-77300000D02*
X133750000Y-77800000D01*
X139260000Y-76540000D02*
X138750000Y-77050000D01*
D58*
X139100000Y-69712500D02*
X138450000Y-69712500D01*
D56*
X137050000Y-88650000D02*
X137050000Y-89650000D01*
D58*
X143000000Y-141150000D02*
X143500000Y-141650000D01*
X138450000Y-70312500D02*
X138600000Y-70462500D01*
D56*
X135097774Y-78050000D02*
X135350000Y-77797774D01*
X136550000Y-84200000D02*
X136550000Y-85100000D01*
X134000000Y-78050000D02*
X135097774Y-78050000D01*
X128400000Y-81050000D02*
X128400000Y-81950000D01*
D58*
X147000000Y-141980000D02*
X147000000Y-141200000D01*
D56*
X133350000Y-76467100D02*
X132650000Y-75767100D01*
D58*
X138450000Y-69712500D02*
X138450000Y-70312500D01*
D56*
X132100000Y-76150000D02*
X132267100Y-76150000D01*
X132550000Y-84200000D02*
X132550000Y-84700000D01*
X139850000Y-76540000D02*
X139260000Y-76540000D01*
X132650000Y-75767100D02*
X132650000Y-75300000D01*
X138750000Y-77350000D02*
X138750000Y-78250000D01*
X137200000Y-80750000D02*
X137950000Y-80750000D01*
X130300000Y-81950000D02*
X128400000Y-81950000D01*
X128350000Y-76900000D02*
X128350000Y-77900000D01*
X133750000Y-77300000D02*
X133750000Y-76867100D01*
X131782900Y-85150000D02*
X130732900Y-86200000D01*
D58*
%TO.N,GND*%
X137430000Y-125185000D02*
X137430000Y-124335000D01*
D56*
X137235000Y-107900000D02*
X137285000Y-107900000D01*
D55*
X145259153Y-56320000D02*
X145259153Y-57400000D01*
D58*
X136200000Y-131550000D02*
X137300000Y-131550000D01*
X139750000Y-78250000D02*
X140550000Y-78250000D01*
D56*
X140676500Y-69712500D02*
X141040000Y-70076000D01*
D58*
X136200000Y-130600000D02*
X136200000Y-131550000D01*
D56*
X128516770Y-87009133D02*
X128109133Y-87009133D01*
D58*
X146978928Y-61529775D02*
X147428928Y-61979775D01*
D56*
X126500000Y-81950000D02*
X127400000Y-81950000D01*
X128400000Y-90400000D02*
X128400000Y-91300000D01*
D58*
X139750000Y-77350000D02*
X139750000Y-78250000D01*
X142290145Y-57629775D02*
X142578928Y-57629775D01*
X128600000Y-62500000D02*
X127700000Y-62500000D01*
D55*
X133700000Y-143450000D02*
X131300000Y-143450000D01*
D56*
X138750000Y-73750000D02*
X138070000Y-73750000D01*
X137770000Y-74050000D02*
X137820000Y-74000000D01*
D55*
X130500000Y-88050000D02*
X130600000Y-88050000D01*
D58*
X139750000Y-68925000D02*
X139650000Y-68825000D01*
X126300000Y-132350000D02*
X126300000Y-133250000D01*
X149588928Y-58459775D02*
X150378928Y-58459775D01*
X139500000Y-122300000D02*
X140600000Y-122300000D01*
D56*
X137235000Y-107900000D02*
X137035000Y-107900000D01*
X133300000Y-102300000D02*
X133300000Y-102176470D01*
X136550000Y-103400000D02*
X136550000Y-102687500D01*
X136550000Y-102687500D02*
X137175000Y-102062500D01*
D58*
X139150000Y-67025000D02*
X139150000Y-67887500D01*
D56*
X135250000Y-64250000D02*
X135250000Y-65150000D01*
D58*
X136550000Y-109125000D02*
X136550000Y-108585000D01*
D55*
X142919153Y-63680000D02*
X142939153Y-63700000D01*
D56*
X131650000Y-75250000D02*
X130950000Y-74550000D01*
X136800000Y-76000000D02*
X136800000Y-75400000D01*
D58*
X142050000Y-68850000D02*
X142100000Y-68800000D01*
D56*
X131650000Y-75300000D02*
X131650000Y-75250000D01*
D58*
X130300000Y-124680000D02*
X131100000Y-124680000D01*
D56*
X126500000Y-79950000D02*
X127350000Y-79950000D01*
X141040000Y-70660000D02*
X141040000Y-70076000D01*
D58*
X137700000Y-117400000D02*
X136800000Y-117400000D01*
D56*
X139600000Y-71350000D02*
X140350000Y-71350000D01*
D58*
X136550000Y-109125000D02*
X135900000Y-109125000D01*
D56*
X129550000Y-66200000D02*
X130000000Y-66200000D01*
D58*
X141818928Y-56779775D02*
X141819233Y-56780080D01*
D56*
X132325000Y-107900000D02*
X132000000Y-108225000D01*
D58*
X146678928Y-61529775D02*
X146978928Y-61529775D01*
X131800000Y-131250000D02*
X134304808Y-131250000D01*
D56*
X135900000Y-102425000D02*
X135900000Y-103400000D01*
X136150000Y-76650000D02*
X136800000Y-76000000D01*
X129550000Y-70900000D02*
X129550000Y-69950000D01*
X135900000Y-108325000D02*
X135900000Y-109125000D01*
D57*
X137250000Y-60550000D02*
X137700000Y-60550000D01*
D58*
X130900000Y-137150000D02*
X130900000Y-138000000D01*
D56*
X135400000Y-87800003D02*
X135399997Y-87800003D01*
X130970000Y-66330000D02*
X130500000Y-66800000D01*
D58*
X141819233Y-56780080D02*
X141819233Y-57158863D01*
D55*
X136535000Y-113550000D02*
X136535000Y-114450000D01*
D56*
X129525000Y-110900000D02*
X130425000Y-110900000D01*
D55*
X141639153Y-63680000D02*
X142919153Y-63680000D01*
D58*
X128600000Y-61600000D02*
X127700000Y-61600000D01*
X130900000Y-141150000D02*
X130900000Y-142000000D01*
D56*
X137035000Y-107900000D02*
X136550000Y-108385000D01*
D57*
X130850000Y-60550000D02*
X130400000Y-60550000D01*
D56*
X141150000Y-80150000D02*
X140350000Y-80150000D01*
X133055000Y-101800000D02*
X133300000Y-102045000D01*
D58*
X130300000Y-123780000D02*
X131100000Y-123780000D01*
X136200000Y-128900000D02*
X136200000Y-128000000D01*
D56*
X127350000Y-77900000D02*
X126450000Y-77900000D01*
D55*
X136535000Y-112650000D02*
X136535000Y-113550000D01*
D56*
X132000000Y-108225000D02*
X132000000Y-109125000D01*
D58*
X129800000Y-127750000D02*
X130600000Y-127750000D01*
D56*
X137175000Y-102062500D02*
X136262500Y-102062500D01*
D58*
X150988928Y-61299775D02*
X149588928Y-61299775D01*
D56*
X132700000Y-101800000D02*
X133055000Y-101800000D01*
X133300000Y-103400000D02*
X133300000Y-102300000D01*
D58*
X151008928Y-61279775D02*
X150988928Y-61299775D01*
D55*
X130500000Y-87848530D02*
X130500000Y-88050000D01*
D56*
X132040000Y-66330000D02*
X130970000Y-66330000D01*
X137850000Y-86650000D02*
X138200000Y-87000000D01*
D58*
X125450000Y-103650000D02*
X125450000Y-102750000D01*
X126730000Y-120130000D02*
X126730000Y-119285000D01*
D56*
X134347585Y-87750903D02*
X134340000Y-87758488D01*
X124750000Y-98850000D02*
X124700000Y-98900000D01*
D55*
X145239153Y-56300000D02*
X145259153Y-56320000D01*
D56*
X128109133Y-87009133D02*
X127700000Y-86600000D01*
X136262500Y-102062500D02*
X135900000Y-102425000D01*
D58*
X132000000Y-99400000D02*
X132000000Y-98600000D01*
D55*
X132300000Y-89750000D02*
X132700000Y-89750000D01*
X131424265Y-86924265D02*
X130500000Y-87848530D01*
X148578928Y-59389775D02*
X148587188Y-59389775D01*
D58*
X139150000Y-67887500D02*
X139100000Y-67937500D01*
X134304808Y-131250000D02*
X134429808Y-131125000D01*
D56*
X134350000Y-90250000D02*
X133550000Y-91050000D01*
D58*
X137700000Y-118300000D02*
X136800000Y-118300000D01*
X141000000Y-68850000D02*
X142050000Y-68850000D01*
D56*
X134340000Y-87758488D02*
X134340000Y-87950000D01*
X141200000Y-81150000D02*
X140350000Y-81150000D01*
X130000000Y-66200000D02*
X130500000Y-65700000D01*
X128425000Y-103700000D02*
X128425000Y-104600000D01*
X127150000Y-100000000D02*
X127050000Y-99900000D01*
D58*
X131350000Y-103400000D02*
X131350000Y-101865000D01*
D56*
X133300000Y-102045000D02*
X133300000Y-102300000D01*
X128187500Y-100787500D02*
X128200000Y-100800000D01*
D58*
X141819233Y-57158863D02*
X142290145Y-57629775D01*
D56*
X137100000Y-86650000D02*
X137850000Y-86650000D01*
D57*
X130400000Y-60550000D02*
X129720000Y-59870000D01*
D56*
X140350000Y-71350000D02*
X141040000Y-70660000D01*
X129550000Y-69950000D02*
X130000000Y-69500000D01*
D58*
X140788928Y-59809775D02*
X140788928Y-58749775D01*
D55*
X126500000Y-99012500D02*
X126500000Y-98309620D01*
D56*
X138070000Y-73750000D02*
X137820000Y-74000000D01*
D55*
X130600000Y-88050000D02*
X132300000Y-89750000D01*
D58*
X129800000Y-134750000D02*
X130600000Y-134750000D01*
X125700000Y-122200000D02*
X125700000Y-123200000D01*
D56*
X139750000Y-69712500D02*
X140676500Y-69712500D01*
X134350000Y-90150000D02*
X134350000Y-90250000D01*
D58*
X140550000Y-78250000D02*
X140600000Y-78300000D01*
D56*
X132325000Y-112950000D02*
X131525000Y-112950000D01*
X124750000Y-98150000D02*
X124750000Y-98850000D01*
X130950000Y-74550000D02*
X130950000Y-74450000D01*
X135399997Y-87800003D02*
X135250000Y-87950000D01*
X135250000Y-87950000D02*
X134340000Y-87950000D01*
X127700000Y-86600000D02*
X127700000Y-86200000D01*
X137235000Y-107900000D02*
X136325000Y-107900000D01*
D58*
X146678928Y-60029775D02*
X147947188Y-60029775D01*
X150539153Y-60400000D02*
X151539153Y-60400000D01*
X147947188Y-60029775D02*
X148587188Y-59389775D01*
D56*
X127150000Y-100787500D02*
X128187500Y-100787500D01*
X136550000Y-108385000D02*
X136550000Y-109125000D01*
D58*
X136200000Y-128000000D02*
X137200000Y-128000000D01*
D56*
X136325000Y-107900000D02*
X135900000Y-108325000D01*
X136150000Y-77300000D02*
X136150000Y-76650000D01*
D55*
X129450000Y-60550000D02*
X129450000Y-59851364D01*
D58*
X131350000Y-101865000D02*
X131315000Y-101830000D01*
D57*
X137700000Y-60550000D02*
X138380000Y-59870000D01*
D55*
X140200000Y-135350000D02*
X142400000Y-135350000D01*
D58*
%TO.N,-4V5*%
X130900000Y-130750000D02*
X130400000Y-131250000D01*
X135200000Y-129350000D02*
X135200000Y-128900000D01*
X133800000Y-130750000D02*
X135200000Y-129350000D01*
X131800000Y-130750000D02*
X130900000Y-130750000D01*
X129300000Y-123230000D02*
X128400000Y-122330000D01*
X147584664Y-58165511D02*
X146819153Y-57400000D01*
X129300000Y-123780000D02*
X129300000Y-123230000D01*
D55*
X146678928Y-59029775D02*
X147178928Y-59029775D01*
D58*
X131800000Y-130750000D02*
X133800000Y-130750000D01*
X142294928Y-58490477D02*
X142294928Y-58519775D01*
D55*
X130060000Y-122340000D02*
X128410000Y-122340000D01*
D58*
X141704187Y-57950550D02*
X141877412Y-58123775D01*
X141928226Y-58123775D02*
X142294928Y-58490477D01*
D55*
X147178928Y-59029775D02*
X147584664Y-58624039D01*
D58*
X129300000Y-123780000D02*
X129300000Y-124680000D01*
X147584664Y-58535511D02*
X147584664Y-58724039D01*
X141877412Y-58123775D02*
X141928226Y-58123775D01*
D55*
X147584664Y-58624039D02*
X147584664Y-58535511D01*
D58*
X135200000Y-128900000D02*
X135200000Y-128000000D01*
D55*
X128410000Y-122340000D02*
X128400000Y-122330000D01*
D58*
X142294928Y-58519775D02*
X142578928Y-58519775D01*
X147584664Y-58535511D02*
X147584664Y-58165511D01*
D55*
X135200000Y-127200000D02*
X135200000Y-128000000D01*
D58*
%TO.N,+4V5*%
X131800000Y-131750000D02*
X135000000Y-131750000D01*
X135200000Y-130600000D02*
X135850000Y-129950000D01*
X149588928Y-62229775D02*
X150318928Y-62229775D01*
D55*
X134600000Y-118050000D02*
X135025000Y-118475000D01*
D58*
X127300000Y-129650000D02*
X127400000Y-129550000D01*
X135200000Y-131550000D02*
X135200000Y-130600000D01*
D55*
X138047260Y-116739000D02*
X134961000Y-116739000D01*
X134400000Y-117300000D02*
X134600000Y-117100000D01*
X133800000Y-117300000D02*
X134400000Y-117300000D01*
X138700000Y-117400000D02*
X138700000Y-117391740D01*
X134961000Y-116739000D02*
X134600000Y-117100000D01*
D58*
X127300000Y-130450000D02*
X127300000Y-129650000D01*
X135000000Y-131750000D02*
X135200000Y-131550000D01*
D55*
X141639153Y-62120000D02*
X142098928Y-62579775D01*
X138700000Y-118300000D02*
X138700000Y-117400000D01*
X142098928Y-62579775D02*
X144028928Y-62579775D01*
D58*
X135850000Y-129950000D02*
X137100000Y-129950000D01*
D55*
X134600000Y-117100000D02*
X134600000Y-118050000D01*
X138700000Y-117391740D02*
X138047260Y-116739000D01*
D58*
%TO.N,+AUDIO_3V3*%
X126450000Y-101600000D02*
X126550000Y-101500000D01*
D56*
X131001001Y-104438500D02*
X130700000Y-104137499D01*
D55*
X129525000Y-102700000D02*
X129525000Y-102800000D01*
X137335000Y-111380000D02*
X137365000Y-111350000D01*
X130125000Y-103400000D02*
X130700000Y-103400000D01*
D56*
X130700000Y-104137499D02*
X130700000Y-103400000D01*
D55*
X129525000Y-102800000D02*
X130125000Y-103400000D01*
X125850000Y-100787500D02*
X126500000Y-100787500D01*
X130150000Y-109125000D02*
X129525000Y-108500000D01*
D56*
X129525000Y-109900000D02*
X129525000Y-108500000D01*
D55*
X137335000Y-112750000D02*
X137335000Y-111380000D01*
D56*
X132348999Y-104438500D02*
X131001001Y-104438500D01*
D55*
X126500000Y-100787500D02*
X126500000Y-101450000D01*
D56*
X132650000Y-104137499D02*
X132348999Y-104438500D01*
D55*
X130700000Y-109125000D02*
X130150000Y-109125000D01*
X126500000Y-101450000D02*
X126550000Y-101500000D01*
D56*
X132650000Y-103400000D02*
X132650000Y-104137499D01*
D58*
X128425000Y-102700000D02*
X129525000Y-102700000D01*
X126450000Y-102750000D02*
X126450000Y-101600000D01*
D55*
%TO.N,Net-(F1-Pad1)*%
X132453364Y-59048000D02*
X131650000Y-59851364D01*
X131650000Y-60550000D02*
X131650000Y-59851364D01*
D57*
X136450000Y-63300000D02*
X136450000Y-62300000D01*
D55*
X136450000Y-60550000D02*
X136450000Y-59851364D01*
X135646636Y-59048000D02*
X132453364Y-59048000D01*
D57*
X136450000Y-62300000D02*
X136450000Y-60550000D01*
D55*
X136450000Y-59851364D02*
X135646636Y-59048000D01*
D57*
X136600000Y-63450000D02*
X136450000Y-63300000D01*
D58*
%TO.N,Net-(J1-CC1)*%
X135250000Y-63250000D02*
X135300000Y-63200000D01*
X135300000Y-63200000D02*
X135300000Y-60550000D01*
%TO.N,Net-(J1-CC2)*%
X132300000Y-60550000D02*
X132300000Y-61376000D01*
X132076000Y-61600000D02*
X129600000Y-61600000D01*
X132300000Y-61376000D02*
X132076000Y-61600000D01*
D55*
%TO.N,/Audio processing/5102AVDD*%
X135535000Y-112650000D02*
X135535000Y-111600000D01*
X135535000Y-113550000D02*
X135535000Y-112650000D01*
X135785000Y-111350000D02*
X135250000Y-110815000D01*
X135535000Y-111600000D02*
X135785000Y-111350000D01*
X135250000Y-110815000D02*
X135250000Y-109125000D01*
D58*
%TO.N,/Audio processing/5102OUTL*%
X126730000Y-121130000D02*
X127880000Y-121130000D01*
X129995000Y-121005000D02*
X130060000Y-121070000D01*
X129970000Y-121130000D02*
X130085000Y-121015000D01*
X126700000Y-122200000D02*
X126700000Y-121160000D01*
X127880000Y-121130000D02*
X129970000Y-121130000D01*
X126700000Y-121160000D02*
X126730000Y-121130000D01*
X130000000Y-121130000D02*
X130060000Y-121070000D01*
D56*
%TO.N,+1V1*%
X128350000Y-79950000D02*
X128350000Y-79150000D01*
X137200000Y-80350000D02*
X139150000Y-80350000D01*
X139150000Y-80350000D02*
X139350000Y-80150000D01*
X133975735Y-86124265D02*
X133750000Y-85898530D01*
X134950000Y-77300000D02*
X134950000Y-76335110D01*
X134950000Y-76335110D02*
X134489000Y-75874110D01*
X139350000Y-80150000D02*
X139350000Y-79450000D01*
X128350000Y-79950000D02*
X130300000Y-79950000D01*
X133975735Y-86124265D02*
X134340000Y-86488530D01*
X128450000Y-80050000D02*
X128350000Y-79950000D01*
X133750000Y-85898530D02*
X133750000Y-84200000D01*
X134489000Y-75874110D02*
X134489000Y-74161000D01*
X134340000Y-86488530D02*
X134340000Y-86950000D01*
D55*
%TO.N,/Audio processing/OUTR*%
X124800000Y-128350000D02*
X125400000Y-127750000D01*
X133700000Y-140450000D02*
X125350000Y-140450000D01*
D58*
X128214000Y-130328292D02*
X128635708Y-130750000D01*
D55*
X125350000Y-140450000D02*
X124800000Y-139900000D01*
D58*
X128850000Y-127750000D02*
X128214000Y-128386000D01*
D55*
X125400000Y-127750000D02*
X128850000Y-127750000D01*
D58*
X128214000Y-128386000D02*
X128214000Y-130328292D01*
X128635708Y-130750000D02*
X129000000Y-130750000D01*
D55*
X124800000Y-139900000D02*
X124800000Y-128350000D01*
%TO.N,/Audio processing/OUTL*%
X128164000Y-134700000D02*
X128164000Y-132186352D01*
D58*
X128164000Y-134064000D02*
X128850000Y-134750000D01*
D55*
X133700000Y-136450000D02*
X128400000Y-136450000D01*
D58*
X128635708Y-131750000D02*
X129000000Y-131750000D01*
D55*
X128164000Y-136214000D02*
X128164000Y-133500000D01*
X128400000Y-136450000D02*
X128164000Y-136214000D01*
X128600352Y-131750000D02*
X129000000Y-131750000D01*
X128164000Y-132186352D02*
X128600352Y-131750000D01*
X128164000Y-134700000D02*
X128164000Y-134064000D01*
D58*
%TO.N,/Audio processing/5102OUTR*%
X137430000Y-122355000D02*
X137530000Y-122255000D01*
X135000000Y-122340000D02*
X137425000Y-122340000D01*
X137510000Y-122255000D02*
X137430000Y-122335000D01*
X135085000Y-122255000D02*
X135000000Y-122340000D01*
X137530000Y-122255000D02*
X137510000Y-122255000D01*
X137425000Y-122340000D02*
X137430000Y-122335000D01*
X137430000Y-122335000D02*
X137430000Y-123335000D01*
X138500000Y-122300000D02*
X137465000Y-122300000D01*
X137465000Y-122300000D02*
X137430000Y-122335000D01*
%TO.N,/Audio processing/VOLOUTR*%
X133200000Y-128850000D02*
X133200000Y-127350000D01*
X146600000Y-132950000D02*
X150550000Y-136900000D01*
X146600000Y-127700000D02*
X146600000Y-132950000D01*
X145200000Y-126300000D02*
X146600000Y-127700000D01*
X131800000Y-130250000D02*
X133200000Y-128850000D01*
X133200000Y-127350000D02*
X134250000Y-126300000D01*
X134250000Y-126300000D02*
X145200000Y-126300000D01*
%TO.N,/Audio processing/VOLOUTL*%
X145550000Y-134550000D02*
X145550000Y-136900000D01*
X133750000Y-133150000D02*
X144150000Y-133150000D01*
X131800000Y-132250000D02*
X132850000Y-132250000D01*
X132850000Y-132250000D02*
X133750000Y-133150000D01*
X144150000Y-133150000D02*
X145550000Y-134550000D01*
D56*
%TO.N,/MCU/SWCLK*%
X134150000Y-85450000D02*
X134900000Y-86200000D01*
X134150000Y-84200000D02*
X134150000Y-85450000D01*
X134900000Y-86200000D02*
X135400000Y-86700000D01*
X135400000Y-86700000D02*
X135400000Y-87000000D01*
%TO.N,/MCU/SWDIO*%
X135800000Y-88593655D02*
X136000000Y-88393655D01*
X136000000Y-86596300D02*
X134550000Y-85146300D01*
X136000000Y-88393655D02*
X136000000Y-86596300D01*
X134550000Y-85146300D02*
X134550000Y-84200000D01*
%TO.N,2350DP*%
X132836000Y-65144000D02*
X133760000Y-64220000D01*
D58*
X133300000Y-63760000D02*
X133760000Y-64220000D01*
X133300000Y-60550000D02*
X133300000Y-59548000D01*
D56*
X131150000Y-71860000D02*
X131024000Y-71734000D01*
D58*
X133300000Y-59548000D02*
X133324000Y-59524000D01*
D56*
X131150000Y-71860000D02*
X132836000Y-70174000D01*
D58*
X134276000Y-59524000D02*
X134300000Y-59548000D01*
X134300000Y-59548000D02*
X134300000Y-60550000D01*
X133300000Y-60550000D02*
X133300000Y-63760000D01*
D56*
X132836000Y-70174000D02*
X132836000Y-65144000D01*
X131024000Y-71900000D02*
X131024000Y-71974000D01*
D58*
X133324000Y-59524000D02*
X134276000Y-59524000D01*
%TO.N,2350DN*%
X134800000Y-61552000D02*
X134776000Y-61576000D01*
X134400000Y-61576000D02*
X133926000Y-61576000D01*
D56*
X133760000Y-70060000D02*
X133760000Y-66330000D01*
D58*
X133800000Y-61450000D02*
X133800000Y-60550000D01*
X134776000Y-61576000D02*
X134400000Y-61576000D01*
X134800000Y-60550000D02*
X134800000Y-61552000D01*
D56*
X133760000Y-66330000D02*
X134400000Y-65690000D01*
X133760000Y-70060000D02*
X132550000Y-71270000D01*
D58*
X133926000Y-61576000D02*
X133800000Y-61450000D01*
D56*
X132550000Y-71270000D02*
X132550000Y-71880000D01*
X134400000Y-65690000D02*
X134400000Y-61576000D01*
%TO.N,/MCU/QSPI_SS*%
X130950000Y-77300000D02*
X130950000Y-75750000D01*
X130950000Y-75750000D02*
X130450000Y-75250000D01*
%TO.N,/MCU/RUN*%
X127000000Y-92400000D02*
X125100000Y-90500000D01*
X136400000Y-87100000D02*
X136400000Y-90400000D01*
X134400000Y-92400000D02*
X127000000Y-92400000D01*
X136400000Y-86147774D02*
X134950000Y-84697774D01*
X134950000Y-84697774D02*
X134950000Y-84200000D01*
X136400000Y-90400000D02*
X134400000Y-92400000D01*
X136400000Y-87100000D02*
X136400000Y-86500000D01*
X125100000Y-90500000D02*
X125100000Y-67350000D01*
X136400000Y-87000000D02*
X136400000Y-87100000D01*
X137050000Y-87650000D02*
X136400000Y-87000000D01*
X125100000Y-67350000D02*
X126250000Y-66200000D01*
X136400000Y-86500000D02*
X136400000Y-86147774D01*
%TO.N,/MCU/GP9*%
X128850000Y-82750000D02*
X130300000Y-82750000D01*
D58*
X148600000Y-141810000D02*
X148267431Y-141810000D01*
X148267431Y-141810000D02*
X147638291Y-141180860D01*
D56*
%TO.N,/MCU/GP10*%
X129333884Y-83150000D02*
X130300000Y-83150000D01*
D58*
X145100000Y-141810000D02*
X145690000Y-141810000D01*
X145690000Y-141810000D02*
X146100000Y-141400000D01*
D56*
X128841940Y-83641944D02*
X129333884Y-83150000D01*
%TO.N,GP20*%
X133950000Y-101950000D02*
X136951000Y-98949000D01*
X133950000Y-103400000D02*
X133950000Y-101950000D01*
X140549000Y-98083900D02*
X140549000Y-83616100D01*
X140082900Y-83150000D02*
X137200000Y-83150000D01*
X139683900Y-98949000D02*
X140549000Y-98083900D01*
X136951000Y-98949000D02*
X139683900Y-98949000D01*
X140549000Y-83616100D02*
X140082900Y-83150000D01*
%TO.N,GP21*%
X140950000Y-98250000D02*
X140950000Y-83450000D01*
X134600000Y-102000000D02*
X137250000Y-99350000D01*
X140250000Y-82750000D02*
X137200000Y-82750000D01*
X137250000Y-99350000D02*
X139850000Y-99350000D01*
X134600000Y-103400000D02*
X134600000Y-102000000D01*
X139850000Y-99350000D02*
X140950000Y-98250000D01*
X140950000Y-83450000D02*
X140250000Y-82750000D01*
%TO.N,GP19*%
X141350000Y-83001470D02*
X141174265Y-82825735D01*
X135250000Y-103400000D02*
X135250000Y-101950000D01*
X137449000Y-99751000D02*
X140149000Y-99751000D01*
X139813278Y-83750000D02*
X138350000Y-83750000D01*
X141350000Y-98550000D02*
X141350000Y-83001470D01*
X140149000Y-99751000D02*
X141350000Y-98550000D01*
X135250000Y-101950000D02*
X137449000Y-99751000D01*
X138350000Y-83750000D02*
X138150000Y-83550000D01*
X138150000Y-83550000D02*
X137200000Y-83550000D01*
%TO.N,Net-(R8-Pad1)*%
X126250000Y-74150000D02*
X126250000Y-70900000D01*
X127350000Y-75250000D02*
X126250000Y-74150000D01*
X129450000Y-75250000D02*
X127350000Y-75250000D01*
D58*
%TO.N,/Audio processing/1652OUTL*%
X130060000Y-119800000D02*
X130060000Y-118530000D01*
X131800000Y-117225000D02*
X130605000Y-117225000D01*
X130605000Y-117225000D02*
X130085000Y-117745000D01*
X130085000Y-117745000D02*
X130085000Y-118475000D01*
%TO.N,/Audio processing/1652OUTR*%
X135000000Y-119800000D02*
X135000000Y-121070000D01*
X136700000Y-119800000D02*
X135000000Y-119800000D01*
D56*
%TO.N,Net-(U3-EN+)*%
X142552378Y-59218775D02*
X142297928Y-59473225D01*
X142297928Y-60180775D02*
X141668928Y-60809775D01*
X143265478Y-59218775D02*
X142552378Y-59218775D01*
X141668928Y-60809775D02*
X141848928Y-60809775D01*
X141848928Y-60809775D02*
X142798928Y-61759775D01*
X144548928Y-61759775D02*
X144778928Y-61529775D01*
X144778928Y-59529775D02*
X143576478Y-59529775D01*
X142798928Y-61759775D02*
X144548928Y-61759775D01*
X141668928Y-60809775D02*
X140788928Y-60809775D01*
X142297928Y-59473225D02*
X142297928Y-60180775D01*
X143576478Y-59529775D02*
X143265478Y-59218775D01*
D58*
%TO.N,Net-(U3-C+)*%
X144778928Y-60529775D02*
X144773695Y-60524542D01*
X144773695Y-60524542D02*
X143184161Y-60524542D01*
X143184161Y-60524542D02*
X142908928Y-60799775D01*
%TO.N,Net-(U3-C-)*%
X142908928Y-59799775D02*
X143138928Y-60029775D01*
X143138928Y-60029775D02*
X144778928Y-60029775D01*
%TO.N,Net-(U3-CP)*%
X148544284Y-58459775D02*
X148588928Y-58459775D01*
X147939153Y-59064906D02*
X148544284Y-58459775D01*
X147809378Y-59529775D02*
X147939153Y-59400000D01*
X147939153Y-59400000D02*
X147939153Y-59064906D01*
X146678928Y-59529775D02*
X147809378Y-59529775D01*
D56*
%TO.N,Net-(U4-VREG_AVDD)*%
X137866450Y-76633550D02*
X136733550Y-76633550D01*
X138750000Y-75750000D02*
X138750000Y-74750000D01*
X138750000Y-75750000D02*
X137866450Y-76633550D01*
X136733550Y-76633550D02*
X136550000Y-76817100D01*
X136550000Y-76817100D02*
X136550000Y-77300000D01*
%TO.N,Net-(U4-XIN)*%
X129600000Y-86650000D02*
X129100000Y-87150000D01*
X129100000Y-88900000D02*
X129600000Y-89400000D01*
X129600000Y-89400000D02*
X129950000Y-89750000D01*
X130500000Y-89750000D02*
X130600000Y-89750000D01*
X132600000Y-85650000D02*
X131850000Y-85650000D01*
X129950000Y-89750000D02*
X130500000Y-89750000D01*
X128600000Y-89400000D02*
X128400000Y-89400000D01*
X132950000Y-85300000D02*
X132600000Y-85650000D01*
X131850000Y-85650000D02*
X130850000Y-86650000D01*
X132950000Y-84200000D02*
X132950000Y-85300000D01*
X129100000Y-87150000D02*
X129100000Y-88900000D01*
X129100000Y-88900000D02*
X128600000Y-89400000D01*
X130850000Y-86650000D02*
X129600000Y-86650000D01*
X130400000Y-89650000D02*
X130500000Y-89750000D01*
%TO.N,Net-(U7-CAPP)*%
X131325000Y-110900000D02*
X131325000Y-109150000D01*
X131325000Y-109150000D02*
X131350000Y-109125000D01*
%TO.N,Net-(U7-CAPM)*%
X132650000Y-110575000D02*
X132650000Y-109125000D01*
X132325000Y-110900000D02*
X132650000Y-110575000D01*
D58*
%TO.N,Net-(U7-LDOO)*%
X132000000Y-103400000D02*
X132000000Y-100400000D01*
D56*
%TO.N,Net-(U7-VNEG)*%
X132325000Y-111950000D02*
X133300000Y-110975000D01*
X133300000Y-110975000D02*
X133300000Y-109125000D01*
D58*
%TO.N,Net-(U8-EN)*%
X126400000Y-131250000D02*
X129000000Y-131250000D01*
X126300000Y-131350000D02*
X126400000Y-131250000D01*
X126300000Y-130450000D02*
X126300000Y-131350000D01*
D56*
%TO.N,Net-(U4-VREG_LX)*%
X136020000Y-73400000D02*
X136020000Y-76100000D01*
X137020000Y-72400000D02*
X136020000Y-73400000D01*
X135750000Y-76370000D02*
X136020000Y-76100000D01*
X135750000Y-77300000D02*
X135750000Y-76370000D01*
D58*
%TO.N,Net-(U3-FB+)*%
X148588928Y-62229775D02*
X148588928Y-61299775D01*
X148318928Y-61029775D02*
X146678928Y-61029775D01*
X148588928Y-61299775D02*
X148318928Y-61029775D01*
%TO.N,Net-(U3-FB-)*%
X144088928Y-59029775D02*
X143578928Y-58519775D01*
X143578928Y-58519775D02*
X143578928Y-57629775D01*
X144778928Y-59029775D02*
X144088928Y-59029775D01*
D56*
%TO.N,Net-(U4-USB_DP)*%
X131150000Y-73500000D02*
X131950000Y-74300000D01*
X132750000Y-74300000D02*
X133549000Y-75099000D01*
X133549000Y-75099000D02*
X133549000Y-76099000D01*
X133549000Y-76099000D02*
X134150000Y-76700000D01*
X131150000Y-73700000D02*
X131150000Y-73500000D01*
X131950000Y-74300000D02*
X132750000Y-74300000D01*
X134150000Y-76700000D02*
X134150000Y-77300000D01*
%TO.N,Net-(U4-USB_DM)*%
X133950000Y-75932900D02*
X134550000Y-76532900D01*
X134550000Y-76532900D02*
X134550000Y-77300000D01*
X132970000Y-73520000D02*
X133950000Y-74500000D01*
X132550000Y-73520000D02*
X132970000Y-73520000D01*
X133950000Y-74500000D02*
X133950000Y-75932900D01*
%TO.N,Net-(U4-XOUT)*%
X133350000Y-86400000D02*
X133350000Y-84200000D01*
X133200000Y-86550000D02*
X133350000Y-86400000D01*
D58*
%TO.N,Net-(U7-OUTL)*%
X128200000Y-119810000D02*
X128200000Y-117100000D01*
X128200000Y-117100000D02*
X129600000Y-115700000D01*
X132700000Y-115700000D02*
X133950000Y-114450000D01*
X133950000Y-114450000D02*
X133950000Y-109125000D01*
X129600000Y-115700000D02*
X132700000Y-115700000D01*
X127880000Y-120130000D02*
X128200000Y-119810000D01*
%TO.N,Net-(U7-OUTR)*%
X139300000Y-115900000D02*
X136000000Y-115900000D01*
X134600000Y-114500000D02*
X134600000Y-109125000D01*
X136000000Y-115900000D02*
X134600000Y-114500000D01*
X140200000Y-120300000D02*
X140200000Y-116800000D01*
X140200000Y-116800000D02*
X139300000Y-115900000D01*
X139165000Y-121335000D02*
X140200000Y-120300000D01*
X137430000Y-121335000D02*
X139165000Y-121335000D01*
%TO.N,Net-(U8--INA)*%
X129800000Y-133750000D02*
X128850000Y-133750000D01*
X128850000Y-132400000D02*
X129000000Y-132250000D01*
X128850000Y-133750000D02*
X128850000Y-132400000D01*
%TO.N,Net-(U8--INB)*%
X128850000Y-128750000D02*
X128850000Y-130100000D01*
X129800000Y-128750000D02*
X128850000Y-128750000D01*
X128850000Y-130100000D02*
X129000000Y-130250000D01*
D56*
%TO.N,Net-(C29-Pad1)*%
X132800000Y-88050000D02*
X132700000Y-88050000D01*
X134350000Y-89150000D02*
X133900000Y-89150000D01*
X132200000Y-86550000D02*
X132200000Y-87550000D01*
X132200000Y-87550000D02*
X132700000Y-88050000D01*
X133900000Y-89150000D02*
X132800000Y-88050000D01*
D58*
%TO.N,Net-(D2-A)*%
X147000000Y-143620000D02*
X148370000Y-143620000D01*
X148370000Y-143620000D02*
X148600000Y-143390000D01*
%TO.N,Net-(D3-Pad2)*%
X143500000Y-143620000D02*
X144870000Y-143620000D01*
X144870000Y-143620000D02*
X145100000Y-143390000D01*
%TD*%
%TA.AperFunction,Conductor*%
%TO.N,GND*%
G36*
X137871110Y-73550221D02*
G01*
X137900601Y-73556086D01*
X137963428Y-73568583D01*
X137967572Y-73570300D01*
X138044874Y-73621952D01*
X138048047Y-73625125D01*
X138099699Y-73702427D01*
X138101416Y-73706572D01*
X138119779Y-73798888D01*
X138120000Y-73801132D01*
X138120000Y-75598867D01*
X138119779Y-75601111D01*
X138101416Y-75693427D01*
X138099699Y-75697572D01*
X138048047Y-75774874D01*
X138044874Y-75778047D01*
X137967572Y-75829699D01*
X137963427Y-75831416D01*
X137871111Y-75849779D01*
X137868867Y-75850000D01*
X136526643Y-75850000D01*
X136524369Y-75849773D01*
X136430842Y-75830905D01*
X136426651Y-75829143D01*
X136348722Y-75776147D01*
X136345544Y-75772899D01*
X136322352Y-75737146D01*
X136320500Y-75730888D01*
X136320500Y-73769219D01*
X136320766Y-73766761D01*
X136334763Y-73702779D01*
X136336523Y-73698719D01*
X136388502Y-73623169D01*
X136391659Y-73620078D01*
X136468330Y-73569747D01*
X136472418Y-73568081D01*
X136563528Y-73550215D01*
X136565741Y-73550000D01*
X137868867Y-73550000D01*
X137871110Y-73550221D01*
G37*
%TD.AperFunction*%
%TD*%
%TA.AperFunction,Conductor*%
%TO.N,VBUS*%
G36*
X138311922Y-66732185D02*
G01*
X138357677Y-66784989D01*
X138367621Y-66854147D01*
X138366500Y-66860692D01*
X138349500Y-66946155D01*
X138349500Y-67103846D01*
X138380261Y-67258489D01*
X138380264Y-67258501D01*
X138440602Y-67404172D01*
X138440608Y-67404183D01*
X138460581Y-67434075D01*
X138461914Y-67438333D01*
X138465130Y-67441426D01*
X138472259Y-67471374D01*
X138481458Y-67500753D01*
X138480567Y-67506274D01*
X138481311Y-67509396D01*
X138476966Y-67528617D01*
X138474483Y-67544023D01*
X138473342Y-67547273D01*
X138414795Y-67688620D01*
X138409422Y-67729427D01*
X138405166Y-67741558D01*
X138391977Y-67759911D01*
X138382833Y-67780583D01*
X138371979Y-67787741D01*
X138364394Y-67798298D01*
X138343375Y-67806608D01*
X138324508Y-67819053D01*
X138304204Y-67822095D01*
X138299419Y-67823988D01*
X138296033Y-67823320D01*
X138288164Y-67824500D01*
X138252131Y-67824500D01*
X138252123Y-67824501D01*
X138192516Y-67830908D01*
X138057671Y-67881202D01*
X138057664Y-67881206D01*
X137942455Y-67967452D01*
X137942452Y-67967455D01*
X137871069Y-68062811D01*
X137815136Y-68104682D01*
X137771803Y-68112500D01*
X136862211Y-68112500D01*
X136838020Y-68110117D01*
X136823189Y-68107167D01*
X136778518Y-68098281D01*
X136733822Y-68079767D01*
X136693727Y-68052977D01*
X136659522Y-68018772D01*
X136632730Y-67978675D01*
X136614218Y-67933980D01*
X136602383Y-67874480D01*
X136600000Y-67850289D01*
X136600000Y-66974710D01*
X136602383Y-66950519D01*
X136614218Y-66891019D01*
X136632729Y-66846326D01*
X136659524Y-66806224D01*
X136693724Y-66772024D01*
X136733826Y-66745229D01*
X136778514Y-66726719D01*
X136838028Y-66714881D01*
X136862211Y-66712500D01*
X138244883Y-66712500D01*
X138311922Y-66732185D01*
G37*
%TD.AperFunction*%
%TD*%
%TA.AperFunction,Conductor*%
%TO.N,+1V1*%
G36*
X135271110Y-71500221D02*
G01*
X135300601Y-71506086D01*
X135363428Y-71518583D01*
X135367572Y-71520300D01*
X135444874Y-71571952D01*
X135448047Y-71575125D01*
X135499699Y-71652427D01*
X135501416Y-71656572D01*
X135519779Y-71748888D01*
X135520000Y-71751132D01*
X135520000Y-73200000D01*
X135552937Y-73257641D01*
X135552939Y-73257644D01*
X135686692Y-73491711D01*
X135687346Y-73493052D01*
X135711055Y-73550835D01*
X135711819Y-73553712D01*
X135719403Y-73611816D01*
X135719500Y-73613304D01*
X135719500Y-74301380D01*
X135719279Y-74303624D01*
X135701416Y-74393427D01*
X135699699Y-74397572D01*
X135648047Y-74474874D01*
X135644874Y-74478047D01*
X135567572Y-74529699D01*
X135563427Y-74531416D01*
X135471111Y-74549779D01*
X135468867Y-74550000D01*
X134720712Y-74550000D01*
X134718545Y-74549794D01*
X134629242Y-74532656D01*
X134625215Y-74531051D01*
X134548602Y-74482076D01*
X134546887Y-74480735D01*
X134540700Y-74474874D01*
X133748915Y-73724761D01*
X133747394Y-73722995D01*
X133691700Y-73643193D01*
X133689866Y-73638931D01*
X133684588Y-73613304D01*
X133672316Y-73553712D01*
X133670236Y-73543612D01*
X133670000Y-73541292D01*
X133670000Y-71751132D01*
X133670221Y-71748889D01*
X133670502Y-71747471D01*
X133688584Y-71656570D01*
X133690298Y-71652430D01*
X133741952Y-71575124D01*
X133745125Y-71571952D01*
X133822430Y-71520298D01*
X133826570Y-71518584D01*
X133896275Y-71504719D01*
X133918890Y-71500221D01*
X133921133Y-71500000D01*
X135268867Y-71500000D01*
X135271110Y-71500221D01*
G37*
%TD.AperFunction*%
%TD*%
M02*
