M48
; DRILL file {KiCad 9.0.7} date 2026-02-24T17:57:31+0800
; FORMAT={-:-/ absolute / inch / decimal}
; #@! TF.CreationDate,2026-02-24T17:57:31+08:00
; #@! TF.GenerationSoftware,Kicad,Pcbnew,9.0.7
; #@! TF.FileFunction,Plated,1,4,PTH
FMAT,2
INCH
; #@! TA.AperFunction,Plated,PTH,ComponentDrill
T1C0.0079
; #@! TA.AperFunction,Plated,PTH,ViaDrill
T2C0.0118
; #@! TA.AperFunction,Plated,PTH,ComponentDrill
T3C0.0118
; #@! TA.AperFunction,Plated,PTH,ComponentDrill
T4C0.0157
; #@! TA.AperFunction,Plated,PTH,ComponentDrill
T5C0.0197
; #@! TA.AperFunction,Plated,PTH,ComponentDrill
T6C0.0394
; #@! TA.AperFunction,Plated,PTH,ComponentDrill
T7C0.0512
; #@! TA.AperFunction,Plated,PTH,ComponentDrill
T8C0.0866
%
G90
G05
T1
X5.0138Y-3.8484
X5.0138Y-3.8917
X5.1112Y-5.1673
X5.1339Y-5.1299
X5.1339Y-5.2047
X5.1565Y-5.1673
X5.2087Y-3.122
X5.2087Y-3.1791
X5.2087Y-3.2362
X5.2657Y-3.122
X5.2657Y-3.1791
X5.2657Y-3.2362
X5.3228Y-3.122
X5.3228Y-3.1791
X5.3228Y-3.2362
X5.4547Y-2.7096
X5.498Y-2.7096
T2
X4.8386Y-2.3839
X4.8386Y-2.4429
X4.8386Y-2.502
X4.8386Y-2.561
X4.8386Y-2.6201
X4.8386Y-2.6791
X4.8386Y-2.7382
X4.8386Y-2.7972
X4.8386Y-2.8563
X4.8386Y-2.9154
X4.8386Y-2.9744
X4.8386Y-3.0335
X4.8386Y-3.0925
X4.8386Y-3.1516
X4.8386Y-3.2106
X4.8386Y-3.2697
X4.8386Y-3.3287
X4.8386Y-3.3878
X4.8386Y-3.4469
X4.8386Y-3.5059
X4.8386Y-3.565
X4.8386Y-3.624
X4.8386Y-3.6831
X4.8386Y-3.7421
X4.8386Y-3.8012
X4.8386Y-3.8602
X4.8386Y-3.9193
X4.8386Y-3.9783
X4.8386Y-4.0374
X4.8386Y-4.0965
X4.8386Y-4.1555
X4.8386Y-4.2146
X4.8386Y-4.2736
X4.8386Y-4.3327
X4.8386Y-4.3917
X4.8386Y-4.4508
X4.8386Y-4.5098
X4.8386Y-4.5689
X4.8386Y-4.628
X4.8386Y-4.687
X4.8386Y-4.7461
X4.8386Y-4.8051
X4.8386Y-4.8642
X4.8386Y-4.9232
X4.8386Y-4.9823
X4.8386Y-5.0413
X4.8386Y-5.1004
X4.8386Y-5.1594
X4.8386Y-5.2185
X4.8386Y-5.2776
X4.8386Y-5.3366
X4.8386Y-5.3957
X4.8386Y-5.4547
X4.8386Y-5.5059
X4.8386Y-5.565
X4.9012Y-4.0571
X4.9445Y-3.9823
X4.9445Y-4.2106
X4.9508Y-3.872
X4.9724Y-5.2461
X4.9799Y-4.3051
X4.9803Y-3.2618
X4.9803Y-3.2972
X4.9803Y-3.3327
X4.9894Y-4.6963
X5.015Y-3.948
X5.0157Y-5.1004
X5.0232Y-4.3858
X5.0276Y-2.4252
X5.0276Y-2.4606
X5.0531Y-3.0276
X5.0531Y-3.1161
X5.0547Y-4.187
X5.0551Y-3.1909
X5.0551Y-4.8161
X5.0764Y-3.8701
X5.1031Y-3.9464
X5.1122Y-3.3425
X5.1122Y-3.8602
X5.1417Y-5.0295
X5.1417Y-5.3051
X5.1417Y-5.7402
X5.1496Y-2.5354
X5.1496Y-2.6383
X5.1496Y-2.7165
X5.1535Y-5.4331
X5.1535Y-5.5906
X5.1555Y-2.9311
X5.1614Y-4.8732
X5.1614Y-4.9087
X5.1693Y-5.6476
X5.189Y-4.6152
X5.1969Y-5.7402
X5.2008Y-2.998
X5.2205Y-4.4449
X5.2457Y-3.9572
X5.248Y-4.187
X5.252Y-4.378
X5.2559Y-5.7402
X5.2579Y-3.5846
X5.2744Y-2.8287
X5.2744Y-2.8583
X5.2744Y-2.8878
X5.2746Y-3.3907
X5.2776Y-4.5886
X5.2892Y-3.4791
X5.2925Y-5.1624
X5.313Y-4.0354
X5.313Y-4.0625
X5.313Y-4.0895
X5.313Y-4.1165
X5.313Y-4.1436
X5.313Y-4.1706
X5.313Y-4.1976
X5.313Y-4.2247
X5.313Y-4.2517
X5.313Y-4.2787
X5.313Y-4.3058
X5.313Y-4.3328
X5.313Y-4.3598
X5.313Y-4.3869
X5.313Y-4.4139
X5.313Y-4.4409
X5.315Y-5.7402
X5.3228Y-5.0079
X5.3248Y-2.565
X5.3273Y-3.9508
X5.3596Y-3.9508
X5.3642Y-4.3898
X5.374Y-4.2736
X5.3819Y-4.7165
X5.3858Y-4.622
X5.3858Y-4.6575
X5.3919Y-3.9508
X5.3937Y-2.6422
X5.3937Y-2.6658
X5.3957Y-3.5295
X5.3976Y-5.1161
X5.4016Y-4.4146
X5.4016Y-5.0394
X5.4055Y-5.1791
X5.4063Y-4.1261
X5.4106Y-4.9285
X5.4242Y-3.9508
X5.426Y-2.9134
X5.426Y-2.9409
X5.426Y-2.9685
X5.437Y-3.372
X5.4457Y-4.4027
X5.4565Y-3.9508
X5.4567Y-2.7741
X5.4783Y-2.6388
X5.4862Y-2.7741
X5.4862Y-3.128
X5.4862Y-3.2343
X5.4862Y-3.7657
X5.4862Y-3.8012
X5.4862Y-3.8366
X5.4889Y-3.9508
X5.5012Y-4.0122
X5.5012Y-4.0469
X5.5045Y-3.2972
X5.5059Y-3.0134
X5.5079Y-5.7402
X5.5096Y-4.2798
X5.5098Y-3.3283
X5.5118Y-2.1457
X5.5118Y-4.4185
X5.5126Y-4.3898
X5.5212Y-3.9508
X5.5326Y-4.0482
X5.5535Y-3.9508
X5.558Y-3.2609
X5.563Y-5.7402
X5.5709Y-2.1457
X5.5753Y-3.2345
X5.5787Y-4.0528
X5.5858Y-3.9508
X5.6063Y-5.3287
X5.6181Y-3.9508
X5.622Y-5.7402
X5.6299Y-2.1457
X5.6811Y-5.7402
X5.689Y-2.1457
X5.7323Y-5.7402
X5.748Y-2.1457
X5.7874Y-5.7402
X5.8031Y-2.1457
X5.8465Y-5.7402
X5.8622Y-2.1457
X5.9055Y-5.7402
X5.9213Y-2.1457
T3
X5.1988Y-2.1673
X5.1988Y-2.2461
X5.3563Y-2.1673
X5.3563Y-2.2461
X5.4016Y-4.2067
X5.4409Y-4.2067
X5.4803Y-4.2067
T4
X4.8415Y-2.2126
X4.8415Y-5.6732
X4.8606Y-2.1667
X4.8606Y-2.2585
X4.8606Y-5.6273
X4.8606Y-5.7192
X4.9065Y-2.1476
X4.9065Y-2.2776
X4.9065Y-5.6083
X4.9065Y-5.7382
X4.9524Y-2.1667
X4.9524Y-2.2585
X4.9524Y-5.6273
X4.9524Y-5.7192
X4.9715Y-2.2126
X4.9715Y-5.6732
X5.9685Y-2.2126
X5.9685Y-5.6732
X5.9875Y-2.1667
X5.9875Y-2.2585
X5.9875Y-5.6273
X5.9875Y-5.7192
X6.0335Y-2.1476
X6.0335Y-2.2776
X6.0335Y-5.6083
X6.0335Y-5.7382
X6.0794Y-2.1667
X6.0794Y-2.2585
X6.0794Y-5.6273
X6.0794Y-5.7192
X6.0984Y-2.2126
X6.0984Y-5.6732
T6
X5.087Y-3.6949
X5.187Y-3.6949
X5.287Y-3.6949
T7
X5.7303Y-5.2972
X5.8287Y-2.5413
X5.8287Y-5.2972
X5.9272Y-5.2972
X6.0256Y-2.5413
X6.0256Y-5.2972
T8
X4.9065Y-2.2126
X4.9065Y-5.6732
X5.878Y-3.0335
X5.878Y-4.9035
X6.0335Y-2.2126
X6.0335Y-5.6732
T5
G00X5.1071Y-2.2075
M15
G01X5.1071Y-2.176
M16
G05
G00X5.1071Y-2.3787
M15
G01X5.1071Y-2.3354
M16
G05
G00X5.448Y-2.2075
M15
G01X5.448Y-2.176
M16
G05
G00X5.448Y-2.3787
M15
G01X5.448Y-2.3354
M16
G05
M30
