%TF.GenerationSoftware,KiCad,Pcbnew,9.0.7*%
%TF.CreationDate,2026-03-05T22:31:15+08:00*%
%TF.ProjectId,pumper,70756d70-6572-42e6-9b69-6361645f7063,rev?*%
%TF.SameCoordinates,Original*%
%TF.FileFunction,Legend,Top*%
%TF.FilePolarity,Positive*%
%FSLAX46Y46*%
G04 Gerber Fmt 4.6, Leading zero omitted, Abs format (unit mm)*
G04 Created by KiCad (PCBNEW 9.0.7) date 2026-03-05 22:31:15*
%MOMM*%
%LPD*%
G01*
G04 APERTURE LIST*
G04 Aperture macros list*
%AMRoundRect*
0 Rectangle with rounded corners*
0 $1 Rounding radius*
0 $2 $3 $4 $5 $6 $7 $8 $9 X,Y pos of 4 corners*
0 Add a 4 corners polygon primitive as box body*
4,1,4,$2,$3,$4,$5,$6,$7,$8,$9,$2,$3,0*
0 Add four circle primitives for the rounded corners*
1,1,$1+$1,$2,$3*
1,1,$1+$1,$4,$5*
1,1,$1+$1,$6,$7*
1,1,$1+$1,$8,$9*
0 Add four rect primitives between the rounded corners*
20,1,$1+$1,$2,$3,$4,$5,0*
20,1,$1+$1,$4,$5,$6,$7,0*
20,1,$1+$1,$6,$7,$8,$9,0*
20,1,$1+$1,$8,$9,$2,$3,0*%
G04 Aperture macros list end*
%ADD10C,0.180000*%
%ADD11C,0.150000*%
%ADD12C,0.250000*%
%ADD13C,0.127000*%
%ADD14C,0.200000*%
%ADD15C,0.120000*%
%ADD16C,0.100000*%
%ADD17C,0.010000*%
%ADD18RoundRect,0.159000X-0.159000X-0.189000X0.159000X-0.189000X0.159000X0.189000X-0.159000X0.189000X0*%
%ADD19RoundRect,0.162500X-0.237500X-0.162500X0.237500X-0.162500X0.237500X0.162500X-0.237500X0.162500X0*%
%ADD20RoundRect,0.159000X0.159000X0.189000X-0.159000X0.189000X-0.159000X-0.189000X0.159000X-0.189000X0*%
%ADD21R,1.000000X1.600000*%
%ADD22RoundRect,0.159000X-0.189000X0.159000X-0.189000X-0.159000X0.189000X-0.159000X0.189000X0.159000X0*%
%ADD23RoundRect,0.159000X0.189000X-0.159000X0.189000X0.159000X-0.189000X0.159000X-0.189000X-0.159000X0*%
%ADD24C,0.700000*%
%ADD25C,4.400000*%
%ADD26RoundRect,0.149250X0.447750X-0.572750X0.447750X0.572750X-0.447750X0.572750X-0.447750X-0.572750X0*%
%ADD27RoundRect,0.099250X0.297750X-0.622750X0.297750X0.622750X-0.297750X0.622750X-0.297750X-0.622750X0*%
%ADD28C,1.600000*%
%ADD29R,2.500000X1.200000*%
%ADD30RoundRect,0.100500X-0.986500X-0.301500X0.986500X-0.301500X0.986500X0.301500X-0.986500X0.301500X0*%
%ADD31R,0.800000X1.520000*%
%ADD32RoundRect,0.093750X0.106250X-0.093750X0.106250X0.093750X-0.106250X0.093750X-0.106250X-0.093750X0*%
%ADD33R,1.600000X1.000000*%
%ADD34C,1.300000*%
%ADD35RoundRect,0.220000X0.220000X0.255000X-0.220000X0.255000X-0.220000X-0.255000X0.220000X-0.255000X0*%
%ADD36RoundRect,0.050000X-0.350000X-0.050000X0.350000X-0.050000X0.350000X0.050000X-0.350000X0.050000X0*%
%ADD37RoundRect,0.050000X-0.050000X-0.350000X0.050000X-0.350000X0.050000X0.350000X-0.050000X0.350000X0*%
%ADD38R,3.400000X3.400000*%
%ADD39RoundRect,0.219000X0.294000X-0.219000X0.294000X0.219000X-0.294000X0.219000X-0.294000X-0.219000X0*%
%ADD40R,1.950000X1.950000*%
%ADD41C,1.950000*%
%ADD42C,3.300000*%
%ADD43RoundRect,0.244000X0.244000X0.269000X-0.244000X0.269000X-0.244000X-0.269000X0.244000X-0.269000X0*%
%ADD44RoundRect,0.100000X0.100000X-0.637500X0.100000X0.637500X-0.100000X0.637500X-0.100000X-0.637500X0*%
%ADD45R,1.400000X1.200000*%
%ADD46RoundRect,0.244000X-0.244000X-0.269000X0.244000X-0.269000X0.244000X0.269000X-0.244000X0.269000X0*%
%ADD47RoundRect,0.244000X-0.269000X0.244000X-0.269000X-0.244000X0.269000X-0.244000X0.269000X0.244000X0*%
%ADD48R,0.860000X0.810000*%
%ADD49RoundRect,0.062500X0.187500X0.062500X-0.187500X0.062500X-0.187500X-0.062500X0.187500X-0.062500X0*%
%ADD50R,1.000000X2.650000*%
%ADD51C,0.600000*%
%ADD52R,0.300000X1.400000*%
%ADD53R,0.500000X1.400000*%
%ADD54O,1.300000X2.300000*%
%ADD55O,1.300000X2.100000*%
%ADD56C,0.500000*%
%ADD57RoundRect,0.500000X2.000000X1.000000X-2.000000X1.000000X-2.000000X-1.000000X2.000000X-1.000000X0*%
G04 APERTURE END LIST*
D10*
G36*
X126298704Y-63513199D02*
G01*
X126357242Y-63526024D01*
X126408408Y-63546495D01*
X126455120Y-63575349D01*
X126493784Y-63610421D01*
X126525218Y-63652130D01*
X126548153Y-63698989D01*
X126562303Y-63751941D01*
X126567227Y-63812292D01*
X126561385Y-63878867D01*
X126544493Y-63937862D01*
X126516852Y-63990711D01*
X126479227Y-64036782D01*
X126434322Y-64072648D01*
X126381175Y-64099094D01*
X126581210Y-64530000D01*
X126389541Y-64530000D01*
X126210450Y-64124312D01*
X126083138Y-64124312D01*
X126083138Y-64530000D01*
X125909665Y-64530000D01*
X125909665Y-63970378D01*
X126083138Y-63970378D01*
X126231455Y-63970378D01*
X126279283Y-63965438D01*
X126317247Y-63951705D01*
X126347531Y-63929834D01*
X126370333Y-63900315D01*
X126384485Y-63863697D01*
X126389541Y-63817909D01*
X126384446Y-63772100D01*
X126370102Y-63734971D01*
X126346859Y-63704581D01*
X126316048Y-63681802D01*
X126278241Y-63667668D01*
X126231455Y-63662632D01*
X126083138Y-63662632D01*
X126083138Y-63970378D01*
X125909665Y-63970378D01*
X125909665Y-63508698D01*
X126231455Y-63508698D01*
X126298704Y-63513199D01*
G37*
G36*
X127125710Y-63750990D02*
G01*
X127181487Y-63763771D01*
X127230835Y-63784326D01*
X127275634Y-63813127D01*
X127312694Y-63848178D01*
X127342760Y-63889961D01*
X127364529Y-63936674D01*
X127377963Y-63989194D01*
X127382632Y-64048719D01*
X127382632Y-64188609D01*
X126906969Y-64188609D01*
X126906969Y-64241793D01*
X126912054Y-64292454D01*
X126925905Y-64330903D01*
X126947514Y-64360006D01*
X126976926Y-64381435D01*
X127014408Y-64394977D01*
X127062308Y-64399879D01*
X127114244Y-64394868D01*
X127155303Y-64381011D01*
X127178083Y-64365925D01*
X127192822Y-64347708D01*
X127200793Y-64325751D01*
X127374267Y-64325751D01*
X127360903Y-64373105D01*
X127339477Y-64414825D01*
X127309713Y-64451811D01*
X127270708Y-64484570D01*
X127211270Y-64516913D01*
X127142520Y-64536953D01*
X127062308Y-64543982D01*
X126997910Y-64539518D01*
X126941411Y-64526746D01*
X126891582Y-64506247D01*
X126846456Y-64477326D01*
X126809175Y-64441826D01*
X126778986Y-64399207D01*
X126757266Y-64351565D01*
X126743807Y-64297642D01*
X126739113Y-64236175D01*
X126739113Y-64054337D01*
X126739542Y-64048719D01*
X126906969Y-64048719D01*
X126906969Y-64075341D01*
X127214776Y-64073937D01*
X127214776Y-64047315D01*
X127209888Y-63995534D01*
X127196491Y-63955363D01*
X127175575Y-63924216D01*
X127146779Y-63900814D01*
X127109849Y-63886159D01*
X127062308Y-63880863D01*
X127012880Y-63886302D01*
X126975066Y-63901249D01*
X126946109Y-63924949D01*
X126925202Y-63956503D01*
X126911835Y-63996926D01*
X126906969Y-64048719D01*
X126739542Y-64048719D01*
X126743806Y-63992911D01*
X126757264Y-63939008D01*
X126778986Y-63891366D01*
X126809175Y-63848747D01*
X126846456Y-63813247D01*
X126891582Y-63784326D01*
X126941415Y-63763793D01*
X126997913Y-63751000D01*
X127062308Y-63746530D01*
X127125710Y-63750990D01*
G37*
G36*
X127867943Y-64542578D02*
G01*
X127798912Y-64538158D01*
X127740883Y-64525768D01*
X127692084Y-64506358D01*
X127651055Y-64480357D01*
X127616064Y-64446339D01*
X127591508Y-64407621D01*
X127576525Y-64363260D01*
X127571310Y-64311769D01*
X127743379Y-64311769D01*
X127747221Y-64339933D01*
X127758110Y-64362320D01*
X127776229Y-64380340D01*
X127813403Y-64397564D01*
X127867943Y-64404092D01*
X127929492Y-64404092D01*
X127970954Y-64401037D01*
X128002663Y-64392799D01*
X128026701Y-64380340D01*
X128045676Y-64362212D01*
X128056984Y-64339819D01*
X128060956Y-64311769D01*
X128054524Y-64273975D01*
X128037142Y-64249487D01*
X128009283Y-64233368D01*
X127964480Y-64222192D01*
X127772810Y-64197035D01*
X127713990Y-64182802D01*
X127667439Y-64158935D01*
X127630783Y-64125717D01*
X127603850Y-64083997D01*
X127587087Y-64033884D01*
X127581141Y-63973187D01*
X127586098Y-63919688D01*
X127600099Y-63875071D01*
X127622554Y-63837573D01*
X127653864Y-63806003D01*
X127691254Y-63782104D01*
X127737423Y-63763967D01*
X127794187Y-63752194D01*
X127863729Y-63747934D01*
X127928087Y-63747934D01*
X127992730Y-63752058D01*
X128047843Y-63763689D01*
X128094906Y-63782030D01*
X128135144Y-63806735D01*
X128169972Y-63838993D01*
X128194599Y-63875269D01*
X128210027Y-63916323D01*
X128216294Y-63963417D01*
X128042821Y-63963417D01*
X128038605Y-63940745D01*
X128028088Y-63921680D01*
X128010642Y-63905348D01*
X127976315Y-63889549D01*
X127928087Y-63883672D01*
X127863729Y-63883672D01*
X127812133Y-63890074D01*
X127778367Y-63906753D01*
X127762056Y-63923916D01*
X127752365Y-63944305D01*
X127748996Y-63968974D01*
X127754776Y-64000254D01*
X127770673Y-64020753D01*
X127795636Y-64033792D01*
X127834359Y-64041758D01*
X128014794Y-64066915D01*
X128082866Y-64081825D01*
X128135188Y-64107015D01*
X128175017Y-64141775D01*
X128204046Y-64186159D01*
X128222319Y-64240957D01*
X128228873Y-64308960D01*
X128223717Y-64363708D01*
X128209106Y-64409691D01*
X128185568Y-64448653D01*
X128152608Y-64481762D01*
X128113498Y-64506679D01*
X128064713Y-64525683D01*
X128004199Y-64538076D01*
X127929492Y-64542578D01*
X127867943Y-64542578D01*
G37*
G36*
X128804147Y-63750990D02*
G01*
X128859924Y-63763771D01*
X128909272Y-63784326D01*
X128954071Y-63813127D01*
X128991130Y-63848178D01*
X129021196Y-63889961D01*
X129042966Y-63936674D01*
X129056399Y-63989194D01*
X129061069Y-64048719D01*
X129061069Y-64188609D01*
X128585406Y-64188609D01*
X128585406Y-64241793D01*
X128590491Y-64292454D01*
X128604342Y-64330903D01*
X128625950Y-64360006D01*
X128655363Y-64381435D01*
X128692845Y-64394977D01*
X128740744Y-64399879D01*
X128792681Y-64394868D01*
X128833740Y-64381011D01*
X128856520Y-64365925D01*
X128871259Y-64347708D01*
X128879230Y-64325751D01*
X129052704Y-64325751D01*
X129039340Y-64373105D01*
X129017914Y-64414825D01*
X128988150Y-64451811D01*
X128949145Y-64484570D01*
X128889706Y-64516913D01*
X128820957Y-64536953D01*
X128740744Y-64543982D01*
X128676347Y-64539518D01*
X128619848Y-64526746D01*
X128570019Y-64506247D01*
X128524893Y-64477326D01*
X128487612Y-64441826D01*
X128457423Y-64399207D01*
X128435702Y-64351565D01*
X128422244Y-64297642D01*
X128417550Y-64236175D01*
X128417550Y-64054337D01*
X128417979Y-64048719D01*
X128585406Y-64048719D01*
X128585406Y-64075341D01*
X128893213Y-64073937D01*
X128893213Y-64047315D01*
X128888325Y-63995534D01*
X128874928Y-63955363D01*
X128854012Y-63924216D01*
X128825216Y-63900814D01*
X128788286Y-63886159D01*
X128740744Y-63880863D01*
X128691317Y-63886302D01*
X128653503Y-63901249D01*
X128624546Y-63924949D01*
X128603639Y-63956503D01*
X128590272Y-63996926D01*
X128585406Y-64048719D01*
X128417979Y-64048719D01*
X128422242Y-63992911D01*
X128435700Y-63939008D01*
X128457423Y-63891366D01*
X128487612Y-63848747D01*
X128524893Y-63813247D01*
X128570019Y-63784326D01*
X128619852Y-63763793D01*
X128676350Y-63751000D01*
X128740744Y-63746530D01*
X128804147Y-63750990D01*
G37*
G36*
X129655495Y-64530000D02*
G01*
X129602154Y-64525741D01*
X129556676Y-64513665D01*
X129517674Y-64494360D01*
X129484098Y-64467779D01*
X129456844Y-64434776D01*
X129437122Y-64396432D01*
X129424811Y-64351707D01*
X129420472Y-64299190D01*
X129420472Y-63918599D01*
X129207798Y-63918599D01*
X129207798Y-63760512D01*
X129420472Y-63760512D01*
X129420472Y-63543686D01*
X129596694Y-63543686D01*
X129596694Y-63760512D01*
X129903096Y-63760512D01*
X129903096Y-63918599D01*
X129596694Y-63918599D01*
X129596694Y-64294977D01*
X129601601Y-64326134D01*
X129615561Y-64350237D01*
X129637622Y-64366272D01*
X129668074Y-64371913D01*
X129896135Y-64371913D01*
X129896135Y-64530000D01*
X129655495Y-64530000D01*
G37*
G36*
X132386983Y-96480832D02*
G01*
X132421800Y-96493908D01*
X132449254Y-96514730D01*
X132469427Y-96542757D01*
X132482338Y-96579390D01*
X132487063Y-96627204D01*
X132487063Y-96845411D01*
X132482395Y-96892138D01*
X132469530Y-96928619D01*
X132449254Y-96957152D01*
X132421736Y-96978444D01*
X132386918Y-96991773D01*
X132342642Y-96996572D01*
X132296269Y-96991522D01*
X132260428Y-96977594D01*
X132232660Y-96955466D01*
X132212566Y-96925815D01*
X132199652Y-96887214D01*
X132194924Y-96837057D01*
X132194924Y-96635557D01*
X132199652Y-96585451D01*
X132212566Y-96546900D01*
X132232660Y-96517295D01*
X132260434Y-96495124D01*
X132296275Y-96481173D01*
X132342642Y-96476115D01*
X132386983Y-96480832D01*
G37*
G36*
X133397442Y-96450106D02*
G01*
X133436903Y-96466089D01*
X133466355Y-96491283D01*
X133487350Y-96524777D01*
X133500894Y-96568049D01*
X133505849Y-96623833D01*
X133505849Y-96645669D01*
X133180151Y-96649039D01*
X133180151Y-96627204D01*
X133185245Y-96571484D01*
X133199281Y-96527557D01*
X133221257Y-96492895D01*
X133251898Y-96466692D01*
X133292050Y-96450229D01*
X133344722Y-96444242D01*
X133397442Y-96450106D01*
G37*
G36*
X129391619Y-96196513D02*
G01*
X129433719Y-96212868D01*
X129468368Y-96239444D01*
X129494781Y-96274378D01*
X129510693Y-96314681D01*
X129516215Y-96361956D01*
X129510694Y-96409234D01*
X129494783Y-96449562D01*
X129468368Y-96484542D01*
X129433724Y-96511074D01*
X129391625Y-96527407D01*
X129339921Y-96533195D01*
X129173738Y-96533195D01*
X129173738Y-96190718D01*
X129339921Y-96190718D01*
X129391619Y-96196513D01*
G37*
G36*
X134923289Y-97633510D02*
G01*
X128788566Y-97633510D01*
X128788566Y-96533195D01*
X128921899Y-96533195D01*
X128921899Y-97198000D01*
X129173738Y-97198000D01*
X129173738Y-96838743D01*
X129925591Y-96838743D01*
X129932764Y-96925002D01*
X129953089Y-96998161D01*
X129985606Y-97060608D01*
X130030517Y-97114102D01*
X130085643Y-97156670D01*
X130151113Y-97187951D01*
X130228966Y-97207740D01*
X130321850Y-97214779D01*
X130413804Y-97207825D01*
X130491263Y-97188235D01*
X130556755Y-97157202D01*
X130612231Y-97114908D01*
X130657451Y-97061789D01*
X130690238Y-96999391D01*
X130710773Y-96925877D01*
X130718037Y-96838743D01*
X130718037Y-96274615D01*
X130889055Y-96274615D01*
X130889055Y-97198000D01*
X131105577Y-97198000D01*
X131105577Y-96521398D01*
X131110412Y-96483169D01*
X131122772Y-96459497D01*
X131141707Y-96445808D01*
X131169397Y-96440871D01*
X131195330Y-96445679D01*
X131213281Y-96459155D01*
X131225161Y-96482798D01*
X131229847Y-96521398D01*
X131229847Y-97198000D01*
X131427904Y-97198000D01*
X131427904Y-96521398D01*
X131432590Y-96482798D01*
X131444470Y-96459155D01*
X131462422Y-96445679D01*
X131488354Y-96440871D01*
X131516045Y-96445808D01*
X131534980Y-96459497D01*
X131547340Y-96483169D01*
X131552175Y-96521398D01*
X131552175Y-97198000D01*
X131768769Y-97198000D01*
X131768769Y-96492895D01*
X131762048Y-96425545D01*
X131743070Y-96369837D01*
X131712496Y-96323341D01*
X131671423Y-96286498D01*
X131646130Y-96274615D01*
X131943085Y-96274615D01*
X131943085Y-96635557D01*
X131943085Y-97500177D01*
X132194924Y-97500177D01*
X132194924Y-97248338D01*
X132188183Y-97033502D01*
X132212889Y-97087443D01*
X132244723Y-97131468D01*
X132283877Y-97166932D01*
X132329606Y-97193195D01*
X132381169Y-97209223D01*
X132440022Y-97214779D01*
X132497876Y-97209464D01*
X132549483Y-97194029D01*
X132596093Y-97168617D01*
X132637107Y-97134437D01*
X132672004Y-97092260D01*
X132701020Y-97041049D01*
X132721596Y-96985546D01*
X132734381Y-96923509D01*
X132738829Y-96853837D01*
X132738829Y-96627204D01*
X132940109Y-96627204D01*
X132940109Y-96845411D01*
X132945895Y-96917947D01*
X132962566Y-96982114D01*
X132989642Y-97039364D01*
X133027043Y-97090345D01*
X133073674Y-97133256D01*
X133130619Y-97168617D01*
X133193195Y-97193688D01*
X133264064Y-97209317D01*
X133344722Y-97214779D01*
X133441996Y-97206104D01*
X133526217Y-97181252D01*
X133599858Y-97140920D01*
X133648531Y-97100345D01*
X133686265Y-97054788D01*
X133714118Y-97003713D01*
X133732482Y-96946161D01*
X133485699Y-96946161D01*
X133471339Y-96974702D01*
X133438658Y-96996572D01*
X133396300Y-97008932D01*
X133344722Y-97013352D01*
X133291320Y-97008239D01*
X133251211Y-96994408D01*
X133221257Y-96973052D01*
X133199680Y-96943466D01*
X133185481Y-96902210D01*
X133180151Y-96845411D01*
X133180151Y-96798443D01*
X133745891Y-96798443D01*
X133745891Y-96627204D01*
X133740106Y-96554717D01*
X133723436Y-96490573D01*
X133696358Y-96433324D01*
X133659077Y-96382192D01*
X133612973Y-96339270D01*
X133557067Y-96303997D01*
X133495574Y-96278977D01*
X133475997Y-96274615D01*
X133990769Y-96274615D01*
X133990769Y-97198000D01*
X134242607Y-97198000D01*
X134242607Y-96647354D01*
X134247458Y-96593776D01*
X134260697Y-96552426D01*
X134281222Y-96520592D01*
X134309705Y-96496370D01*
X134345346Y-96481444D01*
X134390325Y-96476115D01*
X134435756Y-96480942D01*
X134471408Y-96494317D01*
X134499502Y-96515609D01*
X134520244Y-96544159D01*
X134533364Y-96580593D01*
X134538117Y-96627204D01*
X134538117Y-96702748D01*
X134789956Y-96702748D01*
X134789956Y-96610424D01*
X134784363Y-96527805D01*
X134768692Y-96458585D01*
X134744104Y-96400533D01*
X134711041Y-96351845D01*
X134668405Y-96311167D01*
X134618838Y-96282132D01*
X134560964Y-96264155D01*
X134492761Y-96257836D01*
X134426163Y-96263935D01*
X134370035Y-96281228D01*
X134322328Y-96309053D01*
X134282605Y-96347084D01*
X134253390Y-96393285D01*
X134234254Y-96449224D01*
X134234254Y-96274615D01*
X133990769Y-96274615D01*
X133475997Y-96274615D01*
X133425328Y-96263325D01*
X133344722Y-96257836D01*
X133264064Y-96263297D01*
X133193195Y-96278927D01*
X133130619Y-96303997D01*
X133073680Y-96339362D01*
X133027048Y-96382297D01*
X132989642Y-96433324D01*
X132962563Y-96490573D01*
X132945894Y-96554717D01*
X132940109Y-96627204D01*
X132738829Y-96627204D01*
X132738829Y-96618778D01*
X132734344Y-96547965D01*
X132721524Y-96485708D01*
X132701020Y-96430759D01*
X132672049Y-96380068D01*
X132637158Y-96338141D01*
X132596093Y-96303997D01*
X132549483Y-96278585D01*
X132497876Y-96263151D01*
X132440022Y-96257836D01*
X132380096Y-96263517D01*
X132328006Y-96279859D01*
X132282192Y-96306562D01*
X132243112Y-96342573D01*
X132211261Y-96387426D01*
X132186498Y-96442556D01*
X132186498Y-96274615D01*
X131943085Y-96274615D01*
X131646130Y-96274615D01*
X131625858Y-96265091D01*
X131574010Y-96257836D01*
X131532035Y-96262678D01*
X131496105Y-96276644D01*
X131464833Y-96299821D01*
X131440493Y-96330243D01*
X131424214Y-96367191D01*
X131416180Y-96412295D01*
X131403388Y-96368330D01*
X131384057Y-96331511D01*
X131358221Y-96300700D01*
X131326493Y-96276709D01*
X131291910Y-96262613D01*
X131253368Y-96257836D01*
X131211623Y-96262964D01*
X131176299Y-96277744D01*
X131145877Y-96302385D01*
X131122397Y-96334216D01*
X131106679Y-96372061D01*
X131098909Y-96417351D01*
X131095538Y-96417351D01*
X131095538Y-96274615D01*
X130889055Y-96274615D01*
X130718037Y-96274615D01*
X130466198Y-96274615D01*
X130466198Y-96837057D01*
X130461462Y-96887208D01*
X130448524Y-96925809D01*
X130428389Y-96955466D01*
X130400741Y-96977750D01*
X130365941Y-96991603D01*
X130321850Y-96996572D01*
X130268326Y-96989760D01*
X130229736Y-96971281D01*
X130202154Y-96941750D01*
X130184206Y-96898681D01*
X130177429Y-96837057D01*
X130177429Y-96274615D01*
X129925591Y-96274615D01*
X129925591Y-96838743D01*
X129173738Y-96838743D01*
X129173738Y-96751401D01*
X129339921Y-96751401D01*
X129425015Y-96745629D01*
X129499451Y-96729142D01*
X129564868Y-96702748D01*
X129624502Y-96665544D01*
X129673967Y-96620140D01*
X129714272Y-96565948D01*
X129743759Y-96505164D01*
X129761814Y-96437659D01*
X129768054Y-96361956D01*
X129761863Y-96285087D01*
X129744051Y-96217353D01*
X129715151Y-96157159D01*
X129675331Y-96103554D01*
X129625903Y-96058400D01*
X129565748Y-96021164D01*
X129499761Y-95994702D01*
X129425013Y-95978204D01*
X129339921Y-95972438D01*
X128921899Y-95972438D01*
X128921899Y-96533195D01*
X128788566Y-96533195D01*
X128788566Y-95839105D01*
X134923289Y-95839105D01*
X134923289Y-97633510D01*
G37*
G36*
X126716249Y-68213695D02*
G01*
X126778669Y-68227779D01*
X126831761Y-68250015D01*
X126876989Y-68280078D01*
X126915239Y-68318797D01*
X126942195Y-68362840D01*
X126958684Y-68413277D01*
X126964428Y-68471748D01*
X126958864Y-68525971D01*
X126942750Y-68573527D01*
X126916129Y-68615851D01*
X126880663Y-68650753D01*
X126839364Y-68674773D01*
X126790955Y-68688574D01*
X126790955Y-68691383D01*
X126845348Y-68705246D01*
X126893109Y-68732660D01*
X126932738Y-68771528D01*
X126963024Y-68820771D01*
X126981815Y-68876680D01*
X126988242Y-68938984D01*
X126983504Y-68996605D01*
X126969849Y-69047518D01*
X126947636Y-69092918D01*
X126917134Y-69133101D01*
X126879195Y-69166780D01*
X126832903Y-69194340D01*
X126782303Y-69213639D01*
X126724454Y-69225748D01*
X126658087Y-69230000D01*
X126329275Y-69230000D01*
X126329275Y-69084492D01*
X126499939Y-69084492D01*
X126648256Y-69084492D01*
X126697969Y-69079461D01*
X126737572Y-69065470D01*
X126769278Y-69043215D01*
X126793326Y-69013129D01*
X126808114Y-68976263D01*
X126813364Y-68930619D01*
X126808175Y-68884861D01*
X126793423Y-68846980D01*
X126769278Y-68815214D01*
X126737357Y-68791326D01*
X126697752Y-68776450D01*
X126648256Y-68771128D01*
X126499939Y-68771128D01*
X126499939Y-69084492D01*
X126329275Y-69084492D01*
X126329275Y-68629834D01*
X126499939Y-68629834D01*
X126639890Y-68629834D01*
X126684158Y-68625351D01*
X126719898Y-68612815D01*
X126748945Y-68592770D01*
X126771127Y-68565632D01*
X126784728Y-68532409D01*
X126789550Y-68491287D01*
X126784835Y-68451053D01*
X126771493Y-68418282D01*
X126749678Y-68391270D01*
X126721016Y-68371310D01*
X126685098Y-68358735D01*
X126639890Y-68354206D01*
X126499939Y-68354206D01*
X126499939Y-68629834D01*
X126329275Y-68629834D01*
X126329275Y-68208698D01*
X126642699Y-68208698D01*
X126716249Y-68213695D01*
G37*
G36*
X127554149Y-68453629D02*
G01*
X127616634Y-68469735D01*
X127669913Y-68495371D01*
X127715475Y-68530488D01*
X127752664Y-68574374D01*
X127779546Y-68625508D01*
X127796325Y-68685315D01*
X127802242Y-68755741D01*
X127802242Y-68934832D01*
X127796358Y-69004486D01*
X127779627Y-69063967D01*
X127752749Y-69115136D01*
X127715475Y-69159352D01*
X127669870Y-69194781D01*
X127616576Y-69220620D01*
X127554106Y-69236843D01*
X127480513Y-69242578D01*
X127406888Y-69236843D01*
X127344387Y-69220620D01*
X127291063Y-69194780D01*
X127245430Y-69159352D01*
X127208184Y-69115139D01*
X127181324Y-69063972D01*
X127164604Y-69004490D01*
X127158723Y-68934832D01*
X127158723Y-68755741D01*
X127159195Y-68750123D01*
X127333601Y-68750123D01*
X127333601Y-68940389D01*
X127338375Y-68987411D01*
X127351476Y-69023672D01*
X127372069Y-69051641D01*
X127399982Y-69072357D01*
X127435400Y-69085399D01*
X127480513Y-69090109D01*
X127525585Y-69085401D01*
X127560985Y-69072360D01*
X127588896Y-69051641D01*
X127609490Y-69023672D01*
X127622590Y-68987411D01*
X127627364Y-68940389D01*
X127627364Y-68750123D01*
X127622592Y-68703142D01*
X127609492Y-68666900D01*
X127588896Y-68638932D01*
X127560985Y-68618213D01*
X127525585Y-68605172D01*
X127480513Y-68600464D01*
X127435400Y-68605174D01*
X127399982Y-68618216D01*
X127372069Y-68638932D01*
X127351473Y-68666900D01*
X127338374Y-68703142D01*
X127333601Y-68750123D01*
X127159195Y-68750123D01*
X127164637Y-68685311D01*
X127181406Y-68625503D01*
X127208269Y-68574370D01*
X127245430Y-68530488D01*
X127291021Y-68495372D01*
X127344330Y-68469735D01*
X127406846Y-68453629D01*
X127480513Y-68447934D01*
X127554149Y-68453629D01*
G37*
G36*
X128393367Y-68453629D02*
G01*
X128455852Y-68469735D01*
X128509131Y-68495371D01*
X128554693Y-68530488D01*
X128591882Y-68574374D01*
X128618764Y-68625508D01*
X128635544Y-68685315D01*
X128641461Y-68755741D01*
X128641461Y-68934832D01*
X128635576Y-69004486D01*
X128618846Y-69063967D01*
X128591968Y-69115136D01*
X128554693Y-69159352D01*
X128509089Y-69194781D01*
X128455794Y-69220620D01*
X128393325Y-69236843D01*
X128319732Y-69242578D01*
X128246107Y-69236843D01*
X128183606Y-69220620D01*
X128130282Y-69194780D01*
X128084648Y-69159352D01*
X128047402Y-69115139D01*
X128020543Y-69063972D01*
X128003823Y-69004490D01*
X127997942Y-68934832D01*
X127997942Y-68755741D01*
X127998414Y-68750123D01*
X128172820Y-68750123D01*
X128172820Y-68940389D01*
X128177594Y-68987411D01*
X128190694Y-69023672D01*
X128211288Y-69051641D01*
X128239200Y-69072357D01*
X128274619Y-69085399D01*
X128319732Y-69090109D01*
X128364803Y-69085401D01*
X128400203Y-69072360D01*
X128428114Y-69051641D01*
X128448708Y-69023672D01*
X128461809Y-68987411D01*
X128466583Y-68940389D01*
X128466583Y-68750123D01*
X128461810Y-68703142D01*
X128448711Y-68666900D01*
X128428114Y-68638932D01*
X128400203Y-68618213D01*
X128364803Y-68605172D01*
X128319732Y-68600464D01*
X128274619Y-68605174D01*
X128239200Y-68618216D01*
X128211288Y-68638932D01*
X128190692Y-68666900D01*
X128177592Y-68703142D01*
X128172820Y-68750123D01*
X127998414Y-68750123D01*
X128003855Y-68685311D01*
X128020624Y-68625503D01*
X128047488Y-68574370D01*
X128084648Y-68530488D01*
X128130239Y-68495372D01*
X128183548Y-68469735D01*
X128246064Y-68453629D01*
X128319732Y-68447934D01*
X128393367Y-68453629D01*
G37*
G36*
X129235887Y-69230000D02*
G01*
X129182545Y-69225741D01*
X129137068Y-69213665D01*
X129098065Y-69194360D01*
X129064489Y-69167779D01*
X129037236Y-69134776D01*
X129017514Y-69096432D01*
X129005202Y-69051707D01*
X129000864Y-68999190D01*
X129000864Y-68618599D01*
X128788189Y-68618599D01*
X128788189Y-68460512D01*
X129000864Y-68460512D01*
X129000864Y-68243686D01*
X129177085Y-68243686D01*
X129177085Y-68460512D01*
X129483488Y-68460512D01*
X129483488Y-68618599D01*
X129177085Y-68618599D01*
X129177085Y-68994977D01*
X129181992Y-69026134D01*
X129195953Y-69050237D01*
X129218013Y-69066272D01*
X129248465Y-69071913D01*
X129476527Y-69071913D01*
X129476527Y-69230000D01*
X129235887Y-69230000D01*
G37*
G36*
X128893073Y-94798000D02*
G01*
X128893073Y-93572438D01*
X129144912Y-93572438D01*
X129144912Y-94571367D01*
X129640163Y-94571367D01*
X129640163Y-94798000D01*
X128893073Y-94798000D01*
G37*
G36*
X129824591Y-94798000D02*
G01*
X129824591Y-94571367D01*
X130130139Y-94571367D01*
X130130139Y-94101321D01*
X129858150Y-94101321D01*
X129858150Y-93874615D01*
X130381978Y-93874615D01*
X130381978Y-94571367D01*
X130647226Y-94571367D01*
X130647226Y-94798000D01*
X129824591Y-94798000D01*
G37*
G36*
X130244225Y-93728582D02*
G01*
X130199613Y-93724299D01*
X130163550Y-93712345D01*
X130134242Y-93693338D01*
X130111629Y-93667396D01*
X130097947Y-93636053D01*
X130093136Y-93597644D01*
X130097947Y-93559234D01*
X130111629Y-93527891D01*
X130134242Y-93501949D01*
X130163550Y-93482942D01*
X130199613Y-93470988D01*
X130244225Y-93466705D01*
X130288886Y-93470991D01*
X130324943Y-93482948D01*
X130354207Y-93501949D01*
X130376820Y-93527891D01*
X130390503Y-93559234D01*
X130395314Y-93597644D01*
X130390503Y-93636053D01*
X130376820Y-93667396D01*
X130354207Y-93693338D01*
X130324943Y-93712339D01*
X130288886Y-93724296D01*
X130244225Y-93728582D01*
G37*
G36*
X131179048Y-93862686D02*
G01*
X131228385Y-93876565D01*
X131271510Y-93899015D01*
X131309364Y-93929669D01*
X131341169Y-93967669D01*
X131367205Y-94013980D01*
X131367205Y-93874615D01*
X131610617Y-93874615D01*
X131610617Y-94774479D01*
X131603720Y-94848316D01*
X131584045Y-94911356D01*
X131552165Y-94965716D01*
X131507376Y-95012836D01*
X131453832Y-95049554D01*
X131390442Y-95076756D01*
X131315327Y-95094030D01*
X131226154Y-95100177D01*
X130957536Y-95100177D01*
X130957536Y-94898750D01*
X131217801Y-94898750D01*
X131263509Y-94894344D01*
X131298800Y-94882279D01*
X131326025Y-94863432D01*
X131346600Y-94837704D01*
X131359306Y-94805870D01*
X131363834Y-94766126D01*
X131363834Y-94730882D01*
X131365519Y-94593202D01*
X131339452Y-94639466D01*
X131307647Y-94677182D01*
X131269825Y-94707361D01*
X131226779Y-94729370D01*
X131177967Y-94742936D01*
X131122107Y-94747661D01*
X131054166Y-94741236D01*
X130995412Y-94722799D01*
X130944023Y-94692739D01*
X130898771Y-94650281D01*
X130863382Y-94599664D01*
X130837269Y-94540072D01*
X130820741Y-94469802D01*
X130814874Y-94386719D01*
X130814874Y-94227204D01*
X131066713Y-94227204D01*
X131066713Y-94378293D01*
X131071371Y-94424976D01*
X131084212Y-94461435D01*
X131104448Y-94489960D01*
X131132045Y-94511182D01*
X131167375Y-94524545D01*
X131212745Y-94529381D01*
X131256992Y-94524604D01*
X131292112Y-94511290D01*
X131320163Y-94489960D01*
X131340908Y-94461366D01*
X131354027Y-94424905D01*
X131358778Y-94378293D01*
X131358778Y-94227204D01*
X131354025Y-94180593D01*
X131340905Y-94144159D01*
X131320163Y-94115609D01*
X131292106Y-94094237D01*
X131256986Y-94080900D01*
X131212745Y-94076115D01*
X131167381Y-94080959D01*
X131132051Y-94094345D01*
X131104448Y-94115609D01*
X131084215Y-94144090D01*
X131071373Y-94180521D01*
X131066713Y-94227204D01*
X130814874Y-94227204D01*
X130814874Y-94218778D01*
X130820707Y-94136641D01*
X130837182Y-94066763D01*
X130863291Y-94007119D01*
X130898771Y-93956094D01*
X130944078Y-93913212D01*
X130995486Y-93882889D01*
X131054221Y-93864307D01*
X131122107Y-93857836D01*
X131179048Y-93862686D01*
G37*
G36*
X131831974Y-94798000D02*
G01*
X131831974Y-93572438D01*
X132083813Y-93572438D01*
X132083813Y-93874615D01*
X132075387Y-94040871D01*
X132095182Y-93988133D01*
X132124396Y-93944064D01*
X132163534Y-93907368D01*
X132209934Y-93880239D01*
X132262837Y-93863620D01*
X132323855Y-93857836D01*
X132389317Y-93864029D01*
X132446027Y-93881815D01*
X132495720Y-93910834D01*
X132539570Y-93951845D01*
X132574122Y-94000785D01*
X132599466Y-94057727D01*
X132615414Y-94124168D01*
X132621050Y-94201998D01*
X132621050Y-94798000D01*
X132369211Y-94798000D01*
X132369211Y-94227204D01*
X132364543Y-94180527D01*
X132351678Y-94144095D01*
X132331402Y-94115609D01*
X132303917Y-94094192D01*
X132269631Y-94080880D01*
X132226549Y-94076115D01*
X132183416Y-94080880D01*
X132149080Y-94094193D01*
X132121549Y-94115609D01*
X132101315Y-94144090D01*
X132088474Y-94180521D01*
X132083813Y-94227204D01*
X132083813Y-94798000D01*
X131831974Y-94798000D01*
G37*
G36*
X133324249Y-94798000D02*
G01*
X133254284Y-94792432D01*
X133195242Y-94776713D01*
X133145171Y-94751703D01*
X133102599Y-94717399D01*
X133068326Y-94674831D01*
X133043338Y-94624772D01*
X133027634Y-94565753D01*
X133022072Y-94495822D01*
X133022072Y-94101321D01*
X132773604Y-94101321D01*
X132773604Y-93874615D01*
X133022072Y-93874615D01*
X133022072Y-93614423D01*
X133273838Y-93614423D01*
X133273838Y-93874615D01*
X133634780Y-93874615D01*
X133634780Y-94101321D01*
X133273838Y-94101321D01*
X133273838Y-94487396D01*
X133278898Y-94521724D01*
X133293108Y-94547846D01*
X133316131Y-94565181D01*
X133349382Y-94571367D01*
X133626427Y-94571367D01*
X133626427Y-94798000D01*
X133324249Y-94798000D01*
G37*
G36*
X133866249Y-94798000D02*
G01*
X133752090Y-93572438D01*
X133951905Y-93572438D01*
X134013967Y-94391702D01*
X134018143Y-94458087D01*
X134023199Y-94547040D01*
X134025764Y-94630131D01*
X134033311Y-94547040D01*
X134041664Y-94458087D01*
X134047599Y-94391702D01*
X134144979Y-93572438D01*
X134336294Y-93572438D01*
X134430376Y-94391702D01*
X134437850Y-94458087D01*
X134447083Y-94547040D01*
X134455509Y-94630131D01*
X134458879Y-94547040D01*
X134463056Y-94458087D01*
X134467306Y-94391702D01*
X134524385Y-93572438D01*
X134725812Y-93572438D01*
X134603300Y-94798000D01*
X134341350Y-94798000D01*
X134259138Y-93983792D01*
X134253203Y-93909053D01*
X134245655Y-93812553D01*
X134238988Y-93723526D01*
X134233932Y-93812553D01*
X134227191Y-93909053D01*
X134220523Y-93983792D01*
X134129811Y-94798000D01*
X133866249Y-94798000D01*
G37*
G36*
X135327799Y-93863350D02*
G01*
X135398572Y-93879027D01*
X135460080Y-93903997D01*
X135515986Y-93939270D01*
X135562090Y-93982192D01*
X135599371Y-94033324D01*
X135626450Y-94090573D01*
X135643119Y-94154717D01*
X135648904Y-94227204D01*
X135648904Y-94445411D01*
X135643118Y-94517947D01*
X135626447Y-94582114D01*
X135599371Y-94639364D01*
X135562095Y-94690450D01*
X135515992Y-94733348D01*
X135460080Y-94768617D01*
X135398572Y-94793588D01*
X135327799Y-94809264D01*
X135246050Y-94814779D01*
X135165393Y-94809302D01*
X135094837Y-94793661D01*
X135032826Y-94768617D01*
X134976396Y-94733304D01*
X134930015Y-94690399D01*
X134892655Y-94639364D01*
X134865579Y-94582114D01*
X134848908Y-94517947D01*
X134843122Y-94445411D01*
X134843122Y-94227204D01*
X135094961Y-94227204D01*
X135094961Y-94445411D01*
X135099798Y-94492008D01*
X135113174Y-94528492D01*
X135134382Y-94557152D01*
X135162997Y-94578357D01*
X135199454Y-94591733D01*
X135246050Y-94596572D01*
X135293727Y-94591677D01*
X135330366Y-94578255D01*
X135358524Y-94557152D01*
X135379265Y-94528556D01*
X135392385Y-94492073D01*
X135397138Y-94445411D01*
X135397138Y-94227204D01*
X135392328Y-94179458D01*
X135379161Y-94142822D01*
X135358524Y-94114730D01*
X135330432Y-94094092D01*
X135293795Y-94080925D01*
X135246050Y-94076115D01*
X135199389Y-94080870D01*
X135162933Y-94093992D01*
X135134382Y-94114730D01*
X135113278Y-94142887D01*
X135099856Y-94179527D01*
X135094961Y-94227204D01*
X134843122Y-94227204D01*
X134848907Y-94154717D01*
X134865577Y-94090573D01*
X134892655Y-94033324D01*
X134930020Y-93982243D01*
X134976401Y-93939315D01*
X135032826Y-93903997D01*
X135094837Y-93878954D01*
X135165393Y-93863312D01*
X135246050Y-93857836D01*
X135327799Y-93863350D01*
G37*
G36*
X136412554Y-94798000D02*
G01*
X136348704Y-94793193D01*
X136292019Y-94779342D01*
X136241315Y-94756893D01*
X136195590Y-94725713D01*
X136157457Y-94687580D01*
X136126277Y-94641855D01*
X136103828Y-94591151D01*
X136089977Y-94534466D01*
X136085170Y-94470616D01*
X136085170Y-93799071D01*
X135791420Y-93799071D01*
X135791420Y-93572438D01*
X136337009Y-93572438D01*
X136337009Y-94462263D01*
X136344242Y-94507184D01*
X136364706Y-94541178D01*
X136396334Y-94563618D01*
X136437759Y-94571367D01*
X136697951Y-94571367D01*
X136697951Y-94798000D01*
X136412554Y-94798000D01*
G37*
G36*
X137075453Y-94798000D02*
G01*
X137075453Y-94227204D01*
X136830355Y-94227204D01*
X136830355Y-94000571D01*
X137075453Y-94000571D01*
X137075453Y-93857836D01*
X137081293Y-93794691D01*
X137098032Y-93740120D01*
X137125262Y-93692455D01*
X137163600Y-93650547D01*
X137209633Y-93617216D01*
X137262542Y-93592945D01*
X137323611Y-93577772D01*
X137394483Y-93572438D01*
X137664713Y-93572438D01*
X137664713Y-93790718D01*
X137402836Y-93790718D01*
X137371983Y-93796141D01*
X137348248Y-93811747D01*
X137332701Y-93835416D01*
X137327292Y-93866262D01*
X137327292Y-94000571D01*
X137664713Y-94000571D01*
X137664713Y-94227204D01*
X137327292Y-94227204D01*
X137327292Y-94798000D01*
X137075453Y-94798000D01*
G37*
D11*
%TO.C,D3*%
X148230000Y-143200000D02*
G75*
G02*
X148170000Y-143200000I-30000J0D01*
G01*
X148170000Y-143200000D02*
G75*
G02*
X148230000Y-143200000I30000J0D01*
G01*
%TO.C,D2*%
X144630000Y-143200000D02*
G75*
G02*
X144570000Y-143200000I-30000J0D01*
G01*
X144570000Y-143200000D02*
G75*
G02*
X144630000Y-143200000I30000J0D01*
G01*
D12*
%TO.C,L1*%
X136290000Y-71600000D02*
X135750000Y-71600000D01*
X136290000Y-73200000D02*
X135750000Y-73200000D01*
X135250000Y-73500000D02*
G75*
G02*
X134990000Y-73500000I-130000J0D01*
G01*
X134990000Y-73500000D02*
G75*
G02*
X135250000Y-73500000I130000J0D01*
G01*
D13*
%TO.C,D1*%
X131225000Y-64625000D02*
X131225000Y-65925000D01*
X134375000Y-65925000D02*
X134375000Y-64625000D01*
D14*
X132100000Y-67475000D02*
G75*
G02*
X131900000Y-67475000I-100000J0D01*
G01*
X131900000Y-67475000D02*
G75*
G02*
X132100000Y-67475000I100000J0D01*
G01*
D13*
%TO.C,U8*%
X129705000Y-129750000D02*
X128900000Y-129750000D01*
X129705000Y-132750000D02*
X128900000Y-132750000D01*
X131900000Y-129750000D02*
X131095000Y-129750000D01*
X131900000Y-132750000D02*
X131095000Y-132750000D01*
D14*
X132895000Y-132450000D02*
G75*
G02*
X132695000Y-132450000I-100000J0D01*
G01*
X132695000Y-132450000D02*
G75*
G02*
X132895000Y-132450000I100000J0D01*
G01*
D15*
%TO.C,J2*%
X133780000Y-134430000D02*
X133780000Y-135650000D01*
X133780000Y-134430000D02*
X141450000Y-134430000D01*
X133780000Y-139650000D02*
X133780000Y-137250000D01*
X133780000Y-142650000D02*
X133780000Y-141250000D01*
X133780000Y-146770000D02*
X133780000Y-144250000D01*
X134330000Y-146770000D02*
X133780000Y-146770000D01*
X134330000Y-148770000D02*
X134330000Y-146770000D01*
X139570000Y-146770000D02*
X139570000Y-148770000D01*
X139570000Y-148770000D02*
X134330000Y-148770000D01*
X140120000Y-136150000D02*
X140120000Y-146770000D01*
X140120000Y-146770000D02*
X139570000Y-146770000D01*
X141450000Y-136150000D02*
X140120000Y-136150000D01*
D13*
%TO.C,U6*%
X130605000Y-117855000D02*
X134505000Y-117855000D01*
X130605000Y-122905000D02*
X134505000Y-122905000D01*
D14*
X128615000Y-118075000D02*
G75*
G02*
X128415000Y-118075000I-100000J0D01*
G01*
X128415000Y-118075000D02*
G75*
G02*
X128615000Y-118075000I100000J0D01*
G01*
D12*
%TO.C,SW2*%
X126400000Y-67200000D02*
X129400000Y-67200000D01*
X129400000Y-65200000D02*
X126400000Y-65200000D01*
X128540000Y-66200000D02*
G75*
G02*
X127260000Y-66200000I-640000J0D01*
G01*
X127260000Y-66200000D02*
G75*
G02*
X128540000Y-66200000I640000J0D01*
G01*
D15*
%TO.C,U2*%
X125390000Y-100900000D02*
X125390000Y-98900000D01*
X127610000Y-100900000D02*
X127610000Y-98900000D01*
X125490000Y-101420000D02*
X125210000Y-101140000D01*
X125490000Y-101140000D01*
X125490000Y-101420000D01*
G36*
X125490000Y-101420000D02*
G01*
X125210000Y-101140000D01*
X125490000Y-101140000D01*
X125490000Y-101420000D01*
G37*
D11*
%TO.C,FB1*%
X136735000Y-110840000D02*
X136415000Y-110840000D01*
X136735000Y-111860000D02*
X136415000Y-111860000D01*
D15*
%TO.C,U4*%
X130140000Y-77590000D02*
X130140000Y-77380000D01*
X130140000Y-84360000D02*
X130140000Y-83910000D01*
X130590000Y-77140000D02*
X130440000Y-77140000D01*
X130590000Y-84360000D02*
X130140000Y-84360000D01*
X136910000Y-77140000D02*
X137360000Y-77140000D01*
X136910000Y-84360000D02*
X137360000Y-84360000D01*
X137360000Y-77140000D02*
X137360000Y-77590000D01*
X137360000Y-84360000D02*
X137360000Y-83910000D01*
X130140000Y-77140000D02*
X129900000Y-76810000D01*
X130380000Y-76810000D01*
X130140000Y-77140000D01*
G36*
X130140000Y-77140000D02*
G01*
X129900000Y-76810000D01*
X130380000Y-76810000D01*
X130140000Y-77140000D01*
G37*
D16*
%TO.C,VR1*%
X144800000Y-64400000D02*
X144800000Y-135900000D01*
X144800000Y-137900000D02*
X144800000Y-139400000D01*
X144800000Y-139400000D02*
X153800000Y-139400000D01*
X153800000Y-64400000D02*
X144800000Y-64400000D01*
X153800000Y-65900000D02*
X153800000Y-64400000D01*
X153800000Y-135900000D02*
X153800000Y-67900000D01*
X153800000Y-139400000D02*
X153800000Y-137900000D01*
D15*
%TO.C,U7*%
X130240000Y-106262500D02*
X130240000Y-104062500D01*
X130240000Y-106262500D02*
X130240000Y-108462500D01*
X137010000Y-106262500D02*
X137010000Y-104062500D01*
X137010000Y-106262500D02*
X137010000Y-108462500D01*
X130940000Y-110452500D02*
X130460000Y-110452500D01*
X130700000Y-110122500D01*
X130940000Y-110452500D01*
G36*
X130940000Y-110452500D02*
G01*
X130460000Y-110452500D01*
X130700000Y-110122500D01*
X130940000Y-110452500D01*
G37*
%TO.C,U1*%
X137990000Y-69825000D02*
X137990000Y-67825000D01*
X140210000Y-69825000D02*
X140210000Y-67825000D01*
X138090000Y-70345000D02*
X137810000Y-70065000D01*
X138090000Y-70065000D01*
X138090000Y-70345000D01*
G36*
X138090000Y-70345000D02*
G01*
X137810000Y-70065000D01*
X138090000Y-70065000D01*
X138090000Y-70345000D01*
G37*
D11*
%TO.C,U5*%
X129340000Y-89150000D02*
X129340000Y-90810000D01*
X129340000Y-90810000D02*
X131200000Y-90810000D01*
X129570000Y-87220000D02*
X133630000Y-87220000D01*
X129570000Y-90580000D02*
X129570000Y-87220000D01*
X133630000Y-87220000D02*
X133630000Y-90580000D01*
X133630000Y-90580000D02*
X129570000Y-90580000D01*
%TO.C,F1*%
X135970000Y-63820000D02*
X135970000Y-63060000D01*
X135970000Y-64580000D02*
X135970000Y-65340000D01*
X136980000Y-62800000D02*
X136220000Y-62800000D01*
X136980000Y-65600000D02*
X136220000Y-65600000D01*
X137230000Y-63820000D02*
X137230000Y-63060000D01*
X137230000Y-64580000D02*
X137230000Y-65340000D01*
X136536227Y-64169706D02*
G75*
G02*
X136980000Y-64330000I203773J-130294D01*
G01*
X136536227Y-64169708D02*
G75*
G02*
X136103197Y-64072870I-216227J49708D01*
G01*
D12*
%TO.C,SW1*%
X126400000Y-71900000D02*
X129400000Y-71900000D01*
X129400000Y-69900000D02*
X126400000Y-69900000D01*
X128540000Y-70900000D02*
G75*
G02*
X127260000Y-70900000I-640000J0D01*
G01*
X127260000Y-70900000D02*
G75*
G02*
X128540000Y-70900000I640000J0D01*
G01*
D15*
%TO.C,U3*%
X146728928Y-58639775D02*
X144728928Y-58639775D01*
X146728928Y-61919775D02*
X144728928Y-61919775D01*
X147098928Y-62129775D02*
X147098928Y-61849775D01*
X147378928Y-61849775D01*
X147098928Y-62129775D01*
G36*
X147098928Y-62129775D02*
G01*
X147098928Y-61849775D01*
X147378928Y-61849775D01*
X147098928Y-62129775D01*
G37*
%TD*%
%LPC*%
D17*
%TO.C,U8*%
X129370000Y-130440000D02*
X128630000Y-130440000D01*
X128630000Y-130060000D01*
X129370000Y-130060000D01*
X129370000Y-130440000D01*
G36*
X129370000Y-130440000D02*
G01*
X128630000Y-130440000D01*
X128630000Y-130060000D01*
X129370000Y-130060000D01*
X129370000Y-130440000D01*
G37*
X129370000Y-130940000D02*
X128630000Y-130940000D01*
X128630000Y-130560000D01*
X129370000Y-130560000D01*
X129370000Y-130940000D01*
G36*
X129370000Y-130940000D02*
G01*
X128630000Y-130940000D01*
X128630000Y-130560000D01*
X129370000Y-130560000D01*
X129370000Y-130940000D01*
G37*
X129370000Y-131440000D02*
X128630000Y-131440000D01*
X128630000Y-131060000D01*
X129370000Y-131060000D01*
X129370000Y-131440000D01*
G36*
X129370000Y-131440000D02*
G01*
X128630000Y-131440000D01*
X128630000Y-131060000D01*
X129370000Y-131060000D01*
X129370000Y-131440000D01*
G37*
X129370000Y-131940000D02*
X128630000Y-131940000D01*
X128630000Y-131560000D01*
X129370000Y-131560000D01*
X129370000Y-131940000D01*
G36*
X129370000Y-131940000D02*
G01*
X128630000Y-131940000D01*
X128630000Y-131560000D01*
X129370000Y-131560000D01*
X129370000Y-131940000D01*
G37*
X129370000Y-132440000D02*
X128630000Y-132440000D01*
X128630000Y-132060000D01*
X129370000Y-132060000D01*
X129370000Y-132440000D01*
G36*
X129370000Y-132440000D02*
G01*
X128630000Y-132440000D01*
X128630000Y-132060000D01*
X129370000Y-132060000D01*
X129370000Y-132440000D01*
G37*
X132170000Y-130440000D02*
X131430000Y-130440000D01*
X131430000Y-130060000D01*
X132170000Y-130060000D01*
X132170000Y-130440000D01*
G36*
X132170000Y-130440000D02*
G01*
X131430000Y-130440000D01*
X131430000Y-130060000D01*
X132170000Y-130060000D01*
X132170000Y-130440000D01*
G37*
X132170000Y-130940000D02*
X131430000Y-130940000D01*
X131430000Y-130560000D01*
X132170000Y-130560000D01*
X132170000Y-130940000D01*
G36*
X132170000Y-130940000D02*
G01*
X131430000Y-130940000D01*
X131430000Y-130560000D01*
X132170000Y-130560000D01*
X132170000Y-130940000D01*
G37*
X132170000Y-131440000D02*
X131430000Y-131440000D01*
X131430000Y-131060000D01*
X132170000Y-131060000D01*
X132170000Y-131440000D01*
G36*
X132170000Y-131440000D02*
G01*
X131430000Y-131440000D01*
X131430000Y-131060000D01*
X132170000Y-131060000D01*
X132170000Y-131440000D01*
G37*
X132170000Y-131940000D02*
X131430000Y-131940000D01*
X131430000Y-131560000D01*
X132170000Y-131560000D01*
X132170000Y-131940000D01*
G36*
X132170000Y-131940000D02*
G01*
X131430000Y-131940000D01*
X131430000Y-131560000D01*
X132170000Y-131560000D01*
X132170000Y-131940000D01*
G37*
X132170000Y-132440000D02*
X131430000Y-132440000D01*
X131430000Y-132060000D01*
X132170000Y-132060000D01*
X132170000Y-132440000D01*
G36*
X132170000Y-132440000D02*
G01*
X131430000Y-132440000D01*
X131430000Y-132060000D01*
X132170000Y-132060000D01*
X132170000Y-132440000D01*
G37*
X130345000Y-129980000D02*
X130455000Y-129980000D01*
X130455000Y-129480000D01*
X130845000Y-129480000D01*
X130845000Y-129980000D01*
X131295000Y-129980000D01*
X131295000Y-132520000D01*
X130845000Y-132520000D01*
X130845000Y-133020000D01*
X130455000Y-133020000D01*
X130455000Y-132520000D01*
X130345000Y-132520000D01*
X130345000Y-133020000D01*
X129955000Y-133020000D01*
X129955000Y-132520000D01*
X129505000Y-132520000D01*
X129505000Y-129980000D01*
X129955000Y-129980000D01*
X129955000Y-129480000D01*
X130345000Y-129480000D01*
X130345000Y-129980000D01*
G36*
X130345000Y-129980000D02*
G01*
X130455000Y-129980000D01*
X130455000Y-129480000D01*
X130845000Y-129480000D01*
X130845000Y-129980000D01*
X131295000Y-129980000D01*
X131295000Y-132520000D01*
X130845000Y-132520000D01*
X130845000Y-133020000D01*
X130455000Y-133020000D01*
X130455000Y-132520000D01*
X130345000Y-132520000D01*
X130345000Y-133020000D01*
X129955000Y-133020000D01*
X129955000Y-132520000D01*
X129505000Y-132520000D01*
X129505000Y-129980000D01*
X129955000Y-129980000D01*
X129955000Y-129480000D01*
X130345000Y-129480000D01*
X130345000Y-129980000D01*
G37*
%TO.C,D5*%
X131113000Y-140231000D02*
X131119000Y-140231000D01*
X131125000Y-140233000D01*
X131131000Y-140234000D01*
X131137000Y-140236000D01*
X131143000Y-140238000D01*
X131149000Y-140240000D01*
X131154000Y-140243000D01*
X131160000Y-140246000D01*
X131165000Y-140249000D01*
X131171000Y-140253000D01*
X131176000Y-140257000D01*
X131180000Y-140261000D01*
X131185000Y-140265000D01*
X131189000Y-140270000D01*
X131193000Y-140274000D01*
X131197000Y-140279000D01*
X131201000Y-140285000D01*
X131204000Y-140290000D01*
X131207000Y-140296000D01*
X131210000Y-140301000D01*
X131212000Y-140307000D01*
X131214000Y-140313000D01*
X131216000Y-140319000D01*
X131217000Y-140325000D01*
X131219000Y-140331000D01*
X131219000Y-140337000D01*
X131220000Y-140344000D01*
X131220000Y-140350000D01*
X131220000Y-140550000D01*
X131220000Y-140556000D01*
X131219000Y-140563000D01*
X131219000Y-140569000D01*
X131217000Y-140575000D01*
X131216000Y-140581000D01*
X131214000Y-140587000D01*
X131212000Y-140593000D01*
X131210000Y-140599000D01*
X131207000Y-140604000D01*
X131204000Y-140610000D01*
X131201000Y-140615000D01*
X131197000Y-140621000D01*
X131193000Y-140626000D01*
X131189000Y-140630000D01*
X131185000Y-140635000D01*
X131180000Y-140639000D01*
X131176000Y-140643000D01*
X131171000Y-140647000D01*
X131165000Y-140651000D01*
X131160000Y-140654000D01*
X131154000Y-140657000D01*
X131149000Y-140660000D01*
X131143000Y-140662000D01*
X131137000Y-140664000D01*
X131131000Y-140666000D01*
X131125000Y-140667000D01*
X131119000Y-140669000D01*
X131113000Y-140669000D01*
X131106000Y-140670000D01*
X131100000Y-140670000D01*
X130700000Y-140670000D01*
X130694000Y-140670000D01*
X130687000Y-140669000D01*
X130681000Y-140669000D01*
X130675000Y-140667000D01*
X130669000Y-140666000D01*
X130663000Y-140664000D01*
X130657000Y-140662000D01*
X130651000Y-140660000D01*
X130646000Y-140657000D01*
X130640000Y-140654000D01*
X130635000Y-140651000D01*
X130629000Y-140647000D01*
X130624000Y-140643000D01*
X130620000Y-140639000D01*
X130615000Y-140635000D01*
X130611000Y-140630000D01*
X130607000Y-140626000D01*
X130603000Y-140621000D01*
X130599000Y-140615000D01*
X130596000Y-140610000D01*
X130593000Y-140604000D01*
X130590000Y-140599000D01*
X130588000Y-140593000D01*
X130586000Y-140587000D01*
X130584000Y-140581000D01*
X130583000Y-140575000D01*
X130581000Y-140569000D01*
X130581000Y-140563000D01*
X130580000Y-140556000D01*
X130580000Y-140550000D01*
X130580000Y-140350000D01*
X130580000Y-140344000D01*
X130581000Y-140337000D01*
X130581000Y-140331000D01*
X130583000Y-140325000D01*
X130584000Y-140319000D01*
X130586000Y-140313000D01*
X130588000Y-140307000D01*
X130590000Y-140301000D01*
X130593000Y-140296000D01*
X130596000Y-140290000D01*
X130599000Y-140285000D01*
X130603000Y-140279000D01*
X130607000Y-140274000D01*
X130611000Y-140270000D01*
X130615000Y-140265000D01*
X130620000Y-140261000D01*
X130624000Y-140257000D01*
X130629000Y-140253000D01*
X130635000Y-140249000D01*
X130640000Y-140246000D01*
X130646000Y-140243000D01*
X130651000Y-140240000D01*
X130657000Y-140238000D01*
X130663000Y-140236000D01*
X130669000Y-140234000D01*
X130675000Y-140233000D01*
X130681000Y-140231000D01*
X130687000Y-140231000D01*
X130694000Y-140230000D01*
X130700000Y-140230000D01*
X131100000Y-140230000D01*
X131106000Y-140230000D01*
X131113000Y-140231000D01*
G36*
X131113000Y-140231000D02*
G01*
X131119000Y-140231000D01*
X131125000Y-140233000D01*
X131131000Y-140234000D01*
X131137000Y-140236000D01*
X131143000Y-140238000D01*
X131149000Y-140240000D01*
X131154000Y-140243000D01*
X131160000Y-140246000D01*
X131165000Y-140249000D01*
X131171000Y-140253000D01*
X131176000Y-140257000D01*
X131180000Y-140261000D01*
X131185000Y-140265000D01*
X131189000Y-140270000D01*
X131193000Y-140274000D01*
X131197000Y-140279000D01*
X131201000Y-140285000D01*
X131204000Y-140290000D01*
X131207000Y-140296000D01*
X131210000Y-140301000D01*
X131212000Y-140307000D01*
X131214000Y-140313000D01*
X131216000Y-140319000D01*
X131217000Y-140325000D01*
X131219000Y-140331000D01*
X131219000Y-140337000D01*
X131220000Y-140344000D01*
X131220000Y-140350000D01*
X131220000Y-140550000D01*
X131220000Y-140556000D01*
X131219000Y-140563000D01*
X131219000Y-140569000D01*
X131217000Y-140575000D01*
X131216000Y-140581000D01*
X131214000Y-140587000D01*
X131212000Y-140593000D01*
X131210000Y-140599000D01*
X131207000Y-140604000D01*
X131204000Y-140610000D01*
X131201000Y-140615000D01*
X131197000Y-140621000D01*
X131193000Y-140626000D01*
X131189000Y-140630000D01*
X131185000Y-140635000D01*
X131180000Y-140639000D01*
X131176000Y-140643000D01*
X131171000Y-140647000D01*
X131165000Y-140651000D01*
X131160000Y-140654000D01*
X131154000Y-140657000D01*
X131149000Y-140660000D01*
X131143000Y-140662000D01*
X131137000Y-140664000D01*
X131131000Y-140666000D01*
X131125000Y-140667000D01*
X131119000Y-140669000D01*
X131113000Y-140669000D01*
X131106000Y-140670000D01*
X131100000Y-140670000D01*
X130700000Y-140670000D01*
X130694000Y-140670000D01*
X130687000Y-140669000D01*
X130681000Y-140669000D01*
X130675000Y-140667000D01*
X130669000Y-140666000D01*
X130663000Y-140664000D01*
X130657000Y-140662000D01*
X130651000Y-140660000D01*
X130646000Y-140657000D01*
X130640000Y-140654000D01*
X130635000Y-140651000D01*
X130629000Y-140647000D01*
X130624000Y-140643000D01*
X130620000Y-140639000D01*
X130615000Y-140635000D01*
X130611000Y-140630000D01*
X130607000Y-140626000D01*
X130603000Y-140621000D01*
X130599000Y-140615000D01*
X130596000Y-140610000D01*
X130593000Y-140604000D01*
X130590000Y-140599000D01*
X130588000Y-140593000D01*
X130586000Y-140587000D01*
X130584000Y-140581000D01*
X130583000Y-140575000D01*
X130581000Y-140569000D01*
X130581000Y-140563000D01*
X130580000Y-140556000D01*
X130580000Y-140550000D01*
X130580000Y-140350000D01*
X130580000Y-140344000D01*
X130581000Y-140337000D01*
X130581000Y-140331000D01*
X130583000Y-140325000D01*
X130584000Y-140319000D01*
X130586000Y-140313000D01*
X130588000Y-140307000D01*
X130590000Y-140301000D01*
X130593000Y-140296000D01*
X130596000Y-140290000D01*
X130599000Y-140285000D01*
X130603000Y-140279000D01*
X130607000Y-140274000D01*
X130611000Y-140270000D01*
X130615000Y-140265000D01*
X130620000Y-140261000D01*
X130624000Y-140257000D01*
X130629000Y-140253000D01*
X130635000Y-140249000D01*
X130640000Y-140246000D01*
X130646000Y-140243000D01*
X130651000Y-140240000D01*
X130657000Y-140238000D01*
X130663000Y-140236000D01*
X130669000Y-140234000D01*
X130675000Y-140233000D01*
X130681000Y-140231000D01*
X130687000Y-140231000D01*
X130694000Y-140230000D01*
X130700000Y-140230000D01*
X131100000Y-140230000D01*
X131106000Y-140230000D01*
X131113000Y-140231000D01*
G37*
X131113000Y-140931000D02*
X131119000Y-140931000D01*
X131125000Y-140933000D01*
X131131000Y-140934000D01*
X131137000Y-140936000D01*
X131143000Y-140938000D01*
X131149000Y-140940000D01*
X131154000Y-140943000D01*
X131160000Y-140946000D01*
X131165000Y-140949000D01*
X131171000Y-140953000D01*
X131176000Y-140957000D01*
X131180000Y-140961000D01*
X131185000Y-140965000D01*
X131189000Y-140970000D01*
X131193000Y-140974000D01*
X131197000Y-140979000D01*
X131201000Y-140985000D01*
X131204000Y-140990000D01*
X131207000Y-140996000D01*
X131210000Y-141001000D01*
X131212000Y-141007000D01*
X131214000Y-141013000D01*
X131216000Y-141019000D01*
X131217000Y-141025000D01*
X131219000Y-141031000D01*
X131219000Y-141037000D01*
X131220000Y-141044000D01*
X131220000Y-141050000D01*
X131220000Y-141250000D01*
X131220000Y-141256000D01*
X131219000Y-141263000D01*
X131219000Y-141269000D01*
X131217000Y-141275000D01*
X131216000Y-141281000D01*
X131214000Y-141287000D01*
X131212000Y-141293000D01*
X131210000Y-141299000D01*
X131207000Y-141304000D01*
X131204000Y-141310000D01*
X131201000Y-141315000D01*
X131197000Y-141321000D01*
X131193000Y-141326000D01*
X131189000Y-141330000D01*
X131185000Y-141335000D01*
X131180000Y-141339000D01*
X131176000Y-141343000D01*
X131171000Y-141347000D01*
X131165000Y-141351000D01*
X131160000Y-141354000D01*
X131154000Y-141357000D01*
X131149000Y-141360000D01*
X131143000Y-141362000D01*
X131137000Y-141364000D01*
X131131000Y-141366000D01*
X131125000Y-141367000D01*
X131119000Y-141369000D01*
X131113000Y-141369000D01*
X131106000Y-141370000D01*
X131100000Y-141370000D01*
X130700000Y-141370000D01*
X130694000Y-141370000D01*
X130687000Y-141369000D01*
X130681000Y-141369000D01*
X130675000Y-141367000D01*
X130669000Y-141366000D01*
X130663000Y-141364000D01*
X130657000Y-141362000D01*
X130651000Y-141360000D01*
X130646000Y-141357000D01*
X130640000Y-141354000D01*
X130635000Y-141351000D01*
X130629000Y-141347000D01*
X130624000Y-141343000D01*
X130620000Y-141339000D01*
X130615000Y-141335000D01*
X130611000Y-141330000D01*
X130607000Y-141326000D01*
X130603000Y-141321000D01*
X130599000Y-141315000D01*
X130596000Y-141310000D01*
X130593000Y-141304000D01*
X130590000Y-141299000D01*
X130588000Y-141293000D01*
X130586000Y-141287000D01*
X130584000Y-141281000D01*
X130583000Y-141275000D01*
X130581000Y-141269000D01*
X130581000Y-141263000D01*
X130580000Y-141256000D01*
X130580000Y-141250000D01*
X130580000Y-141050000D01*
X130580000Y-141044000D01*
X130581000Y-141037000D01*
X130581000Y-141031000D01*
X130583000Y-141025000D01*
X130584000Y-141019000D01*
X130586000Y-141013000D01*
X130588000Y-141007000D01*
X130590000Y-141001000D01*
X130593000Y-140996000D01*
X130596000Y-140990000D01*
X130599000Y-140985000D01*
X130603000Y-140979000D01*
X130607000Y-140974000D01*
X130611000Y-140970000D01*
X130615000Y-140965000D01*
X130620000Y-140961000D01*
X130624000Y-140957000D01*
X130629000Y-140953000D01*
X130635000Y-140949000D01*
X130640000Y-140946000D01*
X130646000Y-140943000D01*
X130651000Y-140940000D01*
X130657000Y-140938000D01*
X130663000Y-140936000D01*
X130669000Y-140934000D01*
X130675000Y-140933000D01*
X130681000Y-140931000D01*
X130687000Y-140931000D01*
X130694000Y-140930000D01*
X130700000Y-140930000D01*
X131100000Y-140930000D01*
X131106000Y-140930000D01*
X131113000Y-140931000D01*
G36*
X131113000Y-140931000D02*
G01*
X131119000Y-140931000D01*
X131125000Y-140933000D01*
X131131000Y-140934000D01*
X131137000Y-140936000D01*
X131143000Y-140938000D01*
X131149000Y-140940000D01*
X131154000Y-140943000D01*
X131160000Y-140946000D01*
X131165000Y-140949000D01*
X131171000Y-140953000D01*
X131176000Y-140957000D01*
X131180000Y-140961000D01*
X131185000Y-140965000D01*
X131189000Y-140970000D01*
X131193000Y-140974000D01*
X131197000Y-140979000D01*
X131201000Y-140985000D01*
X131204000Y-140990000D01*
X131207000Y-140996000D01*
X131210000Y-141001000D01*
X131212000Y-141007000D01*
X131214000Y-141013000D01*
X131216000Y-141019000D01*
X131217000Y-141025000D01*
X131219000Y-141031000D01*
X131219000Y-141037000D01*
X131220000Y-141044000D01*
X131220000Y-141050000D01*
X131220000Y-141250000D01*
X131220000Y-141256000D01*
X131219000Y-141263000D01*
X131219000Y-141269000D01*
X131217000Y-141275000D01*
X131216000Y-141281000D01*
X131214000Y-141287000D01*
X131212000Y-141293000D01*
X131210000Y-141299000D01*
X131207000Y-141304000D01*
X131204000Y-141310000D01*
X131201000Y-141315000D01*
X131197000Y-141321000D01*
X131193000Y-141326000D01*
X131189000Y-141330000D01*
X131185000Y-141335000D01*
X131180000Y-141339000D01*
X131176000Y-141343000D01*
X131171000Y-141347000D01*
X131165000Y-141351000D01*
X131160000Y-141354000D01*
X131154000Y-141357000D01*
X131149000Y-141360000D01*
X131143000Y-141362000D01*
X131137000Y-141364000D01*
X131131000Y-141366000D01*
X131125000Y-141367000D01*
X131119000Y-141369000D01*
X131113000Y-141369000D01*
X131106000Y-141370000D01*
X131100000Y-141370000D01*
X130700000Y-141370000D01*
X130694000Y-141370000D01*
X130687000Y-141369000D01*
X130681000Y-141369000D01*
X130675000Y-141367000D01*
X130669000Y-141366000D01*
X130663000Y-141364000D01*
X130657000Y-141362000D01*
X130651000Y-141360000D01*
X130646000Y-141357000D01*
X130640000Y-141354000D01*
X130635000Y-141351000D01*
X130629000Y-141347000D01*
X130624000Y-141343000D01*
X130620000Y-141339000D01*
X130615000Y-141335000D01*
X130611000Y-141330000D01*
X130607000Y-141326000D01*
X130603000Y-141321000D01*
X130599000Y-141315000D01*
X130596000Y-141310000D01*
X130593000Y-141304000D01*
X130590000Y-141299000D01*
X130588000Y-141293000D01*
X130586000Y-141287000D01*
X130584000Y-141281000D01*
X130583000Y-141275000D01*
X130581000Y-141269000D01*
X130581000Y-141263000D01*
X130580000Y-141256000D01*
X130580000Y-141250000D01*
X130580000Y-141050000D01*
X130580000Y-141044000D01*
X130581000Y-141037000D01*
X130581000Y-141031000D01*
X130583000Y-141025000D01*
X130584000Y-141019000D01*
X130586000Y-141013000D01*
X130588000Y-141007000D01*
X130590000Y-141001000D01*
X130593000Y-140996000D01*
X130596000Y-140990000D01*
X130599000Y-140985000D01*
X130603000Y-140979000D01*
X130607000Y-140974000D01*
X130611000Y-140970000D01*
X130615000Y-140965000D01*
X130620000Y-140961000D01*
X130624000Y-140957000D01*
X130629000Y-140953000D01*
X130635000Y-140949000D01*
X130640000Y-140946000D01*
X130646000Y-140943000D01*
X130651000Y-140940000D01*
X130657000Y-140938000D01*
X130663000Y-140936000D01*
X130669000Y-140934000D01*
X130675000Y-140933000D01*
X130681000Y-140931000D01*
X130687000Y-140931000D01*
X130694000Y-140930000D01*
X130700000Y-140930000D01*
X131100000Y-140930000D01*
X131106000Y-140930000D01*
X131113000Y-140931000D01*
G37*
%TO.C,D4*%
X131113000Y-136231000D02*
X131119000Y-136231000D01*
X131125000Y-136233000D01*
X131131000Y-136234000D01*
X131137000Y-136236000D01*
X131143000Y-136238000D01*
X131149000Y-136240000D01*
X131154000Y-136243000D01*
X131160000Y-136246000D01*
X131165000Y-136249000D01*
X131171000Y-136253000D01*
X131176000Y-136257000D01*
X131180000Y-136261000D01*
X131185000Y-136265000D01*
X131189000Y-136270000D01*
X131193000Y-136274000D01*
X131197000Y-136279000D01*
X131201000Y-136285000D01*
X131204000Y-136290000D01*
X131207000Y-136296000D01*
X131210000Y-136301000D01*
X131212000Y-136307000D01*
X131214000Y-136313000D01*
X131216000Y-136319000D01*
X131217000Y-136325000D01*
X131219000Y-136331000D01*
X131219000Y-136337000D01*
X131220000Y-136344000D01*
X131220000Y-136350000D01*
X131220000Y-136550000D01*
X131220000Y-136556000D01*
X131219000Y-136563000D01*
X131219000Y-136569000D01*
X131217000Y-136575000D01*
X131216000Y-136581000D01*
X131214000Y-136587000D01*
X131212000Y-136593000D01*
X131210000Y-136599000D01*
X131207000Y-136604000D01*
X131204000Y-136610000D01*
X131201000Y-136615000D01*
X131197000Y-136621000D01*
X131193000Y-136626000D01*
X131189000Y-136630000D01*
X131185000Y-136635000D01*
X131180000Y-136639000D01*
X131176000Y-136643000D01*
X131171000Y-136647000D01*
X131165000Y-136651000D01*
X131160000Y-136654000D01*
X131154000Y-136657000D01*
X131149000Y-136660000D01*
X131143000Y-136662000D01*
X131137000Y-136664000D01*
X131131000Y-136666000D01*
X131125000Y-136667000D01*
X131119000Y-136669000D01*
X131113000Y-136669000D01*
X131106000Y-136670000D01*
X131100000Y-136670000D01*
X130700000Y-136670000D01*
X130694000Y-136670000D01*
X130687000Y-136669000D01*
X130681000Y-136669000D01*
X130675000Y-136667000D01*
X130669000Y-136666000D01*
X130663000Y-136664000D01*
X130657000Y-136662000D01*
X130651000Y-136660000D01*
X130646000Y-136657000D01*
X130640000Y-136654000D01*
X130635000Y-136651000D01*
X130629000Y-136647000D01*
X130624000Y-136643000D01*
X130620000Y-136639000D01*
X130615000Y-136635000D01*
X130611000Y-136630000D01*
X130607000Y-136626000D01*
X130603000Y-136621000D01*
X130599000Y-136615000D01*
X130596000Y-136610000D01*
X130593000Y-136604000D01*
X130590000Y-136599000D01*
X130588000Y-136593000D01*
X130586000Y-136587000D01*
X130584000Y-136581000D01*
X130583000Y-136575000D01*
X130581000Y-136569000D01*
X130581000Y-136563000D01*
X130580000Y-136556000D01*
X130580000Y-136550000D01*
X130580000Y-136350000D01*
X130580000Y-136344000D01*
X130581000Y-136337000D01*
X130581000Y-136331000D01*
X130583000Y-136325000D01*
X130584000Y-136319000D01*
X130586000Y-136313000D01*
X130588000Y-136307000D01*
X130590000Y-136301000D01*
X130593000Y-136296000D01*
X130596000Y-136290000D01*
X130599000Y-136285000D01*
X130603000Y-136279000D01*
X130607000Y-136274000D01*
X130611000Y-136270000D01*
X130615000Y-136265000D01*
X130620000Y-136261000D01*
X130624000Y-136257000D01*
X130629000Y-136253000D01*
X130635000Y-136249000D01*
X130640000Y-136246000D01*
X130646000Y-136243000D01*
X130651000Y-136240000D01*
X130657000Y-136238000D01*
X130663000Y-136236000D01*
X130669000Y-136234000D01*
X130675000Y-136233000D01*
X130681000Y-136231000D01*
X130687000Y-136231000D01*
X130694000Y-136230000D01*
X130700000Y-136230000D01*
X131100000Y-136230000D01*
X131106000Y-136230000D01*
X131113000Y-136231000D01*
G36*
X131113000Y-136231000D02*
G01*
X131119000Y-136231000D01*
X131125000Y-136233000D01*
X131131000Y-136234000D01*
X131137000Y-136236000D01*
X131143000Y-136238000D01*
X131149000Y-136240000D01*
X131154000Y-136243000D01*
X131160000Y-136246000D01*
X131165000Y-136249000D01*
X131171000Y-136253000D01*
X131176000Y-136257000D01*
X131180000Y-136261000D01*
X131185000Y-136265000D01*
X131189000Y-136270000D01*
X131193000Y-136274000D01*
X131197000Y-136279000D01*
X131201000Y-136285000D01*
X131204000Y-136290000D01*
X131207000Y-136296000D01*
X131210000Y-136301000D01*
X131212000Y-136307000D01*
X131214000Y-136313000D01*
X131216000Y-136319000D01*
X131217000Y-136325000D01*
X131219000Y-136331000D01*
X131219000Y-136337000D01*
X131220000Y-136344000D01*
X131220000Y-136350000D01*
X131220000Y-136550000D01*
X131220000Y-136556000D01*
X131219000Y-136563000D01*
X131219000Y-136569000D01*
X131217000Y-136575000D01*
X131216000Y-136581000D01*
X131214000Y-136587000D01*
X131212000Y-136593000D01*
X131210000Y-136599000D01*
X131207000Y-136604000D01*
X131204000Y-136610000D01*
X131201000Y-136615000D01*
X131197000Y-136621000D01*
X131193000Y-136626000D01*
X131189000Y-136630000D01*
X131185000Y-136635000D01*
X131180000Y-136639000D01*
X131176000Y-136643000D01*
X131171000Y-136647000D01*
X131165000Y-136651000D01*
X131160000Y-136654000D01*
X131154000Y-136657000D01*
X131149000Y-136660000D01*
X131143000Y-136662000D01*
X131137000Y-136664000D01*
X131131000Y-136666000D01*
X131125000Y-136667000D01*
X131119000Y-136669000D01*
X131113000Y-136669000D01*
X131106000Y-136670000D01*
X131100000Y-136670000D01*
X130700000Y-136670000D01*
X130694000Y-136670000D01*
X130687000Y-136669000D01*
X130681000Y-136669000D01*
X130675000Y-136667000D01*
X130669000Y-136666000D01*
X130663000Y-136664000D01*
X130657000Y-136662000D01*
X130651000Y-136660000D01*
X130646000Y-136657000D01*
X130640000Y-136654000D01*
X130635000Y-136651000D01*
X130629000Y-136647000D01*
X130624000Y-136643000D01*
X130620000Y-136639000D01*
X130615000Y-136635000D01*
X130611000Y-136630000D01*
X130607000Y-136626000D01*
X130603000Y-136621000D01*
X130599000Y-136615000D01*
X130596000Y-136610000D01*
X130593000Y-136604000D01*
X130590000Y-136599000D01*
X130588000Y-136593000D01*
X130586000Y-136587000D01*
X130584000Y-136581000D01*
X130583000Y-136575000D01*
X130581000Y-136569000D01*
X130581000Y-136563000D01*
X130580000Y-136556000D01*
X130580000Y-136550000D01*
X130580000Y-136350000D01*
X130580000Y-136344000D01*
X130581000Y-136337000D01*
X130581000Y-136331000D01*
X130583000Y-136325000D01*
X130584000Y-136319000D01*
X130586000Y-136313000D01*
X130588000Y-136307000D01*
X130590000Y-136301000D01*
X130593000Y-136296000D01*
X130596000Y-136290000D01*
X130599000Y-136285000D01*
X130603000Y-136279000D01*
X130607000Y-136274000D01*
X130611000Y-136270000D01*
X130615000Y-136265000D01*
X130620000Y-136261000D01*
X130624000Y-136257000D01*
X130629000Y-136253000D01*
X130635000Y-136249000D01*
X130640000Y-136246000D01*
X130646000Y-136243000D01*
X130651000Y-136240000D01*
X130657000Y-136238000D01*
X130663000Y-136236000D01*
X130669000Y-136234000D01*
X130675000Y-136233000D01*
X130681000Y-136231000D01*
X130687000Y-136231000D01*
X130694000Y-136230000D01*
X130700000Y-136230000D01*
X131100000Y-136230000D01*
X131106000Y-136230000D01*
X131113000Y-136231000D01*
G37*
X131113000Y-136931000D02*
X131119000Y-136931000D01*
X131125000Y-136933000D01*
X131131000Y-136934000D01*
X131137000Y-136936000D01*
X131143000Y-136938000D01*
X131149000Y-136940000D01*
X131154000Y-136943000D01*
X131160000Y-136946000D01*
X131165000Y-136949000D01*
X131171000Y-136953000D01*
X131176000Y-136957000D01*
X131180000Y-136961000D01*
X131185000Y-136965000D01*
X131189000Y-136970000D01*
X131193000Y-136974000D01*
X131197000Y-136979000D01*
X131201000Y-136985000D01*
X131204000Y-136990000D01*
X131207000Y-136996000D01*
X131210000Y-137001000D01*
X131212000Y-137007000D01*
X131214000Y-137013000D01*
X131216000Y-137019000D01*
X131217000Y-137025000D01*
X131219000Y-137031000D01*
X131219000Y-137037000D01*
X131220000Y-137044000D01*
X131220000Y-137050000D01*
X131220000Y-137250000D01*
X131220000Y-137256000D01*
X131219000Y-137263000D01*
X131219000Y-137269000D01*
X131217000Y-137275000D01*
X131216000Y-137281000D01*
X131214000Y-137287000D01*
X131212000Y-137293000D01*
X131210000Y-137299000D01*
X131207000Y-137304000D01*
X131204000Y-137310000D01*
X131201000Y-137315000D01*
X131197000Y-137321000D01*
X131193000Y-137326000D01*
X131189000Y-137330000D01*
X131185000Y-137335000D01*
X131180000Y-137339000D01*
X131176000Y-137343000D01*
X131171000Y-137347000D01*
X131165000Y-137351000D01*
X131160000Y-137354000D01*
X131154000Y-137357000D01*
X131149000Y-137360000D01*
X131143000Y-137362000D01*
X131137000Y-137364000D01*
X131131000Y-137366000D01*
X131125000Y-137367000D01*
X131119000Y-137369000D01*
X131113000Y-137369000D01*
X131106000Y-137370000D01*
X131100000Y-137370000D01*
X130700000Y-137370000D01*
X130694000Y-137370000D01*
X130687000Y-137369000D01*
X130681000Y-137369000D01*
X130675000Y-137367000D01*
X130669000Y-137366000D01*
X130663000Y-137364000D01*
X130657000Y-137362000D01*
X130651000Y-137360000D01*
X130646000Y-137357000D01*
X130640000Y-137354000D01*
X130635000Y-137351000D01*
X130629000Y-137347000D01*
X130624000Y-137343000D01*
X130620000Y-137339000D01*
X130615000Y-137335000D01*
X130611000Y-137330000D01*
X130607000Y-137326000D01*
X130603000Y-137321000D01*
X130599000Y-137315000D01*
X130596000Y-137310000D01*
X130593000Y-137304000D01*
X130590000Y-137299000D01*
X130588000Y-137293000D01*
X130586000Y-137287000D01*
X130584000Y-137281000D01*
X130583000Y-137275000D01*
X130581000Y-137269000D01*
X130581000Y-137263000D01*
X130580000Y-137256000D01*
X130580000Y-137250000D01*
X130580000Y-137050000D01*
X130580000Y-137044000D01*
X130581000Y-137037000D01*
X130581000Y-137031000D01*
X130583000Y-137025000D01*
X130584000Y-137019000D01*
X130586000Y-137013000D01*
X130588000Y-137007000D01*
X130590000Y-137001000D01*
X130593000Y-136996000D01*
X130596000Y-136990000D01*
X130599000Y-136985000D01*
X130603000Y-136979000D01*
X130607000Y-136974000D01*
X130611000Y-136970000D01*
X130615000Y-136965000D01*
X130620000Y-136961000D01*
X130624000Y-136957000D01*
X130629000Y-136953000D01*
X130635000Y-136949000D01*
X130640000Y-136946000D01*
X130646000Y-136943000D01*
X130651000Y-136940000D01*
X130657000Y-136938000D01*
X130663000Y-136936000D01*
X130669000Y-136934000D01*
X130675000Y-136933000D01*
X130681000Y-136931000D01*
X130687000Y-136931000D01*
X130694000Y-136930000D01*
X130700000Y-136930000D01*
X131100000Y-136930000D01*
X131106000Y-136930000D01*
X131113000Y-136931000D01*
G36*
X131113000Y-136931000D02*
G01*
X131119000Y-136931000D01*
X131125000Y-136933000D01*
X131131000Y-136934000D01*
X131137000Y-136936000D01*
X131143000Y-136938000D01*
X131149000Y-136940000D01*
X131154000Y-136943000D01*
X131160000Y-136946000D01*
X131165000Y-136949000D01*
X131171000Y-136953000D01*
X131176000Y-136957000D01*
X131180000Y-136961000D01*
X131185000Y-136965000D01*
X131189000Y-136970000D01*
X131193000Y-136974000D01*
X131197000Y-136979000D01*
X131201000Y-136985000D01*
X131204000Y-136990000D01*
X131207000Y-136996000D01*
X131210000Y-137001000D01*
X131212000Y-137007000D01*
X131214000Y-137013000D01*
X131216000Y-137019000D01*
X131217000Y-137025000D01*
X131219000Y-137031000D01*
X131219000Y-137037000D01*
X131220000Y-137044000D01*
X131220000Y-137050000D01*
X131220000Y-137250000D01*
X131220000Y-137256000D01*
X131219000Y-137263000D01*
X131219000Y-137269000D01*
X131217000Y-137275000D01*
X131216000Y-137281000D01*
X131214000Y-137287000D01*
X131212000Y-137293000D01*
X131210000Y-137299000D01*
X131207000Y-137304000D01*
X131204000Y-137310000D01*
X131201000Y-137315000D01*
X131197000Y-137321000D01*
X131193000Y-137326000D01*
X131189000Y-137330000D01*
X131185000Y-137335000D01*
X131180000Y-137339000D01*
X131176000Y-137343000D01*
X131171000Y-137347000D01*
X131165000Y-137351000D01*
X131160000Y-137354000D01*
X131154000Y-137357000D01*
X131149000Y-137360000D01*
X131143000Y-137362000D01*
X131137000Y-137364000D01*
X131131000Y-137366000D01*
X131125000Y-137367000D01*
X131119000Y-137369000D01*
X131113000Y-137369000D01*
X131106000Y-137370000D01*
X131100000Y-137370000D01*
X130700000Y-137370000D01*
X130694000Y-137370000D01*
X130687000Y-137369000D01*
X130681000Y-137369000D01*
X130675000Y-137367000D01*
X130669000Y-137366000D01*
X130663000Y-137364000D01*
X130657000Y-137362000D01*
X130651000Y-137360000D01*
X130646000Y-137357000D01*
X130640000Y-137354000D01*
X130635000Y-137351000D01*
X130629000Y-137347000D01*
X130624000Y-137343000D01*
X130620000Y-137339000D01*
X130615000Y-137335000D01*
X130611000Y-137330000D01*
X130607000Y-137326000D01*
X130603000Y-137321000D01*
X130599000Y-137315000D01*
X130596000Y-137310000D01*
X130593000Y-137304000D01*
X130590000Y-137299000D01*
X130588000Y-137293000D01*
X130586000Y-137287000D01*
X130584000Y-137281000D01*
X130583000Y-137275000D01*
X130581000Y-137269000D01*
X130581000Y-137263000D01*
X130580000Y-137256000D01*
X130580000Y-137250000D01*
X130580000Y-137050000D01*
X130580000Y-137044000D01*
X130581000Y-137037000D01*
X130581000Y-137031000D01*
X130583000Y-137025000D01*
X130584000Y-137019000D01*
X130586000Y-137013000D01*
X130588000Y-137007000D01*
X130590000Y-137001000D01*
X130593000Y-136996000D01*
X130596000Y-136990000D01*
X130599000Y-136985000D01*
X130603000Y-136979000D01*
X130607000Y-136974000D01*
X130611000Y-136970000D01*
X130615000Y-136965000D01*
X130620000Y-136961000D01*
X130624000Y-136957000D01*
X130629000Y-136953000D01*
X130635000Y-136949000D01*
X130640000Y-136946000D01*
X130646000Y-136943000D01*
X130651000Y-136940000D01*
X130657000Y-136938000D01*
X130663000Y-136936000D01*
X130669000Y-136934000D01*
X130675000Y-136933000D01*
X130681000Y-136931000D01*
X130687000Y-136931000D01*
X130694000Y-136930000D01*
X130700000Y-136930000D01*
X131100000Y-136930000D01*
X131106000Y-136930000D01*
X131113000Y-136931000D01*
G37*
%TD*%
D18*
%TO.C,C27*%
X148200000Y-144100000D03*
X147200000Y-144100000D03*
%TD*%
D19*
%TO.C,D3*%
X147250000Y-142250000D03*
X148750000Y-142250000D03*
X147250000Y-143150000D03*
X148750000Y-143150000D03*
%TD*%
D18*
%TO.C,C28*%
X143600000Y-144100000D03*
X144600000Y-144100000D03*
%TD*%
D19*
%TO.C,D2*%
X145150000Y-143150000D03*
X143650000Y-143150000D03*
X145150000Y-142250000D03*
X143650000Y-142250000D03*
%TD*%
D20*
%TO.C,R15*%
X126700000Y-122200000D03*
X125700000Y-122200000D03*
%TD*%
D18*
%TO.C,R14*%
X138500000Y-122300000D03*
X139500000Y-122300000D03*
%TD*%
%TO.C,C10*%
X148588928Y-58459775D03*
X149588928Y-58459775D03*
%TD*%
%TO.C,C20*%
X139350000Y-81150000D03*
X140350000Y-81150000D03*
%TD*%
D21*
%TO.C,L1*%
X137020000Y-72400000D03*
X135020000Y-72400000D03*
%TD*%
D22*
%TO.C,C44*%
X132325000Y-111950000D03*
X132325000Y-112950000D03*
%TD*%
D18*
%TO.C,C21*%
X138750000Y-78250000D03*
X139750000Y-78250000D03*
%TD*%
D22*
%TO.C,C4*%
X124750000Y-97150000D03*
X124750000Y-98150000D03*
%TD*%
D20*
%TO.C,C5*%
X126450000Y-102750000D03*
X125450000Y-102750000D03*
%TD*%
%TO.C,C3*%
X129600000Y-62500000D03*
X128600000Y-62500000D03*
%TD*%
D23*
%TO.C,C43*%
X132000000Y-100400000D03*
X132000000Y-99400000D03*
%TD*%
D22*
%TO.C,R1*%
X135250000Y-63250000D03*
X135250000Y-64250000D03*
%TD*%
D18*
%TO.C,R6*%
X142578928Y-57629775D03*
X143578928Y-57629775D03*
%TD*%
D24*
%TO.C,H5*%
X123375000Y-143700000D03*
X123858274Y-142533274D03*
X123858274Y-144866726D03*
X125025000Y-142050000D03*
D25*
X125025000Y-143700000D03*
D24*
X125025000Y-145350000D03*
X126191726Y-142533274D03*
X126191726Y-144866726D03*
X126675000Y-143700000D03*
%TD*%
D20*
%TO.C,R3*%
X149588928Y-62229775D03*
X148588928Y-62229775D03*
%TD*%
D26*
%TO.C,D1*%
X132040000Y-66330000D03*
D27*
X133760000Y-66330000D03*
X133760000Y-64220000D03*
X131840000Y-64220000D03*
%TD*%
D20*
%TO.C,C30*%
X138700000Y-118300000D03*
X137700000Y-118300000D03*
%TD*%
%TO.C,C31*%
X138700000Y-117400000D03*
X137700000Y-117400000D03*
%TD*%
%TO.C,R7*%
X143578928Y-58519775D03*
X142578928Y-58519775D03*
%TD*%
D18*
%TO.C,C14*%
X139350000Y-80150000D03*
X140350000Y-80150000D03*
%TD*%
D23*
%TO.C,C26*%
X128400000Y-90400000D03*
X128400000Y-89400000D03*
%TD*%
D28*
%TO.C,J2*%
X136950000Y-145050000D03*
X136950000Y-138050000D03*
D29*
X133700000Y-140450000D03*
X133700000Y-143450000D03*
X140200000Y-135350000D03*
X133700000Y-136450000D03*
%TD*%
D22*
%TO.C,C38*%
X137430000Y-123335000D03*
X137430000Y-124335000D03*
%TD*%
D30*
%TO.C,U6*%
X130085000Y-118475000D03*
X130085000Y-119745000D03*
X130085000Y-121015000D03*
X130085000Y-122285000D03*
X135025000Y-122285000D03*
X135025000Y-121015000D03*
X135025000Y-119745000D03*
X135025000Y-118475000D03*
%TD*%
D18*
%TO.C,C47*%
X135200000Y-128900000D03*
X136200000Y-128900000D03*
%TD*%
%TO.C,C35*%
X135535000Y-113550000D03*
X136535000Y-113550000D03*
%TD*%
D20*
%TO.C,R9*%
X139850000Y-75750000D03*
X138850000Y-75750000D03*
%TD*%
%TO.C,C17*%
X128400000Y-81950000D03*
X127400000Y-81950000D03*
%TD*%
D31*
%TO.C,SW2*%
X129550000Y-66200000D03*
X126250000Y-66200000D03*
%TD*%
D32*
%TO.C,U2*%
X125850000Y-100787500D03*
X126500000Y-100787500D03*
X127150000Y-100787500D03*
X127150000Y-99012500D03*
X126500000Y-99012500D03*
X125850000Y-99012500D03*
D33*
X126500000Y-99900000D03*
%TD*%
D18*
%TO.C,C40*%
X131325000Y-110900000D03*
X132325000Y-110900000D03*
%TD*%
D24*
%TO.C,H4*%
X151200000Y-56600000D03*
X151683274Y-55433274D03*
X151683274Y-57766726D03*
X152850000Y-54950000D03*
D25*
X152850000Y-56600000D03*
D24*
X152850000Y-58250000D03*
X154016726Y-55433274D03*
X154016726Y-57766726D03*
X154500000Y-56600000D03*
%TD*%
D22*
%TO.C,C19*%
X137100000Y-85650000D03*
X137100000Y-86650000D03*
%TD*%
%TO.C,C33*%
X128425000Y-102700000D03*
X128425000Y-103700000D03*
%TD*%
%TO.C,C1*%
X141000000Y-67850000D03*
X141000000Y-68850000D03*
%TD*%
D34*
%TO.C,H1*%
X149100000Y-56300000D03*
%TD*%
D24*
%TO.C,H3*%
X123375000Y-56600000D03*
X123858274Y-55433274D03*
X123858274Y-57766726D03*
X125025000Y-54950000D03*
D25*
X125025000Y-56600000D03*
D24*
X125025000Y-58250000D03*
X126191726Y-55433274D03*
X126191726Y-57766726D03*
X126675000Y-56600000D03*
%TD*%
D35*
%TO.C,FB1*%
X137365000Y-111350000D03*
X135785000Y-111350000D03*
%TD*%
D36*
%TO.C,U4*%
X130300000Y-77950000D03*
X130300000Y-78350000D03*
X130300000Y-78750000D03*
X130300000Y-79150000D03*
X130300000Y-79550000D03*
X130300000Y-79950000D03*
X130300000Y-80350000D03*
X130300000Y-80750000D03*
X130300000Y-81150000D03*
X130300000Y-81550000D03*
X130300000Y-81950000D03*
X130300000Y-82350000D03*
X130300000Y-82750000D03*
X130300000Y-83150000D03*
X130300000Y-83550000D03*
D37*
X130950000Y-84200000D03*
X131350000Y-84200000D03*
X131750000Y-84200000D03*
X132150000Y-84200000D03*
X132550000Y-84200000D03*
X132950000Y-84200000D03*
X133350000Y-84200000D03*
X133750000Y-84200000D03*
X134150000Y-84200000D03*
X134550000Y-84200000D03*
X134950000Y-84200000D03*
X135350000Y-84200000D03*
X135750000Y-84200000D03*
X136150000Y-84200000D03*
X136550000Y-84200000D03*
D36*
X137200000Y-83550000D03*
X137200000Y-83150000D03*
X137200000Y-82750000D03*
X137200000Y-82350000D03*
X137200000Y-81950000D03*
X137200000Y-81550000D03*
X137200000Y-81150000D03*
X137200000Y-80750000D03*
X137200000Y-80350000D03*
X137200000Y-79950000D03*
X137200000Y-79550000D03*
X137200000Y-79150000D03*
X137200000Y-78750000D03*
X137200000Y-78350000D03*
X137200000Y-77950000D03*
D37*
X136550000Y-77300000D03*
X136150000Y-77300000D03*
X135750000Y-77300000D03*
X135350000Y-77300000D03*
X134950000Y-77300000D03*
X134550000Y-77300000D03*
X134150000Y-77300000D03*
X133750000Y-77300000D03*
X133350000Y-77300000D03*
X132950000Y-77300000D03*
X132550000Y-77300000D03*
X132150000Y-77300000D03*
X131750000Y-77300000D03*
X131350000Y-77300000D03*
X130950000Y-77300000D03*
D38*
X133750000Y-80750000D03*
%TD*%
D23*
%TO.C,R12*%
X137050000Y-88650000D03*
X137050000Y-87650000D03*
%TD*%
D18*
%TO.C,C37*%
X129300000Y-124680000D03*
X130300000Y-124680000D03*
%TD*%
D20*
%TO.C,C16*%
X128350000Y-77900000D03*
X127350000Y-77900000D03*
%TD*%
D23*
%TO.C,C18*%
X128700000Y-84400000D03*
X128700000Y-83400000D03*
%TD*%
D39*
%TO.C,R11*%
X132550000Y-73520000D03*
X132550000Y-71880000D03*
%TD*%
D24*
%TO.C,H6*%
X151200000Y-143700000D03*
X151683274Y-142533274D03*
X151683274Y-144866726D03*
X152850000Y-142050000D03*
D25*
X152850000Y-143700000D03*
D24*
X152850000Y-145350000D03*
X154016726Y-142533274D03*
X154016726Y-144866726D03*
X154500000Y-143700000D03*
%TD*%
D40*
%TO.C,VR1*%
X148050000Y-136900000D03*
D41*
X145550000Y-136900000D03*
X148050000Y-66900000D03*
D40*
X153050000Y-136900000D03*
D41*
X150550000Y-136900000D03*
X153050000Y-66900000D03*
D42*
X149300000Y-126900000D03*
X149300000Y-79400000D03*
%TD*%
D43*
%TO.C,C11*%
X146819153Y-57400000D03*
X145259153Y-57400000D03*
%TD*%
D18*
%TO.C,C7*%
X149539153Y-60400000D03*
X150539153Y-60400000D03*
%TD*%
%TO.C,C42*%
X135200000Y-131550000D03*
X136200000Y-131550000D03*
%TD*%
%TO.C,C36*%
X129300000Y-123780000D03*
X130300000Y-123780000D03*
%TD*%
D22*
%TO.C,R17*%
X137430000Y-121335000D03*
X137430000Y-122335000D03*
%TD*%
D20*
%TO.C,C12*%
X128350000Y-79950000D03*
X127350000Y-79950000D03*
%TD*%
D22*
%TO.C,C45*%
X126300000Y-131350000D03*
X126300000Y-132350000D03*
%TD*%
D44*
%TO.C,U7*%
X130700000Y-109125000D03*
X131350000Y-109125000D03*
X132000000Y-109125000D03*
X132650000Y-109125000D03*
X133300000Y-109125000D03*
X133950000Y-109125000D03*
X134600000Y-109125000D03*
X135250000Y-109125000D03*
X135900000Y-109125000D03*
X136550000Y-109125000D03*
X136550000Y-103400000D03*
X135900000Y-103400000D03*
X135250000Y-103400000D03*
X134600000Y-103400000D03*
X133950000Y-103400000D03*
X133300000Y-103400000D03*
X132650000Y-103400000D03*
X132000000Y-103400000D03*
X131350000Y-103400000D03*
X130700000Y-103400000D03*
%TD*%
D22*
%TO.C,R19*%
X129800000Y-133750000D03*
X129800000Y-134750000D03*
%TD*%
D18*
%TO.C,R4*%
X148588928Y-61299775D03*
X149588928Y-61299775D03*
%TD*%
%TO.C,C41*%
X135200000Y-130600000D03*
X136200000Y-130600000D03*
%TD*%
D23*
%TO.C,C9*%
X142908928Y-60799775D03*
X142908928Y-59799775D03*
%TD*%
D18*
%TO.C,C34*%
X135535000Y-112650000D03*
X136535000Y-112650000D03*
%TD*%
%TO.C,R8*%
X129450000Y-75250000D03*
X130450000Y-75250000D03*
%TD*%
D32*
%TO.C,U1*%
X138450000Y-69712500D03*
X139100000Y-69712500D03*
X139750000Y-69712500D03*
X139750000Y-67937500D03*
X139100000Y-67937500D03*
X138450000Y-67937500D03*
D33*
X139100000Y-68825000D03*
%TD*%
D45*
%TO.C,U5*%
X130500000Y-89750000D03*
X132700000Y-89750000D03*
X132700000Y-88050000D03*
X130500000Y-88050000D03*
%TD*%
D23*
%TO.C,C39*%
X126730000Y-121130000D03*
X126730000Y-120130000D03*
%TD*%
D20*
%TO.C,R2*%
X129600000Y-61600000D03*
X128600000Y-61600000D03*
%TD*%
D46*
%TO.C,C24*%
X135240000Y-75400000D03*
X136800000Y-75400000D03*
%TD*%
D18*
%TO.C,R13*%
X132200000Y-86550000D03*
X133200000Y-86550000D03*
%TD*%
D47*
%TO.C,C6*%
X141639153Y-62120000D03*
X141639153Y-63680000D03*
%TD*%
D22*
%TO.C,C32*%
X129525000Y-109900000D03*
X129525000Y-110900000D03*
%TD*%
D23*
%TO.C,R18*%
X128850000Y-134750000D03*
X128850000Y-133750000D03*
%TD*%
%TO.C,C8*%
X140788928Y-60809775D03*
X140788928Y-59809775D03*
%TD*%
D34*
%TO.C,H2*%
X129000000Y-145100000D03*
%TD*%
D48*
%TO.C,F1*%
X136600000Y-63450000D03*
X136600000Y-64950000D03*
%TD*%
D22*
%TO.C,C29*%
X134350000Y-89150000D03*
X134350000Y-90150000D03*
%TD*%
D39*
%TO.C,R10*%
X131150000Y-73500000D03*
X131150000Y-71860000D03*
%TD*%
D23*
%TO.C,R21*%
X129800000Y-128750000D03*
X129800000Y-127750000D03*
%TD*%
D22*
%TO.C,R16*%
X127880000Y-120130000D03*
X127880000Y-121130000D03*
%TD*%
%TO.C,R20*%
X128850000Y-127750000D03*
X128850000Y-128750000D03*
%TD*%
D18*
%TO.C,C22*%
X138750000Y-77350000D03*
X139750000Y-77350000D03*
%TD*%
D31*
%TO.C,SW1*%
X129550000Y-70900000D03*
X126250000Y-70900000D03*
%TD*%
D18*
%TO.C,C2*%
X138600000Y-71350000D03*
X139600000Y-71350000D03*
%TD*%
D49*
%TO.C,U3*%
X146678928Y-61529775D03*
X146678928Y-61029775D03*
X146678928Y-60529775D03*
X146678928Y-60029775D03*
X146678928Y-59529775D03*
X146678928Y-59029775D03*
X144778928Y-59029775D03*
X144778928Y-59529775D03*
X144778928Y-60029775D03*
X144778928Y-60529775D03*
X144778928Y-61029775D03*
X144778928Y-61529775D03*
D50*
X145728928Y-60279775D03*
%TD*%
D46*
%TO.C,C25*%
X135240000Y-74050000D03*
X136800000Y-74050000D03*
%TD*%
D22*
%TO.C,C13*%
X134340000Y-86950000D03*
X134340000Y-87950000D03*
%TD*%
D20*
%TO.C,C15*%
X132650000Y-75250000D03*
X131650000Y-75250000D03*
%TD*%
D23*
%TO.C,C23*%
X138750000Y-74750000D03*
X138750000Y-73750000D03*
%TD*%
D18*
%TO.C,C46*%
X135200000Y-128000000D03*
X136200000Y-128000000D03*
%TD*%
D22*
%TO.C,R5*%
X141668928Y-59809775D03*
X141668928Y-60809775D03*
%TD*%
D20*
%TO.C,R22*%
X127300000Y-130450000D03*
X126300000Y-130450000D03*
%TD*%
D51*
%TO.C,J1*%
X136940000Y-59350000D03*
X131160000Y-59350000D03*
D52*
X135300000Y-60550000D03*
X134300000Y-60550000D03*
X133800000Y-60550000D03*
X132800000Y-60550000D03*
D53*
X131650000Y-60550000D03*
X130850000Y-60550000D03*
D52*
X132300000Y-60550000D03*
X133300000Y-60550000D03*
X134800000Y-60550000D03*
X135800000Y-60550000D03*
D53*
X136450000Y-60550000D03*
X137250000Y-60550000D03*
D54*
X138380000Y-59870000D03*
D55*
X138380000Y-55670000D03*
D56*
X136050000Y-57050000D03*
X136050000Y-55050000D03*
D57*
X134050000Y-56050000D03*
D56*
X132050000Y-57050000D03*
X132050000Y-55050000D03*
D54*
X129720000Y-59870000D03*
D55*
X129720000Y-55670000D03*
%TD*%
%LPD*%
M02*
