M48
; DRILL file KiCad 10.0.2 date 2026-05-13T13:37:37
; FORMAT={-:-/ absolute / inch / decimal}
; #@! TF.CreationDate,2026-05-13T13:37:37+08:00
; #@! TF.GenerationSoftware,Kicad,Pcbnew,10.0.2
; #@! TF.FileFunction,Plated,1,4,PTH
FMAT,2
INCH
; #@! TA.AperFunction,Plated,PTH,ViaDrill
T1C0.0118
; #@! TA.AperFunction,Plated,PTH,ComponentDrill
T2C0.0118
; #@! TA.AperFunction,Plated,PTH,ComponentDrill
T3C0.0197
; #@! TA.AperFunction,Plated,PTH,ComponentDrill
T4C0.0236
; #@! TA.AperFunction,Plated,PTH,ComponentDrill
T5C0.0472
; #@! TA.AperFunction,Plated,PTH,ComponentDrill
T6C0.0551
%
G90
G05
T1
X4.6555Y-3.2146
X4.6555Y-3.2382
X4.6555Y-3.2618
X4.6555Y-3.2854
X4.6555Y-3.3091
X4.6555Y-3.3327
X4.6555Y-3.3563
X4.6555Y-3.3799
X4.6555Y-3.4035
X4.6555Y-3.4272
X4.6555Y-3.4508
X4.6555Y-3.4744
X4.6555Y-3.498
X4.6555Y-3.5217
X4.6555Y-3.5453
X4.6555Y-3.5689
X4.6555Y-3.5925
X4.6555Y-3.6161
X4.6555Y-3.6398
X4.6555Y-3.6634
X4.6555Y-3.687
X4.6555Y-3.7106
X4.6555Y-3.7343
X4.6555Y-3.7579
X4.6555Y-3.7815
X4.6555Y-3.8051
X4.6555Y-3.8287
X4.6555Y-3.8524
X4.6555Y-3.876
X4.6555Y-3.8996
X4.6555Y-3.9232
X4.6555Y-3.9469
X4.6555Y-3.9705
X4.6555Y-3.9941
X4.6555Y-4.0177
X4.6555Y-4.0413
X4.6555Y-4.065
X4.6555Y-4.0886
X4.6555Y-4.1122
X4.6555Y-4.1358
X4.6555Y-4.1594
X4.6555Y-4.1831
X4.6555Y-4.2067
X4.6555Y-4.2303
X4.6555Y-4.2539
X4.6555Y-4.2776
X4.6555Y-4.3012
X4.6555Y-4.3248
X4.6555Y-4.3484
X4.6555Y-4.372
X4.6555Y-4.3957
X4.6555Y-4.4193
X4.6555Y-4.4429
X4.6555Y-4.4665
X4.6555Y-4.4902
X4.6555Y-4.5138
X4.6555Y-4.5374
X4.6555Y-4.561
X4.6555Y-4.5846
X4.6555Y-4.6083
X4.6555Y-4.6319
X4.6555Y-4.6555
X4.6555Y-4.6791
X4.6791Y-3.2146
X4.6791Y-4.6791
X4.6949Y-4.3406
X4.6949Y-4.372
X4.7028Y-3.2146
X4.7028Y-4.6791
X4.7264Y-3.2146
X4.7264Y-4.6791
X4.75Y-3.2146
X4.75Y-4.6791
X4.7579Y-4.2067
X4.7579Y-4.2382
X4.7736Y-4.6791
X4.7894Y-3.6555
X4.7972Y-4.6791
X4.813Y-3.5374
X4.8209Y-4.6791
X4.8327Y-4.4665
X4.8445Y-4.6791
X4.8602Y-4.2854
X4.8642Y-4.4665
X4.8681Y-4.6791
X4.8839Y-4.1988
X4.8917Y-4.6791
X4.8957Y-4.0492
X4.8957Y-4.1433
X4.8957Y-4.4665
X4.9075Y-4.0098
X4.9154Y-4.6791
X4.9272Y-4.4665
X4.939Y-4.6791
X4.9427Y-3.8561
X4.9566Y-4.3996
X4.9626Y-4.6791
X4.9862Y-4.6791
X5.0098Y-4.6791
X5.0177Y-3.7343
X5.0335Y-4.372
X5.0335Y-4.6791
X5.0571Y-4.6791
X5.0728Y-3.6634
X5.0807Y-4.6791
X5.0866Y-3.7874
X5.0866Y-3.8268
X5.0866Y-3.8661
X5.1043Y-4.6791
X5.128Y-4.6791
X5.1313Y-4.3588
X5.1319Y-4.3972
X5.1516Y-4.6791
X5.1673Y-3.2146
X5.1713Y-4.5413
X5.1752Y-3.687
X5.1752Y-4.6791
X5.1791Y-4.3445
X5.1791Y-4.3874
X5.1909Y-3.2146
X5.1909Y-3.5138
X5.1988Y-4.6791
X5.2146Y-3.2146
X5.2224Y-4.6791
X5.2264Y-3.2972
X5.2283Y-3.8661
X5.2283Y-3.8898
X5.2283Y-3.9134
X5.2303Y-4.4429
X5.2342Y-4.0138
X5.2382Y-3.2146
X5.2461Y-4.6791
X5.2539Y-3.5768
X5.2539Y-3.6083
X5.2539Y-3.6398
X5.2539Y-4.5217
X5.2604Y-4.1048
X5.2618Y-3.2146
X5.2697Y-4.6791
X5.2776Y-4.1831
X5.2854Y-3.2146
X5.2933Y-3.9075
X5.2933Y-4.6791
X5.2937Y-4.0214
X5.3012Y-3.5571
X5.3091Y-3.2146
X5.3169Y-4.6791
X5.318Y-3.4644
X5.3268Y-3.6358
X5.3327Y-3.2146
X5.3346Y-3.3747
X5.3406Y-4.6791
X5.3524Y-3.7146
X5.3563Y-3.2146
X5.3563Y-3.2933
X5.3632Y-4.3268
X5.3642Y-4.6791
X5.3799Y-3.2146
X5.3878Y-4.6791
X5.4035Y-3.2146
X5.4055Y-3.2677
X5.4114Y-4.6791
X5.4272Y-3.2146
X5.4332Y-4.26
X5.435Y-3.5689
X5.435Y-4.6791
X5.4488Y-3.6339
X5.4508Y-3.2146
X5.4542Y-3.9124
X5.4587Y-4.6791
X5.4592Y-3.3572
X5.4744Y-3.2146
X5.4823Y-4.6791
X5.4847Y-4.0236
X5.4954Y-3.4652
X5.498Y-3.2146
X5.498Y-3.9626
X5.5059Y-4.6791
X5.5217Y-3.2146
X5.5236Y-3.5748
X5.5295Y-4.6791
X5.532Y-3.9921
X5.532Y-4.0472
X5.5377Y-3.9611
X5.5453Y-3.2146
X5.5531Y-4.6791
X5.5689Y-3.2146
X5.5689Y-3.9154
X5.5714Y-4.0236
X5.5726Y-3.7014
X5.5768Y-4.6791
X5.5925Y-3.2146
X5.6004Y-4.6791
X5.6029Y-3.6693
X5.6161Y-3.2146
X5.624Y-4.6791
X5.6319Y-4.3169
X5.6398Y-3.2146
X5.6476Y-4.6791
X5.6634Y-3.2146
X5.6693Y-4.374
X5.6713Y-4.6791
X5.687Y-3.2146
X5.687Y-3.7106
X5.687Y-3.7441
X5.6949Y-4.6791
X5.7106Y-3.2146
X5.7185Y-4.6791
X5.7264Y-3.7343
X5.7264Y-4.3484
X5.7343Y-3.2146
X5.7421Y-4.6791
X5.749Y-4.0517
X5.7512Y-4.1521
X5.7579Y-3.2146
X5.7657Y-4.6791
X5.7657Y-4.5984
X5.7735Y-3.6634
X5.7736Y-4.3169
X5.7759Y-4.3808
X5.7815Y-3.2146
X5.7894Y-4.6791
X5.8051Y-3.2146
X5.813Y-4.6791
X5.8287Y-3.2146
X5.8366Y-4.6791
X5.8524Y-3.2146
X5.8602Y-4.6791
X5.8615Y-3.8365
X5.876Y-3.2146
X5.8839Y-4.6791
X5.8996Y-3.2146
X5.9075Y-4.6791
X5.9144Y-4.1777
X5.9232Y-3.2146
X5.9271Y-4.0768
X5.9311Y-4.6791
X5.9469Y-3.2146
X5.9508Y-4.172
X5.9547Y-4.6791
X5.9551Y-4.1408
X5.9705Y-3.2146
X5.9783Y-4.6791
X5.9941Y-3.2146
X5.9961Y-4.1176
X5.9971Y-4.1525
X6.002Y-4.6791
X6.0177Y-3.2146
X6.0256Y-4.6791
X6.0307Y-4.1528
X6.0319Y-4.1182
X6.0413Y-3.2146
X6.0492Y-4.6791
X6.065Y-3.2146
X6.0665Y-3.6543
X6.0728Y-3.9843
X6.0728Y-4.6791
X6.0748Y-3.6988
X6.0787Y-3.7736
X6.0831Y-4.0886
X6.0886Y-3.2146
X6.0965Y-4.6791
X6.0998Y-4.0601
X6.1043Y-3.8445
X6.1052Y-3.6287
X6.1122Y-3.2146
X6.1201Y-4.6791
X6.1358Y-3.2146
X6.1358Y-4.002
X6.1358Y-4.128
X6.1594Y-3.2146
X6.1831Y-3.2146
X6.1831Y-3.876
X6.2067Y-3.2146
X6.2146Y-3.6319
X6.2303Y-3.2146
X6.2539Y-3.2146
X6.2618Y-4.1673
X6.2776Y-3.2146
X6.3012Y-3.2146
X6.3201Y-3.739
X6.3248Y-3.2146
X6.3484Y-3.2146
X6.3484Y-4.1752
X6.3488Y-4.0533
X6.3524Y-3.8406
X6.3563Y-3.6555
X6.372Y-3.2146
X6.3766Y-3.7067
X6.378Y-3.7972
X6.3878Y-3.9941
X6.3957Y-3.2146
X6.4114Y-3.939
X6.4193Y-3.2146
X6.4429Y-3.2146
X6.4429Y-4.6791
X6.4665Y-3.2146
X6.4665Y-4.6791
X6.4902Y-3.2146
X6.4902Y-4.6791
X6.5138Y-3.2146
X6.5138Y-4.6791
X6.5374Y-3.2146
X6.561Y-3.2146
X6.5846Y-3.2146
X6.6083Y-3.2146
X6.6319Y-3.2146
X6.6555Y-3.2146
X6.6719Y-3.3465
X6.6719Y-3.4567
X6.6758Y-3.5787
X6.6774Y-3.7008
X6.6791Y-3.2146
X6.7028Y-3.2146
X6.7264Y-3.2146
X6.75Y-3.2146
X6.7736Y-3.2146
X6.7972Y-3.2146
X6.8209Y-3.2146
X6.8445Y-3.2146
X6.8681Y-3.2146
X6.8701Y-3.3642
X6.8917Y-3.2146
X6.9154Y-3.2146
X6.9154Y-4.6791
X6.939Y-3.2146
X6.939Y-4.6791
X6.9626Y-3.2146
X6.9626Y-4.6791
X6.9862Y-3.2146
X6.9862Y-4.6791
X7.0098Y-3.2146
X7.0098Y-3.2382
X7.0098Y-3.2618
X7.0098Y-3.2854
X7.0098Y-3.3091
X7.0098Y-3.3327
X7.0098Y-3.3563
X7.0098Y-3.3799
X7.0098Y-3.4035
X7.0098Y-3.4272
X7.0098Y-3.4508
X7.0098Y-3.4744
X7.0098Y-3.498
X7.0098Y-3.5217
X7.0098Y-3.5453
X7.0098Y-3.5689
X7.0098Y-3.5925
X7.0098Y-3.6161
X7.0098Y-3.6398
X7.0098Y-3.6634
X7.0098Y-3.687
X7.0098Y-3.7106
X7.0098Y-3.7343
X7.0098Y-3.7579
X7.0098Y-3.7815
X7.0098Y-3.8051
X7.0098Y-3.8287
X7.0098Y-3.8524
X7.0098Y-3.876
X7.0098Y-3.8996
X7.0098Y-3.9232
X7.0098Y-3.9469
X7.0098Y-3.9705
X7.0098Y-3.9941
X7.0098Y-4.0177
X7.0098Y-4.0413
X7.0098Y-4.065
X7.0098Y-4.0886
X7.0098Y-4.1122
X7.0098Y-4.1358
X7.0098Y-4.1594
X7.0098Y-4.1831
X7.0098Y-4.2067
X7.0098Y-4.2303
X7.0098Y-4.2539
X7.0098Y-4.2776
X7.0098Y-4.3012
X7.0098Y-4.3248
X7.0098Y-4.3484
X7.0098Y-4.372
X7.0098Y-4.3957
X7.0098Y-4.4193
X7.0098Y-4.4429
X7.0098Y-4.4665
X7.0098Y-4.4902
X7.0098Y-4.5138
X7.0098Y-4.5374
X7.0098Y-4.561
X7.0098Y-4.5846
X7.0098Y-4.6083
X7.0098Y-4.6319
X7.0098Y-4.6555
X7.0098Y-4.6791
T2
X4.8839Y-3.2618
X4.8839Y-3.3406
X5.0315Y-4.1102
X5.0315Y-4.1673
X5.0315Y-4.2244
X5.0413Y-3.2618
X5.0413Y-3.3406
X5.0886Y-4.1102
X5.0886Y-4.1673
X5.0886Y-4.2244
X5.1457Y-4.1102
X5.1457Y-4.1673
X5.1457Y-4.2244
X5.1752Y-3.5571
X5.1752Y-3.6004
X5.372Y-3.435
X5.3898Y-3.6122
X5.3898Y-3.6555
X5.4104Y-4.437
X5.4114Y-3.435
X5.4419Y-4.4055
X5.4419Y-4.437
X5.4419Y-4.4685
X5.4508Y-3.435
X5.4734Y-4.437
X5.5256Y-3.7992
X5.5256Y-3.8287
X5.5256Y-3.8583
X5.5531Y-3.7992
X5.5531Y-3.8287
X5.5531Y-3.8583
X5.6969Y-4.4596
X5.6969Y-4.499
X5.7264Y-4.4793
X5.7559Y-4.4596
X5.7559Y-4.499
X5.7815Y-3.7421
X5.7815Y-3.7697
X5.8012Y-4.1137
X5.8012Y-4.1412
X5.811Y-3.7421
X5.811Y-3.7697
X5.8307Y-4.1137
X5.8307Y-4.1412
X5.8406Y-3.7421
X5.8406Y-3.7697
X5.8602Y-4.1137
X5.8602Y-4.1412
X6.1929Y-3.7067
X6.1929Y-3.7657
X6.2126Y-3.7362
X6.2165Y-4.0295
X6.2165Y-4.0886
X6.2323Y-3.7067
X6.2323Y-3.7657
X6.2362Y-4.0591
X6.2559Y-4.0295
X6.2559Y-4.0886
T5
X6.6555Y-4.1752
X6.7165Y-4.4705
T6
X6.2795Y-4.3256
X6.2795Y-4.6004
T3
G00X4.7921Y-3.302
M15
G01X4.7921Y-3.2705
M16
G05
G00X4.7921Y-3.4732
M15
G01X4.7921Y-3.4299
M16
G05
G00X5.1331Y-3.302
M15
G01X5.1331Y-3.2705
M16
G05
G00X5.1331Y-3.4732
M15
G01X5.1331Y-3.4299
M16
G05
T4
G00X6.1614Y-4.5
M15
G01X6.1614Y-4.4724
M16
G05
G00X6.1614Y-4.6102
M15
G01X6.1614Y-4.5827
M16
G05
G00X6.1693Y-4.2756
M15
G01X6.1693Y-4.248
M16
G05
G00X6.2244Y-4.2756
M15
G01X6.2244Y-4.248
M16
G05
G00X6.3425Y-4.2756
M15
G01X6.3425Y-4.248
M16
G05
G00X6.3858Y-4.3583
M15
G01X6.3858Y-4.3307
M16
G05
G00X6.4094Y-4.5827
M15
G01X6.4094Y-4.5551
M16
G05
G00X6.5571Y-4.2598
M15
G01X6.5571Y-4.2283
M16
G05
G00X6.5807Y-4.0728
M15
G01X6.5807Y-4.0413
M16
G05
G00X6.5886Y-4.4075
M15
G01X6.5886Y-4.376
M16
G05
G00X6.5886Y-4.5138
M15
G01X6.5886Y-4.4823
M16
G05
G00X6.5886Y-4.6201
M15
G01X6.5886Y-4.5886
M16
G05
G00X6.6398Y-4.0728
M15
G01X6.6398Y-4.0413
M16
G05
G00X6.7795Y-4.0728
M15
G01X6.7795Y-4.0413
M16
G05
G00X6.8445Y-4.3878
M15
G01X6.8445Y-4.3563
M16
G05
G00X6.8445Y-4.4941
M15
G01X6.8445Y-4.4626
M16
G05
G00X6.8445Y-4.6004
M15
G01X6.8445Y-4.5689
M16
G05
G00X6.8524Y-4.0728
M15
G01X6.8524Y-4.0413
M16
G05
G00X6.876Y-4.2598
M15
G01X6.876Y-4.2283
M16
G05
M30
