M48
; DRILL file KiCad 10.0.1 date 2026-05-12T22:33:51
; FORMAT={-:-/ absolute / inch / decimal}
; #@! TF.CreationDate,2026-05-12T22:33:51+08:00
; #@! TF.GenerationSoftware,Kicad,Pcbnew,10.0.1
; #@! TF.FileFunction,Plated,1,4,PTH
FMAT,2
INCH
; #@! TA.AperFunction,Plated,PTH,ComponentDrill
T1C0.0079
; #@! TA.AperFunction,Plated,PTH,ViaDrill
T2C0.0118
; #@! TA.AperFunction,Plated,PTH,ComponentDrill
T3C0.0118
; #@! TA.AperFunction,Plated,PTH,ComponentDrill
T4C0.0197
; #@! TA.AperFunction,Plated,PTH,ComponentDrill
T5C0.0236
; #@! TA.AperFunction,Plated,PTH,ComponentDrill
T6C0.0472
; #@! TA.AperFunction,Plated,PTH,ComponentDrill
T7C0.0551
%
G90
G05
T1
X6.9685Y-2.185
X6.9685Y-2.2283
X7.1831Y-2.2402
X7.1831Y-2.2835
T2
X6.4488Y-1.8425
X6.4488Y-1.8661
X6.4488Y-1.8898
X6.4488Y-1.9134
X6.4488Y-1.937
X6.4488Y-1.9606
X6.4488Y-1.9843
X6.4488Y-2.0079
X6.4488Y-2.0315
X6.4488Y-2.0551
X6.4488Y-2.0787
X6.4488Y-2.1024
X6.4488Y-2.126
X6.4488Y-2.1496
X6.4488Y-2.1732
X6.4488Y-2.1969
X6.4488Y-2.2205
X6.4488Y-2.2441
X6.4488Y-2.2677
X6.4488Y-2.2913
X6.4488Y-2.315
X6.4488Y-2.3386
X6.4488Y-2.3622
X6.4488Y-2.3858
X6.4488Y-2.4094
X6.4488Y-2.4331
X6.4488Y-2.4567
X6.4488Y-2.4803
X6.4488Y-2.5039
X6.4488Y-2.5276
X6.4488Y-2.5512
X6.4488Y-2.5748
X6.4488Y-2.5984
X6.4488Y-2.622
X6.4488Y-2.6457
X6.4488Y-2.6693
X6.4488Y-2.6929
X6.4488Y-2.7165
X6.4488Y-2.7402
X6.4488Y-2.7638
X6.4488Y-2.7874
X6.4488Y-2.811
X6.4488Y-2.8346
X6.4488Y-2.8583
X6.4488Y-2.8819
X6.4488Y-2.9055
X6.4488Y-2.9291
X6.4488Y-2.9528
X6.4488Y-2.9764
X6.4488Y-3.0
X6.4488Y-3.0236
X6.4488Y-3.0472
X6.4488Y-3.0709
X6.4488Y-3.0945
X6.4488Y-3.1181
X6.4488Y-3.1417
X6.4488Y-3.1654
X6.4488Y-3.189
X6.4488Y-3.2126
X6.4488Y-3.2362
X6.4488Y-3.2598
X6.4488Y-3.2835
X6.4488Y-3.3071
X6.4724Y-1.8425
X6.4724Y-3.3071
X6.4882Y-2.9685
X6.4882Y-3.0
X6.4961Y-1.8425
X6.4961Y-3.3071
X6.5197Y-1.8425
X6.5197Y-3.3071
X6.5433Y-1.8425
X6.5433Y-3.3071
X6.5512Y-2.8346
X6.5512Y-2.8661
X6.5669Y-3.3071
X6.5827Y-2.2835
X6.5906Y-3.3071
X6.6063Y-2.1654
X6.6142Y-3.3071
X6.626Y-3.0945
X6.6378Y-3.3071
X6.6535Y-2.9134
X6.6575Y-3.0945
X6.6614Y-3.3071
X6.6772Y-2.8268
X6.685Y-3.3071
X6.689Y-2.6772
X6.689Y-2.7713
X6.689Y-3.0945
X6.7008Y-2.6378
X6.7087Y-3.3071
X6.7205Y-3.0945
X6.7323Y-3.3071
X6.736Y-2.4841
X6.7499Y-3.0276
X6.7559Y-3.3071
X6.7795Y-3.3071
X6.8031Y-3.3071
X6.811Y-2.3622
X6.8268Y-3.0
X6.8268Y-3.3071
X6.8504Y-3.3071
X6.8661Y-2.2913
X6.874Y-3.3071
X6.8799Y-2.4154
X6.8799Y-2.4547
X6.8799Y-2.4941
X6.8976Y-3.3071
X6.9213Y-3.3071
X6.9246Y-2.9868
X6.9252Y-3.0252
X6.9449Y-3.3071
X6.9606Y-1.8425
X6.9646Y-3.1693
X6.9685Y-2.315
X6.9685Y-3.3071
X6.9724Y-2.9724
X6.9724Y-3.0153
X6.9843Y-1.8425
X6.9843Y-2.1417
X6.9921Y-3.3071
X7.0079Y-1.8425
X7.0157Y-3.3071
X7.0217Y-2.4941
X7.0217Y-2.5177
X7.0217Y-2.5413
X7.0236Y-3.0709
X7.0275Y-2.6417
X7.0315Y-1.8425
X7.0394Y-3.3071
X7.0472Y-2.2047
X7.0472Y-2.2362
X7.0472Y-2.2677
X7.0472Y-3.1496
X7.0537Y-2.7327
X7.0551Y-1.8425
X7.063Y-3.3071
X7.0709Y-2.811
X7.0787Y-1.8425
X7.0866Y-2.5354
X7.0866Y-3.3071
X7.087Y-2.6493
X7.0945Y-2.185
X7.1024Y-1.8425
X7.1102Y-3.3071
X7.1113Y-2.0924
X7.1181Y-2.0118
X7.1201Y-2.2638
X7.126Y-1.8425
X7.1339Y-3.3071
X7.1457Y-2.3425
X7.1496Y-1.8425
X7.1496Y-1.9213
X7.1496Y-2.0026
X7.1565Y-2.9547
X7.1575Y-3.3071
X7.1732Y-1.8425
X7.1811Y-3.3071
X7.1969Y-1.8425
X7.1988Y-1.8957
X7.2047Y-3.3071
X7.2205Y-1.8425
X7.2265Y-2.8879
X7.2283Y-2.1969
X7.2283Y-3.3071
X7.2421Y-2.2618
X7.2441Y-1.8425
X7.2475Y-2.5404
X7.252Y-3.3071
X7.2525Y-1.9851
X7.2677Y-1.8425
X7.2756Y-3.3071
X7.2781Y-2.6516
X7.2887Y-2.0932
X7.2913Y-1.8425
X7.2913Y-2.5906
X7.2992Y-3.3071
X7.315Y-1.8425
X7.3169Y-2.2028
X7.3228Y-3.3071
X7.3253Y-2.6201
X7.3253Y-2.6752
X7.331Y-2.5891
X7.3386Y-1.8425
X7.3465Y-3.3071
X7.3622Y-1.8425
X7.3622Y-2.3465
X7.3622Y-2.5433
X7.3647Y-2.6516
X7.3701Y-3.3071
X7.3858Y-1.8425
X7.3937Y-3.3071
X7.3962Y-2.3465
X7.4094Y-1.8425
X7.4173Y-3.3071
X7.4252Y-2.9449
X7.4331Y-1.8425
X7.4409Y-3.3071
X7.4567Y-1.8425
X7.4626Y-3.002
X7.4646Y-3.3071
X7.4803Y-1.8425
X7.4803Y-2.3386
X7.4803Y-2.3701
X7.4882Y-3.3071
X7.5039Y-1.8425
X7.5118Y-3.3071
X7.5197Y-2.3622
X7.5197Y-2.9764
X7.5276Y-1.8425
X7.5354Y-3.3071
X7.5424Y-2.6797
X7.5445Y-2.78
X7.5512Y-1.8425
X7.5591Y-3.3071
X7.5591Y-3.2264
X7.5668Y-2.2913
X7.5669Y-2.9449
X7.5692Y-3.0087
X7.5748Y-1.8425
X7.5827Y-3.3071
X7.5984Y-1.8425
X7.6063Y-3.3071
X7.622Y-1.8425
X7.6299Y-3.3071
X7.6457Y-1.8425
X7.6535Y-3.3071
X7.6548Y-2.4644
X7.6693Y-1.8425
X7.6772Y-3.3071
X7.6929Y-1.8425
X7.7008Y-3.3071
X7.7077Y-2.8056
X7.7165Y-1.8425
X7.7204Y-2.7047
X7.7244Y-3.3071
X7.7402Y-1.8425
X7.7441Y-2.8
X7.748Y-3.3071
X7.7484Y-2.7688
X7.7638Y-1.8425
X7.7717Y-3.3071
X7.7874Y-1.8425
X7.7894Y-2.7456
X7.7904Y-2.7805
X7.7953Y-3.3071
X7.811Y-1.8425
X7.8189Y-3.3071
X7.824Y-2.7807
X7.8252Y-2.7461
X7.8346Y-1.8425
X7.8425Y-3.3071
X7.8583Y-1.8425
X7.8598Y-2.2823
X7.8661Y-2.6201
X7.8661Y-3.3071
X7.8681Y-2.3268
X7.872Y-2.4016
X7.8764Y-2.7165
X7.8819Y-1.8425
X7.8898Y-3.3071
X7.8931Y-2.6881
X7.8976Y-2.4724
X7.8985Y-2.2567
X7.9055Y-1.8425
X7.9134Y-3.3071
X7.9291Y-1.8425
X7.9291Y-2.6299
X7.9291Y-2.7559
X7.9528Y-1.8425
X7.9764Y-1.8425
X7.9764Y-2.5039
X8.0Y-1.8425
X8.0079Y-2.2598
X8.0236Y-1.8425
X8.0472Y-1.8425
X8.0551Y-2.7953
X8.0709Y-1.8425
X8.0945Y-1.8425
X8.1134Y-2.3669
X8.1181Y-1.8425
X8.1417Y-1.8425
X8.1417Y-2.8031
X8.1421Y-2.6812
X8.1457Y-2.4685
X8.1496Y-2.2835
X8.1654Y-1.8425
X8.1699Y-2.3346
X8.1713Y-2.4252
X8.1811Y-2.622
X8.189Y-1.8425
X8.2047Y-2.5669
X8.2126Y-1.8425
X8.2362Y-1.8425
X8.2362Y-3.3071
X8.2598Y-1.8425
X8.2598Y-3.3071
X8.2835Y-1.8425
X8.2835Y-3.3071
X8.3071Y-1.8425
X8.3071Y-3.3071
X8.3307Y-1.8425
X8.3543Y-1.8425
X8.378Y-1.8425
X8.4016Y-1.8425
X8.4252Y-1.8425
X8.4488Y-1.8425
X8.4652Y-2.0709
X8.4652Y-2.1811
X8.4691Y-2.3031
X8.4707Y-2.4252
X8.4724Y-1.8425
X8.4961Y-1.8425
X8.5197Y-1.8425
X8.5433Y-1.8425
X8.5669Y-1.8425
X8.5906Y-1.8425
X8.6142Y-1.8425
X8.6378Y-1.8425
X8.6614Y-1.8425
X8.685Y-1.8425
X8.7087Y-1.8425
X8.7087Y-3.3071
X8.7323Y-1.8425
X8.7323Y-3.3071
X8.7559Y-1.8425
X8.7559Y-3.3071
X8.7795Y-1.8425
X8.7795Y-3.3071
X8.8031Y-1.8425
X8.8031Y-1.8661
X8.8031Y-1.8898
X8.8031Y-1.9134
X8.8031Y-1.937
X8.8031Y-1.9606
X8.8031Y-1.9843
X8.8031Y-2.0079
X8.8031Y-2.0315
X8.8031Y-2.0551
X8.8031Y-2.0787
X8.8031Y-2.1024
X8.8031Y-2.126
X8.8031Y-2.1496
X8.8031Y-2.1732
X8.8031Y-2.1969
X8.8031Y-2.2205
X8.8031Y-2.2441
X8.8031Y-2.2677
X8.8031Y-2.2913
X8.8031Y-2.315
X8.8031Y-2.3386
X8.8031Y-2.3622
X8.8031Y-2.3858
X8.8031Y-2.4094
X8.8031Y-2.4331
X8.8031Y-2.4567
X8.8031Y-2.4803
X8.8031Y-2.5039
X8.8031Y-2.5276
X8.8031Y-2.5512
X8.8031Y-2.5748
X8.8031Y-2.5984
X8.8031Y-2.622
X8.8031Y-2.6457
X8.8031Y-2.6693
X8.8031Y-2.6929
X8.8031Y-2.7165
X8.8031Y-2.7402
X8.8031Y-2.7638
X8.8031Y-2.7874
X8.8031Y-2.811
X8.8031Y-2.8346
X8.8031Y-2.8583
X8.8031Y-2.8819
X8.8031Y-2.9055
X8.8031Y-2.9291
X8.8031Y-2.9528
X8.8031Y-2.9764
X8.8031Y-3.0
X8.8031Y-3.0236
X8.8031Y-3.0472
X8.8031Y-3.0709
X8.8031Y-3.0945
X8.8031Y-3.1181
X8.8031Y-3.1417
X8.8031Y-3.1654
X8.8031Y-3.189
X8.8031Y-3.2126
X8.8031Y-3.2362
X8.8031Y-3.2598
X8.8031Y-3.2835
X8.8031Y-3.3071
T3
X6.6772Y-1.8898
X6.6772Y-1.9685
X6.8248Y-2.7382
X6.8248Y-2.7953
X6.8248Y-2.8524
X6.8346Y-1.8898
X6.8346Y-1.9685
X6.8819Y-2.7382
X6.8819Y-2.7953
X6.8819Y-2.8524
X6.939Y-2.7382
X6.939Y-2.7953
X6.939Y-2.8524
X7.1654Y-2.063
X7.2037Y-3.065
X7.2047Y-2.063
X7.2352Y-3.0335
X7.2352Y-3.065
X7.2352Y-3.0965
X7.2441Y-2.063
X7.2667Y-3.065
X7.3189Y-2.4272
X7.3189Y-2.4567
X7.3189Y-2.4862
X7.3465Y-2.4272
X7.3465Y-2.4567
X7.3465Y-2.4862
X7.4902Y-3.0876
X7.4902Y-3.127
X7.5197Y-3.1073
X7.5492Y-3.0876
X7.5492Y-3.127
X7.5748Y-2.3701
X7.5748Y-2.3976
X7.5945Y-2.7416
X7.5945Y-2.7692
X7.6043Y-2.3701
X7.6043Y-2.3976
X7.624Y-2.7416
X7.624Y-2.7692
X7.6339Y-2.3701
X7.6339Y-2.3976
X7.6535Y-2.7416
X7.6535Y-2.7692
X7.9862Y-2.3346
X7.9862Y-2.3937
X8.0059Y-2.3642
X8.0098Y-2.6575
X8.0098Y-2.7165
X8.0256Y-2.3346
X8.0256Y-2.3937
X8.0295Y-2.687
X8.0492Y-2.6575
X8.0492Y-2.7165
T6
X8.4488Y-2.8031
X8.5098Y-3.0984
T7
X8.0728Y-2.9535
X8.0728Y-3.2283
T4
G00X6.5854Y-1.9299
M15
G01X6.5854Y-1.8984
M16
G05
G00X6.5854Y-2.1012
M15
G01X6.5854Y-2.0579
M16
G05
G00X6.9264Y-1.9299
M15
G01X6.9264Y-1.8984
M16
G05
G00X6.9264Y-2.1012
M15
G01X6.9264Y-2.0579
M16
G05
T5
G00X7.9547Y-3.128
M15
G01X7.9547Y-3.1004
M16
G05
G00X7.9547Y-3.2382
M15
G01X7.9547Y-3.2106
M16
G05
G00X7.9626Y-2.9035
M15
G01X7.9626Y-2.876
M16
G05
G00X8.0177Y-2.9035
M15
G01X8.0177Y-2.876
M16
G05
G00X8.1358Y-2.9035
M15
G01X8.1358Y-2.876
M16
G05
G00X8.1791Y-2.9862
M15
G01X8.1791Y-2.9587
M16
G05
G00X8.2028Y-3.2106
M15
G01X8.2028Y-3.1831
M16
G05
G00X8.3504Y-2.8878
M15
G01X8.3504Y-2.8563
M16
G05
G00X8.374Y-2.7008
M15
G01X8.374Y-2.6693
M16
G05
G00X8.3819Y-3.0354
M15
G01X8.3819Y-3.0039
M16
G05
G00X8.3819Y-3.1417
M15
G01X8.3819Y-3.1102
M16
G05
G00X8.3819Y-3.248
M15
G01X8.3819Y-3.2165
M16
G05
G00X8.4331Y-2.7008
M15
G01X8.4331Y-2.6693
M16
G05
G00X8.5728Y-2.7008
M15
G01X8.5728Y-2.6693
M16
G05
G00X8.6378Y-3.0157
M15
G01X8.6378Y-2.9843
M16
G05
G00X8.6378Y-3.122
M15
G01X8.6378Y-3.0906
M16
G05
G00X8.6378Y-3.2283
M15
G01X8.6378Y-3.1969
M16
G05
G00X8.6457Y-2.7008
M15
G01X8.6457Y-2.6693
M16
G05
G00X8.6693Y-2.8878
M15
G01X8.6693Y-2.8563
M16
G05
M30
