%TF.GenerationSoftware,KiCad,Pcbnew,10.0.3*%
%TF.CreationDate,2026-05-17T00:32:02+08:00*%
%TF.ProjectId,feather,66656174-6865-4722-9e6b-696361645f70,rev?*%
%TF.SameCoordinates,Original*%
%TF.FileFunction,Copper,L4,Bot*%
%TF.FilePolarity,Positive*%
%FSLAX46Y46*%
G04 Gerber Fmt 4.6, Leading zero omitted, Abs format (unit mm)*
G04 Created by KiCad (PCBNEW 10.0.3) date 2026-05-17 00:32:02*
%MOMM*%
%LPD*%
G01*
G04 APERTURE LIST*
G04 Aperture macros list*
%AMRoundRect*
0 Rectangle with rounded corners*
0 $1 Rounding radius*
0 $2 $3 $4 $5 $6 $7 $8 $9 X,Y pos of 4 corners*
0 Add a 4 corners polygon primitive as box body*
4,1,4,$2,$3,$4,$5,$6,$7,$8,$9,$2,$3,0*
0 Add four circle primitives for the rounded corners*
1,1,$1+$1,$2,$3*
1,1,$1+$1,$4,$5*
1,1,$1+$1,$6,$7*
1,1,$1+$1,$8,$9*
0 Add four rect primitives between the rounded corners*
20,1,$1+$1,$2,$3,$4,$5,0*
20,1,$1+$1,$4,$5,$6,$7,0*
20,1,$1+$1,$6,$7,$8,$9,0*
20,1,$1+$1,$8,$9,$2,$3,0*%
G04 Aperture macros list end*
%TA.AperFunction,ComponentPad*%
%ADD10O,1.300000X2.300000*%
%TD*%
%TA.AperFunction,ComponentPad*%
%ADD11O,1.300000X2.100000*%
%TD*%
%TA.AperFunction,ComponentPad*%
%ADD12C,0.500000*%
%TD*%
%TA.AperFunction,HeatsinkPad*%
%ADD13C,0.500000*%
%TD*%
%TA.AperFunction,HeatsinkPad*%
%ADD14R,0.500000X1.600000*%
%TD*%
%TA.AperFunction,ComponentPad*%
%ADD15C,0.600000*%
%TD*%
%TA.AperFunction,SMDPad,CuDef*%
%ADD16RoundRect,0.250000X-0.900000X-1.150000X0.900000X-1.150000X0.900000X1.150000X-0.900000X1.150000X0*%
%TD*%
%TA.AperFunction,ComponentPad*%
%ADD17C,1.400000*%
%TD*%
%TA.AperFunction,ComponentPad*%
%ADD18O,1.000000X1.800000*%
%TD*%
%TA.AperFunction,ComponentPad*%
%ADD19C,0.400000*%
%TD*%
%TA.AperFunction,HeatsinkPad*%
%ADD20RoundRect,0.250000X0.350000X0.750000X-0.350000X0.750000X-0.350000X-0.750000X0.350000X-0.750000X0*%
%TD*%
%TA.AperFunction,SMDPad,CuDef*%
%ADD21R,2.650000X1.000000*%
%TD*%
%TA.AperFunction,ComponentPad*%
%ADD22C,1.200000*%
%TD*%
%TA.AperFunction,ComponentPad*%
%ADD23O,1.400000X2.000000*%
%TD*%
%TA.AperFunction,ComponentPad*%
%ADD24O,1.300000X2.000000*%
%TD*%
%TA.AperFunction,SMDPad,CuDef*%
%ADD25RoundRect,0.250000X-1.150000X0.900000X-1.150000X-0.900000X1.150000X-0.900000X1.150000X0.900000X0*%
%TD*%
%TA.AperFunction,HeatsinkPad*%
%ADD26RoundRect,0.250000X-0.750000X0.350000X-0.750000X-0.350000X0.750000X-0.350000X0.750000X0.350000X0*%
%TD*%
%TA.AperFunction,HeatsinkPad*%
%ADD27R,3.400000X3.400000*%
%TD*%
%TA.AperFunction,HeatsinkPad*%
%ADD28RoundRect,0.250000X0.750000X-0.350000X0.750000X0.350000X-0.750000X0.350000X-0.750000X-0.350000X0*%
%TD*%
%TA.AperFunction,ViaPad*%
%ADD29C,0.450000*%
%TD*%
%TA.AperFunction,ViaPad*%
%ADD30C,0.600000*%
%TD*%
%TA.AperFunction,Conductor*%
%ADD31C,0.200000*%
%TD*%
%TA.AperFunction,Conductor*%
%ADD32C,0.300000*%
%TD*%
%TA.AperFunction,Conductor*%
%ADD33C,0.400000*%
%TD*%
G04 APERTURE END LIST*
D10*
%TO.P,J1,S1,SHIELD_S1*%
%TO.N,GND*%
X130380000Y-87670000D03*
D11*
X130380000Y-83470000D03*
D12*
X128050000Y-84850000D03*
X128050000Y-82850000D03*
X124050000Y-84850000D03*
X124050000Y-82850000D03*
D10*
X121720000Y-87670000D03*
D11*
X121720000Y-83470000D03*
%TD*%
D13*
%TO.P,U1,7,PAD_7*%
%TO.N,GND*%
X131450000Y-91450000D03*
D14*
X131450000Y-90900000D03*
D13*
X131450000Y-90350000D03*
%TD*%
D15*
%TO.P,U10,11,V-_11*%
%TO.N,-4V5*%
X157900000Y-102350000D03*
X157900000Y-103850000D03*
X158400000Y-103100000D03*
D16*
X158400000Y-103100000D03*
D15*
X158900000Y-102350000D03*
X158900000Y-103850000D03*
%TD*%
D17*
%TO.P,CN1,*%
%TO.N,*%
X159500000Y-116850000D03*
X159500000Y-109870000D03*
D18*
%TO.P,CN1,1,1_1*%
%TO.N,GND*%
X162800000Y-116050000D03*
%TO.P,CN1,2,2_2*%
%TO.N,unconnected-(CN1-Pad2)*%
X156500000Y-116750000D03*
%TO.P,CN1,3,3_3*%
%TO.N,/OUT-UNBAL-2*%
X156500000Y-113950000D03*
%TO.P,CN1,4,4_4*%
%TO.N,/GP10*%
X162200000Y-110350000D03*
%TO.P,CN1,5,5_5*%
%TO.N,GND*%
X161100000Y-108250000D03*
%TO.P,CN1,6,6_6*%
%TO.N,unconnected-(CN1-Pad6)*%
X158100000Y-108250000D03*
%TO.P,CN1,7,7_7*%
%TO.N,/OUT-UNBAL-1*%
X156700000Y-108250000D03*
%TD*%
D19*
%TO.P,U3,25,VSS_25*%
%TO.N,GND*%
X137425000Y-112700000D03*
X138225000Y-111900000D03*
X138225000Y-112700000D03*
X138225000Y-113500000D03*
X139025000Y-112700000D03*
%TD*%
D13*
%TO.P,U8,4,V-_4*%
%TO.N,-4V5*%
X141050000Y-98000000D03*
X141050000Y-97250000D03*
X141050000Y-96500000D03*
D20*
X140700000Y-97250000D03*
D13*
X140350000Y-98000000D03*
X140350000Y-97250000D03*
X140350000Y-96500000D03*
%TD*%
D15*
%TO.P,U2,13,PAD_13*%
%TO.N,GND*%
X136450000Y-87250000D03*
X137450000Y-87250000D03*
D21*
X137450000Y-87250000D03*
D15*
X138450000Y-87250000D03*
%TD*%
D13*
%TO.P,U4,7,PAD_7*%
%TO.N,GND*%
X136900000Y-92850000D03*
D14*
X136900000Y-92300000D03*
D13*
X136900000Y-91750000D03*
%TD*%
D22*
%TO.P,CN2,*%
%TO.N,*%
X170600000Y-113550000D03*
X169050000Y-106050000D03*
D23*
%TO.P,CN2,1,GND_1*%
%TO.N,GND*%
X167350000Y-116950000D03*
%TO.P,CN2,2,R-_2*%
%TO.N,/OUT-BAL-2N*%
X173850000Y-116450000D03*
%TO.P,CN2,3,R-_3*%
X167350000Y-114250000D03*
%TO.P,CN2,4,R+_4*%
%TO.N,/OUT-BAL-2P*%
X173850000Y-113750000D03*
%TO.P,CN2,5,R+_5*%
X167350000Y-111550000D03*
%TO.P,CN2,6,L-_6*%
%TO.N,/OUT-BAL-1N*%
X173850000Y-111050000D03*
D24*
%TO.P,CN2,7,L+_7*%
%TO.N,/OUT-BAL-1P*%
X167150000Y-103050000D03*
%TO.P,CN2,8,L+_8*%
X174050000Y-103050000D03*
%TO.P,CN2,9,SW_9*%
%TO.N,/GP11*%
X172200000Y-103050000D03*
%TO.P,CN2,10,DET_10*%
%TO.N,GND*%
X168650000Y-103050000D03*
D23*
%TO.P,CN2,11,ep_11*%
X166550000Y-107800000D03*
%TO.P,CN2,12,ep_12*%
X174650000Y-107800000D03*
%TD*%
D15*
%TO.P,U9,11,V-_11*%
%TO.N,-4V5*%
X146200000Y-113275000D03*
X144700000Y-113275000D03*
X145450000Y-113775000D03*
D25*
X145450000Y-113775000D03*
D15*
X146200000Y-114275000D03*
X144700000Y-114275000D03*
%TD*%
D13*
%TO.P,U7,4,V-_4*%
%TO.N,-4V5*%
X148850000Y-104487500D03*
X148100000Y-104487500D03*
X147350000Y-104487500D03*
D26*
X148100000Y-104837500D03*
D13*
X148850000Y-105187500D03*
X148100000Y-105187500D03*
X147350000Y-105187500D03*
%TD*%
D15*
%TO.P,U11,11,V-_11*%
%TO.N,-4V5*%
X157300000Y-94150000D03*
X157300000Y-95650000D03*
X157800000Y-94900000D03*
D16*
X157800000Y-94900000D03*
D15*
X158300000Y-94150000D03*
X158300000Y-95650000D03*
%TD*%
D13*
%TO.P,U6,61,GND_61*%
%TO.N,GND*%
X127800000Y-104400000D03*
X127800000Y-105850000D03*
X127800000Y-107300000D03*
X129250000Y-104400000D03*
X129250000Y-105850000D03*
D27*
X129250000Y-105850000D03*
D13*
X129250000Y-107300000D03*
X130700000Y-104400000D03*
X130700000Y-105850000D03*
X130700000Y-107300000D03*
%TD*%
%TO.P,U5,4,V-_4*%
%TO.N,-4V5*%
X146850000Y-95750000D03*
X147600000Y-95750000D03*
X148350000Y-95750000D03*
D28*
X147600000Y-95400000D03*
D13*
X146850000Y-95050000D03*
X147600000Y-95050000D03*
X148350000Y-95050000D03*
%TD*%
D29*
%TO.N,GND*%
X118250000Y-115250000D03*
X155850000Y-81650000D03*
X167850000Y-81650000D03*
D30*
X145450000Y-110450000D03*
D29*
X118250000Y-110450000D03*
X138050000Y-118850000D03*
X148850000Y-118850000D03*
X178050000Y-97250000D03*
X165450000Y-118850000D03*
X130250000Y-118850000D03*
X178050000Y-112250000D03*
D30*
X151260169Y-105176860D03*
D29*
X178050000Y-95450000D03*
X118250000Y-87050000D03*
X150450000Y-81650000D03*
D30*
X127450000Y-94850000D03*
D29*
X178050000Y-92450000D03*
D30*
X132800000Y-98200000D03*
D29*
X118250000Y-103250000D03*
X149250000Y-81650000D03*
X142850000Y-118850000D03*
X153450000Y-81650000D03*
X151650000Y-81650000D03*
X118250000Y-92450000D03*
X123050000Y-118850000D03*
X172050000Y-81650000D03*
X164250000Y-118850000D03*
X143250000Y-81650000D03*
X118250000Y-96050000D03*
X118250000Y-99050000D03*
X147050000Y-118850000D03*
X130850000Y-118850000D03*
X178050000Y-90050000D03*
X178050000Y-87050000D03*
X178050000Y-86450000D03*
X178050000Y-99650000D03*
X161250000Y-81650000D03*
D30*
X125800000Y-111900000D03*
D29*
X131450000Y-118850000D03*
X118250000Y-93050000D03*
X178050000Y-102050000D03*
X178050000Y-109850000D03*
X178050000Y-107450000D03*
D30*
X135075996Y-87996222D03*
D29*
X152250000Y-81650000D03*
X118250000Y-100850000D03*
X169050000Y-81650000D03*
X155250000Y-81650000D03*
D30*
X141450000Y-99450000D03*
X136150000Y-108250000D03*
D29*
X129650000Y-118850000D03*
X176250000Y-81650000D03*
X154050000Y-81650000D03*
X118250000Y-91250000D03*
X118250000Y-107450000D03*
X178050000Y-91850000D03*
X154650000Y-81650000D03*
X178050000Y-111650000D03*
X156450000Y-81650000D03*
X151250000Y-118850000D03*
D30*
X139583753Y-88016247D03*
D29*
X127850000Y-118850000D03*
X118250000Y-99650000D03*
D30*
X131850000Y-89250000D03*
D29*
X144450000Y-81650000D03*
X127250000Y-118850000D03*
X134850000Y-81650000D03*
X118250000Y-102050000D03*
X178050000Y-117050000D03*
X145850000Y-118850000D03*
X118250000Y-93650000D03*
X118250000Y-89450000D03*
X134250000Y-81650000D03*
X118250000Y-108050000D03*
X118250000Y-88250000D03*
D30*
X131550000Y-111439211D03*
D29*
X135450000Y-81650000D03*
X166650000Y-81650000D03*
X136850000Y-118850000D03*
X175050000Y-81650000D03*
X178050000Y-99050000D03*
X165450000Y-81650000D03*
X118250000Y-112250000D03*
X178050000Y-84650000D03*
X178050000Y-102650000D03*
X178050000Y-103850000D03*
X118250000Y-88850000D03*
X139650000Y-81650000D03*
X148050000Y-81650000D03*
X175650000Y-81650000D03*
X178050000Y-106250000D03*
X118250000Y-111650000D03*
X147650000Y-118850000D03*
X120050000Y-118850000D03*
X118250000Y-114050000D03*
X167250000Y-81650000D03*
X178050000Y-105050000D03*
D30*
X132750000Y-83750000D03*
D29*
X118250000Y-100250000D03*
X164850000Y-118850000D03*
X121250000Y-118850000D03*
X178050000Y-115850000D03*
X118250000Y-105650000D03*
X118250000Y-112850000D03*
X118250000Y-84650000D03*
X162450000Y-81650000D03*
X145050000Y-81650000D03*
X137450000Y-118850000D03*
X148650000Y-81650000D03*
X136050000Y-81650000D03*
X118250000Y-111050000D03*
D30*
X122250000Y-89850000D03*
D29*
X118250000Y-102650000D03*
X126050000Y-118850000D03*
D30*
X132949265Y-101949265D03*
D29*
X160650000Y-81650000D03*
X121850000Y-118850000D03*
X178050000Y-112850000D03*
X178050000Y-90650000D03*
X147450000Y-81650000D03*
X178050000Y-108050000D03*
X178050000Y-108650000D03*
X122450000Y-118850000D03*
X120050000Y-81650000D03*
X118250000Y-94250000D03*
X131250000Y-81650000D03*
X178050000Y-100850000D03*
X150050000Y-118850000D03*
X118250000Y-117050000D03*
X178050000Y-116450000D03*
X118250000Y-101450000D03*
X178050000Y-113450000D03*
X138650000Y-118850000D03*
X153050000Y-118850000D03*
X145650000Y-81650000D03*
D30*
X145450000Y-94850000D03*
D29*
X178050000Y-94850000D03*
X137850000Y-81650000D03*
X149450000Y-118850000D03*
X143450000Y-118850000D03*
X178050000Y-104450000D03*
X149850000Y-81650000D03*
X178050000Y-93050000D03*
X148250000Y-118850000D03*
X174450000Y-81650000D03*
X126650000Y-118850000D03*
X134450000Y-118850000D03*
X145250000Y-118850000D03*
X169650000Y-81650000D03*
X178050000Y-87650000D03*
D30*
X132800000Y-99400000D03*
D29*
X128450000Y-118850000D03*
X178050000Y-100250000D03*
X163050000Y-81650000D03*
D30*
X125544975Y-97944975D03*
D29*
X146450000Y-118850000D03*
D30*
X131350000Y-115350000D03*
D29*
X118250000Y-85250000D03*
X142250000Y-118850000D03*
X178050000Y-96050000D03*
X133850000Y-118850000D03*
X159450000Y-81650000D03*
X118250000Y-84050000D03*
X171450000Y-81650000D03*
X136250000Y-118850000D03*
X120650000Y-118850000D03*
X151850000Y-118850000D03*
X124250000Y-118850000D03*
D30*
X138400000Y-91050000D03*
D29*
X178050000Y-83450000D03*
X152450000Y-118850000D03*
X118250000Y-87650000D03*
X118250000Y-106850000D03*
X118250000Y-103850000D03*
X173250000Y-81650000D03*
X118250000Y-85850000D03*
X141050000Y-118850000D03*
X146250000Y-81650000D03*
X155450000Y-118850000D03*
X172650000Y-81650000D03*
X178050000Y-88850000D03*
X176250000Y-118850000D03*
X141450000Y-81650000D03*
X163650000Y-118850000D03*
D30*
X132800000Y-98800000D03*
D29*
X152850000Y-81650000D03*
D30*
X130350001Y-111689580D03*
D29*
X123650000Y-118850000D03*
X178050000Y-111050000D03*
X154850000Y-118850000D03*
X118250000Y-94850000D03*
X178050000Y-91250000D03*
X146850000Y-81650000D03*
X131850000Y-81650000D03*
X118250000Y-91850000D03*
X142050000Y-81650000D03*
X118250000Y-104450000D03*
D30*
X154089238Y-92819999D03*
D29*
X158850000Y-81650000D03*
X139250000Y-118850000D03*
X132050000Y-118850000D03*
X178050000Y-109250000D03*
X161850000Y-81650000D03*
X124850000Y-118850000D03*
X132650000Y-118850000D03*
X120650000Y-81650000D03*
X118250000Y-116450000D03*
X141650000Y-118850000D03*
X138450000Y-81650000D03*
X154250000Y-118850000D03*
X164850000Y-81650000D03*
X164250000Y-81650000D03*
X144650000Y-118850000D03*
X140850000Y-81650000D03*
X157050000Y-81650000D03*
X118250000Y-86450000D03*
X118250000Y-105050000D03*
X132450000Y-81650000D03*
X118250000Y-95450000D03*
X178050000Y-114050000D03*
X133650000Y-81650000D03*
X133250000Y-118850000D03*
X140250000Y-81650000D03*
X178050000Y-93650000D03*
X173850000Y-81650000D03*
D30*
X145950000Y-105600000D03*
D29*
X118250000Y-106250000D03*
X118250000Y-96650000D03*
X143850000Y-81650000D03*
X144050000Y-118850000D03*
X135050000Y-118850000D03*
X139050000Y-81650000D03*
X175650000Y-118850000D03*
X166050000Y-81650000D03*
X150650000Y-118850000D03*
X178050000Y-84050000D03*
X153650000Y-118850000D03*
X178050000Y-115250000D03*
D30*
X141544184Y-94015622D03*
D29*
X118250000Y-109250000D03*
X118250000Y-97250000D03*
X170850000Y-81650000D03*
X140450000Y-118850000D03*
D30*
X131450000Y-93650000D03*
D29*
X178050000Y-85250000D03*
X118250000Y-108650000D03*
X160050000Y-81650000D03*
D30*
X154934309Y-103127580D03*
D29*
X135650000Y-118850000D03*
X118250000Y-83450000D03*
X118250000Y-115850000D03*
D30*
X123350000Y-108600000D03*
D29*
X178050000Y-89450000D03*
X178050000Y-105650000D03*
X178050000Y-96650000D03*
X178050000Y-97850000D03*
X118250000Y-90050000D03*
X118250000Y-97850000D03*
X133050000Y-81650000D03*
X139850000Y-118850000D03*
X178050000Y-88250000D03*
X163650000Y-81650000D03*
X142650000Y-81650000D03*
X118250000Y-113450000D03*
X125450000Y-118850000D03*
X118250000Y-98450000D03*
X178050000Y-106850000D03*
X136650000Y-81650000D03*
X129050000Y-118850000D03*
X118250000Y-90650000D03*
X178050000Y-94250000D03*
X178050000Y-110450000D03*
X118250000Y-109850000D03*
X178050000Y-114650000D03*
X168450000Y-81650000D03*
X178050000Y-103250000D03*
D30*
X134650000Y-90350000D03*
X140315380Y-91865380D03*
D29*
X151050000Y-81650000D03*
X178050000Y-101450000D03*
X178050000Y-85850000D03*
X118250000Y-114650000D03*
X158250000Y-81650000D03*
X157650000Y-81650000D03*
X178050000Y-98450000D03*
X170250000Y-81650000D03*
X137250000Y-81650000D03*
D30*
%TO.N,+3V3*%
X133450000Y-92450000D03*
X133600000Y-106250000D03*
X134460000Y-102142679D03*
X124550000Y-102850000D03*
X174500000Y-85450000D03*
X133450000Y-91650000D03*
X134450000Y-99250000D03*
X125650000Y-100975735D03*
X133450000Y-90850000D03*
X129600000Y-99200000D03*
X124050000Y-106650000D03*
X127850000Y-111049999D03*
X131550000Y-110350000D03*
%TO.N,-4V5*%
X142314581Y-93200000D03*
X154400000Y-95850000D03*
X148881404Y-97446490D03*
X154510715Y-103850000D03*
X140300000Y-90800000D03*
X143050000Y-109650000D03*
X145850000Y-102913235D03*
%TO.N,+4V5*%
X138512500Y-98550000D03*
X150225735Y-106113235D03*
X146646911Y-93050000D03*
X146650000Y-109650000D03*
X154250000Y-101200000D03*
X136050000Y-83650000D03*
X154300000Y-93950000D03*
%TO.N,/GP15*%
X169465000Y-85000000D03*
X125150009Y-113450000D03*
%TO.N,/5242-1P*%
X152325581Y-105474419D03*
X153210715Y-104601160D03*
%TO.N,Net-(R39-~-Pad2)*%
X166800000Y-100300000D03*
X120733191Y-103899314D03*
%TO.N,/1612-UNBAL-1*%
X146708792Y-111271995D03*
X144450000Y-95100000D03*
%TO.N,/1612-UNBAL-2*%
X144450000Y-94249997D03*
X144000018Y-111099982D03*
%TO.N,/5242-1N*%
X153180048Y-105480356D03*
X152300000Y-104587500D03*
%TO.N,+5V*%
X121650000Y-92850000D03*
X137300000Y-83000000D03*
X128850000Y-93050000D03*
%TO.N,Net-(U2-EN+)*%
X135475000Y-85525000D03*
X139000000Y-85500000D03*
%TO.N,/BAL-1622-EN*%
X120850000Y-107650000D03*
X160529620Y-94970380D03*
X161260390Y-102952811D03*
%TO.N,Net-(U11A--)*%
X157050000Y-98450000D03*
X161450000Y-92850000D03*
%TO.N,/OUT-BAL-2P*%
X161965380Y-94150000D03*
%TO.N,/GP14*%
X169465000Y-87800000D03*
X124350006Y-113450000D03*
%TO.N,/1612-BAL-1P*%
X150547105Y-103550000D03*
X155850000Y-101650000D03*
%TO.N,/1612-BAL-1N*%
X155850000Y-104850000D03*
X151150000Y-105969240D03*
%TO.N,Net-(U10B--)*%
X162850000Y-100050000D03*
X161100000Y-106100000D03*
%TO.N,Net-(U10A--)*%
X162250000Y-101450000D03*
X159050000Y-105850000D03*
%TO.N,/GP10*%
X119250000Y-110250000D03*
%TO.N,+AUDIO3V3*%
X138002880Y-108202880D03*
X138400000Y-92300000D03*
%TO.N,/1612-BAL-2P*%
X140656763Y-100613112D03*
X155070921Y-92170000D03*
%TO.N,/5242-2P*%
X140512500Y-102800000D03*
X140512500Y-101400000D03*
%TO.N,/5242-2N*%
X141512500Y-102200000D03*
X139500000Y-102200000D03*
%TO.N,/1612-BAL-2N*%
X155050000Y-97650000D03*
X139650000Y-100650000D03*
%TO.N,+1V1*%
X129600000Y-98150000D03*
X130334883Y-110714748D03*
X133614411Y-104261632D03*
X129600000Y-97200000D03*
X129600000Y-96150000D03*
X123500000Y-104800000D03*
%TO.N,/RUN*%
X132850000Y-112850000D03*
X124550000Y-102000000D03*
%TO.N,Net-(R38-~-Pad2)*%
X120700000Y-103100000D03*
X175300000Y-99600000D03*
%TO.N,/GP13*%
X169565000Y-90900000D03*
X123550003Y-113450000D03*
%TO.N,Net-(U11B--)*%
X161350000Y-97550000D03*
X157850000Y-92250000D03*
%TO.N,/OUT-BAL-2N*%
X162000000Y-96450000D03*
%TO.N,Net-(U9A-EN)*%
X120850000Y-106850000D03*
X146450002Y-116800000D03*
%TO.N,/GP11*%
X119250000Y-111050000D03*
%TO.N,/GP12*%
X122750000Y-113450000D03*
X169605000Y-94000000D03*
%TD*%
%TO.N,/5242-1P*%
D31*
X152412497Y-105387503D02*
X152424372Y-105387503D01*
X152424372Y-105387503D02*
X153210715Y-104601160D01*
X152325581Y-105474419D02*
X152412497Y-105387503D01*
%TO.N,/1612-UNBAL-1*%
D32*
X144450000Y-95100000D02*
X144500000Y-95150000D01*
X144500000Y-95150000D02*
X144500000Y-110500000D01*
X144500000Y-110500000D02*
X145450000Y-111450000D01*
X145450000Y-111450000D02*
X146530787Y-111450000D01*
X146530787Y-111450000D02*
X146708792Y-111271995D01*
%TO.N,/1612-UNBAL-2*%
X143800000Y-94780761D02*
X143800000Y-110899965D01*
X144330764Y-94249997D02*
X143800000Y-94780761D01*
X144450000Y-94249997D02*
X144330764Y-94249997D01*
X143800000Y-110899965D02*
X144000018Y-111099982D01*
%TO.N,Net-(U2-EN+)*%
X135500000Y-85500000D02*
X139000000Y-85500000D01*
X135475000Y-85525000D02*
X135500000Y-85500000D01*
%TO.N,/BAL-1622-EN*%
D31*
X160529620Y-94970380D02*
X160500000Y-95000000D01*
X155550000Y-115350000D02*
X155550000Y-106750000D01*
X145250000Y-117050000D02*
X146100000Y-116200000D01*
X160500000Y-95000000D02*
X160500000Y-98100000D01*
X159800000Y-105000000D02*
X161260390Y-103539610D01*
X146100000Y-116200000D02*
X154700000Y-116200000D01*
X157300000Y-105000000D02*
X159800000Y-105000000D01*
X161260390Y-98860390D02*
X161260390Y-102952811D01*
X122615686Y-117050000D02*
X145250000Y-117050000D01*
X155550000Y-106750000D02*
X157300000Y-105000000D01*
X120850000Y-115284314D02*
X122615686Y-117050000D01*
X161260390Y-103539610D02*
X161260390Y-102952811D01*
X120850000Y-107650000D02*
X120850000Y-115284314D01*
X160500000Y-98100000D02*
X161260390Y-98860390D01*
X154700000Y-116200000D02*
X155550000Y-115350000D01*
%TO.N,Net-(U11A--)*%
D32*
X161450000Y-92150000D02*
X161450000Y-92850000D01*
X157050000Y-98450000D02*
X156300000Y-97700000D01*
X156300000Y-92400000D02*
X157100000Y-91600000D01*
X157100000Y-91600000D02*
X160900000Y-91600000D01*
X156300000Y-97700000D02*
X156300000Y-92400000D01*
X160900000Y-91600000D02*
X161450000Y-92150000D01*
%TO.N,/OUT-BAL-2P*%
D33*
X165450000Y-95850000D02*
X165450000Y-109650000D01*
X165450000Y-109650000D02*
X167350000Y-111550000D01*
D32*
X167150000Y-111450000D02*
X167250000Y-111550000D01*
D33*
X163750000Y-94150000D02*
X165450000Y-95850000D01*
D32*
X167250000Y-111550000D02*
X167350000Y-111550000D01*
X161865380Y-94250000D02*
X162050000Y-94250000D01*
D33*
X161965380Y-94150000D02*
X163750000Y-94150000D01*
%TO.N,/1612-BAL-1P*%
D32*
X150547105Y-103550000D02*
X150547105Y-103152895D01*
X155450000Y-102050000D02*
X155850000Y-101650000D01*
X151650000Y-102050000D02*
X155450000Y-102050000D01*
X150547105Y-103152895D02*
X151650000Y-102050000D01*
%TO.N,/1612-BAL-1N*%
X155050000Y-106250000D02*
X155850000Y-105450000D01*
X151750000Y-106250000D02*
X155050000Y-106250000D01*
X151469240Y-105969240D02*
X151750000Y-106250000D01*
X155850000Y-105450000D02*
X155850000Y-104850000D01*
X151150000Y-105969240D02*
X151469240Y-105969240D01*
%TO.N,Net-(U10B--)*%
D31*
X162850000Y-104450000D02*
X162850000Y-100050000D01*
X161100000Y-106100000D02*
X161200000Y-106100000D01*
X161200000Y-106100000D02*
X162850000Y-104450000D01*
%TO.N,Net-(U10A--)*%
X162250000Y-103650000D02*
X162250000Y-101450000D01*
X160050000Y-105850000D02*
X162250000Y-103650000D01*
X159050000Y-105850000D02*
X160050000Y-105850000D01*
%TO.N,/GP10*%
X162200000Y-114300000D02*
X162200000Y-110350000D01*
X122284314Y-117850000D02*
X153650000Y-117850000D01*
X153650000Y-117850000D02*
X156100000Y-115400000D01*
X119542821Y-110250000D02*
X119850000Y-110557179D01*
X161100000Y-115400000D02*
X162200000Y-114300000D01*
X119850000Y-110557179D02*
X119850000Y-115415686D01*
X119850000Y-115415686D02*
X122284314Y-117850000D01*
X119250000Y-110250000D02*
X119542821Y-110250000D01*
X156100000Y-115400000D02*
X161100000Y-115400000D01*
%TO.N,/1612-BAL-2P*%
D32*
X155070921Y-92170000D02*
X141637106Y-92170000D01*
X141637106Y-92170000D02*
X138450000Y-95357106D01*
X138450000Y-97450000D02*
X140656763Y-99656763D01*
X138450000Y-95357106D02*
X138450000Y-97450000D01*
X140656763Y-99656763D02*
X140656763Y-100613112D01*
%TO.N,/5242-2P*%
D31*
X140512500Y-101400000D02*
X140512500Y-102800000D01*
%TO.N,/1612-BAL-2N*%
D32*
X139650000Y-100650000D02*
X137650000Y-98650000D01*
X155720921Y-96979079D02*
X155050000Y-97650000D01*
X155340160Y-91520000D02*
X155720921Y-91900761D01*
X155720921Y-91900761D02*
X155720921Y-96979079D01*
X141580000Y-91520000D02*
X155340160Y-91520000D01*
X137650000Y-98650000D02*
X137650000Y-95450000D01*
X137650000Y-95450000D02*
X141580000Y-91520000D01*
%TO.N,/RUN*%
D31*
X131400000Y-102000000D02*
X132850000Y-103450000D01*
X124550000Y-102000000D02*
X131400000Y-102000000D01*
X132850000Y-103450000D02*
X132850000Y-112850000D01*
%TO.N,Net-(U11B--)*%
D32*
X161350000Y-97550000D02*
X161250000Y-97450000D01*
X161250000Y-93650000D02*
X159850000Y-92250000D01*
X161250000Y-97450000D02*
X161250000Y-93650000D01*
X161350000Y-97550000D02*
X161450000Y-97450000D01*
X159850000Y-92250000D02*
X157850000Y-92250000D01*
%TO.N,/OUT-BAL-2N*%
D33*
X163750000Y-96450000D02*
X164600000Y-97300000D01*
X164600000Y-112000000D02*
X166850000Y-114250000D01*
X164600000Y-97300000D02*
X164600000Y-112000000D01*
D32*
X167050000Y-113950000D02*
X167350000Y-113950000D01*
D33*
X166850000Y-114250000D02*
X167350000Y-114250000D01*
X162000000Y-96450000D02*
X163750000Y-96450000D01*
%TO.N,Net-(U9A-EN)*%
D31*
X146450002Y-116800000D02*
X145800002Y-117450000D01*
X145800002Y-117450000D02*
X122450000Y-117450000D01*
X120801471Y-106850000D02*
X120850000Y-106850000D01*
X120250000Y-115250000D02*
X120250000Y-107401471D01*
X122450000Y-117450000D02*
X120250000Y-115250000D01*
X120250000Y-107401471D02*
X120801471Y-106850000D01*
%TO.N,/GP11*%
X122118628Y-118250000D02*
X168800000Y-118250000D01*
X119450000Y-111050000D02*
X119450000Y-115581372D01*
X119450000Y-115581372D02*
X122118628Y-118250000D01*
X168800000Y-118250000D02*
X172200000Y-114850000D01*
X172200000Y-114850000D02*
X172200000Y-102750000D01*
X119250000Y-111050000D02*
X119450000Y-111050000D01*
%TD*%
%TA.AperFunction,Conductor*%
%TO.N,GND*%
G36*
X176354042Y-81350765D02*
G01*
X176602895Y-81367075D01*
X176618953Y-81369190D01*
X176859543Y-81417046D01*
X176875198Y-81421241D01*
X177107477Y-81500089D01*
X177122461Y-81506295D01*
X177342460Y-81614787D01*
X177356506Y-81622897D01*
X177560459Y-81759173D01*
X177573328Y-81769047D01*
X177757749Y-81930780D01*
X177769218Y-81942249D01*
X177930951Y-82126670D01*
X177940825Y-82139539D01*
X178077101Y-82343492D01*
X178085211Y-82357538D01*
X178193703Y-82577537D01*
X178199910Y-82592523D01*
X178278755Y-82824794D01*
X178282953Y-82840461D01*
X178330806Y-83081034D01*
X178332924Y-83097115D01*
X178349234Y-83345956D01*
X178349499Y-83354066D01*
X178349499Y-117145933D01*
X178349234Y-117154043D01*
X178332924Y-117402883D01*
X178330806Y-117418964D01*
X178282953Y-117659535D01*
X178278755Y-117675202D01*
X178199908Y-117907479D01*
X178193701Y-117922465D01*
X178085211Y-118142460D01*
X178077101Y-118156506D01*
X177940824Y-118360460D01*
X177930950Y-118373329D01*
X177769217Y-118557749D01*
X177757748Y-118569218D01*
X177573328Y-118730951D01*
X177560459Y-118740825D01*
X177356505Y-118877102D01*
X177342459Y-118885212D01*
X177122464Y-118993702D01*
X177107478Y-118999909D01*
X176875201Y-119078756D01*
X176859534Y-119082954D01*
X176618963Y-119130807D01*
X176602882Y-119132925D01*
X176354042Y-119149235D01*
X176345932Y-119149500D01*
X119954067Y-119149500D01*
X119945957Y-119149235D01*
X119697116Y-119132925D01*
X119681035Y-119130807D01*
X119440464Y-119082954D01*
X119424797Y-119078756D01*
X119192520Y-118999909D01*
X119177534Y-118993702D01*
X118957539Y-118885212D01*
X118943493Y-118877102D01*
X118739539Y-118740825D01*
X118726670Y-118730951D01*
X118726177Y-118730519D01*
X118542250Y-118569218D01*
X118530781Y-118557749D01*
X118431674Y-118444740D01*
X118369045Y-118373325D01*
X118359174Y-118360460D01*
X118222897Y-118156506D01*
X118214787Y-118142460D01*
X118209529Y-118131799D01*
X118106294Y-117922458D01*
X118100090Y-117907479D01*
X118021243Y-117675202D01*
X118017045Y-117659535D01*
X117998767Y-117567644D01*
X117969190Y-117418953D01*
X117967075Y-117402895D01*
X117950765Y-117154043D01*
X117950500Y-117145933D01*
X117950500Y-110171153D01*
X118449500Y-110171153D01*
X118449500Y-110328846D01*
X118480261Y-110483489D01*
X118480264Y-110483501D01*
X118529574Y-110602548D01*
X118537043Y-110672018D01*
X118529574Y-110697452D01*
X118480264Y-110816498D01*
X118480261Y-110816510D01*
X118449500Y-110971153D01*
X118449500Y-111128846D01*
X118480261Y-111283489D01*
X118480264Y-111283501D01*
X118540602Y-111429172D01*
X118540609Y-111429185D01*
X118628210Y-111560288D01*
X118628213Y-111560292D01*
X118739706Y-111671785D01*
X118739709Y-111671787D01*
X118739711Y-111671789D01*
X118794391Y-111708325D01*
X118839195Y-111761935D01*
X118849500Y-111811426D01*
X118849500Y-115494702D01*
X118849499Y-115494720D01*
X118849499Y-115660426D01*
X118849498Y-115660426D01*
X118857198Y-115689163D01*
X118890423Y-115813157D01*
X118911983Y-115850500D01*
X118969477Y-115950084D01*
X118969481Y-115950089D01*
X119088349Y-116068957D01*
X119088355Y-116068962D01*
X119631871Y-116612478D01*
X119665356Y-116673801D01*
X119660372Y-116743493D01*
X119618500Y-116799426D01*
X119553036Y-116823843D01*
X119532043Y-116823563D01*
X119531403Y-116823500D01*
X119368597Y-116823500D01*
X119368594Y-116823500D01*
X119208926Y-116855259D01*
X119208917Y-116855262D01*
X119058509Y-116917562D01*
X119058507Y-116917563D01*
X118923137Y-117008015D01*
X118923133Y-117008018D01*
X118808018Y-117123133D01*
X118808015Y-117123137D01*
X118717563Y-117258507D01*
X118717562Y-117258509D01*
X118655262Y-117408917D01*
X118655259Y-117408926D01*
X118623500Y-117568592D01*
X118623500Y-117731407D01*
X118655259Y-117891073D01*
X118655262Y-117891082D01*
X118717562Y-118041490D01*
X118717563Y-118041492D01*
X118808015Y-118176862D01*
X118808018Y-118176866D01*
X118923133Y-118291981D01*
X118923137Y-118291984D01*
X119058505Y-118382435D01*
X119058506Y-118382435D01*
X119058507Y-118382436D01*
X119058509Y-118382437D01*
X119158781Y-118423970D01*
X119208919Y-118444738D01*
X119208921Y-118444738D01*
X119208926Y-118444740D01*
X119368592Y-118476499D01*
X119368595Y-118476500D01*
X119368597Y-118476500D01*
X119531405Y-118476500D01*
X119531406Y-118476499D01*
X119584629Y-118465912D01*
X119691073Y-118444740D01*
X119691076Y-118444738D01*
X119691081Y-118444738D01*
X119841495Y-118382435D01*
X119976863Y-118291984D01*
X120091984Y-118176863D01*
X120182435Y-118041495D01*
X120244738Y-117891081D01*
X120276500Y-117731403D01*
X120276500Y-117568597D01*
X120276499Y-117568592D01*
X120276438Y-117567972D01*
X120276500Y-117567644D01*
X120276500Y-117562505D01*
X120277474Y-117562505D01*
X120289452Y-117499325D01*
X120337513Y-117448611D01*
X120405362Y-117431932D01*
X120471459Y-117454583D01*
X120487521Y-117468128D01*
X121633767Y-118614374D01*
X121633777Y-118614385D01*
X121638107Y-118618715D01*
X121638108Y-118618716D01*
X121749912Y-118730520D01*
X121836723Y-118780639D01*
X121836725Y-118780641D01*
X121874779Y-118802611D01*
X121886843Y-118809577D01*
X122039571Y-118850501D01*
X122039574Y-118850501D01*
X122205281Y-118850501D01*
X122205297Y-118850500D01*
X168713331Y-118850500D01*
X168713347Y-118850501D01*
X168720943Y-118850501D01*
X168879054Y-118850501D01*
X168879057Y-118850501D01*
X169031785Y-118809577D01*
X169081904Y-118780639D01*
X169168716Y-118730520D01*
X169280520Y-118618716D01*
X169280520Y-118618714D01*
X169290728Y-118608507D01*
X169290730Y-118608504D01*
X172558506Y-115340728D01*
X172558511Y-115340724D01*
X172568714Y-115330520D01*
X172568716Y-115330520D01*
X172680520Y-115218716D01*
X172703335Y-115179199D01*
X172742276Y-115111751D01*
X172742276Y-115111749D01*
X172748772Y-115100499D01*
X172759577Y-115081785D01*
X172794541Y-114951294D01*
X172795556Y-114948180D01*
X172813506Y-114921968D01*
X172830048Y-114894831D01*
X172833111Y-114893342D01*
X172835036Y-114890533D01*
X172864313Y-114878185D01*
X172892895Y-114864301D01*
X172896276Y-114864705D01*
X172899414Y-114863382D01*
X172930712Y-114868822D01*
X172962271Y-114872595D01*
X172965675Y-114874899D01*
X172968252Y-114875347D01*
X172973601Y-114880263D01*
X173001140Y-114898903D01*
X173067927Y-114965690D01*
X173067930Y-114965692D01*
X173067933Y-114965694D01*
X173114713Y-114999683D01*
X173157379Y-115055013D01*
X173163357Y-115124626D01*
X173130751Y-115186421D01*
X173114713Y-115200317D01*
X173067933Y-115234305D01*
X173067924Y-115234312D01*
X172934312Y-115367924D01*
X172934312Y-115367925D01*
X172934310Y-115367927D01*
X172915151Y-115394297D01*
X172823240Y-115520800D01*
X172737454Y-115689163D01*
X172679059Y-115868881D01*
X172649500Y-116055513D01*
X172649500Y-116844486D01*
X172679059Y-117031118D01*
X172737454Y-117210836D01*
X172786580Y-117307250D01*
X172823240Y-117379199D01*
X172934310Y-117532073D01*
X173067927Y-117665690D01*
X173220801Y-117776760D01*
X173300347Y-117817290D01*
X173389163Y-117862545D01*
X173389165Y-117862545D01*
X173389168Y-117862547D01*
X173476986Y-117891081D01*
X173568881Y-117920940D01*
X173755514Y-117950500D01*
X173755519Y-117950500D01*
X173944486Y-117950500D01*
X174131118Y-117920940D01*
X174310832Y-117862547D01*
X174479199Y-117776760D01*
X174632073Y-117665690D01*
X174765690Y-117532073D01*
X174876760Y-117379199D01*
X174962547Y-117210832D01*
X175020940Y-117031118D01*
X175034662Y-116944481D01*
X175050500Y-116844486D01*
X175050500Y-116055513D01*
X175020940Y-115868881D01*
X174962545Y-115689163D01*
X174900374Y-115567146D01*
X174876760Y-115520801D01*
X174765690Y-115367927D01*
X174632073Y-115234310D01*
X174585286Y-115200317D01*
X174542621Y-115144988D01*
X174536642Y-115075375D01*
X174569248Y-115013580D01*
X174585287Y-114999682D01*
X174592652Y-114994331D01*
X174632073Y-114965690D01*
X174765690Y-114832073D01*
X174876760Y-114679199D01*
X174962547Y-114510832D01*
X175020940Y-114331118D01*
X175028487Y-114283466D01*
X175050500Y-114144486D01*
X175050500Y-113355513D01*
X175020940Y-113168881D01*
X174993194Y-113083489D01*
X174962547Y-112989168D01*
X174962545Y-112989165D01*
X174962545Y-112989163D01*
X174904567Y-112875375D01*
X174876760Y-112820801D01*
X174765690Y-112667927D01*
X174632073Y-112534310D01*
X174585286Y-112500317D01*
X174542621Y-112444988D01*
X174536642Y-112375375D01*
X174569248Y-112313580D01*
X174585287Y-112299682D01*
X174632073Y-112265690D01*
X174765690Y-112132073D01*
X174876760Y-111979199D01*
X174962547Y-111810832D01*
X175020940Y-111631118D01*
X175032158Y-111560289D01*
X175050500Y-111444486D01*
X175050500Y-110655513D01*
X175020940Y-110468881D01*
X174979259Y-110340601D01*
X174962547Y-110289168D01*
X174962545Y-110289165D01*
X174962545Y-110289163D01*
X174917290Y-110200347D01*
X174876760Y-110120801D01*
X174765690Y-109967927D01*
X174632073Y-109834310D01*
X174479199Y-109723240D01*
X174478706Y-109722989D01*
X174310836Y-109637454D01*
X174131118Y-109579059D01*
X173944486Y-109549500D01*
X173944481Y-109549500D01*
X173755519Y-109549500D01*
X173755514Y-109549500D01*
X173568881Y-109579059D01*
X173389163Y-109637454D01*
X173220800Y-109723240D01*
X173190318Y-109745387D01*
X173067927Y-109834310D01*
X173067925Y-109834312D01*
X173067924Y-109834312D01*
X173012181Y-109890056D01*
X172950858Y-109923541D01*
X172881166Y-109918557D01*
X172825233Y-109876685D01*
X172800816Y-109811221D01*
X172800500Y-109802375D01*
X172800500Y-104448989D01*
X172820185Y-104381950D01*
X172851616Y-104348670D01*
X172862892Y-104340478D01*
X172949501Y-104277553D01*
X173037319Y-104189735D01*
X173098642Y-104156250D01*
X173168334Y-104161234D01*
X173212681Y-104189735D01*
X173300500Y-104277554D01*
X173300505Y-104277558D01*
X173414376Y-104360289D01*
X173447006Y-104383996D01*
X173522994Y-104422714D01*
X173608360Y-104466211D01*
X173608363Y-104466212D01*
X173694476Y-104494191D01*
X173780591Y-104522171D01*
X173863429Y-104535291D01*
X173959449Y-104550500D01*
X173959454Y-104550500D01*
X174140551Y-104550500D01*
X174227259Y-104536765D01*
X174319409Y-104522171D01*
X174491639Y-104466211D01*
X174652994Y-104383996D01*
X174799501Y-104277553D01*
X174927553Y-104149501D01*
X175033996Y-104002994D01*
X175116211Y-103841639D01*
X175172171Y-103669409D01*
X175193066Y-103537483D01*
X175200500Y-103490551D01*
X175200500Y-102609448D01*
X175184019Y-102505397D01*
X175172171Y-102430591D01*
X175129578Y-102299500D01*
X175116212Y-102258363D01*
X175116211Y-102258360D01*
X175079282Y-102185884D01*
X175033996Y-102097006D01*
X175020396Y-102078287D01*
X174927558Y-101950505D01*
X174927554Y-101950500D01*
X174799499Y-101822445D01*
X174799494Y-101822441D01*
X174652997Y-101716006D01*
X174652996Y-101716005D01*
X174652994Y-101716004D01*
X174601300Y-101689664D01*
X174491639Y-101633788D01*
X174491636Y-101633787D01*
X174319410Y-101577829D01*
X174140551Y-101549500D01*
X174140546Y-101549500D01*
X173959454Y-101549500D01*
X173959449Y-101549500D01*
X173780589Y-101577829D01*
X173608363Y-101633787D01*
X173608360Y-101633788D01*
X173447002Y-101716006D01*
X173300505Y-101822441D01*
X173300500Y-101822445D01*
X173212681Y-101910265D01*
X173151358Y-101943750D01*
X173081666Y-101938766D01*
X173037319Y-101910265D01*
X172949499Y-101822445D01*
X172949494Y-101822441D01*
X172802997Y-101716006D01*
X172802996Y-101716005D01*
X172802994Y-101716004D01*
X172751300Y-101689664D01*
X172641639Y-101633788D01*
X172641636Y-101633787D01*
X172469410Y-101577829D01*
X172290551Y-101549500D01*
X172290546Y-101549500D01*
X172109454Y-101549500D01*
X172109449Y-101549500D01*
X171930589Y-101577829D01*
X171758363Y-101633787D01*
X171758360Y-101633788D01*
X171597002Y-101716006D01*
X171450505Y-101822441D01*
X171450500Y-101822445D01*
X171322445Y-101950500D01*
X171322441Y-101950505D01*
X171216006Y-102097002D01*
X171133788Y-102258360D01*
X171133787Y-102258363D01*
X171077829Y-102430589D01*
X171049500Y-102609448D01*
X171049500Y-103490551D01*
X171077829Y-103669410D01*
X171133787Y-103841636D01*
X171133788Y-103841639D01*
X171178393Y-103929179D01*
X171203677Y-103978802D01*
X171216006Y-104002997D01*
X171322441Y-104149494D01*
X171322445Y-104149499D01*
X171450502Y-104277556D01*
X171548384Y-104348670D01*
X171591051Y-104404000D01*
X171599500Y-104448989D01*
X171599500Y-112693796D01*
X171579815Y-112760835D01*
X171527011Y-112806590D01*
X171457853Y-112816534D01*
X171394297Y-112787509D01*
X171387819Y-112781477D01*
X171316930Y-112710588D01*
X171316928Y-112710586D01*
X171176788Y-112608768D01*
X171022445Y-112530127D01*
X170857701Y-112476598D01*
X170857699Y-112476597D01*
X170857698Y-112476597D01*
X170721090Y-112454961D01*
X170686611Y-112449500D01*
X170513389Y-112449500D01*
X170478910Y-112454961D01*
X170342302Y-112476597D01*
X170177552Y-112530128D01*
X170023211Y-112608768D01*
X169967149Y-112649500D01*
X169883072Y-112710586D01*
X169883070Y-112710588D01*
X169883069Y-112710588D01*
X169760588Y-112833069D01*
X169760588Y-112833070D01*
X169760586Y-112833072D01*
X169729851Y-112875375D01*
X169658768Y-112973211D01*
X169580128Y-113127552D01*
X169526597Y-113292302D01*
X169499500Y-113463389D01*
X169499500Y-113636611D01*
X169526598Y-113807701D01*
X169580127Y-113972445D01*
X169658768Y-114126788D01*
X169760586Y-114266928D01*
X169883072Y-114389414D01*
X170023212Y-114491232D01*
X170177555Y-114569873D01*
X170342299Y-114623402D01*
X170513389Y-114650500D01*
X170513390Y-114650500D01*
X170686610Y-114650500D01*
X170686611Y-114650500D01*
X170857701Y-114623402D01*
X171022445Y-114569873D01*
X171176788Y-114491232D01*
X171316928Y-114389414D01*
X171387819Y-114318523D01*
X171407255Y-114307910D01*
X171423989Y-114293410D01*
X171437320Y-114291493D01*
X171449142Y-114285038D01*
X171471228Y-114286617D01*
X171493147Y-114283466D01*
X171505398Y-114289061D01*
X171518834Y-114290022D01*
X171536560Y-114303292D01*
X171556703Y-114312491D01*
X171563985Y-114323822D01*
X171574767Y-114331894D01*
X171582504Y-114352639D01*
X171594477Y-114371269D01*
X171597628Y-114393187D01*
X171599184Y-114397358D01*
X171599500Y-114406204D01*
X171599500Y-114549903D01*
X171579815Y-114616942D01*
X171563181Y-114637584D01*
X168587584Y-117613181D01*
X168526261Y-117646666D01*
X168499903Y-117649500D01*
X160642337Y-117649500D01*
X160575298Y-117629815D01*
X160529543Y-117577011D01*
X160519599Y-117507853D01*
X160531852Y-117469205D01*
X160612545Y-117310836D01*
X160612545Y-117310835D01*
X160612547Y-117310832D01*
X160670940Y-117131118D01*
X160678386Y-117084108D01*
X160700500Y-116944486D01*
X160700500Y-116755513D01*
X160670940Y-116568881D01*
X160612545Y-116389163D01*
X160581423Y-116328083D01*
X160526760Y-116220801D01*
X160524976Y-116218345D01*
X160509748Y-116197385D01*
X160486268Y-116131579D01*
X160502094Y-116063525D01*
X160552199Y-116014830D01*
X160610066Y-116000500D01*
X161013331Y-116000500D01*
X161013347Y-116000501D01*
X161020943Y-116000501D01*
X161179054Y-116000501D01*
X161179057Y-116000501D01*
X161331785Y-115959577D01*
X161418387Y-115909577D01*
X161468716Y-115880520D01*
X161580520Y-115768716D01*
X161580520Y-115768714D01*
X161590724Y-115758511D01*
X161590728Y-115758506D01*
X162558506Y-114790728D01*
X162558511Y-114790724D01*
X162568714Y-114780520D01*
X162568716Y-114780520D01*
X162680520Y-114668716D01*
X162752099Y-114544737D01*
X162759577Y-114531785D01*
X162800501Y-114379057D01*
X162800501Y-114220943D01*
X162800501Y-114213348D01*
X162800500Y-114213330D01*
X162800500Y-111615784D01*
X162820185Y-111548745D01*
X162836819Y-111528103D01*
X162977136Y-111387785D01*
X162977139Y-111387782D01*
X163086632Y-111223914D01*
X163162051Y-111041835D01*
X163176110Y-110971157D01*
X163200500Y-110848543D01*
X163200500Y-109851456D01*
X163162052Y-109658170D01*
X163162051Y-109658169D01*
X163162051Y-109658165D01*
X163149643Y-109628210D01*
X163086635Y-109476092D01*
X163086628Y-109476079D01*
X162977139Y-109312218D01*
X162977136Y-109312214D01*
X162837785Y-109172863D01*
X162837781Y-109172860D01*
X162673920Y-109063371D01*
X162673907Y-109063364D01*
X162491839Y-108987950D01*
X162491829Y-108987947D01*
X162298543Y-108949500D01*
X162298541Y-108949500D01*
X162101459Y-108949500D01*
X162101457Y-108949500D01*
X161908170Y-108987947D01*
X161908160Y-108987950D01*
X161726092Y-109063364D01*
X161726079Y-109063371D01*
X161562218Y-109172860D01*
X161562214Y-109172863D01*
X161422863Y-109312214D01*
X161422860Y-109312218D01*
X161313371Y-109476079D01*
X161313364Y-109476092D01*
X161237950Y-109658160D01*
X161237947Y-109658170D01*
X161199500Y-109851456D01*
X161199500Y-109851459D01*
X161199500Y-110848541D01*
X161199500Y-110848543D01*
X161199499Y-110848543D01*
X161237947Y-111041829D01*
X161237950Y-111041839D01*
X161313364Y-111223907D01*
X161313371Y-111223920D01*
X161422860Y-111387781D01*
X161422863Y-111387785D01*
X161563181Y-111528103D01*
X161596666Y-111589426D01*
X161599500Y-111615784D01*
X161599500Y-113999903D01*
X161579815Y-114066942D01*
X161563181Y-114087584D01*
X160887584Y-114763181D01*
X160826261Y-114796666D01*
X160799903Y-114799500D01*
X157581418Y-114799500D01*
X157514379Y-114779815D01*
X157468624Y-114727011D01*
X157458680Y-114657853D01*
X157460910Y-114647818D01*
X157460863Y-114647809D01*
X157500500Y-114448543D01*
X157500500Y-113451456D01*
X157462052Y-113258170D01*
X157462051Y-113258169D01*
X157462051Y-113258165D01*
X157425069Y-113168881D01*
X157386635Y-113076092D01*
X157386628Y-113076079D01*
X157277139Y-112912218D01*
X157277136Y-112912214D01*
X157137785Y-112772863D01*
X157137781Y-112772860D01*
X156973920Y-112663371D01*
X156973907Y-112663364D01*
X156791839Y-112587950D01*
X156791829Y-112587947D01*
X156598543Y-112549500D01*
X156598541Y-112549500D01*
X156401459Y-112549500D01*
X156401454Y-112549500D01*
X156298691Y-112569941D01*
X156229099Y-112563714D01*
X156173922Y-112520851D01*
X156150678Y-112454961D01*
X156150500Y-112448324D01*
X156150500Y-109690902D01*
X156170185Y-109623863D01*
X156222989Y-109578108D01*
X156292147Y-109568164D01*
X156321952Y-109576341D01*
X156408160Y-109612049D01*
X156408165Y-109612051D01*
X156408169Y-109612051D01*
X156408170Y-109612052D01*
X156601456Y-109650500D01*
X156601459Y-109650500D01*
X156798543Y-109650500D01*
X156938556Y-109622649D01*
X156991835Y-109612051D01*
X157164320Y-109540606D01*
X157173907Y-109536635D01*
X157173907Y-109536634D01*
X157173914Y-109536632D01*
X157264538Y-109476079D01*
X157331109Y-109431598D01*
X157397787Y-109410720D01*
X157465167Y-109429204D01*
X157468891Y-109431598D01*
X157626079Y-109536628D01*
X157626092Y-109536635D01*
X157808160Y-109612049D01*
X157808165Y-109612051D01*
X157808169Y-109612051D01*
X157808170Y-109612052D01*
X158001456Y-109650500D01*
X158175500Y-109650500D01*
X158242539Y-109670185D01*
X158288294Y-109722989D01*
X158299500Y-109774500D01*
X158299500Y-109964486D01*
X158329059Y-110151118D01*
X158387454Y-110330836D01*
X158464095Y-110481251D01*
X158473240Y-110499199D01*
X158584310Y-110652073D01*
X158717927Y-110785690D01*
X158870801Y-110896760D01*
X158950347Y-110937290D01*
X159039163Y-110982545D01*
X159039165Y-110982545D01*
X159039168Y-110982547D01*
X159135497Y-111013846D01*
X159218881Y-111040940D01*
X159405514Y-111070500D01*
X159405519Y-111070500D01*
X159594486Y-111070500D01*
X159781118Y-111040940D01*
X159788649Y-111038493D01*
X159960832Y-110982547D01*
X160129199Y-110896760D01*
X160282073Y-110785690D01*
X160415690Y-110652073D01*
X160526760Y-110499199D01*
X160612547Y-110330832D01*
X160670940Y-110151118D01*
X160680151Y-110092961D01*
X160700500Y-109964486D01*
X160700500Y-109775513D01*
X160670940Y-109588881D01*
X160643846Y-109505497D01*
X160612547Y-109409168D01*
X160612545Y-109409165D01*
X160612545Y-109409163D01*
X160526759Y-109240800D01*
X160415690Y-109087927D01*
X160282073Y-108954310D01*
X160129199Y-108843240D01*
X160119492Y-108838294D01*
X159960836Y-108757454D01*
X159781118Y-108699059D01*
X159594486Y-108669500D01*
X159594481Y-108669500D01*
X159405519Y-108669500D01*
X159405514Y-108669500D01*
X159243898Y-108695097D01*
X159174604Y-108686142D01*
X159121152Y-108641146D01*
X159100513Y-108574394D01*
X159100500Y-108572624D01*
X159100500Y-107751456D01*
X159062052Y-107558170D01*
X159062051Y-107558169D01*
X159062051Y-107558165D01*
X159035262Y-107493489D01*
X158986635Y-107376092D01*
X158986628Y-107376079D01*
X158877139Y-107212218D01*
X158877136Y-107212214D01*
X158737785Y-107072863D01*
X158737781Y-107072860D01*
X158573920Y-106963371D01*
X158573907Y-106963364D01*
X158391839Y-106887950D01*
X158391829Y-106887947D01*
X158198543Y-106849500D01*
X158198541Y-106849500D01*
X158001459Y-106849500D01*
X158001457Y-106849500D01*
X157808170Y-106887947D01*
X157808160Y-106887950D01*
X157626092Y-106963364D01*
X157626074Y-106963374D01*
X157468890Y-107068401D01*
X157402213Y-107089279D01*
X157334833Y-107070794D01*
X157331110Y-107068401D01*
X157173925Y-106963374D01*
X157173907Y-106963364D01*
X156991839Y-106887950D01*
X156991829Y-106887947D01*
X156798543Y-106849500D01*
X156798541Y-106849500D01*
X156601459Y-106849500D01*
X156599097Y-106849500D01*
X156532058Y-106829815D01*
X156486303Y-106777011D01*
X156476359Y-106707853D01*
X156505384Y-106644297D01*
X156511416Y-106637819D01*
X156878409Y-106270827D01*
X157512417Y-105636819D01*
X157573740Y-105603334D01*
X157600098Y-105600500D01*
X158132351Y-105600500D01*
X158199390Y-105620185D01*
X158245145Y-105672989D01*
X158255089Y-105742147D01*
X158253969Y-105748690D01*
X158249500Y-105771158D01*
X158249500Y-105928846D01*
X158280261Y-106083489D01*
X158280264Y-106083501D01*
X158340602Y-106229172D01*
X158340609Y-106229185D01*
X158428210Y-106360288D01*
X158428213Y-106360292D01*
X158539707Y-106471786D01*
X158539711Y-106471789D01*
X158670814Y-106559390D01*
X158670827Y-106559397D01*
X158808695Y-106616503D01*
X158816503Y-106619737D01*
X158939974Y-106644297D01*
X158971153Y-106650499D01*
X158971156Y-106650500D01*
X158971158Y-106650500D01*
X159128844Y-106650500D01*
X159128845Y-106650499D01*
X159283497Y-106619737D01*
X159429179Y-106559394D01*
X159529422Y-106492414D01*
X159560875Y-106471398D01*
X159627553Y-106450520D01*
X159629766Y-106450500D01*
X159963331Y-106450500D01*
X159963347Y-106450501D01*
X159970943Y-106450501D01*
X160129054Y-106450501D01*
X160129057Y-106450501D01*
X160249372Y-106418262D01*
X160319219Y-106419925D01*
X160377081Y-106459087D01*
X160387175Y-106474144D01*
X160387221Y-106474114D01*
X160478210Y-106610288D01*
X160478213Y-106610292D01*
X160589707Y-106721786D01*
X160589711Y-106721789D01*
X160720814Y-106809390D01*
X160720827Y-106809397D01*
X160817646Y-106849500D01*
X160866503Y-106869737D01*
X161021153Y-106900499D01*
X161021156Y-106900500D01*
X161021158Y-106900500D01*
X161178844Y-106900500D01*
X161178845Y-106900499D01*
X161333497Y-106869737D01*
X161479179Y-106809394D01*
X161610289Y-106721789D01*
X161721789Y-106610289D01*
X161809394Y-106479179D01*
X161812183Y-106472447D01*
X161821273Y-106450500D01*
X161869737Y-106333497D01*
X161875807Y-106302978D01*
X161908191Y-106241070D01*
X161909687Y-106239546D01*
X163208506Y-104940728D01*
X163208511Y-104940724D01*
X163218714Y-104930520D01*
X163218716Y-104930520D01*
X163330520Y-104818716D01*
X163409577Y-104681784D01*
X163435118Y-104586461D01*
X163444468Y-104551570D01*
X163450499Y-104529060D01*
X163450500Y-104529057D01*
X163450500Y-100629765D01*
X163470185Y-100562726D01*
X163471398Y-100560874D01*
X163559390Y-100429185D01*
X163559390Y-100429184D01*
X163559394Y-100429179D01*
X163619737Y-100283497D01*
X163650500Y-100128842D01*
X163650500Y-99971158D01*
X163650500Y-99971155D01*
X163650499Y-99971153D01*
X163648159Y-99959390D01*
X163619737Y-99816503D01*
X163619735Y-99816498D01*
X163559397Y-99670827D01*
X163559390Y-99670814D01*
X163471789Y-99539711D01*
X163471786Y-99539707D01*
X163360292Y-99428213D01*
X163360288Y-99428210D01*
X163229185Y-99340609D01*
X163229172Y-99340602D01*
X163083501Y-99280264D01*
X163083489Y-99280261D01*
X162928845Y-99249500D01*
X162928842Y-99249500D01*
X162771158Y-99249500D01*
X162771155Y-99249500D01*
X162616510Y-99280261D01*
X162616498Y-99280264D01*
X162470827Y-99340602D01*
X162470814Y-99340609D01*
X162339711Y-99428210D01*
X162339707Y-99428213D01*
X162228213Y-99539707D01*
X162228210Y-99539711D01*
X162140609Y-99670814D01*
X162140604Y-99670823D01*
X162099451Y-99770178D01*
X162055610Y-99824581D01*
X161989316Y-99846646D01*
X161921617Y-99829367D01*
X161874006Y-99778230D01*
X161860890Y-99722725D01*
X161860890Y-98949449D01*
X161860891Y-98949436D01*
X161860891Y-98781335D01*
X161860891Y-98781333D01*
X161819967Y-98628605D01*
X161783053Y-98564669D01*
X161740910Y-98491674D01*
X161696852Y-98447616D01*
X161691160Y-98439808D01*
X161682495Y-98415649D01*
X161670192Y-98393117D01*
X161670894Y-98383300D01*
X161667573Y-98374040D01*
X161673346Y-98349027D01*
X161675178Y-98323425D01*
X161681073Y-98315549D01*
X161683287Y-98305961D01*
X161701667Y-98288040D01*
X161717050Y-98267492D01*
X161724216Y-98262933D01*
X161724114Y-98262779D01*
X161793786Y-98216225D01*
X161860289Y-98171789D01*
X161971789Y-98060289D01*
X162059394Y-97929179D01*
X162119737Y-97783497D01*
X162150500Y-97628842D01*
X162150500Y-97471158D01*
X162150500Y-97471155D01*
X162150499Y-97471153D01*
X162129743Y-97366803D01*
X162135970Y-97297212D01*
X162178833Y-97242034D01*
X162206150Y-97227147D01*
X162216378Y-97223141D01*
X162233497Y-97219737D01*
X162379004Y-97159466D01*
X162380106Y-97159035D01*
X162384228Y-97158672D01*
X162425316Y-97150500D01*
X163408481Y-97150500D01*
X163475520Y-97170185D01*
X163496162Y-97186819D01*
X163863181Y-97553838D01*
X163896666Y-97615161D01*
X163899500Y-97641519D01*
X163899500Y-111931006D01*
X163899500Y-112068994D01*
X163899500Y-112068996D01*
X163899499Y-112068996D01*
X163926418Y-112204322D01*
X163926421Y-112204332D01*
X163979222Y-112331807D01*
X164055887Y-112446545D01*
X164055888Y-112446546D01*
X166113181Y-114503838D01*
X166146666Y-114565161D01*
X166149500Y-114591519D01*
X166149500Y-114644486D01*
X166179059Y-114831118D01*
X166237454Y-115010836D01*
X166323240Y-115179199D01*
X166434310Y-115332073D01*
X166567927Y-115465690D01*
X166720801Y-115576760D01*
X166759869Y-115596666D01*
X166889163Y-115662545D01*
X166889165Y-115662545D01*
X166889168Y-115662547D01*
X166985497Y-115693846D01*
X167068881Y-115720940D01*
X167255514Y-115750500D01*
X167255519Y-115750500D01*
X167444486Y-115750500D01*
X167631118Y-115720940D01*
X167635621Y-115719477D01*
X167810832Y-115662547D01*
X167979199Y-115576760D01*
X168132073Y-115465690D01*
X168265690Y-115332073D01*
X168376760Y-115179199D01*
X168462547Y-115010832D01*
X168520940Y-114831118D01*
X168526397Y-114796666D01*
X168550500Y-114644486D01*
X168550500Y-113855513D01*
X168520940Y-113668881D01*
X168475439Y-113528846D01*
X168462547Y-113489168D01*
X168462545Y-113489165D01*
X168462545Y-113489163D01*
X168402418Y-113371158D01*
X168376760Y-113320801D01*
X168265690Y-113167927D01*
X168132073Y-113034310D01*
X168085286Y-113000317D01*
X168042621Y-112944988D01*
X168036642Y-112875375D01*
X168069248Y-112813580D01*
X168085287Y-112799682D01*
X168132073Y-112765690D01*
X168265690Y-112632073D01*
X168376760Y-112479199D01*
X168462547Y-112310832D01*
X168520940Y-112131118D01*
X168525789Y-112100500D01*
X168550500Y-111944486D01*
X168550500Y-111155513D01*
X168520940Y-110968881D01*
X168481839Y-110848543D01*
X168462547Y-110789168D01*
X168462545Y-110789165D01*
X168462545Y-110789163D01*
X168417290Y-110700347D01*
X168376760Y-110620801D01*
X168265690Y-110467927D01*
X168132073Y-110334310D01*
X167979199Y-110223240D01*
X167810836Y-110137454D01*
X167631118Y-110079059D01*
X167444486Y-110049500D01*
X167444481Y-110049500D01*
X167255519Y-110049500D01*
X167255514Y-110049500D01*
X167068880Y-110079060D01*
X166990827Y-110104421D01*
X166920986Y-110106416D01*
X166864828Y-110074171D01*
X166186819Y-109396162D01*
X166153334Y-109334839D01*
X166150500Y-109308481D01*
X166150500Y-105963389D01*
X167949500Y-105963389D01*
X167949500Y-106136611D01*
X167949991Y-106139711D01*
X167970757Y-106270827D01*
X167976598Y-106307701D01*
X168030127Y-106472445D01*
X168108768Y-106626788D01*
X168210586Y-106766928D01*
X168333072Y-106889414D01*
X168473212Y-106991232D01*
X168627555Y-107069873D01*
X168792299Y-107123402D01*
X168963389Y-107150500D01*
X168963390Y-107150500D01*
X169136610Y-107150500D01*
X169136611Y-107150500D01*
X169307701Y-107123402D01*
X169472445Y-107069873D01*
X169626788Y-106991232D01*
X169766928Y-106889414D01*
X169889414Y-106766928D01*
X169991232Y-106626788D01*
X170069873Y-106472445D01*
X170123402Y-106307701D01*
X170150500Y-106136611D01*
X170150500Y-105963389D01*
X170123402Y-105792299D01*
X170069873Y-105627555D01*
X169991232Y-105473212D01*
X169889414Y-105333072D01*
X169766928Y-105210586D01*
X169626788Y-105108768D01*
X169535257Y-105062131D01*
X169472447Y-105030128D01*
X169472446Y-105030127D01*
X169472445Y-105030127D01*
X169307701Y-104976598D01*
X169307699Y-104976597D01*
X169307698Y-104976597D01*
X169176271Y-104955781D01*
X169136611Y-104949500D01*
X168963389Y-104949500D01*
X168923728Y-104955781D01*
X168792302Y-104976597D01*
X168627552Y-105030128D01*
X168473211Y-105108768D01*
X168402845Y-105159893D01*
X168333072Y-105210586D01*
X168333070Y-105210588D01*
X168333069Y-105210588D01*
X168210588Y-105333069D01*
X168210588Y-105333070D01*
X168210586Y-105333072D01*
X168176663Y-105379763D01*
X168108768Y-105473211D01*
X168030128Y-105627552D01*
X167976597Y-105792302D01*
X167955184Y-105927499D01*
X167949500Y-105963389D01*
X166150500Y-105963389D01*
X166150500Y-104326916D01*
X166170185Y-104259877D01*
X166222989Y-104214122D01*
X166292147Y-104204178D01*
X166355703Y-104233203D01*
X166362181Y-104239235D01*
X166400500Y-104277554D01*
X166400505Y-104277558D01*
X166514376Y-104360289D01*
X166547006Y-104383996D01*
X166622994Y-104422714D01*
X166708360Y-104466211D01*
X166708363Y-104466212D01*
X166794476Y-104494191D01*
X166880591Y-104522171D01*
X166963429Y-104535291D01*
X167059449Y-104550500D01*
X167059454Y-104550500D01*
X167240551Y-104550500D01*
X167327259Y-104536765D01*
X167419409Y-104522171D01*
X167591639Y-104466211D01*
X167752994Y-104383996D01*
X167899501Y-104277553D01*
X168027553Y-104149501D01*
X168133996Y-104002994D01*
X168216211Y-103841639D01*
X168272171Y-103669409D01*
X168293066Y-103537483D01*
X168300500Y-103490551D01*
X168300500Y-102609448D01*
X168284019Y-102505397D01*
X168272171Y-102430591D01*
X168229578Y-102299500D01*
X168216212Y-102258363D01*
X168216211Y-102258360D01*
X168179282Y-102185884D01*
X168133996Y-102097006D01*
X168120396Y-102078287D01*
X168027558Y-101950505D01*
X168027554Y-101950500D01*
X167899499Y-101822445D01*
X167899494Y-101822441D01*
X167752997Y-101716006D01*
X167752996Y-101716005D01*
X167752994Y-101716004D01*
X167701300Y-101689664D01*
X167591639Y-101633788D01*
X167591636Y-101633787D01*
X167419410Y-101577829D01*
X167240551Y-101549500D01*
X167240546Y-101549500D01*
X167059454Y-101549500D01*
X167059449Y-101549500D01*
X166880589Y-101577829D01*
X166708363Y-101633787D01*
X166708360Y-101633788D01*
X166547002Y-101716006D01*
X166400505Y-101822441D01*
X166400500Y-101822445D01*
X166362181Y-101860765D01*
X166300858Y-101894250D01*
X166231166Y-101889266D01*
X166175233Y-101847394D01*
X166150816Y-101781930D01*
X166150500Y-101773084D01*
X166150500Y-101060759D01*
X166170185Y-100993720D01*
X166222989Y-100947965D01*
X166292147Y-100938021D01*
X166343391Y-100957657D01*
X166395214Y-100992284D01*
X166420821Y-101009394D01*
X166420823Y-101009395D01*
X166420827Y-101009397D01*
X166536547Y-101057329D01*
X166566503Y-101069737D01*
X166721153Y-101100499D01*
X166721156Y-101100500D01*
X166721158Y-101100500D01*
X166878844Y-101100500D01*
X166878845Y-101100499D01*
X167033497Y-101069737D01*
X167179179Y-101009394D01*
X167310289Y-100921789D01*
X167421789Y-100810289D01*
X167509394Y-100679179D01*
X167569737Y-100533497D01*
X167600500Y-100378842D01*
X167600500Y-100221158D01*
X167600500Y-100221155D01*
X167600499Y-100221153D01*
X167578447Y-100110292D01*
X167569737Y-100066503D01*
X167569735Y-100066498D01*
X167509397Y-99920827D01*
X167509390Y-99920814D01*
X167421789Y-99789711D01*
X167421786Y-99789707D01*
X167310292Y-99678213D01*
X167310288Y-99678210D01*
X167220429Y-99618168D01*
X167179185Y-99590609D01*
X167179172Y-99590602D01*
X167033501Y-99530264D01*
X167033489Y-99530261D01*
X166987701Y-99521153D01*
X174499500Y-99521153D01*
X174499500Y-99678846D01*
X174530261Y-99833489D01*
X174530264Y-99833501D01*
X174590602Y-99979172D01*
X174590609Y-99979185D01*
X174678210Y-100110288D01*
X174678213Y-100110292D01*
X174789707Y-100221786D01*
X174789711Y-100221789D01*
X174920814Y-100309390D01*
X174920827Y-100309397D01*
X175066498Y-100369735D01*
X175066503Y-100369737D01*
X175216131Y-100399500D01*
X175221153Y-100400499D01*
X175221156Y-100400500D01*
X175221158Y-100400500D01*
X175378844Y-100400500D01*
X175378845Y-100400499D01*
X175533497Y-100369737D01*
X175679179Y-100309394D01*
X175810289Y-100221789D01*
X175921789Y-100110289D01*
X176009394Y-99979179D01*
X176012719Y-99971153D01*
X176053877Y-99871786D01*
X176069737Y-99833497D01*
X176100500Y-99678842D01*
X176100500Y-99521158D01*
X176100500Y-99521155D01*
X176100499Y-99521153D01*
X176096192Y-99499500D01*
X176069737Y-99366503D01*
X176062336Y-99348636D01*
X176009397Y-99220827D01*
X176009390Y-99220814D01*
X175921789Y-99089711D01*
X175921786Y-99089707D01*
X175810292Y-98978213D01*
X175810288Y-98978210D01*
X175679185Y-98890609D01*
X175679172Y-98890602D01*
X175533501Y-98830264D01*
X175533489Y-98830261D01*
X175378845Y-98799500D01*
X175378842Y-98799500D01*
X175221158Y-98799500D01*
X175221155Y-98799500D01*
X175066510Y-98830261D01*
X175066498Y-98830264D01*
X174920827Y-98890602D01*
X174920814Y-98890609D01*
X174789711Y-98978210D01*
X174789707Y-98978213D01*
X174678213Y-99089707D01*
X174678210Y-99089711D01*
X174590609Y-99220814D01*
X174590602Y-99220827D01*
X174530264Y-99366498D01*
X174530261Y-99366510D01*
X174499500Y-99521153D01*
X166987701Y-99521153D01*
X166878845Y-99499500D01*
X166878842Y-99499500D01*
X166721158Y-99499500D01*
X166721155Y-99499500D01*
X166566510Y-99530261D01*
X166566498Y-99530264D01*
X166420827Y-99590602D01*
X166420809Y-99590612D01*
X166343390Y-99642342D01*
X166276713Y-99663220D01*
X166209333Y-99644735D01*
X166162643Y-99592756D01*
X166150500Y-99539240D01*
X166150500Y-95781006D01*
X166148640Y-95771658D01*
X166148639Y-95771653D01*
X166145004Y-95753377D01*
X166123580Y-95645672D01*
X166109167Y-95610875D01*
X166070777Y-95518192D01*
X165994112Y-95403454D01*
X164511811Y-93921153D01*
X168804500Y-93921153D01*
X168804500Y-94078846D01*
X168835261Y-94233489D01*
X168835264Y-94233501D01*
X168895602Y-94379172D01*
X168895609Y-94379185D01*
X168983210Y-94510288D01*
X168983213Y-94510292D01*
X169094707Y-94621786D01*
X169094711Y-94621789D01*
X169225814Y-94709390D01*
X169225827Y-94709397D01*
X169325060Y-94750500D01*
X169371503Y-94769737D01*
X169526153Y-94800499D01*
X169526156Y-94800500D01*
X169526158Y-94800500D01*
X169683844Y-94800500D01*
X169683845Y-94800499D01*
X169838497Y-94769737D01*
X169984179Y-94709394D01*
X170115289Y-94621789D01*
X170226789Y-94510289D01*
X170314394Y-94379179D01*
X170374737Y-94233497D01*
X170405500Y-94078842D01*
X170405500Y-93921158D01*
X170405500Y-93921155D01*
X170405499Y-93921153D01*
X170385734Y-93821789D01*
X170374737Y-93766503D01*
X170355451Y-93719941D01*
X170314397Y-93620827D01*
X170314390Y-93620814D01*
X170226789Y-93489711D01*
X170226786Y-93489707D01*
X170115292Y-93378213D01*
X170115288Y-93378210D01*
X169984185Y-93290609D01*
X169984172Y-93290602D01*
X169838501Y-93230264D01*
X169838489Y-93230261D01*
X169683845Y-93199500D01*
X169683842Y-93199500D01*
X169526158Y-93199500D01*
X169526155Y-93199500D01*
X169371510Y-93230261D01*
X169371498Y-93230264D01*
X169225827Y-93290602D01*
X169225814Y-93290609D01*
X169094711Y-93378210D01*
X169094707Y-93378213D01*
X168983213Y-93489707D01*
X168983210Y-93489711D01*
X168895609Y-93620814D01*
X168895602Y-93620827D01*
X168835264Y-93766498D01*
X168835261Y-93766510D01*
X168804500Y-93921153D01*
X164511811Y-93921153D01*
X164196545Y-93605887D01*
X164081807Y-93529222D01*
X163954332Y-93476421D01*
X163954322Y-93476418D01*
X163818996Y-93449500D01*
X163818994Y-93449500D01*
X163818993Y-93449500D01*
X162390696Y-93449500D01*
X162382519Y-93447873D01*
X162377441Y-93448790D01*
X162343243Y-93440061D01*
X162342388Y-93439707D01*
X162226320Y-93391630D01*
X162171917Y-93347789D01*
X162149852Y-93281495D01*
X162159212Y-93229616D01*
X162159391Y-93229182D01*
X162159394Y-93229179D01*
X162219737Y-93083497D01*
X162250500Y-92928842D01*
X162250500Y-92771158D01*
X162250500Y-92771155D01*
X162250499Y-92771153D01*
X162232204Y-92679179D01*
X162219737Y-92616503D01*
X162159394Y-92470821D01*
X162121396Y-92413953D01*
X162100520Y-92347276D01*
X162100500Y-92345064D01*
X162100500Y-92085928D01*
X162075502Y-91960261D01*
X162075501Y-91960260D01*
X162075501Y-91960256D01*
X162026465Y-91841873D01*
X162014212Y-91823535D01*
X161955276Y-91735330D01*
X161955274Y-91735327D01*
X161314673Y-91094726D01*
X161314669Y-91094723D01*
X161208127Y-91023535D01*
X161186860Y-91014726D01*
X161089744Y-90974499D01*
X161089738Y-90974497D01*
X160964071Y-90949500D01*
X160964069Y-90949500D01*
X157035931Y-90949500D01*
X157035929Y-90949500D01*
X156910261Y-90974497D01*
X156910255Y-90974499D01*
X156791874Y-91023534D01*
X156685326Y-91094726D01*
X156685325Y-91094727D01*
X156347761Y-91432292D01*
X156286438Y-91465777D01*
X156216746Y-91460793D01*
X156172399Y-91432292D01*
X155754833Y-91014726D01*
X155701128Y-90978842D01*
X155648287Y-90943535D01*
X155648284Y-90943533D01*
X155648283Y-90943533D01*
X155614711Y-90929627D01*
X155614710Y-90929627D01*
X155529904Y-90894499D01*
X155529898Y-90894497D01*
X155404231Y-90869500D01*
X155404229Y-90869500D01*
X141515931Y-90869500D01*
X141515929Y-90869500D01*
X141390261Y-90894497D01*
X141390251Y-90894500D01*
X141271952Y-90943501D01*
X141202483Y-90950970D01*
X141140004Y-90919694D01*
X141104352Y-90859605D01*
X141100500Y-90828940D01*
X141100500Y-90821153D01*
X168764500Y-90821153D01*
X168764500Y-90978846D01*
X168795261Y-91133489D01*
X168795264Y-91133501D01*
X168855602Y-91279172D01*
X168855609Y-91279185D01*
X168943210Y-91410288D01*
X168943213Y-91410292D01*
X169054707Y-91521786D01*
X169054711Y-91521789D01*
X169185814Y-91609390D01*
X169185827Y-91609397D01*
X169331498Y-91669735D01*
X169331503Y-91669737D01*
X169486153Y-91700499D01*
X169486156Y-91700500D01*
X169486158Y-91700500D01*
X169643844Y-91700500D01*
X169643845Y-91700499D01*
X169798497Y-91669737D01*
X169944179Y-91609394D01*
X170075289Y-91521789D01*
X170186789Y-91410289D01*
X170274394Y-91279179D01*
X170334737Y-91133497D01*
X170365500Y-90978842D01*
X170365500Y-90821158D01*
X170365500Y-90821155D01*
X170365499Y-90821153D01*
X170355553Y-90771153D01*
X170334737Y-90666503D01*
X170334735Y-90666498D01*
X170274397Y-90520827D01*
X170274390Y-90520814D01*
X170186789Y-90389711D01*
X170186786Y-90389707D01*
X170075292Y-90278213D01*
X170075288Y-90278210D01*
X169944185Y-90190609D01*
X169944172Y-90190602D01*
X169798501Y-90130264D01*
X169798489Y-90130261D01*
X169643845Y-90099500D01*
X169643842Y-90099500D01*
X169486158Y-90099500D01*
X169486155Y-90099500D01*
X169331510Y-90130261D01*
X169331498Y-90130264D01*
X169185827Y-90190602D01*
X169185814Y-90190609D01*
X169054711Y-90278210D01*
X169054707Y-90278213D01*
X168943213Y-90389707D01*
X168943210Y-90389711D01*
X168855609Y-90520814D01*
X168855602Y-90520827D01*
X168795264Y-90666498D01*
X168795261Y-90666510D01*
X168764500Y-90821153D01*
X141100500Y-90821153D01*
X141100500Y-90721155D01*
X141100499Y-90721153D01*
X141079684Y-90616510D01*
X141069737Y-90566503D01*
X141030102Y-90470814D01*
X141009397Y-90420827D01*
X141009390Y-90420814D01*
X140921789Y-90289711D01*
X140921786Y-90289707D01*
X140810292Y-90178213D01*
X140810288Y-90178210D01*
X140679185Y-90090609D01*
X140679172Y-90090602D01*
X140533501Y-90030264D01*
X140533489Y-90030261D01*
X140378845Y-89999500D01*
X140378842Y-89999500D01*
X140221158Y-89999500D01*
X140221155Y-89999500D01*
X140066510Y-90030261D01*
X140066498Y-90030264D01*
X139920827Y-90090602D01*
X139920814Y-90090609D01*
X139789711Y-90178210D01*
X139789707Y-90178213D01*
X139678213Y-90289707D01*
X139678210Y-90289711D01*
X139590609Y-90420814D01*
X139590602Y-90420827D01*
X139530264Y-90566498D01*
X139530261Y-90566510D01*
X139499500Y-90721153D01*
X139499500Y-90878846D01*
X139530261Y-91033489D01*
X139530264Y-91033501D01*
X139590602Y-91179172D01*
X139590609Y-91179185D01*
X139678210Y-91310288D01*
X139678213Y-91310292D01*
X139789707Y-91421786D01*
X139789711Y-91421789D01*
X139920814Y-91509390D01*
X139920827Y-91509397D01*
X140066498Y-91569735D01*
X140066503Y-91569737D01*
X140221153Y-91600499D01*
X140221156Y-91600500D01*
X140280191Y-91600500D01*
X140347230Y-91620185D01*
X140392985Y-91672989D01*
X140402929Y-91742147D01*
X140373904Y-91805703D01*
X140367872Y-91812181D01*
X139211324Y-92968728D01*
X137144726Y-95035326D01*
X137092114Y-95114068D01*
X137092112Y-95114070D01*
X137073539Y-95141864D01*
X137073533Y-95141875D01*
X137024499Y-95260255D01*
X137024497Y-95260261D01*
X136999500Y-95385928D01*
X136999500Y-98714071D01*
X137006809Y-98750815D01*
X137022613Y-98830263D01*
X137023091Y-98832667D01*
X137024498Y-98839742D01*
X137037372Y-98870821D01*
X137073535Y-98958127D01*
X137144723Y-99064669D01*
X137144726Y-99064673D01*
X137144727Y-99064674D01*
X138832983Y-100752929D01*
X138866468Y-100814252D01*
X138866919Y-100816418D01*
X138880261Y-100883491D01*
X138880263Y-100883499D01*
X138940602Y-101029172D01*
X138940609Y-101029185D01*
X139028210Y-101160288D01*
X139028213Y-101160292D01*
X139139707Y-101271786D01*
X139139706Y-101271786D01*
X139140628Y-101272402D01*
X139141747Y-101273149D01*
X139142575Y-101274139D01*
X139144419Y-101275653D01*
X139144132Y-101276002D01*
X139186554Y-101326759D01*
X139195264Y-101396084D01*
X139165112Y-101459113D01*
X139125774Y-101486955D01*
X139126191Y-101487736D01*
X139120814Y-101490609D01*
X138989711Y-101578210D01*
X138989707Y-101578213D01*
X138878213Y-101689707D01*
X138878210Y-101689711D01*
X138790609Y-101820814D01*
X138790602Y-101820827D01*
X138730264Y-101966498D01*
X138730261Y-101966510D01*
X138699500Y-102121153D01*
X138699500Y-102278846D01*
X138730261Y-102433489D01*
X138730264Y-102433501D01*
X138790602Y-102579172D01*
X138790609Y-102579185D01*
X138878210Y-102710288D01*
X138878213Y-102710292D01*
X138989707Y-102821786D01*
X138989711Y-102821789D01*
X139120814Y-102909390D01*
X139120827Y-102909397D01*
X139266498Y-102969735D01*
X139266503Y-102969737D01*
X139393699Y-102995038D01*
X139421153Y-103000499D01*
X139421156Y-103000500D01*
X139421158Y-103000500D01*
X139578843Y-103000500D01*
X139606300Y-102995038D01*
X139617847Y-102992741D01*
X139687439Y-102998968D01*
X139742617Y-103041830D01*
X139756601Y-103066906D01*
X139803102Y-103179172D01*
X139803109Y-103179185D01*
X139890710Y-103310288D01*
X139890713Y-103310292D01*
X140002207Y-103421786D01*
X140002211Y-103421789D01*
X140133314Y-103509390D01*
X140133327Y-103509397D01*
X140278998Y-103569735D01*
X140279003Y-103569737D01*
X140433653Y-103600499D01*
X140433656Y-103600500D01*
X140433658Y-103600500D01*
X140591344Y-103600500D01*
X140591345Y-103600499D01*
X140745997Y-103569737D01*
X140870108Y-103518329D01*
X140891672Y-103509397D01*
X140891672Y-103509396D01*
X140891679Y-103509394D01*
X141022789Y-103421789D01*
X141134289Y-103310289D01*
X141221894Y-103179179D01*
X141221895Y-103179176D01*
X141221897Y-103179173D01*
X141262444Y-103081282D01*
X141267447Y-103069202D01*
X141311287Y-103014799D01*
X141377581Y-102992734D01*
X141406197Y-102995037D01*
X141433658Y-103000500D01*
X141591344Y-103000500D01*
X141591345Y-103000499D01*
X141745997Y-102969737D01*
X141891679Y-102909394D01*
X142022789Y-102821789D01*
X142134289Y-102710289D01*
X142221894Y-102579179D01*
X142282237Y-102433497D01*
X142313000Y-102278842D01*
X142313000Y-102121158D01*
X142313000Y-102121155D01*
X142312999Y-102121153D01*
X142305718Y-102084548D01*
X142282237Y-101966503D01*
X142282235Y-101966498D01*
X142221897Y-101820827D01*
X142221890Y-101820814D01*
X142134289Y-101689711D01*
X142134286Y-101689707D01*
X142022792Y-101578213D01*
X142022788Y-101578210D01*
X141891685Y-101490609D01*
X141891672Y-101490602D01*
X141746001Y-101430264D01*
X141745989Y-101430261D01*
X141591345Y-101399500D01*
X141591342Y-101399500D01*
X141433658Y-101399500D01*
X141430348Y-101399500D01*
X141399892Y-101390557D01*
X141368989Y-101383255D01*
X141366602Y-101380782D01*
X141363309Y-101379815D01*
X141342527Y-101355832D01*
X141320473Y-101332976D01*
X141318928Y-101328596D01*
X141317554Y-101327011D01*
X141308731Y-101299693D01*
X141290735Y-101209224D01*
X141284805Y-101179414D01*
X141291032Y-101109824D01*
X141303314Y-101086340D01*
X141366157Y-100992291D01*
X141426500Y-100846609D01*
X141457263Y-100691954D01*
X141457263Y-100534270D01*
X141457263Y-100534267D01*
X141457262Y-100534265D01*
X141436575Y-100430264D01*
X141426500Y-100379615D01*
X141426498Y-100379610D01*
X141366160Y-100233940D01*
X141366159Y-100233939D01*
X141366157Y-100233933D01*
X141328159Y-100177065D01*
X141307283Y-100110388D01*
X141307263Y-100108176D01*
X141307263Y-99592691D01*
X141282265Y-99467024D01*
X141282264Y-99467023D01*
X141282264Y-99467019D01*
X141233228Y-99348636D01*
X141233227Y-99348635D01*
X141233224Y-99348629D01*
X141162040Y-99242095D01*
X141139680Y-99219735D01*
X141071432Y-99151487D01*
X140882125Y-98962180D01*
X140848640Y-98900857D01*
X140853624Y-98831165D01*
X140895496Y-98775232D01*
X140960960Y-98750815D01*
X140969806Y-98750499D01*
X140969948Y-98750499D01*
X140969968Y-98750500D01*
X140976082Y-98750500D01*
X141123919Y-98750500D01*
X141128530Y-98749582D01*
X141143422Y-98746620D01*
X141154998Y-98744881D01*
X141202797Y-98739999D01*
X141241976Y-98727016D01*
X141268913Y-98721658D01*
X141311977Y-98703819D01*
X141369334Y-98684814D01*
X141392788Y-98670347D01*
X141405495Y-98665084D01*
X141455599Y-98631605D01*
X141518656Y-98592712D01*
X141642712Y-98468656D01*
X141681605Y-98405599D01*
X141715084Y-98355495D01*
X141720347Y-98342788D01*
X141734814Y-98319334D01*
X141753819Y-98261977D01*
X141771658Y-98218913D01*
X141777016Y-98191976D01*
X141789999Y-98152797D01*
X141794881Y-98104999D01*
X141796623Y-98093407D01*
X141800500Y-98073921D01*
X141800500Y-97901420D01*
X141800499Y-97901414D01*
X141800500Y-97579187D01*
X141800500Y-97250500D01*
X141800500Y-97176082D01*
X141800500Y-97166093D01*
X141800499Y-97166079D01*
X141800499Y-96583486D01*
X141800499Y-96573922D01*
X141800500Y-96573918D01*
X141800500Y-96426082D01*
X141795477Y-96400831D01*
X141789999Y-96347203D01*
X141789998Y-96347200D01*
X141789997Y-96347195D01*
X141779430Y-96315308D01*
X141777016Y-96308023D01*
X141771658Y-96281087D01*
X141753819Y-96238022D01*
X141734814Y-96180666D01*
X141720347Y-96157211D01*
X141715084Y-96144505D01*
X141681605Y-96094400D01*
X141642712Y-96031344D01*
X141518656Y-95907288D01*
X141518655Y-95907287D01*
X141457513Y-95869574D01*
X141457513Y-95869573D01*
X141455569Y-95868374D01*
X141405495Y-95834916D01*
X141392790Y-95829652D01*
X141384332Y-95824436D01*
X141369335Y-95815186D01*
X141353471Y-95809929D01*
X141311977Y-95796180D01*
X141268913Y-95778342D01*
X141241981Y-95772984D01*
X141234700Y-95770571D01*
X141234695Y-95770570D01*
X141202799Y-95760001D01*
X141202794Y-95760000D01*
X141154996Y-95755117D01*
X141143412Y-95753377D01*
X141123918Y-95749500D01*
X140976082Y-95749500D01*
X140976081Y-95749500D01*
X140423922Y-95749500D01*
X140423918Y-95749500D01*
X140276082Y-95749500D01*
X140276079Y-95749500D01*
X140256579Y-95753378D01*
X140250824Y-95754522D01*
X140197203Y-95760001D01*
X140158023Y-95772983D01*
X140154439Y-95773696D01*
X140150493Y-95774481D01*
X140150492Y-95774480D01*
X140131088Y-95778341D01*
X140131086Y-95778342D01*
X140092187Y-95794454D01*
X140083741Y-95797597D01*
X140030671Y-95815183D01*
X140030660Y-95815188D01*
X140015666Y-95824435D01*
X140015667Y-95824436D01*
X140007209Y-95829652D01*
X139994505Y-95834916D01*
X139944417Y-95868382D01*
X139942500Y-95869565D01*
X139942491Y-95869571D01*
X139881341Y-95907289D01*
X139757289Y-96031341D01*
X139719571Y-96092491D01*
X139719388Y-96092788D01*
X139718394Y-96094400D01*
X139684916Y-96144505D01*
X139679653Y-96157207D01*
X139674438Y-96165663D01*
X139665188Y-96180660D01*
X139665183Y-96180671D01*
X139647597Y-96233739D01*
X139647598Y-96233740D01*
X139646175Y-96238033D01*
X139628342Y-96281087D01*
X139622983Y-96308018D01*
X139620571Y-96315300D01*
X139610003Y-96347195D01*
X139610000Y-96347204D01*
X139605116Y-96395006D01*
X139603377Y-96406583D01*
X139599500Y-96426079D01*
X139599500Y-97380192D01*
X139579815Y-97447231D01*
X139527011Y-97492986D01*
X139457853Y-97502930D01*
X139394297Y-97473905D01*
X139387819Y-97467873D01*
X139136819Y-97216873D01*
X139103334Y-97155550D01*
X139100500Y-97129192D01*
X139100500Y-95677914D01*
X139120185Y-95610875D01*
X139136819Y-95590233D01*
X140237198Y-94489854D01*
X141340072Y-93386979D01*
X141401393Y-93353496D01*
X141471085Y-93358480D01*
X141527018Y-93400352D01*
X141541233Y-93428399D01*
X141542513Y-93427870D01*
X141605183Y-93579172D01*
X141605190Y-93579185D01*
X141692791Y-93710288D01*
X141692794Y-93710292D01*
X141804288Y-93821786D01*
X141804292Y-93821789D01*
X141935395Y-93909390D01*
X141935408Y-93909397D01*
X142081079Y-93969735D01*
X142081084Y-93969737D01*
X142235734Y-94000499D01*
X142235737Y-94000500D01*
X142235739Y-94000500D01*
X142393425Y-94000500D01*
X142393426Y-94000499D01*
X142548078Y-93969737D01*
X142693760Y-93909394D01*
X142824870Y-93821789D01*
X142936370Y-93710289D01*
X143023975Y-93579179D01*
X143027435Y-93570827D01*
X143044668Y-93529222D01*
X143084318Y-93433497D01*
X143115081Y-93278842D01*
X143115081Y-93121158D01*
X143115081Y-93121155D01*
X143115080Y-93121153D01*
X143084754Y-92968691D01*
X143090981Y-92899100D01*
X143133844Y-92843922D01*
X143199734Y-92820678D01*
X143206371Y-92820500D01*
X145725284Y-92820500D01*
X145792323Y-92840185D01*
X145838078Y-92892989D01*
X145848022Y-92962147D01*
X145846901Y-92968691D01*
X145846411Y-92971153D01*
X145846411Y-93128846D01*
X145877172Y-93283489D01*
X145877175Y-93283501D01*
X145937513Y-93429172D01*
X145937520Y-93429185D01*
X146025121Y-93560288D01*
X146025124Y-93560292D01*
X146136618Y-93671786D01*
X146136622Y-93671789D01*
X146267725Y-93759390D01*
X146267738Y-93759397D01*
X146413409Y-93819735D01*
X146413414Y-93819737D01*
X146568064Y-93850499D01*
X146568067Y-93850500D01*
X146568069Y-93850500D01*
X146725755Y-93850500D01*
X146725756Y-93850499D01*
X146880408Y-93819737D01*
X147026090Y-93759394D01*
X147157200Y-93671789D01*
X147268700Y-93560289D01*
X147356305Y-93429179D01*
X147416648Y-93283497D01*
X147447411Y-93128842D01*
X147447411Y-92971158D01*
X147447411Y-92971155D01*
X147447410Y-92971153D01*
X147446921Y-92968691D01*
X147447038Y-92967375D01*
X147446814Y-92965093D01*
X147447246Y-92965050D01*
X147453148Y-92899099D01*
X147496011Y-92843922D01*
X147561901Y-92820678D01*
X147568538Y-92820500D01*
X154565986Y-92820500D01*
X154633025Y-92840185D01*
X154634830Y-92841366D01*
X154691742Y-92879394D01*
X154691744Y-92879395D01*
X154691748Y-92879397D01*
X154830379Y-92936819D01*
X154837424Y-92939737D01*
X154936246Y-92959394D01*
X154970612Y-92966230D01*
X154998735Y-92980940D01*
X155027624Y-92994134D01*
X155029481Y-92997023D01*
X155032523Y-92998615D01*
X155048229Y-93026197D01*
X155065398Y-93052912D01*
X155066058Y-93057506D01*
X155067097Y-93059330D01*
X155070421Y-93087847D01*
X155070421Y-93288980D01*
X155050736Y-93356019D01*
X154997932Y-93401774D01*
X154928774Y-93411718D01*
X154865218Y-93382693D01*
X154858740Y-93376661D01*
X154810292Y-93328213D01*
X154810288Y-93328210D01*
X154679185Y-93240609D01*
X154679172Y-93240602D01*
X154533501Y-93180264D01*
X154533489Y-93180261D01*
X154378845Y-93149500D01*
X154378842Y-93149500D01*
X154221158Y-93149500D01*
X154221155Y-93149500D01*
X154066510Y-93180261D01*
X154066498Y-93180264D01*
X153920827Y-93240602D01*
X153920814Y-93240609D01*
X153789711Y-93328210D01*
X153789707Y-93328213D01*
X153678213Y-93439707D01*
X153678210Y-93439711D01*
X153590609Y-93570814D01*
X153590602Y-93570827D01*
X153530264Y-93716498D01*
X153530261Y-93716510D01*
X153499500Y-93871153D01*
X153499500Y-94028846D01*
X153530261Y-94183489D01*
X153530264Y-94183501D01*
X153590602Y-94329172D01*
X153590609Y-94329185D01*
X153678210Y-94460288D01*
X153678213Y-94460292D01*
X153789707Y-94571786D01*
X153789711Y-94571789D01*
X153920814Y-94659390D01*
X153920827Y-94659397D01*
X154066498Y-94719735D01*
X154066503Y-94719737D01*
X154221153Y-94750499D01*
X154221156Y-94750500D01*
X154221158Y-94750500D01*
X154378844Y-94750500D01*
X154378845Y-94750499D01*
X154533497Y-94719737D01*
X154679179Y-94659394D01*
X154810289Y-94571789D01*
X154810292Y-94571786D01*
X154858740Y-94523339D01*
X154920063Y-94489854D01*
X154989755Y-94494838D01*
X155045688Y-94536710D01*
X155070105Y-94602174D01*
X155070421Y-94611020D01*
X155070421Y-95103219D01*
X155050736Y-95170258D01*
X154997932Y-95216013D01*
X154928774Y-95225957D01*
X154877531Y-95206321D01*
X154779190Y-95140612D01*
X154779172Y-95140602D01*
X154633501Y-95080264D01*
X154633489Y-95080261D01*
X154478845Y-95049500D01*
X154478842Y-95049500D01*
X154321158Y-95049500D01*
X154321155Y-95049500D01*
X154166510Y-95080261D01*
X154166498Y-95080264D01*
X154020827Y-95140602D01*
X154020814Y-95140609D01*
X153889711Y-95228210D01*
X153889707Y-95228213D01*
X153778213Y-95339707D01*
X153778210Y-95339711D01*
X153690609Y-95470814D01*
X153690602Y-95470827D01*
X153630264Y-95616498D01*
X153630261Y-95616510D01*
X153599500Y-95771153D01*
X153599500Y-95928846D01*
X153630261Y-96083489D01*
X153630264Y-96083501D01*
X153690602Y-96229172D01*
X153690609Y-96229185D01*
X153778210Y-96360288D01*
X153778213Y-96360292D01*
X153889707Y-96471786D01*
X153889711Y-96471789D01*
X154020814Y-96559390D01*
X154020827Y-96559397D01*
X154133604Y-96606110D01*
X154166503Y-96619737D01*
X154298485Y-96645990D01*
X154321153Y-96650499D01*
X154321156Y-96650500D01*
X154321158Y-96650500D01*
X154478844Y-96650500D01*
X154478845Y-96650499D01*
X154633497Y-96619737D01*
X154779179Y-96559394D01*
X154814397Y-96535862D01*
X154877530Y-96493678D01*
X154887230Y-96490640D01*
X154894910Y-96483986D01*
X154920007Y-96480377D01*
X154944207Y-96472800D01*
X154954007Y-96475488D01*
X154964068Y-96474042D01*
X154987134Y-96484576D01*
X155011587Y-96491284D01*
X155018378Y-96498844D01*
X155027624Y-96503067D01*
X155041333Y-96524399D01*
X155058278Y-96543263D01*
X155060909Y-96554860D01*
X155065398Y-96561845D01*
X155070421Y-96596780D01*
X155070421Y-96658269D01*
X155050736Y-96725308D01*
X155034102Y-96745951D01*
X154947067Y-96832985D01*
X154885743Y-96866469D01*
X154883578Y-96866920D01*
X154816508Y-96880261D01*
X154816498Y-96880264D01*
X154670827Y-96940602D01*
X154670814Y-96940609D01*
X154539711Y-97028210D01*
X154539707Y-97028213D01*
X154428213Y-97139707D01*
X154428210Y-97139711D01*
X154340609Y-97270814D01*
X154340602Y-97270827D01*
X154280264Y-97416498D01*
X154280261Y-97416510D01*
X154249500Y-97571153D01*
X154249500Y-97728846D01*
X154280261Y-97883489D01*
X154280264Y-97883501D01*
X154340602Y-98029172D01*
X154340609Y-98029185D01*
X154428210Y-98160288D01*
X154428213Y-98160292D01*
X154539707Y-98271786D01*
X154539711Y-98271789D01*
X154670814Y-98359390D01*
X154670827Y-98359397D01*
X154816498Y-98419735D01*
X154816503Y-98419737D01*
X154966131Y-98449500D01*
X154971153Y-98450499D01*
X154971156Y-98450500D01*
X154971158Y-98450500D01*
X155128844Y-98450500D01*
X155128845Y-98450499D01*
X155283497Y-98419737D01*
X155429179Y-98359394D01*
X155560289Y-98271789D01*
X155668386Y-98163691D01*
X155729707Y-98130208D01*
X155799399Y-98135192D01*
X155843747Y-98163693D01*
X156232984Y-98552929D01*
X156266469Y-98614252D01*
X156266920Y-98616419D01*
X156280261Y-98683489D01*
X156280264Y-98683501D01*
X156340602Y-98829172D01*
X156340609Y-98829185D01*
X156428210Y-98960288D01*
X156428213Y-98960292D01*
X156539707Y-99071786D01*
X156539711Y-99071789D01*
X156670814Y-99159390D01*
X156670827Y-99159397D01*
X156816498Y-99219735D01*
X156816503Y-99219737D01*
X156966131Y-99249500D01*
X156971153Y-99250499D01*
X156971156Y-99250500D01*
X156971158Y-99250500D01*
X157128844Y-99250500D01*
X157128845Y-99250499D01*
X157283497Y-99219737D01*
X157429179Y-99159394D01*
X157560289Y-99071789D01*
X157671789Y-98960289D01*
X157759394Y-98829179D01*
X157762854Y-98820827D01*
X157794064Y-98745477D01*
X157819737Y-98683497D01*
X157850500Y-98528842D01*
X157850500Y-98371158D01*
X157850500Y-98371155D01*
X157850499Y-98371153D01*
X157843173Y-98334322D01*
X157819737Y-98216503D01*
X157809578Y-98191976D01*
X157759397Y-98070827D01*
X157759390Y-98070814D01*
X157671789Y-97939711D01*
X157671786Y-97939707D01*
X157560292Y-97828213D01*
X157560288Y-97828210D01*
X157429185Y-97740609D01*
X157429172Y-97740602D01*
X157283501Y-97680264D01*
X157283489Y-97680261D01*
X157216419Y-97666920D01*
X157199662Y-97658155D01*
X157181183Y-97654135D01*
X157156141Y-97635389D01*
X157154508Y-97634535D01*
X157152988Y-97633043D01*
X156986816Y-97466871D01*
X156953334Y-97405550D01*
X156950500Y-97379192D01*
X156950500Y-96924499D01*
X156970185Y-96857460D01*
X157022989Y-96811705D01*
X157074500Y-96800499D01*
X158750002Y-96800499D01*
X158750008Y-96800499D01*
X158852797Y-96789999D01*
X159019334Y-96734814D01*
X159168656Y-96642712D01*
X159292712Y-96518656D01*
X159384814Y-96369334D01*
X159439999Y-96202797D01*
X159450500Y-96100009D01*
X159450499Y-93699992D01*
X159439999Y-93597203D01*
X159384814Y-93430666D01*
X159292712Y-93281344D01*
X159168656Y-93157288D01*
X159168655Y-93157287D01*
X159124478Y-93130039D01*
X159077753Y-93078091D01*
X159066530Y-93009129D01*
X159094373Y-92945047D01*
X159152442Y-92906190D01*
X159189574Y-92900500D01*
X159529192Y-92900500D01*
X159596231Y-92920185D01*
X159616873Y-92936819D01*
X160563181Y-93883127D01*
X160577884Y-93910054D01*
X160594477Y-93935873D01*
X160595368Y-93942073D01*
X160596666Y-93944450D01*
X160599500Y-93970808D01*
X160599500Y-94045880D01*
X160579815Y-94112919D01*
X160527011Y-94158674D01*
X160475500Y-94169880D01*
X160450775Y-94169880D01*
X160296130Y-94200641D01*
X160296118Y-94200644D01*
X160150447Y-94260982D01*
X160150434Y-94260989D01*
X160019331Y-94348590D01*
X160019327Y-94348593D01*
X159907833Y-94460087D01*
X159907830Y-94460091D01*
X159820229Y-94591194D01*
X159820222Y-94591207D01*
X159759884Y-94736878D01*
X159759881Y-94736890D01*
X159729120Y-94891533D01*
X159729120Y-95049226D01*
X159759881Y-95203869D01*
X159759884Y-95203881D01*
X159820223Y-95349554D01*
X159820224Y-95349556D01*
X159820225Y-95349558D01*
X159820226Y-95349559D01*
X159862277Y-95412493D01*
X159878602Y-95436924D01*
X159899480Y-95503601D01*
X159899500Y-95505815D01*
X159899500Y-98013330D01*
X159899499Y-98013348D01*
X159899499Y-98179054D01*
X159899498Y-98179054D01*
X159899499Y-98179057D01*
X159937840Y-98322146D01*
X159940424Y-98331787D01*
X159954111Y-98355493D01*
X159954112Y-98355495D01*
X160019477Y-98468712D01*
X160019481Y-98468717D01*
X160138349Y-98587585D01*
X160138355Y-98587590D01*
X160623571Y-99072806D01*
X160657056Y-99134129D01*
X160659890Y-99160487D01*
X160659890Y-102373045D01*
X160640205Y-102440084D01*
X160638992Y-102441936D01*
X160550999Y-102573625D01*
X160550992Y-102573638D01*
X160490654Y-102719309D01*
X160490651Y-102719321D01*
X160459890Y-102873964D01*
X160459890Y-103031657D01*
X160489235Y-103179179D01*
X160490653Y-103186308D01*
X160539141Y-103303369D01*
X160546610Y-103372838D01*
X160515335Y-103435317D01*
X160512261Y-103438502D01*
X160262180Y-103688584D01*
X160200857Y-103722069D01*
X160131166Y-103717085D01*
X160075232Y-103675214D01*
X160050815Y-103609749D01*
X160050499Y-103600903D01*
X160050499Y-101899998D01*
X160050498Y-101899981D01*
X160039999Y-101797203D01*
X160039998Y-101797200D01*
X160028831Y-101763500D01*
X159984814Y-101630666D01*
X159892712Y-101481344D01*
X159768656Y-101357288D01*
X159675279Y-101299693D01*
X159619336Y-101265187D01*
X159619331Y-101265185D01*
X159617862Y-101264698D01*
X159452797Y-101210001D01*
X159452795Y-101210000D01*
X159350010Y-101199500D01*
X157449998Y-101199500D01*
X157449981Y-101199501D01*
X157347203Y-101210000D01*
X157347200Y-101210001D01*
X157180668Y-101265185D01*
X157180663Y-101265187D01*
X157031342Y-101357289D01*
X156907289Y-101481342D01*
X156865221Y-101549546D01*
X156813273Y-101596270D01*
X156744310Y-101607492D01*
X156680228Y-101579649D01*
X156641372Y-101521580D01*
X156638065Y-101508641D01*
X156619738Y-101416508D01*
X156619737Y-101416507D01*
X156619737Y-101416503D01*
X156608053Y-101388294D01*
X156559397Y-101270827D01*
X156559390Y-101270814D01*
X156471789Y-101139711D01*
X156471786Y-101139707D01*
X156360292Y-101028213D01*
X156360288Y-101028210D01*
X156229185Y-100940609D01*
X156229172Y-100940602D01*
X156083501Y-100880264D01*
X156083489Y-100880261D01*
X155928845Y-100849500D01*
X155928842Y-100849500D01*
X155771158Y-100849500D01*
X155771155Y-100849500D01*
X155616510Y-100880261D01*
X155616498Y-100880264D01*
X155470827Y-100940602D01*
X155470814Y-100940609D01*
X155339711Y-101028210D01*
X155247102Y-101120819D01*
X155185778Y-101154303D01*
X155116087Y-101149319D01*
X155060154Y-101107447D01*
X155037804Y-101057329D01*
X155019738Y-100966508D01*
X155019737Y-100966507D01*
X155019737Y-100966503D01*
X155012058Y-100947965D01*
X154959397Y-100820827D01*
X154959390Y-100820814D01*
X154871789Y-100689711D01*
X154871786Y-100689707D01*
X154760292Y-100578213D01*
X154760288Y-100578210D01*
X154629185Y-100490609D01*
X154629172Y-100490602D01*
X154483501Y-100430264D01*
X154483489Y-100430261D01*
X154328845Y-100399500D01*
X154328842Y-100399500D01*
X154171158Y-100399500D01*
X154171155Y-100399500D01*
X154016510Y-100430261D01*
X154016498Y-100430264D01*
X153870827Y-100490602D01*
X153870814Y-100490609D01*
X153739711Y-100578210D01*
X153739707Y-100578213D01*
X153628213Y-100689707D01*
X153628210Y-100689711D01*
X153540609Y-100820814D01*
X153540602Y-100820827D01*
X153480264Y-100966498D01*
X153480261Y-100966510D01*
X153449500Y-101121153D01*
X153449500Y-101275500D01*
X153429815Y-101342539D01*
X153377011Y-101388294D01*
X153325500Y-101399500D01*
X151585929Y-101399500D01*
X151484196Y-101419737D01*
X151466199Y-101423316D01*
X151460255Y-101424499D01*
X151341874Y-101473534D01*
X151235326Y-101544726D01*
X150041832Y-102738220D01*
X150041826Y-102738227D01*
X149985993Y-102821788D01*
X149985994Y-102821789D01*
X149970639Y-102844769D01*
X149921603Y-102963152D01*
X149921603Y-102963153D01*
X149903156Y-103055885D01*
X149884643Y-103100580D01*
X149837712Y-103170819D01*
X149837707Y-103170828D01*
X149777369Y-103316498D01*
X149777366Y-103316510D01*
X149746605Y-103471153D01*
X149746605Y-103628846D01*
X149777366Y-103783489D01*
X149777369Y-103783501D01*
X149837707Y-103929172D01*
X149837714Y-103929185D01*
X149925315Y-104060288D01*
X149925318Y-104060292D01*
X150036812Y-104171786D01*
X150036816Y-104171789D01*
X150167919Y-104259390D01*
X150167932Y-104259397D01*
X150266016Y-104300024D01*
X150313608Y-104319737D01*
X150421630Y-104341224D01*
X150468258Y-104350499D01*
X150468261Y-104350500D01*
X150468263Y-104350500D01*
X150625949Y-104350500D01*
X150625950Y-104350499D01*
X150780602Y-104319737D01*
X150926284Y-104259394D01*
X151057394Y-104171789D01*
X151168894Y-104060289D01*
X151256499Y-103929179D01*
X151316842Y-103783497D01*
X151347605Y-103628842D01*
X151347605Y-103471158D01*
X151347605Y-103471155D01*
X151334636Y-103405963D01*
X151327549Y-103370330D01*
X151333776Y-103300741D01*
X151361482Y-103258462D01*
X151883127Y-102736819D01*
X151944450Y-102703334D01*
X151970808Y-102700500D01*
X155514071Y-102700500D01*
X155598615Y-102683682D01*
X155639744Y-102675501D01*
X155758127Y-102626465D01*
X155790090Y-102605108D01*
X155864669Y-102555277D01*
X155956601Y-102463343D01*
X155960567Y-102459992D01*
X155987965Y-102447883D01*
X156014252Y-102433530D01*
X156016338Y-102433095D01*
X156083497Y-102419737D01*
X156229179Y-102359394D01*
X156360289Y-102271789D01*
X156471789Y-102160289D01*
X156522398Y-102084546D01*
X156576010Y-102039742D01*
X156645334Y-102031035D01*
X156708362Y-102061189D01*
X156745082Y-102120632D01*
X156749500Y-102153438D01*
X156749500Y-104300001D01*
X156749502Y-104300024D01*
X156753710Y-104341224D01*
X156740939Y-104409917D01*
X156693057Y-104460800D01*
X156625267Y-104477719D01*
X156559091Y-104455302D01*
X156527250Y-104422714D01*
X156471789Y-104339710D01*
X156360292Y-104228213D01*
X156360288Y-104228210D01*
X156229185Y-104140609D01*
X156229172Y-104140602D01*
X156083501Y-104080264D01*
X156083489Y-104080261D01*
X155928845Y-104049500D01*
X155928842Y-104049500D01*
X155771158Y-104049500D01*
X155771155Y-104049500D01*
X155616510Y-104080261D01*
X155616498Y-104080264D01*
X155465307Y-104142889D01*
X155395838Y-104150358D01*
X155333359Y-104119082D01*
X155297707Y-104058993D01*
X155296238Y-104004136D01*
X155311215Y-103928844D01*
X155311215Y-103771155D01*
X155311214Y-103771153D01*
X155308612Y-103758070D01*
X155280452Y-103616503D01*
X155280450Y-103616498D01*
X155220112Y-103470827D01*
X155220105Y-103470814D01*
X155132504Y-103339711D01*
X155132501Y-103339707D01*
X155021007Y-103228213D01*
X155021003Y-103228210D01*
X154889900Y-103140609D01*
X154889887Y-103140602D01*
X154744216Y-103080264D01*
X154744204Y-103080261D01*
X154589560Y-103049500D01*
X154589557Y-103049500D01*
X154431873Y-103049500D01*
X154431870Y-103049500D01*
X154277225Y-103080261D01*
X154277213Y-103080264D01*
X154131542Y-103140602D01*
X154131529Y-103140609D01*
X154000426Y-103228210D01*
X154000422Y-103228213D01*
X153888928Y-103339707D01*
X153888925Y-103339711D01*
X153801324Y-103470814D01*
X153801317Y-103470827D01*
X153740979Y-103616498D01*
X153740976Y-103616510D01*
X153709026Y-103777132D01*
X153707154Y-103776759D01*
X153684304Y-103833331D01*
X153627265Y-103873684D01*
X153557464Y-103876793D01*
X153539618Y-103870941D01*
X153506139Y-103857074D01*
X153444212Y-103831423D01*
X153444207Y-103831422D01*
X153444204Y-103831421D01*
X153289560Y-103800660D01*
X153289557Y-103800660D01*
X153131873Y-103800660D01*
X153131870Y-103800660D01*
X152977225Y-103831421D01*
X152977213Y-103831424D01*
X152831543Y-103891762D01*
X152826162Y-103894639D01*
X152825142Y-103892730D01*
X152767770Y-103910684D01*
X152700393Y-103892187D01*
X152696689Y-103889806D01*
X152679182Y-103878108D01*
X152679181Y-103878107D01*
X152679179Y-103878106D01*
X152679176Y-103878104D01*
X152679171Y-103878102D01*
X152533501Y-103817764D01*
X152533489Y-103817761D01*
X152378845Y-103787000D01*
X152378842Y-103787000D01*
X152221158Y-103787000D01*
X152221155Y-103787000D01*
X152066510Y-103817761D01*
X152066498Y-103817764D01*
X151920827Y-103878102D01*
X151920814Y-103878109D01*
X151789711Y-103965710D01*
X151789707Y-103965713D01*
X151678213Y-104077207D01*
X151678210Y-104077211D01*
X151590609Y-104208314D01*
X151590602Y-104208327D01*
X151530264Y-104353998D01*
X151530261Y-104354010D01*
X151499500Y-104508653D01*
X151499500Y-104666346D01*
X151530261Y-104820989D01*
X151530264Y-104821001D01*
X151590602Y-104966672D01*
X151590609Y-104966684D01*
X151602447Y-104984401D01*
X151604819Y-104991976D01*
X151610229Y-104997787D01*
X151615110Y-105024845D01*
X151623325Y-105051078D01*
X151621541Y-105060484D01*
X151622635Y-105066547D01*
X151613906Y-105100745D01*
X151592700Y-105151941D01*
X151548859Y-105206344D01*
X151482565Y-105228409D01*
X151430687Y-105219049D01*
X151383501Y-105199504D01*
X151383489Y-105199501D01*
X151228845Y-105168740D01*
X151228842Y-105168740D01*
X151071158Y-105168740D01*
X151071155Y-105168740D01*
X150916510Y-105199501D01*
X150916498Y-105199504D01*
X150770827Y-105259842D01*
X150770814Y-105259849D01*
X150634646Y-105350835D01*
X150633980Y-105349839D01*
X150575511Y-105374669D01*
X150513712Y-105366064D01*
X150459232Y-105343498D01*
X150459225Y-105343496D01*
X150459224Y-105343496D01*
X150459223Y-105343495D01*
X150304580Y-105312735D01*
X150304577Y-105312735D01*
X150146893Y-105312735D01*
X150146890Y-105312735D01*
X149992245Y-105343496D01*
X149992233Y-105343499D01*
X149846562Y-105403837D01*
X149846551Y-105403843D01*
X149783254Y-105446137D01*
X149767583Y-105451043D01*
X149754145Y-105460480D01*
X149734927Y-105461268D01*
X149716576Y-105467014D01*
X149700741Y-105462670D01*
X149684334Y-105463343D01*
X149667742Y-105453616D01*
X149649196Y-105448529D01*
X149638223Y-105436313D01*
X149624057Y-105428009D01*
X149615357Y-105410855D01*
X149602507Y-105396550D01*
X149599587Y-105379763D01*
X149592452Y-105365696D01*
X149591006Y-105330437D01*
X149594882Y-105292493D01*
X149596623Y-105280907D01*
X149600500Y-105261421D01*
X149600500Y-105088920D01*
X149600499Y-105088914D01*
X149600499Y-104570986D01*
X149600499Y-104561422D01*
X149600500Y-104561418D01*
X149600500Y-104413582D01*
X149595477Y-104388331D01*
X149589999Y-104334703D01*
X149577016Y-104295523D01*
X149571658Y-104268587D01*
X149553819Y-104225522D01*
X149534814Y-104168166D01*
X149523301Y-104149501D01*
X149520346Y-104144710D01*
X149515084Y-104132005D01*
X149481605Y-104081900D01*
X149442712Y-104018844D01*
X149318656Y-103894788D01*
X149318655Y-103894787D01*
X149257513Y-103857074D01*
X149257513Y-103857073D01*
X149255569Y-103855874D01*
X149205495Y-103822416D01*
X149192790Y-103817152D01*
X149184332Y-103811936D01*
X149169335Y-103802686D01*
X149153471Y-103797429D01*
X149111977Y-103783680D01*
X149068913Y-103765842D01*
X149041981Y-103760484D01*
X149034700Y-103758071D01*
X149034695Y-103758070D01*
X149002799Y-103747501D01*
X149002794Y-103747500D01*
X148954996Y-103742617D01*
X148943412Y-103740877D01*
X148923918Y-103737000D01*
X148776082Y-103737000D01*
X148776081Y-103737000D01*
X148173920Y-103737000D01*
X148173918Y-103737000D01*
X148026082Y-103737000D01*
X148026079Y-103737000D01*
X147423922Y-103737000D01*
X147423918Y-103737000D01*
X147276082Y-103737000D01*
X147276079Y-103737000D01*
X147256579Y-103740878D01*
X147250824Y-103742022D01*
X147197203Y-103747501D01*
X147158023Y-103760483D01*
X147154439Y-103761196D01*
X147150493Y-103761981D01*
X147150492Y-103761980D01*
X147131088Y-103765841D01*
X147131086Y-103765842D01*
X147092187Y-103781954D01*
X147083741Y-103785097D01*
X147030671Y-103802683D01*
X147030660Y-103802688D01*
X147015666Y-103811935D01*
X147015667Y-103811936D01*
X147007209Y-103817152D01*
X146994505Y-103822416D01*
X146944417Y-103855882D01*
X146942500Y-103857065D01*
X146942491Y-103857071D01*
X146881341Y-103894789D01*
X146757289Y-104018841D01*
X146719571Y-104079991D01*
X146719403Y-104080264D01*
X146718394Y-104081900D01*
X146684916Y-104132005D01*
X146679653Y-104144707D01*
X146674438Y-104153163D01*
X146665188Y-104168160D01*
X146665183Y-104168171D01*
X146647597Y-104221239D01*
X146647598Y-104221240D01*
X146646175Y-104225533D01*
X146628342Y-104268587D01*
X146622983Y-104295518D01*
X146620571Y-104302800D01*
X146610002Y-104334696D01*
X146610000Y-104334704D01*
X146605116Y-104382506D01*
X146603377Y-104394083D01*
X146599500Y-104413579D01*
X146599500Y-105261418D01*
X146603377Y-105280914D01*
X146604522Y-105286668D01*
X146610001Y-105340297D01*
X146622980Y-105379469D01*
X146624477Y-105386991D01*
X146624479Y-105386998D01*
X146628342Y-105406413D01*
X146628343Y-105406418D01*
X146644454Y-105445311D01*
X146647593Y-105453744D01*
X146656382Y-105480264D01*
X146665186Y-105506835D01*
X146674436Y-105521832D01*
X146679652Y-105530288D01*
X146684916Y-105542995D01*
X146718388Y-105593091D01*
X146719568Y-105595003D01*
X146719574Y-105595013D01*
X146757287Y-105656155D01*
X146757288Y-105656156D01*
X146881344Y-105780212D01*
X146944400Y-105819105D01*
X146994505Y-105852584D01*
X147007211Y-105857847D01*
X147030666Y-105872314D01*
X147088022Y-105891319D01*
X147131087Y-105909158D01*
X147158023Y-105914516D01*
X147197203Y-105927499D01*
X147245008Y-105932382D01*
X147256582Y-105934121D01*
X147271464Y-105937081D01*
X147276081Y-105938000D01*
X147276082Y-105938000D01*
X147475272Y-105938000D01*
X147475281Y-105937999D01*
X148026079Y-105937999D01*
X148026082Y-105938000D01*
X148173918Y-105938000D01*
X148173920Y-105937999D01*
X148769948Y-105937999D01*
X148769968Y-105938000D01*
X148776082Y-105938000D01*
X148923919Y-105938000D01*
X148928530Y-105937082D01*
X148949168Y-105932977D01*
X149002797Y-105927499D01*
X149041976Y-105914516D01*
X149068913Y-105909158D01*
X149107819Y-105893041D01*
X149116253Y-105889902D01*
X149169334Y-105872314D01*
X149185023Y-105862636D01*
X149192845Y-105857823D01*
X149205495Y-105852584D01*
X149253644Y-105820411D01*
X149255619Y-105819196D01*
X149287185Y-105810594D01*
X149318389Y-105800824D01*
X149320709Y-105801460D01*
X149323031Y-105800828D01*
X149354223Y-105810654D01*
X149385770Y-105819308D01*
X149387378Y-105821098D01*
X149389672Y-105821821D01*
X149410599Y-105846949D01*
X149432460Y-105871286D01*
X149432844Y-105873660D01*
X149434385Y-105875510D01*
X149438405Y-105907968D01*
X149443637Y-105940256D01*
X149442938Y-105944568D01*
X149442973Y-105944850D01*
X149442851Y-105945102D01*
X149442221Y-105948995D01*
X149425235Y-106034388D01*
X149425235Y-106192081D01*
X149455996Y-106346724D01*
X149455999Y-106346736D01*
X149516337Y-106492407D01*
X149516344Y-106492420D01*
X149603945Y-106623523D01*
X149603948Y-106623527D01*
X149715442Y-106735021D01*
X149715446Y-106735024D01*
X149846549Y-106822625D01*
X149846562Y-106822632D01*
X149992233Y-106882970D01*
X149992238Y-106882972D01*
X150080352Y-106900499D01*
X150146888Y-106913734D01*
X150146891Y-106913735D01*
X150146893Y-106913735D01*
X150304579Y-106913735D01*
X150304580Y-106913734D01*
X150459232Y-106882972D01*
X150604914Y-106822629D01*
X150676558Y-106774758D01*
X150741089Y-106731640D01*
X150741756Y-106732639D01*
X150800194Y-106707808D01*
X150862022Y-106716410D01*
X150916503Y-106738977D01*
X151057021Y-106766928D01*
X151071153Y-106769739D01*
X151071156Y-106769740D01*
X151071158Y-106769740D01*
X151228842Y-106769740D01*
X151277206Y-106760119D01*
X151302818Y-106762410D01*
X151328483Y-106760730D01*
X151340220Y-106765756D01*
X151346794Y-106766345D01*
X151361477Y-106773263D01*
X151365991Y-106775763D01*
X151441874Y-106826466D01*
X151497484Y-106849500D01*
X151560256Y-106875501D01*
X151560260Y-106875501D01*
X151560261Y-106875502D01*
X151685928Y-106900500D01*
X151685931Y-106900500D01*
X151814069Y-106900500D01*
X154825500Y-106900500D01*
X154892539Y-106920185D01*
X154938294Y-106972989D01*
X154949500Y-107024500D01*
X154949500Y-115049902D01*
X154929815Y-115116941D01*
X154913181Y-115137583D01*
X154487584Y-115563181D01*
X154426261Y-115596666D01*
X154399903Y-115599500D01*
X146964433Y-115599500D01*
X146897394Y-115579815D01*
X146851639Y-115527011D01*
X146841695Y-115457853D01*
X146870720Y-115394297D01*
X146913984Y-115365423D01*
X146912791Y-115362864D01*
X146919326Y-115359816D01*
X146919334Y-115359814D01*
X147068656Y-115267712D01*
X147192712Y-115143656D01*
X147284814Y-114994334D01*
X147339999Y-114827797D01*
X147350500Y-114725009D01*
X147350499Y-112824992D01*
X147344999Y-112771155D01*
X147339999Y-112722203D01*
X147339998Y-112722200D01*
X147336150Y-112710588D01*
X147284814Y-112555666D01*
X147192712Y-112406344D01*
X147068656Y-112282288D01*
X146990957Y-112234363D01*
X146944234Y-112182416D01*
X146933011Y-112113453D01*
X146960855Y-112049371D01*
X147008603Y-112014264D01*
X147087971Y-111981389D01*
X147219081Y-111893784D01*
X147330581Y-111782284D01*
X147418186Y-111651174D01*
X147478529Y-111505492D01*
X147509292Y-111350837D01*
X147509292Y-111193153D01*
X147509292Y-111193150D01*
X147509291Y-111193148D01*
X147500808Y-111150500D01*
X147478529Y-111038498D01*
X147451916Y-110974248D01*
X147418189Y-110892822D01*
X147418182Y-110892809D01*
X147330581Y-110761706D01*
X147330578Y-110761702D01*
X147219084Y-110650208D01*
X147219080Y-110650205D01*
X147087977Y-110562604D01*
X147087965Y-110562598D01*
X147078265Y-110558580D01*
X147023863Y-110514738D01*
X147001799Y-110448444D01*
X147019079Y-110380745D01*
X147056826Y-110340920D01*
X147160289Y-110271789D01*
X147271789Y-110160289D01*
X147359394Y-110029179D01*
X147419737Y-109883497D01*
X147450500Y-109728842D01*
X147450500Y-109571158D01*
X147450500Y-109571155D01*
X147450499Y-109571153D01*
X147443632Y-109536632D01*
X147419737Y-109416503D01*
X147398371Y-109364921D01*
X147359397Y-109270827D01*
X147359390Y-109270814D01*
X147271789Y-109139711D01*
X147271786Y-109139707D01*
X147160292Y-109028213D01*
X147160288Y-109028210D01*
X147029185Y-108940609D01*
X147029172Y-108940602D01*
X146883501Y-108880264D01*
X146883489Y-108880261D01*
X146728845Y-108849500D01*
X146728842Y-108849500D01*
X146571158Y-108849500D01*
X146571155Y-108849500D01*
X146416510Y-108880261D01*
X146416498Y-108880264D01*
X146270827Y-108940602D01*
X146270814Y-108940609D01*
X146139711Y-109028210D01*
X146139707Y-109028213D01*
X146028213Y-109139707D01*
X146028210Y-109139711D01*
X145940609Y-109270814D01*
X145940602Y-109270827D01*
X145880264Y-109416498D01*
X145880261Y-109416510D01*
X145849500Y-109571153D01*
X145849500Y-109728846D01*
X145880261Y-109883489D01*
X145880264Y-109883501D01*
X145940602Y-110029172D01*
X145940609Y-110029185D01*
X146028210Y-110160288D01*
X146028213Y-110160292D01*
X146139707Y-110271786D01*
X146139711Y-110271789D01*
X146270814Y-110359390D01*
X146270821Y-110359394D01*
X146280522Y-110363412D01*
X146334926Y-110407252D01*
X146356992Y-110473546D01*
X146339714Y-110541246D01*
X146301962Y-110581076D01*
X146198503Y-110650205D01*
X146198499Y-110650208D01*
X146085527Y-110763181D01*
X146058599Y-110777884D01*
X146032781Y-110794477D01*
X146026580Y-110795368D01*
X146024204Y-110796666D01*
X145997846Y-110799500D01*
X145770808Y-110799500D01*
X145703769Y-110779815D01*
X145683127Y-110763181D01*
X145186819Y-110266873D01*
X145153334Y-110205550D01*
X145150500Y-110179192D01*
X145150500Y-103640585D01*
X145170185Y-103573546D01*
X145222989Y-103527791D01*
X145292147Y-103517847D01*
X145343391Y-103537483D01*
X145470814Y-103622625D01*
X145470827Y-103622632D01*
X145583761Y-103669410D01*
X145616503Y-103682972D01*
X145771153Y-103713734D01*
X145771156Y-103713735D01*
X145771158Y-103713735D01*
X145928844Y-103713735D01*
X145928845Y-103713734D01*
X146083497Y-103682972D01*
X146214175Y-103628844D01*
X146229172Y-103622632D01*
X146229172Y-103622631D01*
X146229179Y-103622629D01*
X146360289Y-103535024D01*
X146471789Y-103423524D01*
X146559394Y-103292414D01*
X146619737Y-103146732D01*
X146650500Y-102992077D01*
X146650500Y-102834393D01*
X146650500Y-102834390D01*
X146650499Y-102834388D01*
X146627909Y-102720821D01*
X146619737Y-102679738D01*
X146597669Y-102626461D01*
X146559397Y-102534062D01*
X146559390Y-102534049D01*
X146471789Y-102402946D01*
X146471786Y-102402942D01*
X146360292Y-102291448D01*
X146360288Y-102291445D01*
X146229185Y-102203844D01*
X146229172Y-102203837D01*
X146083501Y-102143499D01*
X146083489Y-102143496D01*
X145928845Y-102112735D01*
X145928842Y-102112735D01*
X145771158Y-102112735D01*
X145771155Y-102112735D01*
X145616510Y-102143496D01*
X145616498Y-102143499D01*
X145470827Y-102203837D01*
X145470814Y-102203844D01*
X145343391Y-102288986D01*
X145276713Y-102309864D01*
X145209333Y-102291379D01*
X145162643Y-102239400D01*
X145150500Y-102185884D01*
X145150500Y-95525316D01*
X145159939Y-95477864D01*
X145198018Y-95385931D01*
X145219737Y-95333497D01*
X145250500Y-95178842D01*
X145250500Y-95021158D01*
X145250500Y-95021155D01*
X145250499Y-95021153D01*
X145245135Y-94994182D01*
X145241535Y-94976082D01*
X146099500Y-94976082D01*
X146099500Y-94980244D01*
X146099500Y-95823918D01*
X146103377Y-95843414D01*
X146104522Y-95849168D01*
X146110001Y-95902797D01*
X146122980Y-95941969D01*
X146124477Y-95949491D01*
X146124479Y-95949498D01*
X146128342Y-95968913D01*
X146128343Y-95968918D01*
X146144454Y-96007811D01*
X146147593Y-96016244D01*
X146152598Y-96031344D01*
X146165186Y-96069335D01*
X146174436Y-96084332D01*
X146179652Y-96092788D01*
X146184916Y-96105495D01*
X146218388Y-96155591D01*
X146219568Y-96157503D01*
X146219574Y-96157513D01*
X146257287Y-96218655D01*
X146257288Y-96218656D01*
X146381344Y-96342712D01*
X146424509Y-96369336D01*
X146442462Y-96380410D01*
X146444400Y-96381605D01*
X146494505Y-96415084D01*
X146507211Y-96420347D01*
X146530666Y-96434814D01*
X146588022Y-96453819D01*
X146631087Y-96471658D01*
X146658023Y-96477016D01*
X146697203Y-96489999D01*
X146745008Y-96494882D01*
X146756582Y-96496621D01*
X146771464Y-96499581D01*
X146776081Y-96500500D01*
X146776082Y-96500500D01*
X146975272Y-96500500D01*
X146975281Y-96500499D01*
X147526079Y-96500499D01*
X147526082Y-96500500D01*
X147673918Y-96500500D01*
X147673920Y-96500499D01*
X148269948Y-96500499D01*
X148269968Y-96500500D01*
X148276082Y-96500500D01*
X148423918Y-96500500D01*
X148438670Y-96497565D01*
X148508260Y-96503788D01*
X148563440Y-96546648D01*
X148586689Y-96612536D01*
X148570625Y-96680534D01*
X148520349Y-96729053D01*
X148510325Y-96733740D01*
X148502229Y-96737093D01*
X148502218Y-96737099D01*
X148371115Y-96824700D01*
X148371111Y-96824703D01*
X148259617Y-96936197D01*
X148259614Y-96936201D01*
X148172013Y-97067304D01*
X148172006Y-97067317D01*
X148111668Y-97212988D01*
X148111665Y-97213000D01*
X148080904Y-97367643D01*
X148080904Y-97525336D01*
X148111665Y-97679979D01*
X148111668Y-97679991D01*
X148172006Y-97825662D01*
X148172013Y-97825675D01*
X148259614Y-97956778D01*
X148259617Y-97956782D01*
X148371111Y-98068276D01*
X148371115Y-98068279D01*
X148502218Y-98155880D01*
X148502231Y-98155887D01*
X148589359Y-98191976D01*
X148647907Y-98216227D01*
X148802557Y-98246989D01*
X148802560Y-98246990D01*
X148802562Y-98246990D01*
X148960248Y-98246990D01*
X148960249Y-98246989D01*
X149114901Y-98216227D01*
X149260583Y-98155884D01*
X149391693Y-98068279D01*
X149503193Y-97956779D01*
X149590798Y-97825669D01*
X149651141Y-97679987D01*
X149681904Y-97525332D01*
X149681904Y-97367648D01*
X149681904Y-97367645D01*
X149681903Y-97367643D01*
X149673206Y-97323920D01*
X149651141Y-97212993D01*
X149651139Y-97212988D01*
X149590801Y-97067317D01*
X149590794Y-97067304D01*
X149503193Y-96936201D01*
X149503190Y-96936197D01*
X149391696Y-96824703D01*
X149391692Y-96824700D01*
X149260589Y-96737099D01*
X149260576Y-96737092D01*
X149114905Y-96676754D01*
X149114893Y-96676751D01*
X148960249Y-96645990D01*
X148960246Y-96645990D01*
X148802562Y-96645990D01*
X148802560Y-96645990D01*
X148778138Y-96650847D01*
X148708546Y-96644617D01*
X148653370Y-96601753D01*
X148630128Y-96535862D01*
X148646198Y-96467866D01*
X148687841Y-96424321D01*
X148696753Y-96418704D01*
X148705495Y-96415084D01*
X148755141Y-96381910D01*
X148756520Y-96381042D01*
X148756574Y-96381026D01*
X148757498Y-96380433D01*
X148818656Y-96342712D01*
X148942712Y-96218656D01*
X148981605Y-96155599D01*
X149015084Y-96105495D01*
X149020347Y-96092788D01*
X149034814Y-96069334D01*
X149053819Y-96011977D01*
X149071658Y-95968913D01*
X149077016Y-95941976D01*
X149089999Y-95902797D01*
X149094881Y-95854999D01*
X149096623Y-95843407D01*
X149100500Y-95823921D01*
X149100500Y-95651420D01*
X149100499Y-95651414D01*
X149100499Y-95133486D01*
X149100499Y-95123922D01*
X149100500Y-95123918D01*
X149100500Y-94976082D01*
X149095477Y-94950831D01*
X149089999Y-94897203D01*
X149077016Y-94858023D01*
X149071658Y-94831087D01*
X149053819Y-94788022D01*
X149034814Y-94730666D01*
X149021693Y-94709394D01*
X149020346Y-94707210D01*
X149015084Y-94694505D01*
X148981605Y-94644400D01*
X148942712Y-94581344D01*
X148818656Y-94457288D01*
X148818655Y-94457287D01*
X148757513Y-94419574D01*
X148757513Y-94419573D01*
X148755569Y-94418374D01*
X148705495Y-94384916D01*
X148692790Y-94379652D01*
X148684332Y-94374436D01*
X148669335Y-94365186D01*
X148653471Y-94359929D01*
X148611977Y-94346180D01*
X148568913Y-94328342D01*
X148541981Y-94322984D01*
X148534700Y-94320571D01*
X148534695Y-94320570D01*
X148502799Y-94310001D01*
X148502794Y-94310000D01*
X148454996Y-94305117D01*
X148443412Y-94303377D01*
X148423918Y-94299500D01*
X148276082Y-94299500D01*
X148276081Y-94299500D01*
X147673920Y-94299500D01*
X147673918Y-94299500D01*
X147526082Y-94299500D01*
X147526079Y-94299500D01*
X146923922Y-94299500D01*
X146923918Y-94299500D01*
X146776082Y-94299500D01*
X146776079Y-94299500D01*
X146756579Y-94303378D01*
X146750824Y-94304522D01*
X146697203Y-94310001D01*
X146658023Y-94322983D01*
X146654439Y-94323696D01*
X146650493Y-94324481D01*
X146650492Y-94324480D01*
X146631088Y-94328341D01*
X146631086Y-94328342D01*
X146592187Y-94344454D01*
X146583741Y-94347597D01*
X146530671Y-94365183D01*
X146530660Y-94365188D01*
X146515666Y-94374435D01*
X146515667Y-94374436D01*
X146507209Y-94379652D01*
X146494505Y-94384916D01*
X146444417Y-94418382D01*
X146442500Y-94419565D01*
X146442491Y-94419571D01*
X146381341Y-94457289D01*
X146257289Y-94581341D01*
X146219571Y-94642491D01*
X146218394Y-94644400D01*
X146184916Y-94694505D01*
X146179653Y-94707207D01*
X146174438Y-94715663D01*
X146165188Y-94730660D01*
X146165183Y-94730671D01*
X146147597Y-94783739D01*
X146147598Y-94783740D01*
X146146175Y-94788033D01*
X146128342Y-94831087D01*
X146122983Y-94858018D01*
X146120571Y-94865300D01*
X146110002Y-94897196D01*
X146110000Y-94897204D01*
X146105116Y-94945006D01*
X146104096Y-94951793D01*
X146104075Y-94952763D01*
X146103751Y-94954704D01*
X146099500Y-94976082D01*
X145241535Y-94976082D01*
X145219738Y-94866508D01*
X145219737Y-94866507D01*
X145219737Y-94866503D01*
X145216792Y-94859394D01*
X145160069Y-94722450D01*
X145152600Y-94652981D01*
X145160067Y-94627549D01*
X145219737Y-94483494D01*
X145250500Y-94328839D01*
X145250500Y-94171155D01*
X145250500Y-94171152D01*
X145250499Y-94171150D01*
X145232138Y-94078844D01*
X145219737Y-94016500D01*
X145213109Y-94000499D01*
X145159397Y-93870824D01*
X145159390Y-93870811D01*
X145071789Y-93739708D01*
X145071786Y-93739704D01*
X144960292Y-93628210D01*
X144960288Y-93628207D01*
X144829185Y-93540606D01*
X144829172Y-93540599D01*
X144683501Y-93480261D01*
X144683489Y-93480258D01*
X144528845Y-93449497D01*
X144528842Y-93449497D01*
X144371158Y-93449497D01*
X144371155Y-93449497D01*
X144216510Y-93480258D01*
X144216498Y-93480261D01*
X144070827Y-93540599D01*
X144070814Y-93540606D01*
X143939711Y-93628207D01*
X143939707Y-93628210D01*
X143828213Y-93739704D01*
X143828207Y-93739712D01*
X143740607Y-93870815D01*
X143740602Y-93870824D01*
X143715118Y-93932347D01*
X143688239Y-93972574D01*
X143294725Y-94366089D01*
X143294724Y-94366090D01*
X143238993Y-94449500D01*
X143238991Y-94449502D01*
X143223539Y-94472626D01*
X143223533Y-94472636D01*
X143174499Y-94591016D01*
X143174497Y-94591022D01*
X143149500Y-94716689D01*
X143149500Y-108725500D01*
X143129815Y-108792539D01*
X143077011Y-108838294D01*
X143025500Y-108849500D01*
X142971155Y-108849500D01*
X142816510Y-108880261D01*
X142816498Y-108880264D01*
X142670827Y-108940602D01*
X142670814Y-108940609D01*
X142539711Y-109028210D01*
X142539707Y-109028213D01*
X142428213Y-109139707D01*
X142428210Y-109139711D01*
X142340609Y-109270814D01*
X142340602Y-109270827D01*
X142280264Y-109416498D01*
X142280261Y-109416510D01*
X142249500Y-109571153D01*
X142249500Y-109728846D01*
X142280261Y-109883489D01*
X142280264Y-109883501D01*
X142340602Y-110029172D01*
X142340609Y-110029185D01*
X142428210Y-110160288D01*
X142428213Y-110160292D01*
X142539707Y-110271786D01*
X142539711Y-110271789D01*
X142670814Y-110359390D01*
X142670827Y-110359397D01*
X142786361Y-110407252D01*
X142816503Y-110419737D01*
X142950496Y-110446390D01*
X142971153Y-110450499D01*
X142971156Y-110450500D01*
X143025500Y-110450500D01*
X143092539Y-110470185D01*
X143138294Y-110522989D01*
X143149500Y-110574500D01*
X143149500Y-110964034D01*
X143161205Y-111022875D01*
X143174499Y-111089710D01*
X143190947Y-111129417D01*
X143192893Y-111134117D01*
X143194884Y-111141191D01*
X143194773Y-111150923D01*
X143199518Y-111174774D01*
X143199518Y-111178828D01*
X143230279Y-111333471D01*
X143230282Y-111333483D01*
X143290620Y-111479154D01*
X143290627Y-111479167D01*
X143378228Y-111610270D01*
X143378231Y-111610274D01*
X143489725Y-111721768D01*
X143489729Y-111721771D01*
X143620832Y-111809372D01*
X143620845Y-111809379D01*
X143720117Y-111850498D01*
X143766521Y-111869719D01*
X143921171Y-111900481D01*
X143921174Y-111900482D01*
X143921176Y-111900482D01*
X144074451Y-111900482D01*
X144078860Y-111900482D01*
X144233515Y-111869719D01*
X144379197Y-111809376D01*
X144510307Y-111721771D01*
X144568386Y-111663691D01*
X144629707Y-111630208D01*
X144699399Y-111635192D01*
X144743747Y-111663693D01*
X144992872Y-111912819D01*
X145026357Y-111974142D01*
X145021373Y-112043834D01*
X144979501Y-112099767D01*
X144914037Y-112124184D01*
X144905191Y-112124500D01*
X144249998Y-112124500D01*
X144249980Y-112124501D01*
X144195595Y-112130057D01*
X144195586Y-112130058D01*
X144147203Y-112135001D01*
X144118269Y-112144588D01*
X144118262Y-112144590D01*
X143980666Y-112190186D01*
X143980663Y-112190187D01*
X143831342Y-112282289D01*
X143707289Y-112406342D01*
X143615187Y-112555663D01*
X143615185Y-112555668D01*
X143587349Y-112639670D01*
X143560001Y-112722203D01*
X143560001Y-112722204D01*
X143560000Y-112722204D01*
X143549500Y-112824983D01*
X143549500Y-114725001D01*
X143549501Y-114725018D01*
X143560000Y-114827796D01*
X143560001Y-114827799D01*
X143615185Y-114994331D01*
X143615187Y-114994336D01*
X143618485Y-114999683D01*
X143707288Y-115143656D01*
X143831344Y-115267712D01*
X143980666Y-115359814D01*
X144147203Y-115414999D01*
X144249991Y-115425500D01*
X145777701Y-115425499D01*
X145844739Y-115445184D01*
X145890494Y-115497987D01*
X145900438Y-115567146D01*
X145871413Y-115630702D01*
X145839700Y-115656886D01*
X145731287Y-115719477D01*
X145731282Y-115719481D01*
X145037584Y-116413181D01*
X144976261Y-116446666D01*
X144949903Y-116449500D01*
X122915783Y-116449500D01*
X122848744Y-116429815D01*
X122828102Y-116413181D01*
X121486819Y-115071898D01*
X121453334Y-115010575D01*
X121450500Y-114984217D01*
X121450500Y-113371153D01*
X121949500Y-113371153D01*
X121949500Y-113528846D01*
X121980261Y-113683489D01*
X121980264Y-113683501D01*
X122040602Y-113829172D01*
X122040609Y-113829185D01*
X122128210Y-113960288D01*
X122128213Y-113960292D01*
X122239707Y-114071786D01*
X122239711Y-114071789D01*
X122370814Y-114159390D01*
X122370827Y-114159397D01*
X122501035Y-114213330D01*
X122516503Y-114219737D01*
X122671153Y-114250499D01*
X122671156Y-114250500D01*
X122671158Y-114250500D01*
X122828844Y-114250500D01*
X122828845Y-114250499D01*
X122983497Y-114219737D01*
X123102550Y-114170423D01*
X123172017Y-114162955D01*
X123197450Y-114170422D01*
X123316506Y-114219737D01*
X123471156Y-114250499D01*
X123471159Y-114250500D01*
X123471161Y-114250500D01*
X123628847Y-114250500D01*
X123628848Y-114250499D01*
X123783500Y-114219737D01*
X123902553Y-114170423D01*
X123972020Y-114162955D01*
X123997453Y-114170422D01*
X124116509Y-114219737D01*
X124271159Y-114250499D01*
X124271162Y-114250500D01*
X124271164Y-114250500D01*
X124428850Y-114250500D01*
X124428851Y-114250499D01*
X124583503Y-114219737D01*
X124702556Y-114170423D01*
X124772023Y-114162955D01*
X124797456Y-114170422D01*
X124916512Y-114219737D01*
X125071162Y-114250499D01*
X125071165Y-114250500D01*
X125071167Y-114250500D01*
X125228853Y-114250500D01*
X125228854Y-114250499D01*
X125383506Y-114219737D01*
X125529188Y-114159394D01*
X125660298Y-114071789D01*
X125771798Y-113960289D01*
X125859403Y-113829179D01*
X125919746Y-113683497D01*
X125950509Y-113528842D01*
X125950509Y-113371158D01*
X125950509Y-113371155D01*
X125950508Y-113371153D01*
X125928032Y-113258160D01*
X125919746Y-113216503D01*
X125900021Y-113168882D01*
X125859406Y-113070827D01*
X125859399Y-113070814D01*
X125771798Y-112939711D01*
X125771795Y-112939707D01*
X125660301Y-112828213D01*
X125660297Y-112828210D01*
X125529194Y-112740609D01*
X125529181Y-112740602D01*
X125383510Y-112680264D01*
X125383498Y-112680261D01*
X125228854Y-112649500D01*
X125228851Y-112649500D01*
X125071167Y-112649500D01*
X125071164Y-112649500D01*
X124916519Y-112680261D01*
X124916507Y-112680264D01*
X124797459Y-112729575D01*
X124727989Y-112737044D01*
X124702555Y-112729575D01*
X124583507Y-112680264D01*
X124583495Y-112680261D01*
X124428851Y-112649500D01*
X124428848Y-112649500D01*
X124271164Y-112649500D01*
X124271161Y-112649500D01*
X124116516Y-112680261D01*
X124116504Y-112680264D01*
X123997456Y-112729575D01*
X123927986Y-112737044D01*
X123902552Y-112729575D01*
X123783504Y-112680264D01*
X123783492Y-112680261D01*
X123628848Y-112649500D01*
X123628845Y-112649500D01*
X123471161Y-112649500D01*
X123471158Y-112649500D01*
X123316513Y-112680261D01*
X123316501Y-112680264D01*
X123197453Y-112729575D01*
X123127983Y-112737044D01*
X123102549Y-112729575D01*
X122983501Y-112680264D01*
X122983489Y-112680261D01*
X122828845Y-112649500D01*
X122828842Y-112649500D01*
X122671158Y-112649500D01*
X122671155Y-112649500D01*
X122516510Y-112680261D01*
X122516498Y-112680264D01*
X122370827Y-112740602D01*
X122370814Y-112740609D01*
X122239711Y-112828210D01*
X122239707Y-112828213D01*
X122128213Y-112939707D01*
X122128210Y-112939711D01*
X122040609Y-113070814D01*
X122040602Y-113070827D01*
X121980264Y-113216498D01*
X121980261Y-113216510D01*
X121949500Y-113371153D01*
X121450500Y-113371153D01*
X121450500Y-110971152D01*
X127049500Y-110971152D01*
X127049500Y-111128845D01*
X127080261Y-111283488D01*
X127080264Y-111283500D01*
X127140602Y-111429171D01*
X127140609Y-111429184D01*
X127228210Y-111560287D01*
X127228213Y-111560291D01*
X127339707Y-111671785D01*
X127339711Y-111671788D01*
X127470814Y-111759389D01*
X127470827Y-111759396D01*
X127616498Y-111819734D01*
X127616503Y-111819736D01*
X127771153Y-111850498D01*
X127771156Y-111850499D01*
X127771158Y-111850499D01*
X127928844Y-111850499D01*
X127928845Y-111850498D01*
X128083497Y-111819736D01*
X128229179Y-111759393D01*
X128360289Y-111671788D01*
X128471789Y-111560288D01*
X128559394Y-111429178D01*
X128619737Y-111283496D01*
X128650500Y-111128841D01*
X128650500Y-110971157D01*
X128650500Y-110971154D01*
X128650499Y-110971152D01*
X128634917Y-110892816D01*
X128619737Y-110816502D01*
X128608413Y-110789163D01*
X128559397Y-110670826D01*
X128559390Y-110670813D01*
X128471789Y-110539710D01*
X128471786Y-110539706D01*
X128360292Y-110428212D01*
X128360288Y-110428209D01*
X128229185Y-110340608D01*
X128229172Y-110340601D01*
X128083501Y-110280263D01*
X128083489Y-110280260D01*
X127928845Y-110249499D01*
X127928842Y-110249499D01*
X127771158Y-110249499D01*
X127771155Y-110249499D01*
X127616510Y-110280260D01*
X127616498Y-110280263D01*
X127470827Y-110340601D01*
X127470814Y-110340608D01*
X127339711Y-110428209D01*
X127339707Y-110428212D01*
X127228213Y-110539706D01*
X127228210Y-110539710D01*
X127140609Y-110670813D01*
X127140602Y-110670826D01*
X127080264Y-110816497D01*
X127080261Y-110816509D01*
X127049500Y-110971152D01*
X121450500Y-110971152D01*
X121450500Y-108229765D01*
X121470185Y-108162726D01*
X121471398Y-108160874D01*
X121496015Y-108124033D01*
X121559394Y-108029179D01*
X121619737Y-107883497D01*
X121650500Y-107728842D01*
X121650500Y-107571158D01*
X121650500Y-107571155D01*
X121650499Y-107571153D01*
X121619737Y-107416503D01*
X121580765Y-107322416D01*
X121570425Y-107297452D01*
X121562956Y-107227983D01*
X121570425Y-107202548D01*
X121609811Y-107107461D01*
X121619737Y-107083497D01*
X121650500Y-106928842D01*
X121650500Y-106771158D01*
X121650500Y-106771155D01*
X121650499Y-106771153D01*
X121644099Y-106738977D01*
X121619737Y-106616503D01*
X121600955Y-106571158D01*
X121600953Y-106571153D01*
X123249500Y-106571153D01*
X123249500Y-106728846D01*
X123280261Y-106883489D01*
X123280264Y-106883501D01*
X123340602Y-107029172D01*
X123340609Y-107029185D01*
X123428210Y-107160288D01*
X123428213Y-107160292D01*
X123539707Y-107271786D01*
X123539711Y-107271789D01*
X123670814Y-107359390D01*
X123670827Y-107359397D01*
X123774599Y-107402380D01*
X123816503Y-107419737D01*
X123971153Y-107450499D01*
X123971156Y-107450500D01*
X123971158Y-107450500D01*
X124128844Y-107450500D01*
X124128845Y-107450499D01*
X124283497Y-107419737D01*
X124429179Y-107359394D01*
X124560289Y-107271789D01*
X124671789Y-107160289D01*
X124759394Y-107029179D01*
X124819737Y-106883497D01*
X124850500Y-106728842D01*
X124850500Y-106571158D01*
X124850500Y-106571155D01*
X124850499Y-106571153D01*
X124832204Y-106479179D01*
X124819737Y-106416503D01*
X124787929Y-106339711D01*
X124759397Y-106270827D01*
X124759390Y-106270814D01*
X124671789Y-106139711D01*
X124671786Y-106139707D01*
X124560292Y-106028213D01*
X124560288Y-106028210D01*
X124429185Y-105940609D01*
X124429172Y-105940602D01*
X124283501Y-105880264D01*
X124283489Y-105880261D01*
X124128845Y-105849500D01*
X124128842Y-105849500D01*
X123971158Y-105849500D01*
X123971155Y-105849500D01*
X123816510Y-105880261D01*
X123816498Y-105880264D01*
X123670827Y-105940602D01*
X123670814Y-105940609D01*
X123539711Y-106028210D01*
X123539707Y-106028213D01*
X123428213Y-106139707D01*
X123428210Y-106139711D01*
X123340609Y-106270814D01*
X123340602Y-106270827D01*
X123280264Y-106416498D01*
X123280261Y-106416510D01*
X123249500Y-106571153D01*
X121600953Y-106571153D01*
X121559397Y-106470827D01*
X121559390Y-106470814D01*
X121471789Y-106339711D01*
X121471786Y-106339707D01*
X121360292Y-106228213D01*
X121360288Y-106228210D01*
X121229185Y-106140609D01*
X121229172Y-106140602D01*
X121083501Y-106080264D01*
X121083489Y-106080261D01*
X120928845Y-106049500D01*
X120928842Y-106049500D01*
X120771158Y-106049500D01*
X120771155Y-106049500D01*
X120616510Y-106080261D01*
X120616498Y-106080264D01*
X120470827Y-106140602D01*
X120470814Y-106140609D01*
X120339711Y-106228210D01*
X120339707Y-106228213D01*
X120228213Y-106339707D01*
X120228210Y-106339711D01*
X120140609Y-106470814D01*
X120140602Y-106470827D01*
X120080264Y-106616498D01*
X120080261Y-106616508D01*
X120061412Y-106711269D01*
X120029027Y-106773180D01*
X120027476Y-106774758D01*
X119874214Y-106928019D01*
X119874215Y-106928020D01*
X119769479Y-107032756D01*
X119759236Y-107050499D01*
X119736186Y-107090423D01*
X119726349Y-107107461D01*
X119690423Y-107169685D01*
X119679027Y-107212214D01*
X119649499Y-107322414D01*
X119649499Y-107322416D01*
X119649499Y-107490517D01*
X119649500Y-107490530D01*
X119649500Y-109363444D01*
X119629815Y-109430483D01*
X119577011Y-109476238D01*
X119507853Y-109486182D01*
X119489575Y-109481202D01*
X119489324Y-109482031D01*
X119483500Y-109480264D01*
X119483497Y-109480263D01*
X119483492Y-109480262D01*
X119483489Y-109480261D01*
X119328845Y-109449500D01*
X119328842Y-109449500D01*
X119171158Y-109449500D01*
X119171155Y-109449500D01*
X119016510Y-109480261D01*
X119016498Y-109480264D01*
X118870827Y-109540602D01*
X118870814Y-109540609D01*
X118739711Y-109628210D01*
X118739707Y-109628213D01*
X118628213Y-109739707D01*
X118628210Y-109739711D01*
X118540609Y-109870814D01*
X118540602Y-109870827D01*
X118480264Y-110016498D01*
X118480261Y-110016510D01*
X118449500Y-110171153D01*
X117950500Y-110171153D01*
X117950500Y-104721153D01*
X122699500Y-104721153D01*
X122699500Y-104878846D01*
X122730261Y-105033489D01*
X122730264Y-105033501D01*
X122790602Y-105179172D01*
X122790609Y-105179185D01*
X122878210Y-105310288D01*
X122878213Y-105310292D01*
X122989707Y-105421786D01*
X122989711Y-105421789D01*
X123120814Y-105509390D01*
X123120827Y-105509397D01*
X123241059Y-105559198D01*
X123266503Y-105569737D01*
X123416131Y-105599500D01*
X123421153Y-105600499D01*
X123421156Y-105600500D01*
X123421158Y-105600500D01*
X123578844Y-105600500D01*
X123578845Y-105600499D01*
X123733497Y-105569737D01*
X123879179Y-105509394D01*
X124010289Y-105421789D01*
X124121789Y-105310289D01*
X124209394Y-105179179D01*
X124217383Y-105159893D01*
X124234282Y-105119093D01*
X124269737Y-105033497D01*
X124300500Y-104878842D01*
X124300500Y-104721158D01*
X124300500Y-104721155D01*
X124300499Y-104721153D01*
X124292668Y-104681784D01*
X124269737Y-104566503D01*
X124263551Y-104551569D01*
X124209397Y-104420827D01*
X124209390Y-104420814D01*
X124121789Y-104289711D01*
X124121786Y-104289707D01*
X124010292Y-104178213D01*
X124010288Y-104178210D01*
X123879185Y-104090609D01*
X123879172Y-104090602D01*
X123733501Y-104030264D01*
X123733489Y-104030261D01*
X123578845Y-103999500D01*
X123578842Y-103999500D01*
X123421158Y-103999500D01*
X123421155Y-103999500D01*
X123266510Y-104030261D01*
X123266498Y-104030264D01*
X123120827Y-104090602D01*
X123120814Y-104090609D01*
X122989711Y-104178210D01*
X122989707Y-104178213D01*
X122878213Y-104289707D01*
X122878210Y-104289711D01*
X122790609Y-104420814D01*
X122790602Y-104420827D01*
X122730264Y-104566498D01*
X122730261Y-104566510D01*
X122699500Y-104721153D01*
X117950500Y-104721153D01*
X117950500Y-103021153D01*
X119899500Y-103021153D01*
X119899500Y-103178846D01*
X119930261Y-103333489D01*
X119930264Y-103333501D01*
X119990603Y-103479173D01*
X119991219Y-103480325D01*
X119991358Y-103480997D01*
X119992937Y-103484807D01*
X119992214Y-103485106D01*
X120005458Y-103548729D01*
X119996420Y-103586225D01*
X119963454Y-103665815D01*
X119963452Y-103665819D01*
X119932691Y-103820467D01*
X119932691Y-103978160D01*
X119963452Y-104132803D01*
X119963455Y-104132815D01*
X120023793Y-104278486D01*
X120023800Y-104278499D01*
X120111401Y-104409602D01*
X120111404Y-104409606D01*
X120222898Y-104521100D01*
X120222902Y-104521103D01*
X120354005Y-104608704D01*
X120354018Y-104608711D01*
X120499689Y-104669049D01*
X120499694Y-104669051D01*
X120634476Y-104695861D01*
X120654344Y-104699813D01*
X120654347Y-104699814D01*
X120654349Y-104699814D01*
X120812035Y-104699814D01*
X120812036Y-104699813D01*
X120966688Y-104669051D01*
X121112370Y-104608708D01*
X121243480Y-104521103D01*
X121354980Y-104409603D01*
X121442585Y-104278493D01*
X121502928Y-104132811D01*
X121533691Y-103978156D01*
X121533691Y-103820472D01*
X121533691Y-103820469D01*
X121533690Y-103820467D01*
X121531993Y-103811935D01*
X121502928Y-103665817D01*
X121487614Y-103628846D01*
X121442588Y-103520141D01*
X121441977Y-103518998D01*
X121441837Y-103518329D01*
X121440254Y-103514506D01*
X121440978Y-103514205D01*
X121427730Y-103450596D01*
X121436767Y-103413091D01*
X121469737Y-103333497D01*
X121500500Y-103178842D01*
X121500500Y-103021158D01*
X121500500Y-103021155D01*
X121500499Y-103021153D01*
X121490877Y-102972782D01*
X121469737Y-102866503D01*
X121456437Y-102834393D01*
X121409397Y-102720827D01*
X121409390Y-102720814D01*
X121321789Y-102589711D01*
X121321786Y-102589707D01*
X121210292Y-102478213D01*
X121210288Y-102478210D01*
X121079185Y-102390609D01*
X121079172Y-102390602D01*
X120933501Y-102330264D01*
X120933489Y-102330261D01*
X120778845Y-102299500D01*
X120778842Y-102299500D01*
X120621158Y-102299500D01*
X120621155Y-102299500D01*
X120466510Y-102330261D01*
X120466498Y-102330264D01*
X120320827Y-102390602D01*
X120320814Y-102390609D01*
X120189711Y-102478210D01*
X120189707Y-102478213D01*
X120078213Y-102589707D01*
X120078210Y-102589711D01*
X119990609Y-102720814D01*
X119990602Y-102720827D01*
X119930264Y-102866498D01*
X119930261Y-102866510D01*
X119899500Y-103021153D01*
X117950500Y-103021153D01*
X117950500Y-101921153D01*
X123749500Y-101921153D01*
X123749500Y-102078846D01*
X123780261Y-102233489D01*
X123780264Y-102233501D01*
X123839930Y-102377548D01*
X123847399Y-102447017D01*
X123839930Y-102472452D01*
X123780264Y-102616498D01*
X123780261Y-102616510D01*
X123749500Y-102771153D01*
X123749500Y-102928846D01*
X123780261Y-103083489D01*
X123780264Y-103083501D01*
X123840602Y-103229172D01*
X123840609Y-103229185D01*
X123928210Y-103360288D01*
X123928213Y-103360292D01*
X124039707Y-103471786D01*
X124039711Y-103471789D01*
X124170814Y-103559390D01*
X124170827Y-103559397D01*
X124308683Y-103616498D01*
X124316503Y-103619737D01*
X124471153Y-103650499D01*
X124471156Y-103650500D01*
X124471158Y-103650500D01*
X124628844Y-103650500D01*
X124628845Y-103650499D01*
X124783497Y-103619737D01*
X124929179Y-103559394D01*
X125060289Y-103471789D01*
X125171789Y-103360289D01*
X125259394Y-103229179D01*
X125319737Y-103083497D01*
X125350500Y-102928842D01*
X125350500Y-102771158D01*
X125346031Y-102748690D01*
X125352260Y-102679099D01*
X125395123Y-102623922D01*
X125461013Y-102600678D01*
X125467649Y-102600500D01*
X131099903Y-102600500D01*
X131166942Y-102620185D01*
X131187584Y-102636819D01*
X132213181Y-103662416D01*
X132246666Y-103723739D01*
X132249500Y-103750097D01*
X132249500Y-109622649D01*
X132229815Y-109689688D01*
X132177011Y-109735443D01*
X132107853Y-109745387D01*
X132056609Y-109725751D01*
X131929185Y-109640609D01*
X131929172Y-109640602D01*
X131783501Y-109580264D01*
X131783489Y-109580261D01*
X131628845Y-109549500D01*
X131628842Y-109549500D01*
X131471158Y-109549500D01*
X131471155Y-109549500D01*
X131316510Y-109580261D01*
X131316498Y-109580264D01*
X131170827Y-109640602D01*
X131170814Y-109640609D01*
X131039711Y-109728210D01*
X131039707Y-109728213D01*
X130928213Y-109839707D01*
X130851638Y-109954309D01*
X130798025Y-109999113D01*
X130728700Y-110007820D01*
X130701084Y-109999978D01*
X130568384Y-109945012D01*
X130568372Y-109945009D01*
X130413728Y-109914248D01*
X130413725Y-109914248D01*
X130256041Y-109914248D01*
X130256038Y-109914248D01*
X130101393Y-109945009D01*
X130101381Y-109945012D01*
X129955710Y-110005350D01*
X129955697Y-110005357D01*
X129824594Y-110092958D01*
X129824590Y-110092961D01*
X129713096Y-110204455D01*
X129713093Y-110204459D01*
X129625492Y-110335562D01*
X129625485Y-110335575D01*
X129565147Y-110481246D01*
X129565144Y-110481258D01*
X129534383Y-110635901D01*
X129534383Y-110793594D01*
X129565144Y-110948237D01*
X129565147Y-110948249D01*
X129625485Y-111093920D01*
X129625492Y-111093933D01*
X129713093Y-111225036D01*
X129713096Y-111225040D01*
X129824590Y-111336534D01*
X129824594Y-111336537D01*
X129955697Y-111424138D01*
X129955710Y-111424145D01*
X130088547Y-111479167D01*
X130101386Y-111484485D01*
X130206995Y-111505492D01*
X130256036Y-111515247D01*
X130256039Y-111515248D01*
X130256041Y-111515248D01*
X130413727Y-111515248D01*
X130413728Y-111515247D01*
X130568380Y-111484485D01*
X130701887Y-111429185D01*
X130714055Y-111424145D01*
X130714055Y-111424144D01*
X130714062Y-111424142D01*
X130845172Y-111336537D01*
X130956672Y-111225037D01*
X131033245Y-111110437D01*
X131086854Y-111065635D01*
X131156179Y-111056927D01*
X131183797Y-111064769D01*
X131254206Y-111093933D01*
X131316503Y-111119737D01*
X131424359Y-111141191D01*
X131471153Y-111150499D01*
X131471156Y-111150500D01*
X131471158Y-111150500D01*
X131628844Y-111150500D01*
X131628845Y-111150499D01*
X131783497Y-111119737D01*
X131929179Y-111059394D01*
X131982400Y-111023833D01*
X132056609Y-110974248D01*
X132123286Y-110953370D01*
X132190666Y-110971854D01*
X132237357Y-111023833D01*
X132249500Y-111077350D01*
X132249500Y-112270234D01*
X132229815Y-112337273D01*
X132228602Y-112339125D01*
X132140609Y-112470814D01*
X132140602Y-112470827D01*
X132080264Y-112616498D01*
X132080261Y-112616510D01*
X132049500Y-112771153D01*
X132049500Y-112928846D01*
X132080261Y-113083489D01*
X132080264Y-113083501D01*
X132140602Y-113229172D01*
X132140609Y-113229185D01*
X132228210Y-113360288D01*
X132228213Y-113360292D01*
X132339707Y-113471786D01*
X132339711Y-113471789D01*
X132470814Y-113559390D01*
X132470827Y-113559397D01*
X132616498Y-113619735D01*
X132616503Y-113619737D01*
X132771153Y-113650499D01*
X132771156Y-113650500D01*
X132771158Y-113650500D01*
X132928844Y-113650500D01*
X132928845Y-113650499D01*
X133083497Y-113619737D01*
X133229179Y-113559394D01*
X133360289Y-113471789D01*
X133471789Y-113360289D01*
X133559394Y-113229179D01*
X133619737Y-113083497D01*
X133650500Y-112928842D01*
X133650500Y-112771158D01*
X133650500Y-112771155D01*
X133650499Y-112771153D01*
X133643714Y-112737044D01*
X133619737Y-112616503D01*
X133594538Y-112555666D01*
X133559397Y-112470827D01*
X133559390Y-112470814D01*
X133471398Y-112339125D01*
X133450520Y-112272447D01*
X133450500Y-112270234D01*
X133450500Y-108124033D01*
X137202380Y-108124033D01*
X137202380Y-108281726D01*
X137233141Y-108436369D01*
X137233144Y-108436381D01*
X137293482Y-108582052D01*
X137293489Y-108582065D01*
X137381090Y-108713168D01*
X137381093Y-108713172D01*
X137492587Y-108824666D01*
X137492591Y-108824669D01*
X137623694Y-108912270D01*
X137623707Y-108912277D01*
X137725190Y-108954312D01*
X137769383Y-108972617D01*
X137924033Y-109003379D01*
X137924036Y-109003380D01*
X137924038Y-109003380D01*
X138081724Y-109003380D01*
X138081725Y-109003379D01*
X138236377Y-108972617D01*
X138382059Y-108912274D01*
X138513169Y-108824669D01*
X138624669Y-108713169D01*
X138712274Y-108582059D01*
X138772617Y-108436377D01*
X138803380Y-108281722D01*
X138803380Y-108124038D01*
X138803380Y-108124035D01*
X138803379Y-108124033D01*
X138772618Y-107969390D01*
X138772617Y-107969383D01*
X138737039Y-107883489D01*
X138712277Y-107823707D01*
X138712270Y-107823694D01*
X138624669Y-107692591D01*
X138624666Y-107692587D01*
X138513172Y-107581093D01*
X138513168Y-107581090D01*
X138382065Y-107493489D01*
X138382052Y-107493482D01*
X138236381Y-107433144D01*
X138236369Y-107433141D01*
X138081725Y-107402380D01*
X138081722Y-107402380D01*
X137924038Y-107402380D01*
X137924035Y-107402380D01*
X137769390Y-107433141D01*
X137769378Y-107433144D01*
X137623707Y-107493482D01*
X137623694Y-107493489D01*
X137492591Y-107581090D01*
X137492587Y-107581093D01*
X137381093Y-107692587D01*
X137381090Y-107692591D01*
X137293489Y-107823694D01*
X137293482Y-107823707D01*
X137233144Y-107969378D01*
X137233141Y-107969390D01*
X137202380Y-108124033D01*
X133450500Y-108124033D01*
X133450500Y-107174500D01*
X133470185Y-107107461D01*
X133522989Y-107061706D01*
X133574500Y-107050500D01*
X133678844Y-107050500D01*
X133678845Y-107050499D01*
X133833497Y-107019737D01*
X133946358Y-106972989D01*
X133979172Y-106959397D01*
X133979172Y-106959396D01*
X133979179Y-106959394D01*
X134110289Y-106871789D01*
X134221789Y-106760289D01*
X134309394Y-106629179D01*
X134314643Y-106616508D01*
X134369735Y-106483501D01*
X134369737Y-106483497D01*
X134400500Y-106328842D01*
X134400500Y-106171158D01*
X134400500Y-106171155D01*
X134400499Y-106171153D01*
X134382419Y-106080261D01*
X134369737Y-106016503D01*
X134347737Y-105963389D01*
X134309397Y-105870827D01*
X134309390Y-105870814D01*
X134221789Y-105739711D01*
X134221786Y-105739707D01*
X134110292Y-105628213D01*
X134110288Y-105628210D01*
X133979185Y-105540609D01*
X133979172Y-105540602D01*
X133833501Y-105480264D01*
X133833489Y-105480261D01*
X133678845Y-105449500D01*
X133678842Y-105449500D01*
X133574500Y-105449500D01*
X133565814Y-105446949D01*
X133556853Y-105448238D01*
X133532812Y-105437259D01*
X133507461Y-105429815D01*
X133501533Y-105422974D01*
X133493297Y-105419213D01*
X133479007Y-105396978D01*
X133461706Y-105377011D01*
X133459418Y-105366496D01*
X133455523Y-105360435D01*
X133450500Y-105325500D01*
X133450500Y-105186132D01*
X133470185Y-105119093D01*
X133522989Y-105073338D01*
X133574500Y-105062132D01*
X133693255Y-105062132D01*
X133693256Y-105062131D01*
X133847908Y-105031369D01*
X133993590Y-104971026D01*
X134124700Y-104883421D01*
X134236200Y-104771921D01*
X134323805Y-104640811D01*
X134332535Y-104619736D01*
X134353316Y-104569564D01*
X134384148Y-104495129D01*
X134414911Y-104340474D01*
X134414911Y-104182790D01*
X134414911Y-104182787D01*
X134414910Y-104182785D01*
X134408288Y-104149494D01*
X134384148Y-104028135D01*
X134380298Y-104018841D01*
X134323808Y-103882459D01*
X134323801Y-103882446D01*
X134236200Y-103751343D01*
X134236197Y-103751339D01*
X134124703Y-103639845D01*
X134124699Y-103639842D01*
X133993596Y-103552241D01*
X133993583Y-103552234D01*
X133847912Y-103491896D01*
X133847900Y-103491893D01*
X133693256Y-103461132D01*
X133693253Y-103461132D01*
X133569815Y-103461132D01*
X133502776Y-103441447D01*
X133457021Y-103388643D01*
X133450043Y-103369236D01*
X133409577Y-103218216D01*
X133391155Y-103186308D01*
X133330524Y-103081290D01*
X133330518Y-103081282D01*
X132865734Y-102616498D01*
X132313067Y-102063832D01*
X133659500Y-102063832D01*
X133659500Y-102221525D01*
X133690261Y-102376168D01*
X133690264Y-102376180D01*
X133750602Y-102521851D01*
X133750609Y-102521864D01*
X133838210Y-102652967D01*
X133838213Y-102652971D01*
X133949707Y-102764465D01*
X133949711Y-102764468D01*
X134080814Y-102852069D01*
X134080827Y-102852076D01*
X134219207Y-102909394D01*
X134226503Y-102912416D01*
X134381153Y-102943178D01*
X134381156Y-102943179D01*
X134381158Y-102943179D01*
X134538844Y-102943179D01*
X134538845Y-102943178D01*
X134693497Y-102912416D01*
X134839179Y-102852073D01*
X134970289Y-102764468D01*
X135081789Y-102652968D01*
X135169394Y-102521858D01*
X135229737Y-102376176D01*
X135260500Y-102221521D01*
X135260500Y-102063837D01*
X135260500Y-102063834D01*
X135260499Y-102063832D01*
X135253606Y-102029179D01*
X135229737Y-101909182D01*
X135225933Y-101899998D01*
X135169397Y-101763506D01*
X135169390Y-101763493D01*
X135081789Y-101632390D01*
X135081786Y-101632386D01*
X134970292Y-101520892D01*
X134970288Y-101520889D01*
X134839185Y-101433288D01*
X134839172Y-101433281D01*
X134693501Y-101372943D01*
X134693489Y-101372940D01*
X134538845Y-101342179D01*
X134538842Y-101342179D01*
X134381158Y-101342179D01*
X134381155Y-101342179D01*
X134226510Y-101372940D01*
X134226498Y-101372943D01*
X134080827Y-101433281D01*
X134080814Y-101433288D01*
X133949711Y-101520889D01*
X133949707Y-101520892D01*
X133838213Y-101632386D01*
X133838210Y-101632390D01*
X133750609Y-101763493D01*
X133750602Y-101763506D01*
X133690264Y-101909177D01*
X133690261Y-101909189D01*
X133659500Y-102063832D01*
X132313067Y-102063832D01*
X131887589Y-101638354D01*
X131887588Y-101638352D01*
X131768717Y-101519481D01*
X131768716Y-101519480D01*
X131681904Y-101469360D01*
X131681904Y-101469359D01*
X131681900Y-101469358D01*
X131631785Y-101440423D01*
X131479057Y-101399499D01*
X131320943Y-101399499D01*
X131313347Y-101399499D01*
X131313331Y-101399500D01*
X126526504Y-101399500D01*
X126459465Y-101379815D01*
X126413710Y-101327011D01*
X126403766Y-101257853D01*
X126411944Y-101228046D01*
X126419735Y-101209237D01*
X126419735Y-101209236D01*
X126419737Y-101209232D01*
X126450500Y-101054577D01*
X126450500Y-100896893D01*
X126450500Y-100896890D01*
X126450499Y-100896888D01*
X126441073Y-100849500D01*
X126419737Y-100742238D01*
X126397978Y-100689707D01*
X126359397Y-100596562D01*
X126359390Y-100596549D01*
X126271789Y-100465446D01*
X126271786Y-100465442D01*
X126160292Y-100353948D01*
X126160288Y-100353945D01*
X126029185Y-100266344D01*
X126029172Y-100266337D01*
X125883501Y-100205999D01*
X125883489Y-100205996D01*
X125728845Y-100175235D01*
X125728842Y-100175235D01*
X125571158Y-100175235D01*
X125571155Y-100175235D01*
X125416510Y-100205996D01*
X125416498Y-100205999D01*
X125270827Y-100266337D01*
X125270814Y-100266344D01*
X125139711Y-100353945D01*
X125139707Y-100353948D01*
X125028213Y-100465442D01*
X125028210Y-100465446D01*
X124940609Y-100596549D01*
X124940602Y-100596562D01*
X124880264Y-100742233D01*
X124880261Y-100742245D01*
X124849500Y-100896888D01*
X124849500Y-100896893D01*
X124849500Y-101054577D01*
X124850730Y-101060759D01*
X124852400Y-101069157D01*
X124846171Y-101138749D01*
X124803308Y-101193926D01*
X124737418Y-101217169D01*
X124706592Y-101214965D01*
X124628842Y-101199500D01*
X124471158Y-101199500D01*
X124471155Y-101199500D01*
X124316510Y-101230261D01*
X124316498Y-101230264D01*
X124170827Y-101290602D01*
X124170814Y-101290609D01*
X124039711Y-101378210D01*
X124039707Y-101378213D01*
X123928213Y-101489707D01*
X123928210Y-101489711D01*
X123840609Y-101620814D01*
X123840602Y-101620827D01*
X123780264Y-101766498D01*
X123780261Y-101766510D01*
X123749500Y-101921153D01*
X117950500Y-101921153D01*
X117950500Y-96071153D01*
X128799500Y-96071153D01*
X128799500Y-96228846D01*
X128830261Y-96383489D01*
X128830264Y-96383501D01*
X128890602Y-96529172D01*
X128890612Y-96529190D01*
X128942008Y-96606110D01*
X128962886Y-96672787D01*
X128944401Y-96740167D01*
X128942008Y-96743890D01*
X128890612Y-96820809D01*
X128890602Y-96820827D01*
X128830264Y-96966498D01*
X128830261Y-96966510D01*
X128799500Y-97121153D01*
X128799500Y-97278846D01*
X128830261Y-97433489D01*
X128830264Y-97433501D01*
X128890602Y-97579171D01*
X128890603Y-97579172D01*
X128890606Y-97579179D01*
X128890609Y-97579184D01*
X128890610Y-97579185D01*
X128908601Y-97606112D01*
X128929477Y-97672790D01*
X128910991Y-97740169D01*
X128908601Y-97743888D01*
X128890610Y-97770814D01*
X128890602Y-97770828D01*
X128830264Y-97916498D01*
X128830261Y-97916510D01*
X128799500Y-98071153D01*
X128799500Y-98228846D01*
X128830261Y-98383489D01*
X128830264Y-98383501D01*
X128890602Y-98529172D01*
X128890612Y-98529190D01*
X128942008Y-98606110D01*
X128962886Y-98672787D01*
X128944401Y-98740167D01*
X128942008Y-98743890D01*
X128890612Y-98820809D01*
X128890602Y-98820827D01*
X128830264Y-98966498D01*
X128830261Y-98966510D01*
X128799500Y-99121153D01*
X128799500Y-99278846D01*
X128830261Y-99433489D01*
X128830264Y-99433501D01*
X128890602Y-99579172D01*
X128890609Y-99579185D01*
X128978210Y-99710288D01*
X128978213Y-99710292D01*
X129089707Y-99821786D01*
X129089711Y-99821789D01*
X129220814Y-99909390D01*
X129220827Y-99909397D01*
X129366498Y-99969735D01*
X129366503Y-99969737D01*
X129521153Y-100000499D01*
X129521156Y-100000500D01*
X129521158Y-100000500D01*
X129678844Y-100000500D01*
X129678845Y-100000499D01*
X129833497Y-99969737D01*
X129951592Y-99920821D01*
X129979172Y-99909397D01*
X129979172Y-99909396D01*
X129979179Y-99909394D01*
X130110289Y-99821789D01*
X130221789Y-99710289D01*
X130309394Y-99579179D01*
X130369737Y-99433497D01*
X130400500Y-99278842D01*
X130400500Y-99171153D01*
X133649500Y-99171153D01*
X133649500Y-99328846D01*
X133680261Y-99483489D01*
X133680264Y-99483501D01*
X133740602Y-99629172D01*
X133740609Y-99629185D01*
X133828210Y-99760288D01*
X133828213Y-99760292D01*
X133939707Y-99871786D01*
X133939711Y-99871789D01*
X134070814Y-99959390D01*
X134070827Y-99959397D01*
X134170060Y-100000500D01*
X134216503Y-100019737D01*
X134371153Y-100050499D01*
X134371156Y-100050500D01*
X134371158Y-100050500D01*
X134528844Y-100050500D01*
X134528845Y-100050499D01*
X134683497Y-100019737D01*
X134829179Y-99959394D01*
X134960289Y-99871789D01*
X135071789Y-99760289D01*
X135159394Y-99629179D01*
X135219737Y-99483497D01*
X135250500Y-99328842D01*
X135250500Y-99171158D01*
X135250500Y-99171155D01*
X135250499Y-99171153D01*
X135230734Y-99071789D01*
X135219737Y-99016503D01*
X135203876Y-98978210D01*
X135159397Y-98870827D01*
X135159390Y-98870814D01*
X135071789Y-98739711D01*
X135071786Y-98739707D01*
X134960292Y-98628213D01*
X134960288Y-98628210D01*
X134829185Y-98540609D01*
X134829172Y-98540602D01*
X134683501Y-98480264D01*
X134683489Y-98480261D01*
X134528845Y-98449500D01*
X134528842Y-98449500D01*
X134371158Y-98449500D01*
X134371155Y-98449500D01*
X134216510Y-98480261D01*
X134216498Y-98480264D01*
X134070827Y-98540602D01*
X134070814Y-98540609D01*
X133939711Y-98628210D01*
X133939707Y-98628213D01*
X133828213Y-98739707D01*
X133828210Y-98739711D01*
X133740609Y-98870814D01*
X133740602Y-98870827D01*
X133680264Y-99016498D01*
X133680261Y-99016510D01*
X133649500Y-99171153D01*
X130400500Y-99171153D01*
X130400500Y-99121158D01*
X130400500Y-99121155D01*
X130400499Y-99121153D01*
X130390679Y-99071786D01*
X130369737Y-98966503D01*
X130362668Y-98949436D01*
X130309397Y-98820827D01*
X130309395Y-98820823D01*
X130309394Y-98820821D01*
X130257991Y-98743891D01*
X130237113Y-98677214D01*
X130255597Y-98609834D01*
X130257991Y-98606109D01*
X130266942Y-98592713D01*
X130309394Y-98529179D01*
X130369737Y-98383497D01*
X130400500Y-98228842D01*
X130400500Y-98071158D01*
X130400500Y-98071155D01*
X130400499Y-98071153D01*
X130392148Y-98029172D01*
X130369737Y-97916503D01*
X130369735Y-97916498D01*
X130309397Y-97770827D01*
X130309389Y-97770812D01*
X130291401Y-97743892D01*
X130270522Y-97677215D01*
X130289006Y-97609835D01*
X130291401Y-97606108D01*
X130309389Y-97579187D01*
X130309390Y-97579184D01*
X130309394Y-97579179D01*
X130312719Y-97571153D01*
X130345096Y-97492986D01*
X130369737Y-97433497D01*
X130400500Y-97278842D01*
X130400500Y-97121158D01*
X130400500Y-97121155D01*
X130400499Y-97121153D01*
X130382012Y-97028213D01*
X130369737Y-96966503D01*
X130369735Y-96966498D01*
X130309397Y-96820827D01*
X130309395Y-96820823D01*
X130309394Y-96820821D01*
X130257991Y-96743891D01*
X130237113Y-96677214D01*
X130255597Y-96609834D01*
X130257991Y-96606109D01*
X130273107Y-96583486D01*
X130309394Y-96529179D01*
X130369737Y-96383497D01*
X130400500Y-96228842D01*
X130400500Y-96071158D01*
X130400500Y-96071155D01*
X130400499Y-96071153D01*
X130392580Y-96031341D01*
X130369737Y-95916503D01*
X130369735Y-95916498D01*
X130309397Y-95770827D01*
X130309390Y-95770814D01*
X130221789Y-95639711D01*
X130221786Y-95639707D01*
X130110292Y-95528213D01*
X130110288Y-95528210D01*
X129979185Y-95440609D01*
X129979172Y-95440602D01*
X129833501Y-95380264D01*
X129833489Y-95380261D01*
X129678845Y-95349500D01*
X129678842Y-95349500D01*
X129521158Y-95349500D01*
X129521155Y-95349500D01*
X129366510Y-95380261D01*
X129366498Y-95380264D01*
X129220827Y-95440602D01*
X129220814Y-95440609D01*
X129089711Y-95528210D01*
X129089707Y-95528213D01*
X128978213Y-95639707D01*
X128978210Y-95639711D01*
X128890609Y-95770814D01*
X128890602Y-95770827D01*
X128830264Y-95916498D01*
X128830261Y-95916510D01*
X128799500Y-96071153D01*
X117950500Y-96071153D01*
X117950500Y-92771153D01*
X120849500Y-92771153D01*
X120849500Y-92928846D01*
X120880261Y-93083489D01*
X120880264Y-93083501D01*
X120940602Y-93229172D01*
X120940609Y-93229185D01*
X121028210Y-93360288D01*
X121028213Y-93360292D01*
X121139707Y-93471786D01*
X121139711Y-93471789D01*
X121270814Y-93559390D01*
X121270827Y-93559397D01*
X121416498Y-93619735D01*
X121416503Y-93619737D01*
X121571153Y-93650499D01*
X121571156Y-93650500D01*
X121571158Y-93650500D01*
X121728844Y-93650500D01*
X121728845Y-93650499D01*
X121883497Y-93619737D01*
X122001592Y-93570821D01*
X122029172Y-93559397D01*
X122029172Y-93559396D01*
X122029179Y-93559394D01*
X122160289Y-93471789D01*
X122271789Y-93360289D01*
X122359394Y-93229179D01*
X122419737Y-93083497D01*
X122442083Y-92971158D01*
X122442084Y-92971153D01*
X128049500Y-92971153D01*
X128049500Y-93128846D01*
X128080261Y-93283489D01*
X128080264Y-93283501D01*
X128140602Y-93429172D01*
X128140609Y-93429185D01*
X128228210Y-93560288D01*
X128228213Y-93560292D01*
X128339707Y-93671786D01*
X128339711Y-93671789D01*
X128470814Y-93759390D01*
X128470827Y-93759397D01*
X128616498Y-93819735D01*
X128616503Y-93819737D01*
X128771153Y-93850499D01*
X128771156Y-93850500D01*
X128771158Y-93850500D01*
X128928844Y-93850500D01*
X128928845Y-93850499D01*
X129083497Y-93819737D01*
X129229179Y-93759394D01*
X129360289Y-93671789D01*
X129471789Y-93560289D01*
X129559394Y-93429179D01*
X129619737Y-93283497D01*
X129650500Y-93128842D01*
X129650500Y-92971158D01*
X129650500Y-92971155D01*
X129650499Y-92971153D01*
X129650009Y-92968691D01*
X129619737Y-92816503D01*
X129600955Y-92771158D01*
X129559397Y-92670827D01*
X129559390Y-92670814D01*
X129471789Y-92539711D01*
X129471786Y-92539707D01*
X129360292Y-92428213D01*
X129360288Y-92428210D01*
X129229185Y-92340609D01*
X129229172Y-92340602D01*
X129083501Y-92280264D01*
X129083489Y-92280261D01*
X128928845Y-92249500D01*
X128928842Y-92249500D01*
X128771158Y-92249500D01*
X128771155Y-92249500D01*
X128616510Y-92280261D01*
X128616498Y-92280264D01*
X128470827Y-92340602D01*
X128470814Y-92340609D01*
X128339711Y-92428210D01*
X128339707Y-92428213D01*
X128228213Y-92539707D01*
X128228210Y-92539711D01*
X128140609Y-92670814D01*
X128140602Y-92670827D01*
X128080264Y-92816498D01*
X128080261Y-92816510D01*
X128049500Y-92971153D01*
X122442084Y-92971153D01*
X122448107Y-92940875D01*
X122448107Y-92940874D01*
X122450500Y-92928844D01*
X122450500Y-92771155D01*
X122450499Y-92771153D01*
X122432204Y-92679179D01*
X122419737Y-92616503D01*
X122387929Y-92539711D01*
X122359397Y-92470827D01*
X122359390Y-92470814D01*
X122271789Y-92339711D01*
X122271786Y-92339707D01*
X122160292Y-92228213D01*
X122160288Y-92228210D01*
X122029185Y-92140609D01*
X122029172Y-92140602D01*
X121883501Y-92080264D01*
X121883489Y-92080261D01*
X121728845Y-92049500D01*
X121728842Y-92049500D01*
X121571158Y-92049500D01*
X121571155Y-92049500D01*
X121416510Y-92080261D01*
X121416498Y-92080264D01*
X121270827Y-92140602D01*
X121270814Y-92140609D01*
X121139711Y-92228210D01*
X121139707Y-92228213D01*
X121028213Y-92339707D01*
X121028210Y-92339711D01*
X120940609Y-92470814D01*
X120940602Y-92470827D01*
X120880264Y-92616498D01*
X120880261Y-92616510D01*
X120849500Y-92771153D01*
X117950500Y-92771153D01*
X117950500Y-90771153D01*
X132649500Y-90771153D01*
X132649500Y-90928846D01*
X132680261Y-91083489D01*
X132680264Y-91083501D01*
X132729574Y-91202548D01*
X132737043Y-91272018D01*
X132729574Y-91297452D01*
X132680264Y-91416498D01*
X132680261Y-91416510D01*
X132649500Y-91571153D01*
X132649500Y-91728846D01*
X132680261Y-91883489D01*
X132680264Y-91883501D01*
X132729574Y-92002548D01*
X132737043Y-92072018D01*
X132729574Y-92097452D01*
X132680264Y-92216498D01*
X132680261Y-92216510D01*
X132649500Y-92371153D01*
X132649500Y-92528846D01*
X132680261Y-92683489D01*
X132680264Y-92683501D01*
X132740602Y-92829172D01*
X132740609Y-92829185D01*
X132828210Y-92960288D01*
X132828213Y-92960292D01*
X132939707Y-93071786D01*
X132939711Y-93071789D01*
X133070814Y-93159390D01*
X133070827Y-93159397D01*
X133167646Y-93199500D01*
X133216503Y-93219737D01*
X133371153Y-93250499D01*
X133371156Y-93250500D01*
X133371158Y-93250500D01*
X133528844Y-93250500D01*
X133528845Y-93250499D01*
X133683497Y-93219737D01*
X133829179Y-93159394D01*
X133960289Y-93071789D01*
X134071789Y-92960289D01*
X134159394Y-92829179D01*
X134219737Y-92683497D01*
X134250500Y-92528842D01*
X134250500Y-92371158D01*
X134250500Y-92371155D01*
X134250499Y-92371153D01*
X134220662Y-92221153D01*
X137599500Y-92221153D01*
X137599500Y-92378846D01*
X137630261Y-92533489D01*
X137630264Y-92533501D01*
X137690602Y-92679172D01*
X137690609Y-92679185D01*
X137778210Y-92810288D01*
X137778213Y-92810292D01*
X137889707Y-92921786D01*
X137889711Y-92921789D01*
X138020814Y-93009390D01*
X138020827Y-93009397D01*
X138141378Y-93059330D01*
X138166503Y-93069737D01*
X138257548Y-93087847D01*
X138321153Y-93100499D01*
X138321156Y-93100500D01*
X138321158Y-93100500D01*
X138478844Y-93100500D01*
X138478845Y-93100499D01*
X138633497Y-93069737D01*
X138779179Y-93009394D01*
X138910289Y-92921789D01*
X139021789Y-92810289D01*
X139109394Y-92679179D01*
X139112854Y-92670827D01*
X139123067Y-92646166D01*
X139169737Y-92533497D01*
X139200500Y-92378842D01*
X139200500Y-92221158D01*
X139200500Y-92221155D01*
X139200499Y-92221153D01*
X139199573Y-92216498D01*
X139169737Y-92066503D01*
X139143246Y-92002548D01*
X139109397Y-91920827D01*
X139109390Y-91920814D01*
X139021789Y-91789711D01*
X139021786Y-91789707D01*
X138910292Y-91678213D01*
X138910288Y-91678210D01*
X138779185Y-91590609D01*
X138779172Y-91590602D01*
X138633501Y-91530264D01*
X138633489Y-91530261D01*
X138478845Y-91499500D01*
X138478842Y-91499500D01*
X138321158Y-91499500D01*
X138321155Y-91499500D01*
X138166510Y-91530261D01*
X138166498Y-91530264D01*
X138020827Y-91590602D01*
X138020814Y-91590609D01*
X137889711Y-91678210D01*
X137889707Y-91678213D01*
X137778213Y-91789707D01*
X137778210Y-91789711D01*
X137690609Y-91920814D01*
X137690602Y-91920827D01*
X137630264Y-92066498D01*
X137630261Y-92066510D01*
X137599500Y-92221153D01*
X134220662Y-92221153D01*
X134219737Y-92216503D01*
X134170425Y-92097452D01*
X134162956Y-92027983D01*
X134170425Y-92002548D01*
X134187943Y-91960255D01*
X134219737Y-91883497D01*
X134250500Y-91728842D01*
X134250500Y-91571158D01*
X134250500Y-91571155D01*
X134250499Y-91571153D01*
X134228547Y-91460793D01*
X134219737Y-91416503D01*
X134170425Y-91297452D01*
X134162956Y-91227983D01*
X134170425Y-91202548D01*
X134219735Y-91083501D01*
X134219737Y-91083497D01*
X134250500Y-90928842D01*
X134250500Y-90771158D01*
X134250500Y-90771155D01*
X134250499Y-90771153D01*
X134229684Y-90666510D01*
X134219737Y-90616503D01*
X134219735Y-90616498D01*
X134159397Y-90470827D01*
X134159390Y-90470814D01*
X134071789Y-90339711D01*
X134071786Y-90339707D01*
X133960292Y-90228213D01*
X133960288Y-90228210D01*
X133829185Y-90140609D01*
X133829172Y-90140602D01*
X133683501Y-90080264D01*
X133683489Y-90080261D01*
X133528845Y-90049500D01*
X133528842Y-90049500D01*
X133371158Y-90049500D01*
X133371155Y-90049500D01*
X133216510Y-90080261D01*
X133216498Y-90080264D01*
X133070827Y-90140602D01*
X133070814Y-90140609D01*
X132939711Y-90228210D01*
X132939707Y-90228213D01*
X132828213Y-90339707D01*
X132828210Y-90339711D01*
X132740609Y-90470814D01*
X132740602Y-90470827D01*
X132680264Y-90616498D01*
X132680261Y-90616510D01*
X132649500Y-90771153D01*
X117950500Y-90771153D01*
X117950500Y-87721153D01*
X168664500Y-87721153D01*
X168664500Y-87878846D01*
X168695261Y-88033489D01*
X168695264Y-88033501D01*
X168755602Y-88179172D01*
X168755609Y-88179185D01*
X168843210Y-88310288D01*
X168843213Y-88310292D01*
X168954707Y-88421786D01*
X168954711Y-88421789D01*
X169085814Y-88509390D01*
X169085827Y-88509397D01*
X169231498Y-88569735D01*
X169231503Y-88569737D01*
X169386153Y-88600499D01*
X169386156Y-88600500D01*
X169386158Y-88600500D01*
X169543844Y-88600500D01*
X169543845Y-88600499D01*
X169698497Y-88569737D01*
X169844179Y-88509394D01*
X169975289Y-88421789D01*
X170086789Y-88310289D01*
X170174394Y-88179179D01*
X170234737Y-88033497D01*
X170265500Y-87878842D01*
X170265500Y-87721158D01*
X170265500Y-87721155D01*
X170265499Y-87721153D01*
X170242927Y-87607678D01*
X170234737Y-87566503D01*
X170234735Y-87566498D01*
X170174397Y-87420827D01*
X170174390Y-87420814D01*
X170086789Y-87289711D01*
X170086786Y-87289707D01*
X169975292Y-87178213D01*
X169975288Y-87178210D01*
X169844185Y-87090609D01*
X169844172Y-87090602D01*
X169698501Y-87030264D01*
X169698489Y-87030261D01*
X169543845Y-86999500D01*
X169543842Y-86999500D01*
X169386158Y-86999500D01*
X169386155Y-86999500D01*
X169231510Y-87030261D01*
X169231498Y-87030264D01*
X169085827Y-87090602D01*
X169085814Y-87090609D01*
X168954711Y-87178210D01*
X168954707Y-87178213D01*
X168843213Y-87289707D01*
X168843210Y-87289711D01*
X168755609Y-87420814D01*
X168755602Y-87420827D01*
X168695264Y-87566498D01*
X168695261Y-87566510D01*
X168664500Y-87721153D01*
X117950500Y-87721153D01*
X117950500Y-87077525D01*
X122609500Y-87077525D01*
X122609500Y-87222475D01*
X122647016Y-87362485D01*
X122647017Y-87362488D01*
X122719488Y-87488011D01*
X122719490Y-87488013D01*
X122719491Y-87488015D01*
X122821985Y-87590509D01*
X122821986Y-87590510D01*
X122821988Y-87590511D01*
X122947511Y-87662982D01*
X122947512Y-87662982D01*
X122947515Y-87662984D01*
X123087525Y-87700500D01*
X123087528Y-87700500D01*
X123232472Y-87700500D01*
X123232475Y-87700500D01*
X123372485Y-87662984D01*
X123498015Y-87590509D01*
X123600509Y-87488015D01*
X123672984Y-87362485D01*
X123710500Y-87222475D01*
X123710500Y-87077525D01*
X128389500Y-87077525D01*
X128389500Y-87222475D01*
X128427016Y-87362485D01*
X128427017Y-87362488D01*
X128499488Y-87488011D01*
X128499490Y-87488013D01*
X128499491Y-87488015D01*
X128601985Y-87590509D01*
X128601986Y-87590510D01*
X128601988Y-87590511D01*
X128727511Y-87662982D01*
X128727512Y-87662982D01*
X128727515Y-87662984D01*
X128867525Y-87700500D01*
X128867528Y-87700500D01*
X129012472Y-87700500D01*
X129012475Y-87700500D01*
X129152485Y-87662984D01*
X129278015Y-87590509D01*
X129380509Y-87488015D01*
X129452984Y-87362485D01*
X129490500Y-87222475D01*
X129490500Y-87077525D01*
X129452984Y-86937515D01*
X129380509Y-86811985D01*
X129278015Y-86709491D01*
X129278013Y-86709490D01*
X129278011Y-86709488D01*
X129152488Y-86637017D01*
X129152489Y-86637017D01*
X129141006Y-86633940D01*
X129012475Y-86599500D01*
X128867525Y-86599500D01*
X128738993Y-86633940D01*
X128727511Y-86637017D01*
X128601988Y-86709488D01*
X128601982Y-86709493D01*
X128499493Y-86811982D01*
X128499488Y-86811988D01*
X128427017Y-86937511D01*
X128427016Y-86937515D01*
X128389500Y-87077525D01*
X123710500Y-87077525D01*
X123672984Y-86937515D01*
X123600509Y-86811985D01*
X123498015Y-86709491D01*
X123498013Y-86709490D01*
X123498011Y-86709488D01*
X123372488Y-86637017D01*
X123372489Y-86637017D01*
X123361006Y-86633940D01*
X123232475Y-86599500D01*
X123087525Y-86599500D01*
X122958993Y-86633940D01*
X122947511Y-86637017D01*
X122821988Y-86709488D01*
X122821982Y-86709493D01*
X122719493Y-86811982D01*
X122719488Y-86811988D01*
X122647017Y-86937511D01*
X122647016Y-86937515D01*
X122609500Y-87077525D01*
X117950500Y-87077525D01*
X117950500Y-85446153D01*
X134674500Y-85446153D01*
X134674500Y-85603846D01*
X134705261Y-85758489D01*
X134705264Y-85758501D01*
X134765602Y-85904172D01*
X134765609Y-85904185D01*
X134853210Y-86035288D01*
X134853213Y-86035292D01*
X134964707Y-86146786D01*
X134964711Y-86146789D01*
X135095814Y-86234390D01*
X135095827Y-86234397D01*
X135241498Y-86294735D01*
X135241503Y-86294737D01*
X135396153Y-86325499D01*
X135396156Y-86325500D01*
X135396158Y-86325500D01*
X135553844Y-86325500D01*
X135553845Y-86325499D01*
X135708497Y-86294737D01*
X135854179Y-86234394D01*
X135948459Y-86171398D01*
X136015136Y-86150520D01*
X136017350Y-86150500D01*
X138495065Y-86150500D01*
X138562104Y-86170185D01*
X138563909Y-86171366D01*
X138620821Y-86209394D01*
X138620823Y-86209395D01*
X138620827Y-86209397D01*
X138720060Y-86250500D01*
X138766503Y-86269737D01*
X138892176Y-86294735D01*
X138921153Y-86300499D01*
X138921156Y-86300500D01*
X138921158Y-86300500D01*
X139078844Y-86300500D01*
X139078845Y-86300499D01*
X139233497Y-86269737D01*
X139379179Y-86209394D01*
X139510289Y-86121789D01*
X139621789Y-86010289D01*
X139709394Y-85879179D01*
X139769737Y-85733497D01*
X139800500Y-85578842D01*
X139800500Y-85421158D01*
X139800500Y-85421155D01*
X139800499Y-85421153D01*
X139792150Y-85379179D01*
X139769737Y-85266503D01*
X139756062Y-85233489D01*
X139709397Y-85120827D01*
X139709390Y-85120814D01*
X139621790Y-84989712D01*
X139621784Y-84989705D01*
X139553232Y-84921153D01*
X168664500Y-84921153D01*
X168664500Y-85078846D01*
X168695261Y-85233489D01*
X168695264Y-85233501D01*
X168755602Y-85379172D01*
X168755609Y-85379185D01*
X168843210Y-85510288D01*
X168843213Y-85510292D01*
X168954707Y-85621786D01*
X168954711Y-85621789D01*
X169085814Y-85709390D01*
X169085827Y-85709397D01*
X169231498Y-85769735D01*
X169231503Y-85769737D01*
X169386153Y-85800499D01*
X169386156Y-85800500D01*
X169386158Y-85800500D01*
X169543844Y-85800500D01*
X169543845Y-85800499D01*
X169698497Y-85769737D01*
X169844179Y-85709394D01*
X169975289Y-85621789D01*
X170086789Y-85510289D01*
X170174394Y-85379179D01*
X170174395Y-85379176D01*
X170174397Y-85379173D01*
X170177719Y-85371153D01*
X173699500Y-85371153D01*
X173699500Y-85528846D01*
X173730261Y-85683489D01*
X173730264Y-85683501D01*
X173790602Y-85829172D01*
X173790609Y-85829185D01*
X173878210Y-85960288D01*
X173878213Y-85960292D01*
X173989707Y-86071786D01*
X173989711Y-86071789D01*
X174120814Y-86159390D01*
X174120827Y-86159397D01*
X174266498Y-86219735D01*
X174266503Y-86219737D01*
X174421153Y-86250499D01*
X174421156Y-86250500D01*
X174421158Y-86250500D01*
X174578844Y-86250500D01*
X174578845Y-86250499D01*
X174733497Y-86219737D01*
X174879179Y-86159394D01*
X175010289Y-86071789D01*
X175121789Y-85960289D01*
X175209394Y-85829179D01*
X175269737Y-85683497D01*
X175300500Y-85528842D01*
X175300500Y-85371158D01*
X175300500Y-85371155D01*
X175300499Y-85371153D01*
X175284657Y-85291510D01*
X175269737Y-85216503D01*
X175269735Y-85216498D01*
X175209397Y-85070827D01*
X175209390Y-85070814D01*
X175121789Y-84939711D01*
X175121786Y-84939707D01*
X175010292Y-84828213D01*
X175010288Y-84828210D01*
X174879185Y-84740609D01*
X174879172Y-84740602D01*
X174733501Y-84680264D01*
X174733489Y-84680261D01*
X174578845Y-84649500D01*
X174578842Y-84649500D01*
X174421158Y-84649500D01*
X174421155Y-84649500D01*
X174266510Y-84680261D01*
X174266498Y-84680264D01*
X174120827Y-84740602D01*
X174120814Y-84740609D01*
X173989711Y-84828210D01*
X173989707Y-84828213D01*
X173878213Y-84939707D01*
X173878210Y-84939711D01*
X173790609Y-85070814D01*
X173790602Y-85070827D01*
X173730264Y-85216498D01*
X173730261Y-85216510D01*
X173699500Y-85371153D01*
X170177719Y-85371153D01*
X170199895Y-85317614D01*
X170199895Y-85317613D01*
X170210712Y-85291498D01*
X170234737Y-85233497D01*
X170265500Y-85078842D01*
X170265500Y-84921158D01*
X170265500Y-84921155D01*
X170265499Y-84921153D01*
X170251242Y-84849480D01*
X170234737Y-84766503D01*
X170230081Y-84755263D01*
X170174397Y-84620827D01*
X170174390Y-84620814D01*
X170086789Y-84489711D01*
X170086786Y-84489707D01*
X169975292Y-84378213D01*
X169975288Y-84378210D01*
X169844185Y-84290609D01*
X169844172Y-84290602D01*
X169698501Y-84230264D01*
X169698489Y-84230261D01*
X169543845Y-84199500D01*
X169543842Y-84199500D01*
X169386158Y-84199500D01*
X169386155Y-84199500D01*
X169231510Y-84230261D01*
X169231498Y-84230264D01*
X169085827Y-84290602D01*
X169085814Y-84290609D01*
X168954711Y-84378210D01*
X168954707Y-84378213D01*
X168843213Y-84489707D01*
X168843210Y-84489711D01*
X168755609Y-84620814D01*
X168755602Y-84620827D01*
X168695264Y-84766498D01*
X168695261Y-84766510D01*
X168664500Y-84921153D01*
X139553232Y-84921153D01*
X139510292Y-84878213D01*
X139510288Y-84878210D01*
X139379185Y-84790609D01*
X139379172Y-84790602D01*
X139233501Y-84730264D01*
X139233489Y-84730261D01*
X139078845Y-84699500D01*
X139078842Y-84699500D01*
X138921158Y-84699500D01*
X138921155Y-84699500D01*
X138766510Y-84730261D01*
X138766498Y-84730264D01*
X138620827Y-84790602D01*
X138620820Y-84790606D01*
X138591928Y-84809911D01*
X138563955Y-84828602D01*
X138497279Y-84849480D01*
X138495065Y-84849500D01*
X135942520Y-84849500D01*
X135875481Y-84829815D01*
X135873628Y-84828601D01*
X135854186Y-84815610D01*
X135854172Y-84815602D01*
X135708501Y-84755264D01*
X135708489Y-84755261D01*
X135553845Y-84724500D01*
X135553842Y-84724500D01*
X135396158Y-84724500D01*
X135396155Y-84724500D01*
X135241510Y-84755261D01*
X135241498Y-84755264D01*
X135095827Y-84815602D01*
X135095814Y-84815609D01*
X134964711Y-84903210D01*
X134964707Y-84903213D01*
X134853213Y-85014707D01*
X134853210Y-85014711D01*
X134765609Y-85145814D01*
X134765602Y-85145827D01*
X134705264Y-85291498D01*
X134705261Y-85291510D01*
X134674500Y-85446153D01*
X117950500Y-85446153D01*
X117950500Y-83571153D01*
X135249500Y-83571153D01*
X135249500Y-83728846D01*
X135280261Y-83883489D01*
X135280264Y-83883501D01*
X135340602Y-84029172D01*
X135340609Y-84029185D01*
X135428210Y-84160288D01*
X135428213Y-84160292D01*
X135539707Y-84271786D01*
X135539711Y-84271789D01*
X135670814Y-84359390D01*
X135670827Y-84359397D01*
X135716254Y-84378213D01*
X135816503Y-84419737D01*
X135971153Y-84450499D01*
X135971156Y-84450500D01*
X135971158Y-84450500D01*
X136128844Y-84450500D01*
X136128845Y-84450499D01*
X136283497Y-84419737D01*
X136429179Y-84359394D01*
X136560289Y-84271789D01*
X136671789Y-84160289D01*
X136759394Y-84029179D01*
X136819737Y-83883497D01*
X136829950Y-83832154D01*
X136862334Y-83770243D01*
X136923050Y-83735669D01*
X136992819Y-83739408D01*
X136998992Y-83741773D01*
X137066503Y-83769737D01*
X137221153Y-83800499D01*
X137221156Y-83800500D01*
X137221158Y-83800500D01*
X137378844Y-83800500D01*
X137378845Y-83800499D01*
X137533497Y-83769737D01*
X137679179Y-83709394D01*
X137810289Y-83621789D01*
X137921789Y-83510289D01*
X138009394Y-83379179D01*
X138069737Y-83233497D01*
X138077842Y-83192750D01*
X138082648Y-83168592D01*
X175823500Y-83168592D01*
X175823500Y-83331407D01*
X175855259Y-83491073D01*
X175855262Y-83491082D01*
X175917562Y-83641490D01*
X175917563Y-83641492D01*
X176008015Y-83776862D01*
X176008018Y-83776866D01*
X176123133Y-83891981D01*
X176123137Y-83891984D01*
X176258505Y-83982435D01*
X176258506Y-83982435D01*
X176258507Y-83982436D01*
X176258509Y-83982437D01*
X176358781Y-84023970D01*
X176408919Y-84044738D01*
X176408921Y-84044738D01*
X176408926Y-84044740D01*
X176568592Y-84076499D01*
X176568595Y-84076500D01*
X176568597Y-84076500D01*
X176731405Y-84076500D01*
X176731406Y-84076499D01*
X176784629Y-84065912D01*
X176891073Y-84044740D01*
X176891076Y-84044738D01*
X176891081Y-84044738D01*
X177041495Y-83982435D01*
X177176863Y-83891984D01*
X177291984Y-83776863D01*
X177382435Y-83641495D01*
X177444738Y-83491081D01*
X177476500Y-83331403D01*
X177476500Y-83168597D01*
X177476500Y-83168594D01*
X177476499Y-83168592D01*
X177444740Y-83008926D01*
X177444737Y-83008917D01*
X177435904Y-82987593D01*
X177408385Y-82921155D01*
X177382437Y-82858509D01*
X177382436Y-82858507D01*
X177320960Y-82766503D01*
X177291984Y-82723137D01*
X177291981Y-82723133D01*
X177176866Y-82608018D01*
X177176862Y-82608015D01*
X177041492Y-82517563D01*
X177041490Y-82517562D01*
X176891082Y-82455262D01*
X176891073Y-82455259D01*
X176731406Y-82423500D01*
X176731403Y-82423500D01*
X176568597Y-82423500D01*
X176568594Y-82423500D01*
X176408926Y-82455259D01*
X176408917Y-82455262D01*
X176258509Y-82517562D01*
X176258507Y-82517563D01*
X176123137Y-82608015D01*
X176123133Y-82608018D01*
X176008018Y-82723133D01*
X176008015Y-82723137D01*
X175917563Y-82858507D01*
X175917562Y-82858509D01*
X175855262Y-83008917D01*
X175855259Y-83008926D01*
X175823500Y-83168592D01*
X138082648Y-83168592D01*
X138088671Y-83138313D01*
X138088671Y-83138312D01*
X138100499Y-83078846D01*
X138100500Y-83078844D01*
X138100500Y-82921155D01*
X138100499Y-82921153D01*
X138069738Y-82766510D01*
X138069737Y-82766503D01*
X138069735Y-82766498D01*
X138009397Y-82620827D01*
X138009390Y-82620814D01*
X137921789Y-82489711D01*
X137921786Y-82489707D01*
X137810292Y-82378213D01*
X137810288Y-82378210D01*
X137679185Y-82290609D01*
X137679172Y-82290602D01*
X137533501Y-82230264D01*
X137533489Y-82230261D01*
X137378845Y-82199500D01*
X137378842Y-82199500D01*
X137221158Y-82199500D01*
X137221155Y-82199500D01*
X137066510Y-82230261D01*
X137066498Y-82230264D01*
X136920827Y-82290602D01*
X136920814Y-82290609D01*
X136789711Y-82378210D01*
X136789707Y-82378213D01*
X136678213Y-82489707D01*
X136678210Y-82489711D01*
X136590609Y-82620814D01*
X136590602Y-82620827D01*
X136530264Y-82766498D01*
X136530261Y-82766507D01*
X136520049Y-82817847D01*
X136487663Y-82879758D01*
X136426947Y-82914331D01*
X136357177Y-82910590D01*
X136350987Y-82908218D01*
X136283497Y-82880263D01*
X136283489Y-82880261D01*
X136128845Y-82849500D01*
X136128842Y-82849500D01*
X135971158Y-82849500D01*
X135971155Y-82849500D01*
X135816510Y-82880261D01*
X135816498Y-82880264D01*
X135670827Y-82940602D01*
X135670814Y-82940609D01*
X135539711Y-83028210D01*
X135539707Y-83028213D01*
X135428213Y-83139707D01*
X135428210Y-83139711D01*
X135340609Y-83270814D01*
X135340602Y-83270827D01*
X135280264Y-83416498D01*
X135280261Y-83416510D01*
X135249500Y-83571153D01*
X117950500Y-83571153D01*
X117950500Y-83354066D01*
X117950765Y-83345956D01*
X117955689Y-83270827D01*
X117967075Y-83097102D01*
X117969190Y-83081048D01*
X118017046Y-82840461D01*
X118021243Y-82824797D01*
X118055753Y-82723133D01*
X118100093Y-82592512D01*
X118106291Y-82577547D01*
X118214788Y-82357538D01*
X118222897Y-82343493D01*
X118298554Y-82230264D01*
X118359177Y-82139534D01*
X118369039Y-82126681D01*
X118530786Y-81942244D01*
X118542244Y-81930786D01*
X118726681Y-81769039D01*
X118739534Y-81759177D01*
X118943493Y-81622897D01*
X118957533Y-81614790D01*
X119177547Y-81506291D01*
X119192512Y-81500093D01*
X119356762Y-81444337D01*
X119424797Y-81421243D01*
X119440464Y-81417045D01*
X119681048Y-81369190D01*
X119697102Y-81367075D01*
X119945957Y-81350765D01*
X119954067Y-81350500D01*
X120015892Y-81350500D01*
X176284107Y-81350500D01*
X176345932Y-81350500D01*
X176354042Y-81350765D01*
G37*
%TD.AperFunction*%
%TD*%
M02*
