%TF.GenerationSoftware,KiCad,Pcbnew,10.0.1*%
%TF.CreationDate,2026-05-13T00:08:48+08:00*%
%TF.ProjectId,feather,66656174-6865-4722-9e6b-696361645f70,rev?*%
%TF.SameCoordinates,Original*%
%TF.FileFunction,Copper,L2,Inr*%
%TF.FilePolarity,Positive*%
%FSLAX46Y46*%
G04 Gerber Fmt 4.6, Leading zero omitted, Abs format (unit mm)*
G04 Created by KiCad (PCBNEW 10.0.1) date 2026-05-13 00:08:48*
%MOMM*%
%LPD*%
G01*
G04 APERTURE LIST*
%TA.AperFunction,ComponentPad*%
%ADD10O,1.300000X2.300000*%
%TD*%
%TA.AperFunction,ComponentPad*%
%ADD11O,1.300000X2.100000*%
%TD*%
%TA.AperFunction,ComponentPad*%
%ADD12C,0.500000*%
%TD*%
%TA.AperFunction,HeatsinkPad*%
%ADD13C,0.500000*%
%TD*%
%TA.AperFunction,ComponentPad*%
%ADD14C,0.600000*%
%TD*%
%TA.AperFunction,ComponentPad*%
%ADD15C,1.400000*%
%TD*%
%TA.AperFunction,ComponentPad*%
%ADD16O,1.000000X1.800000*%
%TD*%
%TA.AperFunction,ComponentPad*%
%ADD17C,0.400000*%
%TD*%
%TA.AperFunction,ComponentPad*%
%ADD18C,1.200000*%
%TD*%
%TA.AperFunction,ComponentPad*%
%ADD19O,1.400000X2.000000*%
%TD*%
%TA.AperFunction,ComponentPad*%
%ADD20O,1.300000X2.000000*%
%TD*%
%TA.AperFunction,ViaPad*%
%ADD21C,0.450000*%
%TD*%
%TA.AperFunction,ViaPad*%
%ADD22C,0.600000*%
%TD*%
G04 APERTURE END LIST*
D10*
%TO.N,GND*%
%TO.C,J1*%
X130380000Y-87670000D03*
D11*
X130380000Y-83470000D03*
D12*
X128050000Y-84850000D03*
X128050000Y-82850000D03*
X124050000Y-84850000D03*
X124050000Y-82850000D03*
D10*
X121720000Y-87670000D03*
D11*
X121720000Y-83470000D03*
%TD*%
D13*
%TO.N,GND*%
%TO.C,U1*%
X131450000Y-91450000D03*
X131450000Y-90350000D03*
%TD*%
D14*
%TO.N,-4V5*%
%TO.C,U10*%
X157900000Y-102350000D03*
X157900000Y-103850000D03*
X158400000Y-103100000D03*
X158900000Y-102350000D03*
X158900000Y-103850000D03*
%TD*%
D15*
%TO.N,*%
%TO.C,CN1*%
X159500000Y-116850000D03*
X159500000Y-109870000D03*
D16*
%TO.N,GND*%
X162800000Y-116050000D03*
%TO.N,unconnected-(CN1-Pad2)*%
X156500000Y-116750000D03*
%TO.N,/OUT-UNBAL-2*%
X156500000Y-113950000D03*
%TO.N,/GP10*%
X162200000Y-110350000D03*
%TO.N,GND*%
X161100000Y-108250000D03*
%TO.N,unconnected-(CN1-Pad6)*%
X158100000Y-108250000D03*
%TO.N,/OUT-UNBAL-1*%
X156700000Y-108250000D03*
%TD*%
D17*
%TO.N,GND*%
%TO.C,U3*%
X137425000Y-112700000D03*
X138225000Y-111900000D03*
X138225000Y-112700000D03*
X138225000Y-113500000D03*
X139025000Y-112700000D03*
%TD*%
D13*
%TO.N,-4V5*%
%TO.C,U8*%
X141050000Y-98000000D03*
X141050000Y-97250000D03*
X141050000Y-96500000D03*
X140350000Y-98000000D03*
X140350000Y-97250000D03*
X140350000Y-96500000D03*
%TD*%
D14*
%TO.N,GND*%
%TO.C,U2*%
X136450000Y-87250000D03*
X137450000Y-87250000D03*
X138450000Y-87250000D03*
%TD*%
D13*
%TO.N,GND*%
%TO.C,U4*%
X136900000Y-92850000D03*
X136900000Y-91750000D03*
%TD*%
D18*
%TO.N,*%
%TO.C,CN2*%
X170600000Y-113550000D03*
X169050000Y-106050000D03*
D19*
%TO.N,GND*%
X167350000Y-116950000D03*
%TO.N,/OUT-BAL-2N*%
X173850000Y-116450000D03*
X167350000Y-114250000D03*
%TO.N,/OUT-BAL-2P*%
X173850000Y-113750000D03*
X167350000Y-111550000D03*
%TO.N,/OUT-BAL-1N*%
X173850000Y-111050000D03*
D20*
%TO.N,/OUT-BAL-1P*%
X167150000Y-103050000D03*
X174050000Y-103050000D03*
%TO.N,/GP11*%
X172200000Y-103050000D03*
%TO.N,GND*%
X168650000Y-103050000D03*
D19*
X166550000Y-107800000D03*
X174650000Y-107800000D03*
%TD*%
D14*
%TO.N,-4V5*%
%TO.C,U9*%
X146200000Y-113275000D03*
X144700000Y-113275000D03*
X145450000Y-113775000D03*
X146200000Y-114275000D03*
X144700000Y-114275000D03*
%TD*%
D13*
%TO.N,-4V5*%
%TO.C,U7*%
X148850000Y-104487500D03*
X148100000Y-104487500D03*
X147350000Y-104487500D03*
X148850000Y-105187500D03*
X148100000Y-105187500D03*
X147350000Y-105187500D03*
%TD*%
D14*
%TO.N,-4V5*%
%TO.C,U11*%
X157300000Y-94150000D03*
X157300000Y-95650000D03*
X157800000Y-94900000D03*
X158300000Y-94150000D03*
X158300000Y-95650000D03*
%TD*%
D13*
%TO.N,GND*%
%TO.C,U6*%
X127800000Y-104400000D03*
X127800000Y-105850000D03*
X127800000Y-107300000D03*
X129250000Y-104400000D03*
X129250000Y-105850000D03*
X129250000Y-107300000D03*
X130700000Y-104400000D03*
X130700000Y-105850000D03*
X130700000Y-107300000D03*
%TD*%
%TO.N,-4V5*%
%TO.C,U5*%
X146850000Y-95750000D03*
X147600000Y-95750000D03*
X148350000Y-95750000D03*
X146850000Y-95050000D03*
X147600000Y-95050000D03*
X148350000Y-95050000D03*
%TD*%
D21*
%TO.N,GND*%
X118250000Y-115250000D03*
X155850000Y-81650000D03*
X167850000Y-81650000D03*
D22*
X145450000Y-110450000D03*
D21*
X118250000Y-110450000D03*
X138050000Y-118850000D03*
X178050000Y-82850000D03*
X148850000Y-118850000D03*
X178050000Y-97250000D03*
X165450000Y-118850000D03*
X130250000Y-118850000D03*
X178050000Y-112250000D03*
D22*
X151260169Y-105176860D03*
D21*
X178050000Y-81650000D03*
X178050000Y-95450000D03*
X177450000Y-81650000D03*
X118250000Y-87050000D03*
X150450000Y-81650000D03*
D22*
X127450000Y-94850000D03*
D21*
X178050000Y-117650000D03*
X178050000Y-92450000D03*
D22*
X132800000Y-98200000D03*
D21*
X118250000Y-103250000D03*
X149250000Y-81650000D03*
X142850000Y-118850000D03*
X153450000Y-81650000D03*
X151650000Y-81650000D03*
X118250000Y-92450000D03*
X123050000Y-118850000D03*
X172050000Y-81650000D03*
X164250000Y-118850000D03*
X143250000Y-81650000D03*
X118250000Y-96050000D03*
X118250000Y-99050000D03*
X147050000Y-118850000D03*
X130850000Y-118850000D03*
X178050000Y-90050000D03*
X178050000Y-87050000D03*
X178050000Y-86450000D03*
X178050000Y-99650000D03*
X161250000Y-81650000D03*
X131450000Y-118850000D03*
X118250000Y-93050000D03*
X178050000Y-102050000D03*
X178050000Y-109850000D03*
X178050000Y-107450000D03*
D22*
X135075996Y-87996222D03*
D21*
X152250000Y-81650000D03*
X118250000Y-100850000D03*
X169050000Y-81650000D03*
D22*
X135300000Y-92350000D03*
D21*
X155250000Y-81650000D03*
D22*
X141450000Y-99450000D03*
X136225000Y-109900000D03*
D21*
X129650000Y-118850000D03*
X176250000Y-81650000D03*
X154050000Y-81650000D03*
X118250000Y-91250000D03*
X118250000Y-107450000D03*
X178050000Y-91850000D03*
X154650000Y-81650000D03*
X178050000Y-111650000D03*
X156450000Y-81650000D03*
X151250000Y-118850000D03*
D22*
X139583753Y-88016247D03*
D21*
X127850000Y-118850000D03*
X118250000Y-81650000D03*
D22*
X125898527Y-111750000D03*
D21*
X118250000Y-99650000D03*
X118250000Y-82850000D03*
D22*
X131850000Y-89250000D03*
D21*
X144450000Y-81650000D03*
X127250000Y-118850000D03*
X134850000Y-81650000D03*
X118250000Y-102050000D03*
X178050000Y-117050000D03*
X145850000Y-118850000D03*
X118250000Y-93650000D03*
X118250000Y-89450000D03*
X134250000Y-81650000D03*
X118250000Y-108050000D03*
X118250000Y-88250000D03*
D22*
X131550000Y-111439211D03*
D21*
X135450000Y-81650000D03*
X166650000Y-81650000D03*
X136850000Y-118850000D03*
X175050000Y-81650000D03*
X178050000Y-99050000D03*
X165450000Y-81650000D03*
X118250000Y-112250000D03*
X178050000Y-84650000D03*
X178050000Y-102650000D03*
X178050000Y-103850000D03*
X118250000Y-88850000D03*
X139650000Y-81650000D03*
X148050000Y-81650000D03*
X175650000Y-81650000D03*
X118250000Y-118850000D03*
X178050000Y-106250000D03*
X118250000Y-111650000D03*
X147650000Y-118850000D03*
X120050000Y-118850000D03*
X118250000Y-114050000D03*
X167250000Y-81650000D03*
X178050000Y-105050000D03*
D22*
X132750000Y-83750000D03*
D21*
X118250000Y-100250000D03*
X164850000Y-118850000D03*
X121250000Y-118850000D03*
X178050000Y-115850000D03*
X118250000Y-105650000D03*
X118250000Y-112850000D03*
X118250000Y-84650000D03*
X162450000Y-81650000D03*
X145050000Y-81650000D03*
X178050000Y-118850000D03*
X119450000Y-118850000D03*
X137450000Y-118850000D03*
X148650000Y-81650000D03*
X136050000Y-81650000D03*
X118250000Y-111050000D03*
D22*
X122250000Y-89850000D03*
D21*
X118250000Y-102650000D03*
X126050000Y-118850000D03*
D22*
X132949265Y-101949265D03*
D21*
X160650000Y-81650000D03*
X121850000Y-118850000D03*
X178050000Y-112850000D03*
X178050000Y-90650000D03*
X147450000Y-81650000D03*
X178050000Y-108050000D03*
X178050000Y-108650000D03*
X122450000Y-118850000D03*
X120050000Y-81650000D03*
X118250000Y-94250000D03*
X131250000Y-81650000D03*
X178050000Y-100850000D03*
X150050000Y-118850000D03*
X118250000Y-117050000D03*
X118850000Y-81650000D03*
X178050000Y-116450000D03*
X118250000Y-101450000D03*
X178050000Y-113450000D03*
X138650000Y-118850000D03*
X153050000Y-118850000D03*
X145650000Y-81650000D03*
D22*
X145450000Y-94850000D03*
D21*
X178050000Y-94850000D03*
X137850000Y-81650000D03*
X149450000Y-118850000D03*
X143450000Y-118850000D03*
X178050000Y-104450000D03*
X149850000Y-81650000D03*
X178050000Y-93050000D03*
X148250000Y-118850000D03*
X118250000Y-82250000D03*
X174450000Y-81650000D03*
X126650000Y-118850000D03*
X134450000Y-118850000D03*
X145250000Y-118850000D03*
X169650000Y-81650000D03*
X178050000Y-87650000D03*
D22*
X132800000Y-99400000D03*
D21*
X128450000Y-118850000D03*
X178050000Y-100250000D03*
X163050000Y-81650000D03*
D22*
X125544975Y-97944975D03*
D21*
X146450000Y-118850000D03*
D22*
X131350000Y-115350000D03*
D21*
X118250000Y-85250000D03*
X142250000Y-118850000D03*
X178050000Y-96050000D03*
X133850000Y-118850000D03*
X159450000Y-81650000D03*
X118250000Y-84050000D03*
X171450000Y-81650000D03*
X136250000Y-118850000D03*
X120650000Y-118850000D03*
X151850000Y-118850000D03*
X124250000Y-118850000D03*
D22*
X138050000Y-90650000D03*
D21*
X178050000Y-83450000D03*
X152450000Y-118850000D03*
X118250000Y-87650000D03*
X118250000Y-106850000D03*
X118250000Y-103850000D03*
X173250000Y-81650000D03*
X118850000Y-118850000D03*
X118250000Y-85850000D03*
X141050000Y-118850000D03*
X146250000Y-81650000D03*
X155450000Y-118850000D03*
X172650000Y-81650000D03*
X178050000Y-88850000D03*
X176250000Y-118850000D03*
X141450000Y-81650000D03*
X163650000Y-118850000D03*
D22*
X132800000Y-98800000D03*
D21*
X152850000Y-81650000D03*
D22*
X130350001Y-111689580D03*
D21*
X123650000Y-118850000D03*
X178050000Y-111050000D03*
X154850000Y-118850000D03*
X118250000Y-94850000D03*
X178050000Y-91250000D03*
X119450000Y-81650000D03*
X146850000Y-81650000D03*
X131850000Y-81650000D03*
X118250000Y-91850000D03*
X142050000Y-81650000D03*
X118250000Y-104450000D03*
X178050000Y-82250000D03*
D22*
X154089238Y-92819999D03*
D21*
X158850000Y-81650000D03*
X139250000Y-118850000D03*
X132050000Y-118850000D03*
X178050000Y-109250000D03*
X161850000Y-81650000D03*
X124850000Y-118850000D03*
X132650000Y-118850000D03*
X120650000Y-81650000D03*
X118250000Y-116450000D03*
X141650000Y-118850000D03*
X138450000Y-81650000D03*
X154250000Y-118850000D03*
X164850000Y-81650000D03*
X164250000Y-81650000D03*
X144650000Y-118850000D03*
X140850000Y-81650000D03*
X157050000Y-81650000D03*
X118250000Y-86450000D03*
X118250000Y-105050000D03*
X132450000Y-81650000D03*
X118250000Y-95450000D03*
X178050000Y-114050000D03*
X133650000Y-81650000D03*
X133250000Y-118850000D03*
X140250000Y-81650000D03*
X178050000Y-93650000D03*
X173850000Y-81650000D03*
D22*
X146080833Y-105463235D03*
D21*
X118250000Y-106250000D03*
X178050000Y-118250000D03*
X118250000Y-96650000D03*
X143850000Y-81650000D03*
X144050000Y-118850000D03*
X135050000Y-118850000D03*
X139050000Y-81650000D03*
X175650000Y-118850000D03*
X166050000Y-81650000D03*
X150650000Y-118850000D03*
X178050000Y-84050000D03*
X153650000Y-118850000D03*
X177450000Y-118850000D03*
X178050000Y-115250000D03*
D22*
X141450000Y-94450000D03*
D21*
X118250000Y-109250000D03*
X118250000Y-97250000D03*
X170850000Y-81650000D03*
X140450000Y-118850000D03*
D22*
X131450000Y-93650000D03*
D21*
X178050000Y-85250000D03*
X118250000Y-108650000D03*
X160050000Y-81650000D03*
D22*
X135950000Y-94350000D03*
X154934309Y-103127580D03*
D21*
X135650000Y-118850000D03*
X118250000Y-83450000D03*
X176850000Y-118850000D03*
X118250000Y-115850000D03*
D22*
X123450000Y-108850000D03*
D21*
X178050000Y-89450000D03*
X178050000Y-105650000D03*
X178050000Y-96650000D03*
X178050000Y-97850000D03*
X118250000Y-90050000D03*
X118250000Y-97850000D03*
X133050000Y-81650000D03*
X139850000Y-118850000D03*
X178050000Y-88250000D03*
X163650000Y-81650000D03*
X142650000Y-81650000D03*
D22*
X133450000Y-114850000D03*
D21*
X118250000Y-113450000D03*
X125450000Y-118850000D03*
X176850000Y-81650000D03*
X118250000Y-98450000D03*
X178050000Y-106850000D03*
X136650000Y-81650000D03*
X129050000Y-118850000D03*
X118250000Y-90650000D03*
X178050000Y-94250000D03*
X178050000Y-110450000D03*
X118250000Y-109850000D03*
X178050000Y-114650000D03*
X168450000Y-81650000D03*
X178050000Y-103250000D03*
D22*
X134650000Y-90350000D03*
D21*
X118250000Y-118250000D03*
X118250000Y-117650000D03*
X151050000Y-81650000D03*
X178050000Y-101450000D03*
X178050000Y-85850000D03*
X118250000Y-114650000D03*
X158250000Y-81650000D03*
X157650000Y-81650000D03*
X178050000Y-98450000D03*
X170250000Y-81650000D03*
X137250000Y-81650000D03*
D22*
%TO.N,+3V3*%
X133450000Y-92450000D03*
X134050000Y-106250000D03*
X134460000Y-102142679D03*
X174500000Y-87900000D03*
X133450000Y-91650000D03*
X134450000Y-99250000D03*
X133450000Y-90850000D03*
X124050000Y-106650000D03*
X127850000Y-111049999D03*
X124350000Y-102850000D03*
X131550000Y-110350000D03*
%TO.N,-4V5*%
X142314581Y-94450000D03*
X154400000Y-95850000D03*
X148881404Y-97446490D03*
X154510715Y-103850000D03*
X140300000Y-90800000D03*
X143050000Y-109650000D03*
X146025735Y-102913235D03*
%TO.N,+4V5*%
X138536765Y-99375735D03*
X150225735Y-106113235D03*
X146646911Y-93050000D03*
X146650000Y-109650000D03*
X154250000Y-101400000D03*
X136050000Y-83650000D03*
X154300000Y-93950000D03*
%TO.N,/GP15*%
X169465000Y-87450000D03*
X125150009Y-113450000D03*
%TO.N,/5242-1P*%
X152325581Y-105474419D03*
X153210715Y-104601160D03*
%TO.N,/1612-UNBAL-1*%
X146708792Y-111271995D03*
X144450000Y-95050000D03*
%TO.N,/5242-1N*%
X153180048Y-105480356D03*
X152300000Y-104587500D03*
%TO.N,+5V*%
X121650000Y-92850000D03*
X137300000Y-83000000D03*
X128850000Y-93050000D03*
%TO.N,Net-(U2-EN+)*%
X136050000Y-85716222D03*
X138663297Y-85272568D03*
%TO.N,/BAL-1622-EN*%
X120850000Y-107650000D03*
X160529620Y-94970380D03*
X161260390Y-102952811D03*
%TO.N,Net-(U11A--)*%
X157050000Y-98450000D03*
X161450000Y-92850000D03*
%TO.N,/OUT-BAL-2P*%
X161965380Y-94150000D03*
%TO.N,/GP14*%
X169465000Y-90250000D03*
X124350006Y-113450000D03*
%TO.N,/1612-BAL-1P*%
X150547105Y-103550000D03*
X155850000Y-101650000D03*
%TO.N,/1612-BAL-1N*%
X155850000Y-104850000D03*
X151150000Y-105969240D03*
%TO.N,Net-(U10B--)*%
X162850000Y-100050000D03*
X161250000Y-106050000D03*
%TO.N,Net-(U10A--)*%
X162250000Y-101450000D03*
X159050000Y-105850000D03*
%TO.N,/GP10*%
X119250000Y-110250000D03*
%TO.N,+AUDIO3V3*%
X138002880Y-108202880D03*
X138400000Y-92300000D03*
%TO.N,/1612-BAL-2P*%
X140656763Y-100613112D03*
X155070921Y-92170000D03*
%TO.N,/5242-2P*%
X140512500Y-102800000D03*
X140512500Y-101400000D03*
%TO.N,/5242-2N*%
X141512500Y-102200000D03*
X139312500Y-102200000D03*
%TO.N,/1612-BAL-2N*%
X155050000Y-97650000D03*
X139650000Y-100650000D03*
%TO.N,+1V1*%
X129200000Y-98200000D03*
X130334883Y-110714748D03*
X133614411Y-104261632D03*
X129200000Y-97200000D03*
X124350000Y-105240000D03*
X129200000Y-96200000D03*
%TO.N,/RUN*%
X132850000Y-112850000D03*
X124650000Y-101850000D03*
%TO.N,/GP13*%
X169565000Y-93350000D03*
X123550003Y-113450000D03*
%TO.N,Net-(U11B--)*%
X161350000Y-97550000D03*
X157850000Y-92250000D03*
%TO.N,/OUT-BAL-2N*%
X162000000Y-96450000D03*
%TO.N,Net-(U9A-EN)*%
X120850000Y-106850000D03*
X146450002Y-116800000D03*
%TO.N,/1612-UNBAL-2*%
X144450000Y-94249997D03*
X144000018Y-111099982D03*
%TO.N,/GP11*%
X119250000Y-111050000D03*
%TO.N,/GP12*%
X122750000Y-113450000D03*
X169605000Y-96450000D03*
%TD*%
%TA.AperFunction,Conductor*%
%TO.N,GND*%
G36*
X178292538Y-81370185D02*
G01*
X178338293Y-81422989D01*
X178349499Y-81474500D01*
X178349499Y-119025500D01*
X178329814Y-119092539D01*
X178277010Y-119138294D01*
X178225499Y-119149500D01*
X118074500Y-119149500D01*
X118007461Y-119129815D01*
X117961706Y-119077011D01*
X117950500Y-119025500D01*
X117950500Y-117568592D01*
X118623500Y-117568592D01*
X118623500Y-117731407D01*
X118655259Y-117891073D01*
X118655262Y-117891082D01*
X118717562Y-118041490D01*
X118717563Y-118041492D01*
X118808015Y-118176862D01*
X118808018Y-118176866D01*
X118923133Y-118291981D01*
X118923137Y-118291984D01*
X119058505Y-118382435D01*
X119058506Y-118382435D01*
X119058507Y-118382436D01*
X119058509Y-118382437D01*
X119158781Y-118423970D01*
X119208919Y-118444738D01*
X119208921Y-118444738D01*
X119208926Y-118444740D01*
X119368592Y-118476499D01*
X119368595Y-118476500D01*
X119368597Y-118476500D01*
X119531405Y-118476500D01*
X119531406Y-118476499D01*
X119584629Y-118465912D01*
X119691073Y-118444740D01*
X119691076Y-118444738D01*
X119691081Y-118444738D01*
X119841495Y-118382435D01*
X119976863Y-118291984D01*
X120091984Y-118176863D01*
X120182435Y-118041495D01*
X120244738Y-117891081D01*
X120265286Y-117787782D01*
X120276499Y-117731407D01*
X120276500Y-117731405D01*
X120276500Y-117568594D01*
X120276499Y-117568592D01*
X120244740Y-117408926D01*
X120244737Y-117408917D01*
X120182437Y-117258509D01*
X120182436Y-117258507D01*
X120175778Y-117248543D01*
X120091984Y-117123137D01*
X120091981Y-117123133D01*
X119976866Y-117008018D01*
X119976862Y-117008015D01*
X119841492Y-116917563D01*
X119841490Y-116917562D01*
X119691082Y-116855262D01*
X119691073Y-116855259D01*
X119597681Y-116836683D01*
X119531406Y-116823500D01*
X119531403Y-116823500D01*
X119368597Y-116823500D01*
X119368594Y-116823500D01*
X119208926Y-116855259D01*
X119208917Y-116855262D01*
X119058509Y-116917562D01*
X119058507Y-116917563D01*
X118923137Y-117008015D01*
X118923133Y-117008018D01*
X118808018Y-117123133D01*
X118808015Y-117123137D01*
X118717563Y-117258507D01*
X118717562Y-117258509D01*
X118655262Y-117408917D01*
X118655259Y-117408926D01*
X118623500Y-117568592D01*
X117950500Y-117568592D01*
X117950500Y-116721153D01*
X145649502Y-116721153D01*
X145649502Y-116878846D01*
X145680263Y-117033489D01*
X145680266Y-117033501D01*
X145740604Y-117179172D01*
X145740611Y-117179185D01*
X145828212Y-117310288D01*
X145828215Y-117310292D01*
X145939709Y-117421786D01*
X145939713Y-117421789D01*
X146070816Y-117509390D01*
X146070829Y-117509397D01*
X146213753Y-117568597D01*
X146216505Y-117569737D01*
X146371155Y-117600499D01*
X146371158Y-117600500D01*
X146371160Y-117600500D01*
X146528846Y-117600500D01*
X146528847Y-117600499D01*
X146683499Y-117569737D01*
X146829181Y-117509394D01*
X146960291Y-117421789D01*
X147071791Y-117310289D01*
X147159396Y-117179179D01*
X147219739Y-117033497D01*
X147250502Y-116878842D01*
X147250502Y-116721158D01*
X147250502Y-116721155D01*
X147250501Y-116721153D01*
X147219740Y-116566510D01*
X147219739Y-116566503D01*
X147219737Y-116566498D01*
X147159399Y-116420827D01*
X147159392Y-116420814D01*
X147071791Y-116289711D01*
X147071788Y-116289707D01*
X146960294Y-116178213D01*
X146960290Y-116178210D01*
X146829187Y-116090609D01*
X146829174Y-116090602D01*
X146683503Y-116030264D01*
X146683491Y-116030261D01*
X146528847Y-115999500D01*
X146528844Y-115999500D01*
X146371160Y-115999500D01*
X146371157Y-115999500D01*
X146216512Y-116030261D01*
X146216500Y-116030264D01*
X146070829Y-116090602D01*
X146070816Y-116090609D01*
X145939713Y-116178210D01*
X145939709Y-116178213D01*
X145828215Y-116289707D01*
X145828212Y-116289711D01*
X145740611Y-116420814D01*
X145740604Y-116420827D01*
X145680266Y-116566498D01*
X145680263Y-116566510D01*
X145649502Y-116721153D01*
X117950500Y-116721153D01*
X117950500Y-113371153D01*
X121949500Y-113371153D01*
X121949500Y-113528846D01*
X121980261Y-113683489D01*
X121980264Y-113683501D01*
X122040602Y-113829172D01*
X122040609Y-113829185D01*
X122128210Y-113960288D01*
X122128213Y-113960292D01*
X122239707Y-114071786D01*
X122239711Y-114071789D01*
X122370814Y-114159390D01*
X122370827Y-114159397D01*
X122516498Y-114219735D01*
X122516503Y-114219737D01*
X122671153Y-114250499D01*
X122671156Y-114250500D01*
X122671158Y-114250500D01*
X122828844Y-114250500D01*
X122828845Y-114250499D01*
X122983497Y-114219737D01*
X123102550Y-114170423D01*
X123172017Y-114162955D01*
X123197450Y-114170422D01*
X123316506Y-114219737D01*
X123471156Y-114250499D01*
X123471159Y-114250500D01*
X123471161Y-114250500D01*
X123628847Y-114250500D01*
X123628848Y-114250499D01*
X123783500Y-114219737D01*
X123902553Y-114170423D01*
X123972020Y-114162955D01*
X123997453Y-114170422D01*
X124116509Y-114219737D01*
X124271159Y-114250499D01*
X124271162Y-114250500D01*
X124271164Y-114250500D01*
X124428850Y-114250500D01*
X124428851Y-114250499D01*
X124583503Y-114219737D01*
X124702556Y-114170423D01*
X124772023Y-114162955D01*
X124797456Y-114170422D01*
X124916512Y-114219737D01*
X125071162Y-114250499D01*
X125071165Y-114250500D01*
X125071167Y-114250500D01*
X125228853Y-114250500D01*
X125228854Y-114250499D01*
X125383506Y-114219737D01*
X125529188Y-114159394D01*
X125660298Y-114071789D01*
X125771798Y-113960289D01*
X125859403Y-113829179D01*
X125919746Y-113683497D01*
X125950509Y-113528842D01*
X125950509Y-113371158D01*
X125950509Y-113371155D01*
X125950508Y-113371153D01*
X125928032Y-113258160D01*
X125919746Y-113216503D01*
X125900021Y-113168882D01*
X125859406Y-113070827D01*
X125859399Y-113070814D01*
X125771798Y-112939711D01*
X125771795Y-112939707D01*
X125660301Y-112828213D01*
X125660297Y-112828210D01*
X125574906Y-112771153D01*
X132049500Y-112771153D01*
X132049500Y-112928846D01*
X132080261Y-113083489D01*
X132080264Y-113083501D01*
X132140602Y-113229172D01*
X132140609Y-113229185D01*
X132228210Y-113360288D01*
X132228213Y-113360292D01*
X132339707Y-113471786D01*
X132339711Y-113471789D01*
X132470814Y-113559390D01*
X132470827Y-113559397D01*
X132616498Y-113619735D01*
X132616503Y-113619737D01*
X132771153Y-113650499D01*
X132771156Y-113650500D01*
X132771158Y-113650500D01*
X132928844Y-113650500D01*
X132928845Y-113650499D01*
X133083497Y-113619737D01*
X133229179Y-113559394D01*
X133360289Y-113471789D01*
X133471789Y-113360289D01*
X133559394Y-113229179D01*
X133573074Y-113196153D01*
X143899500Y-113196153D01*
X143899500Y-113353846D01*
X143930261Y-113508489D01*
X143930264Y-113508501D01*
X143990602Y-113654172D01*
X143990609Y-113654185D01*
X144025304Y-113706109D01*
X144046182Y-113772786D01*
X144027698Y-113840167D01*
X144025304Y-113843891D01*
X143990609Y-113895814D01*
X143990602Y-113895827D01*
X143930264Y-114041498D01*
X143930261Y-114041510D01*
X143899500Y-114196153D01*
X143899500Y-114353846D01*
X143930261Y-114508489D01*
X143930264Y-114508501D01*
X143990602Y-114654172D01*
X143990609Y-114654185D01*
X144078210Y-114785288D01*
X144078213Y-114785292D01*
X144189707Y-114896786D01*
X144189711Y-114896789D01*
X144320814Y-114984390D01*
X144320827Y-114984397D01*
X144466498Y-115044735D01*
X144466503Y-115044737D01*
X144620530Y-115075375D01*
X144621153Y-115075499D01*
X144621156Y-115075500D01*
X144621158Y-115075500D01*
X144778844Y-115075500D01*
X144778845Y-115075499D01*
X144933497Y-115044737D01*
X145046166Y-114998067D01*
X145079172Y-114984397D01*
X145079172Y-114984396D01*
X145079179Y-114984394D01*
X145210289Y-114896789D01*
X145321789Y-114785289D01*
X145329145Y-114774279D01*
X145346898Y-114747712D01*
X145400510Y-114702906D01*
X145469835Y-114694199D01*
X145532862Y-114724353D01*
X145553102Y-114747712D01*
X145578207Y-114785284D01*
X145578213Y-114785292D01*
X145689707Y-114896786D01*
X145689711Y-114896789D01*
X145820814Y-114984390D01*
X145820827Y-114984397D01*
X145966498Y-115044735D01*
X145966503Y-115044737D01*
X146120530Y-115075375D01*
X146121153Y-115075499D01*
X146121156Y-115075500D01*
X146121158Y-115075500D01*
X146278844Y-115075500D01*
X146278845Y-115075499D01*
X146433497Y-115044737D01*
X146546166Y-114998067D01*
X146579172Y-114984397D01*
X146579172Y-114984396D01*
X146579179Y-114984394D01*
X146710289Y-114896789D01*
X146821789Y-114785289D01*
X146909394Y-114654179D01*
X146914510Y-114641829D01*
X146968768Y-114510836D01*
X146969737Y-114508497D01*
X146981663Y-114448543D01*
X155499499Y-114448543D01*
X155537947Y-114641829D01*
X155537950Y-114641839D01*
X155613364Y-114823907D01*
X155613371Y-114823920D01*
X155722860Y-114987781D01*
X155722863Y-114987785D01*
X155862214Y-115127136D01*
X155862218Y-115127139D01*
X156026079Y-115236628D01*
X156031456Y-115239502D01*
X156030490Y-115241308D01*
X156077612Y-115279285D01*
X156099673Y-115345580D01*
X156082391Y-115413279D01*
X156031251Y-115460887D01*
X156027660Y-115462526D01*
X156026079Y-115463371D01*
X155862218Y-115572860D01*
X155862214Y-115572863D01*
X155722863Y-115712214D01*
X155722860Y-115712218D01*
X155613371Y-115876079D01*
X155613364Y-115876092D01*
X155537950Y-116058160D01*
X155537947Y-116058170D01*
X155499500Y-116251456D01*
X155499500Y-116251459D01*
X155499500Y-117248541D01*
X155499500Y-117248543D01*
X155499499Y-117248543D01*
X155537947Y-117441829D01*
X155537950Y-117441839D01*
X155613364Y-117623907D01*
X155613371Y-117623920D01*
X155722860Y-117787781D01*
X155722863Y-117787785D01*
X155862214Y-117927136D01*
X155862218Y-117927139D01*
X156026079Y-118036628D01*
X156026092Y-118036635D01*
X156208160Y-118112049D01*
X156208165Y-118112051D01*
X156208169Y-118112051D01*
X156208170Y-118112052D01*
X156401456Y-118150500D01*
X156401459Y-118150500D01*
X156598543Y-118150500D01*
X156728582Y-118124632D01*
X156791835Y-118112051D01*
X156973914Y-118036632D01*
X157137782Y-117927139D01*
X157277139Y-117787782D01*
X157386632Y-117623914D01*
X157462051Y-117441835D01*
X157488109Y-117310836D01*
X157500500Y-117248543D01*
X157500500Y-116755513D01*
X158299500Y-116755513D01*
X158299500Y-116944486D01*
X158329059Y-117131118D01*
X158387454Y-117310836D01*
X158443988Y-117421789D01*
X158473240Y-117479199D01*
X158584310Y-117632073D01*
X158717927Y-117765690D01*
X158870801Y-117876760D01*
X158898908Y-117891081D01*
X159039163Y-117962545D01*
X159039165Y-117962545D01*
X159039168Y-117962547D01*
X159135497Y-117993846D01*
X159218881Y-118020940D01*
X159405514Y-118050500D01*
X159405519Y-118050500D01*
X159594486Y-118050500D01*
X159781118Y-118020940D01*
X159960832Y-117962547D01*
X160129199Y-117876760D01*
X160282073Y-117765690D01*
X160415690Y-117632073D01*
X160526760Y-117479199D01*
X160612547Y-117310832D01*
X160670940Y-117131118D01*
X160686401Y-117033501D01*
X160700500Y-116944486D01*
X160700500Y-116755513D01*
X160670940Y-116568881D01*
X160643846Y-116485497D01*
X160612547Y-116389168D01*
X160612545Y-116389165D01*
X160612545Y-116389163D01*
X160526759Y-116220800D01*
X160415690Y-116067927D01*
X160282073Y-115934310D01*
X160129199Y-115823240D01*
X159960836Y-115737454D01*
X159781118Y-115679059D01*
X159594486Y-115649500D01*
X159594481Y-115649500D01*
X159405519Y-115649500D01*
X159405514Y-115649500D01*
X159218881Y-115679059D01*
X159039163Y-115737454D01*
X158870800Y-115823240D01*
X158807982Y-115868881D01*
X158717927Y-115934310D01*
X158717925Y-115934312D01*
X158717924Y-115934312D01*
X158584312Y-116067924D01*
X158584312Y-116067925D01*
X158584310Y-116067927D01*
X158536610Y-116133579D01*
X158473240Y-116220800D01*
X158387454Y-116389163D01*
X158329059Y-116568881D01*
X158299500Y-116755513D01*
X157500500Y-116755513D01*
X157500500Y-116251456D01*
X157462052Y-116058170D01*
X157462051Y-116058169D01*
X157462051Y-116058165D01*
X157450493Y-116030261D01*
X157386635Y-115876092D01*
X157386628Y-115876079D01*
X157277139Y-115712218D01*
X157277136Y-115712214D01*
X157137785Y-115572863D01*
X157137781Y-115572860D01*
X156973920Y-115463371D01*
X156968544Y-115460498D01*
X156969510Y-115458689D01*
X156922397Y-115420728D01*
X156900326Y-115354436D01*
X156917600Y-115286735D01*
X156968734Y-115239121D01*
X156972331Y-115237477D01*
X156973907Y-115236634D01*
X156973914Y-115236632D01*
X157137782Y-115127139D01*
X157277139Y-114987782D01*
X157386632Y-114823914D01*
X157462051Y-114641835D01*
X157488109Y-114510836D01*
X157500500Y-114448543D01*
X157500500Y-113451456D01*
X157462052Y-113258170D01*
X157462051Y-113258169D01*
X157462051Y-113258165D01*
X157450045Y-113229179D01*
X157386635Y-113076092D01*
X157386628Y-113076079D01*
X157277139Y-112912218D01*
X157277136Y-112912214D01*
X157137785Y-112772863D01*
X157137781Y-112772860D01*
X156973920Y-112663371D01*
X156973907Y-112663364D01*
X156791839Y-112587950D01*
X156791829Y-112587947D01*
X156598543Y-112549500D01*
X156598541Y-112549500D01*
X156401459Y-112549500D01*
X156401457Y-112549500D01*
X156208170Y-112587947D01*
X156208160Y-112587950D01*
X156026092Y-112663364D01*
X156026079Y-112663371D01*
X155862218Y-112772860D01*
X155862214Y-112772863D01*
X155722863Y-112912214D01*
X155722860Y-112912218D01*
X155613371Y-113076079D01*
X155613364Y-113076092D01*
X155537950Y-113258160D01*
X155537947Y-113258170D01*
X155499500Y-113451456D01*
X155499500Y-113451459D01*
X155499500Y-114448541D01*
X155499500Y-114448543D01*
X155499499Y-114448543D01*
X146981663Y-114448543D01*
X147000500Y-114353842D01*
X147000500Y-114196158D01*
X147000500Y-114196155D01*
X147000499Y-114196153D01*
X146975761Y-114071789D01*
X146969737Y-114041503D01*
X146941133Y-113972447D01*
X146909396Y-113895825D01*
X146909394Y-113895822D01*
X146909394Y-113895821D01*
X146874694Y-113843889D01*
X146853816Y-113777215D01*
X146872300Y-113709835D01*
X146874676Y-113706136D01*
X146909394Y-113654179D01*
X146969737Y-113508497D01*
X147000500Y-113353842D01*
X147000500Y-113196158D01*
X147000500Y-113196155D01*
X147000499Y-113196153D01*
X146978090Y-113083496D01*
X146969737Y-113041503D01*
X146969735Y-113041498D01*
X146909397Y-112895827D01*
X146909390Y-112895814D01*
X146821789Y-112764711D01*
X146821786Y-112764707D01*
X146710292Y-112653213D01*
X146710288Y-112653210D01*
X146579185Y-112565609D01*
X146579172Y-112565602D01*
X146433501Y-112505264D01*
X146433489Y-112505261D01*
X146278845Y-112474500D01*
X146278842Y-112474500D01*
X146121158Y-112474500D01*
X146121155Y-112474500D01*
X145966510Y-112505261D01*
X145966498Y-112505264D01*
X145820827Y-112565602D01*
X145820814Y-112565609D01*
X145689711Y-112653210D01*
X145689707Y-112653213D01*
X145578213Y-112764707D01*
X145553102Y-112802289D01*
X145499489Y-112847093D01*
X145430164Y-112855800D01*
X145367137Y-112825645D01*
X145346898Y-112802289D01*
X145327236Y-112772863D01*
X145321789Y-112764711D01*
X145321788Y-112764710D01*
X145321786Y-112764707D01*
X145210292Y-112653213D01*
X145210288Y-112653210D01*
X145079185Y-112565609D01*
X145079172Y-112565602D01*
X144933501Y-112505264D01*
X144933489Y-112505261D01*
X144778845Y-112474500D01*
X144778842Y-112474500D01*
X144621158Y-112474500D01*
X144621155Y-112474500D01*
X144466510Y-112505261D01*
X144466498Y-112505264D01*
X144320827Y-112565602D01*
X144320814Y-112565609D01*
X144189711Y-112653210D01*
X144189707Y-112653213D01*
X144078213Y-112764707D01*
X144078210Y-112764711D01*
X143990609Y-112895814D01*
X143990602Y-112895827D01*
X143930264Y-113041498D01*
X143930261Y-113041510D01*
X143899500Y-113196153D01*
X133573074Y-113196153D01*
X133584766Y-113167925D01*
X133595251Y-113142613D01*
X133601489Y-113127552D01*
X133619737Y-113083497D01*
X133650500Y-112928842D01*
X133650500Y-112771158D01*
X133650500Y-112771155D01*
X133650499Y-112771153D01*
X133643714Y-112737044D01*
X133619737Y-112616503D01*
X133598655Y-112565606D01*
X133559397Y-112470827D01*
X133559390Y-112470814D01*
X133471789Y-112339711D01*
X133471786Y-112339707D01*
X133360292Y-112228213D01*
X133360288Y-112228210D01*
X133229185Y-112140609D01*
X133229172Y-112140602D01*
X133083501Y-112080264D01*
X133083489Y-112080261D01*
X132928845Y-112049500D01*
X132928842Y-112049500D01*
X132771158Y-112049500D01*
X132771155Y-112049500D01*
X132616510Y-112080261D01*
X132616498Y-112080264D01*
X132470827Y-112140602D01*
X132470814Y-112140609D01*
X132339711Y-112228210D01*
X132339707Y-112228213D01*
X132228213Y-112339707D01*
X132228210Y-112339711D01*
X132140609Y-112470814D01*
X132140602Y-112470827D01*
X132080264Y-112616498D01*
X132080261Y-112616510D01*
X132049500Y-112771153D01*
X125574906Y-112771153D01*
X125529194Y-112740609D01*
X125529181Y-112740602D01*
X125383510Y-112680264D01*
X125383498Y-112680261D01*
X125228854Y-112649500D01*
X125228851Y-112649500D01*
X125071167Y-112649500D01*
X125071164Y-112649500D01*
X124916519Y-112680261D01*
X124916507Y-112680264D01*
X124797459Y-112729575D01*
X124727989Y-112737044D01*
X124702555Y-112729575D01*
X124583507Y-112680264D01*
X124583495Y-112680261D01*
X124428851Y-112649500D01*
X124428848Y-112649500D01*
X124271164Y-112649500D01*
X124271161Y-112649500D01*
X124116516Y-112680261D01*
X124116504Y-112680264D01*
X123997456Y-112729575D01*
X123927986Y-112737044D01*
X123902552Y-112729575D01*
X123783504Y-112680264D01*
X123783492Y-112680261D01*
X123628848Y-112649500D01*
X123628845Y-112649500D01*
X123471161Y-112649500D01*
X123471158Y-112649500D01*
X123316513Y-112680261D01*
X123316501Y-112680264D01*
X123197453Y-112729575D01*
X123127983Y-112737044D01*
X123102549Y-112729575D01*
X122983501Y-112680264D01*
X122983489Y-112680261D01*
X122828845Y-112649500D01*
X122828842Y-112649500D01*
X122671158Y-112649500D01*
X122671155Y-112649500D01*
X122516510Y-112680261D01*
X122516498Y-112680264D01*
X122370827Y-112740602D01*
X122370814Y-112740609D01*
X122239711Y-112828210D01*
X122239707Y-112828213D01*
X122128213Y-112939707D01*
X122128210Y-112939711D01*
X122040609Y-113070814D01*
X122040602Y-113070827D01*
X121980264Y-113216498D01*
X121980261Y-113216510D01*
X121949500Y-113371153D01*
X117950500Y-113371153D01*
X117950500Y-110171153D01*
X118449500Y-110171153D01*
X118449500Y-110328846D01*
X118480261Y-110483489D01*
X118480264Y-110483501D01*
X118529574Y-110602548D01*
X118537043Y-110672018D01*
X118529574Y-110697452D01*
X118480264Y-110816498D01*
X118480261Y-110816510D01*
X118449500Y-110971153D01*
X118449500Y-111128846D01*
X118480261Y-111283489D01*
X118480264Y-111283501D01*
X118540602Y-111429172D01*
X118540609Y-111429185D01*
X118628210Y-111560288D01*
X118628213Y-111560292D01*
X118739707Y-111671786D01*
X118739711Y-111671789D01*
X118870814Y-111759390D01*
X118870827Y-111759397D01*
X118991479Y-111809372D01*
X119016503Y-111819737D01*
X119171148Y-111850498D01*
X119171153Y-111850499D01*
X119171156Y-111850500D01*
X119171158Y-111850500D01*
X119328844Y-111850500D01*
X119328845Y-111850499D01*
X119483497Y-111819737D01*
X119629179Y-111759394D01*
X119760289Y-111671789D01*
X119871789Y-111560289D01*
X119959394Y-111429179D01*
X120019737Y-111283497D01*
X120050500Y-111128842D01*
X120050500Y-110971158D01*
X120050499Y-110971152D01*
X127049500Y-110971152D01*
X127049500Y-111128845D01*
X127080261Y-111283488D01*
X127080264Y-111283500D01*
X127140602Y-111429171D01*
X127140609Y-111429184D01*
X127228210Y-111560287D01*
X127228213Y-111560291D01*
X127339707Y-111671785D01*
X127339711Y-111671788D01*
X127470814Y-111759389D01*
X127470827Y-111759396D01*
X127595016Y-111810836D01*
X127616503Y-111819736D01*
X127771153Y-111850498D01*
X127771156Y-111850499D01*
X127771158Y-111850499D01*
X127928844Y-111850499D01*
X127928845Y-111850498D01*
X128083497Y-111819736D01*
X128196166Y-111773066D01*
X128229172Y-111759396D01*
X128229172Y-111759395D01*
X128229179Y-111759393D01*
X128360289Y-111671788D01*
X128471789Y-111560288D01*
X128559394Y-111429178D01*
X128619737Y-111283496D01*
X128650500Y-111128841D01*
X128650500Y-110971157D01*
X128650500Y-110971156D01*
X128650500Y-110971154D01*
X128650499Y-110971152D01*
X128634917Y-110892816D01*
X128619737Y-110816502D01*
X128608413Y-110789163D01*
X128562079Y-110677300D01*
X128562066Y-110677270D01*
X128559395Y-110670822D01*
X128559390Y-110670813D01*
X128536062Y-110635901D01*
X129534383Y-110635901D01*
X129534383Y-110793594D01*
X129565144Y-110948237D01*
X129565147Y-110948249D01*
X129625485Y-111093920D01*
X129625492Y-111093933D01*
X129713093Y-111225036D01*
X129713096Y-111225040D01*
X129824590Y-111336534D01*
X129824594Y-111336537D01*
X129955697Y-111424138D01*
X129955710Y-111424145D01*
X130088547Y-111479167D01*
X130101386Y-111484485D01*
X130206995Y-111505492D01*
X130256036Y-111515247D01*
X130256039Y-111515248D01*
X130256041Y-111515248D01*
X130413727Y-111515248D01*
X130413728Y-111515247D01*
X130568380Y-111484485D01*
X130701887Y-111429185D01*
X130714055Y-111424145D01*
X130714055Y-111424144D01*
X130714062Y-111424142D01*
X130845172Y-111336537D01*
X130956672Y-111225037D01*
X131033245Y-111110437D01*
X131086854Y-111065635D01*
X131156179Y-111056927D01*
X131183797Y-111064769D01*
X131254206Y-111093933D01*
X131316503Y-111119737D01*
X131471153Y-111150499D01*
X131471156Y-111150500D01*
X131471158Y-111150500D01*
X131628844Y-111150500D01*
X131628845Y-111150499D01*
X131783497Y-111119737D01*
X131929179Y-111059394D01*
X132060289Y-110971789D01*
X132171789Y-110860289D01*
X132259394Y-110729179D01*
X132262864Y-110720803D01*
X132291332Y-110652073D01*
X132319737Y-110583497D01*
X132350500Y-110428842D01*
X132350500Y-110271158D01*
X132350500Y-110271155D01*
X132350499Y-110271153D01*
X132337269Y-110204644D01*
X132319737Y-110116503D01*
X132309985Y-110092959D01*
X132259397Y-109970827D01*
X132259390Y-109970814D01*
X132171789Y-109839711D01*
X132171786Y-109839707D01*
X132060292Y-109728213D01*
X132060288Y-109728210D01*
X131970429Y-109668168D01*
X131929185Y-109640609D01*
X131929172Y-109640602D01*
X131783501Y-109580264D01*
X131783489Y-109580261D01*
X131737701Y-109571153D01*
X142249500Y-109571153D01*
X142249500Y-109728846D01*
X142280261Y-109883489D01*
X142280264Y-109883501D01*
X142340602Y-110029172D01*
X142340609Y-110029185D01*
X142428210Y-110160288D01*
X142428213Y-110160292D01*
X142539707Y-110271786D01*
X142539711Y-110271789D01*
X142670814Y-110359390D01*
X142670827Y-110359397D01*
X142786361Y-110407252D01*
X142816503Y-110419737D01*
X142960822Y-110448444D01*
X142971153Y-110450499D01*
X142971156Y-110450500D01*
X142971158Y-110450500D01*
X143128843Y-110450500D01*
X143162425Y-110443819D01*
X143230106Y-110430357D01*
X143299696Y-110436584D01*
X143354874Y-110479446D01*
X143378119Y-110545336D01*
X143362052Y-110613333D01*
X143357400Y-110620864D01*
X143290626Y-110720798D01*
X143290620Y-110720809D01*
X143230282Y-110866480D01*
X143230279Y-110866492D01*
X143199518Y-111021135D01*
X143199518Y-111178828D01*
X143230279Y-111333471D01*
X143230282Y-111333483D01*
X143290620Y-111479154D01*
X143290627Y-111479167D01*
X143378228Y-111610270D01*
X143378231Y-111610274D01*
X143489725Y-111721768D01*
X143489729Y-111721771D01*
X143620832Y-111809372D01*
X143620845Y-111809379D01*
X143766516Y-111869717D01*
X143766521Y-111869719D01*
X143921171Y-111900481D01*
X143921174Y-111900482D01*
X143921176Y-111900482D01*
X144078862Y-111900482D01*
X144078863Y-111900481D01*
X144233515Y-111869719D01*
X144379197Y-111809376D01*
X144510307Y-111721771D01*
X144621807Y-111610271D01*
X144709412Y-111479161D01*
X144769755Y-111333479D01*
X144800518Y-111178824D01*
X144800518Y-111021140D01*
X144800518Y-111021137D01*
X144800517Y-111021135D01*
X144786018Y-110948245D01*
X144769755Y-110866485D01*
X144762323Y-110848543D01*
X144709415Y-110720809D01*
X144709408Y-110720796D01*
X144621807Y-110589693D01*
X144621804Y-110589689D01*
X144510310Y-110478195D01*
X144510306Y-110478192D01*
X144379203Y-110390591D01*
X144379190Y-110390584D01*
X144233519Y-110330246D01*
X144233507Y-110330243D01*
X144078863Y-110299482D01*
X144078860Y-110299482D01*
X143921176Y-110299482D01*
X143921171Y-110299482D01*
X143819911Y-110319624D01*
X143750319Y-110313397D01*
X143695142Y-110270534D01*
X143671898Y-110204644D01*
X143687966Y-110136647D01*
X143692618Y-110129116D01*
X143716776Y-110092961D01*
X143759394Y-110029179D01*
X143819737Y-109883497D01*
X143850500Y-109728842D01*
X143850500Y-109571158D01*
X143850500Y-109571155D01*
X143850499Y-109571153D01*
X145849500Y-109571153D01*
X145849500Y-109728846D01*
X145880261Y-109883489D01*
X145880264Y-109883501D01*
X145940602Y-110029172D01*
X145940609Y-110029185D01*
X146028210Y-110160288D01*
X146028213Y-110160292D01*
X146139707Y-110271786D01*
X146139711Y-110271789D01*
X146270814Y-110359390D01*
X146270821Y-110359394D01*
X146280522Y-110363412D01*
X146334926Y-110407252D01*
X146356992Y-110473546D01*
X146339714Y-110541246D01*
X146301962Y-110581076D01*
X146198503Y-110650205D01*
X146198499Y-110650208D01*
X146087005Y-110761702D01*
X146087002Y-110761706D01*
X145999401Y-110892809D01*
X145999394Y-110892822D01*
X145939056Y-111038493D01*
X145939053Y-111038505D01*
X145908292Y-111193148D01*
X145908292Y-111350841D01*
X145939053Y-111505484D01*
X145939056Y-111505496D01*
X145999394Y-111651167D01*
X145999401Y-111651180D01*
X146087002Y-111782283D01*
X146087005Y-111782287D01*
X146198499Y-111893781D01*
X146198503Y-111893784D01*
X146329606Y-111981385D01*
X146329619Y-111981392D01*
X146475290Y-112041730D01*
X146475295Y-112041732D01*
X146629945Y-112072494D01*
X146629948Y-112072495D01*
X146629950Y-112072495D01*
X146787636Y-112072495D01*
X146787637Y-112072494D01*
X146942289Y-112041732D01*
X147087971Y-111981389D01*
X147219081Y-111893784D01*
X147330581Y-111782284D01*
X147418186Y-111651174D01*
X147424210Y-111636632D01*
X147455831Y-111560291D01*
X147478529Y-111505492D01*
X147509292Y-111350837D01*
X147509292Y-111193153D01*
X147509292Y-111193150D01*
X147509291Y-111193148D01*
X147500808Y-111150500D01*
X147478529Y-111038498D01*
X147455353Y-110982545D01*
X147418189Y-110892822D01*
X147418182Y-110892809D01*
X147330581Y-110761706D01*
X147330578Y-110761702D01*
X147219084Y-110650208D01*
X147219080Y-110650205D01*
X147087977Y-110562604D01*
X147087965Y-110562598D01*
X147078265Y-110558580D01*
X147023863Y-110514738D01*
X147001799Y-110448444D01*
X147019079Y-110380745D01*
X147056826Y-110340920D01*
X147160289Y-110271789D01*
X147271789Y-110160289D01*
X147359394Y-110029179D01*
X147419737Y-109883497D01*
X147450500Y-109728842D01*
X147450500Y-109571158D01*
X147450500Y-109571155D01*
X147450499Y-109571153D01*
X147443632Y-109536632D01*
X147419737Y-109416503D01*
X147376541Y-109312218D01*
X147359397Y-109270827D01*
X147359390Y-109270814D01*
X147271789Y-109139711D01*
X147271786Y-109139707D01*
X147160292Y-109028213D01*
X147160288Y-109028210D01*
X147029185Y-108940609D01*
X147029172Y-108940602D01*
X146883501Y-108880264D01*
X146883489Y-108880261D01*
X146728845Y-108849500D01*
X146728842Y-108849500D01*
X146571158Y-108849500D01*
X146571155Y-108849500D01*
X146416510Y-108880261D01*
X146416498Y-108880264D01*
X146270827Y-108940602D01*
X146270814Y-108940609D01*
X146139711Y-109028210D01*
X146139707Y-109028213D01*
X146028213Y-109139707D01*
X146028210Y-109139711D01*
X145940609Y-109270814D01*
X145940602Y-109270827D01*
X145880264Y-109416498D01*
X145880261Y-109416510D01*
X145849500Y-109571153D01*
X143850499Y-109571153D01*
X143843632Y-109536632D01*
X143819737Y-109416503D01*
X143776541Y-109312218D01*
X143759397Y-109270827D01*
X143759390Y-109270814D01*
X143671789Y-109139711D01*
X143671786Y-109139707D01*
X143560292Y-109028213D01*
X143560288Y-109028210D01*
X143429185Y-108940609D01*
X143429172Y-108940602D01*
X143283501Y-108880264D01*
X143283489Y-108880261D01*
X143128845Y-108849500D01*
X143128842Y-108849500D01*
X142971158Y-108849500D01*
X142971155Y-108849500D01*
X142816510Y-108880261D01*
X142816498Y-108880264D01*
X142670827Y-108940602D01*
X142670814Y-108940609D01*
X142539711Y-109028210D01*
X142539707Y-109028213D01*
X142428213Y-109139707D01*
X142428210Y-109139711D01*
X142340609Y-109270814D01*
X142340602Y-109270827D01*
X142280264Y-109416498D01*
X142280261Y-109416510D01*
X142249500Y-109571153D01*
X131737701Y-109571153D01*
X131628845Y-109549500D01*
X131628842Y-109549500D01*
X131471158Y-109549500D01*
X131471155Y-109549500D01*
X131316510Y-109580261D01*
X131316498Y-109580264D01*
X131170827Y-109640602D01*
X131170814Y-109640609D01*
X131039711Y-109728210D01*
X131039707Y-109728213D01*
X130928213Y-109839707D01*
X130851638Y-109954309D01*
X130798025Y-109999113D01*
X130728700Y-110007820D01*
X130701084Y-109999978D01*
X130568384Y-109945012D01*
X130568372Y-109945009D01*
X130413728Y-109914248D01*
X130413725Y-109914248D01*
X130256041Y-109914248D01*
X130256038Y-109914248D01*
X130101393Y-109945009D01*
X130101381Y-109945012D01*
X129955710Y-110005350D01*
X129955697Y-110005357D01*
X129824594Y-110092958D01*
X129824590Y-110092961D01*
X129713096Y-110204455D01*
X129713093Y-110204459D01*
X129625492Y-110335562D01*
X129625485Y-110335575D01*
X129565147Y-110481246D01*
X129565144Y-110481258D01*
X129534383Y-110635901D01*
X128536062Y-110635901D01*
X128471789Y-110539710D01*
X128471786Y-110539706D01*
X128360292Y-110428212D01*
X128360288Y-110428209D01*
X128229185Y-110340608D01*
X128229172Y-110340601D01*
X128083501Y-110280263D01*
X128083489Y-110280260D01*
X127928845Y-110249499D01*
X127928842Y-110249499D01*
X127771158Y-110249499D01*
X127771155Y-110249499D01*
X127616510Y-110280260D01*
X127616498Y-110280263D01*
X127470827Y-110340601D01*
X127470814Y-110340608D01*
X127339711Y-110428209D01*
X127339707Y-110428212D01*
X127228213Y-110539706D01*
X127228210Y-110539710D01*
X127140609Y-110670813D01*
X127140602Y-110670826D01*
X127080264Y-110816497D01*
X127080261Y-110816509D01*
X127049500Y-110971152D01*
X120050499Y-110971152D01*
X120019737Y-110816503D01*
X120008415Y-110789168D01*
X119970425Y-110697452D01*
X119962956Y-110627983D01*
X119970425Y-110602548D01*
X119996455Y-110539706D01*
X120019737Y-110483497D01*
X120050500Y-110328842D01*
X120050500Y-110171158D01*
X120050500Y-110171155D01*
X120050499Y-110171153D01*
X120039627Y-110116498D01*
X120019737Y-110016503D01*
X120019735Y-110016498D01*
X119959397Y-109870827D01*
X119959390Y-109870814D01*
X119871789Y-109739711D01*
X119871786Y-109739707D01*
X119760292Y-109628213D01*
X119760288Y-109628210D01*
X119629185Y-109540609D01*
X119629172Y-109540602D01*
X119483501Y-109480264D01*
X119483489Y-109480261D01*
X119328845Y-109449500D01*
X119328842Y-109449500D01*
X119171158Y-109449500D01*
X119171155Y-109449500D01*
X119016510Y-109480261D01*
X119016498Y-109480264D01*
X118870827Y-109540602D01*
X118870814Y-109540609D01*
X118739711Y-109628210D01*
X118739707Y-109628213D01*
X118628213Y-109739707D01*
X118628210Y-109739711D01*
X118540609Y-109870814D01*
X118540602Y-109870827D01*
X118480264Y-110016498D01*
X118480261Y-110016510D01*
X118449500Y-110171153D01*
X117950500Y-110171153D01*
X117950500Y-106771153D01*
X120049500Y-106771153D01*
X120049500Y-106928846D01*
X120080261Y-107083489D01*
X120080264Y-107083501D01*
X120129574Y-107202548D01*
X120137043Y-107272018D01*
X120129574Y-107297452D01*
X120080264Y-107416498D01*
X120080261Y-107416510D01*
X120049500Y-107571153D01*
X120049500Y-107728846D01*
X120080261Y-107883489D01*
X120080264Y-107883501D01*
X120140602Y-108029172D01*
X120140609Y-108029185D01*
X120228210Y-108160288D01*
X120228213Y-108160292D01*
X120339707Y-108271786D01*
X120339711Y-108271789D01*
X120470814Y-108359390D01*
X120470827Y-108359397D01*
X120616498Y-108419735D01*
X120616503Y-108419737D01*
X120771153Y-108450499D01*
X120771156Y-108450500D01*
X120771158Y-108450500D01*
X120928844Y-108450500D01*
X120928845Y-108450499D01*
X121083497Y-108419737D01*
X121229179Y-108359394D01*
X121360289Y-108271789D01*
X121471789Y-108160289D01*
X121496014Y-108124033D01*
X137202380Y-108124033D01*
X137202380Y-108281726D01*
X137233141Y-108436369D01*
X137233144Y-108436381D01*
X137293482Y-108582052D01*
X137293489Y-108582065D01*
X137381090Y-108713168D01*
X137381093Y-108713172D01*
X137492587Y-108824666D01*
X137492591Y-108824669D01*
X137623694Y-108912270D01*
X137623707Y-108912277D01*
X137725190Y-108954312D01*
X137769383Y-108972617D01*
X137924033Y-109003379D01*
X137924036Y-109003380D01*
X137924038Y-109003380D01*
X138081724Y-109003380D01*
X138081725Y-109003379D01*
X138236377Y-108972617D01*
X138382059Y-108912274D01*
X138513169Y-108824669D01*
X138589295Y-108748543D01*
X155699499Y-108748543D01*
X155737947Y-108941829D01*
X155737950Y-108941839D01*
X155813364Y-109123907D01*
X155813371Y-109123920D01*
X155922860Y-109287781D01*
X155922863Y-109287785D01*
X156062214Y-109427136D01*
X156062218Y-109427139D01*
X156226079Y-109536628D01*
X156226092Y-109536635D01*
X156408160Y-109612049D01*
X156408165Y-109612051D01*
X156408169Y-109612051D01*
X156408170Y-109612052D01*
X156601456Y-109650500D01*
X156601459Y-109650500D01*
X156798543Y-109650500D01*
X156928582Y-109624632D01*
X156991835Y-109612051D01*
X157164320Y-109540606D01*
X157173907Y-109536635D01*
X157173907Y-109536634D01*
X157173914Y-109536632D01*
X157264538Y-109476079D01*
X157331109Y-109431598D01*
X157397787Y-109410720D01*
X157465167Y-109429204D01*
X157468891Y-109431598D01*
X157626079Y-109536628D01*
X157626092Y-109536635D01*
X157808160Y-109612049D01*
X157808165Y-109612051D01*
X157808169Y-109612051D01*
X157808170Y-109612052D01*
X158001456Y-109650500D01*
X158175500Y-109650500D01*
X158242539Y-109670185D01*
X158288294Y-109722989D01*
X158299500Y-109774500D01*
X158299500Y-109964486D01*
X158329059Y-110151118D01*
X158387454Y-110330836D01*
X158464095Y-110481251D01*
X158473240Y-110499199D01*
X158584310Y-110652073D01*
X158717927Y-110785690D01*
X158870801Y-110896760D01*
X158950347Y-110937290D01*
X159039163Y-110982545D01*
X159039165Y-110982545D01*
X159039168Y-110982547D01*
X159135497Y-111013846D01*
X159218881Y-111040940D01*
X159405514Y-111070500D01*
X159405519Y-111070500D01*
X159594486Y-111070500D01*
X159781118Y-111040940D01*
X159788649Y-111038493D01*
X159960832Y-110982547D01*
X160129199Y-110896760D01*
X160195564Y-110848543D01*
X161199499Y-110848543D01*
X161237947Y-111041829D01*
X161237950Y-111041839D01*
X161313364Y-111223907D01*
X161313371Y-111223920D01*
X161422860Y-111387781D01*
X161422863Y-111387785D01*
X161562214Y-111527136D01*
X161562218Y-111527139D01*
X161726079Y-111636628D01*
X161726092Y-111636635D01*
X161908160Y-111712049D01*
X161908165Y-111712051D01*
X161908169Y-111712051D01*
X161908170Y-111712052D01*
X162101456Y-111750500D01*
X162101459Y-111750500D01*
X162298543Y-111750500D01*
X162442985Y-111721768D01*
X162491835Y-111712051D01*
X162673914Y-111636632D01*
X162837782Y-111527139D01*
X162977139Y-111387782D01*
X163086632Y-111223914D01*
X163114964Y-111155513D01*
X166149500Y-111155513D01*
X166149500Y-111944486D01*
X166179059Y-112131118D01*
X166237454Y-112310836D01*
X166318968Y-112470814D01*
X166323240Y-112479199D01*
X166434310Y-112632073D01*
X166567927Y-112765690D01*
X166567930Y-112765692D01*
X166567933Y-112765694D01*
X166614713Y-112799683D01*
X166657379Y-112855013D01*
X166663357Y-112924626D01*
X166630751Y-112986421D01*
X166614713Y-113000317D01*
X166567933Y-113034305D01*
X166567924Y-113034312D01*
X166434312Y-113167924D01*
X166434312Y-113167925D01*
X166434310Y-113167927D01*
X166413803Y-113196153D01*
X166323240Y-113320800D01*
X166237454Y-113489163D01*
X166179059Y-113668881D01*
X166149500Y-113855513D01*
X166149500Y-114644486D01*
X166179059Y-114831118D01*
X166237454Y-115010836D01*
X166323240Y-115179199D01*
X166434310Y-115332073D01*
X166567927Y-115465690D01*
X166720801Y-115576760D01*
X166800347Y-115617290D01*
X166889163Y-115662545D01*
X166889165Y-115662545D01*
X166889168Y-115662547D01*
X166985497Y-115693846D01*
X167068881Y-115720940D01*
X167255514Y-115750500D01*
X167255519Y-115750500D01*
X167444486Y-115750500D01*
X167631118Y-115720940D01*
X167657961Y-115712218D01*
X167810832Y-115662547D01*
X167979199Y-115576760D01*
X168132073Y-115465690D01*
X168265690Y-115332073D01*
X168376760Y-115179199D01*
X168462547Y-115010832D01*
X168520940Y-114831118D01*
X168542626Y-114694199D01*
X168550500Y-114644486D01*
X168550500Y-113855513D01*
X168520940Y-113668881D01*
X168485365Y-113559394D01*
X168462547Y-113489168D01*
X168449412Y-113463389D01*
X169499500Y-113463389D01*
X169499500Y-113636611D01*
X169504611Y-113668881D01*
X169521418Y-113775000D01*
X169526598Y-113807701D01*
X169576178Y-113960292D01*
X169580128Y-113972447D01*
X169615317Y-114041510D01*
X169658768Y-114126788D01*
X169760586Y-114266928D01*
X169883072Y-114389414D01*
X170023212Y-114491232D01*
X170177555Y-114569873D01*
X170342299Y-114623402D01*
X170513389Y-114650500D01*
X170513390Y-114650500D01*
X170686610Y-114650500D01*
X170686611Y-114650500D01*
X170857701Y-114623402D01*
X171022445Y-114569873D01*
X171176788Y-114491232D01*
X171316928Y-114389414D01*
X171439414Y-114266928D01*
X171541232Y-114126788D01*
X171619873Y-113972445D01*
X171673402Y-113807701D01*
X171700500Y-113636611D01*
X171700500Y-113463389D01*
X171673402Y-113292299D01*
X171619873Y-113127555D01*
X171541232Y-112973212D01*
X171439414Y-112833072D01*
X171316928Y-112710586D01*
X171176788Y-112608768D01*
X171022445Y-112530127D01*
X170857701Y-112476598D01*
X170857699Y-112476597D01*
X170857698Y-112476597D01*
X170726271Y-112455781D01*
X170686611Y-112449500D01*
X170513389Y-112449500D01*
X170473728Y-112455781D01*
X170342302Y-112476597D01*
X170177552Y-112530128D01*
X170023211Y-112608768D01*
X169962039Y-112653213D01*
X169883072Y-112710586D01*
X169883070Y-112710588D01*
X169883069Y-112710588D01*
X169760588Y-112833069D01*
X169760588Y-112833070D01*
X169760586Y-112833072D01*
X169744645Y-112855013D01*
X169658768Y-112973211D01*
X169580128Y-113127552D01*
X169526597Y-113292302D01*
X169499500Y-113463389D01*
X168449412Y-113463389D01*
X168376760Y-113320801D01*
X168265690Y-113167927D01*
X168132073Y-113034310D01*
X168085286Y-113000317D01*
X168042621Y-112944988D01*
X168036642Y-112875375D01*
X168069248Y-112813580D01*
X168085287Y-112799682D01*
X168132073Y-112765690D01*
X168265690Y-112632073D01*
X168376760Y-112479199D01*
X168462547Y-112310832D01*
X168520940Y-112131118D01*
X168550500Y-111944486D01*
X168550500Y-111155513D01*
X168520940Y-110968881D01*
X168481839Y-110848543D01*
X168462547Y-110789168D01*
X168462545Y-110789165D01*
X168462545Y-110789163D01*
X168420651Y-110706942D01*
X168412785Y-110691504D01*
X168394447Y-110655513D01*
X172649500Y-110655513D01*
X172649500Y-111444486D01*
X172679059Y-111631118D01*
X172737454Y-111810836D01*
X172805550Y-111944481D01*
X172823240Y-111979199D01*
X172934310Y-112132073D01*
X173067927Y-112265690D01*
X173067930Y-112265692D01*
X173067933Y-112265694D01*
X173114713Y-112299683D01*
X173157379Y-112355013D01*
X173163357Y-112424626D01*
X173130751Y-112486421D01*
X173114713Y-112500317D01*
X173067933Y-112534305D01*
X173067924Y-112534312D01*
X172934312Y-112667924D01*
X172934312Y-112667925D01*
X172934310Y-112667927D01*
X172925347Y-112680264D01*
X172823240Y-112820800D01*
X172737454Y-112989163D01*
X172679059Y-113168881D01*
X172649500Y-113355513D01*
X172649500Y-114144486D01*
X172679059Y-114331118D01*
X172737454Y-114510836D01*
X172794810Y-114623402D01*
X172823240Y-114679199D01*
X172934310Y-114832073D01*
X173067927Y-114965690D01*
X173067930Y-114965692D01*
X173067933Y-114965694D01*
X173114713Y-114999683D01*
X173157379Y-115055013D01*
X173163357Y-115124626D01*
X173130751Y-115186421D01*
X173114713Y-115200317D01*
X173067936Y-115234303D01*
X173067924Y-115234312D01*
X172934312Y-115367924D01*
X172934312Y-115367925D01*
X172934310Y-115367927D01*
X172919763Y-115387949D01*
X172823240Y-115520800D01*
X172737454Y-115689163D01*
X172679059Y-115868881D01*
X172649500Y-116055513D01*
X172649500Y-116844486D01*
X172679059Y-117031118D01*
X172737454Y-117210836D01*
X172788130Y-117310292D01*
X172823240Y-117379199D01*
X172934310Y-117532073D01*
X173067927Y-117665690D01*
X173220801Y-117776760D01*
X173300347Y-117817290D01*
X173389163Y-117862545D01*
X173389165Y-117862545D01*
X173389168Y-117862547D01*
X173476986Y-117891081D01*
X173568881Y-117920940D01*
X173755514Y-117950500D01*
X173755519Y-117950500D01*
X173944486Y-117950500D01*
X174131118Y-117920940D01*
X174310832Y-117862547D01*
X174479199Y-117776760D01*
X174632073Y-117665690D01*
X174765690Y-117532073D01*
X174876760Y-117379199D01*
X174962547Y-117210832D01*
X175020940Y-117031118D01*
X175038925Y-116917565D01*
X175050500Y-116844486D01*
X175050500Y-116055513D01*
X175020940Y-115868881D01*
X174962545Y-115689163D01*
X174876759Y-115520800D01*
X174836719Y-115465690D01*
X174765690Y-115367927D01*
X174632073Y-115234310D01*
X174585286Y-115200317D01*
X174542621Y-115144988D01*
X174536642Y-115075375D01*
X174569248Y-115013580D01*
X174585287Y-114999682D01*
X174632073Y-114965690D01*
X174765690Y-114832073D01*
X174876760Y-114679199D01*
X174962547Y-114510832D01*
X175020940Y-114331118D01*
X175050500Y-114144486D01*
X175050500Y-113355513D01*
X175020940Y-113168881D01*
X174993194Y-113083489D01*
X174962547Y-112989168D01*
X174962545Y-112989165D01*
X174962545Y-112989163D01*
X174883011Y-112833070D01*
X174876760Y-112820801D01*
X174765690Y-112667927D01*
X174632073Y-112534310D01*
X174585286Y-112500317D01*
X174542621Y-112444988D01*
X174536642Y-112375375D01*
X174569248Y-112313580D01*
X174585287Y-112299682D01*
X174632073Y-112265690D01*
X174765690Y-112132073D01*
X174876760Y-111979199D01*
X174962547Y-111810832D01*
X175020940Y-111631118D01*
X175032158Y-111560289D01*
X175050500Y-111444486D01*
X175050500Y-110655513D01*
X175020940Y-110468881D01*
X174979259Y-110340601D01*
X174962547Y-110289168D01*
X174962545Y-110289165D01*
X174962545Y-110289163D01*
X174902418Y-110171158D01*
X174876760Y-110120801D01*
X174765690Y-109967927D01*
X174632073Y-109834310D01*
X174479199Y-109723240D01*
X174478706Y-109722989D01*
X174310836Y-109637454D01*
X174131118Y-109579059D01*
X173944486Y-109549500D01*
X173944481Y-109549500D01*
X173755519Y-109549500D01*
X173755514Y-109549500D01*
X173568881Y-109579059D01*
X173389163Y-109637454D01*
X173220800Y-109723240D01*
X173150248Y-109774500D01*
X173067927Y-109834310D01*
X173067925Y-109834312D01*
X173067924Y-109834312D01*
X172934312Y-109967924D01*
X172934312Y-109967925D01*
X172934310Y-109967927D01*
X172905326Y-110007820D01*
X172823240Y-110120800D01*
X172737454Y-110289163D01*
X172679059Y-110468881D01*
X172649500Y-110655513D01*
X168394447Y-110655513D01*
X168376760Y-110620801D01*
X168265690Y-110467927D01*
X168132073Y-110334310D01*
X167979199Y-110223240D01*
X167810836Y-110137454D01*
X167631118Y-110079059D01*
X167444486Y-110049500D01*
X167444481Y-110049500D01*
X167255519Y-110049500D01*
X167255514Y-110049500D01*
X167068881Y-110079059D01*
X166889163Y-110137454D01*
X166720800Y-110223240D01*
X166654852Y-110271155D01*
X166567927Y-110334310D01*
X166567925Y-110334312D01*
X166567924Y-110334312D01*
X166434312Y-110467924D01*
X166434312Y-110467925D01*
X166434310Y-110467927D01*
X166409367Y-110502258D01*
X166323240Y-110620800D01*
X166237454Y-110789163D01*
X166179059Y-110968881D01*
X166149500Y-111155513D01*
X163114964Y-111155513D01*
X163162051Y-111041835D01*
X163176110Y-110971156D01*
X163200500Y-110848543D01*
X163200500Y-109851456D01*
X163162052Y-109658170D01*
X163162051Y-109658169D01*
X163162051Y-109658165D01*
X163149643Y-109628210D01*
X163086635Y-109476092D01*
X163086628Y-109476079D01*
X162977139Y-109312218D01*
X162977136Y-109312214D01*
X162837785Y-109172863D01*
X162837781Y-109172860D01*
X162673920Y-109063371D01*
X162673907Y-109063364D01*
X162491839Y-108987950D01*
X162491829Y-108987947D01*
X162298543Y-108949500D01*
X162298541Y-108949500D01*
X162101459Y-108949500D01*
X162101457Y-108949500D01*
X161908170Y-108987947D01*
X161908160Y-108987950D01*
X161726092Y-109063364D01*
X161726079Y-109063371D01*
X161562218Y-109172860D01*
X161562214Y-109172863D01*
X161422863Y-109312214D01*
X161422860Y-109312218D01*
X161313371Y-109476079D01*
X161313364Y-109476092D01*
X161237950Y-109658160D01*
X161237947Y-109658170D01*
X161199500Y-109851456D01*
X161199500Y-109851459D01*
X161199500Y-110848541D01*
X161199500Y-110848543D01*
X161199499Y-110848543D01*
X160195564Y-110848543D01*
X160282073Y-110785690D01*
X160415690Y-110652073D01*
X160526760Y-110499199D01*
X160612547Y-110330832D01*
X160670940Y-110151118D01*
X160676421Y-110116510D01*
X160700500Y-109964486D01*
X160700500Y-109775513D01*
X160670940Y-109588881D01*
X160618385Y-109427136D01*
X160612547Y-109409168D01*
X160612545Y-109409165D01*
X160612545Y-109409163D01*
X160526759Y-109240800D01*
X160415690Y-109087927D01*
X160282073Y-108954310D01*
X160129199Y-108843240D01*
X159960836Y-108757454D01*
X159781118Y-108699059D01*
X159594486Y-108669500D01*
X159594481Y-108669500D01*
X159405519Y-108669500D01*
X159405514Y-108669500D01*
X159243898Y-108695097D01*
X159174604Y-108686142D01*
X159121152Y-108641146D01*
X159100513Y-108574394D01*
X159100500Y-108572624D01*
X159100500Y-107751456D01*
X159062052Y-107558170D01*
X159062051Y-107558169D01*
X159062051Y-107558165D01*
X159035262Y-107493489D01*
X158986635Y-107376092D01*
X158986628Y-107376079D01*
X158877139Y-107212218D01*
X158877136Y-107212214D01*
X158737785Y-107072863D01*
X158737781Y-107072860D01*
X158573920Y-106963371D01*
X158573907Y-106963364D01*
X158391839Y-106887950D01*
X158391829Y-106887947D01*
X158198543Y-106849500D01*
X158198541Y-106849500D01*
X158001459Y-106849500D01*
X158001457Y-106849500D01*
X157808170Y-106887947D01*
X157808160Y-106887950D01*
X157626092Y-106963364D01*
X157626074Y-106963374D01*
X157468890Y-107068401D01*
X157402213Y-107089279D01*
X157334833Y-107070794D01*
X157331110Y-107068401D01*
X157173925Y-106963374D01*
X157173907Y-106963364D01*
X156991839Y-106887950D01*
X156991829Y-106887947D01*
X156798543Y-106849500D01*
X156798541Y-106849500D01*
X156601459Y-106849500D01*
X156601457Y-106849500D01*
X156408170Y-106887947D01*
X156408160Y-106887950D01*
X156226092Y-106963364D01*
X156226079Y-106963371D01*
X156062218Y-107072860D01*
X156062214Y-107072863D01*
X155922863Y-107212214D01*
X155922860Y-107212218D01*
X155813371Y-107376079D01*
X155813364Y-107376092D01*
X155737950Y-107558160D01*
X155737947Y-107558170D01*
X155699500Y-107751456D01*
X155699500Y-107751459D01*
X155699500Y-108748541D01*
X155699500Y-108748543D01*
X155699499Y-108748543D01*
X138589295Y-108748543D01*
X138624669Y-108713169D01*
X138712274Y-108582059D01*
X138772617Y-108436377D01*
X138803380Y-108281722D01*
X138803380Y-108124038D01*
X138803380Y-108124035D01*
X138803379Y-108124033D01*
X138772618Y-107969390D01*
X138772617Y-107969383D01*
X138737039Y-107883489D01*
X138712277Y-107823707D01*
X138712270Y-107823694D01*
X138705965Y-107814258D01*
X138624669Y-107692591D01*
X138624666Y-107692587D01*
X138513172Y-107581093D01*
X138513168Y-107581090D01*
X138382065Y-107493489D01*
X138382052Y-107493482D01*
X138236381Y-107433144D01*
X138236369Y-107433141D01*
X138081725Y-107402380D01*
X138081722Y-107402380D01*
X137924038Y-107402380D01*
X137924035Y-107402380D01*
X137769390Y-107433141D01*
X137769378Y-107433144D01*
X137623707Y-107493482D01*
X137623694Y-107493489D01*
X137492591Y-107581090D01*
X137492587Y-107581093D01*
X137381093Y-107692587D01*
X137381090Y-107692591D01*
X137293489Y-107823694D01*
X137293482Y-107823707D01*
X137233144Y-107969378D01*
X137233141Y-107969390D01*
X137202380Y-108124033D01*
X121496014Y-108124033D01*
X121507217Y-108107266D01*
X121546114Y-108049055D01*
X121559390Y-108029185D01*
X121559390Y-108029184D01*
X121559394Y-108029179D01*
X121619737Y-107883497D01*
X121650500Y-107728842D01*
X121650500Y-107571158D01*
X121650500Y-107571155D01*
X121650499Y-107571153D01*
X121619737Y-107416503D01*
X121570425Y-107297452D01*
X121562956Y-107227983D01*
X121570425Y-107202548D01*
X121619735Y-107083501D01*
X121619737Y-107083497D01*
X121650500Y-106928842D01*
X121650500Y-106771158D01*
X121650500Y-106771155D01*
X121650499Y-106771153D01*
X121644099Y-106738977D01*
X121619737Y-106616503D01*
X121618084Y-106612512D01*
X121600953Y-106571153D01*
X123249500Y-106571153D01*
X123249500Y-106728846D01*
X123280261Y-106883489D01*
X123280264Y-106883501D01*
X123340602Y-107029172D01*
X123340609Y-107029185D01*
X123428210Y-107160288D01*
X123428213Y-107160292D01*
X123539707Y-107271786D01*
X123539711Y-107271789D01*
X123670814Y-107359390D01*
X123670827Y-107359397D01*
X123774599Y-107402380D01*
X123816503Y-107419737D01*
X123971153Y-107450499D01*
X123971156Y-107450500D01*
X123971158Y-107450500D01*
X124128844Y-107450500D01*
X124128845Y-107450499D01*
X124283497Y-107419737D01*
X124429179Y-107359394D01*
X124560289Y-107271789D01*
X124671789Y-107160289D01*
X124759394Y-107029179D01*
X124819737Y-106883497D01*
X124850500Y-106728842D01*
X124850500Y-106571158D01*
X124850500Y-106571155D01*
X124850499Y-106571153D01*
X124832274Y-106479529D01*
X124819737Y-106416503D01*
X124796452Y-106360288D01*
X124759397Y-106270827D01*
X124759390Y-106270814D01*
X124734763Y-106233957D01*
X124692799Y-106171153D01*
X133249500Y-106171153D01*
X133249500Y-106328846D01*
X133280261Y-106483489D01*
X133280264Y-106483501D01*
X133340602Y-106629172D01*
X133340609Y-106629185D01*
X133428210Y-106760288D01*
X133428213Y-106760292D01*
X133539707Y-106871786D01*
X133539711Y-106871789D01*
X133670814Y-106959390D01*
X133670827Y-106959397D01*
X133747685Y-106991232D01*
X133816503Y-107019737D01*
X133971153Y-107050499D01*
X133971156Y-107050500D01*
X133971158Y-107050500D01*
X134128844Y-107050500D01*
X134128845Y-107050499D01*
X134283497Y-107019737D01*
X134396166Y-106973067D01*
X134429172Y-106959397D01*
X134429172Y-106959396D01*
X134429179Y-106959394D01*
X134560289Y-106871789D01*
X134671789Y-106760289D01*
X134759394Y-106629179D01*
X134819737Y-106483497D01*
X134850500Y-106328842D01*
X134850500Y-106171158D01*
X134850500Y-106171155D01*
X134850499Y-106171153D01*
X134843287Y-106134898D01*
X134819737Y-106016503D01*
X134819735Y-106016498D01*
X134759397Y-105870827D01*
X134759390Y-105870814D01*
X134671789Y-105739711D01*
X134671786Y-105739707D01*
X134560292Y-105628213D01*
X134560288Y-105628210D01*
X134429185Y-105540609D01*
X134429172Y-105540602D01*
X134283501Y-105480264D01*
X134283489Y-105480261D01*
X134128845Y-105449500D01*
X134128842Y-105449500D01*
X133971158Y-105449500D01*
X133971155Y-105449500D01*
X133816510Y-105480261D01*
X133816498Y-105480264D01*
X133670827Y-105540602D01*
X133670814Y-105540609D01*
X133539711Y-105628210D01*
X133539707Y-105628213D01*
X133428213Y-105739707D01*
X133428210Y-105739711D01*
X133340609Y-105870814D01*
X133340602Y-105870827D01*
X133280264Y-106016498D01*
X133280261Y-106016510D01*
X133249500Y-106171153D01*
X124692799Y-106171153D01*
X124668574Y-106134898D01*
X124647696Y-106068220D01*
X124666181Y-106000840D01*
X124718160Y-105954150D01*
X124724211Y-105951451D01*
X124729179Y-105949394D01*
X124860289Y-105861789D01*
X124971789Y-105750289D01*
X125059394Y-105619179D01*
X125060503Y-105616503D01*
X125084156Y-105559397D01*
X125119737Y-105473497D01*
X125150500Y-105318842D01*
X125150500Y-105161158D01*
X125150500Y-105161155D01*
X125150499Y-105161153D01*
X125148667Y-105151941D01*
X125119737Y-105006503D01*
X125105042Y-104971026D01*
X125059397Y-104860827D01*
X125059390Y-104860814D01*
X124971789Y-104729711D01*
X124971786Y-104729707D01*
X124860292Y-104618213D01*
X124860288Y-104618210D01*
X124729185Y-104530609D01*
X124729172Y-104530602D01*
X124583501Y-104470264D01*
X124583489Y-104470261D01*
X124428845Y-104439500D01*
X124428842Y-104439500D01*
X124271158Y-104439500D01*
X124271155Y-104439500D01*
X124116510Y-104470261D01*
X124116498Y-104470264D01*
X123970827Y-104530602D01*
X123970814Y-104530609D01*
X123839711Y-104618210D01*
X123839707Y-104618213D01*
X123728213Y-104729707D01*
X123728210Y-104729711D01*
X123640609Y-104860814D01*
X123640602Y-104860827D01*
X123580264Y-105006498D01*
X123580261Y-105006510D01*
X123549500Y-105161153D01*
X123549500Y-105318846D01*
X123580261Y-105473489D01*
X123580264Y-105473501D01*
X123640602Y-105619172D01*
X123640612Y-105619190D01*
X123731425Y-105755102D01*
X123752303Y-105821779D01*
X123733818Y-105889159D01*
X123681839Y-105935849D01*
X123675779Y-105938552D01*
X123670823Y-105940604D01*
X123670814Y-105940609D01*
X123539711Y-106028210D01*
X123539707Y-106028213D01*
X123428213Y-106139707D01*
X123428210Y-106139711D01*
X123340609Y-106270814D01*
X123340602Y-106270827D01*
X123280264Y-106416498D01*
X123280261Y-106416510D01*
X123249500Y-106571153D01*
X121600953Y-106571153D01*
X121559397Y-106470827D01*
X121559390Y-106470814D01*
X121471789Y-106339711D01*
X121471786Y-106339707D01*
X121360292Y-106228213D01*
X121360288Y-106228210D01*
X121229185Y-106140609D01*
X121229172Y-106140602D01*
X121083501Y-106080264D01*
X121083489Y-106080261D01*
X120928845Y-106049500D01*
X120928842Y-106049500D01*
X120771158Y-106049500D01*
X120771155Y-106049500D01*
X120616510Y-106080261D01*
X120616498Y-106080264D01*
X120470827Y-106140602D01*
X120470814Y-106140609D01*
X120339711Y-106228210D01*
X120339707Y-106228213D01*
X120228213Y-106339707D01*
X120228210Y-106339711D01*
X120140609Y-106470814D01*
X120140602Y-106470827D01*
X120080264Y-106616498D01*
X120080261Y-106616510D01*
X120049500Y-106771153D01*
X117950500Y-106771153D01*
X117950500Y-104182785D01*
X132813911Y-104182785D01*
X132813911Y-104340478D01*
X132844672Y-104495121D01*
X132844675Y-104495133D01*
X132905013Y-104640804D01*
X132905020Y-104640817D01*
X132992621Y-104771920D01*
X132992624Y-104771924D01*
X133104118Y-104883418D01*
X133104122Y-104883421D01*
X133235225Y-104971022D01*
X133235238Y-104971029D01*
X133377918Y-105030128D01*
X133380914Y-105031369D01*
X133527284Y-105060484D01*
X133535564Y-105062131D01*
X133535567Y-105062132D01*
X133535569Y-105062132D01*
X133693255Y-105062132D01*
X133693256Y-105062131D01*
X133847908Y-105031369D01*
X133993590Y-104971026D01*
X134124700Y-104883421D01*
X134236200Y-104771921D01*
X134323805Y-104640811D01*
X134332535Y-104619736D01*
X134351331Y-104574357D01*
X134356690Y-104561420D01*
X146599499Y-104561420D01*
X146628340Y-104706406D01*
X146628342Y-104706414D01*
X146662984Y-104790048D01*
X146670453Y-104859518D01*
X146662984Y-104884952D01*
X146628342Y-104968585D01*
X146628340Y-104968593D01*
X146599500Y-105113579D01*
X146599500Y-105113582D01*
X146599500Y-105261418D01*
X146599500Y-105261420D01*
X146599499Y-105261420D01*
X146628340Y-105406407D01*
X146628343Y-105406417D01*
X146684912Y-105542988D01*
X146684919Y-105543001D01*
X146767048Y-105665915D01*
X146767051Y-105665919D01*
X146871580Y-105770448D01*
X146871584Y-105770451D01*
X146994498Y-105852580D01*
X146994511Y-105852587D01*
X147131082Y-105909156D01*
X147131087Y-105909158D01*
X147131091Y-105909158D01*
X147131092Y-105909159D01*
X147276079Y-105938000D01*
X147276082Y-105938000D01*
X147423920Y-105938000D01*
X147521462Y-105918596D01*
X147568913Y-105909158D01*
X147677548Y-105864159D01*
X147747016Y-105856691D01*
X147772449Y-105864158D01*
X147881087Y-105909158D01*
X147881091Y-105909158D01*
X147881092Y-105909159D01*
X148026079Y-105938000D01*
X148026082Y-105938000D01*
X148173920Y-105938000D01*
X148271462Y-105918596D01*
X148318913Y-105909158D01*
X148427548Y-105864159D01*
X148497016Y-105856691D01*
X148522449Y-105864158D01*
X148631087Y-105909158D01*
X148631091Y-105909158D01*
X148631092Y-105909159D01*
X148776079Y-105938000D01*
X148776082Y-105938000D01*
X148923920Y-105938000D01*
X149021462Y-105918596D01*
X149068913Y-105909158D01*
X149205495Y-105852584D01*
X149205500Y-105852580D01*
X149205503Y-105852579D01*
X149251712Y-105821703D01*
X149318389Y-105800824D01*
X149385770Y-105819308D01*
X149432460Y-105871286D01*
X149443637Y-105940256D01*
X149442221Y-105948995D01*
X149425235Y-106034388D01*
X149425235Y-106192081D01*
X149455996Y-106346724D01*
X149455999Y-106346736D01*
X149516337Y-106492407D01*
X149516344Y-106492420D01*
X149603945Y-106623523D01*
X149603948Y-106623527D01*
X149715442Y-106735021D01*
X149715446Y-106735024D01*
X149846549Y-106822625D01*
X149846562Y-106822632D01*
X149992233Y-106882970D01*
X149992238Y-106882972D01*
X150146888Y-106913734D01*
X150146891Y-106913735D01*
X150146893Y-106913735D01*
X150304579Y-106913735D01*
X150304580Y-106913734D01*
X150459232Y-106882972D01*
X150604914Y-106822629D01*
X150684068Y-106769740D01*
X150741089Y-106731640D01*
X150741756Y-106732639D01*
X150800194Y-106707808D01*
X150862022Y-106716410D01*
X150916503Y-106738977D01*
X151057021Y-106766928D01*
X151071153Y-106769739D01*
X151071156Y-106769740D01*
X151071158Y-106769740D01*
X151228844Y-106769740D01*
X151228845Y-106769739D01*
X151383497Y-106738977D01*
X151496166Y-106692307D01*
X151529172Y-106678637D01*
X151529172Y-106678636D01*
X151529179Y-106678634D01*
X151660289Y-106591029D01*
X151771789Y-106479529D01*
X151859394Y-106348419D01*
X151882880Y-106291717D01*
X151926720Y-106237315D01*
X151993014Y-106215249D01*
X152044892Y-106224608D01*
X152092084Y-106244156D01*
X152246734Y-106274918D01*
X152246737Y-106274919D01*
X152246739Y-106274919D01*
X152404425Y-106274919D01*
X152404426Y-106274918D01*
X152559078Y-106244156D01*
X152659073Y-106202737D01*
X152698467Y-106186420D01*
X152767936Y-106178951D01*
X152794867Y-106188317D01*
X152795240Y-106187419D01*
X152932220Y-106244157D01*
X152946551Y-106250093D01*
X153071354Y-106274918D01*
X153101201Y-106280855D01*
X153101204Y-106280856D01*
X153101206Y-106280856D01*
X153258892Y-106280856D01*
X153258893Y-106280855D01*
X153413545Y-106250093D01*
X153527873Y-106202737D01*
X153559220Y-106189753D01*
X153559220Y-106189752D01*
X153559227Y-106189750D01*
X153690337Y-106102145D01*
X153801837Y-105990645D01*
X153889442Y-105859535D01*
X153926051Y-105771153D01*
X158249500Y-105771153D01*
X158249500Y-105928846D01*
X158280261Y-106083489D01*
X158280264Y-106083501D01*
X158340602Y-106229172D01*
X158340609Y-106229185D01*
X158428210Y-106360288D01*
X158428213Y-106360292D01*
X158539707Y-106471786D01*
X158539711Y-106471789D01*
X158670814Y-106559390D01*
X158670827Y-106559397D01*
X158808695Y-106616503D01*
X158816503Y-106619737D01*
X158971153Y-106650499D01*
X158971156Y-106650500D01*
X158971158Y-106650500D01*
X159128844Y-106650500D01*
X159128845Y-106650499D01*
X159283497Y-106619737D01*
X159429179Y-106559394D01*
X159560289Y-106471789D01*
X159671789Y-106360289D01*
X159759394Y-106229179D01*
X159819737Y-106083497D01*
X159842084Y-105971153D01*
X160449500Y-105971153D01*
X160449500Y-106128846D01*
X160480261Y-106283489D01*
X160480264Y-106283501D01*
X160540602Y-106429172D01*
X160540609Y-106429185D01*
X160628210Y-106560288D01*
X160628213Y-106560292D01*
X160739707Y-106671786D01*
X160739711Y-106671789D01*
X160870814Y-106759390D01*
X160870827Y-106759397D01*
X161016498Y-106819735D01*
X161016503Y-106819737D01*
X161166131Y-106849500D01*
X161171153Y-106850499D01*
X161171156Y-106850500D01*
X161171158Y-106850500D01*
X161328844Y-106850500D01*
X161328845Y-106850499D01*
X161483497Y-106819737D01*
X161629179Y-106759394D01*
X161760289Y-106671789D01*
X161871789Y-106560289D01*
X161959394Y-106429179D01*
X162019737Y-106283497D01*
X162050500Y-106128842D01*
X162050500Y-105971158D01*
X162050499Y-105971153D01*
X162050499Y-105971150D01*
X162048955Y-105963389D01*
X167949500Y-105963389D01*
X167949500Y-106136611D01*
X167949991Y-106139711D01*
X167974066Y-106291719D01*
X167976598Y-106307701D01*
X168030127Y-106472445D01*
X168108768Y-106626788D01*
X168210586Y-106766928D01*
X168333072Y-106889414D01*
X168473212Y-106991232D01*
X168627555Y-107069873D01*
X168792299Y-107123402D01*
X168963389Y-107150500D01*
X168963390Y-107150500D01*
X169136610Y-107150500D01*
X169136611Y-107150500D01*
X169307701Y-107123402D01*
X169472445Y-107069873D01*
X169626788Y-106991232D01*
X169766928Y-106889414D01*
X169889414Y-106766928D01*
X169991232Y-106626788D01*
X170069873Y-106472445D01*
X170123402Y-106307701D01*
X170150500Y-106136611D01*
X170150500Y-105963389D01*
X170123402Y-105792299D01*
X170069873Y-105627555D01*
X169991232Y-105473212D01*
X169889414Y-105333072D01*
X169766928Y-105210586D01*
X169626788Y-105108768D01*
X169535257Y-105062131D01*
X169472447Y-105030128D01*
X169472446Y-105030127D01*
X169472445Y-105030127D01*
X169307701Y-104976598D01*
X169307699Y-104976597D01*
X169307698Y-104976597D01*
X169176271Y-104955781D01*
X169136611Y-104949500D01*
X168963389Y-104949500D01*
X168923728Y-104955781D01*
X168792302Y-104976597D01*
X168627552Y-105030128D01*
X168473211Y-105108768D01*
X168393256Y-105166859D01*
X168333072Y-105210586D01*
X168333070Y-105210588D01*
X168333069Y-105210588D01*
X168210588Y-105333069D01*
X168210588Y-105333070D01*
X168210586Y-105333072D01*
X168186616Y-105366064D01*
X168108768Y-105473211D01*
X168030128Y-105627552D01*
X167976597Y-105792302D01*
X167958089Y-105909158D01*
X167949500Y-105963389D01*
X162048955Y-105963389D01*
X162027731Y-105856691D01*
X162019737Y-105816503D01*
X162009713Y-105792302D01*
X161959397Y-105670827D01*
X161959390Y-105670814D01*
X161871789Y-105539711D01*
X161871786Y-105539707D01*
X161760292Y-105428213D01*
X161760288Y-105428210D01*
X161629185Y-105340609D01*
X161629172Y-105340602D01*
X161483501Y-105280264D01*
X161483489Y-105280261D01*
X161328845Y-105249500D01*
X161328842Y-105249500D01*
X161171158Y-105249500D01*
X161171155Y-105249500D01*
X161016510Y-105280261D01*
X161016498Y-105280264D01*
X160870827Y-105340602D01*
X160870814Y-105340609D01*
X160739711Y-105428210D01*
X160739707Y-105428213D01*
X160628213Y-105539707D01*
X160628210Y-105539711D01*
X160540609Y-105670814D01*
X160540602Y-105670827D01*
X160480264Y-105816498D01*
X160480261Y-105816510D01*
X160449500Y-105971153D01*
X159842084Y-105971153D01*
X159848107Y-105940875D01*
X159848107Y-105940874D01*
X159850500Y-105928844D01*
X159850500Y-105771155D01*
X159850499Y-105771153D01*
X159830543Y-105670827D01*
X159819737Y-105616503D01*
X159796080Y-105559390D01*
X159759397Y-105470827D01*
X159759390Y-105470814D01*
X159671789Y-105339711D01*
X159671786Y-105339707D01*
X159560292Y-105228213D01*
X159560288Y-105228210D01*
X159429185Y-105140609D01*
X159429172Y-105140602D01*
X159283501Y-105080264D01*
X159283489Y-105080261D01*
X159128845Y-105049500D01*
X159128842Y-105049500D01*
X158971158Y-105049500D01*
X158971155Y-105049500D01*
X158816510Y-105080261D01*
X158816498Y-105080264D01*
X158670827Y-105140602D01*
X158670814Y-105140609D01*
X158539711Y-105228210D01*
X158539707Y-105228213D01*
X158428213Y-105339707D01*
X158428210Y-105339711D01*
X158340609Y-105470814D01*
X158340602Y-105470827D01*
X158280264Y-105616498D01*
X158280261Y-105616510D01*
X158249500Y-105771153D01*
X153926051Y-105771153D01*
X153949785Y-105713853D01*
X153980548Y-105559198D01*
X153980548Y-105401514D01*
X153980548Y-105401511D01*
X153980547Y-105401509D01*
X153975208Y-105374669D01*
X153949785Y-105246859D01*
X153895643Y-105116147D01*
X153888174Y-105046678D01*
X153907103Y-104999803D01*
X153912333Y-104991976D01*
X153920109Y-104980339D01*
X153980452Y-104834657D01*
X154001328Y-104729707D01*
X154012404Y-104674028D01*
X154014283Y-104674401D01*
X154037101Y-104617859D01*
X154094127Y-104577488D01*
X154163927Y-104574357D01*
X154181811Y-104580219D01*
X154277213Y-104619735D01*
X154277218Y-104619737D01*
X154383194Y-104640817D01*
X154431868Y-104650499D01*
X154431871Y-104650500D01*
X154431873Y-104650500D01*
X154589559Y-104650500D01*
X154589560Y-104650499D01*
X154744212Y-104619737D01*
X154889894Y-104559394D01*
X154889897Y-104559391D01*
X154895406Y-104557110D01*
X154964875Y-104549641D01*
X155027355Y-104580916D01*
X155063007Y-104641005D01*
X155064477Y-104695861D01*
X155049500Y-104771158D01*
X155049500Y-104928846D01*
X155080261Y-105083489D01*
X155080264Y-105083501D01*
X155140602Y-105229172D01*
X155140609Y-105229185D01*
X155228210Y-105360288D01*
X155228213Y-105360292D01*
X155339707Y-105471786D01*
X155339711Y-105471789D01*
X155470814Y-105559390D01*
X155470827Y-105559397D01*
X155608683Y-105616498D01*
X155616503Y-105619737D01*
X155771153Y-105650499D01*
X155771156Y-105650500D01*
X155771158Y-105650500D01*
X155928844Y-105650500D01*
X155928845Y-105650499D01*
X155939179Y-105648443D01*
X155964287Y-105643450D01*
X155964292Y-105643449D01*
X156049800Y-105626439D01*
X156083497Y-105619737D01*
X156229179Y-105559394D01*
X156360289Y-105471789D01*
X156471789Y-105360289D01*
X156559394Y-105229179D01*
X156568853Y-105206344D01*
X156591387Y-105151941D01*
X156619737Y-105083497D01*
X156650500Y-104928842D01*
X156650500Y-104771158D01*
X156650500Y-104771155D01*
X156650499Y-104771153D01*
X156642255Y-104729707D01*
X156619737Y-104616503D01*
X156619735Y-104616498D01*
X156559397Y-104470827D01*
X156559390Y-104470814D01*
X156471789Y-104339711D01*
X156471786Y-104339707D01*
X156360292Y-104228213D01*
X156360287Y-104228209D01*
X156229185Y-104140609D01*
X156229172Y-104140602D01*
X156083501Y-104080264D01*
X156083489Y-104080261D01*
X155928845Y-104049500D01*
X155928842Y-104049500D01*
X155771158Y-104049500D01*
X155771155Y-104049500D01*
X155616510Y-104080261D01*
X155616498Y-104080264D01*
X155465307Y-104142889D01*
X155395838Y-104150358D01*
X155333359Y-104119082D01*
X155297707Y-104058993D01*
X155296238Y-104004136D01*
X155311215Y-103928844D01*
X155311215Y-103771155D01*
X155311214Y-103771153D01*
X155307665Y-103753310D01*
X155280452Y-103616503D01*
X155280450Y-103616498D01*
X155220112Y-103470827D01*
X155220105Y-103470814D01*
X155132504Y-103339711D01*
X155132501Y-103339707D01*
X155021007Y-103228213D01*
X155021003Y-103228210D01*
X154889900Y-103140609D01*
X154889887Y-103140602D01*
X154744216Y-103080264D01*
X154744204Y-103080261D01*
X154589560Y-103049500D01*
X154589557Y-103049500D01*
X154431873Y-103049500D01*
X154431870Y-103049500D01*
X154277225Y-103080261D01*
X154277213Y-103080264D01*
X154131542Y-103140602D01*
X154131529Y-103140609D01*
X154000426Y-103228210D01*
X154000422Y-103228213D01*
X153888928Y-103339707D01*
X153888925Y-103339711D01*
X153801324Y-103470814D01*
X153801317Y-103470827D01*
X153740979Y-103616498D01*
X153740976Y-103616510D01*
X153709026Y-103777132D01*
X153707154Y-103776759D01*
X153684304Y-103833331D01*
X153627265Y-103873684D01*
X153557464Y-103876793D01*
X153539618Y-103870941D01*
X153527369Y-103865867D01*
X153444212Y-103831423D01*
X153444207Y-103831422D01*
X153444204Y-103831421D01*
X153289560Y-103800660D01*
X153289557Y-103800660D01*
X153131873Y-103800660D01*
X153131870Y-103800660D01*
X152977225Y-103831421D01*
X152977213Y-103831424D01*
X152831543Y-103891762D01*
X152826162Y-103894639D01*
X152825142Y-103892730D01*
X152767770Y-103910684D01*
X152700393Y-103892187D01*
X152696689Y-103889806D01*
X152679182Y-103878108D01*
X152679181Y-103878107D01*
X152679179Y-103878106D01*
X152679176Y-103878104D01*
X152679171Y-103878102D01*
X152533501Y-103817764D01*
X152533489Y-103817761D01*
X152378845Y-103787000D01*
X152378842Y-103787000D01*
X152221158Y-103787000D01*
X152221155Y-103787000D01*
X152066510Y-103817761D01*
X152066498Y-103817764D01*
X151920827Y-103878102D01*
X151920814Y-103878109D01*
X151789711Y-103965710D01*
X151789707Y-103965713D01*
X151678213Y-104077207D01*
X151678210Y-104077211D01*
X151590609Y-104208314D01*
X151590602Y-104208327D01*
X151530264Y-104353998D01*
X151530261Y-104354010D01*
X151499500Y-104508653D01*
X151499500Y-104666346D01*
X151530261Y-104820989D01*
X151530264Y-104821001D01*
X151590602Y-104966672D01*
X151590609Y-104966684D01*
X151602447Y-104984401D01*
X151604819Y-104991976D01*
X151610229Y-104997787D01*
X151615110Y-105024845D01*
X151623325Y-105051078D01*
X151621541Y-105060484D01*
X151622635Y-105066547D01*
X151613906Y-105100745D01*
X151592700Y-105151941D01*
X151548859Y-105206344D01*
X151482565Y-105228409D01*
X151430687Y-105219049D01*
X151383501Y-105199504D01*
X151383489Y-105199501D01*
X151228845Y-105168740D01*
X151228842Y-105168740D01*
X151071158Y-105168740D01*
X151071155Y-105168740D01*
X150916510Y-105199501D01*
X150916498Y-105199504D01*
X150770827Y-105259842D01*
X150770814Y-105259849D01*
X150634646Y-105350835D01*
X150633980Y-105349839D01*
X150575511Y-105374669D01*
X150513712Y-105366064D01*
X150459232Y-105343498D01*
X150459225Y-105343496D01*
X150459224Y-105343496D01*
X150459223Y-105343495D01*
X150304580Y-105312735D01*
X150304577Y-105312735D01*
X150146893Y-105312735D01*
X150146890Y-105312735D01*
X149992245Y-105343496D01*
X149992233Y-105343499D01*
X149846562Y-105403837D01*
X149846551Y-105403843D01*
X149779022Y-105448965D01*
X149712345Y-105469842D01*
X149644965Y-105451357D01*
X149598275Y-105399378D01*
X149587099Y-105330408D01*
X149588515Y-105321670D01*
X149600500Y-105261420D01*
X149600500Y-105113579D01*
X149571659Y-104968592D01*
X149571658Y-104968591D01*
X149571658Y-104968587D01*
X149537014Y-104884950D01*
X149529546Y-104815484D01*
X149537015Y-104790048D01*
X149571658Y-104706413D01*
X149588899Y-104619738D01*
X149600500Y-104561420D01*
X149600500Y-104413579D01*
X149571659Y-104268592D01*
X149571658Y-104268591D01*
X149571658Y-104268587D01*
X149567850Y-104259394D01*
X149515087Y-104132011D01*
X149515080Y-104131998D01*
X149432951Y-104009084D01*
X149432948Y-104009080D01*
X149328419Y-103904551D01*
X149328415Y-103904548D01*
X149205501Y-103822419D01*
X149205488Y-103822412D01*
X149068917Y-103765843D01*
X149068907Y-103765840D01*
X148923920Y-103737000D01*
X148923918Y-103737000D01*
X148776082Y-103737000D01*
X148776080Y-103737000D01*
X148631092Y-103765840D01*
X148631082Y-103765843D01*
X148522452Y-103810839D01*
X148452983Y-103818308D01*
X148427548Y-103810839D01*
X148318917Y-103765843D01*
X148318907Y-103765840D01*
X148173920Y-103737000D01*
X148173918Y-103737000D01*
X148026082Y-103737000D01*
X148026080Y-103737000D01*
X147881092Y-103765840D01*
X147881082Y-103765843D01*
X147772452Y-103810839D01*
X147702983Y-103818308D01*
X147677548Y-103810839D01*
X147568917Y-103765843D01*
X147568907Y-103765840D01*
X147423920Y-103737000D01*
X147423918Y-103737000D01*
X147276082Y-103737000D01*
X147276080Y-103737000D01*
X147131092Y-103765840D01*
X147131082Y-103765843D01*
X146994511Y-103822412D01*
X146994498Y-103822419D01*
X146871584Y-103904548D01*
X146871580Y-103904551D01*
X146767051Y-104009080D01*
X146767048Y-104009084D01*
X146684919Y-104131998D01*
X146684912Y-104132011D01*
X146628343Y-104268582D01*
X146628340Y-104268592D01*
X146599500Y-104413579D01*
X146599500Y-104413582D01*
X146599500Y-104561418D01*
X146599500Y-104561420D01*
X146599499Y-104561420D01*
X134356690Y-104561420D01*
X134384148Y-104495129D01*
X134400369Y-104413582D01*
X134406393Y-104383299D01*
X134406393Y-104383298D01*
X134414911Y-104340476D01*
X134414911Y-104182787D01*
X134414910Y-104182785D01*
X134404808Y-104131998D01*
X134384148Y-104028135D01*
X134376255Y-104009080D01*
X134323808Y-103882459D01*
X134323801Y-103882446D01*
X134236200Y-103751343D01*
X134236197Y-103751339D01*
X134124703Y-103639845D01*
X134124699Y-103639842D01*
X133993596Y-103552241D01*
X133993583Y-103552234D01*
X133847912Y-103491896D01*
X133847900Y-103491893D01*
X133693256Y-103461132D01*
X133693253Y-103461132D01*
X133535569Y-103461132D01*
X133535566Y-103461132D01*
X133380921Y-103491893D01*
X133380909Y-103491896D01*
X133235238Y-103552234D01*
X133235225Y-103552241D01*
X133104122Y-103639842D01*
X133104118Y-103639845D01*
X132992624Y-103751339D01*
X132992621Y-103751343D01*
X132905020Y-103882446D01*
X132905013Y-103882459D01*
X132844675Y-104028130D01*
X132844672Y-104028142D01*
X132813911Y-104182785D01*
X117950500Y-104182785D01*
X117950500Y-102771153D01*
X123549500Y-102771153D01*
X123549500Y-102928846D01*
X123580261Y-103083489D01*
X123580264Y-103083501D01*
X123640602Y-103229172D01*
X123640609Y-103229185D01*
X123728210Y-103360288D01*
X123728213Y-103360292D01*
X123839707Y-103471786D01*
X123839711Y-103471789D01*
X123970814Y-103559390D01*
X123970827Y-103559397D01*
X124070060Y-103600500D01*
X124116503Y-103619737D01*
X124271153Y-103650499D01*
X124271156Y-103650500D01*
X124271158Y-103650500D01*
X124428844Y-103650500D01*
X124428845Y-103650499D01*
X124583497Y-103619737D01*
X124729179Y-103559394D01*
X124860289Y-103471789D01*
X124971789Y-103360289D01*
X125059394Y-103229179D01*
X125119737Y-103083497D01*
X125150500Y-102928842D01*
X125150500Y-102771158D01*
X125150500Y-102771155D01*
X125150499Y-102771153D01*
X125146192Y-102749500D01*
X125119737Y-102616503D01*
X125119732Y-102616492D01*
X125117969Y-102610676D01*
X125119612Y-102610177D01*
X125113009Y-102548856D01*
X125144273Y-102486371D01*
X125156387Y-102474991D01*
X125160284Y-102471792D01*
X125160289Y-102471789D01*
X125271789Y-102360289D01*
X125359394Y-102229179D01*
X125359798Y-102228205D01*
X125380848Y-102177385D01*
X125419737Y-102083497D01*
X125423649Y-102063832D01*
X133659500Y-102063832D01*
X133659500Y-102221525D01*
X133690261Y-102376168D01*
X133690264Y-102376180D01*
X133750602Y-102521851D01*
X133750609Y-102521864D01*
X133838210Y-102652967D01*
X133838213Y-102652971D01*
X133949707Y-102764465D01*
X133949711Y-102764468D01*
X134080814Y-102852069D01*
X134080827Y-102852076D01*
X134219207Y-102909394D01*
X134226503Y-102912416D01*
X134381153Y-102943178D01*
X134381156Y-102943179D01*
X134381158Y-102943179D01*
X134538844Y-102943179D01*
X134538845Y-102943178D01*
X134693497Y-102912416D01*
X134806166Y-102865746D01*
X134839172Y-102852076D01*
X134839172Y-102852075D01*
X134839179Y-102852073D01*
X134970289Y-102764468D01*
X135081789Y-102652968D01*
X135169394Y-102521858D01*
X135229737Y-102376176D01*
X135260500Y-102221521D01*
X135260500Y-102063837D01*
X135260500Y-102063834D01*
X135260499Y-102063832D01*
X135252135Y-102021786D01*
X135229737Y-101909182D01*
X135216392Y-101876964D01*
X135169397Y-101763506D01*
X135169390Y-101763493D01*
X135081789Y-101632390D01*
X135081786Y-101632386D01*
X134970292Y-101520892D01*
X134970288Y-101520889D01*
X134839185Y-101433288D01*
X134839172Y-101433281D01*
X134693501Y-101372943D01*
X134693489Y-101372940D01*
X134538845Y-101342179D01*
X134538842Y-101342179D01*
X134381158Y-101342179D01*
X134381155Y-101342179D01*
X134226510Y-101372940D01*
X134226498Y-101372943D01*
X134080827Y-101433281D01*
X134080814Y-101433288D01*
X133949711Y-101520889D01*
X133949707Y-101520892D01*
X133838213Y-101632386D01*
X133838210Y-101632390D01*
X133750609Y-101763493D01*
X133750602Y-101763506D01*
X133690264Y-101909177D01*
X133690261Y-101909189D01*
X133659500Y-102063832D01*
X125423649Y-102063832D01*
X125430541Y-102029185D01*
X125446192Y-101950499D01*
X125450500Y-101928842D01*
X125450500Y-101771158D01*
X125450500Y-101771155D01*
X125450499Y-101771153D01*
X125448975Y-101763493D01*
X125419737Y-101616503D01*
X125419735Y-101616498D01*
X125359397Y-101470827D01*
X125359390Y-101470814D01*
X125271789Y-101339711D01*
X125271786Y-101339707D01*
X125160292Y-101228213D01*
X125160288Y-101228210D01*
X125029185Y-101140609D01*
X125029172Y-101140602D01*
X124883501Y-101080264D01*
X124883489Y-101080261D01*
X124728845Y-101049500D01*
X124728842Y-101049500D01*
X124571158Y-101049500D01*
X124571155Y-101049500D01*
X124416510Y-101080261D01*
X124416498Y-101080264D01*
X124270827Y-101140602D01*
X124270814Y-101140609D01*
X124139711Y-101228210D01*
X124139707Y-101228213D01*
X124028213Y-101339707D01*
X124028210Y-101339711D01*
X123940609Y-101470814D01*
X123940602Y-101470827D01*
X123880264Y-101616498D01*
X123880261Y-101616510D01*
X123849500Y-101771153D01*
X123849500Y-101928846D01*
X123880260Y-102083488D01*
X123882030Y-102089320D01*
X123880391Y-102089817D01*
X123886985Y-102151170D01*
X123855707Y-102213648D01*
X123843631Y-102224993D01*
X123839717Y-102228205D01*
X123728209Y-102339712D01*
X123640609Y-102470814D01*
X123640602Y-102470827D01*
X123580264Y-102616498D01*
X123580261Y-102616510D01*
X123549500Y-102771153D01*
X117950500Y-102771153D01*
X117950500Y-99171153D01*
X133649500Y-99171153D01*
X133649500Y-99328846D01*
X133680261Y-99483489D01*
X133680264Y-99483501D01*
X133740602Y-99629172D01*
X133740609Y-99629185D01*
X133828210Y-99760288D01*
X133828213Y-99760292D01*
X133939707Y-99871786D01*
X133939711Y-99871789D01*
X134070814Y-99959390D01*
X134070827Y-99959397D01*
X134216498Y-100019735D01*
X134216503Y-100019737D01*
X134371153Y-100050499D01*
X134371156Y-100050500D01*
X134371158Y-100050500D01*
X134528844Y-100050500D01*
X134528845Y-100050499D01*
X134683497Y-100019737D01*
X134829179Y-99959394D01*
X134960289Y-99871789D01*
X135071789Y-99760289D01*
X135159394Y-99629179D01*
X135219737Y-99483497D01*
X135250500Y-99328842D01*
X135250500Y-99296888D01*
X137736265Y-99296888D01*
X137736265Y-99454581D01*
X137767026Y-99609224D01*
X137767029Y-99609236D01*
X137827367Y-99754907D01*
X137827374Y-99754920D01*
X137914975Y-99886023D01*
X137914978Y-99886027D01*
X138026472Y-99997521D01*
X138026476Y-99997524D01*
X138157579Y-100085125D01*
X138157592Y-100085132D01*
X138299321Y-100143837D01*
X138303268Y-100145472D01*
X138457918Y-100176234D01*
X138457921Y-100176235D01*
X138457923Y-100176235D01*
X138615609Y-100176235D01*
X138615610Y-100176234D01*
X138770262Y-100145472D01*
X138770271Y-100145468D01*
X138773569Y-100144468D01*
X138775394Y-100144451D01*
X138776237Y-100144284D01*
X138776268Y-100144443D01*
X138843436Y-100143837D01*
X138902552Y-100181080D01*
X138932150Y-100244371D01*
X138924138Y-100310576D01*
X138880263Y-100416503D01*
X138880261Y-100416510D01*
X138849500Y-100571153D01*
X138849500Y-100728846D01*
X138880261Y-100883489D01*
X138880264Y-100883501D01*
X138940602Y-101029172D01*
X138940609Y-101029185D01*
X139028210Y-101160288D01*
X139028213Y-101160292D01*
X139102763Y-101234842D01*
X139136248Y-101296165D01*
X139131264Y-101365857D01*
X139089392Y-101421790D01*
X139062534Y-101437084D01*
X138933327Y-101490602D01*
X138933314Y-101490609D01*
X138802211Y-101578210D01*
X138802207Y-101578213D01*
X138690713Y-101689707D01*
X138690710Y-101689711D01*
X138603109Y-101820814D01*
X138603102Y-101820827D01*
X138542764Y-101966498D01*
X138542761Y-101966510D01*
X138512000Y-102121153D01*
X138512000Y-102278846D01*
X138542761Y-102433489D01*
X138542764Y-102433501D01*
X138603102Y-102579172D01*
X138603109Y-102579185D01*
X138690710Y-102710288D01*
X138690713Y-102710292D01*
X138802207Y-102821786D01*
X138802211Y-102821789D01*
X138933314Y-102909390D01*
X138933327Y-102909397D01*
X139047782Y-102956805D01*
X139079003Y-102969737D01*
X139194616Y-102992734D01*
X139233653Y-103000499D01*
X139233656Y-103000500D01*
X139233658Y-103000500D01*
X139391344Y-103000500D01*
X139391345Y-103000499D01*
X139545997Y-102969737D01*
X139577219Y-102956804D01*
X139646684Y-102949335D01*
X139709164Y-102980608D01*
X139739020Y-103028454D01*
X139740432Y-103027870D01*
X139803102Y-103179172D01*
X139803109Y-103179185D01*
X139890710Y-103310288D01*
X139890713Y-103310292D01*
X140002207Y-103421786D01*
X140002211Y-103421789D01*
X140133314Y-103509390D01*
X140133327Y-103509397D01*
X140278998Y-103569735D01*
X140279003Y-103569737D01*
X140433653Y-103600499D01*
X140433656Y-103600500D01*
X140433658Y-103600500D01*
X140591344Y-103600500D01*
X140591345Y-103600499D01*
X140745997Y-103569737D01*
X140891679Y-103509394D01*
X141022789Y-103421789D01*
X141134289Y-103310289D01*
X141221894Y-103179179D01*
X141221895Y-103179176D01*
X141221897Y-103179173D01*
X141261530Y-103083489D01*
X141267447Y-103069202D01*
X141311287Y-103014799D01*
X141377581Y-102992734D01*
X141406197Y-102995037D01*
X141433658Y-103000500D01*
X141591344Y-103000500D01*
X141591345Y-103000499D01*
X141745997Y-102969737D01*
X141891679Y-102909394D01*
X142003933Y-102834388D01*
X145225235Y-102834388D01*
X145225235Y-102992081D01*
X145255996Y-103146724D01*
X145255999Y-103146736D01*
X145316337Y-103292407D01*
X145316344Y-103292420D01*
X145403945Y-103423523D01*
X145403948Y-103423527D01*
X145515442Y-103535021D01*
X145515446Y-103535024D01*
X145646549Y-103622625D01*
X145646562Y-103622632D01*
X145759496Y-103669410D01*
X145792238Y-103682972D01*
X145946888Y-103713734D01*
X145946891Y-103713735D01*
X145946893Y-103713735D01*
X146104579Y-103713735D01*
X146104580Y-103713734D01*
X146259232Y-103682972D01*
X146389910Y-103628844D01*
X146404907Y-103622632D01*
X146404907Y-103622631D01*
X146404914Y-103622629D01*
X146536024Y-103535024D01*
X146599895Y-103471153D01*
X149746605Y-103471153D01*
X149746605Y-103628846D01*
X149777366Y-103783489D01*
X149777369Y-103783501D01*
X149837707Y-103929172D01*
X149837714Y-103929185D01*
X149925315Y-104060288D01*
X149925318Y-104060292D01*
X150036812Y-104171786D01*
X150036816Y-104171789D01*
X150167919Y-104259390D01*
X150167932Y-104259397D01*
X150313603Y-104319735D01*
X150313608Y-104319737D01*
X150468258Y-104350499D01*
X150468261Y-104350500D01*
X150468263Y-104350500D01*
X150625949Y-104350500D01*
X150625950Y-104350499D01*
X150780602Y-104319737D01*
X150926284Y-104259394D01*
X151057394Y-104171789D01*
X151168894Y-104060289D01*
X151256499Y-103929179D01*
X151316842Y-103783497D01*
X151347605Y-103628842D01*
X151347605Y-103471158D01*
X151347605Y-103471155D01*
X151347604Y-103471153D01*
X151345611Y-103461132D01*
X151316842Y-103316503D01*
X151280674Y-103229185D01*
X151256502Y-103170827D01*
X151256495Y-103170814D01*
X151168894Y-103039711D01*
X151168891Y-103039707D01*
X151057397Y-102928213D01*
X151057393Y-102928210D01*
X150926290Y-102840609D01*
X150926277Y-102840602D01*
X150780606Y-102780264D01*
X150780594Y-102780261D01*
X150625950Y-102749500D01*
X150625947Y-102749500D01*
X150468263Y-102749500D01*
X150468260Y-102749500D01*
X150313615Y-102780261D01*
X150313603Y-102780264D01*
X150167932Y-102840602D01*
X150167919Y-102840609D01*
X150036816Y-102928210D01*
X150036812Y-102928213D01*
X149925318Y-103039707D01*
X149925315Y-103039711D01*
X149837714Y-103170814D01*
X149837707Y-103170827D01*
X149777369Y-103316498D01*
X149777366Y-103316510D01*
X149746605Y-103471153D01*
X146599895Y-103471153D01*
X146647524Y-103423524D01*
X146735129Y-103292414D01*
X146795472Y-103146732D01*
X146826235Y-102992077D01*
X146826235Y-102834393D01*
X146826235Y-102834390D01*
X146826234Y-102834388D01*
X146812325Y-102764465D01*
X146795472Y-102679738D01*
X146783996Y-102652033D01*
X146735132Y-102534062D01*
X146735125Y-102534049D01*
X146647524Y-102402946D01*
X146647521Y-102402942D01*
X146536027Y-102291448D01*
X146536023Y-102291445D01*
X146404920Y-102203844D01*
X146404907Y-102203837D01*
X146259236Y-102143499D01*
X146259224Y-102143496D01*
X146104580Y-102112735D01*
X146104577Y-102112735D01*
X145946893Y-102112735D01*
X145946890Y-102112735D01*
X145792245Y-102143496D01*
X145792233Y-102143499D01*
X145646562Y-102203837D01*
X145646549Y-102203844D01*
X145515446Y-102291445D01*
X145515442Y-102291448D01*
X145403948Y-102402942D01*
X145403945Y-102402946D01*
X145316344Y-102534049D01*
X145316337Y-102534062D01*
X145255999Y-102679733D01*
X145255996Y-102679745D01*
X145225235Y-102834388D01*
X142003933Y-102834388D01*
X142022789Y-102821789D01*
X142045592Y-102798986D01*
X142103959Y-102740620D01*
X142134286Y-102710292D01*
X142134289Y-102710289D01*
X142221894Y-102579179D01*
X142282237Y-102433497D01*
X142313000Y-102278842D01*
X142313000Y-102121158D01*
X142313000Y-102121155D01*
X142312999Y-102121153D01*
X142306667Y-102089320D01*
X142282237Y-101966503D01*
X142279663Y-101960288D01*
X142221897Y-101820827D01*
X142221890Y-101820814D01*
X142134289Y-101689711D01*
X142134286Y-101689707D01*
X142022792Y-101578213D01*
X142022788Y-101578210D01*
X141891685Y-101490609D01*
X141891672Y-101490602D01*
X141746001Y-101430264D01*
X141745989Y-101430261D01*
X141591345Y-101399500D01*
X141591342Y-101399500D01*
X141433658Y-101399500D01*
X141430348Y-101399500D01*
X141399892Y-101390557D01*
X141368989Y-101383255D01*
X141366602Y-101380782D01*
X141363309Y-101379815D01*
X141342527Y-101355832D01*
X141320473Y-101332976D01*
X141318928Y-101328596D01*
X141317554Y-101327011D01*
X141315662Y-101321153D01*
X153449500Y-101321153D01*
X153449500Y-101478846D01*
X153480261Y-101633489D01*
X153480264Y-101633501D01*
X153540602Y-101779172D01*
X153540609Y-101779185D01*
X153628210Y-101910288D01*
X153628213Y-101910292D01*
X153739707Y-102021786D01*
X153739711Y-102021789D01*
X153870814Y-102109390D01*
X153870827Y-102109397D01*
X154016498Y-102169735D01*
X154016503Y-102169737D01*
X154151858Y-102196661D01*
X154171153Y-102200499D01*
X154171156Y-102200500D01*
X154171158Y-102200500D01*
X154328844Y-102200500D01*
X154328845Y-102200499D01*
X154483497Y-102169737D01*
X154629179Y-102109394D01*
X154760289Y-102021789D01*
X154871789Y-101910289D01*
X154873585Y-101907599D01*
X154878449Y-101900323D01*
X154932061Y-101855517D01*
X155001386Y-101846810D01*
X155064413Y-101876964D01*
X155096112Y-101921761D01*
X155140602Y-102029172D01*
X155140609Y-102029185D01*
X155228210Y-102160288D01*
X155228213Y-102160292D01*
X155339707Y-102271786D01*
X155339711Y-102271789D01*
X155470814Y-102359390D01*
X155470827Y-102359397D01*
X155588230Y-102408026D01*
X155616503Y-102419737D01*
X155771153Y-102450499D01*
X155771156Y-102450500D01*
X155771158Y-102450500D01*
X155928844Y-102450500D01*
X155928845Y-102450499D01*
X156083497Y-102419737D01*
X156229179Y-102359394D01*
X156360289Y-102271789D01*
X156360925Y-102271153D01*
X157099500Y-102271153D01*
X157099500Y-102428846D01*
X157130261Y-102583489D01*
X157130264Y-102583501D01*
X157190602Y-102729172D01*
X157190609Y-102729185D01*
X157278210Y-102860288D01*
X157278213Y-102860292D01*
X157389708Y-102971787D01*
X157389711Y-102971789D01*
X157427287Y-102996897D01*
X157472092Y-103050508D01*
X157480800Y-103119833D01*
X157450646Y-103182861D01*
X157427290Y-103203100D01*
X157389710Y-103228211D01*
X157389707Y-103228213D01*
X157278213Y-103339707D01*
X157278210Y-103339711D01*
X157190609Y-103470814D01*
X157190602Y-103470827D01*
X157130264Y-103616498D01*
X157130261Y-103616510D01*
X157099500Y-103771153D01*
X157099500Y-103928846D01*
X157130261Y-104083489D01*
X157130264Y-104083501D01*
X157190602Y-104229172D01*
X157190609Y-104229185D01*
X157278210Y-104360288D01*
X157278213Y-104360292D01*
X157389707Y-104471786D01*
X157389711Y-104471789D01*
X157520814Y-104559390D01*
X157520827Y-104559397D01*
X157658683Y-104616498D01*
X157666503Y-104619737D01*
X157772479Y-104640817D01*
X157821153Y-104650499D01*
X157821156Y-104650500D01*
X157821158Y-104650500D01*
X157978844Y-104650500D01*
X157978845Y-104650499D01*
X158133497Y-104619737D01*
X158279179Y-104559394D01*
X158331110Y-104524694D01*
X158397785Y-104503816D01*
X158465165Y-104522300D01*
X158468863Y-104524676D01*
X158520821Y-104559394D01*
X158520823Y-104559395D01*
X158520825Y-104559396D01*
X158571097Y-104580219D01*
X158666503Y-104619737D01*
X158772479Y-104640817D01*
X158821153Y-104650499D01*
X158821156Y-104650500D01*
X158821158Y-104650500D01*
X158978844Y-104650500D01*
X158978845Y-104650499D01*
X159133497Y-104619737D01*
X159279179Y-104559394D01*
X159410289Y-104471789D01*
X159521789Y-104360289D01*
X159609394Y-104229179D01*
X159669737Y-104083497D01*
X159700500Y-103928842D01*
X159700500Y-103771158D01*
X159700500Y-103771155D01*
X159700499Y-103771153D01*
X159696950Y-103753310D01*
X159669737Y-103616503D01*
X159669735Y-103616498D01*
X159609397Y-103470827D01*
X159609390Y-103470814D01*
X159521789Y-103339711D01*
X159521786Y-103339707D01*
X159410292Y-103228213D01*
X159410286Y-103228208D01*
X159372710Y-103203100D01*
X159327905Y-103149487D01*
X159319199Y-103080162D01*
X159349355Y-103017135D01*
X159372705Y-102996901D01*
X159410289Y-102971789D01*
X159508114Y-102873964D01*
X160459890Y-102873964D01*
X160459890Y-103031657D01*
X160490651Y-103186300D01*
X160490654Y-103186312D01*
X160550992Y-103331983D01*
X160550999Y-103331996D01*
X160638600Y-103463099D01*
X160638603Y-103463103D01*
X160750097Y-103574597D01*
X160750101Y-103574600D01*
X160881204Y-103662201D01*
X160881217Y-103662208D01*
X161005614Y-103713734D01*
X161026893Y-103722548D01*
X161171634Y-103751339D01*
X161181543Y-103753310D01*
X161181546Y-103753311D01*
X161181548Y-103753311D01*
X161339234Y-103753311D01*
X161339235Y-103753310D01*
X161493887Y-103722548D01*
X161606556Y-103675878D01*
X161639562Y-103662208D01*
X161639562Y-103662207D01*
X161639569Y-103662205D01*
X161770679Y-103574600D01*
X161882179Y-103463100D01*
X161969784Y-103331990D01*
X162030127Y-103186308D01*
X162060890Y-103031653D01*
X162060890Y-102873969D01*
X162060890Y-102873966D01*
X162060889Y-102873964D01*
X162042251Y-102780264D01*
X162030127Y-102719314D01*
X161985128Y-102610676D01*
X161984619Y-102609448D01*
X165999500Y-102609448D01*
X165999500Y-103490551D01*
X166027829Y-103669410D01*
X166083787Y-103841636D01*
X166083788Y-103841639D01*
X166128393Y-103929179D01*
X166153677Y-103978802D01*
X166166006Y-104002997D01*
X166272441Y-104149494D01*
X166272445Y-104149499D01*
X166400500Y-104277554D01*
X166400505Y-104277558D01*
X166514376Y-104360289D01*
X166547006Y-104383996D01*
X166652484Y-104437740D01*
X166708360Y-104466211D01*
X166708363Y-104466212D01*
X166794476Y-104494191D01*
X166880591Y-104522171D01*
X166963429Y-104535291D01*
X167059449Y-104550500D01*
X167059454Y-104550500D01*
X167240551Y-104550500D01*
X167327259Y-104536765D01*
X167419409Y-104522171D01*
X167591639Y-104466211D01*
X167752994Y-104383996D01*
X167899501Y-104277553D01*
X168027553Y-104149501D01*
X168133996Y-104002994D01*
X168216211Y-103841639D01*
X168272171Y-103669409D01*
X168290730Y-103552234D01*
X168300500Y-103490551D01*
X168300500Y-102609448D01*
X171049500Y-102609448D01*
X171049500Y-103490551D01*
X171077829Y-103669410D01*
X171133787Y-103841636D01*
X171133788Y-103841639D01*
X171178393Y-103929179D01*
X171203677Y-103978802D01*
X171216006Y-104002997D01*
X171322441Y-104149494D01*
X171322445Y-104149499D01*
X171450500Y-104277554D01*
X171450505Y-104277558D01*
X171564376Y-104360289D01*
X171597006Y-104383996D01*
X171702484Y-104437740D01*
X171758360Y-104466211D01*
X171758363Y-104466212D01*
X171844476Y-104494191D01*
X171930591Y-104522171D01*
X172013429Y-104535291D01*
X172109449Y-104550500D01*
X172109454Y-104550500D01*
X172290551Y-104550500D01*
X172377259Y-104536765D01*
X172469409Y-104522171D01*
X172641639Y-104466211D01*
X172802994Y-104383996D01*
X172949501Y-104277553D01*
X173037319Y-104189735D01*
X173098642Y-104156250D01*
X173168334Y-104161234D01*
X173212681Y-104189735D01*
X173300500Y-104277554D01*
X173300505Y-104277558D01*
X173414376Y-104360289D01*
X173447006Y-104383996D01*
X173552484Y-104437740D01*
X173608360Y-104466211D01*
X173608363Y-104466212D01*
X173694476Y-104494191D01*
X173780591Y-104522171D01*
X173863429Y-104535291D01*
X173959449Y-104550500D01*
X173959454Y-104550500D01*
X174140551Y-104550500D01*
X174227259Y-104536765D01*
X174319409Y-104522171D01*
X174491639Y-104466211D01*
X174652994Y-104383996D01*
X174799501Y-104277553D01*
X174927553Y-104149501D01*
X175033996Y-104002994D01*
X175116211Y-103841639D01*
X175172171Y-103669409D01*
X175190730Y-103552234D01*
X175200500Y-103490551D01*
X175200500Y-102609448D01*
X175184019Y-102505397D01*
X175172171Y-102430591D01*
X175139819Y-102331021D01*
X175116212Y-102258363D01*
X175116211Y-102258360D01*
X175084773Y-102196661D01*
X175033996Y-102097006D01*
X175015673Y-102071786D01*
X174927558Y-101950505D01*
X174927554Y-101950500D01*
X174799499Y-101822445D01*
X174799494Y-101822441D01*
X174652997Y-101716006D01*
X174652996Y-101716005D01*
X174652994Y-101716004D01*
X174577815Y-101677698D01*
X174491639Y-101633788D01*
X174491636Y-101633787D01*
X174319410Y-101577829D01*
X174140551Y-101549500D01*
X174140546Y-101549500D01*
X173959454Y-101549500D01*
X173959449Y-101549500D01*
X173780589Y-101577829D01*
X173608363Y-101633787D01*
X173608360Y-101633788D01*
X173447002Y-101716006D01*
X173300505Y-101822441D01*
X173300500Y-101822445D01*
X173212681Y-101910265D01*
X173151358Y-101943750D01*
X173081666Y-101938766D01*
X173037319Y-101910265D01*
X172949499Y-101822445D01*
X172949494Y-101822441D01*
X172802997Y-101716006D01*
X172802996Y-101716005D01*
X172802994Y-101716004D01*
X172727815Y-101677698D01*
X172641639Y-101633788D01*
X172641636Y-101633787D01*
X172469410Y-101577829D01*
X172290551Y-101549500D01*
X172290546Y-101549500D01*
X172109454Y-101549500D01*
X172109449Y-101549500D01*
X171930589Y-101577829D01*
X171758363Y-101633787D01*
X171758360Y-101633788D01*
X171597002Y-101716006D01*
X171450505Y-101822441D01*
X171450500Y-101822445D01*
X171322445Y-101950500D01*
X171322441Y-101950505D01*
X171216006Y-102097002D01*
X171133788Y-102258360D01*
X171133787Y-102258363D01*
X171077829Y-102430589D01*
X171049500Y-102609448D01*
X168300500Y-102609448D01*
X168284019Y-102505397D01*
X168272171Y-102430591D01*
X168239819Y-102331021D01*
X168216212Y-102258363D01*
X168216211Y-102258360D01*
X168184773Y-102196661D01*
X168133996Y-102097006D01*
X168115673Y-102071786D01*
X168027558Y-101950505D01*
X168027554Y-101950500D01*
X167899499Y-101822445D01*
X167899494Y-101822441D01*
X167752997Y-101716006D01*
X167752996Y-101716005D01*
X167752994Y-101716004D01*
X167677815Y-101677698D01*
X167591639Y-101633788D01*
X167591636Y-101633787D01*
X167419410Y-101577829D01*
X167240551Y-101549500D01*
X167240546Y-101549500D01*
X167059454Y-101549500D01*
X167059449Y-101549500D01*
X166880589Y-101577829D01*
X166708363Y-101633787D01*
X166708360Y-101633788D01*
X166547002Y-101716006D01*
X166400505Y-101822441D01*
X166400500Y-101822445D01*
X166272445Y-101950500D01*
X166272441Y-101950505D01*
X166166006Y-102097002D01*
X166083788Y-102258360D01*
X166083787Y-102258363D01*
X166027829Y-102430589D01*
X165999500Y-102609448D01*
X161984619Y-102609448D01*
X161969787Y-102573637D01*
X161969780Y-102573625D01*
X161882179Y-102442522D01*
X161882176Y-102442518D01*
X161847684Y-102408026D01*
X161814199Y-102346703D01*
X161819183Y-102277011D01*
X161861055Y-102221078D01*
X161926519Y-102196661D01*
X161982816Y-102205783D01*
X162016503Y-102219737D01*
X162135550Y-102243417D01*
X162171153Y-102250499D01*
X162171156Y-102250500D01*
X162171158Y-102250500D01*
X162328844Y-102250500D01*
X162328845Y-102250499D01*
X162483497Y-102219737D01*
X162629179Y-102159394D01*
X162760289Y-102071789D01*
X162871789Y-101960289D01*
X162959394Y-101829179D01*
X162962183Y-101822447D01*
X162980102Y-101779185D01*
X163019737Y-101683497D01*
X163050500Y-101528842D01*
X163050500Y-101371158D01*
X163050500Y-101371155D01*
X163050499Y-101371153D01*
X163042034Y-101328596D01*
X163019737Y-101216503D01*
X163001730Y-101173029D01*
X162959397Y-101070827D01*
X162959390Y-101070814D01*
X162928969Y-101025286D01*
X162908091Y-100958609D01*
X162926575Y-100891228D01*
X162978554Y-100844538D01*
X163007873Y-100834779D01*
X163083497Y-100819737D01*
X163229179Y-100759394D01*
X163360289Y-100671789D01*
X163471789Y-100560289D01*
X163559394Y-100429179D01*
X163619737Y-100283497D01*
X163650500Y-100128842D01*
X163650500Y-99971158D01*
X163650500Y-99971155D01*
X163650499Y-99971153D01*
X163633566Y-99886027D01*
X163619737Y-99816503D01*
X163594226Y-99754914D01*
X163559397Y-99670827D01*
X163559390Y-99670814D01*
X163471789Y-99539711D01*
X163471786Y-99539707D01*
X163360292Y-99428213D01*
X163360288Y-99428210D01*
X163229185Y-99340609D01*
X163229172Y-99340602D01*
X163083501Y-99280264D01*
X163083489Y-99280261D01*
X162928845Y-99249500D01*
X162928842Y-99249500D01*
X162771158Y-99249500D01*
X162771155Y-99249500D01*
X162616510Y-99280261D01*
X162616498Y-99280264D01*
X162470827Y-99340602D01*
X162470814Y-99340609D01*
X162339711Y-99428210D01*
X162339707Y-99428213D01*
X162228213Y-99539707D01*
X162228210Y-99539711D01*
X162140609Y-99670814D01*
X162140602Y-99670827D01*
X162080264Y-99816498D01*
X162080261Y-99816510D01*
X162049500Y-99971153D01*
X162049500Y-100128846D01*
X162080261Y-100283489D01*
X162080264Y-100283501D01*
X162140602Y-100429172D01*
X162140612Y-100429190D01*
X162171030Y-100474714D01*
X162191908Y-100541391D01*
X162173423Y-100608771D01*
X162121444Y-100655461D01*
X162092120Y-100665221D01*
X162016508Y-100680261D01*
X162016498Y-100680264D01*
X161870827Y-100740602D01*
X161870814Y-100740609D01*
X161739711Y-100828210D01*
X161739707Y-100828213D01*
X161628213Y-100939707D01*
X161628210Y-100939711D01*
X161540609Y-101070814D01*
X161540602Y-101070827D01*
X161480264Y-101216498D01*
X161480261Y-101216510D01*
X161449500Y-101371153D01*
X161449500Y-101528846D01*
X161480261Y-101683489D01*
X161480264Y-101683501D01*
X161540602Y-101829172D01*
X161540609Y-101829185D01*
X161628210Y-101960288D01*
X161628213Y-101960292D01*
X161662705Y-101994784D01*
X161696190Y-102056107D01*
X161691206Y-102125799D01*
X161649334Y-102181732D01*
X161583870Y-102206149D01*
X161527573Y-102197027D01*
X161521469Y-102194499D01*
X161493887Y-102183074D01*
X161493883Y-102183073D01*
X161493879Y-102183072D01*
X161339235Y-102152311D01*
X161339232Y-102152311D01*
X161181548Y-102152311D01*
X161181545Y-102152311D01*
X161026900Y-102183072D01*
X161026888Y-102183075D01*
X160881217Y-102243413D01*
X160881204Y-102243420D01*
X160750101Y-102331021D01*
X160750097Y-102331024D01*
X160638603Y-102442518D01*
X160638600Y-102442522D01*
X160550999Y-102573625D01*
X160550992Y-102573638D01*
X160490654Y-102719309D01*
X160490651Y-102719321D01*
X160459890Y-102873964D01*
X159508114Y-102873964D01*
X159521789Y-102860289D01*
X159547516Y-102821786D01*
X159562751Y-102798986D01*
X159609390Y-102729185D01*
X159609390Y-102729184D01*
X159609394Y-102729179D01*
X159669737Y-102583497D01*
X159700500Y-102428842D01*
X159700500Y-102271158D01*
X159700500Y-102271155D01*
X159700499Y-102271153D01*
X159697955Y-102258363D01*
X159669737Y-102116503D01*
X159661661Y-102097006D01*
X159609397Y-101970827D01*
X159609390Y-101970814D01*
X159521789Y-101839711D01*
X159521786Y-101839707D01*
X159410292Y-101728213D01*
X159410288Y-101728210D01*
X159279185Y-101640609D01*
X159279172Y-101640602D01*
X159133501Y-101580264D01*
X159133489Y-101580261D01*
X158978845Y-101549500D01*
X158978842Y-101549500D01*
X158821158Y-101549500D01*
X158821155Y-101549500D01*
X158666510Y-101580261D01*
X158666498Y-101580264D01*
X158520827Y-101640602D01*
X158520814Y-101640609D01*
X158468891Y-101675304D01*
X158402214Y-101696182D01*
X158334833Y-101677698D01*
X158331109Y-101675304D01*
X158279185Y-101640609D01*
X158279172Y-101640602D01*
X158133501Y-101580264D01*
X158133489Y-101580261D01*
X157978845Y-101549500D01*
X157978842Y-101549500D01*
X157821158Y-101549500D01*
X157821155Y-101549500D01*
X157666510Y-101580261D01*
X157666498Y-101580264D01*
X157520827Y-101640602D01*
X157520814Y-101640609D01*
X157389711Y-101728210D01*
X157389707Y-101728213D01*
X157278213Y-101839707D01*
X157278210Y-101839711D01*
X157190609Y-101970814D01*
X157190602Y-101970827D01*
X157130264Y-102116498D01*
X157130261Y-102116510D01*
X157099500Y-102271153D01*
X156360925Y-102271153D01*
X156407085Y-102224993D01*
X156454694Y-102177385D01*
X156471786Y-102160292D01*
X156471789Y-102160289D01*
X156559394Y-102029179D01*
X156619737Y-101883497D01*
X156650500Y-101728842D01*
X156650500Y-101571158D01*
X156650500Y-101571155D01*
X156650499Y-101571153D01*
X156646192Y-101549500D01*
X156619737Y-101416503D01*
X156608990Y-101390557D01*
X156559397Y-101270827D01*
X156559390Y-101270814D01*
X156471789Y-101139711D01*
X156471786Y-101139707D01*
X156360292Y-101028213D01*
X156360288Y-101028210D01*
X156229185Y-100940609D01*
X156229172Y-100940602D01*
X156083501Y-100880264D01*
X156083489Y-100880261D01*
X155928845Y-100849500D01*
X155928842Y-100849500D01*
X155771158Y-100849500D01*
X155771155Y-100849500D01*
X155616510Y-100880261D01*
X155616498Y-100880264D01*
X155470827Y-100940602D01*
X155470814Y-100940609D01*
X155339711Y-101028210D01*
X155339707Y-101028213D01*
X155228213Y-101139707D01*
X155228206Y-101139716D01*
X155221545Y-101149684D01*
X155167930Y-101194485D01*
X155098604Y-101203188D01*
X155035579Y-101173029D01*
X155003887Y-101128238D01*
X154959397Y-101020826D01*
X154959390Y-101020814D01*
X154871789Y-100889711D01*
X154871786Y-100889707D01*
X154760292Y-100778213D01*
X154760288Y-100778210D01*
X154629185Y-100690609D01*
X154629172Y-100690602D01*
X154483501Y-100630264D01*
X154483489Y-100630261D01*
X154328845Y-100599500D01*
X154328842Y-100599500D01*
X154171158Y-100599500D01*
X154171155Y-100599500D01*
X154016510Y-100630261D01*
X154016498Y-100630264D01*
X153870827Y-100690602D01*
X153870814Y-100690609D01*
X153739711Y-100778210D01*
X153739707Y-100778213D01*
X153628213Y-100889707D01*
X153628210Y-100889711D01*
X153540609Y-101020814D01*
X153540602Y-101020827D01*
X153480264Y-101166498D01*
X153480261Y-101166510D01*
X153449500Y-101321153D01*
X141315662Y-101321153D01*
X141308731Y-101299693D01*
X141292184Y-101216510D01*
X141284805Y-101179414D01*
X141291032Y-101109824D01*
X141303314Y-101086340D01*
X141366157Y-100992291D01*
X141426500Y-100846609D01*
X141457263Y-100691954D01*
X141457263Y-100534270D01*
X141457263Y-100534267D01*
X141457262Y-100534265D01*
X141436359Y-100429179D01*
X141426500Y-100379615D01*
X141426498Y-100379610D01*
X141366160Y-100233939D01*
X141366153Y-100233926D01*
X141278552Y-100102823D01*
X141278549Y-100102819D01*
X141167055Y-99991325D01*
X141167051Y-99991322D01*
X141035948Y-99903721D01*
X141035935Y-99903714D01*
X140890264Y-99843376D01*
X140890252Y-99843373D01*
X140735608Y-99812612D01*
X140735605Y-99812612D01*
X140577921Y-99812612D01*
X140577918Y-99812612D01*
X140423273Y-99843373D01*
X140423261Y-99843376D01*
X140277590Y-99903714D01*
X140277572Y-99903724D01*
X140194668Y-99959119D01*
X140127991Y-99979997D01*
X140060611Y-99961512D01*
X140056888Y-99959120D01*
X140029183Y-99940608D01*
X140029172Y-99940602D01*
X139883501Y-99880264D01*
X139883489Y-99880261D01*
X139728845Y-99849500D01*
X139728842Y-99849500D01*
X139571158Y-99849500D01*
X139571155Y-99849500D01*
X139416508Y-99880261D01*
X139413180Y-99881271D01*
X139411351Y-99881287D01*
X139410528Y-99881451D01*
X139410496Y-99881294D01*
X139343313Y-99881892D01*
X139284201Y-99844642D01*
X139254612Y-99781347D01*
X139262627Y-99715157D01*
X139298240Y-99629179D01*
X139306502Y-99609232D01*
X139337265Y-99454577D01*
X139337265Y-99296893D01*
X139337265Y-99296890D01*
X139337264Y-99296888D01*
X139328037Y-99250500D01*
X139306502Y-99142238D01*
X139306500Y-99142233D01*
X139246162Y-98996562D01*
X139246155Y-98996549D01*
X139158554Y-98865446D01*
X139158551Y-98865442D01*
X139047057Y-98753948D01*
X139047053Y-98753945D01*
X138915950Y-98666344D01*
X138915937Y-98666337D01*
X138770266Y-98605999D01*
X138770254Y-98605996D01*
X138615610Y-98575235D01*
X138615607Y-98575235D01*
X138457923Y-98575235D01*
X138457920Y-98575235D01*
X138303275Y-98605996D01*
X138303263Y-98605999D01*
X138157592Y-98666337D01*
X138157579Y-98666344D01*
X138026476Y-98753945D01*
X138026472Y-98753948D01*
X137914978Y-98865442D01*
X137914975Y-98865446D01*
X137827374Y-98996549D01*
X137827367Y-98996562D01*
X137767029Y-99142233D01*
X137767026Y-99142245D01*
X137736265Y-99296888D01*
X135250500Y-99296888D01*
X135250500Y-99171158D01*
X135250500Y-99171155D01*
X135250499Y-99171153D01*
X135230734Y-99071789D01*
X135219737Y-99016503D01*
X135219735Y-99016498D01*
X135159397Y-98870827D01*
X135159390Y-98870814D01*
X135071789Y-98739711D01*
X135071786Y-98739707D01*
X134960292Y-98628213D01*
X134960288Y-98628210D01*
X134829185Y-98540609D01*
X134829172Y-98540602D01*
X134683501Y-98480264D01*
X134683489Y-98480261D01*
X134528845Y-98449500D01*
X134528842Y-98449500D01*
X134371158Y-98449500D01*
X134371155Y-98449500D01*
X134216510Y-98480261D01*
X134216498Y-98480264D01*
X134070827Y-98540602D01*
X134070814Y-98540609D01*
X133939711Y-98628210D01*
X133939707Y-98628213D01*
X133828213Y-98739707D01*
X133828210Y-98739711D01*
X133740609Y-98870814D01*
X133740602Y-98870827D01*
X133680264Y-99016498D01*
X133680261Y-99016510D01*
X133649500Y-99171153D01*
X117950500Y-99171153D01*
X117950500Y-96121153D01*
X128399500Y-96121153D01*
X128399500Y-96278846D01*
X128430261Y-96433489D01*
X128430264Y-96433501D01*
X128490602Y-96579172D01*
X128490609Y-96579185D01*
X128525304Y-96631109D01*
X128546182Y-96697786D01*
X128527698Y-96765167D01*
X128525304Y-96768891D01*
X128490609Y-96820814D01*
X128490602Y-96820827D01*
X128430264Y-96966498D01*
X128430261Y-96966510D01*
X128399500Y-97121153D01*
X128399500Y-97278846D01*
X128430261Y-97433489D01*
X128430264Y-97433501D01*
X128490602Y-97579172D01*
X128490609Y-97579185D01*
X128525304Y-97631109D01*
X128546182Y-97697786D01*
X128527698Y-97765167D01*
X128525304Y-97768891D01*
X128490609Y-97820814D01*
X128490602Y-97820827D01*
X128430264Y-97966498D01*
X128430261Y-97966510D01*
X128399500Y-98121153D01*
X128399500Y-98278846D01*
X128430261Y-98433489D01*
X128430264Y-98433501D01*
X128490602Y-98579172D01*
X128490609Y-98579185D01*
X128578210Y-98710288D01*
X128578213Y-98710292D01*
X128689707Y-98821786D01*
X128689711Y-98821789D01*
X128820814Y-98909390D01*
X128820827Y-98909397D01*
X128966498Y-98969735D01*
X128966503Y-98969737D01*
X129121153Y-99000499D01*
X129121156Y-99000500D01*
X129121158Y-99000500D01*
X129278844Y-99000500D01*
X129278845Y-99000499D01*
X129433497Y-98969737D01*
X129579179Y-98909394D01*
X129710289Y-98821789D01*
X129821789Y-98710289D01*
X129909394Y-98579179D01*
X129969737Y-98433497D01*
X130000500Y-98278842D01*
X130000500Y-98121158D01*
X130000500Y-98121155D01*
X130000499Y-98121153D01*
X129982204Y-98029179D01*
X129969737Y-97966503D01*
X129969735Y-97966498D01*
X129909396Y-97820825D01*
X129909394Y-97820822D01*
X129909394Y-97820821D01*
X129874694Y-97768889D01*
X129853816Y-97702215D01*
X129872300Y-97634835D01*
X129874676Y-97631136D01*
X129909394Y-97579179D01*
X129969737Y-97433497D01*
X130000500Y-97278842D01*
X130000500Y-97121158D01*
X130000500Y-97121155D01*
X130000499Y-97121153D01*
X129984298Y-97039707D01*
X129969737Y-96966503D01*
X129967163Y-96960288D01*
X129909396Y-96820825D01*
X129909394Y-96820822D01*
X129909394Y-96820821D01*
X129874694Y-96768889D01*
X129853816Y-96702215D01*
X129872300Y-96634835D01*
X129874676Y-96631136D01*
X129909394Y-96579179D01*
X129911572Y-96573920D01*
X139599499Y-96573920D01*
X139628340Y-96718907D01*
X139628343Y-96718917D01*
X139673339Y-96827548D01*
X139680808Y-96897017D01*
X139673339Y-96922452D01*
X139628343Y-97031082D01*
X139628340Y-97031092D01*
X139599500Y-97176079D01*
X139599500Y-97176082D01*
X139599500Y-97323918D01*
X139599500Y-97323920D01*
X139599499Y-97323920D01*
X139628340Y-97468907D01*
X139628343Y-97468917D01*
X139673339Y-97577548D01*
X139680808Y-97647017D01*
X139673339Y-97672452D01*
X139628343Y-97781082D01*
X139628340Y-97781092D01*
X139599500Y-97926079D01*
X139599500Y-97926082D01*
X139599500Y-98073918D01*
X139599500Y-98073920D01*
X139599499Y-98073920D01*
X139628340Y-98218907D01*
X139628343Y-98218917D01*
X139684912Y-98355488D01*
X139684919Y-98355501D01*
X139767048Y-98478415D01*
X139767051Y-98478419D01*
X139871580Y-98582948D01*
X139871584Y-98582951D01*
X139994498Y-98665080D01*
X139994511Y-98665087D01*
X140103647Y-98710292D01*
X140131087Y-98721658D01*
X140131091Y-98721658D01*
X140131092Y-98721659D01*
X140276079Y-98750500D01*
X140276082Y-98750500D01*
X140423920Y-98750500D01*
X140521462Y-98731096D01*
X140568913Y-98721658D01*
X140652549Y-98687014D01*
X140722016Y-98679546D01*
X140747447Y-98687013D01*
X140831087Y-98721658D01*
X140831091Y-98721658D01*
X140831092Y-98721659D01*
X140976079Y-98750500D01*
X140976082Y-98750500D01*
X141123920Y-98750500D01*
X141221462Y-98731096D01*
X141268913Y-98721658D01*
X141402453Y-98666344D01*
X141405488Y-98665087D01*
X141405488Y-98665086D01*
X141405495Y-98665084D01*
X141528416Y-98582951D01*
X141632951Y-98478416D01*
X141715084Y-98355495D01*
X141771658Y-98218913D01*
X141800500Y-98073918D01*
X141800500Y-97926082D01*
X141800500Y-97926079D01*
X141771659Y-97781092D01*
X141771658Y-97781091D01*
X141771658Y-97781087D01*
X141726659Y-97672451D01*
X141719191Y-97602984D01*
X141726660Y-97577547D01*
X141771658Y-97468913D01*
X141782084Y-97416498D01*
X141800500Y-97323920D01*
X141800500Y-97176079D01*
X141771659Y-97031092D01*
X141771658Y-97031091D01*
X141771658Y-97031087D01*
X141726659Y-96922451D01*
X141719191Y-96852984D01*
X141726660Y-96827547D01*
X141727839Y-96824701D01*
X141771658Y-96718913D01*
X141781096Y-96671462D01*
X141800500Y-96573920D01*
X141800500Y-96426079D01*
X141771659Y-96281092D01*
X141771658Y-96281091D01*
X141771658Y-96281087D01*
X141767807Y-96271789D01*
X141715087Y-96144511D01*
X141715080Y-96144498D01*
X141632951Y-96021584D01*
X141632948Y-96021580D01*
X141528419Y-95917051D01*
X141528415Y-95917048D01*
X141405501Y-95834919D01*
X141405488Y-95834912D01*
X141268917Y-95778343D01*
X141268907Y-95778340D01*
X141123920Y-95749500D01*
X141123918Y-95749500D01*
X140976082Y-95749500D01*
X140976080Y-95749500D01*
X140831093Y-95778340D01*
X140831085Y-95778342D01*
X140747452Y-95812984D01*
X140677982Y-95820453D01*
X140652548Y-95812984D01*
X140568914Y-95778342D01*
X140568906Y-95778340D01*
X140423920Y-95749500D01*
X140423918Y-95749500D01*
X140276082Y-95749500D01*
X140276080Y-95749500D01*
X140131092Y-95778340D01*
X140131082Y-95778343D01*
X139994511Y-95834912D01*
X139994498Y-95834919D01*
X139871584Y-95917048D01*
X139871580Y-95917051D01*
X139767051Y-96021580D01*
X139767048Y-96021584D01*
X139684919Y-96144498D01*
X139684912Y-96144511D01*
X139628343Y-96281082D01*
X139628340Y-96281092D01*
X139599500Y-96426079D01*
X139599500Y-96426082D01*
X139599500Y-96573918D01*
X139599500Y-96573920D01*
X139599499Y-96573920D01*
X129911572Y-96573920D01*
X129969737Y-96433497D01*
X129982138Y-96371153D01*
X130000500Y-96278844D01*
X130000500Y-96121155D01*
X130000499Y-96121153D01*
X129997383Y-96105488D01*
X129969737Y-95966503D01*
X129969735Y-95966498D01*
X129909397Y-95820827D01*
X129909390Y-95820814D01*
X129821789Y-95689711D01*
X129821786Y-95689707D01*
X129710292Y-95578213D01*
X129710288Y-95578210D01*
X129579185Y-95490609D01*
X129579172Y-95490602D01*
X129433501Y-95430264D01*
X129433489Y-95430261D01*
X129278845Y-95399500D01*
X129278842Y-95399500D01*
X129121158Y-95399500D01*
X129121155Y-95399500D01*
X128966510Y-95430261D01*
X128966498Y-95430264D01*
X128820827Y-95490602D01*
X128820814Y-95490609D01*
X128689711Y-95578210D01*
X128689707Y-95578213D01*
X128578213Y-95689707D01*
X128578210Y-95689711D01*
X128490609Y-95820814D01*
X128490602Y-95820827D01*
X128430264Y-95966498D01*
X128430261Y-95966510D01*
X128399500Y-96121153D01*
X117950500Y-96121153D01*
X117950500Y-94371153D01*
X141514081Y-94371153D01*
X141514081Y-94528846D01*
X141544842Y-94683489D01*
X141544845Y-94683501D01*
X141605183Y-94829172D01*
X141605190Y-94829185D01*
X141692791Y-94960288D01*
X141692794Y-94960292D01*
X141804288Y-95071786D01*
X141804292Y-95071789D01*
X141935395Y-95159390D01*
X141935408Y-95159397D01*
X142081079Y-95219735D01*
X142081084Y-95219737D01*
X142235734Y-95250499D01*
X142235737Y-95250500D01*
X142235739Y-95250500D01*
X142393425Y-95250500D01*
X142393426Y-95250499D01*
X142548078Y-95219737D01*
X142693760Y-95159394D01*
X142824870Y-95071789D01*
X142936370Y-94960289D01*
X143023975Y-94829179D01*
X143084318Y-94683497D01*
X143115081Y-94528842D01*
X143115081Y-94371158D01*
X143115081Y-94371155D01*
X143115080Y-94371153D01*
X143084318Y-94216503D01*
X143065532Y-94171150D01*
X143649500Y-94171150D01*
X143649500Y-94328843D01*
X143680261Y-94483486D01*
X143680264Y-94483498D01*
X143729575Y-94602546D01*
X143737044Y-94672015D01*
X143729575Y-94697450D01*
X143680264Y-94816498D01*
X143680261Y-94816510D01*
X143649500Y-94971153D01*
X143649500Y-95128846D01*
X143680261Y-95283489D01*
X143680264Y-95283501D01*
X143740602Y-95429172D01*
X143740609Y-95429185D01*
X143828210Y-95560288D01*
X143828213Y-95560292D01*
X143939707Y-95671786D01*
X143939711Y-95671789D01*
X144070814Y-95759390D01*
X144070827Y-95759397D01*
X144216498Y-95819735D01*
X144216503Y-95819737D01*
X144371153Y-95850499D01*
X144371156Y-95850500D01*
X144371158Y-95850500D01*
X144528844Y-95850500D01*
X144528845Y-95850499D01*
X144683497Y-95819737D01*
X144829179Y-95759394D01*
X144960289Y-95671789D01*
X145071789Y-95560289D01*
X145159394Y-95429179D01*
X145219737Y-95283497D01*
X145250500Y-95128842D01*
X145250500Y-95123920D01*
X146099499Y-95123920D01*
X146128340Y-95268906D01*
X146128342Y-95268914D01*
X146162984Y-95352548D01*
X146170453Y-95422018D01*
X146162984Y-95447452D01*
X146128342Y-95531085D01*
X146128340Y-95531093D01*
X146099500Y-95676079D01*
X146099500Y-95676082D01*
X146099500Y-95823918D01*
X146099500Y-95823920D01*
X146099499Y-95823920D01*
X146128340Y-95968907D01*
X146128343Y-95968917D01*
X146184912Y-96105488D01*
X146184919Y-96105501D01*
X146267048Y-96228415D01*
X146267051Y-96228419D01*
X146371580Y-96332948D01*
X146371584Y-96332951D01*
X146494498Y-96415080D01*
X146494511Y-96415087D01*
X146621932Y-96467866D01*
X146631087Y-96471658D01*
X146631091Y-96471658D01*
X146631092Y-96471659D01*
X146776079Y-96500500D01*
X146776082Y-96500500D01*
X146923920Y-96500500D01*
X147021462Y-96481096D01*
X147068913Y-96471658D01*
X147177548Y-96426659D01*
X147247016Y-96419191D01*
X147272449Y-96426658D01*
X147381087Y-96471658D01*
X147381091Y-96471658D01*
X147381092Y-96471659D01*
X147526079Y-96500500D01*
X147526082Y-96500500D01*
X147673920Y-96500500D01*
X147771462Y-96481096D01*
X147818913Y-96471658D01*
X147927548Y-96426659D01*
X147997016Y-96419191D01*
X148022449Y-96426658D01*
X148131087Y-96471658D01*
X148131091Y-96471658D01*
X148131092Y-96471659D01*
X148276079Y-96500500D01*
X148276082Y-96500500D01*
X148423919Y-96500500D01*
X148438673Y-96497565D01*
X148508265Y-96503791D01*
X148563442Y-96546654D01*
X148586688Y-96612543D01*
X148570621Y-96680540D01*
X148520343Y-96729057D01*
X148510320Y-96733743D01*
X148502225Y-96737096D01*
X148502218Y-96737099D01*
X148371115Y-96824700D01*
X148371111Y-96824703D01*
X148259617Y-96936197D01*
X148259614Y-96936201D01*
X148172013Y-97067304D01*
X148172006Y-97067317D01*
X148111668Y-97212988D01*
X148111665Y-97213000D01*
X148080904Y-97367643D01*
X148080904Y-97525336D01*
X148111665Y-97679979D01*
X148111668Y-97679991D01*
X148172006Y-97825662D01*
X148172013Y-97825675D01*
X148259614Y-97956778D01*
X148259617Y-97956782D01*
X148371111Y-98068276D01*
X148371115Y-98068279D01*
X148502218Y-98155880D01*
X148502231Y-98155887D01*
X148647902Y-98216225D01*
X148647907Y-98216227D01*
X148802557Y-98246989D01*
X148802560Y-98246990D01*
X148802562Y-98246990D01*
X148960248Y-98246990D01*
X148960249Y-98246989D01*
X149114901Y-98216227D01*
X149260583Y-98155884D01*
X149391693Y-98068279D01*
X149503193Y-97956779D01*
X149590798Y-97825669D01*
X149592805Y-97820825D01*
X149614316Y-97768891D01*
X149651141Y-97679987D01*
X149661314Y-97628844D01*
X149672790Y-97571153D01*
X154249500Y-97571153D01*
X154249500Y-97728846D01*
X154280261Y-97883489D01*
X154280264Y-97883501D01*
X154340602Y-98029172D01*
X154340609Y-98029185D01*
X154428210Y-98160288D01*
X154428213Y-98160292D01*
X154539707Y-98271786D01*
X154539711Y-98271789D01*
X154670814Y-98359390D01*
X154670827Y-98359397D01*
X154816498Y-98419735D01*
X154816503Y-98419737D01*
X154966131Y-98449500D01*
X154971153Y-98450499D01*
X154971156Y-98450500D01*
X154971158Y-98450500D01*
X155128844Y-98450500D01*
X155128845Y-98450499D01*
X155283497Y-98419737D01*
X155400790Y-98371153D01*
X156249500Y-98371153D01*
X156249500Y-98528846D01*
X156280261Y-98683489D01*
X156280264Y-98683501D01*
X156340602Y-98829172D01*
X156340609Y-98829185D01*
X156428210Y-98960288D01*
X156428213Y-98960292D01*
X156539707Y-99071786D01*
X156539711Y-99071789D01*
X156670814Y-99159390D01*
X156670827Y-99159397D01*
X156816498Y-99219735D01*
X156816503Y-99219737D01*
X156966131Y-99249500D01*
X156971153Y-99250499D01*
X156971156Y-99250500D01*
X156971158Y-99250500D01*
X157128844Y-99250500D01*
X157128845Y-99250499D01*
X157283497Y-99219737D01*
X157429179Y-99159394D01*
X157560289Y-99071789D01*
X157671789Y-98960289D01*
X157759394Y-98829179D01*
X157819737Y-98683497D01*
X157850500Y-98528842D01*
X157850500Y-98371158D01*
X157850500Y-98371155D01*
X157850499Y-98371153D01*
X157830734Y-98271788D01*
X157819737Y-98216503D01*
X157794628Y-98155884D01*
X157759397Y-98070827D01*
X157759390Y-98070814D01*
X157671789Y-97939711D01*
X157671786Y-97939707D01*
X157560292Y-97828213D01*
X157560288Y-97828210D01*
X157429185Y-97740609D01*
X157429172Y-97740602D01*
X157283501Y-97680264D01*
X157283489Y-97680261D01*
X157128845Y-97649500D01*
X157128842Y-97649500D01*
X156971158Y-97649500D01*
X156971155Y-97649500D01*
X156816510Y-97680261D01*
X156816498Y-97680264D01*
X156670827Y-97740602D01*
X156670814Y-97740609D01*
X156539711Y-97828210D01*
X156539707Y-97828213D01*
X156428213Y-97939707D01*
X156428210Y-97939711D01*
X156340609Y-98070814D01*
X156340602Y-98070827D01*
X156280264Y-98216498D01*
X156280261Y-98216510D01*
X156249500Y-98371153D01*
X155400790Y-98371153D01*
X155429179Y-98359394D01*
X155560289Y-98271789D01*
X155671789Y-98160289D01*
X155759394Y-98029179D01*
X155819737Y-97883497D01*
X155850500Y-97728842D01*
X155850500Y-97571158D01*
X155850500Y-97571155D01*
X155834209Y-97489258D01*
X155834209Y-97489257D01*
X155830608Y-97471153D01*
X160549500Y-97471153D01*
X160549500Y-97628846D01*
X160580261Y-97783489D01*
X160580264Y-97783501D01*
X160640602Y-97929172D01*
X160640609Y-97929185D01*
X160728210Y-98060288D01*
X160728213Y-98060292D01*
X160839707Y-98171786D01*
X160839711Y-98171789D01*
X160970814Y-98259390D01*
X160970827Y-98259397D01*
X161116498Y-98319735D01*
X161116503Y-98319737D01*
X161271153Y-98350499D01*
X161271156Y-98350500D01*
X161271158Y-98350500D01*
X161428844Y-98350500D01*
X161428845Y-98350499D01*
X161583497Y-98319737D01*
X161729179Y-98259394D01*
X161860289Y-98171789D01*
X161971789Y-98060289D01*
X162059394Y-97929179D01*
X162119737Y-97783497D01*
X162150500Y-97628842D01*
X162150500Y-97471158D01*
X162150500Y-97471155D01*
X162150499Y-97471153D01*
X162129743Y-97366803D01*
X162135970Y-97297212D01*
X162178833Y-97242034D01*
X162227174Y-97220994D01*
X162233497Y-97219737D01*
X162379179Y-97159394D01*
X162510289Y-97071789D01*
X162621789Y-96960289D01*
X162709394Y-96829179D01*
X162712854Y-96820827D01*
X162729655Y-96780264D01*
X162769737Y-96683497D01*
X162800500Y-96528842D01*
X162800500Y-96371158D01*
X162800500Y-96371155D01*
X162800499Y-96371153D01*
X168804500Y-96371153D01*
X168804500Y-96528846D01*
X168835261Y-96683489D01*
X168835264Y-96683501D01*
X168895602Y-96829172D01*
X168895609Y-96829185D01*
X168983210Y-96960288D01*
X168983213Y-96960292D01*
X169094707Y-97071786D01*
X169094711Y-97071789D01*
X169225814Y-97159390D01*
X169225827Y-97159397D01*
X169355209Y-97212988D01*
X169371503Y-97219737D01*
X169483597Y-97242034D01*
X169526153Y-97250499D01*
X169526156Y-97250500D01*
X169526158Y-97250500D01*
X169683844Y-97250500D01*
X169683845Y-97250499D01*
X169838497Y-97219737D01*
X169956592Y-97170821D01*
X169984172Y-97159397D01*
X169984172Y-97159396D01*
X169984179Y-97159394D01*
X170115289Y-97071789D01*
X170226789Y-96960289D01*
X170314394Y-96829179D01*
X170317854Y-96820827D01*
X170334655Y-96780264D01*
X170374737Y-96683497D01*
X170405500Y-96528842D01*
X170405500Y-96371158D01*
X170405500Y-96371155D01*
X170405499Y-96371153D01*
X170397900Y-96332951D01*
X170374737Y-96216503D01*
X170328759Y-96105501D01*
X170314397Y-96070827D01*
X170314390Y-96070814D01*
X170226789Y-95939711D01*
X170226786Y-95939707D01*
X170115292Y-95828213D01*
X170115288Y-95828210D01*
X169984185Y-95740609D01*
X169984172Y-95740602D01*
X169838501Y-95680264D01*
X169838489Y-95680261D01*
X169683845Y-95649500D01*
X169683842Y-95649500D01*
X169526158Y-95649500D01*
X169526155Y-95649500D01*
X169371510Y-95680261D01*
X169371498Y-95680264D01*
X169225827Y-95740602D01*
X169225814Y-95740609D01*
X169094711Y-95828210D01*
X169094707Y-95828213D01*
X168983213Y-95939707D01*
X168983210Y-95939711D01*
X168895609Y-96070814D01*
X168895602Y-96070827D01*
X168835264Y-96216498D01*
X168835261Y-96216510D01*
X168804500Y-96371153D01*
X162800499Y-96371153D01*
X162792900Y-96332951D01*
X162769737Y-96216503D01*
X162723759Y-96105501D01*
X162709397Y-96070827D01*
X162709390Y-96070814D01*
X162621789Y-95939711D01*
X162621786Y-95939707D01*
X162510292Y-95828213D01*
X162510288Y-95828210D01*
X162379185Y-95740609D01*
X162379172Y-95740602D01*
X162233501Y-95680264D01*
X162233489Y-95680261D01*
X162078845Y-95649500D01*
X162078842Y-95649500D01*
X161921158Y-95649500D01*
X161921155Y-95649500D01*
X161766510Y-95680261D01*
X161766498Y-95680264D01*
X161620827Y-95740602D01*
X161620814Y-95740609D01*
X161489711Y-95828210D01*
X161489707Y-95828213D01*
X161378213Y-95939707D01*
X161378210Y-95939711D01*
X161290609Y-96070814D01*
X161290602Y-96070827D01*
X161230264Y-96216498D01*
X161230261Y-96216510D01*
X161199500Y-96371153D01*
X161199500Y-96528846D01*
X161220256Y-96633195D01*
X161214029Y-96702787D01*
X161171165Y-96757964D01*
X161122840Y-96779002D01*
X161116505Y-96780262D01*
X161116498Y-96780264D01*
X160970827Y-96840602D01*
X160970814Y-96840609D01*
X160839711Y-96928210D01*
X160839707Y-96928213D01*
X160728213Y-97039707D01*
X160728210Y-97039711D01*
X160640609Y-97170814D01*
X160640602Y-97170827D01*
X160580264Y-97316498D01*
X160580261Y-97316510D01*
X160549500Y-97471153D01*
X155830608Y-97471153D01*
X155819738Y-97416510D01*
X155819737Y-97416503D01*
X155799151Y-97366803D01*
X155759397Y-97270827D01*
X155759390Y-97270814D01*
X155671789Y-97139711D01*
X155671786Y-97139707D01*
X155560292Y-97028213D01*
X155560288Y-97028210D01*
X155429185Y-96940609D01*
X155429172Y-96940602D01*
X155283501Y-96880264D01*
X155283489Y-96880261D01*
X155128845Y-96849500D01*
X155128842Y-96849500D01*
X154971158Y-96849500D01*
X154971155Y-96849500D01*
X154816510Y-96880261D01*
X154816498Y-96880264D01*
X154670827Y-96940602D01*
X154670814Y-96940609D01*
X154539711Y-97028210D01*
X154539707Y-97028213D01*
X154428213Y-97139707D01*
X154428210Y-97139711D01*
X154340609Y-97270814D01*
X154340602Y-97270827D01*
X154280264Y-97416498D01*
X154280261Y-97416510D01*
X154249500Y-97571153D01*
X149672790Y-97571153D01*
X149678813Y-97540874D01*
X149678813Y-97540873D01*
X149681903Y-97525336D01*
X149681904Y-97525334D01*
X149681904Y-97367645D01*
X149681903Y-97367643D01*
X149673206Y-97323920D01*
X149651141Y-97212993D01*
X149635851Y-97176079D01*
X149590801Y-97067317D01*
X149590794Y-97067304D01*
X149503193Y-96936201D01*
X149503190Y-96936197D01*
X149391696Y-96824703D01*
X149391692Y-96824700D01*
X149260589Y-96737099D01*
X149260576Y-96737092D01*
X149114905Y-96676754D01*
X149114893Y-96676751D01*
X148960249Y-96645990D01*
X148960246Y-96645990D01*
X148802562Y-96645990D01*
X148802560Y-96645990D01*
X148778138Y-96650847D01*
X148708546Y-96644617D01*
X148653370Y-96601753D01*
X148630128Y-96535862D01*
X148646198Y-96467866D01*
X148696478Y-96419352D01*
X148704688Y-96415514D01*
X148705488Y-96415086D01*
X148705495Y-96415084D01*
X148828416Y-96332951D01*
X148932951Y-96228416D01*
X149015084Y-96105495D01*
X149071658Y-95968913D01*
X149088650Y-95883489D01*
X149100500Y-95823920D01*
X149100500Y-95771153D01*
X153599500Y-95771153D01*
X153599500Y-95928846D01*
X153630261Y-96083489D01*
X153630264Y-96083501D01*
X153690602Y-96229172D01*
X153690609Y-96229185D01*
X153778210Y-96360288D01*
X153778213Y-96360292D01*
X153889707Y-96471786D01*
X153889711Y-96471789D01*
X154020814Y-96559390D01*
X154020827Y-96559397D01*
X154123085Y-96601753D01*
X154166503Y-96619737D01*
X154298485Y-96645990D01*
X154321153Y-96650499D01*
X154321156Y-96650500D01*
X154321158Y-96650500D01*
X154478844Y-96650500D01*
X154478845Y-96650499D01*
X154633497Y-96619737D01*
X154779179Y-96559394D01*
X154910289Y-96471789D01*
X155021789Y-96360289D01*
X155109394Y-96229179D01*
X155109711Y-96228415D01*
X155154137Y-96121158D01*
X155169737Y-96083497D01*
X155200500Y-95928842D01*
X155200500Y-95771158D01*
X155200500Y-95771155D01*
X155200499Y-95771153D01*
X155200445Y-95770880D01*
X155169737Y-95616503D01*
X155159658Y-95592169D01*
X155109397Y-95470827D01*
X155109390Y-95470814D01*
X155021789Y-95339711D01*
X155021786Y-95339707D01*
X154910292Y-95228213D01*
X154910288Y-95228210D01*
X154779185Y-95140609D01*
X154779172Y-95140602D01*
X154633501Y-95080264D01*
X154633489Y-95080261D01*
X154478845Y-95049500D01*
X154478842Y-95049500D01*
X154321158Y-95049500D01*
X154321155Y-95049500D01*
X154166510Y-95080261D01*
X154166498Y-95080264D01*
X154020827Y-95140602D01*
X154020814Y-95140609D01*
X153889711Y-95228210D01*
X153889707Y-95228213D01*
X153778213Y-95339707D01*
X153778210Y-95339711D01*
X153690609Y-95470814D01*
X153690602Y-95470827D01*
X153630264Y-95616498D01*
X153630261Y-95616510D01*
X153599500Y-95771153D01*
X149100500Y-95771153D01*
X149100500Y-95676079D01*
X149071659Y-95531092D01*
X149071658Y-95531091D01*
X149071658Y-95531087D01*
X149037014Y-95447450D01*
X149029546Y-95377984D01*
X149037015Y-95352548D01*
X149071658Y-95268913D01*
X149097180Y-95140609D01*
X149100500Y-95123920D01*
X149100500Y-94976079D01*
X149071659Y-94831092D01*
X149071658Y-94831091D01*
X149071658Y-94831087D01*
X149070865Y-94829172D01*
X149015087Y-94694511D01*
X149015080Y-94694498D01*
X148932951Y-94571584D01*
X148932948Y-94571580D01*
X148828419Y-94467051D01*
X148828415Y-94467048D01*
X148705501Y-94384919D01*
X148705488Y-94384912D01*
X148568917Y-94328343D01*
X148568907Y-94328340D01*
X148423920Y-94299500D01*
X148423918Y-94299500D01*
X148276082Y-94299500D01*
X148276080Y-94299500D01*
X148131092Y-94328340D01*
X148131082Y-94328343D01*
X148022452Y-94373339D01*
X147952983Y-94380808D01*
X147927548Y-94373339D01*
X147818917Y-94328343D01*
X147818907Y-94328340D01*
X147673920Y-94299500D01*
X147673918Y-94299500D01*
X147526082Y-94299500D01*
X147526080Y-94299500D01*
X147381092Y-94328340D01*
X147381082Y-94328343D01*
X147272452Y-94373339D01*
X147202983Y-94380808D01*
X147177548Y-94373339D01*
X147068917Y-94328343D01*
X147068907Y-94328340D01*
X146923920Y-94299500D01*
X146923918Y-94299500D01*
X146776082Y-94299500D01*
X146776080Y-94299500D01*
X146631092Y-94328340D01*
X146631082Y-94328343D01*
X146494511Y-94384912D01*
X146494498Y-94384919D01*
X146371584Y-94467048D01*
X146371580Y-94467051D01*
X146267051Y-94571580D01*
X146267048Y-94571584D01*
X146184919Y-94694498D01*
X146184912Y-94694511D01*
X146128343Y-94831082D01*
X146128340Y-94831092D01*
X146099500Y-94976079D01*
X146099500Y-94976082D01*
X146099500Y-95123918D01*
X146099500Y-95123920D01*
X146099499Y-95123920D01*
X145250500Y-95123920D01*
X145250500Y-94971158D01*
X145250500Y-94971155D01*
X145250499Y-94971153D01*
X145232852Y-94882438D01*
X145219737Y-94816503D01*
X145170423Y-94697449D01*
X145162955Y-94627981D01*
X145170424Y-94602546D01*
X145219737Y-94483494D01*
X145250500Y-94328839D01*
X145250500Y-94171155D01*
X145250500Y-94171152D01*
X145250499Y-94171150D01*
X145230609Y-94071158D01*
X145219737Y-94016500D01*
X145201216Y-93971786D01*
X145159533Y-93871153D01*
X153499500Y-93871153D01*
X153499500Y-94028846D01*
X153530261Y-94183489D01*
X153530264Y-94183501D01*
X153590602Y-94329172D01*
X153590609Y-94329185D01*
X153678210Y-94460288D01*
X153678213Y-94460292D01*
X153789707Y-94571786D01*
X153789711Y-94571789D01*
X153920814Y-94659390D01*
X153920827Y-94659397D01*
X154012699Y-94697451D01*
X154066503Y-94719737D01*
X154221153Y-94750499D01*
X154221156Y-94750500D01*
X154221158Y-94750500D01*
X154378844Y-94750500D01*
X154378845Y-94750499D01*
X154533497Y-94719737D01*
X154679179Y-94659394D01*
X154810289Y-94571789D01*
X154921789Y-94460289D01*
X155009394Y-94329179D01*
X155012019Y-94322843D01*
X155023067Y-94296166D01*
X155069737Y-94183497D01*
X155092083Y-94071158D01*
X155092084Y-94071153D01*
X156499500Y-94071153D01*
X156499500Y-94228846D01*
X156530261Y-94383489D01*
X156530264Y-94383501D01*
X156590602Y-94529172D01*
X156590609Y-94529185D01*
X156678210Y-94660288D01*
X156678213Y-94660292D01*
X156789708Y-94771787D01*
X156789711Y-94771789D01*
X156827287Y-94796897D01*
X156872092Y-94850508D01*
X156880800Y-94919833D01*
X156850646Y-94982861D01*
X156827290Y-95003100D01*
X156789710Y-95028211D01*
X156789707Y-95028213D01*
X156678213Y-95139707D01*
X156678210Y-95139711D01*
X156590609Y-95270814D01*
X156590602Y-95270827D01*
X156530264Y-95416498D01*
X156530261Y-95416510D01*
X156499500Y-95571153D01*
X156499500Y-95728846D01*
X156530261Y-95883489D01*
X156530264Y-95883501D01*
X156590602Y-96029172D01*
X156590609Y-96029185D01*
X156678210Y-96160288D01*
X156678213Y-96160292D01*
X156789707Y-96271786D01*
X156789711Y-96271789D01*
X156920814Y-96359390D01*
X156920827Y-96359397D01*
X157066498Y-96419735D01*
X157066503Y-96419737D01*
X157221153Y-96450499D01*
X157221156Y-96450500D01*
X157221158Y-96450500D01*
X157378844Y-96450500D01*
X157378845Y-96450499D01*
X157533497Y-96419737D01*
X157679179Y-96359394D01*
X157731110Y-96324694D01*
X157797785Y-96303816D01*
X157865165Y-96322300D01*
X157868863Y-96324676D01*
X157920821Y-96359394D01*
X157920823Y-96359395D01*
X157920825Y-96359396D01*
X158066498Y-96419735D01*
X158066503Y-96419737D01*
X158221153Y-96450499D01*
X158221156Y-96450500D01*
X158221158Y-96450500D01*
X158378844Y-96450500D01*
X158378845Y-96450499D01*
X158533497Y-96419737D01*
X158679179Y-96359394D01*
X158810289Y-96271789D01*
X158921789Y-96160289D01*
X159009394Y-96029179D01*
X159069737Y-95883497D01*
X159100500Y-95728842D01*
X159100500Y-95571158D01*
X159100500Y-95571155D01*
X159100499Y-95571153D01*
X159098338Y-95560288D01*
X159069737Y-95416503D01*
X159037929Y-95339711D01*
X159009397Y-95270827D01*
X159009390Y-95270814D01*
X158921789Y-95139711D01*
X158921786Y-95139707D01*
X158810292Y-95028213D01*
X158810286Y-95028208D01*
X158772710Y-95003100D01*
X158751668Y-94977922D01*
X158729744Y-94953513D01*
X158729377Y-94951248D01*
X158727905Y-94949487D01*
X158723815Y-94916925D01*
X158719701Y-94891533D01*
X159729120Y-94891533D01*
X159729120Y-95049226D01*
X159759881Y-95203869D01*
X159759884Y-95203881D01*
X159820222Y-95349552D01*
X159820229Y-95349565D01*
X159907830Y-95480668D01*
X159907833Y-95480672D01*
X160019327Y-95592166D01*
X160019331Y-95592169D01*
X160150434Y-95679770D01*
X160150447Y-95679777D01*
X160268907Y-95728844D01*
X160296123Y-95740117D01*
X160450773Y-95770879D01*
X160450776Y-95770880D01*
X160450778Y-95770880D01*
X160608464Y-95770880D01*
X160608465Y-95770879D01*
X160763117Y-95740117D01*
X160884809Y-95689711D01*
X160908792Y-95679777D01*
X160908792Y-95679776D01*
X160908799Y-95679774D01*
X161039909Y-95592169D01*
X161151409Y-95480669D01*
X161239014Y-95349559D01*
X161299357Y-95203877D01*
X161330120Y-95049222D01*
X161330120Y-94920274D01*
X161349805Y-94853235D01*
X161402609Y-94807480D01*
X161471767Y-94797536D01*
X161523011Y-94817172D01*
X161586194Y-94859390D01*
X161586207Y-94859397D01*
X161725094Y-94916925D01*
X161731883Y-94919737D01*
X161836798Y-94940606D01*
X161886533Y-94950499D01*
X161886536Y-94950500D01*
X161886538Y-94950500D01*
X162044224Y-94950500D01*
X162044225Y-94950499D01*
X162198877Y-94919737D01*
X162344559Y-94859394D01*
X162475669Y-94771789D01*
X162587169Y-94660289D01*
X162674774Y-94529179D01*
X162735117Y-94383497D01*
X162765880Y-94228842D01*
X162765880Y-94071158D01*
X162765880Y-94071155D01*
X162765879Y-94071153D01*
X162759856Y-94040874D01*
X162735117Y-93916503D01*
X162716335Y-93871158D01*
X162674777Y-93770827D01*
X162674770Y-93770814D01*
X162587169Y-93639711D01*
X162587166Y-93639707D01*
X162475672Y-93528213D01*
X162475668Y-93528210D01*
X162344565Y-93440609D01*
X162344552Y-93440602D01*
X162226321Y-93391630D01*
X162219271Y-93385949D01*
X162210498Y-93383710D01*
X162192490Y-93364367D01*
X162171917Y-93347789D01*
X162169058Y-93339199D01*
X162162888Y-93332572D01*
X162158196Y-93306566D01*
X162149852Y-93281495D01*
X162151718Y-93271153D01*
X168764500Y-93271153D01*
X168764500Y-93428846D01*
X168795261Y-93583489D01*
X168795264Y-93583501D01*
X168855602Y-93729172D01*
X168855609Y-93729185D01*
X168943210Y-93860288D01*
X168943213Y-93860292D01*
X169054707Y-93971786D01*
X169054711Y-93971789D01*
X169185814Y-94059390D01*
X169185827Y-94059397D01*
X169331498Y-94119735D01*
X169331503Y-94119737D01*
X169486153Y-94150499D01*
X169486156Y-94150500D01*
X169486158Y-94150500D01*
X169643844Y-94150500D01*
X169643845Y-94150499D01*
X169798497Y-94119737D01*
X169916592Y-94070821D01*
X169944172Y-94059397D01*
X169944172Y-94059396D01*
X169944179Y-94059394D01*
X170075289Y-93971789D01*
X170186789Y-93860289D01*
X170274394Y-93729179D01*
X170334737Y-93583497D01*
X170365500Y-93428842D01*
X170365500Y-93271158D01*
X170365500Y-93271155D01*
X170365499Y-93271153D01*
X170359422Y-93240602D01*
X170334737Y-93116503D01*
X170334735Y-93116498D01*
X170274397Y-92970827D01*
X170274390Y-92970814D01*
X170186789Y-92839711D01*
X170186786Y-92839707D01*
X170075292Y-92728213D01*
X170075288Y-92728210D01*
X169944185Y-92640609D01*
X169944172Y-92640602D01*
X169798501Y-92580264D01*
X169798489Y-92580261D01*
X169643845Y-92549500D01*
X169643842Y-92549500D01*
X169486158Y-92549500D01*
X169486155Y-92549500D01*
X169331510Y-92580261D01*
X169331498Y-92580264D01*
X169185827Y-92640602D01*
X169185814Y-92640609D01*
X169054711Y-92728210D01*
X169054707Y-92728213D01*
X168943213Y-92839707D01*
X168943210Y-92839711D01*
X168855609Y-92970814D01*
X168855602Y-92970827D01*
X168795264Y-93116498D01*
X168795261Y-93116510D01*
X168764500Y-93271153D01*
X162151718Y-93271153D01*
X162151763Y-93270902D01*
X162150484Y-93263812D01*
X162159213Y-93229615D01*
X162159394Y-93229179D01*
X162219737Y-93083497D01*
X162250500Y-92928842D01*
X162250500Y-92771158D01*
X162250500Y-92771155D01*
X162250499Y-92771153D01*
X162233061Y-92683489D01*
X162219737Y-92616503D01*
X162219735Y-92616498D01*
X162159397Y-92470827D01*
X162159390Y-92470814D01*
X162071789Y-92339711D01*
X162071786Y-92339707D01*
X161960292Y-92228213D01*
X161960288Y-92228210D01*
X161829185Y-92140609D01*
X161829172Y-92140602D01*
X161683501Y-92080264D01*
X161683489Y-92080261D01*
X161528845Y-92049500D01*
X161528842Y-92049500D01*
X161371158Y-92049500D01*
X161371155Y-92049500D01*
X161216510Y-92080261D01*
X161216498Y-92080264D01*
X161070827Y-92140602D01*
X161070814Y-92140609D01*
X160939711Y-92228210D01*
X160939707Y-92228213D01*
X160828213Y-92339707D01*
X160828210Y-92339711D01*
X160740609Y-92470814D01*
X160740602Y-92470827D01*
X160680264Y-92616498D01*
X160680261Y-92616510D01*
X160649500Y-92771153D01*
X160649500Y-92928846D01*
X160680261Y-93083489D01*
X160680264Y-93083501D01*
X160740602Y-93229172D01*
X160740609Y-93229185D01*
X160828210Y-93360288D01*
X160828213Y-93360292D01*
X160939707Y-93471786D01*
X160939711Y-93471789D01*
X161070814Y-93559390D01*
X161070827Y-93559397D01*
X161189058Y-93608369D01*
X161243462Y-93652209D01*
X161265527Y-93718503D01*
X161256167Y-93770382D01*
X161195644Y-93916498D01*
X161195641Y-93916510D01*
X161164880Y-94071153D01*
X161164880Y-94200105D01*
X161145195Y-94267144D01*
X161092391Y-94312899D01*
X161023233Y-94322843D01*
X160971990Y-94303208D01*
X160908803Y-94260988D01*
X160908792Y-94260982D01*
X160763121Y-94200644D01*
X160763109Y-94200641D01*
X160608465Y-94169880D01*
X160608462Y-94169880D01*
X160450778Y-94169880D01*
X160450775Y-94169880D01*
X160296130Y-94200641D01*
X160296118Y-94200644D01*
X160150447Y-94260982D01*
X160150434Y-94260989D01*
X160019331Y-94348590D01*
X160019327Y-94348593D01*
X159907833Y-94460087D01*
X159907830Y-94460091D01*
X159820229Y-94591194D01*
X159820222Y-94591207D01*
X159759884Y-94736878D01*
X159759881Y-94736890D01*
X159729120Y-94891533D01*
X158719701Y-94891533D01*
X158718569Y-94884543D01*
X158719484Y-94882438D01*
X158719199Y-94880162D01*
X158733357Y-94850569D01*
X158746456Y-94820480D01*
X158748733Y-94818434D01*
X158749355Y-94817135D01*
X158772705Y-94796901D01*
X158810289Y-94771789D01*
X158921789Y-94660289D01*
X159009394Y-94529179D01*
X159069737Y-94383497D01*
X159100500Y-94228842D01*
X159100500Y-94071158D01*
X159100500Y-94071155D01*
X159100499Y-94071153D01*
X159094476Y-94040874D01*
X159069737Y-93916503D01*
X159050955Y-93871158D01*
X159009397Y-93770827D01*
X159009390Y-93770814D01*
X158921789Y-93639711D01*
X158921786Y-93639707D01*
X158810292Y-93528213D01*
X158810288Y-93528210D01*
X158679185Y-93440609D01*
X158679172Y-93440602D01*
X158533501Y-93380264D01*
X158533489Y-93380261D01*
X158378845Y-93349500D01*
X158378842Y-93349500D01*
X158221158Y-93349500D01*
X158221155Y-93349500D01*
X158066510Y-93380261D01*
X158066498Y-93380264D01*
X157920827Y-93440602D01*
X157920814Y-93440609D01*
X157868891Y-93475304D01*
X157802214Y-93496182D01*
X157734833Y-93477698D01*
X157731109Y-93475304D01*
X157679185Y-93440609D01*
X157679172Y-93440602D01*
X157533501Y-93380264D01*
X157533489Y-93380261D01*
X157378845Y-93349500D01*
X157378842Y-93349500D01*
X157221158Y-93349500D01*
X157221155Y-93349500D01*
X157066510Y-93380261D01*
X157066498Y-93380264D01*
X156920827Y-93440602D01*
X156920814Y-93440609D01*
X156789711Y-93528210D01*
X156789707Y-93528213D01*
X156678213Y-93639707D01*
X156678210Y-93639711D01*
X156590609Y-93770814D01*
X156590602Y-93770827D01*
X156530264Y-93916498D01*
X156530261Y-93916510D01*
X156499500Y-94071153D01*
X155092084Y-94071153D01*
X155098107Y-94040875D01*
X155098107Y-94040874D01*
X155100500Y-94028844D01*
X155100500Y-93871155D01*
X155100499Y-93871153D01*
X155080543Y-93770827D01*
X155069737Y-93716503D01*
X155069735Y-93716498D01*
X155009397Y-93570827D01*
X155009390Y-93570814D01*
X154921789Y-93439711D01*
X154921786Y-93439707D01*
X154810292Y-93328213D01*
X154810288Y-93328210D01*
X154679185Y-93240609D01*
X154679172Y-93240602D01*
X154533501Y-93180264D01*
X154533489Y-93180261D01*
X154378845Y-93149500D01*
X154378842Y-93149500D01*
X154221158Y-93149500D01*
X154221155Y-93149500D01*
X154066510Y-93180261D01*
X154066498Y-93180264D01*
X153920827Y-93240602D01*
X153920814Y-93240609D01*
X153789711Y-93328210D01*
X153789707Y-93328213D01*
X153678213Y-93439707D01*
X153678210Y-93439711D01*
X153590609Y-93570814D01*
X153590602Y-93570827D01*
X153530264Y-93716498D01*
X153530261Y-93716510D01*
X153499500Y-93871153D01*
X145159533Y-93871153D01*
X145159397Y-93870824D01*
X145159390Y-93870811D01*
X145071789Y-93739708D01*
X145071786Y-93739704D01*
X144960292Y-93628210D01*
X144960288Y-93628207D01*
X144829185Y-93540606D01*
X144829172Y-93540599D01*
X144683501Y-93480261D01*
X144683489Y-93480258D01*
X144528845Y-93449497D01*
X144528842Y-93449497D01*
X144371158Y-93449497D01*
X144371155Y-93449497D01*
X144216510Y-93480258D01*
X144216498Y-93480261D01*
X144070827Y-93540599D01*
X144070814Y-93540606D01*
X143939711Y-93628207D01*
X143939707Y-93628210D01*
X143828213Y-93739704D01*
X143828210Y-93739708D01*
X143740609Y-93870811D01*
X143740602Y-93870824D01*
X143680264Y-94016495D01*
X143680261Y-94016507D01*
X143649500Y-94171150D01*
X143065532Y-94171150D01*
X143056979Y-94150500D01*
X143023978Y-94070827D01*
X143023971Y-94070814D01*
X142936370Y-93939711D01*
X142936367Y-93939707D01*
X142824873Y-93828213D01*
X142824869Y-93828210D01*
X142693766Y-93740609D01*
X142693753Y-93740602D01*
X142548082Y-93680264D01*
X142548070Y-93680261D01*
X142393426Y-93649500D01*
X142393423Y-93649500D01*
X142235739Y-93649500D01*
X142235736Y-93649500D01*
X142081091Y-93680261D01*
X142081079Y-93680264D01*
X141935408Y-93740602D01*
X141935395Y-93740609D01*
X141804292Y-93828210D01*
X141804288Y-93828213D01*
X141692794Y-93939707D01*
X141692791Y-93939711D01*
X141605190Y-94070814D01*
X141605183Y-94070827D01*
X141544845Y-94216498D01*
X141544842Y-94216510D01*
X141514081Y-94371153D01*
X117950500Y-94371153D01*
X117950500Y-92771153D01*
X120849500Y-92771153D01*
X120849500Y-92928846D01*
X120880261Y-93083489D01*
X120880264Y-93083501D01*
X120940602Y-93229172D01*
X120940609Y-93229185D01*
X121028210Y-93360288D01*
X121028213Y-93360292D01*
X121139707Y-93471786D01*
X121139711Y-93471789D01*
X121270814Y-93559390D01*
X121270827Y-93559397D01*
X121389058Y-93608369D01*
X121416503Y-93619737D01*
X121566131Y-93649500D01*
X121571153Y-93650499D01*
X121571156Y-93650500D01*
X121571158Y-93650500D01*
X121728844Y-93650500D01*
X121728845Y-93650499D01*
X121883497Y-93619737D01*
X122001592Y-93570821D01*
X122029172Y-93559397D01*
X122029172Y-93559396D01*
X122029179Y-93559394D01*
X122160289Y-93471789D01*
X122271789Y-93360289D01*
X122359394Y-93229179D01*
X122419737Y-93083497D01*
X122442083Y-92971158D01*
X122442084Y-92971153D01*
X128049500Y-92971153D01*
X128049500Y-93128846D01*
X128080261Y-93283489D01*
X128080264Y-93283501D01*
X128140602Y-93429172D01*
X128140609Y-93429185D01*
X128228210Y-93560288D01*
X128228213Y-93560292D01*
X128339707Y-93671786D01*
X128339711Y-93671789D01*
X128470814Y-93759390D01*
X128470827Y-93759397D01*
X128616498Y-93819735D01*
X128616503Y-93819737D01*
X128771153Y-93850499D01*
X128771156Y-93850500D01*
X128771158Y-93850500D01*
X128928844Y-93850500D01*
X128928845Y-93850499D01*
X129083497Y-93819737D01*
X129201592Y-93770821D01*
X129229172Y-93759397D01*
X129229172Y-93759396D01*
X129229179Y-93759394D01*
X129360289Y-93671789D01*
X129471789Y-93560289D01*
X129559394Y-93429179D01*
X129619737Y-93283497D01*
X129650500Y-93128842D01*
X129650500Y-92971158D01*
X129650500Y-92971155D01*
X129650499Y-92971153D01*
X129644250Y-92939737D01*
X129619737Y-92816503D01*
X129600955Y-92771158D01*
X129559397Y-92670827D01*
X129559390Y-92670814D01*
X129471789Y-92539711D01*
X129471786Y-92539707D01*
X129360292Y-92428213D01*
X129360288Y-92428210D01*
X129229185Y-92340609D01*
X129229172Y-92340602D01*
X129083501Y-92280264D01*
X129083489Y-92280261D01*
X128928845Y-92249500D01*
X128928842Y-92249500D01*
X128771158Y-92249500D01*
X128771155Y-92249500D01*
X128616510Y-92280261D01*
X128616498Y-92280264D01*
X128470827Y-92340602D01*
X128470814Y-92340609D01*
X128339711Y-92428210D01*
X128339707Y-92428213D01*
X128228213Y-92539707D01*
X128228210Y-92539711D01*
X128140609Y-92670814D01*
X128140602Y-92670827D01*
X128080264Y-92816498D01*
X128080261Y-92816510D01*
X128049500Y-92971153D01*
X122442084Y-92971153D01*
X122448107Y-92940875D01*
X122448107Y-92940874D01*
X122450500Y-92928844D01*
X122450500Y-92771155D01*
X122450499Y-92771153D01*
X122433061Y-92683489D01*
X122419737Y-92616503D01*
X122419735Y-92616498D01*
X122359397Y-92470827D01*
X122359390Y-92470814D01*
X122271789Y-92339711D01*
X122271786Y-92339707D01*
X122160292Y-92228213D01*
X122160288Y-92228210D01*
X122029185Y-92140609D01*
X122029172Y-92140602D01*
X121883501Y-92080264D01*
X121883489Y-92080261D01*
X121728845Y-92049500D01*
X121728842Y-92049500D01*
X121571158Y-92049500D01*
X121571155Y-92049500D01*
X121416510Y-92080261D01*
X121416498Y-92080264D01*
X121270827Y-92140602D01*
X121270814Y-92140609D01*
X121139711Y-92228210D01*
X121139707Y-92228213D01*
X121028213Y-92339707D01*
X121028210Y-92339711D01*
X120940609Y-92470814D01*
X120940602Y-92470827D01*
X120880264Y-92616498D01*
X120880261Y-92616510D01*
X120849500Y-92771153D01*
X117950500Y-92771153D01*
X117950500Y-90771153D01*
X132649500Y-90771153D01*
X132649500Y-90928846D01*
X132680261Y-91083489D01*
X132680264Y-91083501D01*
X132729574Y-91202548D01*
X132737043Y-91272018D01*
X132729574Y-91297452D01*
X132680264Y-91416498D01*
X132680261Y-91416510D01*
X132649500Y-91571153D01*
X132649500Y-91728846D01*
X132680261Y-91883489D01*
X132680264Y-91883501D01*
X132729574Y-92002548D01*
X132737043Y-92072018D01*
X132729574Y-92097452D01*
X132680264Y-92216498D01*
X132680261Y-92216510D01*
X132649500Y-92371153D01*
X132649500Y-92528846D01*
X132680261Y-92683489D01*
X132680264Y-92683501D01*
X132740602Y-92829172D01*
X132740609Y-92829185D01*
X132828210Y-92960288D01*
X132828213Y-92960292D01*
X132939707Y-93071786D01*
X132939711Y-93071789D01*
X133070814Y-93159390D01*
X133070827Y-93159397D01*
X133211375Y-93217613D01*
X133216503Y-93219737D01*
X133371153Y-93250499D01*
X133371156Y-93250500D01*
X133371158Y-93250500D01*
X133528844Y-93250500D01*
X133528845Y-93250499D01*
X133683497Y-93219737D01*
X133829179Y-93159394D01*
X133960289Y-93071789D01*
X134071789Y-92960289D01*
X134159394Y-92829179D01*
X134219737Y-92683497D01*
X134250500Y-92528842D01*
X134250500Y-92371158D01*
X134250500Y-92371155D01*
X134250499Y-92371153D01*
X134226168Y-92248831D01*
X134226166Y-92248827D01*
X134220662Y-92221153D01*
X137599500Y-92221153D01*
X137599500Y-92378846D01*
X137630261Y-92533489D01*
X137630264Y-92533501D01*
X137690602Y-92679172D01*
X137690609Y-92679185D01*
X137778210Y-92810288D01*
X137778213Y-92810292D01*
X137889707Y-92921786D01*
X137889711Y-92921789D01*
X138020814Y-93009390D01*
X138020827Y-93009397D01*
X138120060Y-93050500D01*
X138166503Y-93069737D01*
X138321153Y-93100499D01*
X138321156Y-93100500D01*
X138321158Y-93100500D01*
X138478844Y-93100500D01*
X138478845Y-93100499D01*
X138633497Y-93069737D01*
X138779179Y-93009394D01*
X138836411Y-92971153D01*
X145846411Y-92971153D01*
X145846411Y-93128846D01*
X145877172Y-93283489D01*
X145877175Y-93283501D01*
X145937513Y-93429172D01*
X145937520Y-93429185D01*
X146025121Y-93560288D01*
X146025124Y-93560292D01*
X146136618Y-93671786D01*
X146136622Y-93671789D01*
X146267725Y-93759390D01*
X146267738Y-93759397D01*
X146413409Y-93819735D01*
X146413414Y-93819737D01*
X146568064Y-93850499D01*
X146568067Y-93850500D01*
X146568069Y-93850500D01*
X146725755Y-93850500D01*
X146725756Y-93850499D01*
X146880408Y-93819737D01*
X146998503Y-93770821D01*
X147026083Y-93759397D01*
X147026083Y-93759396D01*
X147026090Y-93759394D01*
X147157200Y-93671789D01*
X147268700Y-93560289D01*
X147356305Y-93429179D01*
X147416648Y-93283497D01*
X147447411Y-93128842D01*
X147447411Y-92971158D01*
X147447411Y-92971155D01*
X147447410Y-92971153D01*
X147441161Y-92939737D01*
X147416648Y-92816503D01*
X147397866Y-92771158D01*
X147356308Y-92670827D01*
X147356301Y-92670814D01*
X147268700Y-92539711D01*
X147268697Y-92539707D01*
X147157203Y-92428213D01*
X147157199Y-92428210D01*
X147026096Y-92340609D01*
X147026083Y-92340602D01*
X146880412Y-92280264D01*
X146880400Y-92280261D01*
X146725756Y-92249500D01*
X146725753Y-92249500D01*
X146568069Y-92249500D01*
X146568066Y-92249500D01*
X146413421Y-92280261D01*
X146413409Y-92280264D01*
X146267738Y-92340602D01*
X146267725Y-92340609D01*
X146136622Y-92428210D01*
X146136618Y-92428213D01*
X146025124Y-92539707D01*
X146025121Y-92539711D01*
X145937520Y-92670814D01*
X145937513Y-92670827D01*
X145877175Y-92816498D01*
X145877172Y-92816510D01*
X145846411Y-92971153D01*
X138836411Y-92971153D01*
X138910289Y-92921789D01*
X138910292Y-92921786D01*
X138954694Y-92877385D01*
X139021786Y-92810292D01*
X139021789Y-92810289D01*
X139109394Y-92679179D01*
X139112854Y-92670827D01*
X139130102Y-92629185D01*
X139169737Y-92533497D01*
X139200500Y-92378842D01*
X139200500Y-92221158D01*
X139200500Y-92221155D01*
X139200499Y-92221153D01*
X139178242Y-92109257D01*
X139174641Y-92091153D01*
X154270421Y-92091153D01*
X154270421Y-92248846D01*
X154301182Y-92403489D01*
X154301185Y-92403501D01*
X154361523Y-92549172D01*
X154361530Y-92549185D01*
X154449131Y-92680288D01*
X154449134Y-92680292D01*
X154560628Y-92791786D01*
X154560632Y-92791789D01*
X154691735Y-92879390D01*
X154691748Y-92879397D01*
X154837419Y-92939735D01*
X154837424Y-92939737D01*
X154992074Y-92970499D01*
X154992077Y-92970500D01*
X154992079Y-92970500D01*
X155149765Y-92970500D01*
X155149766Y-92970499D01*
X155304418Y-92939737D01*
X155450100Y-92879394D01*
X155581210Y-92791789D01*
X155692710Y-92680289D01*
X155780315Y-92549179D01*
X155840658Y-92403497D01*
X155871421Y-92248842D01*
X155871421Y-92171153D01*
X157049500Y-92171153D01*
X157049500Y-92328846D01*
X157080261Y-92483489D01*
X157080264Y-92483501D01*
X157140602Y-92629172D01*
X157140609Y-92629185D01*
X157228210Y-92760288D01*
X157228213Y-92760292D01*
X157339707Y-92871786D01*
X157339711Y-92871789D01*
X157470814Y-92959390D01*
X157470827Y-92959397D01*
X157616498Y-93019735D01*
X157616503Y-93019737D01*
X157771153Y-93050499D01*
X157771156Y-93050500D01*
X157771158Y-93050500D01*
X157928844Y-93050500D01*
X157928845Y-93050499D01*
X158083497Y-93019737D01*
X158201592Y-92970821D01*
X158229172Y-92959397D01*
X158229172Y-92959396D01*
X158229179Y-92959394D01*
X158360289Y-92871789D01*
X158471789Y-92760289D01*
X158559394Y-92629179D01*
X158619737Y-92483497D01*
X158650500Y-92328842D01*
X158650500Y-92171158D01*
X158650500Y-92171155D01*
X158650499Y-92171153D01*
X158632419Y-92080261D01*
X158619737Y-92016503D01*
X158580102Y-91920814D01*
X158559397Y-91870827D01*
X158559390Y-91870814D01*
X158471789Y-91739711D01*
X158471786Y-91739707D01*
X158360292Y-91628213D01*
X158360288Y-91628210D01*
X158229185Y-91540609D01*
X158229172Y-91540602D01*
X158083501Y-91480264D01*
X158083489Y-91480261D01*
X157928845Y-91449500D01*
X157928842Y-91449500D01*
X157771158Y-91449500D01*
X157771155Y-91449500D01*
X157616510Y-91480261D01*
X157616498Y-91480264D01*
X157470827Y-91540602D01*
X157470814Y-91540609D01*
X157339711Y-91628210D01*
X157339707Y-91628213D01*
X157228213Y-91739707D01*
X157228210Y-91739711D01*
X157140609Y-91870814D01*
X157140602Y-91870827D01*
X157080264Y-92016498D01*
X157080261Y-92016510D01*
X157049500Y-92171153D01*
X155871421Y-92171153D01*
X155871421Y-92091158D01*
X155871421Y-92091155D01*
X155871420Y-92091153D01*
X155863135Y-92049500D01*
X155840658Y-91936503D01*
X155834162Y-91920821D01*
X155780318Y-91790827D01*
X155780311Y-91790814D01*
X155692710Y-91659711D01*
X155692707Y-91659707D01*
X155581213Y-91548213D01*
X155581209Y-91548210D01*
X155450106Y-91460609D01*
X155450093Y-91460602D01*
X155304422Y-91400264D01*
X155304410Y-91400261D01*
X155149766Y-91369500D01*
X155149763Y-91369500D01*
X154992079Y-91369500D01*
X154992076Y-91369500D01*
X154837431Y-91400261D01*
X154837419Y-91400264D01*
X154691748Y-91460602D01*
X154691735Y-91460609D01*
X154560632Y-91548210D01*
X154560628Y-91548213D01*
X154449134Y-91659707D01*
X154449131Y-91659711D01*
X154361530Y-91790814D01*
X154361523Y-91790827D01*
X154301185Y-91936498D01*
X154301182Y-91936510D01*
X154270421Y-92091153D01*
X139174641Y-92091153D01*
X139169738Y-92066508D01*
X139169737Y-92066507D01*
X139169737Y-92066503D01*
X139169735Y-92066498D01*
X139109397Y-91920827D01*
X139109390Y-91920814D01*
X139021789Y-91789711D01*
X139021786Y-91789707D01*
X138910292Y-91678213D01*
X138910288Y-91678210D01*
X138779185Y-91590609D01*
X138779172Y-91590602D01*
X138633501Y-91530264D01*
X138633489Y-91530261D01*
X138478845Y-91499500D01*
X138478842Y-91499500D01*
X138321158Y-91499500D01*
X138321155Y-91499500D01*
X138166510Y-91530261D01*
X138166498Y-91530264D01*
X138020827Y-91590602D01*
X138020814Y-91590609D01*
X137889711Y-91678210D01*
X137889707Y-91678213D01*
X137778213Y-91789707D01*
X137778210Y-91789711D01*
X137690609Y-91920814D01*
X137690602Y-91920827D01*
X137630264Y-92066498D01*
X137630261Y-92066510D01*
X137599500Y-92221153D01*
X134220662Y-92221153D01*
X134219737Y-92216503D01*
X134169490Y-92095196D01*
X134168650Y-92092918D01*
X134166440Y-92060396D01*
X134162956Y-92027983D01*
X134163998Y-92024433D01*
X134163915Y-92023209D01*
X134164863Y-92021485D01*
X134170425Y-92002548D01*
X134197783Y-91936498D01*
X134219737Y-91883497D01*
X134250500Y-91728842D01*
X134250500Y-91571158D01*
X134250500Y-91571155D01*
X134250499Y-91571153D01*
X134245936Y-91548213D01*
X134219737Y-91416503D01*
X134170425Y-91297452D01*
X134162956Y-91227983D01*
X134170425Y-91202548D01*
X134219735Y-91083501D01*
X134219737Y-91083497D01*
X134250500Y-90928842D01*
X134250500Y-90771158D01*
X134250500Y-90771155D01*
X134244155Y-90739258D01*
X134244155Y-90739257D01*
X134240554Y-90721153D01*
X139499500Y-90721153D01*
X139499500Y-90878846D01*
X139530261Y-91033489D01*
X139530264Y-91033501D01*
X139590602Y-91179172D01*
X139590609Y-91179185D01*
X139678210Y-91310288D01*
X139678213Y-91310292D01*
X139789707Y-91421786D01*
X139789711Y-91421789D01*
X139920814Y-91509390D01*
X139920827Y-91509397D01*
X140014534Y-91548211D01*
X140066503Y-91569737D01*
X140221153Y-91600499D01*
X140221156Y-91600500D01*
X140221158Y-91600500D01*
X140378844Y-91600500D01*
X140378845Y-91600499D01*
X140533497Y-91569737D01*
X140679179Y-91509394D01*
X140810289Y-91421789D01*
X140921789Y-91310289D01*
X141009394Y-91179179D01*
X141069737Y-91033497D01*
X141100500Y-90878842D01*
X141100500Y-90721158D01*
X141100500Y-90721155D01*
X141100499Y-90721153D01*
X141082204Y-90629179D01*
X141069737Y-90566503D01*
X141030102Y-90470814D01*
X141009397Y-90420827D01*
X141009390Y-90420814D01*
X140921789Y-90289711D01*
X140921786Y-90289707D01*
X140810292Y-90178213D01*
X140810288Y-90178210D01*
X140799727Y-90171153D01*
X168664500Y-90171153D01*
X168664500Y-90328846D01*
X168695261Y-90483489D01*
X168695264Y-90483501D01*
X168755602Y-90629172D01*
X168755609Y-90629185D01*
X168843210Y-90760288D01*
X168843213Y-90760292D01*
X168954707Y-90871786D01*
X168954711Y-90871789D01*
X169085814Y-90959390D01*
X169085827Y-90959397D01*
X169231498Y-91019735D01*
X169231503Y-91019737D01*
X169386153Y-91050499D01*
X169386156Y-91050500D01*
X169386158Y-91050500D01*
X169543844Y-91050500D01*
X169543845Y-91050499D01*
X169698497Y-91019737D01*
X169844179Y-90959394D01*
X169975289Y-90871789D01*
X170086789Y-90760289D01*
X170174394Y-90629179D01*
X170234737Y-90483497D01*
X170265500Y-90328842D01*
X170265500Y-90171158D01*
X170265500Y-90171155D01*
X170265499Y-90171153D01*
X170259422Y-90140602D01*
X170234737Y-90016503D01*
X170227694Y-89999500D01*
X170174397Y-89870827D01*
X170174390Y-89870814D01*
X170086789Y-89739711D01*
X170086786Y-89739707D01*
X169975292Y-89628213D01*
X169975288Y-89628210D01*
X169844185Y-89540609D01*
X169844172Y-89540602D01*
X169698501Y-89480264D01*
X169698489Y-89480261D01*
X169543845Y-89449500D01*
X169543842Y-89449500D01*
X169386158Y-89449500D01*
X169386155Y-89449500D01*
X169231510Y-89480261D01*
X169231498Y-89480264D01*
X169085827Y-89540602D01*
X169085814Y-89540609D01*
X168954711Y-89628210D01*
X168954707Y-89628213D01*
X168843213Y-89739707D01*
X168843210Y-89739711D01*
X168755609Y-89870814D01*
X168755602Y-89870827D01*
X168695264Y-90016498D01*
X168695261Y-90016510D01*
X168664500Y-90171153D01*
X140799727Y-90171153D01*
X140679185Y-90090609D01*
X140679172Y-90090602D01*
X140533501Y-90030264D01*
X140533489Y-90030261D01*
X140378845Y-89999500D01*
X140378842Y-89999500D01*
X140221158Y-89999500D01*
X140221155Y-89999500D01*
X140066510Y-90030261D01*
X140066498Y-90030264D01*
X139920827Y-90090602D01*
X139920814Y-90090609D01*
X139789711Y-90178210D01*
X139789707Y-90178213D01*
X139678213Y-90289707D01*
X139678210Y-90289711D01*
X139590609Y-90420814D01*
X139590602Y-90420827D01*
X139530264Y-90566498D01*
X139530261Y-90566510D01*
X139499500Y-90721153D01*
X134240554Y-90721153D01*
X134229944Y-90667821D01*
X134219737Y-90616503D01*
X134219735Y-90616498D01*
X134159397Y-90470827D01*
X134159390Y-90470814D01*
X134071789Y-90339711D01*
X134071786Y-90339707D01*
X133960292Y-90228213D01*
X133960288Y-90228210D01*
X133829185Y-90140609D01*
X133829172Y-90140602D01*
X133683501Y-90080264D01*
X133683489Y-90080261D01*
X133528845Y-90049500D01*
X133528842Y-90049500D01*
X133371158Y-90049500D01*
X133371155Y-90049500D01*
X133216510Y-90080261D01*
X133216498Y-90080264D01*
X133070827Y-90140602D01*
X133070814Y-90140609D01*
X132939711Y-90228210D01*
X132939707Y-90228213D01*
X132828213Y-90339707D01*
X132828210Y-90339711D01*
X132740609Y-90470814D01*
X132740602Y-90470827D01*
X132680264Y-90616498D01*
X132680261Y-90616510D01*
X132649500Y-90771153D01*
X117950500Y-90771153D01*
X117950500Y-87077525D01*
X122609500Y-87077525D01*
X122609500Y-87222475D01*
X122647016Y-87362485D01*
X122647017Y-87362488D01*
X122719488Y-87488011D01*
X122719490Y-87488013D01*
X122719491Y-87488015D01*
X122821985Y-87590509D01*
X122821986Y-87590510D01*
X122821988Y-87590511D01*
X122947511Y-87662982D01*
X122947512Y-87662982D01*
X122947515Y-87662984D01*
X123087525Y-87700500D01*
X123087528Y-87700500D01*
X123232472Y-87700500D01*
X123232475Y-87700500D01*
X123372485Y-87662984D01*
X123498015Y-87590509D01*
X123600509Y-87488015D01*
X123672984Y-87362485D01*
X123710500Y-87222475D01*
X123710500Y-87077525D01*
X128389500Y-87077525D01*
X128389500Y-87222475D01*
X128427016Y-87362485D01*
X128427017Y-87362488D01*
X128499488Y-87488011D01*
X128499490Y-87488013D01*
X128499491Y-87488015D01*
X128601985Y-87590509D01*
X128601986Y-87590510D01*
X128601988Y-87590511D01*
X128727511Y-87662982D01*
X128727512Y-87662982D01*
X128727515Y-87662984D01*
X128867525Y-87700500D01*
X128867528Y-87700500D01*
X129012472Y-87700500D01*
X129012475Y-87700500D01*
X129152485Y-87662984D01*
X129278015Y-87590509D01*
X129380509Y-87488015D01*
X129447980Y-87371153D01*
X168664500Y-87371153D01*
X168664500Y-87528846D01*
X168695261Y-87683489D01*
X168695264Y-87683501D01*
X168755602Y-87829172D01*
X168755609Y-87829185D01*
X168843210Y-87960288D01*
X168843213Y-87960292D01*
X168954707Y-88071786D01*
X168954711Y-88071789D01*
X169085814Y-88159390D01*
X169085827Y-88159397D01*
X169231498Y-88219735D01*
X169231503Y-88219737D01*
X169386153Y-88250499D01*
X169386156Y-88250500D01*
X169386158Y-88250500D01*
X169543844Y-88250500D01*
X169543845Y-88250499D01*
X169698497Y-88219737D01*
X169844179Y-88159394D01*
X169975289Y-88071789D01*
X170086789Y-87960289D01*
X170174394Y-87829179D01*
X170174395Y-87829176D01*
X170174397Y-87829173D01*
X170177719Y-87821153D01*
X173699500Y-87821153D01*
X173699500Y-87978846D01*
X173730261Y-88133489D01*
X173730264Y-88133501D01*
X173790602Y-88279172D01*
X173790609Y-88279185D01*
X173878210Y-88410288D01*
X173878213Y-88410292D01*
X173989707Y-88521786D01*
X173989711Y-88521789D01*
X174120814Y-88609390D01*
X174120827Y-88609397D01*
X174266498Y-88669735D01*
X174266503Y-88669737D01*
X174421153Y-88700499D01*
X174421156Y-88700500D01*
X174421158Y-88700500D01*
X174578844Y-88700500D01*
X174578845Y-88700499D01*
X174733497Y-88669737D01*
X174879179Y-88609394D01*
X175010289Y-88521789D01*
X175121789Y-88410289D01*
X175209394Y-88279179D01*
X175269737Y-88133497D01*
X175300500Y-87978842D01*
X175300500Y-87821158D01*
X175300500Y-87821155D01*
X175300499Y-87821153D01*
X175273117Y-87683497D01*
X175269737Y-87666503D01*
X175268279Y-87662982D01*
X175209397Y-87520827D01*
X175209390Y-87520814D01*
X175121789Y-87389711D01*
X175121786Y-87389707D01*
X175010292Y-87278213D01*
X175010288Y-87278210D01*
X174879185Y-87190609D01*
X174879172Y-87190602D01*
X174733501Y-87130264D01*
X174733489Y-87130261D01*
X174578845Y-87099500D01*
X174578842Y-87099500D01*
X174421158Y-87099500D01*
X174421155Y-87099500D01*
X174266510Y-87130261D01*
X174266498Y-87130264D01*
X174120827Y-87190602D01*
X174120814Y-87190609D01*
X173989711Y-87278210D01*
X173989707Y-87278213D01*
X173878213Y-87389707D01*
X173878210Y-87389711D01*
X173790609Y-87520814D01*
X173790602Y-87520827D01*
X173730264Y-87666498D01*
X173730261Y-87666510D01*
X173699500Y-87821153D01*
X170177719Y-87821153D01*
X170199895Y-87767614D01*
X170199895Y-87767613D01*
X170234737Y-87683497D01*
X170265500Y-87528842D01*
X170265500Y-87371158D01*
X170265500Y-87371155D01*
X170265499Y-87371153D01*
X170247012Y-87278213D01*
X170234737Y-87216503D01*
X170234735Y-87216498D01*
X170174397Y-87070827D01*
X170174390Y-87070814D01*
X170086789Y-86939711D01*
X170086786Y-86939707D01*
X169975292Y-86828213D01*
X169975288Y-86828210D01*
X169844185Y-86740609D01*
X169844172Y-86740602D01*
X169698501Y-86680264D01*
X169698489Y-86680261D01*
X169543845Y-86649500D01*
X169543842Y-86649500D01*
X169386158Y-86649500D01*
X169386155Y-86649500D01*
X169231510Y-86680261D01*
X169231498Y-86680264D01*
X169085827Y-86740602D01*
X169085814Y-86740609D01*
X168954711Y-86828210D01*
X168954707Y-86828213D01*
X168843213Y-86939707D01*
X168843210Y-86939711D01*
X168755609Y-87070814D01*
X168755602Y-87070827D01*
X168695264Y-87216498D01*
X168695261Y-87216510D01*
X168664500Y-87371153D01*
X129447980Y-87371153D01*
X129452984Y-87362485D01*
X129490500Y-87222475D01*
X129490500Y-87077525D01*
X129452984Y-86937515D01*
X129389878Y-86828213D01*
X129380511Y-86811988D01*
X129380506Y-86811982D01*
X129278017Y-86709493D01*
X129278011Y-86709488D01*
X129152488Y-86637017D01*
X129152489Y-86637017D01*
X129141006Y-86633940D01*
X129012475Y-86599500D01*
X128867525Y-86599500D01*
X128738993Y-86633940D01*
X128727511Y-86637017D01*
X128601988Y-86709488D01*
X128601982Y-86709493D01*
X128499493Y-86811982D01*
X128499488Y-86811988D01*
X128427017Y-86937511D01*
X128427016Y-86937515D01*
X128389500Y-87077525D01*
X123710500Y-87077525D01*
X123672984Y-86937515D01*
X123609878Y-86828213D01*
X123600511Y-86811988D01*
X123600506Y-86811982D01*
X123498017Y-86709493D01*
X123498011Y-86709488D01*
X123372488Y-86637017D01*
X123372489Y-86637017D01*
X123361006Y-86633940D01*
X123232475Y-86599500D01*
X123087525Y-86599500D01*
X122958993Y-86633940D01*
X122947511Y-86637017D01*
X122821988Y-86709488D01*
X122821982Y-86709493D01*
X122719493Y-86811982D01*
X122719488Y-86811988D01*
X122647017Y-86937511D01*
X122647016Y-86937515D01*
X122609500Y-87077525D01*
X117950500Y-87077525D01*
X117950500Y-85637375D01*
X135249500Y-85637375D01*
X135249500Y-85795068D01*
X135280261Y-85949711D01*
X135280264Y-85949723D01*
X135340602Y-86095394D01*
X135340609Y-86095407D01*
X135428210Y-86226510D01*
X135428213Y-86226514D01*
X135539707Y-86338008D01*
X135539711Y-86338011D01*
X135670814Y-86425612D01*
X135670827Y-86425619D01*
X135816498Y-86485957D01*
X135816503Y-86485959D01*
X135971153Y-86516721D01*
X135971156Y-86516722D01*
X135971158Y-86516722D01*
X136128844Y-86516722D01*
X136128845Y-86516721D01*
X136283497Y-86485959D01*
X136429179Y-86425616D01*
X136560289Y-86338011D01*
X136671789Y-86226511D01*
X136759394Y-86095401D01*
X136819737Y-85949719D01*
X136850500Y-85795064D01*
X136850500Y-85637380D01*
X136850500Y-85637377D01*
X136850499Y-85637375D01*
X136824380Y-85506069D01*
X136819737Y-85482725D01*
X136765345Y-85351410D01*
X136759397Y-85337049D01*
X136759390Y-85337036D01*
X136705594Y-85256525D01*
X136671789Y-85205933D01*
X136671786Y-85205929D01*
X136659578Y-85193721D01*
X137862797Y-85193721D01*
X137862797Y-85351414D01*
X137893558Y-85506057D01*
X137893561Y-85506069D01*
X137953899Y-85651740D01*
X137953906Y-85651753D01*
X138041507Y-85782856D01*
X138041510Y-85782860D01*
X138153004Y-85894354D01*
X138153008Y-85894357D01*
X138284111Y-85981958D01*
X138284124Y-85981965D01*
X138429795Y-86042303D01*
X138429800Y-86042305D01*
X138584450Y-86073067D01*
X138584453Y-86073068D01*
X138584455Y-86073068D01*
X138742141Y-86073068D01*
X138742142Y-86073067D01*
X138896794Y-86042305D01*
X139042476Y-85981962D01*
X139173586Y-85894357D01*
X139285086Y-85782857D01*
X139372691Y-85651747D01*
X139433034Y-85506065D01*
X139463797Y-85351410D01*
X139463797Y-85193726D01*
X139463797Y-85193723D01*
X139463796Y-85193721D01*
X139433034Y-85039071D01*
X139419677Y-85006824D01*
X139372694Y-84893395D01*
X139372687Y-84893382D01*
X139285086Y-84762279D01*
X139285083Y-84762275D01*
X139173589Y-84650781D01*
X139173585Y-84650778D01*
X139042482Y-84563177D01*
X139042469Y-84563170D01*
X138896798Y-84502832D01*
X138896786Y-84502829D01*
X138742142Y-84472068D01*
X138742139Y-84472068D01*
X138584455Y-84472068D01*
X138584452Y-84472068D01*
X138429807Y-84502829D01*
X138429795Y-84502832D01*
X138284124Y-84563170D01*
X138284111Y-84563177D01*
X138153008Y-84650778D01*
X138153004Y-84650781D01*
X138041510Y-84762275D01*
X138041507Y-84762279D01*
X137953906Y-84893382D01*
X137953899Y-84893395D01*
X137893561Y-85039066D01*
X137893558Y-85039078D01*
X137862797Y-85193721D01*
X136659578Y-85193721D01*
X136560292Y-85094435D01*
X136560288Y-85094432D01*
X136429185Y-85006831D01*
X136429172Y-85006824D01*
X136283501Y-84946486D01*
X136283489Y-84946483D01*
X136128845Y-84915722D01*
X136128842Y-84915722D01*
X135971158Y-84915722D01*
X135971155Y-84915722D01*
X135816510Y-84946483D01*
X135816498Y-84946486D01*
X135670827Y-85006824D01*
X135670814Y-85006831D01*
X135539711Y-85094432D01*
X135539707Y-85094435D01*
X135428213Y-85205929D01*
X135428210Y-85205933D01*
X135340609Y-85337036D01*
X135340602Y-85337049D01*
X135280264Y-85482720D01*
X135280261Y-85482732D01*
X135249500Y-85637375D01*
X117950500Y-85637375D01*
X117950500Y-83571153D01*
X135249500Y-83571153D01*
X135249500Y-83728846D01*
X135280261Y-83883489D01*
X135280264Y-83883501D01*
X135340602Y-84029172D01*
X135340609Y-84029185D01*
X135428210Y-84160288D01*
X135428213Y-84160292D01*
X135539707Y-84271786D01*
X135539711Y-84271789D01*
X135670814Y-84359390D01*
X135670827Y-84359397D01*
X135816498Y-84419735D01*
X135816503Y-84419737D01*
X135971153Y-84450499D01*
X135971156Y-84450500D01*
X135971158Y-84450500D01*
X136128844Y-84450500D01*
X136128845Y-84450499D01*
X136283497Y-84419737D01*
X136429179Y-84359394D01*
X136560289Y-84271789D01*
X136671789Y-84160289D01*
X136759394Y-84029179D01*
X136819737Y-83883497D01*
X136829950Y-83832154D01*
X136862334Y-83770243D01*
X136923050Y-83735669D01*
X136992819Y-83739408D01*
X136998992Y-83741773D01*
X137066503Y-83769737D01*
X137221153Y-83800499D01*
X137221156Y-83800500D01*
X137221158Y-83800500D01*
X137378844Y-83800500D01*
X137378845Y-83800499D01*
X137533497Y-83769737D01*
X137679179Y-83709394D01*
X137810289Y-83621789D01*
X137921789Y-83510289D01*
X138009394Y-83379179D01*
X138069737Y-83233497D01*
X138074370Y-83210204D01*
X138082648Y-83168592D01*
X175823500Y-83168592D01*
X175823500Y-83331407D01*
X175855259Y-83491073D01*
X175855262Y-83491082D01*
X175917562Y-83641490D01*
X175917563Y-83641492D01*
X176008015Y-83776862D01*
X176008018Y-83776866D01*
X176123133Y-83891981D01*
X176123137Y-83891984D01*
X176258505Y-83982435D01*
X176258506Y-83982435D01*
X176258507Y-83982436D01*
X176258509Y-83982437D01*
X176358781Y-84023970D01*
X176408919Y-84044738D01*
X176408921Y-84044738D01*
X176408926Y-84044740D01*
X176568592Y-84076499D01*
X176568595Y-84076500D01*
X176568597Y-84076500D01*
X176731405Y-84076500D01*
X176731406Y-84076499D01*
X176784629Y-84065912D01*
X176891073Y-84044740D01*
X176891076Y-84044738D01*
X176891081Y-84044738D01*
X177041495Y-83982435D01*
X177176863Y-83891984D01*
X177291984Y-83776863D01*
X177382435Y-83641495D01*
X177444738Y-83491081D01*
X177476500Y-83331403D01*
X177476500Y-83168597D01*
X177476500Y-83168594D01*
X177476499Y-83168592D01*
X177444740Y-83008926D01*
X177444737Y-83008917D01*
X177435904Y-82987593D01*
X177408385Y-82921155D01*
X177382437Y-82858509D01*
X177382436Y-82858507D01*
X177320960Y-82766503D01*
X177291984Y-82723137D01*
X177291981Y-82723133D01*
X177176866Y-82608018D01*
X177176862Y-82608015D01*
X177041492Y-82517563D01*
X177041490Y-82517562D01*
X176891082Y-82455262D01*
X176891073Y-82455259D01*
X176731406Y-82423500D01*
X176731403Y-82423500D01*
X176568597Y-82423500D01*
X176568594Y-82423500D01*
X176408926Y-82455259D01*
X176408917Y-82455262D01*
X176258509Y-82517562D01*
X176258507Y-82517563D01*
X176123137Y-82608015D01*
X176123133Y-82608018D01*
X176008018Y-82723133D01*
X176008015Y-82723137D01*
X175917563Y-82858507D01*
X175917562Y-82858509D01*
X175855262Y-83008917D01*
X175855259Y-83008926D01*
X175823500Y-83168592D01*
X138082648Y-83168592D01*
X138088671Y-83138313D01*
X138088671Y-83138312D01*
X138100499Y-83078846D01*
X138100500Y-83078844D01*
X138100500Y-82921155D01*
X138100499Y-82921153D01*
X138069738Y-82766510D01*
X138069737Y-82766503D01*
X138069735Y-82766498D01*
X138009397Y-82620827D01*
X138009390Y-82620814D01*
X137921789Y-82489711D01*
X137921786Y-82489707D01*
X137810292Y-82378213D01*
X137810288Y-82378210D01*
X137679185Y-82290609D01*
X137679172Y-82290602D01*
X137533501Y-82230264D01*
X137533489Y-82230261D01*
X137378845Y-82199500D01*
X137378842Y-82199500D01*
X137221158Y-82199500D01*
X137221155Y-82199500D01*
X137066510Y-82230261D01*
X137066498Y-82230264D01*
X136920827Y-82290602D01*
X136920814Y-82290609D01*
X136789711Y-82378210D01*
X136789707Y-82378213D01*
X136678213Y-82489707D01*
X136678210Y-82489711D01*
X136590609Y-82620814D01*
X136590602Y-82620827D01*
X136530264Y-82766498D01*
X136530261Y-82766507D01*
X136520049Y-82817847D01*
X136487663Y-82879758D01*
X136426947Y-82914331D01*
X136357177Y-82910590D01*
X136350987Y-82908218D01*
X136283497Y-82880263D01*
X136283489Y-82880261D01*
X136128845Y-82849500D01*
X136128842Y-82849500D01*
X135971158Y-82849500D01*
X135971155Y-82849500D01*
X135816510Y-82880261D01*
X135816498Y-82880264D01*
X135670827Y-82940602D01*
X135670814Y-82940609D01*
X135539711Y-83028210D01*
X135539707Y-83028213D01*
X135428213Y-83139707D01*
X135428210Y-83139711D01*
X135340609Y-83270814D01*
X135340602Y-83270827D01*
X135280264Y-83416498D01*
X135280261Y-83416510D01*
X135249500Y-83571153D01*
X117950500Y-83571153D01*
X117950500Y-81474500D01*
X117970185Y-81407461D01*
X118022989Y-81361706D01*
X118074500Y-81350500D01*
X178225499Y-81350500D01*
X178292538Y-81370185D01*
G37*
%TD.AperFunction*%
%TD*%
M02*
