%TF.GenerationSoftware,KiCad,Pcbnew,10.0.1*%
%TF.CreationDate,2026-05-12T22:33:51+08:00*%
%TF.ProjectId,feather,66656174-6865-4722-9e6b-696361645f70,rev?*%
%TF.SameCoordinates,Original*%
%TF.FileFunction,Copper,L2,Inr*%
%TF.FilePolarity,Positive*%
%FSLAX46Y46*%
G04 Gerber Fmt 4.6, Leading zero omitted, Abs format (unit mm)*
G04 Created by KiCad (PCBNEW 10.0.1) date 2026-05-12 22:33:51*
%MOMM*%
%LPD*%
G01*
G04 APERTURE LIST*
%TA.AperFunction,ComponentPad*%
%ADD10O,1.300000X2.300000*%
%TD*%
%TA.AperFunction,ComponentPad*%
%ADD11O,1.300000X2.100000*%
%TD*%
%TA.AperFunction,ComponentPad*%
%ADD12C,0.500000*%
%TD*%
%TA.AperFunction,HeatsinkPad*%
%ADD13C,0.500000*%
%TD*%
%TA.AperFunction,ComponentPad*%
%ADD14C,0.600000*%
%TD*%
%TA.AperFunction,ComponentPad*%
%ADD15C,1.400000*%
%TD*%
%TA.AperFunction,ComponentPad*%
%ADD16O,1.000000X1.800000*%
%TD*%
%TA.AperFunction,ComponentPad*%
%ADD17C,0.400000*%
%TD*%
%TA.AperFunction,ComponentPad*%
%ADD18C,1.200000*%
%TD*%
%TA.AperFunction,ComponentPad*%
%ADD19O,1.400000X2.000000*%
%TD*%
%TA.AperFunction,ComponentPad*%
%ADD20O,1.300000X2.000000*%
%TD*%
%TA.AperFunction,ViaPad*%
%ADD21C,0.450000*%
%TD*%
%TA.AperFunction,ViaPad*%
%ADD22C,0.600000*%
%TD*%
G04 APERTURE END LIST*
D10*
%TO.N,GND*%
%TO.C,J1*%
X175930000Y-52820000D03*
D11*
X175930000Y-48620000D03*
D12*
X173600000Y-50000000D03*
X173600000Y-48000000D03*
X169600000Y-50000000D03*
X169600000Y-48000000D03*
D10*
X167270000Y-52820000D03*
D11*
X167270000Y-48620000D03*
%TD*%
D13*
%TO.N,GND*%
%TO.C,U1*%
X177000000Y-56600000D03*
X177000000Y-55500000D03*
%TD*%
D14*
%TO.N,-4V5*%
%TO.C,U10*%
X203450000Y-67500000D03*
X203450000Y-69000000D03*
X203950000Y-68250000D03*
X204450000Y-67500000D03*
X204450000Y-69000000D03*
%TD*%
D15*
%TO.N,*%
%TO.C,CN1*%
X205050000Y-82000000D03*
X205050000Y-75020000D03*
D16*
%TO.N,GND*%
X208350000Y-81200000D03*
%TO.N,unconnected-(CN1-Pad2)*%
X202050000Y-81900000D03*
%TO.N,/OUT-UNBAL-2*%
X202050000Y-79100000D03*
%TO.N,/GP10*%
X207750000Y-75500000D03*
%TO.N,GND*%
X206650000Y-73400000D03*
%TO.N,unconnected-(CN1-Pad6)*%
X203650000Y-73400000D03*
%TO.N,/OUT-UNBAL-1*%
X202250000Y-73400000D03*
%TD*%
D17*
%TO.N,GND*%
%TO.C,U3*%
X182975000Y-77850000D03*
X183775000Y-77050000D03*
X183775000Y-77850000D03*
X183775000Y-78650000D03*
X184575000Y-77850000D03*
%TD*%
D13*
%TO.N,-4V5*%
%TO.C,U8*%
X186600000Y-63150000D03*
X186600000Y-62400000D03*
X186600000Y-61650000D03*
X185900000Y-63150000D03*
X185900000Y-62400000D03*
X185900000Y-61650000D03*
%TD*%
D14*
%TO.N,GND*%
%TO.C,U2*%
X182000000Y-52400000D03*
X183000000Y-52400000D03*
X184000000Y-52400000D03*
%TD*%
D13*
%TO.N,GND*%
%TO.C,U4*%
X182450000Y-58000000D03*
X182450000Y-56900000D03*
%TD*%
D18*
%TO.N,*%
%TO.C,CN2*%
X216150000Y-78700000D03*
X214600000Y-71200000D03*
D19*
%TO.N,GND*%
X212900000Y-82100000D03*
%TO.N,/OUT-BAL-2N*%
X219400000Y-81600000D03*
X212900000Y-79400000D03*
%TO.N,/OUT-BAL-2P*%
X219400000Y-78900000D03*
X212900000Y-76700000D03*
%TO.N,/OUT-BAL-1N*%
X219400000Y-76200000D03*
D20*
%TO.N,/OUT-BAL-1P*%
X212700000Y-68200000D03*
X219600000Y-68200000D03*
%TO.N,/GP11*%
X217750000Y-68200000D03*
%TO.N,GND*%
X214200000Y-68200000D03*
D19*
X212100000Y-72950000D03*
X220200000Y-72950000D03*
%TD*%
D14*
%TO.N,-4V5*%
%TO.C,U9*%
X191750000Y-78425000D03*
X190250000Y-78425000D03*
X191000000Y-78925000D03*
X191750000Y-79425000D03*
X190250000Y-79425000D03*
%TD*%
D13*
%TO.N,-4V5*%
%TO.C,U7*%
X194400000Y-69637500D03*
X193650000Y-69637500D03*
X192900000Y-69637500D03*
X194400000Y-70337500D03*
X193650000Y-70337500D03*
X192900000Y-70337500D03*
%TD*%
D14*
%TO.N,-4V5*%
%TO.C,U11*%
X202850000Y-59300000D03*
X202850000Y-60800000D03*
X203350000Y-60050000D03*
X203850000Y-59300000D03*
X203850000Y-60800000D03*
%TD*%
D13*
%TO.N,GND*%
%TO.C,U6*%
X173350000Y-69550000D03*
X173350000Y-71000000D03*
X173350000Y-72450000D03*
X174800000Y-69550000D03*
X174800000Y-71000000D03*
X174800000Y-72450000D03*
X176250000Y-69550000D03*
X176250000Y-71000000D03*
X176250000Y-72450000D03*
%TD*%
%TO.N,-4V5*%
%TO.C,U5*%
X192400000Y-60900000D03*
X193150000Y-60900000D03*
X193900000Y-60900000D03*
X192400000Y-60200000D03*
X193150000Y-60200000D03*
X193900000Y-60200000D03*
%TD*%
D21*
%TO.N,GND*%
X163800000Y-80400000D03*
X201400000Y-46800000D03*
X213400000Y-46800000D03*
D22*
X191000000Y-75600000D03*
D21*
X163800000Y-75600000D03*
X183600000Y-84000000D03*
X223600000Y-48000000D03*
X194400000Y-84000000D03*
X223600000Y-62400000D03*
X211000000Y-84000000D03*
X175800000Y-84000000D03*
X223600000Y-77400000D03*
D22*
X196810169Y-70326860D03*
D21*
X223600000Y-46800000D03*
X223600000Y-60600000D03*
X223000000Y-46800000D03*
X163800000Y-52200000D03*
X196000000Y-46800000D03*
D22*
X173000000Y-60000000D03*
D21*
X223600000Y-82800000D03*
X223600000Y-57600000D03*
D22*
X178350000Y-63350000D03*
D21*
X163800000Y-68400000D03*
X194800000Y-46800000D03*
X188400000Y-84000000D03*
X199000000Y-46800000D03*
X197200000Y-46800000D03*
X163800000Y-57600000D03*
X168600000Y-84000000D03*
X217600000Y-46800000D03*
X209800000Y-84000000D03*
X188800000Y-46800000D03*
X163800000Y-61200000D03*
X163800000Y-64200000D03*
X192600000Y-84000000D03*
X176400000Y-84000000D03*
X223600000Y-55200000D03*
X223600000Y-52200000D03*
X223600000Y-51600000D03*
X223600000Y-64800000D03*
X206800000Y-46800000D03*
X177000000Y-84000000D03*
X163800000Y-58200000D03*
X223600000Y-67200000D03*
X223600000Y-75000000D03*
X223600000Y-72600000D03*
D22*
X180625996Y-53146222D03*
D21*
X197800000Y-46800000D03*
X163800000Y-66000000D03*
X214600000Y-46800000D03*
D22*
X180850000Y-57500000D03*
D21*
X200800000Y-46800000D03*
D22*
X187000000Y-64600000D03*
X181775000Y-75050000D03*
D21*
X175200000Y-84000000D03*
X221800000Y-46800000D03*
X199600000Y-46800000D03*
X163800000Y-56400000D03*
X163800000Y-72600000D03*
X223600000Y-57000000D03*
X200200000Y-46800000D03*
X223600000Y-76800000D03*
X202000000Y-46800000D03*
X196800000Y-84000000D03*
D22*
X185133753Y-53166247D03*
D21*
X173400000Y-84000000D03*
X163800000Y-46800000D03*
D22*
X171448527Y-76900000D03*
D21*
X163800000Y-64800000D03*
X163800000Y-48000000D03*
D22*
X177400000Y-54400000D03*
D21*
X190000000Y-46800000D03*
X172800000Y-84000000D03*
X180400000Y-46800000D03*
X163800000Y-67200000D03*
X223600000Y-82200000D03*
D22*
X180800000Y-51100000D03*
D21*
X191400000Y-84000000D03*
X163800000Y-58800000D03*
X163800000Y-54600000D03*
X179800000Y-46800000D03*
X163800000Y-73200000D03*
X163800000Y-53400000D03*
D22*
X177100000Y-76589211D03*
D21*
X181000000Y-46800000D03*
X212200000Y-46800000D03*
X182400000Y-84000000D03*
X220600000Y-46800000D03*
X223600000Y-64200000D03*
X211000000Y-46800000D03*
X163800000Y-77400000D03*
X223600000Y-49800000D03*
X223600000Y-67800000D03*
X223600000Y-69000000D03*
X163800000Y-54000000D03*
X185200000Y-46800000D03*
X193600000Y-46800000D03*
X221200000Y-46800000D03*
X163800000Y-84000000D03*
X223600000Y-71400000D03*
X163800000Y-76800000D03*
X193200000Y-84000000D03*
X165600000Y-84000000D03*
X163800000Y-79200000D03*
X212800000Y-46800000D03*
X223600000Y-70200000D03*
X163800000Y-65400000D03*
X210400000Y-84000000D03*
X166800000Y-84000000D03*
X223600000Y-81000000D03*
X163800000Y-70800000D03*
X163800000Y-78000000D03*
X163800000Y-49800000D03*
X208000000Y-46800000D03*
X190600000Y-46800000D03*
X223600000Y-84000000D03*
X165000000Y-84000000D03*
X183000000Y-84000000D03*
X194200000Y-46800000D03*
X181600000Y-46800000D03*
X163800000Y-76200000D03*
D22*
X167800000Y-55000000D03*
D21*
X163800000Y-67800000D03*
X171600000Y-84000000D03*
D22*
X178499265Y-67099265D03*
D21*
X206200000Y-46800000D03*
X167400000Y-84000000D03*
X223600000Y-78000000D03*
X223600000Y-55800000D03*
X193000000Y-46800000D03*
X223600000Y-73200000D03*
X223600000Y-73800000D03*
X168000000Y-84000000D03*
X165600000Y-46800000D03*
X163800000Y-59400000D03*
X176800000Y-46800000D03*
X223600000Y-66000000D03*
X195600000Y-84000000D03*
X163800000Y-82200000D03*
X164400000Y-46800000D03*
X223600000Y-81600000D03*
X163800000Y-66600000D03*
X223600000Y-78600000D03*
X184200000Y-84000000D03*
X198600000Y-84000000D03*
X191200000Y-46800000D03*
D22*
X191000000Y-60000000D03*
D21*
X223600000Y-60000000D03*
X183400000Y-46800000D03*
X195000000Y-84000000D03*
X189000000Y-84000000D03*
X223600000Y-69600000D03*
X195400000Y-46800000D03*
X223600000Y-58200000D03*
X193800000Y-84000000D03*
X163800000Y-47400000D03*
X220000000Y-46800000D03*
X172200000Y-84000000D03*
X180000000Y-84000000D03*
X190800000Y-84000000D03*
X215200000Y-46800000D03*
X223600000Y-52800000D03*
D22*
X178350000Y-64550000D03*
D21*
X174000000Y-84000000D03*
X223600000Y-65400000D03*
X208600000Y-46800000D03*
D22*
X171094975Y-63094975D03*
D21*
X192000000Y-84000000D03*
D22*
X176900000Y-80500000D03*
D21*
X163800000Y-50400000D03*
X187800000Y-84000000D03*
X223600000Y-61200000D03*
X179400000Y-84000000D03*
X205000000Y-46800000D03*
X163800000Y-49200000D03*
X217000000Y-46800000D03*
X181800000Y-84000000D03*
X166200000Y-84000000D03*
X197400000Y-84000000D03*
X169800000Y-84000000D03*
D22*
X183600000Y-55800000D03*
D21*
X223600000Y-48600000D03*
X198000000Y-84000000D03*
X163800000Y-52800000D03*
X163800000Y-72000000D03*
X163800000Y-69000000D03*
X218800000Y-46800000D03*
X164400000Y-84000000D03*
X163800000Y-51000000D03*
X186600000Y-84000000D03*
X191800000Y-46800000D03*
X201000000Y-84000000D03*
X218200000Y-46800000D03*
X223600000Y-54000000D03*
X221800000Y-84000000D03*
X187000000Y-46800000D03*
X209200000Y-84000000D03*
D22*
X178350000Y-63950000D03*
D21*
X198400000Y-46800000D03*
D22*
X175900001Y-76839580D03*
D21*
X169200000Y-84000000D03*
X223600000Y-76200000D03*
X200400000Y-84000000D03*
X163800000Y-60000000D03*
X223600000Y-56400000D03*
X165000000Y-46800000D03*
X192400000Y-46800000D03*
X177400000Y-46800000D03*
X163800000Y-57000000D03*
X187600000Y-46800000D03*
X163800000Y-69600000D03*
X223600000Y-47400000D03*
D22*
X199639238Y-57969999D03*
D21*
X204400000Y-46800000D03*
X184800000Y-84000000D03*
X177600000Y-84000000D03*
X223600000Y-74400000D03*
X207400000Y-46800000D03*
X170400000Y-84000000D03*
X178200000Y-84000000D03*
X166200000Y-46800000D03*
X163800000Y-81600000D03*
X187200000Y-84000000D03*
X184000000Y-46800000D03*
X199800000Y-84000000D03*
X210400000Y-46800000D03*
X209800000Y-46800000D03*
X190200000Y-84000000D03*
X186400000Y-46800000D03*
X202600000Y-46800000D03*
X163800000Y-51600000D03*
X163800000Y-70200000D03*
X178000000Y-46800000D03*
X163800000Y-60600000D03*
X223600000Y-79200000D03*
X179200000Y-46800000D03*
X178800000Y-84000000D03*
X185800000Y-46800000D03*
X223600000Y-58800000D03*
X219400000Y-46800000D03*
D22*
X191630833Y-70613235D03*
D21*
X163800000Y-71400000D03*
X223600000Y-83400000D03*
X163800000Y-61800000D03*
X189400000Y-46800000D03*
X189600000Y-84000000D03*
X180600000Y-84000000D03*
X184600000Y-46800000D03*
X221200000Y-84000000D03*
X211600000Y-46800000D03*
X196200000Y-84000000D03*
X223600000Y-49200000D03*
X199200000Y-84000000D03*
X223000000Y-84000000D03*
X223600000Y-80400000D03*
D22*
X187000000Y-59600000D03*
D21*
X163800000Y-74400000D03*
X163800000Y-62400000D03*
X216400000Y-46800000D03*
X186000000Y-84000000D03*
D22*
X177000000Y-58800000D03*
D21*
X223600000Y-50400000D03*
X163800000Y-73800000D03*
X205600000Y-46800000D03*
D22*
X181500000Y-59500000D03*
X200484309Y-68277580D03*
D21*
X181200000Y-84000000D03*
X163800000Y-48600000D03*
X222400000Y-84000000D03*
X163800000Y-81000000D03*
D22*
X169000000Y-74000000D03*
D21*
X223600000Y-54600000D03*
X223600000Y-70800000D03*
X223600000Y-61800000D03*
X223600000Y-63000000D03*
X163800000Y-55200000D03*
X163800000Y-63000000D03*
X178600000Y-46800000D03*
X185400000Y-84000000D03*
X223600000Y-53400000D03*
X209200000Y-46800000D03*
X188200000Y-46800000D03*
D22*
X179000000Y-80000000D03*
D21*
X163800000Y-78600000D03*
X171000000Y-84000000D03*
X222400000Y-46800000D03*
X163800000Y-63600000D03*
X223600000Y-72000000D03*
X182200000Y-46800000D03*
X174600000Y-84000000D03*
X163800000Y-55800000D03*
X223600000Y-59400000D03*
X223600000Y-75600000D03*
X163800000Y-75000000D03*
X223600000Y-79800000D03*
X214000000Y-46800000D03*
X223600000Y-68400000D03*
D22*
X180200000Y-55500000D03*
D21*
X163800000Y-83400000D03*
X163800000Y-82800000D03*
X196600000Y-46800000D03*
X223600000Y-66600000D03*
X223600000Y-51000000D03*
X163800000Y-79800000D03*
X203800000Y-46800000D03*
X203200000Y-46800000D03*
X223600000Y-63600000D03*
X215800000Y-46800000D03*
X182800000Y-46800000D03*
D22*
%TO.N,+3V3*%
X179000000Y-57600000D03*
X179600000Y-71400000D03*
X180010000Y-67292679D03*
X179000000Y-56800000D03*
X180000000Y-64400000D03*
X179000000Y-56000000D03*
X169600000Y-71800000D03*
X173400000Y-76199999D03*
X169900000Y-68000000D03*
X177100000Y-75500000D03*
%TO.N,-4V5*%
X187864581Y-59600000D03*
X199950000Y-61000000D03*
X194431404Y-62596490D03*
X200060715Y-69000000D03*
X185850000Y-55950000D03*
X188600000Y-74800000D03*
X191575735Y-68063235D03*
%TO.N,+4V5*%
X184086765Y-64525735D03*
X195775735Y-71263235D03*
X192196911Y-58200000D03*
X192200000Y-74800000D03*
X199800000Y-66550000D03*
X181600000Y-48800000D03*
X199850000Y-59100000D03*
%TO.N,/GP15*%
X215015000Y-52600000D03*
X170700009Y-78600000D03*
%TO.N,/5242-1P*%
X197875581Y-70624419D03*
X198760715Y-69751160D03*
%TO.N,/1612-UNBAL-1*%
X192258792Y-76421995D03*
X190000000Y-60200000D03*
%TO.N,/5242-1N*%
X198730048Y-70630356D03*
X197850000Y-69737500D03*
%TO.N,+5V*%
X167200000Y-58000000D03*
X182850000Y-48150000D03*
X174400000Y-58200000D03*
%TO.N,Net-(U2-EN+)*%
X181600000Y-50866222D03*
X184213297Y-50422568D03*
%TO.N,/BAL-1622-EN*%
X166400000Y-72800000D03*
X206079620Y-60120380D03*
X206810390Y-68102811D03*
%TO.N,Net-(U11A--)*%
X202600000Y-63600000D03*
X207000000Y-58000000D03*
%TO.N,/OUT-BAL-2P*%
X207515380Y-59300000D03*
%TO.N,/GP14*%
X215015000Y-55400000D03*
X169900006Y-78600000D03*
%TO.N,/1612-BAL-1P*%
X196097105Y-68700000D03*
X201400000Y-66800000D03*
%TO.N,/1612-BAL-1N*%
X201400000Y-70000000D03*
X196700000Y-71119240D03*
%TO.N,Net-(U10B--)*%
X208400000Y-65200000D03*
X206800000Y-71200000D03*
%TO.N,Net-(U10A--)*%
X207800000Y-66600000D03*
X204600000Y-71000000D03*
%TO.N,/GP10*%
X164800000Y-75400000D03*
%TO.N,+AUDIO3V3*%
X183552880Y-73352880D03*
X183950000Y-57450000D03*
%TO.N,/1612-BAL-2P*%
X186206763Y-65763112D03*
X200620921Y-57320000D03*
%TO.N,/5242-2P*%
X186062500Y-67950000D03*
X186062500Y-66550000D03*
%TO.N,/5242-2N*%
X187062500Y-67350000D03*
X184862500Y-67350000D03*
%TO.N,/1612-BAL-2N*%
X200600000Y-62800000D03*
X185200000Y-65800000D03*
%TO.N,+1V1*%
X174750000Y-63350000D03*
X175884883Y-75864748D03*
X179164411Y-69411632D03*
X174750000Y-62350000D03*
X169900000Y-70390000D03*
X174750000Y-61350000D03*
%TO.N,/RUN*%
X178400000Y-78000000D03*
X170200000Y-67000000D03*
%TO.N,/GP13*%
X215115000Y-58500000D03*
X169100003Y-78600000D03*
%TO.N,Net-(U11B--)*%
X206900000Y-62700000D03*
X203400000Y-57400000D03*
%TO.N,/OUT-BAL-2N*%
X207550000Y-61600000D03*
%TO.N,Net-(U9A-EN)*%
X166400000Y-72000000D03*
X192000002Y-81950000D03*
%TO.N,/1612-UNBAL-2*%
X190000000Y-59399997D03*
X189550018Y-76249982D03*
%TO.N,/GP11*%
X164800000Y-76200000D03*
%TO.N,/GP12*%
X168300000Y-78600000D03*
X215155000Y-61600000D03*
%TD*%
%TA.AperFunction,Conductor*%
%TO.N,GND*%
G36*
X223842538Y-46520185D02*
G01*
X223888293Y-46572989D01*
X223899499Y-46624500D01*
X223899499Y-84175500D01*
X223879814Y-84242539D01*
X223827010Y-84288294D01*
X223775499Y-84299500D01*
X163624500Y-84299500D01*
X163557461Y-84279815D01*
X163511706Y-84227011D01*
X163500500Y-84175500D01*
X163500500Y-82718592D01*
X164173500Y-82718592D01*
X164173500Y-82881407D01*
X164205259Y-83041073D01*
X164205262Y-83041082D01*
X164267562Y-83191490D01*
X164267563Y-83191492D01*
X164358015Y-83326862D01*
X164358018Y-83326866D01*
X164473133Y-83441981D01*
X164473137Y-83441984D01*
X164608505Y-83532435D01*
X164608506Y-83532435D01*
X164608507Y-83532436D01*
X164608509Y-83532437D01*
X164708781Y-83573970D01*
X164758919Y-83594738D01*
X164758921Y-83594738D01*
X164758926Y-83594740D01*
X164918592Y-83626499D01*
X164918595Y-83626500D01*
X164918597Y-83626500D01*
X165081405Y-83626500D01*
X165081406Y-83626499D01*
X165134629Y-83615912D01*
X165241073Y-83594740D01*
X165241076Y-83594738D01*
X165241081Y-83594738D01*
X165391495Y-83532435D01*
X165526863Y-83441984D01*
X165641984Y-83326863D01*
X165732435Y-83191495D01*
X165794738Y-83041081D01*
X165815286Y-82937782D01*
X165826499Y-82881407D01*
X165826500Y-82881405D01*
X165826500Y-82718594D01*
X165826499Y-82718592D01*
X165794740Y-82558926D01*
X165794737Y-82558917D01*
X165732437Y-82408509D01*
X165732436Y-82408507D01*
X165725778Y-82398543D01*
X165641984Y-82273137D01*
X165641981Y-82273133D01*
X165526866Y-82158018D01*
X165526862Y-82158015D01*
X165391492Y-82067563D01*
X165391490Y-82067562D01*
X165241082Y-82005262D01*
X165241073Y-82005259D01*
X165147681Y-81986683D01*
X165081406Y-81973500D01*
X165081403Y-81973500D01*
X164918597Y-81973500D01*
X164918594Y-81973500D01*
X164758926Y-82005259D01*
X164758917Y-82005262D01*
X164608509Y-82067562D01*
X164608507Y-82067563D01*
X164473137Y-82158015D01*
X164473133Y-82158018D01*
X164358018Y-82273133D01*
X164358015Y-82273137D01*
X164267563Y-82408507D01*
X164267562Y-82408509D01*
X164205262Y-82558917D01*
X164205259Y-82558926D01*
X164173500Y-82718592D01*
X163500500Y-82718592D01*
X163500500Y-81871153D01*
X191199502Y-81871153D01*
X191199502Y-82028846D01*
X191230263Y-82183489D01*
X191230266Y-82183501D01*
X191290604Y-82329172D01*
X191290611Y-82329185D01*
X191378212Y-82460288D01*
X191378215Y-82460292D01*
X191489709Y-82571786D01*
X191489713Y-82571789D01*
X191620816Y-82659390D01*
X191620829Y-82659397D01*
X191763753Y-82718597D01*
X191766505Y-82719737D01*
X191921155Y-82750499D01*
X191921158Y-82750500D01*
X191921160Y-82750500D01*
X192078846Y-82750500D01*
X192078847Y-82750499D01*
X192233499Y-82719737D01*
X192379181Y-82659394D01*
X192510291Y-82571789D01*
X192621791Y-82460289D01*
X192709396Y-82329179D01*
X192769739Y-82183497D01*
X192800502Y-82028842D01*
X192800502Y-81871158D01*
X192800502Y-81871155D01*
X192800501Y-81871153D01*
X192769740Y-81716510D01*
X192769739Y-81716503D01*
X192769737Y-81716498D01*
X192709399Y-81570827D01*
X192709392Y-81570814D01*
X192621791Y-81439711D01*
X192621788Y-81439707D01*
X192510294Y-81328213D01*
X192510290Y-81328210D01*
X192379187Y-81240609D01*
X192379174Y-81240602D01*
X192233503Y-81180264D01*
X192233491Y-81180261D01*
X192078847Y-81149500D01*
X192078844Y-81149500D01*
X191921160Y-81149500D01*
X191921157Y-81149500D01*
X191766512Y-81180261D01*
X191766500Y-81180264D01*
X191620829Y-81240602D01*
X191620816Y-81240609D01*
X191489713Y-81328210D01*
X191489709Y-81328213D01*
X191378215Y-81439707D01*
X191378212Y-81439711D01*
X191290611Y-81570814D01*
X191290604Y-81570827D01*
X191230266Y-81716498D01*
X191230263Y-81716510D01*
X191199502Y-81871153D01*
X163500500Y-81871153D01*
X163500500Y-78521153D01*
X167499500Y-78521153D01*
X167499500Y-78678846D01*
X167530261Y-78833489D01*
X167530264Y-78833501D01*
X167590602Y-78979172D01*
X167590609Y-78979185D01*
X167678210Y-79110288D01*
X167678213Y-79110292D01*
X167789707Y-79221786D01*
X167789711Y-79221789D01*
X167920814Y-79309390D01*
X167920827Y-79309397D01*
X168066498Y-79369735D01*
X168066503Y-79369737D01*
X168221153Y-79400499D01*
X168221156Y-79400500D01*
X168221158Y-79400500D01*
X168378844Y-79400500D01*
X168378845Y-79400499D01*
X168533497Y-79369737D01*
X168652550Y-79320423D01*
X168722017Y-79312955D01*
X168747450Y-79320422D01*
X168866506Y-79369737D01*
X169021156Y-79400499D01*
X169021159Y-79400500D01*
X169021161Y-79400500D01*
X169178847Y-79400500D01*
X169178848Y-79400499D01*
X169333500Y-79369737D01*
X169452553Y-79320423D01*
X169522020Y-79312955D01*
X169547453Y-79320422D01*
X169666509Y-79369737D01*
X169821159Y-79400499D01*
X169821162Y-79400500D01*
X169821164Y-79400500D01*
X169978850Y-79400500D01*
X169978851Y-79400499D01*
X170133503Y-79369737D01*
X170252556Y-79320423D01*
X170322023Y-79312955D01*
X170347456Y-79320422D01*
X170466512Y-79369737D01*
X170621162Y-79400499D01*
X170621165Y-79400500D01*
X170621167Y-79400500D01*
X170778853Y-79400500D01*
X170778854Y-79400499D01*
X170933506Y-79369737D01*
X171079188Y-79309394D01*
X171210298Y-79221789D01*
X171321798Y-79110289D01*
X171409403Y-78979179D01*
X171469746Y-78833497D01*
X171500509Y-78678842D01*
X171500509Y-78521158D01*
X171500509Y-78521155D01*
X171500508Y-78521153D01*
X171478032Y-78408160D01*
X171469746Y-78366503D01*
X171450021Y-78318882D01*
X171409406Y-78220827D01*
X171409399Y-78220814D01*
X171321798Y-78089711D01*
X171321795Y-78089707D01*
X171210301Y-77978213D01*
X171210297Y-77978210D01*
X171124906Y-77921153D01*
X177599500Y-77921153D01*
X177599500Y-78078846D01*
X177630261Y-78233489D01*
X177630264Y-78233501D01*
X177690602Y-78379172D01*
X177690609Y-78379185D01*
X177778210Y-78510288D01*
X177778213Y-78510292D01*
X177889707Y-78621786D01*
X177889711Y-78621789D01*
X178020814Y-78709390D01*
X178020827Y-78709397D01*
X178166498Y-78769735D01*
X178166503Y-78769737D01*
X178321153Y-78800499D01*
X178321156Y-78800500D01*
X178321158Y-78800500D01*
X178478844Y-78800500D01*
X178478845Y-78800499D01*
X178633497Y-78769737D01*
X178779179Y-78709394D01*
X178910289Y-78621789D01*
X179021789Y-78510289D01*
X179109394Y-78379179D01*
X179123074Y-78346153D01*
X189449500Y-78346153D01*
X189449500Y-78503846D01*
X189480261Y-78658489D01*
X189480264Y-78658501D01*
X189540602Y-78804172D01*
X189540609Y-78804185D01*
X189575304Y-78856109D01*
X189596182Y-78922786D01*
X189577698Y-78990167D01*
X189575304Y-78993891D01*
X189540609Y-79045814D01*
X189540602Y-79045827D01*
X189480264Y-79191498D01*
X189480261Y-79191510D01*
X189449500Y-79346153D01*
X189449500Y-79503846D01*
X189480261Y-79658489D01*
X189480264Y-79658501D01*
X189540602Y-79804172D01*
X189540609Y-79804185D01*
X189628210Y-79935288D01*
X189628213Y-79935292D01*
X189739707Y-80046786D01*
X189739711Y-80046789D01*
X189870814Y-80134390D01*
X189870827Y-80134397D01*
X190016498Y-80194735D01*
X190016503Y-80194737D01*
X190170530Y-80225375D01*
X190171153Y-80225499D01*
X190171156Y-80225500D01*
X190171158Y-80225500D01*
X190328844Y-80225500D01*
X190328845Y-80225499D01*
X190483497Y-80194737D01*
X190596166Y-80148067D01*
X190629172Y-80134397D01*
X190629172Y-80134396D01*
X190629179Y-80134394D01*
X190760289Y-80046789D01*
X190871789Y-79935289D01*
X190879145Y-79924279D01*
X190896898Y-79897712D01*
X190950510Y-79852906D01*
X191019835Y-79844199D01*
X191082862Y-79874353D01*
X191103102Y-79897712D01*
X191128207Y-79935284D01*
X191128213Y-79935292D01*
X191239707Y-80046786D01*
X191239711Y-80046789D01*
X191370814Y-80134390D01*
X191370827Y-80134397D01*
X191516498Y-80194735D01*
X191516503Y-80194737D01*
X191670530Y-80225375D01*
X191671153Y-80225499D01*
X191671156Y-80225500D01*
X191671158Y-80225500D01*
X191828844Y-80225500D01*
X191828845Y-80225499D01*
X191983497Y-80194737D01*
X192096166Y-80148067D01*
X192129172Y-80134397D01*
X192129172Y-80134396D01*
X192129179Y-80134394D01*
X192260289Y-80046789D01*
X192371789Y-79935289D01*
X192459394Y-79804179D01*
X192464510Y-79791829D01*
X192518768Y-79660836D01*
X192519737Y-79658497D01*
X192531663Y-79598543D01*
X201049499Y-79598543D01*
X201087947Y-79791829D01*
X201087950Y-79791839D01*
X201163364Y-79973907D01*
X201163371Y-79973920D01*
X201272860Y-80137781D01*
X201272863Y-80137785D01*
X201412214Y-80277136D01*
X201412218Y-80277139D01*
X201576079Y-80386628D01*
X201581456Y-80389502D01*
X201580490Y-80391308D01*
X201627612Y-80429285D01*
X201649673Y-80495580D01*
X201632391Y-80563279D01*
X201581251Y-80610887D01*
X201577660Y-80612526D01*
X201576079Y-80613371D01*
X201412218Y-80722860D01*
X201412214Y-80722863D01*
X201272863Y-80862214D01*
X201272860Y-80862218D01*
X201163371Y-81026079D01*
X201163364Y-81026092D01*
X201087950Y-81208160D01*
X201087947Y-81208170D01*
X201049500Y-81401456D01*
X201049500Y-81401459D01*
X201049500Y-82398541D01*
X201049500Y-82398543D01*
X201049499Y-82398543D01*
X201087947Y-82591829D01*
X201087950Y-82591839D01*
X201163364Y-82773907D01*
X201163371Y-82773920D01*
X201272860Y-82937781D01*
X201272863Y-82937785D01*
X201412214Y-83077136D01*
X201412218Y-83077139D01*
X201576079Y-83186628D01*
X201576092Y-83186635D01*
X201758160Y-83262049D01*
X201758165Y-83262051D01*
X201758169Y-83262051D01*
X201758170Y-83262052D01*
X201951456Y-83300500D01*
X201951459Y-83300500D01*
X202148543Y-83300500D01*
X202278582Y-83274632D01*
X202341835Y-83262051D01*
X202523914Y-83186632D01*
X202687782Y-83077139D01*
X202827139Y-82937782D01*
X202936632Y-82773914D01*
X203012051Y-82591835D01*
X203038109Y-82460836D01*
X203050500Y-82398543D01*
X203050500Y-81905513D01*
X203849500Y-81905513D01*
X203849500Y-82094486D01*
X203879059Y-82281118D01*
X203937454Y-82460836D01*
X203993988Y-82571789D01*
X204023240Y-82629199D01*
X204134310Y-82782073D01*
X204267927Y-82915690D01*
X204420801Y-83026760D01*
X204448908Y-83041081D01*
X204589163Y-83112545D01*
X204589165Y-83112545D01*
X204589168Y-83112547D01*
X204685497Y-83143846D01*
X204768881Y-83170940D01*
X204955514Y-83200500D01*
X204955519Y-83200500D01*
X205144486Y-83200500D01*
X205331118Y-83170940D01*
X205510832Y-83112547D01*
X205679199Y-83026760D01*
X205832073Y-82915690D01*
X205965690Y-82782073D01*
X206076760Y-82629199D01*
X206162547Y-82460832D01*
X206220940Y-82281118D01*
X206236401Y-82183501D01*
X206250500Y-82094486D01*
X206250500Y-81905513D01*
X206220940Y-81718881D01*
X206193846Y-81635497D01*
X206162547Y-81539168D01*
X206162545Y-81539165D01*
X206162545Y-81539163D01*
X206076759Y-81370800D01*
X205965690Y-81217927D01*
X205832073Y-81084310D01*
X205679199Y-80973240D01*
X205510836Y-80887454D01*
X205331118Y-80829059D01*
X205144486Y-80799500D01*
X205144481Y-80799500D01*
X204955519Y-80799500D01*
X204955514Y-80799500D01*
X204768881Y-80829059D01*
X204589163Y-80887454D01*
X204420800Y-80973240D01*
X204357982Y-81018881D01*
X204267927Y-81084310D01*
X204267925Y-81084312D01*
X204267924Y-81084312D01*
X204134312Y-81217924D01*
X204134312Y-81217925D01*
X204134310Y-81217927D01*
X204086610Y-81283579D01*
X204023240Y-81370800D01*
X203937454Y-81539163D01*
X203879059Y-81718881D01*
X203849500Y-81905513D01*
X203050500Y-81905513D01*
X203050500Y-81401456D01*
X203012052Y-81208170D01*
X203012051Y-81208169D01*
X203012051Y-81208165D01*
X203000493Y-81180261D01*
X202936635Y-81026092D01*
X202936628Y-81026079D01*
X202827139Y-80862218D01*
X202827136Y-80862214D01*
X202687785Y-80722863D01*
X202687781Y-80722860D01*
X202523920Y-80613371D01*
X202518544Y-80610498D01*
X202519510Y-80608689D01*
X202472397Y-80570728D01*
X202450326Y-80504436D01*
X202467600Y-80436735D01*
X202518734Y-80389121D01*
X202522331Y-80387477D01*
X202523907Y-80386634D01*
X202523914Y-80386632D01*
X202687782Y-80277139D01*
X202827139Y-80137782D01*
X202936632Y-79973914D01*
X203012051Y-79791835D01*
X203038109Y-79660836D01*
X203050500Y-79598543D01*
X203050500Y-78601456D01*
X203012052Y-78408170D01*
X203012051Y-78408169D01*
X203012051Y-78408165D01*
X203000045Y-78379179D01*
X202936635Y-78226092D01*
X202936628Y-78226079D01*
X202827139Y-78062218D01*
X202827136Y-78062214D01*
X202687785Y-77922863D01*
X202687781Y-77922860D01*
X202523920Y-77813371D01*
X202523907Y-77813364D01*
X202341839Y-77737950D01*
X202341829Y-77737947D01*
X202148543Y-77699500D01*
X202148541Y-77699500D01*
X201951459Y-77699500D01*
X201951457Y-77699500D01*
X201758170Y-77737947D01*
X201758160Y-77737950D01*
X201576092Y-77813364D01*
X201576079Y-77813371D01*
X201412218Y-77922860D01*
X201412214Y-77922863D01*
X201272863Y-78062214D01*
X201272860Y-78062218D01*
X201163371Y-78226079D01*
X201163364Y-78226092D01*
X201087950Y-78408160D01*
X201087947Y-78408170D01*
X201049500Y-78601456D01*
X201049500Y-78601459D01*
X201049500Y-79598541D01*
X201049500Y-79598543D01*
X201049499Y-79598543D01*
X192531663Y-79598543D01*
X192550500Y-79503842D01*
X192550500Y-79346158D01*
X192550500Y-79346155D01*
X192550499Y-79346153D01*
X192525761Y-79221789D01*
X192519737Y-79191503D01*
X192491133Y-79122447D01*
X192459396Y-79045825D01*
X192459394Y-79045822D01*
X192459394Y-79045821D01*
X192424694Y-78993889D01*
X192403816Y-78927215D01*
X192422300Y-78859835D01*
X192424676Y-78856136D01*
X192459394Y-78804179D01*
X192519737Y-78658497D01*
X192550500Y-78503842D01*
X192550500Y-78346158D01*
X192550500Y-78346155D01*
X192550499Y-78346153D01*
X192528090Y-78233496D01*
X192519737Y-78191503D01*
X192519735Y-78191498D01*
X192459397Y-78045827D01*
X192459390Y-78045814D01*
X192371789Y-77914711D01*
X192371786Y-77914707D01*
X192260292Y-77803213D01*
X192260288Y-77803210D01*
X192129185Y-77715609D01*
X192129172Y-77715602D01*
X191983501Y-77655264D01*
X191983489Y-77655261D01*
X191828845Y-77624500D01*
X191828842Y-77624500D01*
X191671158Y-77624500D01*
X191671155Y-77624500D01*
X191516510Y-77655261D01*
X191516498Y-77655264D01*
X191370827Y-77715602D01*
X191370814Y-77715609D01*
X191239711Y-77803210D01*
X191239707Y-77803213D01*
X191128213Y-77914707D01*
X191103102Y-77952289D01*
X191049489Y-77997093D01*
X190980164Y-78005800D01*
X190917137Y-77975645D01*
X190896898Y-77952289D01*
X190877236Y-77922863D01*
X190871789Y-77914711D01*
X190871788Y-77914710D01*
X190871786Y-77914707D01*
X190760292Y-77803213D01*
X190760288Y-77803210D01*
X190629185Y-77715609D01*
X190629172Y-77715602D01*
X190483501Y-77655264D01*
X190483489Y-77655261D01*
X190328845Y-77624500D01*
X190328842Y-77624500D01*
X190171158Y-77624500D01*
X190171155Y-77624500D01*
X190016510Y-77655261D01*
X190016498Y-77655264D01*
X189870827Y-77715602D01*
X189870814Y-77715609D01*
X189739711Y-77803210D01*
X189739707Y-77803213D01*
X189628213Y-77914707D01*
X189628210Y-77914711D01*
X189540609Y-78045814D01*
X189540602Y-78045827D01*
X189480264Y-78191498D01*
X189480261Y-78191510D01*
X189449500Y-78346153D01*
X179123074Y-78346153D01*
X179134766Y-78317925D01*
X179145251Y-78292613D01*
X179151489Y-78277552D01*
X179169737Y-78233497D01*
X179200500Y-78078842D01*
X179200500Y-77921158D01*
X179200500Y-77921155D01*
X179200499Y-77921153D01*
X179193714Y-77887044D01*
X179169737Y-77766503D01*
X179148655Y-77715606D01*
X179109397Y-77620827D01*
X179109390Y-77620814D01*
X179021789Y-77489711D01*
X179021786Y-77489707D01*
X178910292Y-77378213D01*
X178910288Y-77378210D01*
X178779185Y-77290609D01*
X178779172Y-77290602D01*
X178633501Y-77230264D01*
X178633489Y-77230261D01*
X178478845Y-77199500D01*
X178478842Y-77199500D01*
X178321158Y-77199500D01*
X178321155Y-77199500D01*
X178166510Y-77230261D01*
X178166498Y-77230264D01*
X178020827Y-77290602D01*
X178020814Y-77290609D01*
X177889711Y-77378210D01*
X177889707Y-77378213D01*
X177778213Y-77489707D01*
X177778210Y-77489711D01*
X177690609Y-77620814D01*
X177690602Y-77620827D01*
X177630264Y-77766498D01*
X177630261Y-77766510D01*
X177599500Y-77921153D01*
X171124906Y-77921153D01*
X171079194Y-77890609D01*
X171079181Y-77890602D01*
X170933510Y-77830264D01*
X170933498Y-77830261D01*
X170778854Y-77799500D01*
X170778851Y-77799500D01*
X170621167Y-77799500D01*
X170621164Y-77799500D01*
X170466519Y-77830261D01*
X170466507Y-77830264D01*
X170347459Y-77879575D01*
X170277989Y-77887044D01*
X170252555Y-77879575D01*
X170133507Y-77830264D01*
X170133495Y-77830261D01*
X169978851Y-77799500D01*
X169978848Y-77799500D01*
X169821164Y-77799500D01*
X169821161Y-77799500D01*
X169666516Y-77830261D01*
X169666504Y-77830264D01*
X169547456Y-77879575D01*
X169477986Y-77887044D01*
X169452552Y-77879575D01*
X169333504Y-77830264D01*
X169333492Y-77830261D01*
X169178848Y-77799500D01*
X169178845Y-77799500D01*
X169021161Y-77799500D01*
X169021158Y-77799500D01*
X168866513Y-77830261D01*
X168866501Y-77830264D01*
X168747453Y-77879575D01*
X168677983Y-77887044D01*
X168652549Y-77879575D01*
X168533501Y-77830264D01*
X168533489Y-77830261D01*
X168378845Y-77799500D01*
X168378842Y-77799500D01*
X168221158Y-77799500D01*
X168221155Y-77799500D01*
X168066510Y-77830261D01*
X168066498Y-77830264D01*
X167920827Y-77890602D01*
X167920814Y-77890609D01*
X167789711Y-77978210D01*
X167789707Y-77978213D01*
X167678213Y-78089707D01*
X167678210Y-78089711D01*
X167590609Y-78220814D01*
X167590602Y-78220827D01*
X167530264Y-78366498D01*
X167530261Y-78366510D01*
X167499500Y-78521153D01*
X163500500Y-78521153D01*
X163500500Y-75321153D01*
X163999500Y-75321153D01*
X163999500Y-75478846D01*
X164030261Y-75633489D01*
X164030264Y-75633501D01*
X164079574Y-75752548D01*
X164087043Y-75822018D01*
X164079574Y-75847452D01*
X164030264Y-75966498D01*
X164030261Y-75966510D01*
X163999500Y-76121153D01*
X163999500Y-76278846D01*
X164030261Y-76433489D01*
X164030264Y-76433501D01*
X164090602Y-76579172D01*
X164090609Y-76579185D01*
X164178210Y-76710288D01*
X164178213Y-76710292D01*
X164289707Y-76821786D01*
X164289711Y-76821789D01*
X164420814Y-76909390D01*
X164420827Y-76909397D01*
X164541479Y-76959372D01*
X164566503Y-76969737D01*
X164721148Y-77000498D01*
X164721153Y-77000499D01*
X164721156Y-77000500D01*
X164721158Y-77000500D01*
X164878844Y-77000500D01*
X164878845Y-77000499D01*
X165033497Y-76969737D01*
X165179179Y-76909394D01*
X165310289Y-76821789D01*
X165421789Y-76710289D01*
X165509394Y-76579179D01*
X165569737Y-76433497D01*
X165600500Y-76278842D01*
X165600500Y-76121158D01*
X165600499Y-76121152D01*
X172599500Y-76121152D01*
X172599500Y-76278845D01*
X172630261Y-76433488D01*
X172630264Y-76433500D01*
X172690602Y-76579171D01*
X172690609Y-76579184D01*
X172778210Y-76710287D01*
X172778213Y-76710291D01*
X172889707Y-76821785D01*
X172889711Y-76821788D01*
X173020814Y-76909389D01*
X173020827Y-76909396D01*
X173145016Y-76960836D01*
X173166503Y-76969736D01*
X173321153Y-77000498D01*
X173321156Y-77000499D01*
X173321158Y-77000499D01*
X173478844Y-77000499D01*
X173478845Y-77000498D01*
X173633497Y-76969736D01*
X173746166Y-76923066D01*
X173779172Y-76909396D01*
X173779172Y-76909395D01*
X173779179Y-76909393D01*
X173910289Y-76821788D01*
X174021789Y-76710288D01*
X174109394Y-76579178D01*
X174169737Y-76433496D01*
X174200500Y-76278841D01*
X174200500Y-76121157D01*
X174200500Y-76121156D01*
X174200500Y-76121154D01*
X174200499Y-76121152D01*
X174184917Y-76042816D01*
X174169737Y-75966502D01*
X174158413Y-75939163D01*
X174112079Y-75827300D01*
X174112066Y-75827270D01*
X174109395Y-75820822D01*
X174109390Y-75820813D01*
X174086062Y-75785901D01*
X175084383Y-75785901D01*
X175084383Y-75943594D01*
X175115144Y-76098237D01*
X175115147Y-76098249D01*
X175175485Y-76243920D01*
X175175492Y-76243933D01*
X175263093Y-76375036D01*
X175263096Y-76375040D01*
X175374590Y-76486534D01*
X175374594Y-76486537D01*
X175505697Y-76574138D01*
X175505710Y-76574145D01*
X175638547Y-76629167D01*
X175651386Y-76634485D01*
X175756995Y-76655492D01*
X175806036Y-76665247D01*
X175806039Y-76665248D01*
X175806041Y-76665248D01*
X175963727Y-76665248D01*
X175963728Y-76665247D01*
X176118380Y-76634485D01*
X176251887Y-76579185D01*
X176264055Y-76574145D01*
X176264055Y-76574144D01*
X176264062Y-76574142D01*
X176395172Y-76486537D01*
X176506672Y-76375037D01*
X176583245Y-76260437D01*
X176636854Y-76215635D01*
X176706179Y-76206927D01*
X176733797Y-76214769D01*
X176804206Y-76243933D01*
X176866503Y-76269737D01*
X177021153Y-76300499D01*
X177021156Y-76300500D01*
X177021158Y-76300500D01*
X177178844Y-76300500D01*
X177178845Y-76300499D01*
X177333497Y-76269737D01*
X177479179Y-76209394D01*
X177610289Y-76121789D01*
X177721789Y-76010289D01*
X177809394Y-75879179D01*
X177812864Y-75870803D01*
X177841332Y-75802073D01*
X177869737Y-75733497D01*
X177900500Y-75578842D01*
X177900500Y-75421158D01*
X177900500Y-75421155D01*
X177900499Y-75421153D01*
X177887269Y-75354644D01*
X177869737Y-75266503D01*
X177859985Y-75242959D01*
X177809397Y-75120827D01*
X177809390Y-75120814D01*
X177721789Y-74989711D01*
X177721786Y-74989707D01*
X177610292Y-74878213D01*
X177610288Y-74878210D01*
X177520429Y-74818168D01*
X177479185Y-74790609D01*
X177479172Y-74790602D01*
X177333501Y-74730264D01*
X177333489Y-74730261D01*
X177287701Y-74721153D01*
X187799500Y-74721153D01*
X187799500Y-74878846D01*
X187830261Y-75033489D01*
X187830264Y-75033501D01*
X187890602Y-75179172D01*
X187890609Y-75179185D01*
X187978210Y-75310288D01*
X187978213Y-75310292D01*
X188089707Y-75421786D01*
X188089711Y-75421789D01*
X188220814Y-75509390D01*
X188220827Y-75509397D01*
X188336361Y-75557252D01*
X188366503Y-75569737D01*
X188510822Y-75598444D01*
X188521153Y-75600499D01*
X188521156Y-75600500D01*
X188521158Y-75600500D01*
X188678843Y-75600500D01*
X188712425Y-75593819D01*
X188780106Y-75580357D01*
X188849696Y-75586584D01*
X188904874Y-75629446D01*
X188928119Y-75695336D01*
X188912052Y-75763333D01*
X188907400Y-75770864D01*
X188840626Y-75870798D01*
X188840620Y-75870809D01*
X188780282Y-76016480D01*
X188780279Y-76016492D01*
X188749518Y-76171135D01*
X188749518Y-76328828D01*
X188780279Y-76483471D01*
X188780282Y-76483483D01*
X188840620Y-76629154D01*
X188840627Y-76629167D01*
X188928228Y-76760270D01*
X188928231Y-76760274D01*
X189039725Y-76871768D01*
X189039729Y-76871771D01*
X189170832Y-76959372D01*
X189170845Y-76959379D01*
X189316516Y-77019717D01*
X189316521Y-77019719D01*
X189471171Y-77050481D01*
X189471174Y-77050482D01*
X189471176Y-77050482D01*
X189628862Y-77050482D01*
X189628863Y-77050481D01*
X189783515Y-77019719D01*
X189929197Y-76959376D01*
X190060307Y-76871771D01*
X190171807Y-76760271D01*
X190259412Y-76629161D01*
X190319755Y-76483479D01*
X190350518Y-76328824D01*
X190350518Y-76171140D01*
X190350518Y-76171137D01*
X190350517Y-76171135D01*
X190336018Y-76098245D01*
X190319755Y-76016485D01*
X190312323Y-75998543D01*
X190259415Y-75870809D01*
X190259408Y-75870796D01*
X190171807Y-75739693D01*
X190171804Y-75739689D01*
X190060310Y-75628195D01*
X190060306Y-75628192D01*
X189929203Y-75540591D01*
X189929190Y-75540584D01*
X189783519Y-75480246D01*
X189783507Y-75480243D01*
X189628863Y-75449482D01*
X189628860Y-75449482D01*
X189471176Y-75449482D01*
X189471171Y-75449482D01*
X189369911Y-75469624D01*
X189300319Y-75463397D01*
X189245142Y-75420534D01*
X189221898Y-75354644D01*
X189237966Y-75286647D01*
X189242618Y-75279116D01*
X189266776Y-75242961D01*
X189309394Y-75179179D01*
X189369737Y-75033497D01*
X189400500Y-74878842D01*
X189400500Y-74721158D01*
X189400500Y-74721155D01*
X189400499Y-74721153D01*
X191399500Y-74721153D01*
X191399500Y-74878846D01*
X191430261Y-75033489D01*
X191430264Y-75033501D01*
X191490602Y-75179172D01*
X191490609Y-75179185D01*
X191578210Y-75310288D01*
X191578213Y-75310292D01*
X191689707Y-75421786D01*
X191689711Y-75421789D01*
X191820814Y-75509390D01*
X191820821Y-75509394D01*
X191830522Y-75513412D01*
X191884926Y-75557252D01*
X191906992Y-75623546D01*
X191889714Y-75691246D01*
X191851962Y-75731076D01*
X191748503Y-75800205D01*
X191748499Y-75800208D01*
X191637005Y-75911702D01*
X191637002Y-75911706D01*
X191549401Y-76042809D01*
X191549394Y-76042822D01*
X191489056Y-76188493D01*
X191489053Y-76188505D01*
X191458292Y-76343148D01*
X191458292Y-76500841D01*
X191489053Y-76655484D01*
X191489056Y-76655496D01*
X191549394Y-76801167D01*
X191549401Y-76801180D01*
X191637002Y-76932283D01*
X191637005Y-76932287D01*
X191748499Y-77043781D01*
X191748503Y-77043784D01*
X191879606Y-77131385D01*
X191879619Y-77131392D01*
X192025290Y-77191730D01*
X192025295Y-77191732D01*
X192179945Y-77222494D01*
X192179948Y-77222495D01*
X192179950Y-77222495D01*
X192337636Y-77222495D01*
X192337637Y-77222494D01*
X192492289Y-77191732D01*
X192637971Y-77131389D01*
X192769081Y-77043784D01*
X192880581Y-76932284D01*
X192968186Y-76801174D01*
X192974210Y-76786632D01*
X193005831Y-76710291D01*
X193028529Y-76655492D01*
X193059292Y-76500837D01*
X193059292Y-76343153D01*
X193059292Y-76343150D01*
X193059291Y-76343148D01*
X193050808Y-76300500D01*
X193028529Y-76188498D01*
X193005353Y-76132545D01*
X192968189Y-76042822D01*
X192968182Y-76042809D01*
X192880581Y-75911706D01*
X192880578Y-75911702D01*
X192769084Y-75800208D01*
X192769080Y-75800205D01*
X192637977Y-75712604D01*
X192637965Y-75712598D01*
X192628265Y-75708580D01*
X192573863Y-75664738D01*
X192551799Y-75598444D01*
X192569079Y-75530745D01*
X192606826Y-75490920D01*
X192710289Y-75421789D01*
X192821789Y-75310289D01*
X192909394Y-75179179D01*
X192969737Y-75033497D01*
X193000500Y-74878842D01*
X193000500Y-74721158D01*
X193000500Y-74721155D01*
X193000499Y-74721153D01*
X192993632Y-74686632D01*
X192969737Y-74566503D01*
X192926541Y-74462218D01*
X192909397Y-74420827D01*
X192909390Y-74420814D01*
X192821789Y-74289711D01*
X192821786Y-74289707D01*
X192710292Y-74178213D01*
X192710288Y-74178210D01*
X192579185Y-74090609D01*
X192579172Y-74090602D01*
X192433501Y-74030264D01*
X192433489Y-74030261D01*
X192278845Y-73999500D01*
X192278842Y-73999500D01*
X192121158Y-73999500D01*
X192121155Y-73999500D01*
X191966510Y-74030261D01*
X191966498Y-74030264D01*
X191820827Y-74090602D01*
X191820814Y-74090609D01*
X191689711Y-74178210D01*
X191689707Y-74178213D01*
X191578213Y-74289707D01*
X191578210Y-74289711D01*
X191490609Y-74420814D01*
X191490602Y-74420827D01*
X191430264Y-74566498D01*
X191430261Y-74566510D01*
X191399500Y-74721153D01*
X189400499Y-74721153D01*
X189393632Y-74686632D01*
X189369737Y-74566503D01*
X189326541Y-74462218D01*
X189309397Y-74420827D01*
X189309390Y-74420814D01*
X189221789Y-74289711D01*
X189221786Y-74289707D01*
X189110292Y-74178213D01*
X189110288Y-74178210D01*
X188979185Y-74090609D01*
X188979172Y-74090602D01*
X188833501Y-74030264D01*
X188833489Y-74030261D01*
X188678845Y-73999500D01*
X188678842Y-73999500D01*
X188521158Y-73999500D01*
X188521155Y-73999500D01*
X188366510Y-74030261D01*
X188366498Y-74030264D01*
X188220827Y-74090602D01*
X188220814Y-74090609D01*
X188089711Y-74178210D01*
X188089707Y-74178213D01*
X187978213Y-74289707D01*
X187978210Y-74289711D01*
X187890609Y-74420814D01*
X187890602Y-74420827D01*
X187830264Y-74566498D01*
X187830261Y-74566510D01*
X187799500Y-74721153D01*
X177287701Y-74721153D01*
X177178845Y-74699500D01*
X177178842Y-74699500D01*
X177021158Y-74699500D01*
X177021155Y-74699500D01*
X176866510Y-74730261D01*
X176866498Y-74730264D01*
X176720827Y-74790602D01*
X176720814Y-74790609D01*
X176589711Y-74878210D01*
X176589707Y-74878213D01*
X176478213Y-74989707D01*
X176401638Y-75104309D01*
X176348025Y-75149113D01*
X176278700Y-75157820D01*
X176251084Y-75149978D01*
X176118384Y-75095012D01*
X176118372Y-75095009D01*
X175963728Y-75064248D01*
X175963725Y-75064248D01*
X175806041Y-75064248D01*
X175806038Y-75064248D01*
X175651393Y-75095009D01*
X175651381Y-75095012D01*
X175505710Y-75155350D01*
X175505697Y-75155357D01*
X175374594Y-75242958D01*
X175374590Y-75242961D01*
X175263096Y-75354455D01*
X175263093Y-75354459D01*
X175175492Y-75485562D01*
X175175485Y-75485575D01*
X175115147Y-75631246D01*
X175115144Y-75631258D01*
X175084383Y-75785901D01*
X174086062Y-75785901D01*
X174021789Y-75689710D01*
X174021786Y-75689706D01*
X173910292Y-75578212D01*
X173910288Y-75578209D01*
X173779185Y-75490608D01*
X173779172Y-75490601D01*
X173633501Y-75430263D01*
X173633489Y-75430260D01*
X173478845Y-75399499D01*
X173478842Y-75399499D01*
X173321158Y-75399499D01*
X173321155Y-75399499D01*
X173166510Y-75430260D01*
X173166498Y-75430263D01*
X173020827Y-75490601D01*
X173020814Y-75490608D01*
X172889711Y-75578209D01*
X172889707Y-75578212D01*
X172778213Y-75689706D01*
X172778210Y-75689710D01*
X172690609Y-75820813D01*
X172690602Y-75820826D01*
X172630264Y-75966497D01*
X172630261Y-75966509D01*
X172599500Y-76121152D01*
X165600499Y-76121152D01*
X165569737Y-75966503D01*
X165558415Y-75939168D01*
X165520425Y-75847452D01*
X165512956Y-75777983D01*
X165520425Y-75752548D01*
X165546455Y-75689706D01*
X165569737Y-75633497D01*
X165600500Y-75478842D01*
X165600500Y-75321158D01*
X165600500Y-75321155D01*
X165600499Y-75321153D01*
X165589627Y-75266498D01*
X165569737Y-75166503D01*
X165569735Y-75166498D01*
X165509397Y-75020827D01*
X165509390Y-75020814D01*
X165421789Y-74889711D01*
X165421786Y-74889707D01*
X165310292Y-74778213D01*
X165310288Y-74778210D01*
X165179185Y-74690609D01*
X165179172Y-74690602D01*
X165033501Y-74630264D01*
X165033489Y-74630261D01*
X164878845Y-74599500D01*
X164878842Y-74599500D01*
X164721158Y-74599500D01*
X164721155Y-74599500D01*
X164566510Y-74630261D01*
X164566498Y-74630264D01*
X164420827Y-74690602D01*
X164420814Y-74690609D01*
X164289711Y-74778210D01*
X164289707Y-74778213D01*
X164178213Y-74889707D01*
X164178210Y-74889711D01*
X164090609Y-75020814D01*
X164090602Y-75020827D01*
X164030264Y-75166498D01*
X164030261Y-75166510D01*
X163999500Y-75321153D01*
X163500500Y-75321153D01*
X163500500Y-71921153D01*
X165599500Y-71921153D01*
X165599500Y-72078846D01*
X165630261Y-72233489D01*
X165630264Y-72233501D01*
X165679574Y-72352548D01*
X165687043Y-72422018D01*
X165679574Y-72447452D01*
X165630264Y-72566498D01*
X165630261Y-72566510D01*
X165599500Y-72721153D01*
X165599500Y-72878846D01*
X165630261Y-73033489D01*
X165630264Y-73033501D01*
X165690602Y-73179172D01*
X165690609Y-73179185D01*
X165778210Y-73310288D01*
X165778213Y-73310292D01*
X165889707Y-73421786D01*
X165889711Y-73421789D01*
X166020814Y-73509390D01*
X166020827Y-73509397D01*
X166166498Y-73569735D01*
X166166503Y-73569737D01*
X166321153Y-73600499D01*
X166321156Y-73600500D01*
X166321158Y-73600500D01*
X166478844Y-73600500D01*
X166478845Y-73600499D01*
X166633497Y-73569737D01*
X166779179Y-73509394D01*
X166910289Y-73421789D01*
X167021789Y-73310289D01*
X167046014Y-73274033D01*
X182752380Y-73274033D01*
X182752380Y-73431726D01*
X182783141Y-73586369D01*
X182783144Y-73586381D01*
X182843482Y-73732052D01*
X182843489Y-73732065D01*
X182931090Y-73863168D01*
X182931093Y-73863172D01*
X183042587Y-73974666D01*
X183042591Y-73974669D01*
X183173694Y-74062270D01*
X183173707Y-74062277D01*
X183275190Y-74104312D01*
X183319383Y-74122617D01*
X183474033Y-74153379D01*
X183474036Y-74153380D01*
X183474038Y-74153380D01*
X183631724Y-74153380D01*
X183631725Y-74153379D01*
X183786377Y-74122617D01*
X183932059Y-74062274D01*
X184063169Y-73974669D01*
X184139295Y-73898543D01*
X201249499Y-73898543D01*
X201287947Y-74091829D01*
X201287950Y-74091839D01*
X201363364Y-74273907D01*
X201363371Y-74273920D01*
X201472860Y-74437781D01*
X201472863Y-74437785D01*
X201612214Y-74577136D01*
X201612218Y-74577139D01*
X201776079Y-74686628D01*
X201776092Y-74686635D01*
X201958160Y-74762049D01*
X201958165Y-74762051D01*
X201958169Y-74762051D01*
X201958170Y-74762052D01*
X202151456Y-74800500D01*
X202151459Y-74800500D01*
X202348543Y-74800500D01*
X202478582Y-74774632D01*
X202541835Y-74762051D01*
X202714320Y-74690606D01*
X202723907Y-74686635D01*
X202723907Y-74686634D01*
X202723914Y-74686632D01*
X202814538Y-74626079D01*
X202881109Y-74581598D01*
X202947787Y-74560720D01*
X203015167Y-74579204D01*
X203018891Y-74581598D01*
X203176079Y-74686628D01*
X203176092Y-74686635D01*
X203358160Y-74762049D01*
X203358165Y-74762051D01*
X203358169Y-74762051D01*
X203358170Y-74762052D01*
X203551456Y-74800500D01*
X203725500Y-74800500D01*
X203792539Y-74820185D01*
X203838294Y-74872989D01*
X203849500Y-74924500D01*
X203849500Y-75114486D01*
X203879059Y-75301118D01*
X203937454Y-75480836D01*
X204014095Y-75631251D01*
X204023240Y-75649199D01*
X204134310Y-75802073D01*
X204267927Y-75935690D01*
X204420801Y-76046760D01*
X204500347Y-76087290D01*
X204589163Y-76132545D01*
X204589165Y-76132545D01*
X204589168Y-76132547D01*
X204685497Y-76163846D01*
X204768881Y-76190940D01*
X204955514Y-76220500D01*
X204955519Y-76220500D01*
X205144486Y-76220500D01*
X205331118Y-76190940D01*
X205338649Y-76188493D01*
X205510832Y-76132547D01*
X205679199Y-76046760D01*
X205745564Y-75998543D01*
X206749499Y-75998543D01*
X206787947Y-76191829D01*
X206787950Y-76191839D01*
X206863364Y-76373907D01*
X206863371Y-76373920D01*
X206972860Y-76537781D01*
X206972863Y-76537785D01*
X207112214Y-76677136D01*
X207112218Y-76677139D01*
X207276079Y-76786628D01*
X207276092Y-76786635D01*
X207458160Y-76862049D01*
X207458165Y-76862051D01*
X207458169Y-76862051D01*
X207458170Y-76862052D01*
X207651456Y-76900500D01*
X207651459Y-76900500D01*
X207848543Y-76900500D01*
X207992985Y-76871768D01*
X208041835Y-76862051D01*
X208223914Y-76786632D01*
X208387782Y-76677139D01*
X208527139Y-76537782D01*
X208636632Y-76373914D01*
X208664964Y-76305513D01*
X211699500Y-76305513D01*
X211699500Y-77094486D01*
X211729059Y-77281118D01*
X211787454Y-77460836D01*
X211868968Y-77620814D01*
X211873240Y-77629199D01*
X211984310Y-77782073D01*
X212117927Y-77915690D01*
X212117930Y-77915692D01*
X212117933Y-77915694D01*
X212164713Y-77949683D01*
X212207379Y-78005013D01*
X212213357Y-78074626D01*
X212180751Y-78136421D01*
X212164713Y-78150317D01*
X212117933Y-78184305D01*
X212117924Y-78184312D01*
X211984312Y-78317924D01*
X211984312Y-78317925D01*
X211984310Y-78317927D01*
X211963803Y-78346153D01*
X211873240Y-78470800D01*
X211787454Y-78639163D01*
X211729059Y-78818881D01*
X211699500Y-79005513D01*
X211699500Y-79794486D01*
X211729059Y-79981118D01*
X211787454Y-80160836D01*
X211873240Y-80329199D01*
X211984310Y-80482073D01*
X212117927Y-80615690D01*
X212270801Y-80726760D01*
X212350347Y-80767290D01*
X212439163Y-80812545D01*
X212439165Y-80812545D01*
X212439168Y-80812547D01*
X212535497Y-80843846D01*
X212618881Y-80870940D01*
X212805514Y-80900500D01*
X212805519Y-80900500D01*
X212994486Y-80900500D01*
X213181118Y-80870940D01*
X213207961Y-80862218D01*
X213360832Y-80812547D01*
X213529199Y-80726760D01*
X213682073Y-80615690D01*
X213815690Y-80482073D01*
X213926760Y-80329199D01*
X214012547Y-80160832D01*
X214070940Y-79981118D01*
X214092626Y-79844199D01*
X214100500Y-79794486D01*
X214100500Y-79005513D01*
X214070940Y-78818881D01*
X214035365Y-78709394D01*
X214012547Y-78639168D01*
X213999412Y-78613389D01*
X215049500Y-78613389D01*
X215049500Y-78786611D01*
X215054611Y-78818881D01*
X215071418Y-78925000D01*
X215076598Y-78957701D01*
X215126178Y-79110292D01*
X215130128Y-79122447D01*
X215165317Y-79191510D01*
X215208768Y-79276788D01*
X215310586Y-79416928D01*
X215433072Y-79539414D01*
X215573212Y-79641232D01*
X215727555Y-79719873D01*
X215892299Y-79773402D01*
X216063389Y-79800500D01*
X216063390Y-79800500D01*
X216236610Y-79800500D01*
X216236611Y-79800500D01*
X216407701Y-79773402D01*
X216572445Y-79719873D01*
X216726788Y-79641232D01*
X216866928Y-79539414D01*
X216989414Y-79416928D01*
X217091232Y-79276788D01*
X217169873Y-79122445D01*
X217223402Y-78957701D01*
X217250500Y-78786611D01*
X217250500Y-78613389D01*
X217223402Y-78442299D01*
X217169873Y-78277555D01*
X217091232Y-78123212D01*
X216989414Y-77983072D01*
X216866928Y-77860586D01*
X216726788Y-77758768D01*
X216572445Y-77680127D01*
X216407701Y-77626598D01*
X216407699Y-77626597D01*
X216407698Y-77626597D01*
X216276271Y-77605781D01*
X216236611Y-77599500D01*
X216063389Y-77599500D01*
X216023728Y-77605781D01*
X215892302Y-77626597D01*
X215727552Y-77680128D01*
X215573211Y-77758768D01*
X215512039Y-77803213D01*
X215433072Y-77860586D01*
X215433070Y-77860588D01*
X215433069Y-77860588D01*
X215310588Y-77983069D01*
X215310588Y-77983070D01*
X215310586Y-77983072D01*
X215294645Y-78005013D01*
X215208768Y-78123211D01*
X215130128Y-78277552D01*
X215076597Y-78442302D01*
X215049500Y-78613389D01*
X213999412Y-78613389D01*
X213926760Y-78470801D01*
X213815690Y-78317927D01*
X213682073Y-78184310D01*
X213635286Y-78150317D01*
X213592621Y-78094988D01*
X213586642Y-78025375D01*
X213619248Y-77963580D01*
X213635287Y-77949682D01*
X213682073Y-77915690D01*
X213815690Y-77782073D01*
X213926760Y-77629199D01*
X214012547Y-77460832D01*
X214070940Y-77281118D01*
X214100500Y-77094486D01*
X214100500Y-76305513D01*
X214070940Y-76118881D01*
X214031839Y-75998543D01*
X214012547Y-75939168D01*
X214012545Y-75939165D01*
X214012545Y-75939163D01*
X213970651Y-75856942D01*
X213962785Y-75841504D01*
X213944447Y-75805513D01*
X218199500Y-75805513D01*
X218199500Y-76594486D01*
X218229059Y-76781118D01*
X218287454Y-76960836D01*
X218355550Y-77094481D01*
X218373240Y-77129199D01*
X218484310Y-77282073D01*
X218617927Y-77415690D01*
X218617930Y-77415692D01*
X218617933Y-77415694D01*
X218664713Y-77449683D01*
X218707379Y-77505013D01*
X218713357Y-77574626D01*
X218680751Y-77636421D01*
X218664713Y-77650317D01*
X218617933Y-77684305D01*
X218617924Y-77684312D01*
X218484312Y-77817924D01*
X218484312Y-77817925D01*
X218484310Y-77817927D01*
X218475347Y-77830264D01*
X218373240Y-77970800D01*
X218287454Y-78139163D01*
X218229059Y-78318881D01*
X218199500Y-78505513D01*
X218199500Y-79294486D01*
X218229059Y-79481118D01*
X218287454Y-79660836D01*
X218344810Y-79773402D01*
X218373240Y-79829199D01*
X218484310Y-79982073D01*
X218617927Y-80115690D01*
X218617930Y-80115692D01*
X218617933Y-80115694D01*
X218664713Y-80149683D01*
X218707379Y-80205013D01*
X218713357Y-80274626D01*
X218680751Y-80336421D01*
X218664713Y-80350317D01*
X218617936Y-80384303D01*
X218617924Y-80384312D01*
X218484312Y-80517924D01*
X218484312Y-80517925D01*
X218484310Y-80517927D01*
X218469763Y-80537949D01*
X218373240Y-80670800D01*
X218287454Y-80839163D01*
X218229059Y-81018881D01*
X218199500Y-81205513D01*
X218199500Y-81994486D01*
X218229059Y-82181118D01*
X218287454Y-82360836D01*
X218338130Y-82460292D01*
X218373240Y-82529199D01*
X218484310Y-82682073D01*
X218617927Y-82815690D01*
X218770801Y-82926760D01*
X218850347Y-82967290D01*
X218939163Y-83012545D01*
X218939165Y-83012545D01*
X218939168Y-83012547D01*
X219026986Y-83041081D01*
X219118881Y-83070940D01*
X219305514Y-83100500D01*
X219305519Y-83100500D01*
X219494486Y-83100500D01*
X219681118Y-83070940D01*
X219860832Y-83012547D01*
X220029199Y-82926760D01*
X220182073Y-82815690D01*
X220315690Y-82682073D01*
X220426760Y-82529199D01*
X220512547Y-82360832D01*
X220570940Y-82181118D01*
X220588925Y-82067565D01*
X220600500Y-81994486D01*
X220600500Y-81205513D01*
X220570940Y-81018881D01*
X220512545Y-80839163D01*
X220426759Y-80670800D01*
X220386719Y-80615690D01*
X220315690Y-80517927D01*
X220182073Y-80384310D01*
X220135286Y-80350317D01*
X220092621Y-80294988D01*
X220086642Y-80225375D01*
X220119248Y-80163580D01*
X220135287Y-80149682D01*
X220182073Y-80115690D01*
X220315690Y-79982073D01*
X220426760Y-79829199D01*
X220512547Y-79660832D01*
X220570940Y-79481118D01*
X220600500Y-79294486D01*
X220600500Y-78505513D01*
X220570940Y-78318881D01*
X220543194Y-78233489D01*
X220512547Y-78139168D01*
X220512545Y-78139165D01*
X220512545Y-78139163D01*
X220433011Y-77983070D01*
X220426760Y-77970801D01*
X220315690Y-77817927D01*
X220182073Y-77684310D01*
X220135286Y-77650317D01*
X220092621Y-77594988D01*
X220086642Y-77525375D01*
X220119248Y-77463580D01*
X220135287Y-77449682D01*
X220182073Y-77415690D01*
X220315690Y-77282073D01*
X220426760Y-77129199D01*
X220512547Y-76960832D01*
X220570940Y-76781118D01*
X220582158Y-76710289D01*
X220600500Y-76594486D01*
X220600500Y-75805513D01*
X220570940Y-75618881D01*
X220529259Y-75490601D01*
X220512547Y-75439168D01*
X220512545Y-75439165D01*
X220512545Y-75439163D01*
X220452418Y-75321158D01*
X220426760Y-75270801D01*
X220315690Y-75117927D01*
X220182073Y-74984310D01*
X220029199Y-74873240D01*
X220028706Y-74872989D01*
X219860836Y-74787454D01*
X219681118Y-74729059D01*
X219494486Y-74699500D01*
X219494481Y-74699500D01*
X219305519Y-74699500D01*
X219305514Y-74699500D01*
X219118881Y-74729059D01*
X218939163Y-74787454D01*
X218770800Y-74873240D01*
X218700248Y-74924500D01*
X218617927Y-74984310D01*
X218617925Y-74984312D01*
X218617924Y-74984312D01*
X218484312Y-75117924D01*
X218484312Y-75117925D01*
X218484310Y-75117927D01*
X218455326Y-75157820D01*
X218373240Y-75270800D01*
X218287454Y-75439163D01*
X218229059Y-75618881D01*
X218199500Y-75805513D01*
X213944447Y-75805513D01*
X213926760Y-75770801D01*
X213815690Y-75617927D01*
X213682073Y-75484310D01*
X213529199Y-75373240D01*
X213360836Y-75287454D01*
X213181118Y-75229059D01*
X212994486Y-75199500D01*
X212994481Y-75199500D01*
X212805519Y-75199500D01*
X212805514Y-75199500D01*
X212618881Y-75229059D01*
X212439163Y-75287454D01*
X212270800Y-75373240D01*
X212204852Y-75421155D01*
X212117927Y-75484310D01*
X212117925Y-75484312D01*
X212117924Y-75484312D01*
X211984312Y-75617924D01*
X211984312Y-75617925D01*
X211984310Y-75617927D01*
X211959367Y-75652258D01*
X211873240Y-75770800D01*
X211787454Y-75939163D01*
X211729059Y-76118881D01*
X211699500Y-76305513D01*
X208664964Y-76305513D01*
X208712051Y-76191835D01*
X208726110Y-76121156D01*
X208750500Y-75998543D01*
X208750500Y-75001456D01*
X208712052Y-74808170D01*
X208712051Y-74808169D01*
X208712051Y-74808165D01*
X208699643Y-74778210D01*
X208636635Y-74626092D01*
X208636628Y-74626079D01*
X208527139Y-74462218D01*
X208527136Y-74462214D01*
X208387785Y-74322863D01*
X208387781Y-74322860D01*
X208223920Y-74213371D01*
X208223907Y-74213364D01*
X208041839Y-74137950D01*
X208041829Y-74137947D01*
X207848543Y-74099500D01*
X207848541Y-74099500D01*
X207651459Y-74099500D01*
X207651457Y-74099500D01*
X207458170Y-74137947D01*
X207458160Y-74137950D01*
X207276092Y-74213364D01*
X207276079Y-74213371D01*
X207112218Y-74322860D01*
X207112214Y-74322863D01*
X206972863Y-74462214D01*
X206972860Y-74462218D01*
X206863371Y-74626079D01*
X206863364Y-74626092D01*
X206787950Y-74808160D01*
X206787947Y-74808170D01*
X206749500Y-75001456D01*
X206749500Y-75001459D01*
X206749500Y-75998541D01*
X206749500Y-75998543D01*
X206749499Y-75998543D01*
X205745564Y-75998543D01*
X205832073Y-75935690D01*
X205965690Y-75802073D01*
X206076760Y-75649199D01*
X206162547Y-75480832D01*
X206220940Y-75301118D01*
X206226421Y-75266510D01*
X206250500Y-75114486D01*
X206250500Y-74925513D01*
X206220940Y-74738881D01*
X206168385Y-74577136D01*
X206162547Y-74559168D01*
X206162545Y-74559165D01*
X206162545Y-74559163D01*
X206076759Y-74390800D01*
X205965690Y-74237927D01*
X205832073Y-74104310D01*
X205679199Y-73993240D01*
X205510836Y-73907454D01*
X205331118Y-73849059D01*
X205144486Y-73819500D01*
X205144481Y-73819500D01*
X204955519Y-73819500D01*
X204955514Y-73819500D01*
X204793898Y-73845097D01*
X204724604Y-73836142D01*
X204671152Y-73791146D01*
X204650513Y-73724394D01*
X204650500Y-73722624D01*
X204650500Y-72901456D01*
X204612052Y-72708170D01*
X204612051Y-72708169D01*
X204612051Y-72708165D01*
X204585262Y-72643489D01*
X204536635Y-72526092D01*
X204536628Y-72526079D01*
X204427139Y-72362218D01*
X204427136Y-72362214D01*
X204287785Y-72222863D01*
X204287781Y-72222860D01*
X204123920Y-72113371D01*
X204123907Y-72113364D01*
X203941839Y-72037950D01*
X203941829Y-72037947D01*
X203748543Y-71999500D01*
X203748541Y-71999500D01*
X203551459Y-71999500D01*
X203551457Y-71999500D01*
X203358170Y-72037947D01*
X203358160Y-72037950D01*
X203176092Y-72113364D01*
X203176074Y-72113374D01*
X203018890Y-72218401D01*
X202952213Y-72239279D01*
X202884833Y-72220794D01*
X202881110Y-72218401D01*
X202723925Y-72113374D01*
X202723907Y-72113364D01*
X202541839Y-72037950D01*
X202541829Y-72037947D01*
X202348543Y-71999500D01*
X202348541Y-71999500D01*
X202151459Y-71999500D01*
X202151457Y-71999500D01*
X201958170Y-72037947D01*
X201958160Y-72037950D01*
X201776092Y-72113364D01*
X201776079Y-72113371D01*
X201612218Y-72222860D01*
X201612214Y-72222863D01*
X201472863Y-72362214D01*
X201472860Y-72362218D01*
X201363371Y-72526079D01*
X201363364Y-72526092D01*
X201287950Y-72708160D01*
X201287947Y-72708170D01*
X201249500Y-72901456D01*
X201249500Y-72901459D01*
X201249500Y-73898541D01*
X201249500Y-73898543D01*
X201249499Y-73898543D01*
X184139295Y-73898543D01*
X184174669Y-73863169D01*
X184262274Y-73732059D01*
X184322617Y-73586377D01*
X184353380Y-73431722D01*
X184353380Y-73274038D01*
X184353380Y-73274035D01*
X184353379Y-73274033D01*
X184322618Y-73119390D01*
X184322617Y-73119383D01*
X184287039Y-73033489D01*
X184262277Y-72973707D01*
X184262270Y-72973694D01*
X184255965Y-72964258D01*
X184174669Y-72842591D01*
X184174666Y-72842587D01*
X184063172Y-72731093D01*
X184063168Y-72731090D01*
X183932065Y-72643489D01*
X183932052Y-72643482D01*
X183786381Y-72583144D01*
X183786369Y-72583141D01*
X183631725Y-72552380D01*
X183631722Y-72552380D01*
X183474038Y-72552380D01*
X183474035Y-72552380D01*
X183319390Y-72583141D01*
X183319378Y-72583144D01*
X183173707Y-72643482D01*
X183173694Y-72643489D01*
X183042591Y-72731090D01*
X183042587Y-72731093D01*
X182931093Y-72842587D01*
X182931090Y-72842591D01*
X182843489Y-72973694D01*
X182843482Y-72973707D01*
X182783144Y-73119378D01*
X182783141Y-73119390D01*
X182752380Y-73274033D01*
X167046014Y-73274033D01*
X167057217Y-73257266D01*
X167096114Y-73199055D01*
X167109390Y-73179185D01*
X167109390Y-73179184D01*
X167109394Y-73179179D01*
X167169737Y-73033497D01*
X167200500Y-72878842D01*
X167200500Y-72721158D01*
X167200500Y-72721155D01*
X167200499Y-72721153D01*
X167169737Y-72566503D01*
X167120425Y-72447452D01*
X167112956Y-72377983D01*
X167120425Y-72352548D01*
X167169735Y-72233501D01*
X167169737Y-72233497D01*
X167200500Y-72078842D01*
X167200500Y-71921158D01*
X167200500Y-71921155D01*
X167200499Y-71921153D01*
X167194099Y-71888977D01*
X167169737Y-71766503D01*
X167168084Y-71762512D01*
X167150953Y-71721153D01*
X168799500Y-71721153D01*
X168799500Y-71878846D01*
X168830261Y-72033489D01*
X168830264Y-72033501D01*
X168890602Y-72179172D01*
X168890609Y-72179185D01*
X168978210Y-72310288D01*
X168978213Y-72310292D01*
X169089707Y-72421786D01*
X169089711Y-72421789D01*
X169220814Y-72509390D01*
X169220827Y-72509397D01*
X169324599Y-72552380D01*
X169366503Y-72569737D01*
X169521153Y-72600499D01*
X169521156Y-72600500D01*
X169521158Y-72600500D01*
X169678844Y-72600500D01*
X169678845Y-72600499D01*
X169833497Y-72569737D01*
X169979179Y-72509394D01*
X170110289Y-72421789D01*
X170221789Y-72310289D01*
X170309394Y-72179179D01*
X170369737Y-72033497D01*
X170400500Y-71878842D01*
X170400500Y-71721158D01*
X170400500Y-71721155D01*
X170400499Y-71721153D01*
X170382274Y-71629529D01*
X170369737Y-71566503D01*
X170346452Y-71510288D01*
X170309397Y-71420827D01*
X170309390Y-71420814D01*
X170284763Y-71383957D01*
X170242799Y-71321153D01*
X178799500Y-71321153D01*
X178799500Y-71478846D01*
X178830261Y-71633489D01*
X178830264Y-71633501D01*
X178890602Y-71779172D01*
X178890609Y-71779185D01*
X178978210Y-71910288D01*
X178978213Y-71910292D01*
X179089707Y-72021786D01*
X179089711Y-72021789D01*
X179220814Y-72109390D01*
X179220827Y-72109397D01*
X179297685Y-72141232D01*
X179366503Y-72169737D01*
X179521153Y-72200499D01*
X179521156Y-72200500D01*
X179521158Y-72200500D01*
X179678844Y-72200500D01*
X179678845Y-72200499D01*
X179833497Y-72169737D01*
X179946166Y-72123067D01*
X179979172Y-72109397D01*
X179979172Y-72109396D01*
X179979179Y-72109394D01*
X180110289Y-72021789D01*
X180221789Y-71910289D01*
X180309394Y-71779179D01*
X180369737Y-71633497D01*
X180400500Y-71478842D01*
X180400500Y-71321158D01*
X180400500Y-71321155D01*
X180400499Y-71321153D01*
X180393287Y-71284898D01*
X180369737Y-71166503D01*
X180369735Y-71166498D01*
X180309397Y-71020827D01*
X180309390Y-71020814D01*
X180221789Y-70889711D01*
X180221786Y-70889707D01*
X180110292Y-70778213D01*
X180110288Y-70778210D01*
X179979185Y-70690609D01*
X179979172Y-70690602D01*
X179833501Y-70630264D01*
X179833489Y-70630261D01*
X179678845Y-70599500D01*
X179678842Y-70599500D01*
X179521158Y-70599500D01*
X179521155Y-70599500D01*
X179366510Y-70630261D01*
X179366498Y-70630264D01*
X179220827Y-70690602D01*
X179220814Y-70690609D01*
X179089711Y-70778210D01*
X179089707Y-70778213D01*
X178978213Y-70889707D01*
X178978210Y-70889711D01*
X178890609Y-71020814D01*
X178890602Y-71020827D01*
X178830264Y-71166498D01*
X178830261Y-71166510D01*
X178799500Y-71321153D01*
X170242799Y-71321153D01*
X170218574Y-71284898D01*
X170197696Y-71218220D01*
X170216181Y-71150840D01*
X170268160Y-71104150D01*
X170274211Y-71101451D01*
X170279179Y-71099394D01*
X170410289Y-71011789D01*
X170521789Y-70900289D01*
X170609394Y-70769179D01*
X170610503Y-70766503D01*
X170634156Y-70709397D01*
X170669737Y-70623497D01*
X170700500Y-70468842D01*
X170700500Y-70311158D01*
X170700500Y-70311155D01*
X170700499Y-70311153D01*
X170698667Y-70301941D01*
X170669737Y-70156503D01*
X170655042Y-70121026D01*
X170609397Y-70010827D01*
X170609390Y-70010814D01*
X170521789Y-69879711D01*
X170521786Y-69879707D01*
X170410292Y-69768213D01*
X170410288Y-69768210D01*
X170279185Y-69680609D01*
X170279172Y-69680602D01*
X170133501Y-69620264D01*
X170133489Y-69620261D01*
X169978845Y-69589500D01*
X169978842Y-69589500D01*
X169821158Y-69589500D01*
X169821155Y-69589500D01*
X169666510Y-69620261D01*
X169666498Y-69620264D01*
X169520827Y-69680602D01*
X169520814Y-69680609D01*
X169389711Y-69768210D01*
X169389707Y-69768213D01*
X169278213Y-69879707D01*
X169278210Y-69879711D01*
X169190609Y-70010814D01*
X169190602Y-70010827D01*
X169130264Y-70156498D01*
X169130261Y-70156510D01*
X169099500Y-70311153D01*
X169099500Y-70468846D01*
X169130261Y-70623489D01*
X169130264Y-70623501D01*
X169190602Y-70769172D01*
X169190612Y-70769190D01*
X169281425Y-70905102D01*
X169302303Y-70971779D01*
X169283818Y-71039159D01*
X169231839Y-71085849D01*
X169225779Y-71088552D01*
X169220823Y-71090604D01*
X169220814Y-71090609D01*
X169089711Y-71178210D01*
X169089707Y-71178213D01*
X168978213Y-71289707D01*
X168978210Y-71289711D01*
X168890609Y-71420814D01*
X168890602Y-71420827D01*
X168830264Y-71566498D01*
X168830261Y-71566510D01*
X168799500Y-71721153D01*
X167150953Y-71721153D01*
X167109397Y-71620827D01*
X167109390Y-71620814D01*
X167021789Y-71489711D01*
X167021786Y-71489707D01*
X166910292Y-71378213D01*
X166910288Y-71378210D01*
X166779185Y-71290609D01*
X166779172Y-71290602D01*
X166633501Y-71230264D01*
X166633489Y-71230261D01*
X166478845Y-71199500D01*
X166478842Y-71199500D01*
X166321158Y-71199500D01*
X166321155Y-71199500D01*
X166166510Y-71230261D01*
X166166498Y-71230264D01*
X166020827Y-71290602D01*
X166020814Y-71290609D01*
X165889711Y-71378210D01*
X165889707Y-71378213D01*
X165778213Y-71489707D01*
X165778210Y-71489711D01*
X165690609Y-71620814D01*
X165690602Y-71620827D01*
X165630264Y-71766498D01*
X165630261Y-71766510D01*
X165599500Y-71921153D01*
X163500500Y-71921153D01*
X163500500Y-69332785D01*
X178363911Y-69332785D01*
X178363911Y-69490478D01*
X178394672Y-69645121D01*
X178394675Y-69645133D01*
X178455013Y-69790804D01*
X178455020Y-69790817D01*
X178542621Y-69921920D01*
X178542624Y-69921924D01*
X178654118Y-70033418D01*
X178654122Y-70033421D01*
X178785225Y-70121022D01*
X178785238Y-70121029D01*
X178927918Y-70180128D01*
X178930914Y-70181369D01*
X179077284Y-70210484D01*
X179085564Y-70212131D01*
X179085567Y-70212132D01*
X179085569Y-70212132D01*
X179243255Y-70212132D01*
X179243256Y-70212131D01*
X179397908Y-70181369D01*
X179543590Y-70121026D01*
X179674700Y-70033421D01*
X179786200Y-69921921D01*
X179873805Y-69790811D01*
X179882535Y-69769736D01*
X179901331Y-69724357D01*
X179906690Y-69711420D01*
X192149499Y-69711420D01*
X192178340Y-69856406D01*
X192178342Y-69856414D01*
X192212984Y-69940048D01*
X192220453Y-70009518D01*
X192212984Y-70034952D01*
X192178342Y-70118585D01*
X192178340Y-70118593D01*
X192149500Y-70263579D01*
X192149500Y-70263582D01*
X192149500Y-70411418D01*
X192149500Y-70411420D01*
X192149499Y-70411420D01*
X192178340Y-70556407D01*
X192178343Y-70556417D01*
X192234912Y-70692988D01*
X192234919Y-70693001D01*
X192317048Y-70815915D01*
X192317051Y-70815919D01*
X192421580Y-70920448D01*
X192421584Y-70920451D01*
X192544498Y-71002580D01*
X192544511Y-71002587D01*
X192681082Y-71059156D01*
X192681087Y-71059158D01*
X192681091Y-71059158D01*
X192681092Y-71059159D01*
X192826079Y-71088000D01*
X192826082Y-71088000D01*
X192973920Y-71088000D01*
X193071462Y-71068596D01*
X193118913Y-71059158D01*
X193227548Y-71014159D01*
X193297016Y-71006691D01*
X193322449Y-71014158D01*
X193431087Y-71059158D01*
X193431091Y-71059158D01*
X193431092Y-71059159D01*
X193576079Y-71088000D01*
X193576082Y-71088000D01*
X193723920Y-71088000D01*
X193821462Y-71068596D01*
X193868913Y-71059158D01*
X193977548Y-71014159D01*
X194047016Y-71006691D01*
X194072449Y-71014158D01*
X194181087Y-71059158D01*
X194181091Y-71059158D01*
X194181092Y-71059159D01*
X194326079Y-71088000D01*
X194326082Y-71088000D01*
X194473920Y-71088000D01*
X194571462Y-71068596D01*
X194618913Y-71059158D01*
X194755495Y-71002584D01*
X194755500Y-71002580D01*
X194755503Y-71002579D01*
X194801712Y-70971703D01*
X194868389Y-70950824D01*
X194935770Y-70969308D01*
X194982460Y-71021286D01*
X194993637Y-71090256D01*
X194992221Y-71098995D01*
X194975235Y-71184388D01*
X194975235Y-71342081D01*
X195005996Y-71496724D01*
X195005999Y-71496736D01*
X195066337Y-71642407D01*
X195066344Y-71642420D01*
X195153945Y-71773523D01*
X195153948Y-71773527D01*
X195265442Y-71885021D01*
X195265446Y-71885024D01*
X195396549Y-71972625D01*
X195396562Y-71972632D01*
X195542233Y-72032970D01*
X195542238Y-72032972D01*
X195696888Y-72063734D01*
X195696891Y-72063735D01*
X195696893Y-72063735D01*
X195854579Y-72063735D01*
X195854580Y-72063734D01*
X196009232Y-72032972D01*
X196154914Y-71972629D01*
X196234068Y-71919740D01*
X196291089Y-71881640D01*
X196291756Y-71882639D01*
X196350194Y-71857808D01*
X196412022Y-71866410D01*
X196466503Y-71888977D01*
X196607021Y-71916928D01*
X196621153Y-71919739D01*
X196621156Y-71919740D01*
X196621158Y-71919740D01*
X196778844Y-71919740D01*
X196778845Y-71919739D01*
X196933497Y-71888977D01*
X197046166Y-71842307D01*
X197079172Y-71828637D01*
X197079172Y-71828636D01*
X197079179Y-71828634D01*
X197210289Y-71741029D01*
X197321789Y-71629529D01*
X197409394Y-71498419D01*
X197432880Y-71441717D01*
X197476720Y-71387315D01*
X197543014Y-71365249D01*
X197594892Y-71374608D01*
X197642084Y-71394156D01*
X197796734Y-71424918D01*
X197796737Y-71424919D01*
X197796739Y-71424919D01*
X197954425Y-71424919D01*
X197954426Y-71424918D01*
X198109078Y-71394156D01*
X198209073Y-71352737D01*
X198248467Y-71336420D01*
X198317936Y-71328951D01*
X198344867Y-71338317D01*
X198345240Y-71337419D01*
X198482220Y-71394157D01*
X198496551Y-71400093D01*
X198621354Y-71424918D01*
X198651201Y-71430855D01*
X198651204Y-71430856D01*
X198651206Y-71430856D01*
X198808892Y-71430856D01*
X198808893Y-71430855D01*
X198963545Y-71400093D01*
X199077873Y-71352737D01*
X199109220Y-71339753D01*
X199109220Y-71339752D01*
X199109227Y-71339750D01*
X199240337Y-71252145D01*
X199351837Y-71140645D01*
X199439442Y-71009535D01*
X199476051Y-70921153D01*
X203799500Y-70921153D01*
X203799500Y-71078846D01*
X203830261Y-71233489D01*
X203830264Y-71233501D01*
X203890602Y-71379172D01*
X203890609Y-71379185D01*
X203978210Y-71510288D01*
X203978213Y-71510292D01*
X204089707Y-71621786D01*
X204089711Y-71621789D01*
X204220814Y-71709390D01*
X204220827Y-71709397D01*
X204358695Y-71766503D01*
X204366503Y-71769737D01*
X204521153Y-71800499D01*
X204521156Y-71800500D01*
X204521158Y-71800500D01*
X204678844Y-71800500D01*
X204678845Y-71800499D01*
X204833497Y-71769737D01*
X204979179Y-71709394D01*
X205110289Y-71621789D01*
X205221789Y-71510289D01*
X205309394Y-71379179D01*
X205369737Y-71233497D01*
X205392084Y-71121153D01*
X205999500Y-71121153D01*
X205999500Y-71278846D01*
X206030261Y-71433489D01*
X206030264Y-71433501D01*
X206090602Y-71579172D01*
X206090609Y-71579185D01*
X206178210Y-71710288D01*
X206178213Y-71710292D01*
X206289707Y-71821786D01*
X206289711Y-71821789D01*
X206420814Y-71909390D01*
X206420827Y-71909397D01*
X206566498Y-71969735D01*
X206566503Y-71969737D01*
X206716131Y-71999500D01*
X206721153Y-72000499D01*
X206721156Y-72000500D01*
X206721158Y-72000500D01*
X206878844Y-72000500D01*
X206878845Y-72000499D01*
X207033497Y-71969737D01*
X207179179Y-71909394D01*
X207310289Y-71821789D01*
X207421789Y-71710289D01*
X207509394Y-71579179D01*
X207569737Y-71433497D01*
X207600500Y-71278842D01*
X207600500Y-71121158D01*
X207600499Y-71121153D01*
X207600499Y-71121150D01*
X207598955Y-71113389D01*
X213499500Y-71113389D01*
X213499500Y-71286611D01*
X213499991Y-71289711D01*
X213524066Y-71441719D01*
X213526598Y-71457701D01*
X213580127Y-71622445D01*
X213658768Y-71776788D01*
X213760586Y-71916928D01*
X213883072Y-72039414D01*
X214023212Y-72141232D01*
X214177555Y-72219873D01*
X214342299Y-72273402D01*
X214513389Y-72300500D01*
X214513390Y-72300500D01*
X214686610Y-72300500D01*
X214686611Y-72300500D01*
X214857701Y-72273402D01*
X215022445Y-72219873D01*
X215176788Y-72141232D01*
X215316928Y-72039414D01*
X215439414Y-71916928D01*
X215541232Y-71776788D01*
X215619873Y-71622445D01*
X215673402Y-71457701D01*
X215700500Y-71286611D01*
X215700500Y-71113389D01*
X215673402Y-70942299D01*
X215619873Y-70777555D01*
X215541232Y-70623212D01*
X215439414Y-70483072D01*
X215316928Y-70360586D01*
X215176788Y-70258768D01*
X215085257Y-70212131D01*
X215022447Y-70180128D01*
X215022446Y-70180127D01*
X215022445Y-70180127D01*
X214857701Y-70126598D01*
X214857699Y-70126597D01*
X214857698Y-70126597D01*
X214726271Y-70105781D01*
X214686611Y-70099500D01*
X214513389Y-70099500D01*
X214473728Y-70105781D01*
X214342302Y-70126597D01*
X214177552Y-70180128D01*
X214023211Y-70258768D01*
X213943256Y-70316859D01*
X213883072Y-70360586D01*
X213883070Y-70360588D01*
X213883069Y-70360588D01*
X213760588Y-70483069D01*
X213760588Y-70483070D01*
X213760586Y-70483072D01*
X213736616Y-70516064D01*
X213658768Y-70623211D01*
X213580128Y-70777552D01*
X213526597Y-70942302D01*
X213508089Y-71059158D01*
X213499500Y-71113389D01*
X207598955Y-71113389D01*
X207577731Y-71006691D01*
X207569737Y-70966503D01*
X207559713Y-70942302D01*
X207509397Y-70820827D01*
X207509390Y-70820814D01*
X207421789Y-70689711D01*
X207421786Y-70689707D01*
X207310292Y-70578213D01*
X207310288Y-70578210D01*
X207179185Y-70490609D01*
X207179172Y-70490602D01*
X207033501Y-70430264D01*
X207033489Y-70430261D01*
X206878845Y-70399500D01*
X206878842Y-70399500D01*
X206721158Y-70399500D01*
X206721155Y-70399500D01*
X206566510Y-70430261D01*
X206566498Y-70430264D01*
X206420827Y-70490602D01*
X206420814Y-70490609D01*
X206289711Y-70578210D01*
X206289707Y-70578213D01*
X206178213Y-70689707D01*
X206178210Y-70689711D01*
X206090609Y-70820814D01*
X206090602Y-70820827D01*
X206030264Y-70966498D01*
X206030261Y-70966510D01*
X205999500Y-71121153D01*
X205392084Y-71121153D01*
X205398107Y-71090875D01*
X205398107Y-71090874D01*
X205400500Y-71078844D01*
X205400500Y-70921155D01*
X205400499Y-70921153D01*
X205380543Y-70820827D01*
X205369737Y-70766503D01*
X205346080Y-70709390D01*
X205309397Y-70620827D01*
X205309390Y-70620814D01*
X205221789Y-70489711D01*
X205221786Y-70489707D01*
X205110292Y-70378213D01*
X205110288Y-70378210D01*
X204979185Y-70290609D01*
X204979172Y-70290602D01*
X204833501Y-70230264D01*
X204833489Y-70230261D01*
X204678845Y-70199500D01*
X204678842Y-70199500D01*
X204521158Y-70199500D01*
X204521155Y-70199500D01*
X204366510Y-70230261D01*
X204366498Y-70230264D01*
X204220827Y-70290602D01*
X204220814Y-70290609D01*
X204089711Y-70378210D01*
X204089707Y-70378213D01*
X203978213Y-70489707D01*
X203978210Y-70489711D01*
X203890609Y-70620814D01*
X203890602Y-70620827D01*
X203830264Y-70766498D01*
X203830261Y-70766510D01*
X203799500Y-70921153D01*
X199476051Y-70921153D01*
X199499785Y-70863853D01*
X199530548Y-70709198D01*
X199530548Y-70551514D01*
X199530548Y-70551511D01*
X199530547Y-70551509D01*
X199525208Y-70524669D01*
X199499785Y-70396859D01*
X199445643Y-70266147D01*
X199438174Y-70196678D01*
X199457103Y-70149803D01*
X199462333Y-70141976D01*
X199470109Y-70130339D01*
X199530452Y-69984657D01*
X199551328Y-69879707D01*
X199562404Y-69824028D01*
X199564283Y-69824401D01*
X199587101Y-69767859D01*
X199644127Y-69727488D01*
X199713927Y-69724357D01*
X199731811Y-69730219D01*
X199827213Y-69769735D01*
X199827218Y-69769737D01*
X199933194Y-69790817D01*
X199981868Y-69800499D01*
X199981871Y-69800500D01*
X199981873Y-69800500D01*
X200139559Y-69800500D01*
X200139560Y-69800499D01*
X200294212Y-69769737D01*
X200439894Y-69709394D01*
X200439897Y-69709391D01*
X200445406Y-69707110D01*
X200514875Y-69699641D01*
X200577355Y-69730916D01*
X200613007Y-69791005D01*
X200614477Y-69845861D01*
X200599500Y-69921158D01*
X200599500Y-70078846D01*
X200630261Y-70233489D01*
X200630264Y-70233501D01*
X200690602Y-70379172D01*
X200690609Y-70379185D01*
X200778210Y-70510288D01*
X200778213Y-70510292D01*
X200889707Y-70621786D01*
X200889711Y-70621789D01*
X201020814Y-70709390D01*
X201020827Y-70709397D01*
X201158683Y-70766498D01*
X201166503Y-70769737D01*
X201321153Y-70800499D01*
X201321156Y-70800500D01*
X201321158Y-70800500D01*
X201478844Y-70800500D01*
X201478845Y-70800499D01*
X201489179Y-70798443D01*
X201514287Y-70793450D01*
X201514292Y-70793449D01*
X201599800Y-70776439D01*
X201633497Y-70769737D01*
X201779179Y-70709394D01*
X201910289Y-70621789D01*
X202021789Y-70510289D01*
X202109394Y-70379179D01*
X202118853Y-70356344D01*
X202141387Y-70301941D01*
X202169737Y-70233497D01*
X202200500Y-70078842D01*
X202200500Y-69921158D01*
X202200500Y-69921155D01*
X202200499Y-69921153D01*
X202192255Y-69879707D01*
X202169737Y-69766503D01*
X202169735Y-69766498D01*
X202109397Y-69620827D01*
X202109390Y-69620814D01*
X202021789Y-69489711D01*
X202021786Y-69489707D01*
X201910292Y-69378213D01*
X201910287Y-69378209D01*
X201779185Y-69290609D01*
X201779172Y-69290602D01*
X201633501Y-69230264D01*
X201633489Y-69230261D01*
X201478845Y-69199500D01*
X201478842Y-69199500D01*
X201321158Y-69199500D01*
X201321155Y-69199500D01*
X201166510Y-69230261D01*
X201166498Y-69230264D01*
X201015307Y-69292889D01*
X200945838Y-69300358D01*
X200883359Y-69269082D01*
X200847707Y-69208993D01*
X200846238Y-69154136D01*
X200861215Y-69078844D01*
X200861215Y-68921155D01*
X200861214Y-68921153D01*
X200857665Y-68903310D01*
X200830452Y-68766503D01*
X200830450Y-68766498D01*
X200770112Y-68620827D01*
X200770105Y-68620814D01*
X200682504Y-68489711D01*
X200682501Y-68489707D01*
X200571007Y-68378213D01*
X200571003Y-68378210D01*
X200439900Y-68290609D01*
X200439887Y-68290602D01*
X200294216Y-68230264D01*
X200294204Y-68230261D01*
X200139560Y-68199500D01*
X200139557Y-68199500D01*
X199981873Y-68199500D01*
X199981870Y-68199500D01*
X199827225Y-68230261D01*
X199827213Y-68230264D01*
X199681542Y-68290602D01*
X199681529Y-68290609D01*
X199550426Y-68378210D01*
X199550422Y-68378213D01*
X199438928Y-68489707D01*
X199438925Y-68489711D01*
X199351324Y-68620814D01*
X199351317Y-68620827D01*
X199290979Y-68766498D01*
X199290976Y-68766510D01*
X199259026Y-68927132D01*
X199257154Y-68926759D01*
X199234304Y-68983331D01*
X199177265Y-69023684D01*
X199107464Y-69026793D01*
X199089618Y-69020941D01*
X199077369Y-69015867D01*
X198994212Y-68981423D01*
X198994207Y-68981422D01*
X198994204Y-68981421D01*
X198839560Y-68950660D01*
X198839557Y-68950660D01*
X198681873Y-68950660D01*
X198681870Y-68950660D01*
X198527225Y-68981421D01*
X198527213Y-68981424D01*
X198381543Y-69041762D01*
X198376162Y-69044639D01*
X198375142Y-69042730D01*
X198317770Y-69060684D01*
X198250393Y-69042187D01*
X198246689Y-69039806D01*
X198229182Y-69028108D01*
X198229181Y-69028107D01*
X198229179Y-69028106D01*
X198229176Y-69028104D01*
X198229171Y-69028102D01*
X198083501Y-68967764D01*
X198083489Y-68967761D01*
X197928845Y-68937000D01*
X197928842Y-68937000D01*
X197771158Y-68937000D01*
X197771155Y-68937000D01*
X197616510Y-68967761D01*
X197616498Y-68967764D01*
X197470827Y-69028102D01*
X197470814Y-69028109D01*
X197339711Y-69115710D01*
X197339707Y-69115713D01*
X197228213Y-69227207D01*
X197228210Y-69227211D01*
X197140609Y-69358314D01*
X197140602Y-69358327D01*
X197080264Y-69503998D01*
X197080261Y-69504010D01*
X197049500Y-69658653D01*
X197049500Y-69816346D01*
X197080261Y-69970989D01*
X197080264Y-69971001D01*
X197140602Y-70116672D01*
X197140609Y-70116684D01*
X197152447Y-70134401D01*
X197154819Y-70141976D01*
X197160229Y-70147787D01*
X197165110Y-70174845D01*
X197173325Y-70201078D01*
X197171541Y-70210484D01*
X197172635Y-70216547D01*
X197163906Y-70250745D01*
X197142700Y-70301941D01*
X197098859Y-70356344D01*
X197032565Y-70378409D01*
X196980687Y-70369049D01*
X196933501Y-70349504D01*
X196933489Y-70349501D01*
X196778845Y-70318740D01*
X196778842Y-70318740D01*
X196621158Y-70318740D01*
X196621155Y-70318740D01*
X196466510Y-70349501D01*
X196466498Y-70349504D01*
X196320827Y-70409842D01*
X196320814Y-70409849D01*
X196184646Y-70500835D01*
X196183980Y-70499839D01*
X196125511Y-70524669D01*
X196063712Y-70516064D01*
X196009232Y-70493498D01*
X196009225Y-70493496D01*
X196009224Y-70493496D01*
X196009223Y-70493495D01*
X195854580Y-70462735D01*
X195854577Y-70462735D01*
X195696893Y-70462735D01*
X195696890Y-70462735D01*
X195542245Y-70493496D01*
X195542233Y-70493499D01*
X195396562Y-70553837D01*
X195396551Y-70553843D01*
X195329022Y-70598965D01*
X195262345Y-70619842D01*
X195194965Y-70601357D01*
X195148275Y-70549378D01*
X195137099Y-70480408D01*
X195138515Y-70471670D01*
X195150500Y-70411420D01*
X195150500Y-70263579D01*
X195121659Y-70118592D01*
X195121658Y-70118591D01*
X195121658Y-70118587D01*
X195087014Y-70034950D01*
X195079546Y-69965484D01*
X195087015Y-69940048D01*
X195121658Y-69856413D01*
X195138899Y-69769738D01*
X195150500Y-69711420D01*
X195150500Y-69563579D01*
X195121659Y-69418592D01*
X195121658Y-69418591D01*
X195121658Y-69418587D01*
X195117850Y-69409394D01*
X195065087Y-69282011D01*
X195065080Y-69281998D01*
X194982951Y-69159084D01*
X194982948Y-69159080D01*
X194878419Y-69054551D01*
X194878415Y-69054548D01*
X194755501Y-68972419D01*
X194755488Y-68972412D01*
X194618917Y-68915843D01*
X194618907Y-68915840D01*
X194473920Y-68887000D01*
X194473918Y-68887000D01*
X194326082Y-68887000D01*
X194326080Y-68887000D01*
X194181092Y-68915840D01*
X194181082Y-68915843D01*
X194072452Y-68960839D01*
X194002983Y-68968308D01*
X193977548Y-68960839D01*
X193868917Y-68915843D01*
X193868907Y-68915840D01*
X193723920Y-68887000D01*
X193723918Y-68887000D01*
X193576082Y-68887000D01*
X193576080Y-68887000D01*
X193431092Y-68915840D01*
X193431082Y-68915843D01*
X193322452Y-68960839D01*
X193252983Y-68968308D01*
X193227548Y-68960839D01*
X193118917Y-68915843D01*
X193118907Y-68915840D01*
X192973920Y-68887000D01*
X192973918Y-68887000D01*
X192826082Y-68887000D01*
X192826080Y-68887000D01*
X192681092Y-68915840D01*
X192681082Y-68915843D01*
X192544511Y-68972412D01*
X192544498Y-68972419D01*
X192421584Y-69054548D01*
X192421580Y-69054551D01*
X192317051Y-69159080D01*
X192317048Y-69159084D01*
X192234919Y-69281998D01*
X192234912Y-69282011D01*
X192178343Y-69418582D01*
X192178340Y-69418592D01*
X192149500Y-69563579D01*
X192149500Y-69563582D01*
X192149500Y-69711418D01*
X192149500Y-69711420D01*
X192149499Y-69711420D01*
X179906690Y-69711420D01*
X179934148Y-69645129D01*
X179950369Y-69563582D01*
X179956393Y-69533299D01*
X179956393Y-69533298D01*
X179964911Y-69490476D01*
X179964911Y-69332787D01*
X179964910Y-69332785D01*
X179954808Y-69281998D01*
X179934148Y-69178135D01*
X179926255Y-69159080D01*
X179873808Y-69032459D01*
X179873801Y-69032446D01*
X179786200Y-68901343D01*
X179786197Y-68901339D01*
X179674703Y-68789845D01*
X179674699Y-68789842D01*
X179543596Y-68702241D01*
X179543583Y-68702234D01*
X179397912Y-68641896D01*
X179397900Y-68641893D01*
X179243256Y-68611132D01*
X179243253Y-68611132D01*
X179085569Y-68611132D01*
X179085566Y-68611132D01*
X178930921Y-68641893D01*
X178930909Y-68641896D01*
X178785238Y-68702234D01*
X178785225Y-68702241D01*
X178654122Y-68789842D01*
X178654118Y-68789845D01*
X178542624Y-68901339D01*
X178542621Y-68901343D01*
X178455020Y-69032446D01*
X178455013Y-69032459D01*
X178394675Y-69178130D01*
X178394672Y-69178142D01*
X178363911Y-69332785D01*
X163500500Y-69332785D01*
X163500500Y-67921153D01*
X169099500Y-67921153D01*
X169099500Y-68078846D01*
X169130261Y-68233489D01*
X169130264Y-68233501D01*
X169190602Y-68379172D01*
X169190609Y-68379185D01*
X169278210Y-68510288D01*
X169278213Y-68510292D01*
X169389707Y-68621786D01*
X169389711Y-68621789D01*
X169520814Y-68709390D01*
X169520827Y-68709397D01*
X169620060Y-68750500D01*
X169666503Y-68769737D01*
X169821153Y-68800499D01*
X169821156Y-68800500D01*
X169821158Y-68800500D01*
X169978844Y-68800500D01*
X169978845Y-68800499D01*
X170133497Y-68769737D01*
X170279179Y-68709394D01*
X170410289Y-68621789D01*
X170521789Y-68510289D01*
X170609394Y-68379179D01*
X170669737Y-68233497D01*
X170700500Y-68078842D01*
X170700500Y-67921158D01*
X170700500Y-67921155D01*
X170700499Y-67921153D01*
X170696192Y-67899500D01*
X170669737Y-67766503D01*
X170669732Y-67766492D01*
X170667969Y-67760676D01*
X170669612Y-67760177D01*
X170663009Y-67698856D01*
X170694273Y-67636371D01*
X170706387Y-67624991D01*
X170710284Y-67621792D01*
X170710289Y-67621789D01*
X170821789Y-67510289D01*
X170909394Y-67379179D01*
X170909798Y-67378205D01*
X170930848Y-67327385D01*
X170969737Y-67233497D01*
X170973649Y-67213832D01*
X179209500Y-67213832D01*
X179209500Y-67371525D01*
X179240261Y-67526168D01*
X179240264Y-67526180D01*
X179300602Y-67671851D01*
X179300609Y-67671864D01*
X179388210Y-67802967D01*
X179388213Y-67802971D01*
X179499707Y-67914465D01*
X179499711Y-67914468D01*
X179630814Y-68002069D01*
X179630827Y-68002076D01*
X179769207Y-68059394D01*
X179776503Y-68062416D01*
X179931153Y-68093178D01*
X179931156Y-68093179D01*
X179931158Y-68093179D01*
X180088844Y-68093179D01*
X180088845Y-68093178D01*
X180243497Y-68062416D01*
X180356166Y-68015746D01*
X180389172Y-68002076D01*
X180389172Y-68002075D01*
X180389179Y-68002073D01*
X180520289Y-67914468D01*
X180631789Y-67802968D01*
X180719394Y-67671858D01*
X180779737Y-67526176D01*
X180810500Y-67371521D01*
X180810500Y-67213837D01*
X180810500Y-67213834D01*
X180810499Y-67213832D01*
X180802135Y-67171786D01*
X180779737Y-67059182D01*
X180766392Y-67026964D01*
X180719397Y-66913506D01*
X180719390Y-66913493D01*
X180631789Y-66782390D01*
X180631786Y-66782386D01*
X180520292Y-66670892D01*
X180520288Y-66670889D01*
X180389185Y-66583288D01*
X180389172Y-66583281D01*
X180243501Y-66522943D01*
X180243489Y-66522940D01*
X180088845Y-66492179D01*
X180088842Y-66492179D01*
X179931158Y-66492179D01*
X179931155Y-66492179D01*
X179776510Y-66522940D01*
X179776498Y-66522943D01*
X179630827Y-66583281D01*
X179630814Y-66583288D01*
X179499711Y-66670889D01*
X179499707Y-66670892D01*
X179388213Y-66782386D01*
X179388210Y-66782390D01*
X179300609Y-66913493D01*
X179300602Y-66913506D01*
X179240264Y-67059177D01*
X179240261Y-67059189D01*
X179209500Y-67213832D01*
X170973649Y-67213832D01*
X170980541Y-67179185D01*
X170996192Y-67100499D01*
X171000500Y-67078842D01*
X171000500Y-66921158D01*
X171000500Y-66921155D01*
X171000499Y-66921153D01*
X170998975Y-66913493D01*
X170969737Y-66766503D01*
X170969735Y-66766498D01*
X170909397Y-66620827D01*
X170909390Y-66620814D01*
X170821789Y-66489711D01*
X170821786Y-66489707D01*
X170710292Y-66378213D01*
X170710288Y-66378210D01*
X170579185Y-66290609D01*
X170579172Y-66290602D01*
X170433501Y-66230264D01*
X170433489Y-66230261D01*
X170278845Y-66199500D01*
X170278842Y-66199500D01*
X170121158Y-66199500D01*
X170121155Y-66199500D01*
X169966510Y-66230261D01*
X169966498Y-66230264D01*
X169820827Y-66290602D01*
X169820814Y-66290609D01*
X169689711Y-66378210D01*
X169689707Y-66378213D01*
X169578213Y-66489707D01*
X169578210Y-66489711D01*
X169490609Y-66620814D01*
X169490602Y-66620827D01*
X169430264Y-66766498D01*
X169430261Y-66766510D01*
X169399500Y-66921153D01*
X169399500Y-67078846D01*
X169430260Y-67233488D01*
X169432030Y-67239320D01*
X169430391Y-67239817D01*
X169436985Y-67301170D01*
X169405707Y-67363648D01*
X169393631Y-67374993D01*
X169389717Y-67378205D01*
X169278209Y-67489712D01*
X169190609Y-67620814D01*
X169190602Y-67620827D01*
X169130264Y-67766498D01*
X169130261Y-67766510D01*
X169099500Y-67921153D01*
X163500500Y-67921153D01*
X163500500Y-64321153D01*
X179199500Y-64321153D01*
X179199500Y-64478846D01*
X179230261Y-64633489D01*
X179230264Y-64633501D01*
X179290602Y-64779172D01*
X179290609Y-64779185D01*
X179378210Y-64910288D01*
X179378213Y-64910292D01*
X179489707Y-65021786D01*
X179489711Y-65021789D01*
X179620814Y-65109390D01*
X179620827Y-65109397D01*
X179766498Y-65169735D01*
X179766503Y-65169737D01*
X179921153Y-65200499D01*
X179921156Y-65200500D01*
X179921158Y-65200500D01*
X180078844Y-65200500D01*
X180078845Y-65200499D01*
X180233497Y-65169737D01*
X180379179Y-65109394D01*
X180510289Y-65021789D01*
X180621789Y-64910289D01*
X180709394Y-64779179D01*
X180769737Y-64633497D01*
X180800500Y-64478842D01*
X180800500Y-64446888D01*
X183286265Y-64446888D01*
X183286265Y-64604581D01*
X183317026Y-64759224D01*
X183317029Y-64759236D01*
X183377367Y-64904907D01*
X183377374Y-64904920D01*
X183464975Y-65036023D01*
X183464978Y-65036027D01*
X183576472Y-65147521D01*
X183576476Y-65147524D01*
X183707579Y-65235125D01*
X183707592Y-65235132D01*
X183849321Y-65293837D01*
X183853268Y-65295472D01*
X184007918Y-65326234D01*
X184007921Y-65326235D01*
X184007923Y-65326235D01*
X184165609Y-65326235D01*
X184165610Y-65326234D01*
X184320262Y-65295472D01*
X184320271Y-65295468D01*
X184323569Y-65294468D01*
X184325394Y-65294451D01*
X184326237Y-65294284D01*
X184326268Y-65294443D01*
X184393436Y-65293837D01*
X184452552Y-65331080D01*
X184482150Y-65394371D01*
X184474138Y-65460576D01*
X184430263Y-65566503D01*
X184430261Y-65566510D01*
X184399500Y-65721153D01*
X184399500Y-65878846D01*
X184430261Y-66033489D01*
X184430264Y-66033501D01*
X184490602Y-66179172D01*
X184490609Y-66179185D01*
X184578210Y-66310288D01*
X184578213Y-66310292D01*
X184652763Y-66384842D01*
X184686248Y-66446165D01*
X184681264Y-66515857D01*
X184639392Y-66571790D01*
X184612534Y-66587084D01*
X184483327Y-66640602D01*
X184483314Y-66640609D01*
X184352211Y-66728210D01*
X184352207Y-66728213D01*
X184240713Y-66839707D01*
X184240710Y-66839711D01*
X184153109Y-66970814D01*
X184153102Y-66970827D01*
X184092764Y-67116498D01*
X184092761Y-67116510D01*
X184062000Y-67271153D01*
X184062000Y-67428846D01*
X184092761Y-67583489D01*
X184092764Y-67583501D01*
X184153102Y-67729172D01*
X184153109Y-67729185D01*
X184240710Y-67860288D01*
X184240713Y-67860292D01*
X184352207Y-67971786D01*
X184352211Y-67971789D01*
X184483314Y-68059390D01*
X184483327Y-68059397D01*
X184597782Y-68106805D01*
X184629003Y-68119737D01*
X184744616Y-68142734D01*
X184783653Y-68150499D01*
X184783656Y-68150500D01*
X184783658Y-68150500D01*
X184941344Y-68150500D01*
X184941345Y-68150499D01*
X185095997Y-68119737D01*
X185127219Y-68106804D01*
X185196684Y-68099335D01*
X185259164Y-68130608D01*
X185289020Y-68178454D01*
X185290432Y-68177870D01*
X185353102Y-68329172D01*
X185353109Y-68329185D01*
X185440710Y-68460288D01*
X185440713Y-68460292D01*
X185552207Y-68571786D01*
X185552211Y-68571789D01*
X185683314Y-68659390D01*
X185683327Y-68659397D01*
X185828998Y-68719735D01*
X185829003Y-68719737D01*
X185983653Y-68750499D01*
X185983656Y-68750500D01*
X185983658Y-68750500D01*
X186141344Y-68750500D01*
X186141345Y-68750499D01*
X186295997Y-68719737D01*
X186441679Y-68659394D01*
X186572789Y-68571789D01*
X186684289Y-68460289D01*
X186771894Y-68329179D01*
X186771895Y-68329176D01*
X186771897Y-68329173D01*
X186811530Y-68233489D01*
X186817447Y-68219202D01*
X186861287Y-68164799D01*
X186927581Y-68142734D01*
X186956197Y-68145037D01*
X186983658Y-68150500D01*
X187141344Y-68150500D01*
X187141345Y-68150499D01*
X187295997Y-68119737D01*
X187441679Y-68059394D01*
X187553933Y-67984388D01*
X190775235Y-67984388D01*
X190775235Y-68142081D01*
X190805996Y-68296724D01*
X190805999Y-68296736D01*
X190866337Y-68442407D01*
X190866344Y-68442420D01*
X190953945Y-68573523D01*
X190953948Y-68573527D01*
X191065442Y-68685021D01*
X191065446Y-68685024D01*
X191196549Y-68772625D01*
X191196562Y-68772632D01*
X191309496Y-68819410D01*
X191342238Y-68832972D01*
X191496888Y-68863734D01*
X191496891Y-68863735D01*
X191496893Y-68863735D01*
X191654579Y-68863735D01*
X191654580Y-68863734D01*
X191809232Y-68832972D01*
X191939910Y-68778844D01*
X191954907Y-68772632D01*
X191954907Y-68772631D01*
X191954914Y-68772629D01*
X192086024Y-68685024D01*
X192149895Y-68621153D01*
X195296605Y-68621153D01*
X195296605Y-68778846D01*
X195327366Y-68933489D01*
X195327369Y-68933501D01*
X195387707Y-69079172D01*
X195387714Y-69079185D01*
X195475315Y-69210288D01*
X195475318Y-69210292D01*
X195586812Y-69321786D01*
X195586816Y-69321789D01*
X195717919Y-69409390D01*
X195717932Y-69409397D01*
X195863603Y-69469735D01*
X195863608Y-69469737D01*
X196018258Y-69500499D01*
X196018261Y-69500500D01*
X196018263Y-69500500D01*
X196175949Y-69500500D01*
X196175950Y-69500499D01*
X196330602Y-69469737D01*
X196476284Y-69409394D01*
X196607394Y-69321789D01*
X196718894Y-69210289D01*
X196806499Y-69079179D01*
X196866842Y-68933497D01*
X196897605Y-68778842D01*
X196897605Y-68621158D01*
X196897605Y-68621155D01*
X196897604Y-68621153D01*
X196895611Y-68611132D01*
X196866842Y-68466503D01*
X196830674Y-68379185D01*
X196806502Y-68320827D01*
X196806495Y-68320814D01*
X196718894Y-68189711D01*
X196718891Y-68189707D01*
X196607397Y-68078213D01*
X196607393Y-68078210D01*
X196476290Y-67990609D01*
X196476277Y-67990602D01*
X196330606Y-67930264D01*
X196330594Y-67930261D01*
X196175950Y-67899500D01*
X196175947Y-67899500D01*
X196018263Y-67899500D01*
X196018260Y-67899500D01*
X195863615Y-67930261D01*
X195863603Y-67930264D01*
X195717932Y-67990602D01*
X195717919Y-67990609D01*
X195586816Y-68078210D01*
X195586812Y-68078213D01*
X195475318Y-68189707D01*
X195475315Y-68189711D01*
X195387714Y-68320814D01*
X195387707Y-68320827D01*
X195327369Y-68466498D01*
X195327366Y-68466510D01*
X195296605Y-68621153D01*
X192149895Y-68621153D01*
X192197524Y-68573524D01*
X192285129Y-68442414D01*
X192345472Y-68296732D01*
X192376235Y-68142077D01*
X192376235Y-67984393D01*
X192376235Y-67984390D01*
X192376234Y-67984388D01*
X192362325Y-67914465D01*
X192345472Y-67829738D01*
X192333996Y-67802033D01*
X192285132Y-67684062D01*
X192285125Y-67684049D01*
X192197524Y-67552946D01*
X192197521Y-67552942D01*
X192086027Y-67441448D01*
X192086023Y-67441445D01*
X191954920Y-67353844D01*
X191954907Y-67353837D01*
X191809236Y-67293499D01*
X191809224Y-67293496D01*
X191654580Y-67262735D01*
X191654577Y-67262735D01*
X191496893Y-67262735D01*
X191496890Y-67262735D01*
X191342245Y-67293496D01*
X191342233Y-67293499D01*
X191196562Y-67353837D01*
X191196549Y-67353844D01*
X191065446Y-67441445D01*
X191065442Y-67441448D01*
X190953948Y-67552942D01*
X190953945Y-67552946D01*
X190866344Y-67684049D01*
X190866337Y-67684062D01*
X190805999Y-67829733D01*
X190805996Y-67829745D01*
X190775235Y-67984388D01*
X187553933Y-67984388D01*
X187572789Y-67971789D01*
X187595592Y-67948986D01*
X187653959Y-67890620D01*
X187684286Y-67860292D01*
X187684289Y-67860289D01*
X187771894Y-67729179D01*
X187832237Y-67583497D01*
X187863000Y-67428842D01*
X187863000Y-67271158D01*
X187863000Y-67271155D01*
X187862999Y-67271153D01*
X187856667Y-67239320D01*
X187832237Y-67116503D01*
X187829663Y-67110288D01*
X187771897Y-66970827D01*
X187771890Y-66970814D01*
X187684289Y-66839711D01*
X187684286Y-66839707D01*
X187572792Y-66728213D01*
X187572788Y-66728210D01*
X187441685Y-66640609D01*
X187441672Y-66640602D01*
X187296001Y-66580264D01*
X187295989Y-66580261D01*
X187141345Y-66549500D01*
X187141342Y-66549500D01*
X186983658Y-66549500D01*
X186980348Y-66549500D01*
X186949892Y-66540557D01*
X186918989Y-66533255D01*
X186916602Y-66530782D01*
X186913309Y-66529815D01*
X186892527Y-66505832D01*
X186870473Y-66482976D01*
X186868928Y-66478596D01*
X186867554Y-66477011D01*
X186865662Y-66471153D01*
X198999500Y-66471153D01*
X198999500Y-66628846D01*
X199030261Y-66783489D01*
X199030264Y-66783501D01*
X199090602Y-66929172D01*
X199090609Y-66929185D01*
X199178210Y-67060288D01*
X199178213Y-67060292D01*
X199289707Y-67171786D01*
X199289711Y-67171789D01*
X199420814Y-67259390D01*
X199420827Y-67259397D01*
X199566498Y-67319735D01*
X199566503Y-67319737D01*
X199701858Y-67346661D01*
X199721153Y-67350499D01*
X199721156Y-67350500D01*
X199721158Y-67350500D01*
X199878844Y-67350500D01*
X199878845Y-67350499D01*
X200033497Y-67319737D01*
X200179179Y-67259394D01*
X200310289Y-67171789D01*
X200421789Y-67060289D01*
X200423585Y-67057599D01*
X200428449Y-67050323D01*
X200482061Y-67005517D01*
X200551386Y-66996810D01*
X200614413Y-67026964D01*
X200646112Y-67071761D01*
X200690602Y-67179172D01*
X200690609Y-67179185D01*
X200778210Y-67310288D01*
X200778213Y-67310292D01*
X200889707Y-67421786D01*
X200889711Y-67421789D01*
X201020814Y-67509390D01*
X201020827Y-67509397D01*
X201138230Y-67558026D01*
X201166503Y-67569737D01*
X201321153Y-67600499D01*
X201321156Y-67600500D01*
X201321158Y-67600500D01*
X201478844Y-67600500D01*
X201478845Y-67600499D01*
X201633497Y-67569737D01*
X201779179Y-67509394D01*
X201910289Y-67421789D01*
X201910925Y-67421153D01*
X202649500Y-67421153D01*
X202649500Y-67578846D01*
X202680261Y-67733489D01*
X202680264Y-67733501D01*
X202740602Y-67879172D01*
X202740609Y-67879185D01*
X202828210Y-68010288D01*
X202828213Y-68010292D01*
X202939708Y-68121787D01*
X202939711Y-68121789D01*
X202977287Y-68146897D01*
X203022092Y-68200508D01*
X203030800Y-68269833D01*
X203000646Y-68332861D01*
X202977290Y-68353100D01*
X202939710Y-68378211D01*
X202939707Y-68378213D01*
X202828213Y-68489707D01*
X202828210Y-68489711D01*
X202740609Y-68620814D01*
X202740602Y-68620827D01*
X202680264Y-68766498D01*
X202680261Y-68766510D01*
X202649500Y-68921153D01*
X202649500Y-69078846D01*
X202680261Y-69233489D01*
X202680264Y-69233501D01*
X202740602Y-69379172D01*
X202740609Y-69379185D01*
X202828210Y-69510288D01*
X202828213Y-69510292D01*
X202939707Y-69621786D01*
X202939711Y-69621789D01*
X203070814Y-69709390D01*
X203070827Y-69709397D01*
X203208683Y-69766498D01*
X203216503Y-69769737D01*
X203322479Y-69790817D01*
X203371153Y-69800499D01*
X203371156Y-69800500D01*
X203371158Y-69800500D01*
X203528844Y-69800500D01*
X203528845Y-69800499D01*
X203683497Y-69769737D01*
X203829179Y-69709394D01*
X203881110Y-69674694D01*
X203947785Y-69653816D01*
X204015165Y-69672300D01*
X204018863Y-69674676D01*
X204070821Y-69709394D01*
X204070823Y-69709395D01*
X204070825Y-69709396D01*
X204121097Y-69730219D01*
X204216503Y-69769737D01*
X204322479Y-69790817D01*
X204371153Y-69800499D01*
X204371156Y-69800500D01*
X204371158Y-69800500D01*
X204528844Y-69800500D01*
X204528845Y-69800499D01*
X204683497Y-69769737D01*
X204829179Y-69709394D01*
X204960289Y-69621789D01*
X205071789Y-69510289D01*
X205159394Y-69379179D01*
X205219737Y-69233497D01*
X205250500Y-69078842D01*
X205250500Y-68921158D01*
X205250500Y-68921155D01*
X205250499Y-68921153D01*
X205246950Y-68903310D01*
X205219737Y-68766503D01*
X205219735Y-68766498D01*
X205159397Y-68620827D01*
X205159390Y-68620814D01*
X205071789Y-68489711D01*
X205071786Y-68489707D01*
X204960292Y-68378213D01*
X204960286Y-68378208D01*
X204922710Y-68353100D01*
X204877905Y-68299487D01*
X204869199Y-68230162D01*
X204899355Y-68167135D01*
X204922705Y-68146901D01*
X204960289Y-68121789D01*
X205058114Y-68023964D01*
X206009890Y-68023964D01*
X206009890Y-68181657D01*
X206040651Y-68336300D01*
X206040654Y-68336312D01*
X206100992Y-68481983D01*
X206100999Y-68481996D01*
X206188600Y-68613099D01*
X206188603Y-68613103D01*
X206300097Y-68724597D01*
X206300101Y-68724600D01*
X206431204Y-68812201D01*
X206431217Y-68812208D01*
X206555614Y-68863734D01*
X206576893Y-68872548D01*
X206721634Y-68901339D01*
X206731543Y-68903310D01*
X206731546Y-68903311D01*
X206731548Y-68903311D01*
X206889234Y-68903311D01*
X206889235Y-68903310D01*
X207043887Y-68872548D01*
X207156556Y-68825878D01*
X207189562Y-68812208D01*
X207189562Y-68812207D01*
X207189569Y-68812205D01*
X207320679Y-68724600D01*
X207432179Y-68613100D01*
X207519784Y-68481990D01*
X207580127Y-68336308D01*
X207610890Y-68181653D01*
X207610890Y-68023969D01*
X207610890Y-68023966D01*
X207610889Y-68023964D01*
X207592251Y-67930264D01*
X207580127Y-67869314D01*
X207535128Y-67760676D01*
X207534619Y-67759448D01*
X211549500Y-67759448D01*
X211549500Y-68640551D01*
X211577829Y-68819410D01*
X211633787Y-68991636D01*
X211633788Y-68991639D01*
X211678393Y-69079179D01*
X211703677Y-69128802D01*
X211716006Y-69152997D01*
X211822441Y-69299494D01*
X211822445Y-69299499D01*
X211950500Y-69427554D01*
X211950505Y-69427558D01*
X212064376Y-69510289D01*
X212097006Y-69533996D01*
X212202484Y-69587740D01*
X212258360Y-69616211D01*
X212258363Y-69616212D01*
X212344476Y-69644191D01*
X212430591Y-69672171D01*
X212513429Y-69685291D01*
X212609449Y-69700500D01*
X212609454Y-69700500D01*
X212790551Y-69700500D01*
X212877259Y-69686765D01*
X212969409Y-69672171D01*
X213141639Y-69616211D01*
X213302994Y-69533996D01*
X213449501Y-69427553D01*
X213577553Y-69299501D01*
X213683996Y-69152994D01*
X213766211Y-68991639D01*
X213822171Y-68819409D01*
X213840730Y-68702234D01*
X213850500Y-68640551D01*
X213850500Y-67759448D01*
X216599500Y-67759448D01*
X216599500Y-68640551D01*
X216627829Y-68819410D01*
X216683787Y-68991636D01*
X216683788Y-68991639D01*
X216728393Y-69079179D01*
X216753677Y-69128802D01*
X216766006Y-69152997D01*
X216872441Y-69299494D01*
X216872445Y-69299499D01*
X217000500Y-69427554D01*
X217000505Y-69427558D01*
X217114376Y-69510289D01*
X217147006Y-69533996D01*
X217252484Y-69587740D01*
X217308360Y-69616211D01*
X217308363Y-69616212D01*
X217394476Y-69644191D01*
X217480591Y-69672171D01*
X217563429Y-69685291D01*
X217659449Y-69700500D01*
X217659454Y-69700500D01*
X217840551Y-69700500D01*
X217927259Y-69686765D01*
X218019409Y-69672171D01*
X218191639Y-69616211D01*
X218352994Y-69533996D01*
X218499501Y-69427553D01*
X218587319Y-69339735D01*
X218648642Y-69306250D01*
X218718334Y-69311234D01*
X218762681Y-69339735D01*
X218850500Y-69427554D01*
X218850505Y-69427558D01*
X218964376Y-69510289D01*
X218997006Y-69533996D01*
X219102484Y-69587740D01*
X219158360Y-69616211D01*
X219158363Y-69616212D01*
X219244476Y-69644191D01*
X219330591Y-69672171D01*
X219413429Y-69685291D01*
X219509449Y-69700500D01*
X219509454Y-69700500D01*
X219690551Y-69700500D01*
X219777259Y-69686765D01*
X219869409Y-69672171D01*
X220041639Y-69616211D01*
X220202994Y-69533996D01*
X220349501Y-69427553D01*
X220477553Y-69299501D01*
X220583996Y-69152994D01*
X220666211Y-68991639D01*
X220722171Y-68819409D01*
X220740730Y-68702234D01*
X220750500Y-68640551D01*
X220750500Y-67759448D01*
X220734019Y-67655397D01*
X220722171Y-67580591D01*
X220689819Y-67481021D01*
X220666212Y-67408363D01*
X220666211Y-67408360D01*
X220634773Y-67346661D01*
X220583996Y-67247006D01*
X220565673Y-67221786D01*
X220477558Y-67100505D01*
X220477554Y-67100500D01*
X220349499Y-66972445D01*
X220349494Y-66972441D01*
X220202997Y-66866006D01*
X220202996Y-66866005D01*
X220202994Y-66866004D01*
X220127815Y-66827698D01*
X220041639Y-66783788D01*
X220041636Y-66783787D01*
X219869410Y-66727829D01*
X219690551Y-66699500D01*
X219690546Y-66699500D01*
X219509454Y-66699500D01*
X219509449Y-66699500D01*
X219330589Y-66727829D01*
X219158363Y-66783787D01*
X219158360Y-66783788D01*
X218997002Y-66866006D01*
X218850505Y-66972441D01*
X218850500Y-66972445D01*
X218762681Y-67060265D01*
X218701358Y-67093750D01*
X218631666Y-67088766D01*
X218587319Y-67060265D01*
X218499499Y-66972445D01*
X218499494Y-66972441D01*
X218352997Y-66866006D01*
X218352996Y-66866005D01*
X218352994Y-66866004D01*
X218277815Y-66827698D01*
X218191639Y-66783788D01*
X218191636Y-66783787D01*
X218019410Y-66727829D01*
X217840551Y-66699500D01*
X217840546Y-66699500D01*
X217659454Y-66699500D01*
X217659449Y-66699500D01*
X217480589Y-66727829D01*
X217308363Y-66783787D01*
X217308360Y-66783788D01*
X217147002Y-66866006D01*
X217000505Y-66972441D01*
X217000500Y-66972445D01*
X216872445Y-67100500D01*
X216872441Y-67100505D01*
X216766006Y-67247002D01*
X216683788Y-67408360D01*
X216683787Y-67408363D01*
X216627829Y-67580589D01*
X216599500Y-67759448D01*
X213850500Y-67759448D01*
X213834019Y-67655397D01*
X213822171Y-67580591D01*
X213789819Y-67481021D01*
X213766212Y-67408363D01*
X213766211Y-67408360D01*
X213734773Y-67346661D01*
X213683996Y-67247006D01*
X213665673Y-67221786D01*
X213577558Y-67100505D01*
X213577554Y-67100500D01*
X213449499Y-66972445D01*
X213449494Y-66972441D01*
X213302997Y-66866006D01*
X213302996Y-66866005D01*
X213302994Y-66866004D01*
X213227815Y-66827698D01*
X213141639Y-66783788D01*
X213141636Y-66783787D01*
X212969410Y-66727829D01*
X212790551Y-66699500D01*
X212790546Y-66699500D01*
X212609454Y-66699500D01*
X212609449Y-66699500D01*
X212430589Y-66727829D01*
X212258363Y-66783787D01*
X212258360Y-66783788D01*
X212097002Y-66866006D01*
X211950505Y-66972441D01*
X211950500Y-66972445D01*
X211822445Y-67100500D01*
X211822441Y-67100505D01*
X211716006Y-67247002D01*
X211633788Y-67408360D01*
X211633787Y-67408363D01*
X211577829Y-67580589D01*
X211549500Y-67759448D01*
X207534619Y-67759448D01*
X207519787Y-67723637D01*
X207519780Y-67723625D01*
X207432179Y-67592522D01*
X207432176Y-67592518D01*
X207397684Y-67558026D01*
X207364199Y-67496703D01*
X207369183Y-67427011D01*
X207411055Y-67371078D01*
X207476519Y-67346661D01*
X207532816Y-67355783D01*
X207566503Y-67369737D01*
X207685550Y-67393417D01*
X207721153Y-67400499D01*
X207721156Y-67400500D01*
X207721158Y-67400500D01*
X207878844Y-67400500D01*
X207878845Y-67400499D01*
X208033497Y-67369737D01*
X208179179Y-67309394D01*
X208310289Y-67221789D01*
X208421789Y-67110289D01*
X208509394Y-66979179D01*
X208512183Y-66972447D01*
X208530102Y-66929185D01*
X208569737Y-66833497D01*
X208600500Y-66678842D01*
X208600500Y-66521158D01*
X208600500Y-66521155D01*
X208600499Y-66521153D01*
X208592034Y-66478596D01*
X208569737Y-66366503D01*
X208551730Y-66323029D01*
X208509397Y-66220827D01*
X208509390Y-66220814D01*
X208478969Y-66175286D01*
X208458091Y-66108609D01*
X208476575Y-66041228D01*
X208528554Y-65994538D01*
X208557873Y-65984779D01*
X208633497Y-65969737D01*
X208779179Y-65909394D01*
X208910289Y-65821789D01*
X209021789Y-65710289D01*
X209109394Y-65579179D01*
X209169737Y-65433497D01*
X209200500Y-65278842D01*
X209200500Y-65121158D01*
X209200500Y-65121155D01*
X209200499Y-65121153D01*
X209183566Y-65036027D01*
X209169737Y-64966503D01*
X209144226Y-64904914D01*
X209109397Y-64820827D01*
X209109390Y-64820814D01*
X209021789Y-64689711D01*
X209021786Y-64689707D01*
X208910292Y-64578213D01*
X208910288Y-64578210D01*
X208779185Y-64490609D01*
X208779172Y-64490602D01*
X208633501Y-64430264D01*
X208633489Y-64430261D01*
X208478845Y-64399500D01*
X208478842Y-64399500D01*
X208321158Y-64399500D01*
X208321155Y-64399500D01*
X208166510Y-64430261D01*
X208166498Y-64430264D01*
X208020827Y-64490602D01*
X208020814Y-64490609D01*
X207889711Y-64578210D01*
X207889707Y-64578213D01*
X207778213Y-64689707D01*
X207778210Y-64689711D01*
X207690609Y-64820814D01*
X207690602Y-64820827D01*
X207630264Y-64966498D01*
X207630261Y-64966510D01*
X207599500Y-65121153D01*
X207599500Y-65278846D01*
X207630261Y-65433489D01*
X207630264Y-65433501D01*
X207690602Y-65579172D01*
X207690612Y-65579190D01*
X207721030Y-65624714D01*
X207741908Y-65691391D01*
X207723423Y-65758771D01*
X207671444Y-65805461D01*
X207642120Y-65815221D01*
X207566508Y-65830261D01*
X207566498Y-65830264D01*
X207420827Y-65890602D01*
X207420814Y-65890609D01*
X207289711Y-65978210D01*
X207289707Y-65978213D01*
X207178213Y-66089707D01*
X207178210Y-66089711D01*
X207090609Y-66220814D01*
X207090602Y-66220827D01*
X207030264Y-66366498D01*
X207030261Y-66366510D01*
X206999500Y-66521153D01*
X206999500Y-66678846D01*
X207030261Y-66833489D01*
X207030264Y-66833501D01*
X207090602Y-66979172D01*
X207090609Y-66979185D01*
X207178210Y-67110288D01*
X207178213Y-67110292D01*
X207212705Y-67144784D01*
X207246190Y-67206107D01*
X207241206Y-67275799D01*
X207199334Y-67331732D01*
X207133870Y-67356149D01*
X207077573Y-67347027D01*
X207071469Y-67344499D01*
X207043887Y-67333074D01*
X207043883Y-67333073D01*
X207043879Y-67333072D01*
X206889235Y-67302311D01*
X206889232Y-67302311D01*
X206731548Y-67302311D01*
X206731545Y-67302311D01*
X206576900Y-67333072D01*
X206576888Y-67333075D01*
X206431217Y-67393413D01*
X206431204Y-67393420D01*
X206300101Y-67481021D01*
X206300097Y-67481024D01*
X206188603Y-67592518D01*
X206188600Y-67592522D01*
X206100999Y-67723625D01*
X206100992Y-67723638D01*
X206040654Y-67869309D01*
X206040651Y-67869321D01*
X206009890Y-68023964D01*
X205058114Y-68023964D01*
X205071789Y-68010289D01*
X205097516Y-67971786D01*
X205112751Y-67948986D01*
X205159390Y-67879185D01*
X205159390Y-67879184D01*
X205159394Y-67879179D01*
X205219737Y-67733497D01*
X205250500Y-67578842D01*
X205250500Y-67421158D01*
X205250500Y-67421155D01*
X205250499Y-67421153D01*
X205247955Y-67408363D01*
X205219737Y-67266503D01*
X205211661Y-67247006D01*
X205159397Y-67120827D01*
X205159390Y-67120814D01*
X205071789Y-66989711D01*
X205071786Y-66989707D01*
X204960292Y-66878213D01*
X204960288Y-66878210D01*
X204829185Y-66790609D01*
X204829172Y-66790602D01*
X204683501Y-66730264D01*
X204683489Y-66730261D01*
X204528845Y-66699500D01*
X204528842Y-66699500D01*
X204371158Y-66699500D01*
X204371155Y-66699500D01*
X204216510Y-66730261D01*
X204216498Y-66730264D01*
X204070827Y-66790602D01*
X204070814Y-66790609D01*
X204018891Y-66825304D01*
X203952214Y-66846182D01*
X203884833Y-66827698D01*
X203881109Y-66825304D01*
X203829185Y-66790609D01*
X203829172Y-66790602D01*
X203683501Y-66730264D01*
X203683489Y-66730261D01*
X203528845Y-66699500D01*
X203528842Y-66699500D01*
X203371158Y-66699500D01*
X203371155Y-66699500D01*
X203216510Y-66730261D01*
X203216498Y-66730264D01*
X203070827Y-66790602D01*
X203070814Y-66790609D01*
X202939711Y-66878210D01*
X202939707Y-66878213D01*
X202828213Y-66989707D01*
X202828210Y-66989711D01*
X202740609Y-67120814D01*
X202740602Y-67120827D01*
X202680264Y-67266498D01*
X202680261Y-67266510D01*
X202649500Y-67421153D01*
X201910925Y-67421153D01*
X201957085Y-67374993D01*
X202004694Y-67327385D01*
X202021786Y-67310292D01*
X202021789Y-67310289D01*
X202109394Y-67179179D01*
X202169737Y-67033497D01*
X202200500Y-66878842D01*
X202200500Y-66721158D01*
X202200500Y-66721155D01*
X202200499Y-66721153D01*
X202196192Y-66699500D01*
X202169737Y-66566503D01*
X202158990Y-66540557D01*
X202109397Y-66420827D01*
X202109390Y-66420814D01*
X202021789Y-66289711D01*
X202021786Y-66289707D01*
X201910292Y-66178213D01*
X201910288Y-66178210D01*
X201779185Y-66090609D01*
X201779172Y-66090602D01*
X201633501Y-66030264D01*
X201633489Y-66030261D01*
X201478845Y-65999500D01*
X201478842Y-65999500D01*
X201321158Y-65999500D01*
X201321155Y-65999500D01*
X201166510Y-66030261D01*
X201166498Y-66030264D01*
X201020827Y-66090602D01*
X201020814Y-66090609D01*
X200889711Y-66178210D01*
X200889707Y-66178213D01*
X200778213Y-66289707D01*
X200778206Y-66289716D01*
X200771545Y-66299684D01*
X200717930Y-66344485D01*
X200648604Y-66353188D01*
X200585579Y-66323029D01*
X200553887Y-66278238D01*
X200509397Y-66170826D01*
X200509390Y-66170814D01*
X200421789Y-66039711D01*
X200421786Y-66039707D01*
X200310292Y-65928213D01*
X200310288Y-65928210D01*
X200179185Y-65840609D01*
X200179172Y-65840602D01*
X200033501Y-65780264D01*
X200033489Y-65780261D01*
X199878845Y-65749500D01*
X199878842Y-65749500D01*
X199721158Y-65749500D01*
X199721155Y-65749500D01*
X199566510Y-65780261D01*
X199566498Y-65780264D01*
X199420827Y-65840602D01*
X199420814Y-65840609D01*
X199289711Y-65928210D01*
X199289707Y-65928213D01*
X199178213Y-66039707D01*
X199178210Y-66039711D01*
X199090609Y-66170814D01*
X199090602Y-66170827D01*
X199030264Y-66316498D01*
X199030261Y-66316510D01*
X198999500Y-66471153D01*
X186865662Y-66471153D01*
X186858731Y-66449693D01*
X186842184Y-66366510D01*
X186834805Y-66329414D01*
X186841032Y-66259824D01*
X186853314Y-66236340D01*
X186916157Y-66142291D01*
X186976500Y-65996609D01*
X187007263Y-65841954D01*
X187007263Y-65684270D01*
X187007263Y-65684267D01*
X187007262Y-65684265D01*
X186986359Y-65579179D01*
X186976500Y-65529615D01*
X186976498Y-65529610D01*
X186916160Y-65383939D01*
X186916153Y-65383926D01*
X186828552Y-65252823D01*
X186828549Y-65252819D01*
X186717055Y-65141325D01*
X186717051Y-65141322D01*
X186585948Y-65053721D01*
X186585935Y-65053714D01*
X186440264Y-64993376D01*
X186440252Y-64993373D01*
X186285608Y-64962612D01*
X186285605Y-64962612D01*
X186127921Y-64962612D01*
X186127918Y-64962612D01*
X185973273Y-64993373D01*
X185973261Y-64993376D01*
X185827590Y-65053714D01*
X185827572Y-65053724D01*
X185744668Y-65109119D01*
X185677991Y-65129997D01*
X185610611Y-65111512D01*
X185606888Y-65109120D01*
X185579183Y-65090608D01*
X185579172Y-65090602D01*
X185433501Y-65030264D01*
X185433489Y-65030261D01*
X185278845Y-64999500D01*
X185278842Y-64999500D01*
X185121158Y-64999500D01*
X185121155Y-64999500D01*
X184966508Y-65030261D01*
X184963180Y-65031271D01*
X184961351Y-65031287D01*
X184960528Y-65031451D01*
X184960496Y-65031294D01*
X184893313Y-65031892D01*
X184834201Y-64994642D01*
X184804612Y-64931347D01*
X184812627Y-64865157D01*
X184848240Y-64779179D01*
X184856502Y-64759232D01*
X184887265Y-64604577D01*
X184887265Y-64446893D01*
X184887265Y-64446890D01*
X184887264Y-64446888D01*
X184878037Y-64400500D01*
X184856502Y-64292238D01*
X184856500Y-64292233D01*
X184796162Y-64146562D01*
X184796155Y-64146549D01*
X184708554Y-64015446D01*
X184708551Y-64015442D01*
X184597057Y-63903948D01*
X184597053Y-63903945D01*
X184465950Y-63816344D01*
X184465937Y-63816337D01*
X184320266Y-63755999D01*
X184320254Y-63755996D01*
X184165610Y-63725235D01*
X184165607Y-63725235D01*
X184007923Y-63725235D01*
X184007920Y-63725235D01*
X183853275Y-63755996D01*
X183853263Y-63755999D01*
X183707592Y-63816337D01*
X183707579Y-63816344D01*
X183576476Y-63903945D01*
X183576472Y-63903948D01*
X183464978Y-64015442D01*
X183464975Y-64015446D01*
X183377374Y-64146549D01*
X183377367Y-64146562D01*
X183317029Y-64292233D01*
X183317026Y-64292245D01*
X183286265Y-64446888D01*
X180800500Y-64446888D01*
X180800500Y-64321158D01*
X180800500Y-64321155D01*
X180800499Y-64321153D01*
X180780734Y-64221789D01*
X180769737Y-64166503D01*
X180769735Y-64166498D01*
X180709397Y-64020827D01*
X180709390Y-64020814D01*
X180621789Y-63889711D01*
X180621786Y-63889707D01*
X180510292Y-63778213D01*
X180510288Y-63778210D01*
X180379185Y-63690609D01*
X180379172Y-63690602D01*
X180233501Y-63630264D01*
X180233489Y-63630261D01*
X180078845Y-63599500D01*
X180078842Y-63599500D01*
X179921158Y-63599500D01*
X179921155Y-63599500D01*
X179766510Y-63630261D01*
X179766498Y-63630264D01*
X179620827Y-63690602D01*
X179620814Y-63690609D01*
X179489711Y-63778210D01*
X179489707Y-63778213D01*
X179378213Y-63889707D01*
X179378210Y-63889711D01*
X179290609Y-64020814D01*
X179290602Y-64020827D01*
X179230264Y-64166498D01*
X179230261Y-64166510D01*
X179199500Y-64321153D01*
X163500500Y-64321153D01*
X163500500Y-61271153D01*
X173949500Y-61271153D01*
X173949500Y-61428846D01*
X173980261Y-61583489D01*
X173980264Y-61583501D01*
X174040602Y-61729172D01*
X174040609Y-61729185D01*
X174075304Y-61781109D01*
X174096182Y-61847786D01*
X174077698Y-61915167D01*
X174075304Y-61918891D01*
X174040609Y-61970814D01*
X174040602Y-61970827D01*
X173980264Y-62116498D01*
X173980261Y-62116510D01*
X173949500Y-62271153D01*
X173949500Y-62428846D01*
X173980261Y-62583489D01*
X173980264Y-62583501D01*
X174040602Y-62729172D01*
X174040609Y-62729185D01*
X174075304Y-62781109D01*
X174096182Y-62847786D01*
X174077698Y-62915167D01*
X174075304Y-62918891D01*
X174040609Y-62970814D01*
X174040602Y-62970827D01*
X173980264Y-63116498D01*
X173980261Y-63116510D01*
X173949500Y-63271153D01*
X173949500Y-63428846D01*
X173980261Y-63583489D01*
X173980264Y-63583501D01*
X174040602Y-63729172D01*
X174040609Y-63729185D01*
X174128210Y-63860288D01*
X174128213Y-63860292D01*
X174239707Y-63971786D01*
X174239711Y-63971789D01*
X174370814Y-64059390D01*
X174370827Y-64059397D01*
X174516498Y-64119735D01*
X174516503Y-64119737D01*
X174671153Y-64150499D01*
X174671156Y-64150500D01*
X174671158Y-64150500D01*
X174828844Y-64150500D01*
X174828845Y-64150499D01*
X174983497Y-64119737D01*
X175129179Y-64059394D01*
X175260289Y-63971789D01*
X175371789Y-63860289D01*
X175459394Y-63729179D01*
X175519737Y-63583497D01*
X175550500Y-63428842D01*
X175550500Y-63271158D01*
X175550500Y-63271155D01*
X175550499Y-63271153D01*
X175532204Y-63179179D01*
X175519737Y-63116503D01*
X175519735Y-63116498D01*
X175459396Y-62970825D01*
X175459394Y-62970822D01*
X175459394Y-62970821D01*
X175424694Y-62918889D01*
X175403816Y-62852215D01*
X175422300Y-62784835D01*
X175424676Y-62781136D01*
X175459394Y-62729179D01*
X175519737Y-62583497D01*
X175550500Y-62428842D01*
X175550500Y-62271158D01*
X175550500Y-62271155D01*
X175550499Y-62271153D01*
X175534298Y-62189707D01*
X175519737Y-62116503D01*
X175517163Y-62110288D01*
X175459396Y-61970825D01*
X175459394Y-61970822D01*
X175459394Y-61970821D01*
X175424694Y-61918889D01*
X175403816Y-61852215D01*
X175422300Y-61784835D01*
X175424676Y-61781136D01*
X175459394Y-61729179D01*
X175461572Y-61723920D01*
X185149499Y-61723920D01*
X185178340Y-61868907D01*
X185178343Y-61868917D01*
X185223339Y-61977548D01*
X185230808Y-62047017D01*
X185223339Y-62072452D01*
X185178343Y-62181082D01*
X185178340Y-62181092D01*
X185149500Y-62326079D01*
X185149500Y-62326082D01*
X185149500Y-62473918D01*
X185149500Y-62473920D01*
X185149499Y-62473920D01*
X185178340Y-62618907D01*
X185178343Y-62618917D01*
X185223339Y-62727548D01*
X185230808Y-62797017D01*
X185223339Y-62822452D01*
X185178343Y-62931082D01*
X185178340Y-62931092D01*
X185149500Y-63076079D01*
X185149500Y-63076082D01*
X185149500Y-63223918D01*
X185149500Y-63223920D01*
X185149499Y-63223920D01*
X185178340Y-63368907D01*
X185178343Y-63368917D01*
X185234912Y-63505488D01*
X185234919Y-63505501D01*
X185317048Y-63628415D01*
X185317051Y-63628419D01*
X185421580Y-63732948D01*
X185421584Y-63732951D01*
X185544498Y-63815080D01*
X185544511Y-63815087D01*
X185653647Y-63860292D01*
X185681087Y-63871658D01*
X185681091Y-63871658D01*
X185681092Y-63871659D01*
X185826079Y-63900500D01*
X185826082Y-63900500D01*
X185973920Y-63900500D01*
X186071462Y-63881096D01*
X186118913Y-63871658D01*
X186202549Y-63837014D01*
X186272016Y-63829546D01*
X186297447Y-63837013D01*
X186381087Y-63871658D01*
X186381091Y-63871658D01*
X186381092Y-63871659D01*
X186526079Y-63900500D01*
X186526082Y-63900500D01*
X186673920Y-63900500D01*
X186771462Y-63881096D01*
X186818913Y-63871658D01*
X186952453Y-63816344D01*
X186955488Y-63815087D01*
X186955488Y-63815086D01*
X186955495Y-63815084D01*
X187078416Y-63732951D01*
X187182951Y-63628416D01*
X187265084Y-63505495D01*
X187321658Y-63368913D01*
X187350500Y-63223918D01*
X187350500Y-63076082D01*
X187350500Y-63076079D01*
X187321659Y-62931092D01*
X187321658Y-62931091D01*
X187321658Y-62931087D01*
X187276659Y-62822451D01*
X187269191Y-62752984D01*
X187276660Y-62727547D01*
X187321658Y-62618913D01*
X187332084Y-62566498D01*
X187350500Y-62473920D01*
X187350500Y-62326079D01*
X187321659Y-62181092D01*
X187321658Y-62181091D01*
X187321658Y-62181087D01*
X187276659Y-62072451D01*
X187269191Y-62002984D01*
X187276660Y-61977547D01*
X187277839Y-61974701D01*
X187321658Y-61868913D01*
X187331096Y-61821462D01*
X187350500Y-61723920D01*
X187350500Y-61576079D01*
X187321659Y-61431092D01*
X187321658Y-61431091D01*
X187321658Y-61431087D01*
X187317807Y-61421789D01*
X187265087Y-61294511D01*
X187265080Y-61294498D01*
X187182951Y-61171584D01*
X187182948Y-61171580D01*
X187078419Y-61067051D01*
X187078415Y-61067048D01*
X186955501Y-60984919D01*
X186955488Y-60984912D01*
X186818917Y-60928343D01*
X186818907Y-60928340D01*
X186673920Y-60899500D01*
X186673918Y-60899500D01*
X186526082Y-60899500D01*
X186526080Y-60899500D01*
X186381093Y-60928340D01*
X186381085Y-60928342D01*
X186297452Y-60962984D01*
X186227982Y-60970453D01*
X186202548Y-60962984D01*
X186118914Y-60928342D01*
X186118906Y-60928340D01*
X185973920Y-60899500D01*
X185973918Y-60899500D01*
X185826082Y-60899500D01*
X185826080Y-60899500D01*
X185681092Y-60928340D01*
X185681082Y-60928343D01*
X185544511Y-60984912D01*
X185544498Y-60984919D01*
X185421584Y-61067048D01*
X185421580Y-61067051D01*
X185317051Y-61171580D01*
X185317048Y-61171584D01*
X185234919Y-61294498D01*
X185234912Y-61294511D01*
X185178343Y-61431082D01*
X185178340Y-61431092D01*
X185149500Y-61576079D01*
X185149500Y-61576082D01*
X185149500Y-61723918D01*
X185149500Y-61723920D01*
X185149499Y-61723920D01*
X175461572Y-61723920D01*
X175519737Y-61583497D01*
X175532138Y-61521153D01*
X175550500Y-61428844D01*
X175550500Y-61271155D01*
X175550499Y-61271153D01*
X175547383Y-61255488D01*
X175519737Y-61116503D01*
X175519735Y-61116498D01*
X175459397Y-60970827D01*
X175459390Y-60970814D01*
X175371789Y-60839711D01*
X175371786Y-60839707D01*
X175260292Y-60728213D01*
X175260288Y-60728210D01*
X175129185Y-60640609D01*
X175129172Y-60640602D01*
X174983501Y-60580264D01*
X174983489Y-60580261D01*
X174828845Y-60549500D01*
X174828842Y-60549500D01*
X174671158Y-60549500D01*
X174671155Y-60549500D01*
X174516510Y-60580261D01*
X174516498Y-60580264D01*
X174370827Y-60640602D01*
X174370814Y-60640609D01*
X174239711Y-60728210D01*
X174239707Y-60728213D01*
X174128213Y-60839707D01*
X174128210Y-60839711D01*
X174040609Y-60970814D01*
X174040602Y-60970827D01*
X173980264Y-61116498D01*
X173980261Y-61116510D01*
X173949500Y-61271153D01*
X163500500Y-61271153D01*
X163500500Y-59521153D01*
X187064081Y-59521153D01*
X187064081Y-59678846D01*
X187094842Y-59833489D01*
X187094845Y-59833501D01*
X187155183Y-59979172D01*
X187155190Y-59979185D01*
X187242791Y-60110288D01*
X187242794Y-60110292D01*
X187354288Y-60221786D01*
X187354292Y-60221789D01*
X187485395Y-60309390D01*
X187485408Y-60309397D01*
X187631079Y-60369735D01*
X187631084Y-60369737D01*
X187785734Y-60400499D01*
X187785737Y-60400500D01*
X187785739Y-60400500D01*
X187943425Y-60400500D01*
X187943426Y-60400499D01*
X188098078Y-60369737D01*
X188243760Y-60309394D01*
X188374870Y-60221789D01*
X188486370Y-60110289D01*
X188573975Y-59979179D01*
X188634318Y-59833497D01*
X188665081Y-59678842D01*
X188665081Y-59521158D01*
X188665081Y-59521155D01*
X188665080Y-59521153D01*
X188634318Y-59366503D01*
X188615532Y-59321150D01*
X189199500Y-59321150D01*
X189199500Y-59478843D01*
X189230261Y-59633486D01*
X189230264Y-59633498D01*
X189279575Y-59752546D01*
X189287044Y-59822015D01*
X189279575Y-59847450D01*
X189230264Y-59966498D01*
X189230261Y-59966510D01*
X189199500Y-60121153D01*
X189199500Y-60278846D01*
X189230261Y-60433489D01*
X189230264Y-60433501D01*
X189290602Y-60579172D01*
X189290609Y-60579185D01*
X189378210Y-60710288D01*
X189378213Y-60710292D01*
X189489707Y-60821786D01*
X189489711Y-60821789D01*
X189620814Y-60909390D01*
X189620827Y-60909397D01*
X189766498Y-60969735D01*
X189766503Y-60969737D01*
X189921153Y-61000499D01*
X189921156Y-61000500D01*
X189921158Y-61000500D01*
X190078844Y-61000500D01*
X190078845Y-61000499D01*
X190233497Y-60969737D01*
X190379179Y-60909394D01*
X190510289Y-60821789D01*
X190621789Y-60710289D01*
X190709394Y-60579179D01*
X190769737Y-60433497D01*
X190800500Y-60278842D01*
X190800500Y-60273920D01*
X191649499Y-60273920D01*
X191678340Y-60418906D01*
X191678342Y-60418914D01*
X191712984Y-60502548D01*
X191720453Y-60572018D01*
X191712984Y-60597452D01*
X191678342Y-60681085D01*
X191678340Y-60681093D01*
X191649500Y-60826079D01*
X191649500Y-60826082D01*
X191649500Y-60973918D01*
X191649500Y-60973920D01*
X191649499Y-60973920D01*
X191678340Y-61118907D01*
X191678343Y-61118917D01*
X191734912Y-61255488D01*
X191734919Y-61255501D01*
X191817048Y-61378415D01*
X191817051Y-61378419D01*
X191921580Y-61482948D01*
X191921584Y-61482951D01*
X192044498Y-61565080D01*
X192044511Y-61565087D01*
X192171932Y-61617866D01*
X192181087Y-61621658D01*
X192181091Y-61621658D01*
X192181092Y-61621659D01*
X192326079Y-61650500D01*
X192326082Y-61650500D01*
X192473920Y-61650500D01*
X192571462Y-61631096D01*
X192618913Y-61621658D01*
X192727548Y-61576659D01*
X192797016Y-61569191D01*
X192822449Y-61576658D01*
X192931087Y-61621658D01*
X192931091Y-61621658D01*
X192931092Y-61621659D01*
X193076079Y-61650500D01*
X193076082Y-61650500D01*
X193223920Y-61650500D01*
X193321462Y-61631096D01*
X193368913Y-61621658D01*
X193477548Y-61576659D01*
X193547016Y-61569191D01*
X193572449Y-61576658D01*
X193681087Y-61621658D01*
X193681091Y-61621658D01*
X193681092Y-61621659D01*
X193826079Y-61650500D01*
X193826082Y-61650500D01*
X193973919Y-61650500D01*
X193988673Y-61647565D01*
X194058265Y-61653791D01*
X194113442Y-61696654D01*
X194136688Y-61762543D01*
X194120621Y-61830540D01*
X194070343Y-61879057D01*
X194060320Y-61883743D01*
X194052225Y-61887096D01*
X194052218Y-61887099D01*
X193921115Y-61974700D01*
X193921111Y-61974703D01*
X193809617Y-62086197D01*
X193809614Y-62086201D01*
X193722013Y-62217304D01*
X193722006Y-62217317D01*
X193661668Y-62362988D01*
X193661665Y-62363000D01*
X193630904Y-62517643D01*
X193630904Y-62675336D01*
X193661665Y-62829979D01*
X193661668Y-62829991D01*
X193722006Y-62975662D01*
X193722013Y-62975675D01*
X193809614Y-63106778D01*
X193809617Y-63106782D01*
X193921111Y-63218276D01*
X193921115Y-63218279D01*
X194052218Y-63305880D01*
X194052231Y-63305887D01*
X194197902Y-63366225D01*
X194197907Y-63366227D01*
X194352557Y-63396989D01*
X194352560Y-63396990D01*
X194352562Y-63396990D01*
X194510248Y-63396990D01*
X194510249Y-63396989D01*
X194664901Y-63366227D01*
X194810583Y-63305884D01*
X194941693Y-63218279D01*
X195053193Y-63106779D01*
X195140798Y-62975669D01*
X195142805Y-62970825D01*
X195164316Y-62918891D01*
X195201141Y-62829987D01*
X195211314Y-62778844D01*
X195222790Y-62721153D01*
X199799500Y-62721153D01*
X199799500Y-62878846D01*
X199830261Y-63033489D01*
X199830264Y-63033501D01*
X199890602Y-63179172D01*
X199890609Y-63179185D01*
X199978210Y-63310288D01*
X199978213Y-63310292D01*
X200089707Y-63421786D01*
X200089711Y-63421789D01*
X200220814Y-63509390D01*
X200220827Y-63509397D01*
X200366498Y-63569735D01*
X200366503Y-63569737D01*
X200516131Y-63599500D01*
X200521153Y-63600499D01*
X200521156Y-63600500D01*
X200521158Y-63600500D01*
X200678844Y-63600500D01*
X200678845Y-63600499D01*
X200833497Y-63569737D01*
X200950790Y-63521153D01*
X201799500Y-63521153D01*
X201799500Y-63678846D01*
X201830261Y-63833489D01*
X201830264Y-63833501D01*
X201890602Y-63979172D01*
X201890609Y-63979185D01*
X201978210Y-64110288D01*
X201978213Y-64110292D01*
X202089707Y-64221786D01*
X202089711Y-64221789D01*
X202220814Y-64309390D01*
X202220827Y-64309397D01*
X202366498Y-64369735D01*
X202366503Y-64369737D01*
X202516131Y-64399500D01*
X202521153Y-64400499D01*
X202521156Y-64400500D01*
X202521158Y-64400500D01*
X202678844Y-64400500D01*
X202678845Y-64400499D01*
X202833497Y-64369737D01*
X202979179Y-64309394D01*
X203110289Y-64221789D01*
X203221789Y-64110289D01*
X203309394Y-63979179D01*
X203369737Y-63833497D01*
X203400500Y-63678842D01*
X203400500Y-63521158D01*
X203400500Y-63521155D01*
X203400499Y-63521153D01*
X203380734Y-63421788D01*
X203369737Y-63366503D01*
X203344628Y-63305884D01*
X203309397Y-63220827D01*
X203309390Y-63220814D01*
X203221789Y-63089711D01*
X203221786Y-63089707D01*
X203110292Y-62978213D01*
X203110288Y-62978210D01*
X202979185Y-62890609D01*
X202979172Y-62890602D01*
X202833501Y-62830264D01*
X202833489Y-62830261D01*
X202678845Y-62799500D01*
X202678842Y-62799500D01*
X202521158Y-62799500D01*
X202521155Y-62799500D01*
X202366510Y-62830261D01*
X202366498Y-62830264D01*
X202220827Y-62890602D01*
X202220814Y-62890609D01*
X202089711Y-62978210D01*
X202089707Y-62978213D01*
X201978213Y-63089707D01*
X201978210Y-63089711D01*
X201890609Y-63220814D01*
X201890602Y-63220827D01*
X201830264Y-63366498D01*
X201830261Y-63366510D01*
X201799500Y-63521153D01*
X200950790Y-63521153D01*
X200979179Y-63509394D01*
X201110289Y-63421789D01*
X201221789Y-63310289D01*
X201309394Y-63179179D01*
X201369737Y-63033497D01*
X201400500Y-62878842D01*
X201400500Y-62721158D01*
X201400500Y-62721155D01*
X201384209Y-62639258D01*
X201384209Y-62639257D01*
X201380608Y-62621153D01*
X206099500Y-62621153D01*
X206099500Y-62778846D01*
X206130261Y-62933489D01*
X206130264Y-62933501D01*
X206190602Y-63079172D01*
X206190609Y-63079185D01*
X206278210Y-63210288D01*
X206278213Y-63210292D01*
X206389707Y-63321786D01*
X206389711Y-63321789D01*
X206520814Y-63409390D01*
X206520827Y-63409397D01*
X206666498Y-63469735D01*
X206666503Y-63469737D01*
X206821153Y-63500499D01*
X206821156Y-63500500D01*
X206821158Y-63500500D01*
X206978844Y-63500500D01*
X206978845Y-63500499D01*
X207133497Y-63469737D01*
X207279179Y-63409394D01*
X207410289Y-63321789D01*
X207521789Y-63210289D01*
X207609394Y-63079179D01*
X207669737Y-62933497D01*
X207700500Y-62778842D01*
X207700500Y-62621158D01*
X207700500Y-62621155D01*
X207700499Y-62621153D01*
X207679743Y-62516803D01*
X207685970Y-62447212D01*
X207728833Y-62392034D01*
X207777174Y-62370994D01*
X207783497Y-62369737D01*
X207929179Y-62309394D01*
X208060289Y-62221789D01*
X208171789Y-62110289D01*
X208259394Y-61979179D01*
X208262854Y-61970827D01*
X208279655Y-61930264D01*
X208319737Y-61833497D01*
X208350500Y-61678842D01*
X208350500Y-61521158D01*
X208350500Y-61521155D01*
X208350499Y-61521153D01*
X214354500Y-61521153D01*
X214354500Y-61678846D01*
X214385261Y-61833489D01*
X214385264Y-61833501D01*
X214445602Y-61979172D01*
X214445609Y-61979185D01*
X214533210Y-62110288D01*
X214533213Y-62110292D01*
X214644707Y-62221786D01*
X214644711Y-62221789D01*
X214775814Y-62309390D01*
X214775827Y-62309397D01*
X214905209Y-62362988D01*
X214921503Y-62369737D01*
X215033597Y-62392034D01*
X215076153Y-62400499D01*
X215076156Y-62400500D01*
X215076158Y-62400500D01*
X215233844Y-62400500D01*
X215233845Y-62400499D01*
X215388497Y-62369737D01*
X215506592Y-62320821D01*
X215534172Y-62309397D01*
X215534172Y-62309396D01*
X215534179Y-62309394D01*
X215665289Y-62221789D01*
X215776789Y-62110289D01*
X215864394Y-61979179D01*
X215867854Y-61970827D01*
X215884655Y-61930264D01*
X215924737Y-61833497D01*
X215955500Y-61678842D01*
X215955500Y-61521158D01*
X215955500Y-61521155D01*
X215955499Y-61521153D01*
X215947900Y-61482951D01*
X215924737Y-61366503D01*
X215878759Y-61255501D01*
X215864397Y-61220827D01*
X215864390Y-61220814D01*
X215776789Y-61089711D01*
X215776786Y-61089707D01*
X215665292Y-60978213D01*
X215665288Y-60978210D01*
X215534185Y-60890609D01*
X215534172Y-60890602D01*
X215388501Y-60830264D01*
X215388489Y-60830261D01*
X215233845Y-60799500D01*
X215233842Y-60799500D01*
X215076158Y-60799500D01*
X215076155Y-60799500D01*
X214921510Y-60830261D01*
X214921498Y-60830264D01*
X214775827Y-60890602D01*
X214775814Y-60890609D01*
X214644711Y-60978210D01*
X214644707Y-60978213D01*
X214533213Y-61089707D01*
X214533210Y-61089711D01*
X214445609Y-61220814D01*
X214445602Y-61220827D01*
X214385264Y-61366498D01*
X214385261Y-61366510D01*
X214354500Y-61521153D01*
X208350499Y-61521153D01*
X208342900Y-61482951D01*
X208319737Y-61366503D01*
X208273759Y-61255501D01*
X208259397Y-61220827D01*
X208259390Y-61220814D01*
X208171789Y-61089711D01*
X208171786Y-61089707D01*
X208060292Y-60978213D01*
X208060288Y-60978210D01*
X207929185Y-60890609D01*
X207929172Y-60890602D01*
X207783501Y-60830264D01*
X207783489Y-60830261D01*
X207628845Y-60799500D01*
X207628842Y-60799500D01*
X207471158Y-60799500D01*
X207471155Y-60799500D01*
X207316510Y-60830261D01*
X207316498Y-60830264D01*
X207170827Y-60890602D01*
X207170814Y-60890609D01*
X207039711Y-60978210D01*
X207039707Y-60978213D01*
X206928213Y-61089707D01*
X206928210Y-61089711D01*
X206840609Y-61220814D01*
X206840602Y-61220827D01*
X206780264Y-61366498D01*
X206780261Y-61366510D01*
X206749500Y-61521153D01*
X206749500Y-61678846D01*
X206770256Y-61783195D01*
X206764029Y-61852787D01*
X206721165Y-61907964D01*
X206672840Y-61929002D01*
X206666505Y-61930262D01*
X206666498Y-61930264D01*
X206520827Y-61990602D01*
X206520814Y-61990609D01*
X206389711Y-62078210D01*
X206389707Y-62078213D01*
X206278213Y-62189707D01*
X206278210Y-62189711D01*
X206190609Y-62320814D01*
X206190602Y-62320827D01*
X206130264Y-62466498D01*
X206130261Y-62466510D01*
X206099500Y-62621153D01*
X201380608Y-62621153D01*
X201369738Y-62566510D01*
X201369737Y-62566503D01*
X201349151Y-62516803D01*
X201309397Y-62420827D01*
X201309390Y-62420814D01*
X201221789Y-62289711D01*
X201221786Y-62289707D01*
X201110292Y-62178213D01*
X201110288Y-62178210D01*
X200979185Y-62090609D01*
X200979172Y-62090602D01*
X200833501Y-62030264D01*
X200833489Y-62030261D01*
X200678845Y-61999500D01*
X200678842Y-61999500D01*
X200521158Y-61999500D01*
X200521155Y-61999500D01*
X200366510Y-62030261D01*
X200366498Y-62030264D01*
X200220827Y-62090602D01*
X200220814Y-62090609D01*
X200089711Y-62178210D01*
X200089707Y-62178213D01*
X199978213Y-62289707D01*
X199978210Y-62289711D01*
X199890609Y-62420814D01*
X199890602Y-62420827D01*
X199830264Y-62566498D01*
X199830261Y-62566510D01*
X199799500Y-62721153D01*
X195222790Y-62721153D01*
X195228813Y-62690874D01*
X195228813Y-62690873D01*
X195231903Y-62675336D01*
X195231904Y-62675334D01*
X195231904Y-62517645D01*
X195231903Y-62517643D01*
X195223206Y-62473920D01*
X195201141Y-62362993D01*
X195185851Y-62326079D01*
X195140801Y-62217317D01*
X195140794Y-62217304D01*
X195053193Y-62086201D01*
X195053190Y-62086197D01*
X194941696Y-61974703D01*
X194941692Y-61974700D01*
X194810589Y-61887099D01*
X194810576Y-61887092D01*
X194664905Y-61826754D01*
X194664893Y-61826751D01*
X194510249Y-61795990D01*
X194510246Y-61795990D01*
X194352562Y-61795990D01*
X194352560Y-61795990D01*
X194328138Y-61800847D01*
X194258546Y-61794617D01*
X194203370Y-61751753D01*
X194180128Y-61685862D01*
X194196198Y-61617866D01*
X194246478Y-61569352D01*
X194254688Y-61565514D01*
X194255488Y-61565086D01*
X194255495Y-61565084D01*
X194378416Y-61482951D01*
X194482951Y-61378416D01*
X194565084Y-61255495D01*
X194621658Y-61118913D01*
X194638650Y-61033489D01*
X194650500Y-60973920D01*
X194650500Y-60921153D01*
X199149500Y-60921153D01*
X199149500Y-61078846D01*
X199180261Y-61233489D01*
X199180264Y-61233501D01*
X199240602Y-61379172D01*
X199240609Y-61379185D01*
X199328210Y-61510288D01*
X199328213Y-61510292D01*
X199439707Y-61621786D01*
X199439711Y-61621789D01*
X199570814Y-61709390D01*
X199570827Y-61709397D01*
X199673085Y-61751753D01*
X199716503Y-61769737D01*
X199848485Y-61795990D01*
X199871153Y-61800499D01*
X199871156Y-61800500D01*
X199871158Y-61800500D01*
X200028844Y-61800500D01*
X200028845Y-61800499D01*
X200183497Y-61769737D01*
X200329179Y-61709394D01*
X200460289Y-61621789D01*
X200571789Y-61510289D01*
X200659394Y-61379179D01*
X200659711Y-61378415D01*
X200704137Y-61271158D01*
X200719737Y-61233497D01*
X200750500Y-61078842D01*
X200750500Y-60921158D01*
X200750500Y-60921155D01*
X200750499Y-60921153D01*
X200750445Y-60920880D01*
X200719737Y-60766503D01*
X200709658Y-60742169D01*
X200659397Y-60620827D01*
X200659390Y-60620814D01*
X200571789Y-60489711D01*
X200571786Y-60489707D01*
X200460292Y-60378213D01*
X200460288Y-60378210D01*
X200329185Y-60290609D01*
X200329172Y-60290602D01*
X200183501Y-60230264D01*
X200183489Y-60230261D01*
X200028845Y-60199500D01*
X200028842Y-60199500D01*
X199871158Y-60199500D01*
X199871155Y-60199500D01*
X199716510Y-60230261D01*
X199716498Y-60230264D01*
X199570827Y-60290602D01*
X199570814Y-60290609D01*
X199439711Y-60378210D01*
X199439707Y-60378213D01*
X199328213Y-60489707D01*
X199328210Y-60489711D01*
X199240609Y-60620814D01*
X199240602Y-60620827D01*
X199180264Y-60766498D01*
X199180261Y-60766510D01*
X199149500Y-60921153D01*
X194650500Y-60921153D01*
X194650500Y-60826079D01*
X194621659Y-60681092D01*
X194621658Y-60681091D01*
X194621658Y-60681087D01*
X194587014Y-60597450D01*
X194579546Y-60527984D01*
X194587015Y-60502548D01*
X194621658Y-60418913D01*
X194647180Y-60290609D01*
X194650500Y-60273920D01*
X194650500Y-60126079D01*
X194621659Y-59981092D01*
X194621658Y-59981091D01*
X194621658Y-59981087D01*
X194620865Y-59979172D01*
X194565087Y-59844511D01*
X194565080Y-59844498D01*
X194482951Y-59721584D01*
X194482948Y-59721580D01*
X194378419Y-59617051D01*
X194378415Y-59617048D01*
X194255501Y-59534919D01*
X194255488Y-59534912D01*
X194118917Y-59478343D01*
X194118907Y-59478340D01*
X193973920Y-59449500D01*
X193973918Y-59449500D01*
X193826082Y-59449500D01*
X193826080Y-59449500D01*
X193681092Y-59478340D01*
X193681082Y-59478343D01*
X193572452Y-59523339D01*
X193502983Y-59530808D01*
X193477548Y-59523339D01*
X193368917Y-59478343D01*
X193368907Y-59478340D01*
X193223920Y-59449500D01*
X193223918Y-59449500D01*
X193076082Y-59449500D01*
X193076080Y-59449500D01*
X192931092Y-59478340D01*
X192931082Y-59478343D01*
X192822452Y-59523339D01*
X192752983Y-59530808D01*
X192727548Y-59523339D01*
X192618917Y-59478343D01*
X192618907Y-59478340D01*
X192473920Y-59449500D01*
X192473918Y-59449500D01*
X192326082Y-59449500D01*
X192326080Y-59449500D01*
X192181092Y-59478340D01*
X192181082Y-59478343D01*
X192044511Y-59534912D01*
X192044498Y-59534919D01*
X191921584Y-59617048D01*
X191921580Y-59617051D01*
X191817051Y-59721580D01*
X191817048Y-59721584D01*
X191734919Y-59844498D01*
X191734912Y-59844511D01*
X191678343Y-59981082D01*
X191678340Y-59981092D01*
X191649500Y-60126079D01*
X191649500Y-60126082D01*
X191649500Y-60273918D01*
X191649500Y-60273920D01*
X191649499Y-60273920D01*
X190800500Y-60273920D01*
X190800500Y-60121158D01*
X190800500Y-60121155D01*
X190800499Y-60121153D01*
X190782852Y-60032438D01*
X190769737Y-59966503D01*
X190720423Y-59847449D01*
X190712955Y-59777981D01*
X190720424Y-59752546D01*
X190769737Y-59633494D01*
X190800500Y-59478839D01*
X190800500Y-59321155D01*
X190800500Y-59321152D01*
X190800499Y-59321150D01*
X190780609Y-59221158D01*
X190769737Y-59166500D01*
X190751216Y-59121786D01*
X190709533Y-59021153D01*
X199049500Y-59021153D01*
X199049500Y-59178846D01*
X199080261Y-59333489D01*
X199080264Y-59333501D01*
X199140602Y-59479172D01*
X199140609Y-59479185D01*
X199228210Y-59610288D01*
X199228213Y-59610292D01*
X199339707Y-59721786D01*
X199339711Y-59721789D01*
X199470814Y-59809390D01*
X199470827Y-59809397D01*
X199562699Y-59847451D01*
X199616503Y-59869737D01*
X199771153Y-59900499D01*
X199771156Y-59900500D01*
X199771158Y-59900500D01*
X199928844Y-59900500D01*
X199928845Y-59900499D01*
X200083497Y-59869737D01*
X200229179Y-59809394D01*
X200360289Y-59721789D01*
X200471789Y-59610289D01*
X200559394Y-59479179D01*
X200562019Y-59472843D01*
X200573067Y-59446166D01*
X200619737Y-59333497D01*
X200642083Y-59221158D01*
X200642084Y-59221153D01*
X202049500Y-59221153D01*
X202049500Y-59378846D01*
X202080261Y-59533489D01*
X202080264Y-59533501D01*
X202140602Y-59679172D01*
X202140609Y-59679185D01*
X202228210Y-59810288D01*
X202228213Y-59810292D01*
X202339708Y-59921787D01*
X202339711Y-59921789D01*
X202377287Y-59946897D01*
X202422092Y-60000508D01*
X202430800Y-60069833D01*
X202400646Y-60132861D01*
X202377290Y-60153100D01*
X202339710Y-60178211D01*
X202339707Y-60178213D01*
X202228213Y-60289707D01*
X202228210Y-60289711D01*
X202140609Y-60420814D01*
X202140602Y-60420827D01*
X202080264Y-60566498D01*
X202080261Y-60566510D01*
X202049500Y-60721153D01*
X202049500Y-60878846D01*
X202080261Y-61033489D01*
X202080264Y-61033501D01*
X202140602Y-61179172D01*
X202140609Y-61179185D01*
X202228210Y-61310288D01*
X202228213Y-61310292D01*
X202339707Y-61421786D01*
X202339711Y-61421789D01*
X202470814Y-61509390D01*
X202470827Y-61509397D01*
X202616498Y-61569735D01*
X202616503Y-61569737D01*
X202771153Y-61600499D01*
X202771156Y-61600500D01*
X202771158Y-61600500D01*
X202928844Y-61600500D01*
X202928845Y-61600499D01*
X203083497Y-61569737D01*
X203229179Y-61509394D01*
X203281110Y-61474694D01*
X203347785Y-61453816D01*
X203415165Y-61472300D01*
X203418863Y-61474676D01*
X203470821Y-61509394D01*
X203470823Y-61509395D01*
X203470825Y-61509396D01*
X203616498Y-61569735D01*
X203616503Y-61569737D01*
X203771153Y-61600499D01*
X203771156Y-61600500D01*
X203771158Y-61600500D01*
X203928844Y-61600500D01*
X203928845Y-61600499D01*
X204083497Y-61569737D01*
X204229179Y-61509394D01*
X204360289Y-61421789D01*
X204471789Y-61310289D01*
X204559394Y-61179179D01*
X204619737Y-61033497D01*
X204650500Y-60878842D01*
X204650500Y-60721158D01*
X204650500Y-60721155D01*
X204650499Y-60721153D01*
X204648338Y-60710288D01*
X204619737Y-60566503D01*
X204587929Y-60489711D01*
X204559397Y-60420827D01*
X204559390Y-60420814D01*
X204471789Y-60289711D01*
X204471786Y-60289707D01*
X204360292Y-60178213D01*
X204360286Y-60178208D01*
X204322710Y-60153100D01*
X204301668Y-60127922D01*
X204279744Y-60103513D01*
X204279377Y-60101248D01*
X204277905Y-60099487D01*
X204273815Y-60066925D01*
X204269701Y-60041533D01*
X205279120Y-60041533D01*
X205279120Y-60199226D01*
X205309881Y-60353869D01*
X205309884Y-60353881D01*
X205370222Y-60499552D01*
X205370229Y-60499565D01*
X205457830Y-60630668D01*
X205457833Y-60630672D01*
X205569327Y-60742166D01*
X205569331Y-60742169D01*
X205700434Y-60829770D01*
X205700447Y-60829777D01*
X205818907Y-60878844D01*
X205846123Y-60890117D01*
X206000773Y-60920879D01*
X206000776Y-60920880D01*
X206000778Y-60920880D01*
X206158464Y-60920880D01*
X206158465Y-60920879D01*
X206313117Y-60890117D01*
X206434809Y-60839711D01*
X206458792Y-60829777D01*
X206458792Y-60829776D01*
X206458799Y-60829774D01*
X206589909Y-60742169D01*
X206701409Y-60630669D01*
X206789014Y-60499559D01*
X206849357Y-60353877D01*
X206880120Y-60199222D01*
X206880120Y-60070274D01*
X206899805Y-60003235D01*
X206952609Y-59957480D01*
X207021767Y-59947536D01*
X207073011Y-59967172D01*
X207136194Y-60009390D01*
X207136207Y-60009397D01*
X207275094Y-60066925D01*
X207281883Y-60069737D01*
X207386798Y-60090606D01*
X207436533Y-60100499D01*
X207436536Y-60100500D01*
X207436538Y-60100500D01*
X207594224Y-60100500D01*
X207594225Y-60100499D01*
X207748877Y-60069737D01*
X207894559Y-60009394D01*
X208025669Y-59921789D01*
X208137169Y-59810289D01*
X208224774Y-59679179D01*
X208285117Y-59533497D01*
X208315880Y-59378842D01*
X208315880Y-59221158D01*
X208315880Y-59221155D01*
X208315879Y-59221153D01*
X208309856Y-59190874D01*
X208285117Y-59066503D01*
X208266335Y-59021158D01*
X208224777Y-58920827D01*
X208224770Y-58920814D01*
X208137169Y-58789711D01*
X208137166Y-58789707D01*
X208025672Y-58678213D01*
X208025668Y-58678210D01*
X207894565Y-58590609D01*
X207894552Y-58590602D01*
X207776321Y-58541630D01*
X207769271Y-58535949D01*
X207760498Y-58533710D01*
X207742490Y-58514367D01*
X207721917Y-58497789D01*
X207719058Y-58489199D01*
X207712888Y-58482572D01*
X207708196Y-58456566D01*
X207699852Y-58431495D01*
X207701718Y-58421153D01*
X214314500Y-58421153D01*
X214314500Y-58578846D01*
X214345261Y-58733489D01*
X214345264Y-58733501D01*
X214405602Y-58879172D01*
X214405609Y-58879185D01*
X214493210Y-59010288D01*
X214493213Y-59010292D01*
X214604707Y-59121786D01*
X214604711Y-59121789D01*
X214735814Y-59209390D01*
X214735827Y-59209397D01*
X214881498Y-59269735D01*
X214881503Y-59269737D01*
X215036153Y-59300499D01*
X215036156Y-59300500D01*
X215036158Y-59300500D01*
X215193844Y-59300500D01*
X215193845Y-59300499D01*
X215348497Y-59269737D01*
X215466592Y-59220821D01*
X215494172Y-59209397D01*
X215494172Y-59209396D01*
X215494179Y-59209394D01*
X215625289Y-59121789D01*
X215736789Y-59010289D01*
X215824394Y-58879179D01*
X215884737Y-58733497D01*
X215915500Y-58578842D01*
X215915500Y-58421158D01*
X215915500Y-58421155D01*
X215915499Y-58421153D01*
X215909422Y-58390602D01*
X215884737Y-58266503D01*
X215884735Y-58266498D01*
X215824397Y-58120827D01*
X215824390Y-58120814D01*
X215736789Y-57989711D01*
X215736786Y-57989707D01*
X215625292Y-57878213D01*
X215625288Y-57878210D01*
X215494185Y-57790609D01*
X215494172Y-57790602D01*
X215348501Y-57730264D01*
X215348489Y-57730261D01*
X215193845Y-57699500D01*
X215193842Y-57699500D01*
X215036158Y-57699500D01*
X215036155Y-57699500D01*
X214881510Y-57730261D01*
X214881498Y-57730264D01*
X214735827Y-57790602D01*
X214735814Y-57790609D01*
X214604711Y-57878210D01*
X214604707Y-57878213D01*
X214493213Y-57989707D01*
X214493210Y-57989711D01*
X214405609Y-58120814D01*
X214405602Y-58120827D01*
X214345264Y-58266498D01*
X214345261Y-58266510D01*
X214314500Y-58421153D01*
X207701718Y-58421153D01*
X207701763Y-58420902D01*
X207700484Y-58413812D01*
X207709213Y-58379615D01*
X207709394Y-58379179D01*
X207769737Y-58233497D01*
X207800500Y-58078842D01*
X207800500Y-57921158D01*
X207800500Y-57921155D01*
X207800499Y-57921153D01*
X207783061Y-57833489D01*
X207769737Y-57766503D01*
X207769735Y-57766498D01*
X207709397Y-57620827D01*
X207709390Y-57620814D01*
X207621789Y-57489711D01*
X207621786Y-57489707D01*
X207510292Y-57378213D01*
X207510288Y-57378210D01*
X207379185Y-57290609D01*
X207379172Y-57290602D01*
X207233501Y-57230264D01*
X207233489Y-57230261D01*
X207078845Y-57199500D01*
X207078842Y-57199500D01*
X206921158Y-57199500D01*
X206921155Y-57199500D01*
X206766510Y-57230261D01*
X206766498Y-57230264D01*
X206620827Y-57290602D01*
X206620814Y-57290609D01*
X206489711Y-57378210D01*
X206489707Y-57378213D01*
X206378213Y-57489707D01*
X206378210Y-57489711D01*
X206290609Y-57620814D01*
X206290602Y-57620827D01*
X206230264Y-57766498D01*
X206230261Y-57766510D01*
X206199500Y-57921153D01*
X206199500Y-58078846D01*
X206230261Y-58233489D01*
X206230264Y-58233501D01*
X206290602Y-58379172D01*
X206290609Y-58379185D01*
X206378210Y-58510288D01*
X206378213Y-58510292D01*
X206489707Y-58621786D01*
X206489711Y-58621789D01*
X206620814Y-58709390D01*
X206620827Y-58709397D01*
X206739058Y-58758369D01*
X206793462Y-58802209D01*
X206815527Y-58868503D01*
X206806167Y-58920382D01*
X206745644Y-59066498D01*
X206745641Y-59066510D01*
X206714880Y-59221153D01*
X206714880Y-59350105D01*
X206695195Y-59417144D01*
X206642391Y-59462899D01*
X206573233Y-59472843D01*
X206521990Y-59453208D01*
X206458803Y-59410988D01*
X206458792Y-59410982D01*
X206313121Y-59350644D01*
X206313109Y-59350641D01*
X206158465Y-59319880D01*
X206158462Y-59319880D01*
X206000778Y-59319880D01*
X206000775Y-59319880D01*
X205846130Y-59350641D01*
X205846118Y-59350644D01*
X205700447Y-59410982D01*
X205700434Y-59410989D01*
X205569331Y-59498590D01*
X205569327Y-59498593D01*
X205457833Y-59610087D01*
X205457830Y-59610091D01*
X205370229Y-59741194D01*
X205370222Y-59741207D01*
X205309884Y-59886878D01*
X205309881Y-59886890D01*
X205279120Y-60041533D01*
X204269701Y-60041533D01*
X204268569Y-60034543D01*
X204269484Y-60032438D01*
X204269199Y-60030162D01*
X204283357Y-60000569D01*
X204296456Y-59970480D01*
X204298733Y-59968434D01*
X204299355Y-59967135D01*
X204322705Y-59946901D01*
X204360289Y-59921789D01*
X204471789Y-59810289D01*
X204559394Y-59679179D01*
X204619737Y-59533497D01*
X204650500Y-59378842D01*
X204650500Y-59221158D01*
X204650500Y-59221155D01*
X204650499Y-59221153D01*
X204644476Y-59190874D01*
X204619737Y-59066503D01*
X204600955Y-59021158D01*
X204559397Y-58920827D01*
X204559390Y-58920814D01*
X204471789Y-58789711D01*
X204471786Y-58789707D01*
X204360292Y-58678213D01*
X204360288Y-58678210D01*
X204229185Y-58590609D01*
X204229172Y-58590602D01*
X204083501Y-58530264D01*
X204083489Y-58530261D01*
X203928845Y-58499500D01*
X203928842Y-58499500D01*
X203771158Y-58499500D01*
X203771155Y-58499500D01*
X203616510Y-58530261D01*
X203616498Y-58530264D01*
X203470827Y-58590602D01*
X203470814Y-58590609D01*
X203418891Y-58625304D01*
X203352214Y-58646182D01*
X203284833Y-58627698D01*
X203281109Y-58625304D01*
X203229185Y-58590609D01*
X203229172Y-58590602D01*
X203083501Y-58530264D01*
X203083489Y-58530261D01*
X202928845Y-58499500D01*
X202928842Y-58499500D01*
X202771158Y-58499500D01*
X202771155Y-58499500D01*
X202616510Y-58530261D01*
X202616498Y-58530264D01*
X202470827Y-58590602D01*
X202470814Y-58590609D01*
X202339711Y-58678210D01*
X202339707Y-58678213D01*
X202228213Y-58789707D01*
X202228210Y-58789711D01*
X202140609Y-58920814D01*
X202140602Y-58920827D01*
X202080264Y-59066498D01*
X202080261Y-59066510D01*
X202049500Y-59221153D01*
X200642084Y-59221153D01*
X200648107Y-59190875D01*
X200648107Y-59190874D01*
X200650500Y-59178844D01*
X200650500Y-59021155D01*
X200650499Y-59021153D01*
X200630543Y-58920827D01*
X200619737Y-58866503D01*
X200619735Y-58866498D01*
X200559397Y-58720827D01*
X200559390Y-58720814D01*
X200471789Y-58589711D01*
X200471786Y-58589707D01*
X200360292Y-58478213D01*
X200360288Y-58478210D01*
X200229185Y-58390609D01*
X200229172Y-58390602D01*
X200083501Y-58330264D01*
X200083489Y-58330261D01*
X199928845Y-58299500D01*
X199928842Y-58299500D01*
X199771158Y-58299500D01*
X199771155Y-58299500D01*
X199616510Y-58330261D01*
X199616498Y-58330264D01*
X199470827Y-58390602D01*
X199470814Y-58390609D01*
X199339711Y-58478210D01*
X199339707Y-58478213D01*
X199228213Y-58589707D01*
X199228210Y-58589711D01*
X199140609Y-58720814D01*
X199140602Y-58720827D01*
X199080264Y-58866498D01*
X199080261Y-58866510D01*
X199049500Y-59021153D01*
X190709533Y-59021153D01*
X190709397Y-59020824D01*
X190709390Y-59020811D01*
X190621789Y-58889708D01*
X190621786Y-58889704D01*
X190510292Y-58778210D01*
X190510288Y-58778207D01*
X190379185Y-58690606D01*
X190379172Y-58690599D01*
X190233501Y-58630261D01*
X190233489Y-58630258D01*
X190078845Y-58599497D01*
X190078842Y-58599497D01*
X189921158Y-58599497D01*
X189921155Y-58599497D01*
X189766510Y-58630258D01*
X189766498Y-58630261D01*
X189620827Y-58690599D01*
X189620814Y-58690606D01*
X189489711Y-58778207D01*
X189489707Y-58778210D01*
X189378213Y-58889704D01*
X189378210Y-58889708D01*
X189290609Y-59020811D01*
X189290602Y-59020824D01*
X189230264Y-59166495D01*
X189230261Y-59166507D01*
X189199500Y-59321150D01*
X188615532Y-59321150D01*
X188606979Y-59300500D01*
X188573978Y-59220827D01*
X188573971Y-59220814D01*
X188486370Y-59089711D01*
X188486367Y-59089707D01*
X188374873Y-58978213D01*
X188374869Y-58978210D01*
X188243766Y-58890609D01*
X188243753Y-58890602D01*
X188098082Y-58830264D01*
X188098070Y-58830261D01*
X187943426Y-58799500D01*
X187943423Y-58799500D01*
X187785739Y-58799500D01*
X187785736Y-58799500D01*
X187631091Y-58830261D01*
X187631079Y-58830264D01*
X187485408Y-58890602D01*
X187485395Y-58890609D01*
X187354292Y-58978210D01*
X187354288Y-58978213D01*
X187242794Y-59089707D01*
X187242791Y-59089711D01*
X187155190Y-59220814D01*
X187155183Y-59220827D01*
X187094845Y-59366498D01*
X187094842Y-59366510D01*
X187064081Y-59521153D01*
X163500500Y-59521153D01*
X163500500Y-57921153D01*
X166399500Y-57921153D01*
X166399500Y-58078846D01*
X166430261Y-58233489D01*
X166430264Y-58233501D01*
X166490602Y-58379172D01*
X166490609Y-58379185D01*
X166578210Y-58510288D01*
X166578213Y-58510292D01*
X166689707Y-58621786D01*
X166689711Y-58621789D01*
X166820814Y-58709390D01*
X166820827Y-58709397D01*
X166939058Y-58758369D01*
X166966503Y-58769737D01*
X167116131Y-58799500D01*
X167121153Y-58800499D01*
X167121156Y-58800500D01*
X167121158Y-58800500D01*
X167278844Y-58800500D01*
X167278845Y-58800499D01*
X167433497Y-58769737D01*
X167551592Y-58720821D01*
X167579172Y-58709397D01*
X167579172Y-58709396D01*
X167579179Y-58709394D01*
X167710289Y-58621789D01*
X167821789Y-58510289D01*
X167909394Y-58379179D01*
X167969737Y-58233497D01*
X167992083Y-58121158D01*
X167992084Y-58121153D01*
X173599500Y-58121153D01*
X173599500Y-58278846D01*
X173630261Y-58433489D01*
X173630264Y-58433501D01*
X173690602Y-58579172D01*
X173690609Y-58579185D01*
X173778210Y-58710288D01*
X173778213Y-58710292D01*
X173889707Y-58821786D01*
X173889711Y-58821789D01*
X174020814Y-58909390D01*
X174020827Y-58909397D01*
X174166498Y-58969735D01*
X174166503Y-58969737D01*
X174321153Y-59000499D01*
X174321156Y-59000500D01*
X174321158Y-59000500D01*
X174478844Y-59000500D01*
X174478845Y-59000499D01*
X174633497Y-58969737D01*
X174751592Y-58920821D01*
X174779172Y-58909397D01*
X174779172Y-58909396D01*
X174779179Y-58909394D01*
X174910289Y-58821789D01*
X175021789Y-58710289D01*
X175109394Y-58579179D01*
X175169737Y-58433497D01*
X175200500Y-58278842D01*
X175200500Y-58121158D01*
X175200500Y-58121155D01*
X175200499Y-58121153D01*
X175194250Y-58089737D01*
X175169737Y-57966503D01*
X175150955Y-57921158D01*
X175109397Y-57820827D01*
X175109390Y-57820814D01*
X175021789Y-57689711D01*
X175021786Y-57689707D01*
X174910292Y-57578213D01*
X174910288Y-57578210D01*
X174779185Y-57490609D01*
X174779172Y-57490602D01*
X174633501Y-57430264D01*
X174633489Y-57430261D01*
X174478845Y-57399500D01*
X174478842Y-57399500D01*
X174321158Y-57399500D01*
X174321155Y-57399500D01*
X174166510Y-57430261D01*
X174166498Y-57430264D01*
X174020827Y-57490602D01*
X174020814Y-57490609D01*
X173889711Y-57578210D01*
X173889707Y-57578213D01*
X173778213Y-57689707D01*
X173778210Y-57689711D01*
X173690609Y-57820814D01*
X173690602Y-57820827D01*
X173630264Y-57966498D01*
X173630261Y-57966510D01*
X173599500Y-58121153D01*
X167992084Y-58121153D01*
X167998107Y-58090875D01*
X167998107Y-58090874D01*
X168000500Y-58078844D01*
X168000500Y-57921155D01*
X168000499Y-57921153D01*
X167983061Y-57833489D01*
X167969737Y-57766503D01*
X167969735Y-57766498D01*
X167909397Y-57620827D01*
X167909390Y-57620814D01*
X167821789Y-57489711D01*
X167821786Y-57489707D01*
X167710292Y-57378213D01*
X167710288Y-57378210D01*
X167579185Y-57290609D01*
X167579172Y-57290602D01*
X167433501Y-57230264D01*
X167433489Y-57230261D01*
X167278845Y-57199500D01*
X167278842Y-57199500D01*
X167121158Y-57199500D01*
X167121155Y-57199500D01*
X166966510Y-57230261D01*
X166966498Y-57230264D01*
X166820827Y-57290602D01*
X166820814Y-57290609D01*
X166689711Y-57378210D01*
X166689707Y-57378213D01*
X166578213Y-57489707D01*
X166578210Y-57489711D01*
X166490609Y-57620814D01*
X166490602Y-57620827D01*
X166430264Y-57766498D01*
X166430261Y-57766510D01*
X166399500Y-57921153D01*
X163500500Y-57921153D01*
X163500500Y-55921153D01*
X178199500Y-55921153D01*
X178199500Y-56078846D01*
X178230261Y-56233489D01*
X178230264Y-56233501D01*
X178279574Y-56352548D01*
X178287043Y-56422018D01*
X178279574Y-56447452D01*
X178230264Y-56566498D01*
X178230261Y-56566510D01*
X178199500Y-56721153D01*
X178199500Y-56878846D01*
X178230261Y-57033489D01*
X178230264Y-57033501D01*
X178279574Y-57152548D01*
X178287043Y-57222018D01*
X178279574Y-57247452D01*
X178230264Y-57366498D01*
X178230261Y-57366510D01*
X178199500Y-57521153D01*
X178199500Y-57678846D01*
X178230261Y-57833489D01*
X178230264Y-57833501D01*
X178290602Y-57979172D01*
X178290609Y-57979185D01*
X178378210Y-58110288D01*
X178378213Y-58110292D01*
X178489707Y-58221786D01*
X178489711Y-58221789D01*
X178620814Y-58309390D01*
X178620827Y-58309397D01*
X178761375Y-58367613D01*
X178766503Y-58369737D01*
X178921153Y-58400499D01*
X178921156Y-58400500D01*
X178921158Y-58400500D01*
X179078844Y-58400500D01*
X179078845Y-58400499D01*
X179233497Y-58369737D01*
X179379179Y-58309394D01*
X179510289Y-58221789D01*
X179621789Y-58110289D01*
X179709394Y-57979179D01*
X179769737Y-57833497D01*
X179800500Y-57678842D01*
X179800500Y-57521158D01*
X179800500Y-57521155D01*
X179800499Y-57521153D01*
X179776168Y-57398831D01*
X179776166Y-57398827D01*
X179770662Y-57371153D01*
X183149500Y-57371153D01*
X183149500Y-57528846D01*
X183180261Y-57683489D01*
X183180264Y-57683501D01*
X183240602Y-57829172D01*
X183240609Y-57829185D01*
X183328210Y-57960288D01*
X183328213Y-57960292D01*
X183439707Y-58071786D01*
X183439711Y-58071789D01*
X183570814Y-58159390D01*
X183570827Y-58159397D01*
X183670060Y-58200500D01*
X183716503Y-58219737D01*
X183871153Y-58250499D01*
X183871156Y-58250500D01*
X183871158Y-58250500D01*
X184028844Y-58250500D01*
X184028845Y-58250499D01*
X184183497Y-58219737D01*
X184329179Y-58159394D01*
X184386411Y-58121153D01*
X191396411Y-58121153D01*
X191396411Y-58278846D01*
X191427172Y-58433489D01*
X191427175Y-58433501D01*
X191487513Y-58579172D01*
X191487520Y-58579185D01*
X191575121Y-58710288D01*
X191575124Y-58710292D01*
X191686618Y-58821786D01*
X191686622Y-58821789D01*
X191817725Y-58909390D01*
X191817738Y-58909397D01*
X191963409Y-58969735D01*
X191963414Y-58969737D01*
X192118064Y-59000499D01*
X192118067Y-59000500D01*
X192118069Y-59000500D01*
X192275755Y-59000500D01*
X192275756Y-59000499D01*
X192430408Y-58969737D01*
X192548503Y-58920821D01*
X192576083Y-58909397D01*
X192576083Y-58909396D01*
X192576090Y-58909394D01*
X192707200Y-58821789D01*
X192818700Y-58710289D01*
X192906305Y-58579179D01*
X192966648Y-58433497D01*
X192997411Y-58278842D01*
X192997411Y-58121158D01*
X192997411Y-58121155D01*
X192997410Y-58121153D01*
X192991161Y-58089737D01*
X192966648Y-57966503D01*
X192947866Y-57921158D01*
X192906308Y-57820827D01*
X192906301Y-57820814D01*
X192818700Y-57689711D01*
X192818697Y-57689707D01*
X192707203Y-57578213D01*
X192707199Y-57578210D01*
X192576096Y-57490609D01*
X192576083Y-57490602D01*
X192430412Y-57430264D01*
X192430400Y-57430261D01*
X192275756Y-57399500D01*
X192275753Y-57399500D01*
X192118069Y-57399500D01*
X192118066Y-57399500D01*
X191963421Y-57430261D01*
X191963409Y-57430264D01*
X191817738Y-57490602D01*
X191817725Y-57490609D01*
X191686622Y-57578210D01*
X191686618Y-57578213D01*
X191575124Y-57689707D01*
X191575121Y-57689711D01*
X191487520Y-57820814D01*
X191487513Y-57820827D01*
X191427175Y-57966498D01*
X191427172Y-57966510D01*
X191396411Y-58121153D01*
X184386411Y-58121153D01*
X184460289Y-58071789D01*
X184460292Y-58071786D01*
X184504694Y-58027385D01*
X184571786Y-57960292D01*
X184571789Y-57960289D01*
X184659394Y-57829179D01*
X184662854Y-57820827D01*
X184680102Y-57779185D01*
X184719737Y-57683497D01*
X184750500Y-57528842D01*
X184750500Y-57371158D01*
X184750500Y-57371155D01*
X184750499Y-57371153D01*
X184728242Y-57259257D01*
X184724641Y-57241153D01*
X199820421Y-57241153D01*
X199820421Y-57398846D01*
X199851182Y-57553489D01*
X199851185Y-57553501D01*
X199911523Y-57699172D01*
X199911530Y-57699185D01*
X199999131Y-57830288D01*
X199999134Y-57830292D01*
X200110628Y-57941786D01*
X200110632Y-57941789D01*
X200241735Y-58029390D01*
X200241748Y-58029397D01*
X200387419Y-58089735D01*
X200387424Y-58089737D01*
X200542074Y-58120499D01*
X200542077Y-58120500D01*
X200542079Y-58120500D01*
X200699765Y-58120500D01*
X200699766Y-58120499D01*
X200854418Y-58089737D01*
X201000100Y-58029394D01*
X201131210Y-57941789D01*
X201242710Y-57830289D01*
X201330315Y-57699179D01*
X201390658Y-57553497D01*
X201421421Y-57398842D01*
X201421421Y-57321153D01*
X202599500Y-57321153D01*
X202599500Y-57478846D01*
X202630261Y-57633489D01*
X202630264Y-57633501D01*
X202690602Y-57779172D01*
X202690609Y-57779185D01*
X202778210Y-57910288D01*
X202778213Y-57910292D01*
X202889707Y-58021786D01*
X202889711Y-58021789D01*
X203020814Y-58109390D01*
X203020827Y-58109397D01*
X203166498Y-58169735D01*
X203166503Y-58169737D01*
X203321153Y-58200499D01*
X203321156Y-58200500D01*
X203321158Y-58200500D01*
X203478844Y-58200500D01*
X203478845Y-58200499D01*
X203633497Y-58169737D01*
X203751592Y-58120821D01*
X203779172Y-58109397D01*
X203779172Y-58109396D01*
X203779179Y-58109394D01*
X203910289Y-58021789D01*
X204021789Y-57910289D01*
X204109394Y-57779179D01*
X204169737Y-57633497D01*
X204200500Y-57478842D01*
X204200500Y-57321158D01*
X204200500Y-57321155D01*
X204200499Y-57321153D01*
X204182419Y-57230261D01*
X204169737Y-57166503D01*
X204130102Y-57070814D01*
X204109397Y-57020827D01*
X204109390Y-57020814D01*
X204021789Y-56889711D01*
X204021786Y-56889707D01*
X203910292Y-56778213D01*
X203910288Y-56778210D01*
X203779185Y-56690609D01*
X203779172Y-56690602D01*
X203633501Y-56630264D01*
X203633489Y-56630261D01*
X203478845Y-56599500D01*
X203478842Y-56599500D01*
X203321158Y-56599500D01*
X203321155Y-56599500D01*
X203166510Y-56630261D01*
X203166498Y-56630264D01*
X203020827Y-56690602D01*
X203020814Y-56690609D01*
X202889711Y-56778210D01*
X202889707Y-56778213D01*
X202778213Y-56889707D01*
X202778210Y-56889711D01*
X202690609Y-57020814D01*
X202690602Y-57020827D01*
X202630264Y-57166498D01*
X202630261Y-57166510D01*
X202599500Y-57321153D01*
X201421421Y-57321153D01*
X201421421Y-57241158D01*
X201421421Y-57241155D01*
X201421420Y-57241153D01*
X201413135Y-57199500D01*
X201390658Y-57086503D01*
X201384162Y-57070821D01*
X201330318Y-56940827D01*
X201330311Y-56940814D01*
X201242710Y-56809711D01*
X201242707Y-56809707D01*
X201131213Y-56698213D01*
X201131209Y-56698210D01*
X201000106Y-56610609D01*
X201000093Y-56610602D01*
X200854422Y-56550264D01*
X200854410Y-56550261D01*
X200699766Y-56519500D01*
X200699763Y-56519500D01*
X200542079Y-56519500D01*
X200542076Y-56519500D01*
X200387431Y-56550261D01*
X200387419Y-56550264D01*
X200241748Y-56610602D01*
X200241735Y-56610609D01*
X200110632Y-56698210D01*
X200110628Y-56698213D01*
X199999134Y-56809707D01*
X199999131Y-56809711D01*
X199911530Y-56940814D01*
X199911523Y-56940827D01*
X199851185Y-57086498D01*
X199851182Y-57086510D01*
X199820421Y-57241153D01*
X184724641Y-57241153D01*
X184719738Y-57216508D01*
X184719737Y-57216507D01*
X184719737Y-57216503D01*
X184719735Y-57216498D01*
X184659397Y-57070827D01*
X184659390Y-57070814D01*
X184571789Y-56939711D01*
X184571786Y-56939707D01*
X184460292Y-56828213D01*
X184460288Y-56828210D01*
X184329185Y-56740609D01*
X184329172Y-56740602D01*
X184183501Y-56680264D01*
X184183489Y-56680261D01*
X184028845Y-56649500D01*
X184028842Y-56649500D01*
X183871158Y-56649500D01*
X183871155Y-56649500D01*
X183716510Y-56680261D01*
X183716498Y-56680264D01*
X183570827Y-56740602D01*
X183570814Y-56740609D01*
X183439711Y-56828210D01*
X183439707Y-56828213D01*
X183328213Y-56939707D01*
X183328210Y-56939711D01*
X183240609Y-57070814D01*
X183240602Y-57070827D01*
X183180264Y-57216498D01*
X183180261Y-57216510D01*
X183149500Y-57371153D01*
X179770662Y-57371153D01*
X179769737Y-57366503D01*
X179719490Y-57245196D01*
X179718650Y-57242918D01*
X179716440Y-57210396D01*
X179712956Y-57177983D01*
X179713998Y-57174433D01*
X179713915Y-57173209D01*
X179714863Y-57171485D01*
X179720425Y-57152548D01*
X179747783Y-57086498D01*
X179769737Y-57033497D01*
X179800500Y-56878842D01*
X179800500Y-56721158D01*
X179800500Y-56721155D01*
X179800499Y-56721153D01*
X179795936Y-56698213D01*
X179769737Y-56566503D01*
X179720425Y-56447452D01*
X179712956Y-56377983D01*
X179720425Y-56352548D01*
X179769735Y-56233501D01*
X179769737Y-56233497D01*
X179800500Y-56078842D01*
X179800500Y-55921158D01*
X179800500Y-55921155D01*
X179794155Y-55889258D01*
X179794155Y-55889257D01*
X179790554Y-55871153D01*
X185049500Y-55871153D01*
X185049500Y-56028846D01*
X185080261Y-56183489D01*
X185080264Y-56183501D01*
X185140602Y-56329172D01*
X185140609Y-56329185D01*
X185228210Y-56460288D01*
X185228213Y-56460292D01*
X185339707Y-56571786D01*
X185339711Y-56571789D01*
X185470814Y-56659390D01*
X185470827Y-56659397D01*
X185564534Y-56698211D01*
X185616503Y-56719737D01*
X185771153Y-56750499D01*
X185771156Y-56750500D01*
X185771158Y-56750500D01*
X185928844Y-56750500D01*
X185928845Y-56750499D01*
X186083497Y-56719737D01*
X186229179Y-56659394D01*
X186360289Y-56571789D01*
X186471789Y-56460289D01*
X186559394Y-56329179D01*
X186619737Y-56183497D01*
X186650500Y-56028842D01*
X186650500Y-55871158D01*
X186650500Y-55871155D01*
X186650499Y-55871153D01*
X186632204Y-55779179D01*
X186619737Y-55716503D01*
X186580102Y-55620814D01*
X186559397Y-55570827D01*
X186559390Y-55570814D01*
X186471789Y-55439711D01*
X186471786Y-55439707D01*
X186360292Y-55328213D01*
X186360288Y-55328210D01*
X186349727Y-55321153D01*
X214214500Y-55321153D01*
X214214500Y-55478846D01*
X214245261Y-55633489D01*
X214245264Y-55633501D01*
X214305602Y-55779172D01*
X214305609Y-55779185D01*
X214393210Y-55910288D01*
X214393213Y-55910292D01*
X214504707Y-56021786D01*
X214504711Y-56021789D01*
X214635814Y-56109390D01*
X214635827Y-56109397D01*
X214781498Y-56169735D01*
X214781503Y-56169737D01*
X214936153Y-56200499D01*
X214936156Y-56200500D01*
X214936158Y-56200500D01*
X215093844Y-56200500D01*
X215093845Y-56200499D01*
X215248497Y-56169737D01*
X215394179Y-56109394D01*
X215525289Y-56021789D01*
X215636789Y-55910289D01*
X215724394Y-55779179D01*
X215784737Y-55633497D01*
X215815500Y-55478842D01*
X215815500Y-55321158D01*
X215815500Y-55321155D01*
X215815499Y-55321153D01*
X215809422Y-55290602D01*
X215784737Y-55166503D01*
X215777694Y-55149500D01*
X215724397Y-55020827D01*
X215724390Y-55020814D01*
X215636789Y-54889711D01*
X215636786Y-54889707D01*
X215525292Y-54778213D01*
X215525288Y-54778210D01*
X215394185Y-54690609D01*
X215394172Y-54690602D01*
X215248501Y-54630264D01*
X215248489Y-54630261D01*
X215093845Y-54599500D01*
X215093842Y-54599500D01*
X214936158Y-54599500D01*
X214936155Y-54599500D01*
X214781510Y-54630261D01*
X214781498Y-54630264D01*
X214635827Y-54690602D01*
X214635814Y-54690609D01*
X214504711Y-54778210D01*
X214504707Y-54778213D01*
X214393213Y-54889707D01*
X214393210Y-54889711D01*
X214305609Y-55020814D01*
X214305602Y-55020827D01*
X214245264Y-55166498D01*
X214245261Y-55166510D01*
X214214500Y-55321153D01*
X186349727Y-55321153D01*
X186229185Y-55240609D01*
X186229172Y-55240602D01*
X186083501Y-55180264D01*
X186083489Y-55180261D01*
X185928845Y-55149500D01*
X185928842Y-55149500D01*
X185771158Y-55149500D01*
X185771155Y-55149500D01*
X185616510Y-55180261D01*
X185616498Y-55180264D01*
X185470827Y-55240602D01*
X185470814Y-55240609D01*
X185339711Y-55328210D01*
X185339707Y-55328213D01*
X185228213Y-55439707D01*
X185228210Y-55439711D01*
X185140609Y-55570814D01*
X185140602Y-55570827D01*
X185080264Y-55716498D01*
X185080261Y-55716510D01*
X185049500Y-55871153D01*
X179790554Y-55871153D01*
X179779944Y-55817821D01*
X179769737Y-55766503D01*
X179769735Y-55766498D01*
X179709397Y-55620827D01*
X179709390Y-55620814D01*
X179621789Y-55489711D01*
X179621786Y-55489707D01*
X179510292Y-55378213D01*
X179510288Y-55378210D01*
X179379185Y-55290609D01*
X179379172Y-55290602D01*
X179233501Y-55230264D01*
X179233489Y-55230261D01*
X179078845Y-55199500D01*
X179078842Y-55199500D01*
X178921158Y-55199500D01*
X178921155Y-55199500D01*
X178766510Y-55230261D01*
X178766498Y-55230264D01*
X178620827Y-55290602D01*
X178620814Y-55290609D01*
X178489711Y-55378210D01*
X178489707Y-55378213D01*
X178378213Y-55489707D01*
X178378210Y-55489711D01*
X178290609Y-55620814D01*
X178290602Y-55620827D01*
X178230264Y-55766498D01*
X178230261Y-55766510D01*
X178199500Y-55921153D01*
X163500500Y-55921153D01*
X163500500Y-52227525D01*
X168159500Y-52227525D01*
X168159500Y-52372475D01*
X168197016Y-52512485D01*
X168197017Y-52512488D01*
X168269488Y-52638011D01*
X168269490Y-52638013D01*
X168269491Y-52638015D01*
X168371985Y-52740509D01*
X168371986Y-52740510D01*
X168371988Y-52740511D01*
X168497511Y-52812982D01*
X168497512Y-52812982D01*
X168497515Y-52812984D01*
X168637525Y-52850500D01*
X168637528Y-52850500D01*
X168782472Y-52850500D01*
X168782475Y-52850500D01*
X168922485Y-52812984D01*
X169048015Y-52740509D01*
X169150509Y-52638015D01*
X169222984Y-52512485D01*
X169260500Y-52372475D01*
X169260500Y-52227525D01*
X173939500Y-52227525D01*
X173939500Y-52372475D01*
X173977016Y-52512485D01*
X173977017Y-52512488D01*
X174049488Y-52638011D01*
X174049490Y-52638013D01*
X174049491Y-52638015D01*
X174151985Y-52740509D01*
X174151986Y-52740510D01*
X174151988Y-52740511D01*
X174277511Y-52812982D01*
X174277512Y-52812982D01*
X174277515Y-52812984D01*
X174417525Y-52850500D01*
X174417528Y-52850500D01*
X174562472Y-52850500D01*
X174562475Y-52850500D01*
X174702485Y-52812984D01*
X174828015Y-52740509D01*
X174930509Y-52638015D01*
X174997980Y-52521153D01*
X214214500Y-52521153D01*
X214214500Y-52678846D01*
X214245261Y-52833489D01*
X214245264Y-52833501D01*
X214305602Y-52979172D01*
X214305609Y-52979185D01*
X214393210Y-53110288D01*
X214393213Y-53110292D01*
X214504707Y-53221786D01*
X214504711Y-53221789D01*
X214635814Y-53309390D01*
X214635827Y-53309397D01*
X214781498Y-53369735D01*
X214781503Y-53369737D01*
X214936153Y-53400499D01*
X214936156Y-53400500D01*
X214936158Y-53400500D01*
X215093844Y-53400500D01*
X215093845Y-53400499D01*
X215248497Y-53369737D01*
X215394179Y-53309394D01*
X215525289Y-53221789D01*
X215636789Y-53110289D01*
X215724394Y-52979179D01*
X215784737Y-52833497D01*
X215815500Y-52678842D01*
X215815500Y-52521158D01*
X215815500Y-52521155D01*
X215815499Y-52521153D01*
X215784738Y-52366510D01*
X215784737Y-52366503D01*
X215727171Y-52227525D01*
X215724397Y-52220827D01*
X215724390Y-52220814D01*
X215636789Y-52089711D01*
X215636786Y-52089707D01*
X215525292Y-51978213D01*
X215525288Y-51978210D01*
X215394185Y-51890609D01*
X215394172Y-51890602D01*
X215248501Y-51830264D01*
X215248489Y-51830261D01*
X215093845Y-51799500D01*
X215093842Y-51799500D01*
X214936158Y-51799500D01*
X214936155Y-51799500D01*
X214781510Y-51830261D01*
X214781498Y-51830264D01*
X214635827Y-51890602D01*
X214635814Y-51890609D01*
X214504711Y-51978210D01*
X214504707Y-51978213D01*
X214393213Y-52089707D01*
X214393210Y-52089711D01*
X214305609Y-52220814D01*
X214305602Y-52220827D01*
X214245264Y-52366498D01*
X214245261Y-52366510D01*
X214214500Y-52521153D01*
X174997980Y-52521153D01*
X175002984Y-52512485D01*
X175040500Y-52372475D01*
X175040500Y-52227525D01*
X175002984Y-52087515D01*
X174939878Y-51978213D01*
X174930511Y-51961988D01*
X174930506Y-51961982D01*
X174828017Y-51859493D01*
X174828011Y-51859488D01*
X174702488Y-51787017D01*
X174702489Y-51787017D01*
X174691006Y-51783940D01*
X174562475Y-51749500D01*
X174417525Y-51749500D01*
X174288993Y-51783940D01*
X174277511Y-51787017D01*
X174151988Y-51859488D01*
X174151982Y-51859493D01*
X174049493Y-51961982D01*
X174049488Y-51961988D01*
X173977017Y-52087511D01*
X173977016Y-52087515D01*
X173939500Y-52227525D01*
X169260500Y-52227525D01*
X169222984Y-52087515D01*
X169159878Y-51978213D01*
X169150511Y-51961988D01*
X169150506Y-51961982D01*
X169048017Y-51859493D01*
X169048011Y-51859488D01*
X168922488Y-51787017D01*
X168922489Y-51787017D01*
X168911006Y-51783940D01*
X168782475Y-51749500D01*
X168637525Y-51749500D01*
X168508993Y-51783940D01*
X168497511Y-51787017D01*
X168371988Y-51859488D01*
X168371982Y-51859493D01*
X168269493Y-51961982D01*
X168269488Y-51961988D01*
X168197017Y-52087511D01*
X168197016Y-52087515D01*
X168159500Y-52227525D01*
X163500500Y-52227525D01*
X163500500Y-50787375D01*
X180799500Y-50787375D01*
X180799500Y-50945068D01*
X180830261Y-51099711D01*
X180830264Y-51099723D01*
X180890602Y-51245394D01*
X180890609Y-51245407D01*
X180978210Y-51376510D01*
X180978213Y-51376514D01*
X181089707Y-51488008D01*
X181089711Y-51488011D01*
X181220814Y-51575612D01*
X181220827Y-51575619D01*
X181366498Y-51635957D01*
X181366503Y-51635959D01*
X181521153Y-51666721D01*
X181521156Y-51666722D01*
X181521158Y-51666722D01*
X181678844Y-51666722D01*
X181678845Y-51666721D01*
X181833497Y-51635959D01*
X181979179Y-51575616D01*
X182110289Y-51488011D01*
X182221789Y-51376511D01*
X182309394Y-51245401D01*
X182369737Y-51099719D01*
X182400500Y-50945064D01*
X182400500Y-50787380D01*
X182400500Y-50787377D01*
X182400499Y-50787375D01*
X182374380Y-50656069D01*
X182369737Y-50632725D01*
X182315345Y-50501410D01*
X182309397Y-50487049D01*
X182309390Y-50487036D01*
X182255594Y-50406525D01*
X182221789Y-50355933D01*
X182221786Y-50355929D01*
X182209578Y-50343721D01*
X183412797Y-50343721D01*
X183412797Y-50501414D01*
X183443558Y-50656057D01*
X183443561Y-50656069D01*
X183503899Y-50801740D01*
X183503906Y-50801753D01*
X183591507Y-50932856D01*
X183591510Y-50932860D01*
X183703004Y-51044354D01*
X183703008Y-51044357D01*
X183834111Y-51131958D01*
X183834124Y-51131965D01*
X183979795Y-51192303D01*
X183979800Y-51192305D01*
X184134450Y-51223067D01*
X184134453Y-51223068D01*
X184134455Y-51223068D01*
X184292141Y-51223068D01*
X184292142Y-51223067D01*
X184446794Y-51192305D01*
X184592476Y-51131962D01*
X184723586Y-51044357D01*
X184835086Y-50932857D01*
X184922691Y-50801747D01*
X184983034Y-50656065D01*
X185013797Y-50501410D01*
X185013797Y-50343726D01*
X185013797Y-50343723D01*
X185013796Y-50343721D01*
X184983034Y-50189071D01*
X184969677Y-50156824D01*
X184922694Y-50043395D01*
X184922687Y-50043382D01*
X184835086Y-49912279D01*
X184835083Y-49912275D01*
X184723589Y-49800781D01*
X184723585Y-49800778D01*
X184592482Y-49713177D01*
X184592469Y-49713170D01*
X184446798Y-49652832D01*
X184446786Y-49652829D01*
X184292142Y-49622068D01*
X184292139Y-49622068D01*
X184134455Y-49622068D01*
X184134452Y-49622068D01*
X183979807Y-49652829D01*
X183979795Y-49652832D01*
X183834124Y-49713170D01*
X183834111Y-49713177D01*
X183703008Y-49800778D01*
X183703004Y-49800781D01*
X183591510Y-49912275D01*
X183591507Y-49912279D01*
X183503906Y-50043382D01*
X183503899Y-50043395D01*
X183443561Y-50189066D01*
X183443558Y-50189078D01*
X183412797Y-50343721D01*
X182209578Y-50343721D01*
X182110292Y-50244435D01*
X182110288Y-50244432D01*
X181979185Y-50156831D01*
X181979172Y-50156824D01*
X181833501Y-50096486D01*
X181833489Y-50096483D01*
X181678845Y-50065722D01*
X181678842Y-50065722D01*
X181521158Y-50065722D01*
X181521155Y-50065722D01*
X181366510Y-50096483D01*
X181366498Y-50096486D01*
X181220827Y-50156824D01*
X181220814Y-50156831D01*
X181089711Y-50244432D01*
X181089707Y-50244435D01*
X180978213Y-50355929D01*
X180978210Y-50355933D01*
X180890609Y-50487036D01*
X180890602Y-50487049D01*
X180830264Y-50632720D01*
X180830261Y-50632732D01*
X180799500Y-50787375D01*
X163500500Y-50787375D01*
X163500500Y-48721153D01*
X180799500Y-48721153D01*
X180799500Y-48878846D01*
X180830261Y-49033489D01*
X180830264Y-49033501D01*
X180890602Y-49179172D01*
X180890609Y-49179185D01*
X180978210Y-49310288D01*
X180978213Y-49310292D01*
X181089707Y-49421786D01*
X181089711Y-49421789D01*
X181220814Y-49509390D01*
X181220827Y-49509397D01*
X181366498Y-49569735D01*
X181366503Y-49569737D01*
X181521153Y-49600499D01*
X181521156Y-49600500D01*
X181521158Y-49600500D01*
X181678844Y-49600500D01*
X181678845Y-49600499D01*
X181833497Y-49569737D01*
X181979179Y-49509394D01*
X182110289Y-49421789D01*
X182221789Y-49310289D01*
X182309394Y-49179179D01*
X182369737Y-49033497D01*
X182379950Y-48982154D01*
X182412334Y-48920243D01*
X182473050Y-48885669D01*
X182542819Y-48889408D01*
X182548992Y-48891773D01*
X182616503Y-48919737D01*
X182771153Y-48950499D01*
X182771156Y-48950500D01*
X182771158Y-48950500D01*
X182928844Y-48950500D01*
X182928845Y-48950499D01*
X183083497Y-48919737D01*
X183229179Y-48859394D01*
X183360289Y-48771789D01*
X183471789Y-48660289D01*
X183559394Y-48529179D01*
X183605200Y-48418592D01*
X217073500Y-48418592D01*
X217073500Y-48581407D01*
X217105259Y-48741073D01*
X217105262Y-48741082D01*
X217167562Y-48891490D01*
X217167563Y-48891492D01*
X217258015Y-49026862D01*
X217258018Y-49026866D01*
X217373133Y-49141981D01*
X217373137Y-49141984D01*
X217508505Y-49232435D01*
X217508506Y-49232435D01*
X217508507Y-49232436D01*
X217508509Y-49232437D01*
X217608781Y-49273970D01*
X217658919Y-49294738D01*
X217658921Y-49294738D01*
X217658926Y-49294740D01*
X217818592Y-49326499D01*
X217818595Y-49326500D01*
X217818597Y-49326500D01*
X217981405Y-49326500D01*
X217981406Y-49326499D01*
X218062886Y-49310292D01*
X218141073Y-49294740D01*
X218141076Y-49294738D01*
X218141081Y-49294738D01*
X218291495Y-49232435D01*
X218426863Y-49141984D01*
X218541984Y-49026863D01*
X218632435Y-48891495D01*
X218694738Y-48741081D01*
X218698702Y-48721153D01*
X218726000Y-48583920D01*
X218726000Y-48583916D01*
X218726500Y-48581403D01*
X218726500Y-48418597D01*
X218973500Y-48418597D01*
X218973500Y-48581403D01*
X218974000Y-48583916D01*
X218974000Y-48583920D01*
X219005259Y-48741073D01*
X219005262Y-48741082D01*
X219067562Y-48891490D01*
X219067563Y-48891492D01*
X219158015Y-49026862D01*
X219158018Y-49026866D01*
X219273133Y-49141981D01*
X219273137Y-49141984D01*
X219408505Y-49232435D01*
X219408506Y-49232435D01*
X219408507Y-49232436D01*
X219408509Y-49232437D01*
X219508781Y-49273970D01*
X219558919Y-49294738D01*
X219558921Y-49294738D01*
X219558926Y-49294740D01*
X219718592Y-49326499D01*
X219718595Y-49326500D01*
X219718597Y-49326500D01*
X219881405Y-49326500D01*
X219881406Y-49326499D01*
X219962886Y-49310292D01*
X220041073Y-49294740D01*
X220041076Y-49294738D01*
X220041081Y-49294738D01*
X220191495Y-49232435D01*
X220326863Y-49141984D01*
X220441984Y-49026863D01*
X220532435Y-48891495D01*
X220594738Y-48741081D01*
X220598702Y-48721153D01*
X220626000Y-48583920D01*
X220626000Y-48583916D01*
X220626500Y-48581403D01*
X220626500Y-48418597D01*
X220873500Y-48418597D01*
X220873500Y-48581403D01*
X220874000Y-48583916D01*
X220874000Y-48583920D01*
X220905259Y-48741073D01*
X220905262Y-48741082D01*
X220967562Y-48891490D01*
X220967563Y-48891492D01*
X221058015Y-49026862D01*
X221058018Y-49026866D01*
X221173133Y-49141981D01*
X221173137Y-49141984D01*
X221308505Y-49232435D01*
X221308506Y-49232435D01*
X221308507Y-49232436D01*
X221308509Y-49232437D01*
X221408781Y-49273970D01*
X221458919Y-49294738D01*
X221458921Y-49294738D01*
X221458926Y-49294740D01*
X221618592Y-49326499D01*
X221618595Y-49326500D01*
X221618597Y-49326500D01*
X221781405Y-49326500D01*
X221781406Y-49326499D01*
X221862886Y-49310292D01*
X221941073Y-49294740D01*
X221941076Y-49294738D01*
X221941081Y-49294738D01*
X222091495Y-49232435D01*
X222226863Y-49141984D01*
X222341984Y-49026863D01*
X222432435Y-48891495D01*
X222494738Y-48741081D01*
X222526500Y-48581403D01*
X222526500Y-48418597D01*
X222526500Y-48418594D01*
X222526499Y-48418592D01*
X222494740Y-48258926D01*
X222494737Y-48258917D01*
X222432437Y-48108509D01*
X222432436Y-48108507D01*
X222402918Y-48064331D01*
X222341984Y-47973137D01*
X222341981Y-47973133D01*
X222226866Y-47858018D01*
X222226862Y-47858015D01*
X222091492Y-47767563D01*
X222091490Y-47767562D01*
X221941082Y-47705262D01*
X221941073Y-47705259D01*
X221781406Y-47673500D01*
X221781403Y-47673500D01*
X221618597Y-47673500D01*
X221618594Y-47673500D01*
X221458926Y-47705259D01*
X221458917Y-47705262D01*
X221308509Y-47767562D01*
X221308507Y-47767563D01*
X221173137Y-47858015D01*
X221173133Y-47858018D01*
X221058018Y-47973133D01*
X221058015Y-47973137D01*
X220967563Y-48108507D01*
X220967562Y-48108509D01*
X220905262Y-48258917D01*
X220905259Y-48258926D01*
X220874000Y-48416079D01*
X220874000Y-48416083D01*
X220873500Y-48418597D01*
X220626500Y-48418597D01*
X220626000Y-48416083D01*
X220626000Y-48416079D01*
X220594740Y-48258926D01*
X220594737Y-48258917D01*
X220532437Y-48108509D01*
X220532436Y-48108507D01*
X220502918Y-48064331D01*
X220441984Y-47973137D01*
X220441981Y-47973133D01*
X220326866Y-47858018D01*
X220326862Y-47858015D01*
X220191492Y-47767563D01*
X220191490Y-47767562D01*
X220041082Y-47705262D01*
X220041073Y-47705259D01*
X219881406Y-47673500D01*
X219881403Y-47673500D01*
X219718597Y-47673500D01*
X219718594Y-47673500D01*
X219558926Y-47705259D01*
X219558917Y-47705262D01*
X219408509Y-47767562D01*
X219408507Y-47767563D01*
X219273137Y-47858015D01*
X219273133Y-47858018D01*
X219158018Y-47973133D01*
X219158015Y-47973137D01*
X219067563Y-48108507D01*
X219067562Y-48108509D01*
X219005262Y-48258917D01*
X219005259Y-48258926D01*
X218974000Y-48416079D01*
X218974000Y-48416083D01*
X218973500Y-48418597D01*
X218726500Y-48418597D01*
X218726000Y-48416083D01*
X218726000Y-48416079D01*
X218694740Y-48258926D01*
X218694737Y-48258917D01*
X218632437Y-48108509D01*
X218632436Y-48108507D01*
X218602918Y-48064331D01*
X218541984Y-47973137D01*
X218541981Y-47973133D01*
X218426866Y-47858018D01*
X218426862Y-47858015D01*
X218291492Y-47767563D01*
X218291490Y-47767562D01*
X218141082Y-47705262D01*
X218141073Y-47705259D01*
X217981406Y-47673500D01*
X217981403Y-47673500D01*
X217818597Y-47673500D01*
X217818594Y-47673500D01*
X217658926Y-47705259D01*
X217658917Y-47705262D01*
X217508509Y-47767562D01*
X217508507Y-47767563D01*
X217373137Y-47858015D01*
X217373133Y-47858018D01*
X217258018Y-47973133D01*
X217258015Y-47973137D01*
X217167563Y-48108507D01*
X217167562Y-48108509D01*
X217105262Y-48258917D01*
X217105259Y-48258926D01*
X217073500Y-48418592D01*
X183605200Y-48418592D01*
X183619737Y-48383497D01*
X183650500Y-48228842D01*
X183650500Y-48071158D01*
X183650500Y-48071155D01*
X183650499Y-48071153D01*
X183619738Y-47916510D01*
X183619737Y-47916503D01*
X183595511Y-47858015D01*
X183559397Y-47770827D01*
X183559390Y-47770814D01*
X183471789Y-47639711D01*
X183471786Y-47639707D01*
X183360292Y-47528213D01*
X183360288Y-47528210D01*
X183229185Y-47440609D01*
X183229172Y-47440602D01*
X183083501Y-47380264D01*
X183083489Y-47380261D01*
X182928845Y-47349500D01*
X182928842Y-47349500D01*
X182771158Y-47349500D01*
X182771155Y-47349500D01*
X182616510Y-47380261D01*
X182616498Y-47380264D01*
X182470827Y-47440602D01*
X182470814Y-47440609D01*
X182339711Y-47528210D01*
X182339707Y-47528213D01*
X182228213Y-47639707D01*
X182228210Y-47639711D01*
X182140609Y-47770814D01*
X182140602Y-47770827D01*
X182080264Y-47916498D01*
X182080261Y-47916507D01*
X182070049Y-47967847D01*
X182037663Y-48029758D01*
X181976947Y-48064331D01*
X181907177Y-48060590D01*
X181900987Y-48058218D01*
X181833497Y-48030263D01*
X181833489Y-48030261D01*
X181678845Y-47999500D01*
X181678842Y-47999500D01*
X181521158Y-47999500D01*
X181521155Y-47999500D01*
X181366510Y-48030261D01*
X181366498Y-48030264D01*
X181220827Y-48090602D01*
X181220814Y-48090609D01*
X181089711Y-48178210D01*
X181089707Y-48178213D01*
X180978213Y-48289707D01*
X180978210Y-48289711D01*
X180890609Y-48420814D01*
X180890602Y-48420827D01*
X180830264Y-48566498D01*
X180830261Y-48566510D01*
X180799500Y-48721153D01*
X163500500Y-48721153D01*
X163500500Y-46624500D01*
X163520185Y-46557461D01*
X163572989Y-46511706D01*
X163624500Y-46500500D01*
X223775499Y-46500500D01*
X223842538Y-46520185D01*
G37*
%TD.AperFunction*%
%TD*%
M02*
