%TF.GenerationSoftware,KiCad,Pcbnew,10.0.1*%
%TF.CreationDate,2026-05-12T22:33:51+08:00*%
%TF.ProjectId,feather,66656174-6865-4722-9e6b-696361645f70,rev?*%
%TF.SameCoordinates,Original*%
%TF.FileFunction,Copper,L4,Bot*%
%TF.FilePolarity,Positive*%
%FSLAX46Y46*%
G04 Gerber Fmt 4.6, Leading zero omitted, Abs format (unit mm)*
G04 Created by KiCad (PCBNEW 10.0.1) date 2026-05-12 22:33:51*
%MOMM*%
%LPD*%
G01*
G04 APERTURE LIST*
%TA.AperFunction,ComponentPad*%
%ADD10O,1.300000X2.300000*%
%TD*%
%TA.AperFunction,ComponentPad*%
%ADD11O,1.300000X2.100000*%
%TD*%
%TA.AperFunction,ComponentPad*%
%ADD12C,0.500000*%
%TD*%
%TA.AperFunction,HeatsinkPad*%
%ADD13C,0.500000*%
%TD*%
%TA.AperFunction,HeatsinkPad*%
%ADD14R,0.500000X1.600000*%
%TD*%
%TA.AperFunction,ComponentPad*%
%ADD15C,0.600000*%
%TD*%
%TA.AperFunction,SMDPad,CuDef*%
%ADD16R,2.300000X2.800000*%
%TD*%
%TA.AperFunction,ComponentPad*%
%ADD17C,1.400000*%
%TD*%
%TA.AperFunction,ComponentPad*%
%ADD18O,1.000000X1.800000*%
%TD*%
%TA.AperFunction,ComponentPad*%
%ADD19C,0.400000*%
%TD*%
%TA.AperFunction,HeatsinkPad*%
%ADD20R,1.200000X2.000000*%
%TD*%
%TA.AperFunction,SMDPad,CuDef*%
%ADD21R,2.650000X1.000000*%
%TD*%
%TA.AperFunction,ComponentPad*%
%ADD22C,1.200000*%
%TD*%
%TA.AperFunction,ComponentPad*%
%ADD23O,1.400000X2.000000*%
%TD*%
%TA.AperFunction,ComponentPad*%
%ADD24O,1.300000X2.000000*%
%TD*%
%TA.AperFunction,SMDPad,CuDef*%
%ADD25R,2.800000X2.300000*%
%TD*%
%TA.AperFunction,HeatsinkPad*%
%ADD26R,2.000000X1.200000*%
%TD*%
%TA.AperFunction,HeatsinkPad*%
%ADD27R,3.400000X3.400000*%
%TD*%
%TA.AperFunction,ViaPad*%
%ADD28C,0.450000*%
%TD*%
%TA.AperFunction,ViaPad*%
%ADD29C,0.600000*%
%TD*%
%TA.AperFunction,Conductor*%
%ADD30C,0.200000*%
%TD*%
%TA.AperFunction,Conductor*%
%ADD31C,0.300000*%
%TD*%
G04 APERTURE END LIST*
D10*
%TO.P,J1,S1,SHIELD_S1*%
%TO.N,GND*%
X175930000Y-52820000D03*
D11*
X175930000Y-48620000D03*
D12*
X173600000Y-50000000D03*
X173600000Y-48000000D03*
X169600000Y-50000000D03*
X169600000Y-48000000D03*
D10*
X167270000Y-52820000D03*
D11*
X167270000Y-48620000D03*
%TD*%
D13*
%TO.P,U1,7,PAD_7*%
%TO.N,GND*%
X177000000Y-56600000D03*
D14*
X177000000Y-56050000D03*
D13*
X177000000Y-55500000D03*
%TD*%
D15*
%TO.P,U10,11,V-_11*%
%TO.N,-4V5*%
X203450000Y-67500000D03*
X203450000Y-69000000D03*
X203950000Y-68250000D03*
D16*
X203950000Y-68250000D03*
D15*
X204450000Y-67500000D03*
X204450000Y-69000000D03*
%TD*%
D17*
%TO.P,CN1,*%
%TO.N,*%
X205050000Y-82000000D03*
X205050000Y-75020000D03*
D18*
%TO.P,CN1,1,1_1*%
%TO.N,GND*%
X208350000Y-81200000D03*
%TO.P,CN1,2,2_2*%
%TO.N,unconnected-(CN1-Pad2)*%
X202050000Y-81900000D03*
%TO.P,CN1,3,3_3*%
%TO.N,/OUT-UNBAL-2*%
X202050000Y-79100000D03*
%TO.P,CN1,4,4_4*%
%TO.N,/GP10*%
X207750000Y-75500000D03*
%TO.P,CN1,5,5_5*%
%TO.N,GND*%
X206650000Y-73400000D03*
%TO.P,CN1,6,6_6*%
%TO.N,unconnected-(CN1-Pad6)*%
X203650000Y-73400000D03*
%TO.P,CN1,7,7_7*%
%TO.N,/OUT-UNBAL-1*%
X202250000Y-73400000D03*
%TD*%
D19*
%TO.P,U3,25,VSS_25*%
%TO.N,GND*%
X182975000Y-77850000D03*
X183775000Y-77050000D03*
X183775000Y-77850000D03*
X183775000Y-78650000D03*
X184575000Y-77850000D03*
%TD*%
D13*
%TO.P,U8,4,V-_4*%
%TO.N,-4V5*%
X186600000Y-63150000D03*
X186600000Y-62400000D03*
X186600000Y-61650000D03*
D20*
X186250000Y-62400000D03*
D13*
X185900000Y-63150000D03*
X185900000Y-62400000D03*
X185900000Y-61650000D03*
%TD*%
D15*
%TO.P,U2,13,PAD_13*%
%TO.N,GND*%
X182000000Y-52400000D03*
X183000000Y-52400000D03*
D21*
X183000000Y-52400000D03*
D15*
X184000000Y-52400000D03*
%TD*%
D13*
%TO.P,U4,7,PAD_7*%
%TO.N,GND*%
X182450000Y-58000000D03*
D14*
X182450000Y-57450000D03*
D13*
X182450000Y-56900000D03*
%TD*%
D22*
%TO.P,CN2,*%
%TO.N,*%
X216150000Y-78700000D03*
X214600000Y-71200000D03*
D23*
%TO.P,CN2,1,GND_1*%
%TO.N,GND*%
X212900000Y-82100000D03*
%TO.P,CN2,2,R-_2*%
%TO.N,/OUT-BAL-2N*%
X219400000Y-81600000D03*
%TO.P,CN2,3,R-_3*%
X212900000Y-79400000D03*
%TO.P,CN2,4,R+_4*%
%TO.N,/OUT-BAL-2P*%
X219400000Y-78900000D03*
%TO.P,CN2,5,R+_5*%
X212900000Y-76700000D03*
%TO.P,CN2,6,L-_6*%
%TO.N,/OUT-BAL-1N*%
X219400000Y-76200000D03*
D24*
%TO.P,CN2,7,L+_7*%
%TO.N,/OUT-BAL-1P*%
X212700000Y-68200000D03*
%TO.P,CN2,8,L+_8*%
X219600000Y-68200000D03*
%TO.P,CN2,9,SW_9*%
%TO.N,/GP11*%
X217750000Y-68200000D03*
%TO.P,CN2,10,DET_10*%
%TO.N,GND*%
X214200000Y-68200000D03*
D23*
%TO.P,CN2,11,ep_11*%
X212100000Y-72950000D03*
%TO.P,CN2,12,ep_12*%
X220200000Y-72950000D03*
%TD*%
D15*
%TO.P,U9,11,V-_11*%
%TO.N,-4V5*%
X191750000Y-78425000D03*
X190250000Y-78425000D03*
X191000000Y-78925000D03*
D25*
X191000000Y-78925000D03*
D15*
X191750000Y-79425000D03*
X190250000Y-79425000D03*
%TD*%
D13*
%TO.P,U7,4,V-_4*%
%TO.N,-4V5*%
X194400000Y-69637500D03*
X193650000Y-69637500D03*
X192900000Y-69637500D03*
D26*
X193650000Y-69987500D03*
D13*
X194400000Y-70337500D03*
X193650000Y-70337500D03*
X192900000Y-70337500D03*
%TD*%
D15*
%TO.P,U11,11,V-_11*%
%TO.N,-4V5*%
X202850000Y-59300000D03*
X202850000Y-60800000D03*
X203350000Y-60050000D03*
D16*
X203350000Y-60050000D03*
D15*
X203850000Y-59300000D03*
X203850000Y-60800000D03*
%TD*%
D13*
%TO.P,U6,61,GND_61*%
%TO.N,GND*%
X173350000Y-69550000D03*
X173350000Y-71000000D03*
X173350000Y-72450000D03*
X174800000Y-69550000D03*
X174800000Y-71000000D03*
D27*
X174800000Y-71000000D03*
D13*
X174800000Y-72450000D03*
X176250000Y-69550000D03*
X176250000Y-71000000D03*
X176250000Y-72450000D03*
%TD*%
%TO.P,U5,4,V-_4*%
%TO.N,-4V5*%
X192400000Y-60900000D03*
X193150000Y-60900000D03*
X193900000Y-60900000D03*
D26*
X193150000Y-60550000D03*
D13*
X192400000Y-60200000D03*
X193150000Y-60200000D03*
X193900000Y-60200000D03*
%TD*%
D28*
%TO.N,GND*%
X163800000Y-80400000D03*
X201400000Y-46800000D03*
X213400000Y-46800000D03*
D29*
X191000000Y-75600000D03*
D28*
X163800000Y-75600000D03*
X183600000Y-84000000D03*
X223600000Y-48000000D03*
X194400000Y-84000000D03*
X223600000Y-62400000D03*
X211000000Y-84000000D03*
X175800000Y-84000000D03*
X223600000Y-77400000D03*
D29*
X196810169Y-70326860D03*
D28*
X223600000Y-46800000D03*
X223600000Y-60600000D03*
X223000000Y-46800000D03*
X163800000Y-52200000D03*
X196000000Y-46800000D03*
D29*
X173000000Y-60000000D03*
D28*
X223600000Y-82800000D03*
X223600000Y-57600000D03*
D29*
X178350000Y-63350000D03*
D28*
X163800000Y-68400000D03*
X194800000Y-46800000D03*
X188400000Y-84000000D03*
X199000000Y-46800000D03*
X197200000Y-46800000D03*
X163800000Y-57600000D03*
X168600000Y-84000000D03*
X217600000Y-46800000D03*
X209800000Y-84000000D03*
X188800000Y-46800000D03*
X163800000Y-61200000D03*
X163800000Y-64200000D03*
X192600000Y-84000000D03*
X176400000Y-84000000D03*
X223600000Y-55200000D03*
X223600000Y-52200000D03*
X223600000Y-51600000D03*
X223600000Y-64800000D03*
X206800000Y-46800000D03*
X177000000Y-84000000D03*
X163800000Y-58200000D03*
X223600000Y-67200000D03*
X223600000Y-75000000D03*
X223600000Y-72600000D03*
D29*
X180625996Y-53146222D03*
D28*
X197800000Y-46800000D03*
X163800000Y-66000000D03*
X214600000Y-46800000D03*
D29*
X180850000Y-57500000D03*
D28*
X200800000Y-46800000D03*
D29*
X187000000Y-64600000D03*
X181775000Y-75050000D03*
D28*
X175200000Y-84000000D03*
X221800000Y-46800000D03*
X199600000Y-46800000D03*
X163800000Y-56400000D03*
X163800000Y-72600000D03*
X223600000Y-57000000D03*
X200200000Y-46800000D03*
X223600000Y-76800000D03*
X202000000Y-46800000D03*
X196800000Y-84000000D03*
D29*
X185133753Y-53166247D03*
D28*
X173400000Y-84000000D03*
X163800000Y-46800000D03*
D29*
X171448527Y-76900000D03*
D28*
X163800000Y-64800000D03*
X163800000Y-48000000D03*
D29*
X177400000Y-54400000D03*
D28*
X190000000Y-46800000D03*
X172800000Y-84000000D03*
X180400000Y-46800000D03*
X163800000Y-67200000D03*
X223600000Y-82200000D03*
D29*
X180800000Y-51100000D03*
D28*
X191400000Y-84000000D03*
X163800000Y-58800000D03*
X163800000Y-54600000D03*
X179800000Y-46800000D03*
X163800000Y-73200000D03*
X163800000Y-53400000D03*
D29*
X177100000Y-76589211D03*
D28*
X181000000Y-46800000D03*
X212200000Y-46800000D03*
X182400000Y-84000000D03*
X220600000Y-46800000D03*
X223600000Y-64200000D03*
X211000000Y-46800000D03*
X163800000Y-77400000D03*
X223600000Y-49800000D03*
X223600000Y-67800000D03*
X223600000Y-69000000D03*
X163800000Y-54000000D03*
X185200000Y-46800000D03*
X193600000Y-46800000D03*
X221200000Y-46800000D03*
X163800000Y-84000000D03*
X223600000Y-71400000D03*
X163800000Y-76800000D03*
X193200000Y-84000000D03*
X165600000Y-84000000D03*
X163800000Y-79200000D03*
X212800000Y-46800000D03*
X223600000Y-70200000D03*
X163800000Y-65400000D03*
X210400000Y-84000000D03*
X166800000Y-84000000D03*
X223600000Y-81000000D03*
X163800000Y-70800000D03*
X163800000Y-78000000D03*
X163800000Y-49800000D03*
X208000000Y-46800000D03*
X190600000Y-46800000D03*
X223600000Y-84000000D03*
X165000000Y-84000000D03*
X183000000Y-84000000D03*
X194200000Y-46800000D03*
X181600000Y-46800000D03*
X163800000Y-76200000D03*
D29*
X167800000Y-55000000D03*
D28*
X163800000Y-67800000D03*
X171600000Y-84000000D03*
D29*
X178499265Y-67099265D03*
D28*
X206200000Y-46800000D03*
X167400000Y-84000000D03*
X223600000Y-78000000D03*
X223600000Y-55800000D03*
X193000000Y-46800000D03*
X223600000Y-73200000D03*
X223600000Y-73800000D03*
X168000000Y-84000000D03*
X165600000Y-46800000D03*
X163800000Y-59400000D03*
X176800000Y-46800000D03*
X223600000Y-66000000D03*
X195600000Y-84000000D03*
X163800000Y-82200000D03*
X164400000Y-46800000D03*
X223600000Y-81600000D03*
X163800000Y-66600000D03*
X223600000Y-78600000D03*
X184200000Y-84000000D03*
X198600000Y-84000000D03*
X191200000Y-46800000D03*
D29*
X191000000Y-60000000D03*
D28*
X223600000Y-60000000D03*
X183400000Y-46800000D03*
X195000000Y-84000000D03*
X189000000Y-84000000D03*
X223600000Y-69600000D03*
X195400000Y-46800000D03*
X223600000Y-58200000D03*
X193800000Y-84000000D03*
X163800000Y-47400000D03*
X220000000Y-46800000D03*
X172200000Y-84000000D03*
X180000000Y-84000000D03*
X190800000Y-84000000D03*
X215200000Y-46800000D03*
X223600000Y-52800000D03*
D29*
X178350000Y-64550000D03*
D28*
X174000000Y-84000000D03*
X223600000Y-65400000D03*
X208600000Y-46800000D03*
D29*
X171094975Y-63094975D03*
D28*
X192000000Y-84000000D03*
D29*
X176900000Y-80500000D03*
D28*
X163800000Y-50400000D03*
X187800000Y-84000000D03*
X223600000Y-61200000D03*
X179400000Y-84000000D03*
X205000000Y-46800000D03*
X163800000Y-49200000D03*
X217000000Y-46800000D03*
X181800000Y-84000000D03*
X166200000Y-84000000D03*
X197400000Y-84000000D03*
X169800000Y-84000000D03*
D29*
X183600000Y-55800000D03*
D28*
X223600000Y-48600000D03*
X198000000Y-84000000D03*
X163800000Y-52800000D03*
X163800000Y-72000000D03*
X163800000Y-69000000D03*
X218800000Y-46800000D03*
X164400000Y-84000000D03*
X163800000Y-51000000D03*
X186600000Y-84000000D03*
X191800000Y-46800000D03*
X201000000Y-84000000D03*
X218200000Y-46800000D03*
X223600000Y-54000000D03*
X221800000Y-84000000D03*
X187000000Y-46800000D03*
X209200000Y-84000000D03*
D29*
X178350000Y-63950000D03*
D28*
X198400000Y-46800000D03*
D29*
X175900001Y-76839580D03*
D28*
X169200000Y-84000000D03*
X223600000Y-76200000D03*
X200400000Y-84000000D03*
X163800000Y-60000000D03*
X223600000Y-56400000D03*
X165000000Y-46800000D03*
X192400000Y-46800000D03*
X177400000Y-46800000D03*
X163800000Y-57000000D03*
X187600000Y-46800000D03*
X163800000Y-69600000D03*
X223600000Y-47400000D03*
D29*
X199639238Y-57969999D03*
D28*
X204400000Y-46800000D03*
X184800000Y-84000000D03*
X177600000Y-84000000D03*
X223600000Y-74400000D03*
X207400000Y-46800000D03*
X170400000Y-84000000D03*
X178200000Y-84000000D03*
X166200000Y-46800000D03*
X163800000Y-81600000D03*
X187200000Y-84000000D03*
X184000000Y-46800000D03*
X199800000Y-84000000D03*
X210400000Y-46800000D03*
X209800000Y-46800000D03*
X190200000Y-84000000D03*
X186400000Y-46800000D03*
X202600000Y-46800000D03*
X163800000Y-51600000D03*
X163800000Y-70200000D03*
X178000000Y-46800000D03*
X163800000Y-60600000D03*
X223600000Y-79200000D03*
X179200000Y-46800000D03*
X178800000Y-84000000D03*
X185800000Y-46800000D03*
X223600000Y-58800000D03*
X219400000Y-46800000D03*
D29*
X191630833Y-70613235D03*
D28*
X163800000Y-71400000D03*
X223600000Y-83400000D03*
X163800000Y-61800000D03*
X189400000Y-46800000D03*
X189600000Y-84000000D03*
X180600000Y-84000000D03*
X184600000Y-46800000D03*
X221200000Y-84000000D03*
X211600000Y-46800000D03*
X196200000Y-84000000D03*
X223600000Y-49200000D03*
X199200000Y-84000000D03*
X223000000Y-84000000D03*
X223600000Y-80400000D03*
D29*
X187000000Y-59600000D03*
D28*
X163800000Y-74400000D03*
X163800000Y-62400000D03*
X216400000Y-46800000D03*
X186000000Y-84000000D03*
D29*
X177000000Y-58800000D03*
D28*
X223600000Y-50400000D03*
X163800000Y-73800000D03*
X205600000Y-46800000D03*
D29*
X181500000Y-59500000D03*
X200484309Y-68277580D03*
D28*
X181200000Y-84000000D03*
X163800000Y-48600000D03*
X222400000Y-84000000D03*
X163800000Y-81000000D03*
D29*
X169000000Y-74000000D03*
D28*
X223600000Y-54600000D03*
X223600000Y-70800000D03*
X223600000Y-61800000D03*
X223600000Y-63000000D03*
X163800000Y-55200000D03*
X163800000Y-63000000D03*
X178600000Y-46800000D03*
X185400000Y-84000000D03*
X223600000Y-53400000D03*
X209200000Y-46800000D03*
X188200000Y-46800000D03*
D29*
X179000000Y-80000000D03*
D28*
X163800000Y-78600000D03*
X171000000Y-84000000D03*
X222400000Y-46800000D03*
X163800000Y-63600000D03*
X223600000Y-72000000D03*
X182200000Y-46800000D03*
X174600000Y-84000000D03*
X163800000Y-55800000D03*
X223600000Y-59400000D03*
X223600000Y-75600000D03*
X163800000Y-75000000D03*
X223600000Y-79800000D03*
X214000000Y-46800000D03*
X223600000Y-68400000D03*
D29*
X180200000Y-55500000D03*
D28*
X163800000Y-83400000D03*
X163800000Y-82800000D03*
X196600000Y-46800000D03*
X223600000Y-66600000D03*
X223600000Y-51000000D03*
X163800000Y-79800000D03*
X203800000Y-46800000D03*
X203200000Y-46800000D03*
X223600000Y-63600000D03*
X215800000Y-46800000D03*
X182800000Y-46800000D03*
D29*
%TO.N,+3V3*%
X179000000Y-57600000D03*
X179600000Y-71400000D03*
X180010000Y-67292679D03*
X179000000Y-56800000D03*
X180000000Y-64400000D03*
X179000000Y-56000000D03*
X169600000Y-71800000D03*
X173400000Y-76199999D03*
X169900000Y-68000000D03*
X177100000Y-75500000D03*
%TO.N,-4V5*%
X187864581Y-59600000D03*
X199950000Y-61000000D03*
X194431404Y-62596490D03*
X200060715Y-69000000D03*
X185850000Y-55950000D03*
X188600000Y-74800000D03*
X191575735Y-68063235D03*
%TO.N,+4V5*%
X184086765Y-64525735D03*
X195775735Y-71263235D03*
X192196911Y-58200000D03*
X192200000Y-74800000D03*
X199800000Y-66550000D03*
X181600000Y-48800000D03*
X199850000Y-59100000D03*
%TO.N,/GP15*%
X215015000Y-52600000D03*
X170700009Y-78600000D03*
%TO.N,/5242-1P*%
X197875581Y-70624419D03*
X198760715Y-69751160D03*
%TO.N,/1612-UNBAL-1*%
X192258792Y-76421995D03*
X190000000Y-60200000D03*
%TO.N,/5242-1N*%
X198730048Y-70630356D03*
X197850000Y-69737500D03*
%TO.N,+5V*%
X167200000Y-58000000D03*
X182850000Y-48150000D03*
X174400000Y-58200000D03*
%TO.N,Net-(U2-EN+)*%
X181600000Y-50866222D03*
X184213297Y-50422568D03*
%TO.N,/BAL-1622-EN*%
X166400000Y-72800000D03*
X206079620Y-60120380D03*
X206810390Y-68102811D03*
%TO.N,Net-(U11A--)*%
X202600000Y-63600000D03*
X207000000Y-58000000D03*
%TO.N,/OUT-BAL-2P*%
X207515380Y-59300000D03*
%TO.N,/GP14*%
X215015000Y-55400000D03*
X169900006Y-78600000D03*
%TO.N,/1612-BAL-1P*%
X196097105Y-68700000D03*
X201400000Y-66800000D03*
%TO.N,/1612-BAL-1N*%
X201400000Y-70000000D03*
X196700000Y-71119240D03*
%TO.N,Net-(U10B--)*%
X208400000Y-65200000D03*
X206800000Y-71200000D03*
%TO.N,Net-(U10A--)*%
X207800000Y-66600000D03*
X204600000Y-71000000D03*
%TO.N,/GP10*%
X164800000Y-75400000D03*
%TO.N,+AUDIO3V3*%
X183552880Y-73352880D03*
X183950000Y-57450000D03*
%TO.N,/1612-BAL-2P*%
X186206763Y-65763112D03*
X200620921Y-57320000D03*
%TO.N,/5242-2P*%
X186062500Y-67950000D03*
X186062500Y-66550000D03*
%TO.N,/5242-2N*%
X187062500Y-67350000D03*
X184862500Y-67350000D03*
%TO.N,/1612-BAL-2N*%
X200600000Y-62800000D03*
X185200000Y-65800000D03*
%TO.N,+1V1*%
X174750000Y-63350000D03*
X175884883Y-75864748D03*
X179164411Y-69411632D03*
X174750000Y-62350000D03*
X169900000Y-70390000D03*
X174750000Y-61350000D03*
%TO.N,/RUN*%
X178400000Y-78000000D03*
X170200000Y-67000000D03*
%TO.N,/GP13*%
X215115000Y-58500000D03*
X169100003Y-78600000D03*
%TO.N,Net-(U11B--)*%
X206900000Y-62700000D03*
X203400000Y-57400000D03*
%TO.N,/OUT-BAL-2N*%
X207550000Y-61600000D03*
%TO.N,Net-(U9A-EN)*%
X166400000Y-72000000D03*
X192000002Y-81950000D03*
%TO.N,/1612-UNBAL-2*%
X190000000Y-59399997D03*
X189550018Y-76249982D03*
%TO.N,/GP11*%
X164800000Y-76200000D03*
%TO.N,/GP12*%
X168300000Y-78600000D03*
X215155000Y-61600000D03*
%TD*%
%TO.N,/5242-1P*%
D30*
X197962497Y-70537503D02*
X197974372Y-70537503D01*
X197974372Y-70537503D02*
X198760715Y-69751160D01*
X197875581Y-70624419D02*
X197962497Y-70537503D01*
%TO.N,/1612-UNBAL-1*%
D31*
X190000000Y-75600000D02*
X190000000Y-60200000D01*
X192258792Y-76421995D02*
X192080787Y-76600000D01*
X191000000Y-76600000D02*
X190000000Y-75600000D01*
X192080787Y-76600000D02*
X191000000Y-76600000D01*
%TO.N,Net-(U2-EN+)*%
X183769643Y-50866222D02*
X184213297Y-50422568D01*
X181600000Y-50866222D02*
X183769643Y-50866222D01*
%TO.N,/BAL-1622-EN*%
D30*
X206810390Y-68539610D02*
X204950000Y-70400000D01*
X167300000Y-81200000D02*
X166400000Y-80300000D01*
X201100000Y-71900000D02*
X201100000Y-78900000D01*
X166400000Y-80300000D02*
X166400000Y-72800000D01*
X201100000Y-78900000D02*
X198800000Y-81200000D01*
X198800000Y-81200000D02*
X167300000Y-81200000D01*
X206810390Y-66810390D02*
X206810390Y-68102811D01*
X204800000Y-64800000D02*
X206810390Y-66810390D01*
X206079620Y-60120380D02*
X204800000Y-61400000D01*
X206810390Y-68102811D02*
X206810390Y-68539610D01*
X204950000Y-70400000D02*
X202600000Y-70400000D01*
X202600000Y-70400000D02*
X201100000Y-71900000D01*
X204800000Y-61400000D02*
X204800000Y-64800000D01*
%TO.N,Net-(U11A--)*%
D31*
X207000000Y-57300000D02*
X207000000Y-58000000D01*
X202600000Y-63600000D02*
X201850000Y-62850000D01*
X201850000Y-57550000D02*
X202650000Y-56750000D01*
X202650000Y-56750000D02*
X206450000Y-56750000D01*
X201850000Y-62850000D02*
X201850000Y-57550000D01*
X206450000Y-56750000D02*
X207000000Y-57300000D01*
%TO.N,/OUT-BAL-2P*%
X210600000Y-75800000D02*
X211400000Y-76600000D01*
X210600000Y-62400000D02*
X210600000Y-75800000D01*
X211400000Y-76600000D02*
X212700000Y-76600000D01*
X212700000Y-76600000D02*
X212800000Y-76700000D01*
X212800000Y-76700000D02*
X212900000Y-76700000D01*
X207415380Y-59400000D02*
X207600000Y-59400000D01*
X207600000Y-59400000D02*
X210600000Y-62400000D01*
%TO.N,/1612-BAL-1P*%
X196097105Y-68700000D02*
X196097105Y-68302895D01*
X201000000Y-67200000D02*
X201400000Y-66800000D01*
X197200000Y-67200000D02*
X201000000Y-67200000D01*
X196097105Y-68302895D02*
X197200000Y-67200000D01*
%TO.N,/1612-BAL-1N*%
X200600000Y-71400000D02*
X201400000Y-70600000D01*
X197300000Y-71400000D02*
X200600000Y-71400000D01*
X197019240Y-71119240D02*
X197300000Y-71400000D01*
X201400000Y-70600000D02*
X201400000Y-70000000D01*
X196700000Y-71119240D02*
X197019240Y-71119240D01*
%TO.N,Net-(U10B--)*%
D30*
X207200000Y-70800000D02*
X206800000Y-71200000D01*
X208400000Y-70000000D02*
X207600000Y-70800000D01*
X208400000Y-65200000D02*
X208400000Y-70000000D01*
X207600000Y-70800000D02*
X207200000Y-70800000D01*
%TO.N,Net-(U10A--)*%
X207800000Y-68800000D02*
X207800000Y-66600000D01*
X205600000Y-71000000D02*
X207800000Y-68800000D01*
X204600000Y-71000000D02*
X205600000Y-71000000D01*
%TO.N,/GP10*%
X191751471Y-82550000D02*
X192248529Y-82550000D01*
X198365686Y-82200000D02*
X199965686Y-80600000D01*
X165400000Y-80565686D02*
X167184314Y-82350000D01*
X165400000Y-75707179D02*
X165400000Y-80565686D01*
X192598529Y-82200000D02*
X198365686Y-82200000D01*
X167184314Y-82350000D02*
X191551471Y-82350000D01*
X202650000Y-80600000D02*
X207750000Y-75500000D01*
X192248529Y-82550000D02*
X192598529Y-82200000D01*
X199965686Y-80600000D02*
X202650000Y-80600000D01*
X191551471Y-82350000D02*
X191751471Y-82550000D01*
X164800000Y-75400000D02*
X165092821Y-75400000D01*
X165092821Y-75400000D02*
X165400000Y-75707179D01*
%TO.N,/1612-BAL-2P*%
D31*
X186206763Y-65606763D02*
X186206763Y-65763112D01*
X187187106Y-57320000D02*
X184000000Y-60507106D01*
X184000000Y-60507106D02*
X184000000Y-63400000D01*
X184000000Y-63400000D02*
X186206763Y-65606763D01*
X187187106Y-57320000D02*
X200620921Y-57320000D01*
%TO.N,/5242-2P*%
D30*
X186062500Y-66550000D02*
X186062500Y-67950000D01*
%TO.N,/1612-BAL-2N*%
D31*
X183200000Y-64800000D02*
X183200000Y-60600000D01*
X184400000Y-66000000D02*
X183200000Y-64800000D01*
X185000000Y-66000000D02*
X184400000Y-66000000D01*
X201270921Y-62129079D02*
X200600000Y-62800000D01*
X183200000Y-60600000D02*
X187130000Y-56670000D01*
X200890160Y-56670000D02*
X201270921Y-57050761D01*
X201270921Y-57050761D02*
X201270921Y-62129079D01*
X200890160Y-56670000D02*
X187130000Y-56670000D01*
X185200000Y-65800000D02*
X185000000Y-66000000D01*
%TO.N,/RUN*%
D30*
X178400000Y-68600000D02*
X176800000Y-67000000D01*
X178400000Y-78000000D02*
X178400000Y-68600000D01*
X176800000Y-67000000D02*
X170200000Y-67000000D01*
%TO.N,Net-(U11B--)*%
D31*
X206900000Y-62700000D02*
X206800000Y-62600000D01*
X206800000Y-58800000D02*
X205400000Y-57400000D01*
X206800000Y-62600000D02*
X206800000Y-58800000D01*
X206900000Y-62700000D02*
X207000000Y-62600000D01*
X205400000Y-57400000D02*
X203400000Y-57400000D01*
%TO.N,/OUT-BAL-2N*%
X209600000Y-63400000D02*
X209600000Y-76100000D01*
X209600000Y-76100000D02*
X212600000Y-79100000D01*
X207550000Y-61600000D02*
X207800000Y-61600000D01*
X212600000Y-79100000D02*
X212900000Y-79100000D01*
X207800000Y-61600000D02*
X209600000Y-63400000D01*
%TO.N,Net-(U9A-EN)*%
D30*
X166351471Y-72000000D02*
X166400000Y-72000000D01*
X165800000Y-80400000D02*
X165800000Y-72551471D01*
X167350000Y-81950000D02*
X165800000Y-80400000D01*
X192000002Y-81950000D02*
X167350000Y-81950000D01*
X165800000Y-72551471D02*
X166351471Y-72000000D01*
%TO.N,/1612-UNBAL-2*%
D31*
X189550018Y-76249982D02*
X189350000Y-76049965D01*
X189350000Y-76049965D02*
X189350000Y-59930761D01*
X189880764Y-59399997D02*
X190000000Y-59399997D01*
X189350000Y-59930761D02*
X189880764Y-59399997D01*
%TO.N,/GP11*%
D30*
X209600000Y-83100000D02*
X211900000Y-80800000D01*
X217750000Y-80000000D02*
X217750000Y-67900000D01*
X165000000Y-80731372D02*
X167368628Y-83100000D01*
X216950000Y-80800000D02*
X217750000Y-80000000D01*
X211900000Y-80800000D02*
X216950000Y-80800000D01*
X165000000Y-76200000D02*
X165000000Y-80731372D01*
X164800000Y-76200000D02*
X165000000Y-76200000D01*
X167368628Y-83100000D02*
X209600000Y-83100000D01*
%TD*%
%TA.AperFunction,Conductor*%
%TO.N,GND*%
G36*
X208850534Y-76098449D02*
G01*
X208874785Y-76099748D01*
X208883926Y-76106339D01*
X208894895Y-76108931D01*
X208911759Y-76126407D01*
X208931459Y-76140612D01*
X208936844Y-76152404D01*
X208943412Y-76159210D01*
X208955154Y-76192493D01*
X208966693Y-76250500D01*
X208972331Y-76278843D01*
X208974499Y-76289744D01*
X209009360Y-76373907D01*
X209023535Y-76408127D01*
X209085484Y-76500841D01*
X209094726Y-76514673D01*
X209094727Y-76514674D01*
X211663181Y-79083127D01*
X211696666Y-79144450D01*
X211699500Y-79170808D01*
X211699500Y-79794486D01*
X211729060Y-79981119D01*
X211729060Y-79981122D01*
X211761313Y-80080384D01*
X211763308Y-80150225D01*
X211727228Y-80210058D01*
X211698457Y-80229800D01*
X211687395Y-80235283D01*
X211668215Y-80240423D01*
X211618095Y-80269360D01*
X211614694Y-80271323D01*
X211614693Y-80271324D01*
X211531285Y-80319479D01*
X211531282Y-80319481D01*
X211419478Y-80431286D01*
X209387584Y-82463181D01*
X209326261Y-82496666D01*
X209299903Y-82499500D01*
X206320655Y-82499500D01*
X206253616Y-82479815D01*
X206207861Y-82427011D01*
X206197917Y-82357853D01*
X206202724Y-82337181D01*
X206220940Y-82281118D01*
X206250500Y-82094486D01*
X206250500Y-81905513D01*
X206220940Y-81718881D01*
X206162545Y-81539163D01*
X206076759Y-81370800D01*
X206068605Y-81359577D01*
X205965690Y-81217927D01*
X205832073Y-81084310D01*
X205679199Y-80973240D01*
X205650272Y-80958501D01*
X205510836Y-80887454D01*
X205331118Y-80829059D01*
X205144486Y-80799500D01*
X205144481Y-80799500D01*
X204955519Y-80799500D01*
X204955514Y-80799500D01*
X204768881Y-80829059D01*
X204589163Y-80887454D01*
X204420800Y-80973240D01*
X204357982Y-81018881D01*
X204267927Y-81084310D01*
X204267925Y-81084312D01*
X204267924Y-81084312D01*
X204134312Y-81217924D01*
X204134312Y-81217925D01*
X204134310Y-81217927D01*
X204120584Y-81236819D01*
X204023240Y-81370800D01*
X203937454Y-81539163D01*
X203879059Y-81718881D01*
X203849500Y-81905513D01*
X203849500Y-82094486D01*
X203879059Y-82281118D01*
X203897276Y-82337181D01*
X203899271Y-82407022D01*
X203863191Y-82466855D01*
X203800490Y-82497684D01*
X203779345Y-82499500D01*
X203174500Y-82499500D01*
X203107461Y-82479815D01*
X203061706Y-82427011D01*
X203050500Y-82375500D01*
X203050500Y-81401456D01*
X203013992Y-81217924D01*
X203012051Y-81208165D01*
X203008322Y-81199164D01*
X203006186Y-81179289D01*
X202999200Y-81160560D01*
X203002527Y-81145262D01*
X203000854Y-81129696D01*
X203009801Y-81111821D01*
X203014051Y-81092287D01*
X203030741Y-81069991D01*
X203032130Y-81067217D01*
X203035174Y-81064061D01*
X203130520Y-80968716D01*
X203130521Y-80968713D01*
X207243322Y-76855911D01*
X207304643Y-76822428D01*
X207374335Y-76827412D01*
X207378419Y-76829019D01*
X207458165Y-76862051D01*
X207458169Y-76862051D01*
X207458170Y-76862052D01*
X207651456Y-76900500D01*
X207651459Y-76900500D01*
X207848543Y-76900500D01*
X207992985Y-76871768D01*
X208041835Y-76862051D01*
X208223914Y-76786632D01*
X208387782Y-76677139D01*
X208527139Y-76537782D01*
X208636632Y-76373914D01*
X208712051Y-76191835D01*
X208712052Y-76191827D01*
X208713820Y-76186003D01*
X208715112Y-76186394D01*
X208717142Y-76182512D01*
X208718147Y-76171287D01*
X208733044Y-76152108D01*
X208744301Y-76130587D01*
X208754095Y-76125009D01*
X208761009Y-76116109D01*
X208783913Y-76108028D01*
X208805016Y-76096011D01*
X208816269Y-76096613D01*
X208826898Y-76092864D01*
X208850534Y-76098449D01*
G37*
%TD.AperFunction*%
%TA.AperFunction,Conductor*%
G36*
X208868834Y-70482914D02*
G01*
X208924767Y-70524786D01*
X208949184Y-70590250D01*
X208949500Y-70599096D01*
X208949500Y-74758027D01*
X208929815Y-74825066D01*
X208877011Y-74870821D01*
X208807853Y-74880765D01*
X208744297Y-74851740D01*
X208710939Y-74805479D01*
X208636635Y-74626092D01*
X208636628Y-74626079D01*
X208527139Y-74462218D01*
X208527136Y-74462214D01*
X208387785Y-74322863D01*
X208387781Y-74322860D01*
X208223920Y-74213371D01*
X208223907Y-74213364D01*
X208041839Y-74137950D01*
X208041829Y-74137947D01*
X207848543Y-74099500D01*
X207848541Y-74099500D01*
X207651459Y-74099500D01*
X207651457Y-74099500D01*
X207458170Y-74137947D01*
X207458160Y-74137950D01*
X207276092Y-74213364D01*
X207276079Y-74213371D01*
X207112218Y-74322860D01*
X207112214Y-74322863D01*
X206972863Y-74462214D01*
X206972860Y-74462218D01*
X206863371Y-74626079D01*
X206863364Y-74626092D01*
X206787950Y-74808160D01*
X206787947Y-74808170D01*
X206749500Y-75001456D01*
X206749500Y-75599903D01*
X206729815Y-75666942D01*
X206713181Y-75687584D01*
X203262181Y-79138584D01*
X203200858Y-79172069D01*
X203131166Y-79167085D01*
X203075233Y-79125213D01*
X203050816Y-79059749D01*
X203050500Y-79050903D01*
X203050500Y-78601456D01*
X203012052Y-78408170D01*
X203012051Y-78408169D01*
X203012051Y-78408165D01*
X202975069Y-78318881D01*
X202936635Y-78226092D01*
X202936628Y-78226079D01*
X202827139Y-78062218D01*
X202827136Y-78062214D01*
X202687785Y-77922863D01*
X202687781Y-77922860D01*
X202523920Y-77813371D01*
X202523907Y-77813364D01*
X202341839Y-77737950D01*
X202341829Y-77737947D01*
X202148543Y-77699500D01*
X202148541Y-77699500D01*
X201951459Y-77699500D01*
X201951454Y-77699500D01*
X201848691Y-77719941D01*
X201779099Y-77713714D01*
X201723922Y-77670851D01*
X201700678Y-77604961D01*
X201700500Y-77598324D01*
X201700500Y-74840902D01*
X201720185Y-74773863D01*
X201772989Y-74728108D01*
X201842147Y-74718164D01*
X201871952Y-74726341D01*
X201948450Y-74758027D01*
X201958165Y-74762051D01*
X201958169Y-74762051D01*
X201958170Y-74762052D01*
X202151456Y-74800500D01*
X202151459Y-74800500D01*
X202348543Y-74800500D01*
X202488556Y-74772649D01*
X202541835Y-74762051D01*
X202714320Y-74690606D01*
X202723907Y-74686635D01*
X202723907Y-74686634D01*
X202723914Y-74686632D01*
X202814538Y-74626079D01*
X202881109Y-74581598D01*
X202947787Y-74560720D01*
X203015167Y-74579204D01*
X203018891Y-74581598D01*
X203176079Y-74686628D01*
X203176092Y-74686635D01*
X203348450Y-74758027D01*
X203358165Y-74762051D01*
X203358169Y-74762051D01*
X203358170Y-74762052D01*
X203551456Y-74800500D01*
X203725500Y-74800500D01*
X203792539Y-74820185D01*
X203838294Y-74872989D01*
X203849500Y-74924500D01*
X203849500Y-75114486D01*
X203879059Y-75301118D01*
X203937454Y-75480836D01*
X204014095Y-75631251D01*
X204023240Y-75649199D01*
X204134310Y-75802073D01*
X204267927Y-75935690D01*
X204420801Y-76046760D01*
X204500347Y-76087290D01*
X204589163Y-76132545D01*
X204589165Y-76132545D01*
X204589168Y-76132547D01*
X204671228Y-76159210D01*
X204768881Y-76190940D01*
X204955514Y-76220500D01*
X204955519Y-76220500D01*
X205144486Y-76220500D01*
X205331118Y-76190940D01*
X205346312Y-76186003D01*
X205510832Y-76132547D01*
X205679199Y-76046760D01*
X205832073Y-75935690D01*
X205965690Y-75802073D01*
X206076760Y-75649199D01*
X206162547Y-75480832D01*
X206220940Y-75301118D01*
X206230151Y-75242961D01*
X206250500Y-75114486D01*
X206250500Y-74925513D01*
X206220940Y-74738881D01*
X206193846Y-74655497D01*
X206162547Y-74559168D01*
X206162545Y-74559165D01*
X206162545Y-74559163D01*
X206076759Y-74390800D01*
X205965690Y-74237927D01*
X205832073Y-74104310D01*
X205679199Y-73993240D01*
X205669492Y-73988294D01*
X205510836Y-73907454D01*
X205331118Y-73849059D01*
X205144486Y-73819500D01*
X205144481Y-73819500D01*
X204955519Y-73819500D01*
X204955514Y-73819500D01*
X204793898Y-73845097D01*
X204724604Y-73836142D01*
X204671152Y-73791146D01*
X204650513Y-73724394D01*
X204650500Y-73722624D01*
X204650500Y-72901456D01*
X204612052Y-72708170D01*
X204612051Y-72708169D01*
X204612051Y-72708165D01*
X204585262Y-72643489D01*
X204536635Y-72526092D01*
X204536628Y-72526079D01*
X204427139Y-72362218D01*
X204427136Y-72362214D01*
X204287785Y-72222863D01*
X204287781Y-72222860D01*
X204123920Y-72113371D01*
X204123907Y-72113364D01*
X203941839Y-72037950D01*
X203941829Y-72037947D01*
X203748543Y-71999500D01*
X203748541Y-71999500D01*
X203551459Y-71999500D01*
X203551457Y-71999500D01*
X203358170Y-72037947D01*
X203358160Y-72037950D01*
X203176092Y-72113364D01*
X203176074Y-72113374D01*
X203018890Y-72218401D01*
X202952213Y-72239279D01*
X202884833Y-72220794D01*
X202881110Y-72218401D01*
X202723925Y-72113374D01*
X202723907Y-72113364D01*
X202541839Y-72037950D01*
X202541829Y-72037947D01*
X202348543Y-71999500D01*
X202348541Y-71999500D01*
X202151459Y-71999500D01*
X202149097Y-71999500D01*
X202082058Y-71979815D01*
X202036303Y-71927011D01*
X202026359Y-71857853D01*
X202055384Y-71794297D01*
X202061416Y-71787819D01*
X202812416Y-71036819D01*
X202873739Y-71003334D01*
X202900097Y-71000500D01*
X203682152Y-71000500D01*
X203749191Y-71020185D01*
X203794946Y-71072989D01*
X203803769Y-71100308D01*
X203830261Y-71233491D01*
X203830264Y-71233501D01*
X203890602Y-71379172D01*
X203890609Y-71379185D01*
X203978210Y-71510288D01*
X203978213Y-71510292D01*
X204089707Y-71621786D01*
X204089711Y-71621789D01*
X204220814Y-71709390D01*
X204220827Y-71709397D01*
X204358695Y-71766503D01*
X204366503Y-71769737D01*
X204489974Y-71794297D01*
X204521153Y-71800499D01*
X204521156Y-71800500D01*
X204521158Y-71800500D01*
X204678844Y-71800500D01*
X204678845Y-71800499D01*
X204833497Y-71769737D01*
X204979179Y-71709394D01*
X205079422Y-71642414D01*
X205110875Y-71621398D01*
X205177553Y-71600520D01*
X205179766Y-71600500D01*
X205513331Y-71600500D01*
X205513347Y-71600501D01*
X205520943Y-71600501D01*
X205679054Y-71600501D01*
X205679057Y-71600501D01*
X205831785Y-71559577D01*
X205881904Y-71530639D01*
X205911652Y-71513464D01*
X205979550Y-71496992D01*
X206045577Y-71519845D01*
X206088209Y-71573394D01*
X206090603Y-71579173D01*
X206090609Y-71579185D01*
X206178210Y-71710288D01*
X206178213Y-71710292D01*
X206289707Y-71821786D01*
X206289711Y-71821789D01*
X206420814Y-71909390D01*
X206420827Y-71909397D01*
X206566498Y-71969735D01*
X206566503Y-71969737D01*
X206716131Y-71999500D01*
X206721153Y-72000499D01*
X206721156Y-72000500D01*
X206721158Y-72000500D01*
X206878844Y-72000500D01*
X206878845Y-72000499D01*
X207033497Y-71969737D01*
X207179179Y-71909394D01*
X207310289Y-71821789D01*
X207421789Y-71710289D01*
X207509394Y-71579179D01*
X207551698Y-71477045D01*
X207595537Y-71422646D01*
X207661831Y-71400580D01*
X207666258Y-71400501D01*
X207679054Y-71400501D01*
X207679057Y-71400501D01*
X207831785Y-71359577D01*
X207919414Y-71308984D01*
X207968716Y-71280520D01*
X208080520Y-71168716D01*
X208080520Y-71168714D01*
X208090724Y-71158511D01*
X208090728Y-71158506D01*
X208737819Y-70511415D01*
X208799142Y-70477930D01*
X208868834Y-70482914D01*
G37*
%TD.AperFunction*%
%TA.AperFunction,Conductor*%
G36*
X223842538Y-46520185D02*
G01*
X223888293Y-46572989D01*
X223899499Y-46624500D01*
X223899499Y-84175500D01*
X223879814Y-84242539D01*
X223827010Y-84288294D01*
X223775499Y-84299500D01*
X163624500Y-84299500D01*
X163557461Y-84279815D01*
X163511706Y-84227011D01*
X163500500Y-84175500D01*
X163500500Y-75321153D01*
X163999500Y-75321153D01*
X163999500Y-75478846D01*
X164030261Y-75633489D01*
X164030264Y-75633501D01*
X164079574Y-75752548D01*
X164087043Y-75822018D01*
X164079574Y-75847452D01*
X164030264Y-75966498D01*
X164030261Y-75966510D01*
X163999500Y-76121153D01*
X163999500Y-76278846D01*
X164030261Y-76433489D01*
X164030264Y-76433501D01*
X164090602Y-76579172D01*
X164090609Y-76579185D01*
X164178210Y-76710288D01*
X164178213Y-76710292D01*
X164289706Y-76821785D01*
X164289709Y-76821787D01*
X164289711Y-76821789D01*
X164344391Y-76858325D01*
X164389195Y-76911935D01*
X164399500Y-76961426D01*
X164399500Y-80644702D01*
X164399499Y-80644720D01*
X164399499Y-80810426D01*
X164399498Y-80810426D01*
X164399499Y-80810429D01*
X164440423Y-80963157D01*
X164461983Y-81000500D01*
X164519477Y-81100084D01*
X164519481Y-81100089D01*
X164638349Y-81218957D01*
X164638355Y-81218962D01*
X165181871Y-81762478D01*
X165215356Y-81823801D01*
X165210372Y-81893493D01*
X165168500Y-81949426D01*
X165103036Y-81973843D01*
X165082043Y-81973563D01*
X165081403Y-81973500D01*
X164918597Y-81973500D01*
X164918594Y-81973500D01*
X164758926Y-82005259D01*
X164758917Y-82005262D01*
X164608509Y-82067562D01*
X164608507Y-82067563D01*
X164473137Y-82158015D01*
X164473133Y-82158018D01*
X164358018Y-82273133D01*
X164358015Y-82273137D01*
X164267563Y-82408507D01*
X164267562Y-82408509D01*
X164205262Y-82558917D01*
X164205259Y-82558926D01*
X164173500Y-82718592D01*
X164173500Y-82881407D01*
X164205259Y-83041073D01*
X164205262Y-83041082D01*
X164267562Y-83191490D01*
X164267563Y-83191492D01*
X164358015Y-83326862D01*
X164358018Y-83326866D01*
X164473133Y-83441981D01*
X164473137Y-83441984D01*
X164608505Y-83532435D01*
X164608506Y-83532435D01*
X164608507Y-83532436D01*
X164608509Y-83532437D01*
X164708781Y-83573970D01*
X164758919Y-83594738D01*
X164758921Y-83594738D01*
X164758926Y-83594740D01*
X164918592Y-83626499D01*
X164918595Y-83626500D01*
X164918597Y-83626500D01*
X165081405Y-83626500D01*
X165081406Y-83626499D01*
X165134629Y-83615912D01*
X165241073Y-83594740D01*
X165241076Y-83594738D01*
X165241081Y-83594738D01*
X165391495Y-83532435D01*
X165526863Y-83441984D01*
X165641984Y-83326863D01*
X165732435Y-83191495D01*
X165794738Y-83041081D01*
X165826500Y-82881403D01*
X165826500Y-82718597D01*
X165826499Y-82718592D01*
X165826438Y-82717972D01*
X165826500Y-82717644D01*
X165826500Y-82712505D01*
X165827474Y-82712505D01*
X165839452Y-82649325D01*
X165887513Y-82598611D01*
X165955362Y-82581932D01*
X166021459Y-82604583D01*
X166037521Y-82618128D01*
X166883767Y-83464374D01*
X166883777Y-83464385D01*
X166888107Y-83468715D01*
X166888108Y-83468716D01*
X166999912Y-83580520D01*
X167079552Y-83626499D01*
X167086723Y-83630639D01*
X167086725Y-83630641D01*
X167124779Y-83652611D01*
X167136843Y-83659577D01*
X167289571Y-83700501D01*
X167289574Y-83700501D01*
X167455281Y-83700501D01*
X167455297Y-83700500D01*
X209513331Y-83700500D01*
X209513347Y-83700501D01*
X209520943Y-83700501D01*
X209679054Y-83700501D01*
X209679057Y-83700501D01*
X209831785Y-83659577D01*
X209881904Y-83630639D01*
X209968716Y-83580520D01*
X210080520Y-83468716D01*
X210080520Y-83468714D01*
X210090728Y-83458507D01*
X210090729Y-83458504D01*
X212112416Y-81436819D01*
X212173739Y-81403334D01*
X212200097Y-81400500D01*
X216863331Y-81400500D01*
X216863347Y-81400501D01*
X216870943Y-81400501D01*
X217029054Y-81400501D01*
X217029057Y-81400501D01*
X217181785Y-81359577D01*
X217256391Y-81316503D01*
X217318716Y-81280520D01*
X217430520Y-81168716D01*
X217430520Y-81168714D01*
X217440724Y-81158511D01*
X217440728Y-81158506D01*
X218108506Y-80490728D01*
X218108511Y-80490724D01*
X218118714Y-80480520D01*
X218118716Y-80480520D01*
X218230520Y-80368716D01*
X218298772Y-80250499D01*
X218309577Y-80231785D01*
X218344541Y-80101296D01*
X218345557Y-80098180D01*
X218363510Y-80071965D01*
X218380050Y-80044831D01*
X218383113Y-80043342D01*
X218385037Y-80040534D01*
X218414311Y-80028187D01*
X218442897Y-80014302D01*
X218446278Y-80014706D01*
X218449416Y-80013383D01*
X218480723Y-80018824D01*
X218512273Y-80022597D01*
X218515675Y-80024900D01*
X218518253Y-80025348D01*
X218523603Y-80030265D01*
X218551141Y-80048904D01*
X218617927Y-80115690D01*
X218627812Y-80122872D01*
X218664713Y-80149683D01*
X218707379Y-80205013D01*
X218713357Y-80274626D01*
X218680751Y-80336421D01*
X218664713Y-80350317D01*
X218617933Y-80384305D01*
X218617924Y-80384312D01*
X218484312Y-80517924D01*
X218484312Y-80517925D01*
X218484310Y-80517927D01*
X218451431Y-80563181D01*
X218373240Y-80670800D01*
X218287454Y-80839163D01*
X218229059Y-81018881D01*
X218199500Y-81205513D01*
X218199500Y-81994486D01*
X218229059Y-82181118D01*
X218287454Y-82360836D01*
X218373240Y-82529199D01*
X218484310Y-82682073D01*
X218617927Y-82815690D01*
X218770801Y-82926760D01*
X218850347Y-82967290D01*
X218939163Y-83012545D01*
X218939165Y-83012545D01*
X218939168Y-83012547D01*
X219026986Y-83041081D01*
X219118881Y-83070940D01*
X219305514Y-83100500D01*
X219305519Y-83100500D01*
X219494486Y-83100500D01*
X219681118Y-83070940D01*
X219860832Y-83012547D01*
X220029199Y-82926760D01*
X220182073Y-82815690D01*
X220315690Y-82682073D01*
X220426760Y-82529199D01*
X220512547Y-82360832D01*
X220570940Y-82181118D01*
X220588925Y-82067565D01*
X220600500Y-81994486D01*
X220600500Y-81205513D01*
X220570940Y-81018881D01*
X220512545Y-80839163D01*
X220426759Y-80670800D01*
X220413326Y-80652311D01*
X220315690Y-80517927D01*
X220182073Y-80384310D01*
X220135286Y-80350317D01*
X220092621Y-80294988D01*
X220086642Y-80225375D01*
X220119248Y-80163580D01*
X220135287Y-80149682D01*
X220182073Y-80115690D01*
X220315690Y-79982073D01*
X220426760Y-79829199D01*
X220512547Y-79660832D01*
X220570940Y-79481118D01*
X220578487Y-79433466D01*
X220600500Y-79294486D01*
X220600500Y-78505513D01*
X220570940Y-78318881D01*
X220543194Y-78233489D01*
X220512547Y-78139168D01*
X220512545Y-78139165D01*
X220512545Y-78139163D01*
X220454567Y-78025375D01*
X220426760Y-77970801D01*
X220315690Y-77817927D01*
X220182073Y-77684310D01*
X220135286Y-77650317D01*
X220092621Y-77594988D01*
X220086642Y-77525375D01*
X220119248Y-77463580D01*
X220135287Y-77449682D01*
X220182073Y-77415690D01*
X220315690Y-77282073D01*
X220426760Y-77129199D01*
X220512547Y-76960832D01*
X220570940Y-76781118D01*
X220582158Y-76710289D01*
X220600500Y-76594486D01*
X220600500Y-75805513D01*
X220570940Y-75618881D01*
X220529259Y-75490601D01*
X220512547Y-75439168D01*
X220512545Y-75439165D01*
X220512545Y-75439163D01*
X220467290Y-75350347D01*
X220426760Y-75270801D01*
X220315690Y-75117927D01*
X220182073Y-74984310D01*
X220029199Y-74873240D01*
X219987003Y-74851740D01*
X219860836Y-74787454D01*
X219681118Y-74729059D01*
X219494486Y-74699500D01*
X219494481Y-74699500D01*
X219305519Y-74699500D01*
X219305514Y-74699500D01*
X219118881Y-74729059D01*
X218939163Y-74787454D01*
X218770800Y-74873240D01*
X218740318Y-74895387D01*
X218617927Y-74984310D01*
X218617925Y-74984312D01*
X218617924Y-74984312D01*
X218562181Y-75040056D01*
X218500858Y-75073541D01*
X218431166Y-75068557D01*
X218375233Y-75026685D01*
X218350816Y-74961221D01*
X218350500Y-74952375D01*
X218350500Y-69598989D01*
X218370185Y-69531950D01*
X218401616Y-69498670D01*
X218404518Y-69496562D01*
X218499501Y-69427553D01*
X218587319Y-69339735D01*
X218648642Y-69306250D01*
X218718334Y-69311234D01*
X218762681Y-69339735D01*
X218850500Y-69427554D01*
X218850505Y-69427558D01*
X218964376Y-69510289D01*
X218997006Y-69533996D01*
X219102484Y-69587740D01*
X219158360Y-69616211D01*
X219158363Y-69616212D01*
X219244476Y-69644191D01*
X219330591Y-69672171D01*
X219413429Y-69685291D01*
X219509449Y-69700500D01*
X219509454Y-69700500D01*
X219690551Y-69700500D01*
X219777259Y-69686765D01*
X219869409Y-69672171D01*
X220041639Y-69616211D01*
X220202994Y-69533996D01*
X220349501Y-69427553D01*
X220477553Y-69299501D01*
X220583996Y-69152994D01*
X220666211Y-68991639D01*
X220722171Y-68819409D01*
X220742892Y-68688583D01*
X220750500Y-68640551D01*
X220750500Y-67759448D01*
X220731600Y-67640122D01*
X220722171Y-67580591D01*
X220692643Y-67489711D01*
X220666212Y-67408363D01*
X220666211Y-67408360D01*
X220624051Y-67325618D01*
X220583996Y-67247006D01*
X220570396Y-67228287D01*
X220477558Y-67100505D01*
X220477554Y-67100500D01*
X220349499Y-66972445D01*
X220349494Y-66972441D01*
X220202997Y-66866006D01*
X220202996Y-66866005D01*
X220202994Y-66866004D01*
X220151300Y-66839664D01*
X220041639Y-66783788D01*
X220041636Y-66783787D01*
X219869410Y-66727829D01*
X219690551Y-66699500D01*
X219690546Y-66699500D01*
X219509454Y-66699500D01*
X219509449Y-66699500D01*
X219330589Y-66727829D01*
X219158363Y-66783787D01*
X219158360Y-66783788D01*
X218997002Y-66866006D01*
X218850505Y-66972441D01*
X218850500Y-66972445D01*
X218762681Y-67060265D01*
X218701358Y-67093750D01*
X218631666Y-67088766D01*
X218587319Y-67060265D01*
X218499499Y-66972445D01*
X218499494Y-66972441D01*
X218352997Y-66866006D01*
X218352996Y-66866005D01*
X218352994Y-66866004D01*
X218301300Y-66839664D01*
X218191639Y-66783788D01*
X218191636Y-66783787D01*
X218019410Y-66727829D01*
X217840551Y-66699500D01*
X217840546Y-66699500D01*
X217659454Y-66699500D01*
X217659449Y-66699500D01*
X217480589Y-66727829D01*
X217308363Y-66783787D01*
X217308360Y-66783788D01*
X217147002Y-66866006D01*
X217000505Y-66972441D01*
X217000500Y-66972445D01*
X216872445Y-67100500D01*
X216872441Y-67100505D01*
X216766006Y-67247002D01*
X216683788Y-67408360D01*
X216683787Y-67408363D01*
X216627829Y-67580589D01*
X216599500Y-67759448D01*
X216599500Y-68640551D01*
X216627829Y-68819410D01*
X216683787Y-68991636D01*
X216683788Y-68991639D01*
X216728393Y-69079179D01*
X216762014Y-69145164D01*
X216766006Y-69152997D01*
X216872441Y-69299494D01*
X216872445Y-69299499D01*
X217000502Y-69427556D01*
X217058562Y-69469738D01*
X217095482Y-69496562D01*
X217098384Y-69498670D01*
X217141051Y-69554000D01*
X217149500Y-69598989D01*
X217149500Y-77843796D01*
X217129815Y-77910835D01*
X217077011Y-77956590D01*
X217007853Y-77966534D01*
X216944297Y-77937509D01*
X216937819Y-77931477D01*
X216866930Y-77860588D01*
X216866928Y-77860586D01*
X216726788Y-77758768D01*
X216664690Y-77727128D01*
X216572447Y-77680128D01*
X216572446Y-77680127D01*
X216572445Y-77680127D01*
X216407701Y-77626598D01*
X216407699Y-77626597D01*
X216407698Y-77626597D01*
X216271090Y-77604961D01*
X216236611Y-77599500D01*
X216063389Y-77599500D01*
X216028910Y-77604961D01*
X215892302Y-77626597D01*
X215727552Y-77680128D01*
X215573211Y-77758768D01*
X215517149Y-77799500D01*
X215433072Y-77860586D01*
X215433070Y-77860588D01*
X215433069Y-77860588D01*
X215310588Y-77983069D01*
X215310588Y-77983070D01*
X215310586Y-77983072D01*
X215279851Y-78025375D01*
X215208768Y-78123211D01*
X215130128Y-78277552D01*
X215076597Y-78442302D01*
X215049500Y-78613389D01*
X215049500Y-78786611D01*
X215076598Y-78957701D01*
X215130127Y-79122445D01*
X215208768Y-79276788D01*
X215310586Y-79416928D01*
X215433072Y-79539414D01*
X215573212Y-79641232D01*
X215727555Y-79719873D01*
X215892299Y-79773402D01*
X216063389Y-79800500D01*
X216063390Y-79800500D01*
X216236610Y-79800500D01*
X216236611Y-79800500D01*
X216407701Y-79773402D01*
X216572445Y-79719873D01*
X216726788Y-79641232D01*
X216866928Y-79539414D01*
X216937819Y-79468523D01*
X216957255Y-79457910D01*
X216973989Y-79443410D01*
X216987320Y-79441493D01*
X216999142Y-79435038D01*
X217021228Y-79436617D01*
X217043147Y-79433466D01*
X217055398Y-79439061D01*
X217068834Y-79440022D01*
X217086560Y-79453292D01*
X217106703Y-79462491D01*
X217113985Y-79473822D01*
X217124767Y-79481894D01*
X217132504Y-79502639D01*
X217144477Y-79521269D01*
X217147628Y-79543187D01*
X217149184Y-79547358D01*
X217149500Y-79556204D01*
X217149500Y-79699903D01*
X217129815Y-79766942D01*
X217113181Y-79787584D01*
X216737584Y-80163181D01*
X216676261Y-80196666D01*
X216649903Y-80199500D01*
X214170655Y-80199500D01*
X214103616Y-80179815D01*
X214057861Y-80127011D01*
X214047917Y-80057853D01*
X214052724Y-80037181D01*
X214070940Y-79981118D01*
X214100500Y-79794486D01*
X214100500Y-79005513D01*
X214070940Y-78818881D01*
X214025439Y-78678846D01*
X214012547Y-78639168D01*
X214012545Y-78639165D01*
X214012545Y-78639163D01*
X213952418Y-78521158D01*
X213926760Y-78470801D01*
X213815690Y-78317927D01*
X213682073Y-78184310D01*
X213635286Y-78150317D01*
X213592621Y-78094988D01*
X213586642Y-78025375D01*
X213619248Y-77963580D01*
X213635287Y-77949682D01*
X213682073Y-77915690D01*
X213815690Y-77782073D01*
X213926760Y-77629199D01*
X214012547Y-77460832D01*
X214070940Y-77281118D01*
X214075789Y-77250500D01*
X214100500Y-77094486D01*
X214100500Y-76305513D01*
X214070940Y-76118881D01*
X214035656Y-76010289D01*
X214012547Y-75939168D01*
X214012545Y-75939165D01*
X214012545Y-75939163D01*
X213967290Y-75850347D01*
X213926760Y-75770801D01*
X213815690Y-75617927D01*
X213682073Y-75484310D01*
X213529199Y-75373240D01*
X213516703Y-75366873D01*
X213360836Y-75287454D01*
X213181118Y-75229059D01*
X212994486Y-75199500D01*
X212994481Y-75199500D01*
X212805519Y-75199500D01*
X212805514Y-75199500D01*
X212618881Y-75229059D01*
X212439163Y-75287454D01*
X212270800Y-75373240D01*
X212203983Y-75421786D01*
X212117927Y-75484310D01*
X212117925Y-75484312D01*
X212117924Y-75484312D01*
X211984312Y-75617924D01*
X211984312Y-75617925D01*
X211984310Y-75617927D01*
X211959367Y-75652258D01*
X211873240Y-75770800D01*
X211821616Y-75872118D01*
X211773641Y-75922914D01*
X211705820Y-75939709D01*
X211639685Y-75917171D01*
X211623450Y-75903504D01*
X211286819Y-75566873D01*
X211253334Y-75505550D01*
X211250500Y-75479192D01*
X211250500Y-71113389D01*
X213499500Y-71113389D01*
X213499500Y-71286611D01*
X213499991Y-71289711D01*
X213520845Y-71421382D01*
X213526598Y-71457701D01*
X213580127Y-71622445D01*
X213658768Y-71776788D01*
X213760586Y-71916928D01*
X213883072Y-72039414D01*
X214023212Y-72141232D01*
X214177555Y-72219873D01*
X214342299Y-72273402D01*
X214513389Y-72300500D01*
X214513390Y-72300500D01*
X214686610Y-72300500D01*
X214686611Y-72300500D01*
X214857701Y-72273402D01*
X215022445Y-72219873D01*
X215176788Y-72141232D01*
X215316928Y-72039414D01*
X215439414Y-71916928D01*
X215541232Y-71776788D01*
X215619873Y-71622445D01*
X215673402Y-71457701D01*
X215700500Y-71286611D01*
X215700500Y-71113389D01*
X215673402Y-70942299D01*
X215619873Y-70777555D01*
X215541232Y-70623212D01*
X215439414Y-70483072D01*
X215316928Y-70360586D01*
X215176788Y-70258768D01*
X215085257Y-70212131D01*
X215022447Y-70180128D01*
X215022446Y-70180127D01*
X215022445Y-70180127D01*
X214857701Y-70126598D01*
X214857699Y-70126597D01*
X214857698Y-70126597D01*
X214726271Y-70105781D01*
X214686611Y-70099500D01*
X214513389Y-70099500D01*
X214473728Y-70105781D01*
X214342302Y-70126597D01*
X214177552Y-70180128D01*
X214023211Y-70258768D01*
X213943256Y-70316859D01*
X213883072Y-70360586D01*
X213883070Y-70360588D01*
X213883069Y-70360588D01*
X213760588Y-70483069D01*
X213760588Y-70483070D01*
X213760586Y-70483072D01*
X213739994Y-70511415D01*
X213658768Y-70623211D01*
X213580128Y-70777552D01*
X213526597Y-70942302D01*
X213503521Y-71087999D01*
X213499500Y-71113389D01*
X211250500Y-71113389D01*
X211250500Y-67759448D01*
X211549500Y-67759448D01*
X211549500Y-68640551D01*
X211577829Y-68819410D01*
X211633787Y-68991636D01*
X211633788Y-68991639D01*
X211678393Y-69079179D01*
X211712014Y-69145164D01*
X211716006Y-69152997D01*
X211822441Y-69299494D01*
X211822445Y-69299499D01*
X211950500Y-69427554D01*
X211950505Y-69427558D01*
X212064376Y-69510289D01*
X212097006Y-69533996D01*
X212202484Y-69587740D01*
X212258360Y-69616211D01*
X212258363Y-69616212D01*
X212344476Y-69644191D01*
X212430591Y-69672171D01*
X212513429Y-69685291D01*
X212609449Y-69700500D01*
X212609454Y-69700500D01*
X212790551Y-69700500D01*
X212877259Y-69686765D01*
X212969409Y-69672171D01*
X213141639Y-69616211D01*
X213302994Y-69533996D01*
X213449501Y-69427553D01*
X213577553Y-69299501D01*
X213683996Y-69152994D01*
X213766211Y-68991639D01*
X213822171Y-68819409D01*
X213842892Y-68688583D01*
X213850500Y-68640551D01*
X213850500Y-67759448D01*
X213831600Y-67640122D01*
X213822171Y-67580591D01*
X213792643Y-67489711D01*
X213766212Y-67408363D01*
X213766211Y-67408360D01*
X213724051Y-67325618D01*
X213683996Y-67247006D01*
X213670396Y-67228287D01*
X213577558Y-67100505D01*
X213577554Y-67100500D01*
X213449499Y-66972445D01*
X213449494Y-66972441D01*
X213302997Y-66866006D01*
X213302996Y-66866005D01*
X213302994Y-66866004D01*
X213251300Y-66839664D01*
X213141639Y-66783788D01*
X213141636Y-66783787D01*
X212969410Y-66727829D01*
X212790551Y-66699500D01*
X212790546Y-66699500D01*
X212609454Y-66699500D01*
X212609449Y-66699500D01*
X212430589Y-66727829D01*
X212258363Y-66783787D01*
X212258360Y-66783788D01*
X212097002Y-66866006D01*
X211950505Y-66972441D01*
X211950500Y-66972445D01*
X211822445Y-67100500D01*
X211822441Y-67100505D01*
X211716006Y-67247002D01*
X211633788Y-67408360D01*
X211633787Y-67408363D01*
X211577829Y-67580589D01*
X211549500Y-67759448D01*
X211250500Y-67759448D01*
X211250500Y-62335928D01*
X211225502Y-62210261D01*
X211225501Y-62210260D01*
X211225501Y-62210256D01*
X211186665Y-62116498D01*
X211176465Y-62091872D01*
X211158289Y-62064671D01*
X211158287Y-62064667D01*
X211105278Y-61985332D01*
X211105272Y-61985325D01*
X210722694Y-61602747D01*
X210641100Y-61521153D01*
X214354500Y-61521153D01*
X214354500Y-61678846D01*
X214385261Y-61833489D01*
X214385264Y-61833501D01*
X214445602Y-61979172D01*
X214445609Y-61979185D01*
X214533210Y-62110288D01*
X214533213Y-62110292D01*
X214644707Y-62221786D01*
X214644711Y-62221789D01*
X214775814Y-62309390D01*
X214775827Y-62309397D01*
X214839887Y-62335931D01*
X214921503Y-62369737D01*
X215033024Y-62391920D01*
X215076153Y-62400499D01*
X215076156Y-62400500D01*
X215076158Y-62400500D01*
X215233844Y-62400500D01*
X215233845Y-62400499D01*
X215388497Y-62369737D01*
X215534179Y-62309394D01*
X215665289Y-62221789D01*
X215776789Y-62110289D01*
X215864394Y-61979179D01*
X215867854Y-61970827D01*
X215878067Y-61946166D01*
X215924737Y-61833497D01*
X215955500Y-61678842D01*
X215955500Y-61521158D01*
X215955500Y-61521155D01*
X215955499Y-61521153D01*
X215929875Y-61392335D01*
X215924737Y-61366503D01*
X215918778Y-61352116D01*
X215864397Y-61220827D01*
X215864390Y-61220814D01*
X215776789Y-61089711D01*
X215776786Y-61089707D01*
X215665292Y-60978213D01*
X215665288Y-60978210D01*
X215534185Y-60890609D01*
X215534172Y-60890602D01*
X215388501Y-60830264D01*
X215388489Y-60830261D01*
X215233845Y-60799500D01*
X215233842Y-60799500D01*
X215076158Y-60799500D01*
X215076155Y-60799500D01*
X214921510Y-60830261D01*
X214921498Y-60830264D01*
X214775827Y-60890602D01*
X214775814Y-60890609D01*
X214644711Y-60978210D01*
X214644707Y-60978213D01*
X214533213Y-61089707D01*
X214533210Y-61089711D01*
X214445609Y-61220814D01*
X214445602Y-61220827D01*
X214385264Y-61366498D01*
X214385261Y-61366510D01*
X214354500Y-61521153D01*
X210641100Y-61521153D01*
X208336213Y-59216267D01*
X208302728Y-59154944D01*
X208302307Y-59152928D01*
X208285117Y-59066503D01*
X208257778Y-59000500D01*
X208224777Y-58920827D01*
X208224770Y-58920814D01*
X208137169Y-58789711D01*
X208137166Y-58789707D01*
X208025672Y-58678213D01*
X208025668Y-58678210D01*
X207894565Y-58590609D01*
X207894552Y-58590602D01*
X207776321Y-58541630D01*
X207769271Y-58535949D01*
X207760498Y-58533710D01*
X207742490Y-58514367D01*
X207721917Y-58497789D01*
X207719058Y-58489199D01*
X207712888Y-58482572D01*
X207708196Y-58456566D01*
X207699852Y-58431495D01*
X207701718Y-58421153D01*
X214314500Y-58421153D01*
X214314500Y-58578846D01*
X214345261Y-58733489D01*
X214345264Y-58733501D01*
X214405602Y-58879172D01*
X214405609Y-58879185D01*
X214493210Y-59010288D01*
X214493213Y-59010292D01*
X214604707Y-59121786D01*
X214604711Y-59121789D01*
X214735814Y-59209390D01*
X214735827Y-59209397D01*
X214881498Y-59269735D01*
X214881503Y-59269737D01*
X215036153Y-59300499D01*
X215036156Y-59300500D01*
X215036158Y-59300500D01*
X215193844Y-59300500D01*
X215193845Y-59300499D01*
X215348497Y-59269737D01*
X215466592Y-59220821D01*
X215494172Y-59209397D01*
X215494172Y-59209396D01*
X215494179Y-59209394D01*
X215625289Y-59121789D01*
X215736789Y-59010289D01*
X215824394Y-58879179D01*
X215828221Y-58869941D01*
X215844655Y-58830264D01*
X215884737Y-58733497D01*
X215915500Y-58578842D01*
X215915500Y-58421158D01*
X215915500Y-58421155D01*
X215915499Y-58421153D01*
X215909422Y-58390602D01*
X215884737Y-58266503D01*
X215884735Y-58266498D01*
X215824397Y-58120827D01*
X215824390Y-58120814D01*
X215736789Y-57989711D01*
X215736786Y-57989707D01*
X215625292Y-57878213D01*
X215625288Y-57878210D01*
X215494185Y-57790609D01*
X215494172Y-57790602D01*
X215348501Y-57730264D01*
X215348489Y-57730261D01*
X215193845Y-57699500D01*
X215193842Y-57699500D01*
X215036158Y-57699500D01*
X215036155Y-57699500D01*
X214881510Y-57730261D01*
X214881498Y-57730264D01*
X214735827Y-57790602D01*
X214735814Y-57790609D01*
X214604711Y-57878210D01*
X214604707Y-57878213D01*
X214493213Y-57989707D01*
X214493210Y-57989711D01*
X214405609Y-58120814D01*
X214405602Y-58120827D01*
X214345264Y-58266498D01*
X214345261Y-58266510D01*
X214314500Y-58421153D01*
X207701718Y-58421153D01*
X207701763Y-58420902D01*
X207700484Y-58413812D01*
X207709213Y-58379615D01*
X207709394Y-58379179D01*
X207769737Y-58233497D01*
X207800500Y-58078842D01*
X207800500Y-57921158D01*
X207800500Y-57921155D01*
X207800499Y-57921153D01*
X207782204Y-57829179D01*
X207769737Y-57766503D01*
X207769735Y-57766498D01*
X207709397Y-57620828D01*
X207709396Y-57620827D01*
X207709394Y-57620821D01*
X207671396Y-57563953D01*
X207650520Y-57497276D01*
X207650500Y-57495064D01*
X207650500Y-57235928D01*
X207625502Y-57110261D01*
X207625501Y-57110260D01*
X207625501Y-57110256D01*
X207576465Y-56991873D01*
X207564212Y-56973535D01*
X207505276Y-56885330D01*
X207505274Y-56885327D01*
X206864673Y-56244726D01*
X206864669Y-56244723D01*
X206758127Y-56173535D01*
X206748960Y-56169738D01*
X206639744Y-56124499D01*
X206639738Y-56124497D01*
X206514071Y-56099500D01*
X206514069Y-56099500D01*
X202585931Y-56099500D01*
X202585929Y-56099500D01*
X202460261Y-56124497D01*
X202460255Y-56124499D01*
X202341874Y-56173534D01*
X202235326Y-56244726D01*
X202235325Y-56244727D01*
X201897761Y-56582292D01*
X201836438Y-56615777D01*
X201766746Y-56610793D01*
X201722399Y-56582292D01*
X201304833Y-56164726D01*
X201304829Y-56164723D01*
X201198287Y-56093535D01*
X201079904Y-56044499D01*
X201079898Y-56044497D01*
X200954231Y-56019500D01*
X200954229Y-56019500D01*
X187065931Y-56019500D01*
X187065929Y-56019500D01*
X186940261Y-56044497D01*
X186940251Y-56044500D01*
X186821952Y-56093501D01*
X186752483Y-56100970D01*
X186690004Y-56069694D01*
X186654352Y-56009605D01*
X186650500Y-55978940D01*
X186650500Y-55871155D01*
X186650499Y-55871153D01*
X186632204Y-55779179D01*
X186619737Y-55716503D01*
X186580102Y-55620814D01*
X186559397Y-55570827D01*
X186559390Y-55570814D01*
X186471789Y-55439711D01*
X186471786Y-55439707D01*
X186360292Y-55328213D01*
X186360288Y-55328210D01*
X186349727Y-55321153D01*
X214214500Y-55321153D01*
X214214500Y-55478846D01*
X214245261Y-55633489D01*
X214245264Y-55633501D01*
X214305602Y-55779172D01*
X214305609Y-55779185D01*
X214393210Y-55910288D01*
X214393213Y-55910292D01*
X214504707Y-56021786D01*
X214504711Y-56021789D01*
X214635814Y-56109390D01*
X214635827Y-56109397D01*
X214769398Y-56164723D01*
X214781503Y-56169737D01*
X214936153Y-56200499D01*
X214936156Y-56200500D01*
X214936158Y-56200500D01*
X215093844Y-56200500D01*
X215093845Y-56200499D01*
X215248497Y-56169737D01*
X215394179Y-56109394D01*
X215525289Y-56021789D01*
X215636789Y-55910289D01*
X215724394Y-55779179D01*
X215784737Y-55633497D01*
X215815500Y-55478842D01*
X215815500Y-55321158D01*
X215815500Y-55321155D01*
X215815499Y-55321153D01*
X215809422Y-55290602D01*
X215784737Y-55166503D01*
X215777694Y-55149500D01*
X215724397Y-55020827D01*
X215724390Y-55020814D01*
X215636789Y-54889711D01*
X215636786Y-54889707D01*
X215525292Y-54778213D01*
X215525288Y-54778210D01*
X215394185Y-54690609D01*
X215394172Y-54690602D01*
X215248501Y-54630264D01*
X215248489Y-54630261D01*
X215093845Y-54599500D01*
X215093842Y-54599500D01*
X214936158Y-54599500D01*
X214936155Y-54599500D01*
X214781510Y-54630261D01*
X214781498Y-54630264D01*
X214635827Y-54690602D01*
X214635814Y-54690609D01*
X214504711Y-54778210D01*
X214504707Y-54778213D01*
X214393213Y-54889707D01*
X214393210Y-54889711D01*
X214305609Y-55020814D01*
X214305602Y-55020827D01*
X214245264Y-55166498D01*
X214245261Y-55166510D01*
X214214500Y-55321153D01*
X186349727Y-55321153D01*
X186229185Y-55240609D01*
X186229172Y-55240602D01*
X186083501Y-55180264D01*
X186083489Y-55180261D01*
X185928845Y-55149500D01*
X185928842Y-55149500D01*
X185771158Y-55149500D01*
X185771155Y-55149500D01*
X185616510Y-55180261D01*
X185616498Y-55180264D01*
X185470827Y-55240602D01*
X185470814Y-55240609D01*
X185339711Y-55328210D01*
X185339707Y-55328213D01*
X185228213Y-55439707D01*
X185228210Y-55439711D01*
X185140609Y-55570814D01*
X185140602Y-55570827D01*
X185080264Y-55716498D01*
X185080261Y-55716510D01*
X185049500Y-55871153D01*
X185049500Y-56028846D01*
X185080261Y-56183489D01*
X185080264Y-56183501D01*
X185140602Y-56329172D01*
X185140609Y-56329185D01*
X185228210Y-56460288D01*
X185228213Y-56460292D01*
X185339707Y-56571786D01*
X185339711Y-56571789D01*
X185470814Y-56659390D01*
X185470827Y-56659397D01*
X185616498Y-56719735D01*
X185616503Y-56719737D01*
X185771153Y-56750499D01*
X185771156Y-56750500D01*
X185830191Y-56750500D01*
X185897230Y-56770185D01*
X185942985Y-56822989D01*
X185952929Y-56892147D01*
X185923904Y-56955703D01*
X185917872Y-56962181D01*
X184761324Y-58118728D01*
X182694726Y-60185326D01*
X182642114Y-60264068D01*
X182642112Y-60264070D01*
X182623539Y-60291864D01*
X182623533Y-60291875D01*
X182574499Y-60410255D01*
X182574497Y-60410261D01*
X182549500Y-60535928D01*
X182549500Y-64864071D01*
X182567839Y-64956263D01*
X182567839Y-64956264D01*
X182574497Y-64989736D01*
X182574499Y-64989744D01*
X182587772Y-65021789D01*
X182623535Y-65108127D01*
X182685255Y-65200499D01*
X182694726Y-65214673D01*
X183985327Y-66505274D01*
X184038132Y-66540557D01*
X184051517Y-66549500D01*
X184091873Y-66576465D01*
X184210256Y-66625501D01*
X184211469Y-66625742D01*
X184218447Y-66629125D01*
X184241730Y-66650257D01*
X184266210Y-66669984D01*
X184267398Y-66673553D01*
X184270185Y-66676083D01*
X184278347Y-66706450D01*
X184288275Y-66736278D01*
X184287344Y-66739923D01*
X184288321Y-66743557D01*
X184278772Y-66773508D01*
X184270996Y-66803977D01*
X184267711Y-66808205D01*
X184267099Y-66810126D01*
X184264639Y-66812160D01*
X184252038Y-66828382D01*
X184240715Y-66839705D01*
X184240710Y-66839711D01*
X184153109Y-66970814D01*
X184153102Y-66970827D01*
X184092764Y-67116498D01*
X184092761Y-67116510D01*
X184062000Y-67271153D01*
X184062000Y-67428846D01*
X184092761Y-67583489D01*
X184092764Y-67583501D01*
X184153102Y-67729172D01*
X184153109Y-67729185D01*
X184240710Y-67860288D01*
X184240713Y-67860292D01*
X184352207Y-67971786D01*
X184352211Y-67971789D01*
X184483314Y-68059390D01*
X184483327Y-68059397D01*
X184628998Y-68119735D01*
X184629003Y-68119737D01*
X184744616Y-68142734D01*
X184783653Y-68150499D01*
X184783656Y-68150500D01*
X184783658Y-68150500D01*
X184941344Y-68150500D01*
X184941345Y-68150499D01*
X185095997Y-68119737D01*
X185127219Y-68106804D01*
X185196684Y-68099335D01*
X185259164Y-68130608D01*
X185289020Y-68178454D01*
X185290432Y-68177870D01*
X185353102Y-68329172D01*
X185353109Y-68329185D01*
X185440710Y-68460288D01*
X185440713Y-68460292D01*
X185552207Y-68571786D01*
X185552211Y-68571789D01*
X185683314Y-68659390D01*
X185683327Y-68659397D01*
X185822598Y-68717084D01*
X185829003Y-68719737D01*
X185983653Y-68750499D01*
X185983656Y-68750500D01*
X185983658Y-68750500D01*
X186141344Y-68750500D01*
X186141345Y-68750499D01*
X186295997Y-68719737D01*
X186441679Y-68659394D01*
X186572789Y-68571789D01*
X186684289Y-68460289D01*
X186771894Y-68329179D01*
X186771895Y-68329176D01*
X186771897Y-68329173D01*
X186812444Y-68231282D01*
X186817447Y-68219202D01*
X186861287Y-68164799D01*
X186927581Y-68142734D01*
X186956197Y-68145037D01*
X186983658Y-68150500D01*
X187141344Y-68150500D01*
X187141345Y-68150499D01*
X187295997Y-68119737D01*
X187441679Y-68059394D01*
X187572789Y-67971789D01*
X187684289Y-67860289D01*
X187771894Y-67729179D01*
X187832237Y-67583497D01*
X187863000Y-67428842D01*
X187863000Y-67271158D01*
X187863000Y-67271155D01*
X187862999Y-67271153D01*
X187844704Y-67179179D01*
X187832237Y-67116503D01*
X187829745Y-67110487D01*
X187771897Y-66970827D01*
X187771890Y-66970814D01*
X187684289Y-66839711D01*
X187684286Y-66839707D01*
X187572792Y-66728213D01*
X187572788Y-66728210D01*
X187441685Y-66640609D01*
X187441672Y-66640602D01*
X187296001Y-66580264D01*
X187295989Y-66580261D01*
X187141345Y-66549500D01*
X187141342Y-66549500D01*
X186983658Y-66549500D01*
X186980348Y-66549500D01*
X186949892Y-66540557D01*
X186918989Y-66533255D01*
X186916602Y-66530782D01*
X186913309Y-66529815D01*
X186892527Y-66505832D01*
X186870473Y-66482976D01*
X186868928Y-66478596D01*
X186867554Y-66477011D01*
X186858731Y-66449693D01*
X186839849Y-66354772D01*
X186834805Y-66329414D01*
X186841032Y-66259824D01*
X186853314Y-66236340D01*
X186916157Y-66142291D01*
X186976500Y-65996609D01*
X187007263Y-65841954D01*
X187007263Y-65684270D01*
X187007263Y-65684267D01*
X187007262Y-65684265D01*
X186986359Y-65579179D01*
X186976500Y-65529615D01*
X186936684Y-65433489D01*
X186916160Y-65383939D01*
X186916153Y-65383926D01*
X186828552Y-65252823D01*
X186828549Y-65252819D01*
X186717055Y-65141325D01*
X186717047Y-65141319D01*
X186585944Y-65053719D01*
X186580569Y-65050846D01*
X186581033Y-65049976D01*
X186547539Y-65027594D01*
X185632125Y-64112180D01*
X185621512Y-64092743D01*
X185607012Y-64076010D01*
X185605095Y-64062678D01*
X185598640Y-64050857D01*
X185600219Y-64028770D01*
X185597068Y-64006852D01*
X185602663Y-63994600D01*
X185603624Y-63981165D01*
X185616894Y-63963438D01*
X185626093Y-63943296D01*
X185637424Y-63936013D01*
X185645496Y-63925232D01*
X185666241Y-63917494D01*
X185684871Y-63905522D01*
X185706789Y-63902370D01*
X185710960Y-63900815D01*
X185719792Y-63900499D01*
X185801414Y-63900499D01*
X185801420Y-63900500D01*
X185826082Y-63900500D01*
X185998581Y-63900500D01*
X185998585Y-63900499D01*
X186526078Y-63900499D01*
X186526082Y-63900500D01*
X186673918Y-63900500D01*
X186673922Y-63900499D01*
X186897872Y-63900499D01*
X186957483Y-63894091D01*
X187092331Y-63843796D01*
X187207546Y-63757546D01*
X187293796Y-63642331D01*
X187344091Y-63507483D01*
X187350500Y-63447873D01*
X187350500Y-62400500D01*
X187350500Y-62326082D01*
X187350500Y-62316093D01*
X187350499Y-62316079D01*
X187350499Y-61723922D01*
X187350500Y-61723918D01*
X187350500Y-61576082D01*
X187350499Y-61576077D01*
X187350499Y-61352128D01*
X187344091Y-61292517D01*
X187336123Y-61271155D01*
X187293797Y-61157671D01*
X187293793Y-61157664D01*
X187207547Y-61042455D01*
X187207544Y-61042452D01*
X187092335Y-60956206D01*
X187092328Y-60956202D01*
X186957482Y-60905908D01*
X186957483Y-60905908D01*
X186897883Y-60899501D01*
X186897881Y-60899500D01*
X186897873Y-60899500D01*
X186673918Y-60899500D01*
X186526082Y-60899500D01*
X186526080Y-60899500D01*
X185973921Y-60899500D01*
X185973918Y-60899500D01*
X185826082Y-60899500D01*
X185826077Y-60899500D01*
X185602130Y-60899500D01*
X185602123Y-60899501D01*
X185542516Y-60905908D01*
X185407671Y-60956202D01*
X185407664Y-60956206D01*
X185292455Y-61042452D01*
X185292452Y-61042455D01*
X185206206Y-61157664D01*
X185206202Y-61157671D01*
X185155908Y-61292517D01*
X185149501Y-61352116D01*
X185149501Y-61352123D01*
X185149500Y-61352135D01*
X185149500Y-63330192D01*
X185129815Y-63397231D01*
X185077011Y-63442986D01*
X185007853Y-63452930D01*
X184944297Y-63423905D01*
X184937819Y-63417873D01*
X184686819Y-63166873D01*
X184653334Y-63105550D01*
X184650500Y-63079192D01*
X184650500Y-60827914D01*
X184670185Y-60760875D01*
X184686819Y-60740233D01*
X187420233Y-58006819D01*
X187481556Y-57973334D01*
X187507914Y-57970500D01*
X191275284Y-57970500D01*
X191342323Y-57990185D01*
X191388078Y-58042989D01*
X191398022Y-58112147D01*
X191396901Y-58118691D01*
X191396411Y-58121153D01*
X191396411Y-58278846D01*
X191427172Y-58433489D01*
X191427175Y-58433501D01*
X191487513Y-58579172D01*
X191487520Y-58579185D01*
X191575121Y-58710288D01*
X191575124Y-58710292D01*
X191686618Y-58821786D01*
X191686622Y-58821789D01*
X191817725Y-58909390D01*
X191817738Y-58909397D01*
X191963409Y-58969735D01*
X191963414Y-58969737D01*
X192118064Y-59000499D01*
X192118067Y-59000500D01*
X192118069Y-59000500D01*
X192275755Y-59000500D01*
X192275756Y-59000499D01*
X192430408Y-58969737D01*
X192548503Y-58920821D01*
X192576083Y-58909397D01*
X192576083Y-58909396D01*
X192576090Y-58909394D01*
X192707200Y-58821789D01*
X192818700Y-58710289D01*
X192906305Y-58579179D01*
X192966648Y-58433497D01*
X192997411Y-58278842D01*
X192997411Y-58121158D01*
X192997411Y-58121155D01*
X192997410Y-58121153D01*
X192996921Y-58118691D01*
X192997038Y-58117375D01*
X192996814Y-58115093D01*
X192997246Y-58115050D01*
X193003148Y-58049099D01*
X193046011Y-57993922D01*
X193111901Y-57970678D01*
X193118538Y-57970500D01*
X200115986Y-57970500D01*
X200183025Y-57990185D01*
X200184830Y-57991366D01*
X200241742Y-58029394D01*
X200241744Y-58029395D01*
X200241748Y-58029397D01*
X200380377Y-58086818D01*
X200387424Y-58089737D01*
X200486246Y-58109394D01*
X200520612Y-58116230D01*
X200548735Y-58130940D01*
X200577624Y-58144134D01*
X200579481Y-58147023D01*
X200582523Y-58148615D01*
X200598229Y-58176197D01*
X200615398Y-58202912D01*
X200616058Y-58207506D01*
X200617097Y-58209330D01*
X200620421Y-58237847D01*
X200620421Y-58438980D01*
X200600736Y-58506019D01*
X200547932Y-58551774D01*
X200478774Y-58561718D01*
X200415218Y-58532693D01*
X200408740Y-58526661D01*
X200360292Y-58478213D01*
X200360288Y-58478210D01*
X200229185Y-58390609D01*
X200229172Y-58390602D01*
X200083501Y-58330264D01*
X200083489Y-58330261D01*
X199928845Y-58299500D01*
X199928842Y-58299500D01*
X199771158Y-58299500D01*
X199771155Y-58299500D01*
X199616510Y-58330261D01*
X199616498Y-58330264D01*
X199470827Y-58390602D01*
X199470814Y-58390609D01*
X199339711Y-58478210D01*
X199339707Y-58478213D01*
X199228213Y-58589707D01*
X199228210Y-58589711D01*
X199140609Y-58720814D01*
X199140602Y-58720827D01*
X199080264Y-58866498D01*
X199080261Y-58866510D01*
X199049500Y-59021153D01*
X199049500Y-59178846D01*
X199080261Y-59333489D01*
X199080264Y-59333501D01*
X199140602Y-59479172D01*
X199140609Y-59479185D01*
X199228210Y-59610288D01*
X199228213Y-59610292D01*
X199339707Y-59721786D01*
X199339711Y-59721789D01*
X199470814Y-59809390D01*
X199470827Y-59809397D01*
X199616498Y-59869735D01*
X199616503Y-59869737D01*
X199771153Y-59900499D01*
X199771156Y-59900500D01*
X199771158Y-59900500D01*
X199928844Y-59900500D01*
X199928845Y-59900499D01*
X200083497Y-59869737D01*
X200229179Y-59809394D01*
X200360289Y-59721789D01*
X200374414Y-59707664D01*
X200408740Y-59673339D01*
X200470063Y-59639854D01*
X200539755Y-59644838D01*
X200595688Y-59686710D01*
X200620105Y-59752174D01*
X200620421Y-59761020D01*
X200620421Y-60253219D01*
X200600736Y-60320258D01*
X200547932Y-60366013D01*
X200478774Y-60375957D01*
X200427531Y-60356321D01*
X200329190Y-60290612D01*
X200329172Y-60290602D01*
X200183501Y-60230264D01*
X200183489Y-60230261D01*
X200028845Y-60199500D01*
X200028842Y-60199500D01*
X199871158Y-60199500D01*
X199871155Y-60199500D01*
X199716510Y-60230261D01*
X199716498Y-60230264D01*
X199570827Y-60290602D01*
X199570814Y-60290609D01*
X199439711Y-60378210D01*
X199439707Y-60378213D01*
X199328213Y-60489707D01*
X199328210Y-60489711D01*
X199240609Y-60620814D01*
X199240602Y-60620827D01*
X199180264Y-60766498D01*
X199180261Y-60766510D01*
X199149500Y-60921153D01*
X199149500Y-61078846D01*
X199180261Y-61233489D01*
X199180264Y-61233501D01*
X199240602Y-61379172D01*
X199240609Y-61379185D01*
X199328210Y-61510288D01*
X199328213Y-61510292D01*
X199439707Y-61621786D01*
X199439711Y-61621789D01*
X199570814Y-61709390D01*
X199570827Y-61709397D01*
X199661079Y-61746780D01*
X199716503Y-61769737D01*
X199829160Y-61792146D01*
X199871153Y-61800499D01*
X199871156Y-61800500D01*
X199871158Y-61800500D01*
X200028844Y-61800500D01*
X200028845Y-61800499D01*
X200183497Y-61769737D01*
X200329179Y-61709394D01*
X200417320Y-61650500D01*
X200427530Y-61643678D01*
X200437230Y-61640640D01*
X200444910Y-61633986D01*
X200470007Y-61630377D01*
X200494207Y-61622800D01*
X200504007Y-61625488D01*
X200514068Y-61624042D01*
X200537134Y-61634576D01*
X200561587Y-61641284D01*
X200568378Y-61648844D01*
X200577624Y-61653067D01*
X200591333Y-61674399D01*
X200608278Y-61693263D01*
X200610909Y-61704860D01*
X200615398Y-61711845D01*
X200620421Y-61746780D01*
X200620421Y-61808269D01*
X200600736Y-61875308D01*
X200584102Y-61895951D01*
X200497067Y-61982985D01*
X200435743Y-62016469D01*
X200433578Y-62016920D01*
X200366508Y-62030261D01*
X200366498Y-62030264D01*
X200220827Y-62090602D01*
X200220814Y-62090609D01*
X200089711Y-62178210D01*
X200089707Y-62178213D01*
X199978213Y-62289707D01*
X199978210Y-62289711D01*
X199890609Y-62420814D01*
X199890602Y-62420827D01*
X199830264Y-62566498D01*
X199830261Y-62566510D01*
X199799500Y-62721153D01*
X199799500Y-62878846D01*
X199830261Y-63033489D01*
X199830264Y-63033501D01*
X199890602Y-63179172D01*
X199890609Y-63179185D01*
X199978210Y-63310288D01*
X199978213Y-63310292D01*
X200089707Y-63421786D01*
X200089711Y-63421789D01*
X200220814Y-63509390D01*
X200220827Y-63509397D01*
X200366498Y-63569735D01*
X200366503Y-63569737D01*
X200516131Y-63599500D01*
X200521153Y-63600499D01*
X200521156Y-63600500D01*
X200521158Y-63600500D01*
X200678844Y-63600500D01*
X200678845Y-63600499D01*
X200833497Y-63569737D01*
X200979179Y-63509394D01*
X201110289Y-63421789D01*
X201218386Y-63313691D01*
X201279707Y-63280208D01*
X201349399Y-63285192D01*
X201393747Y-63313693D01*
X201782984Y-63702929D01*
X201816469Y-63764252D01*
X201816920Y-63766419D01*
X201830261Y-63833489D01*
X201830264Y-63833501D01*
X201890602Y-63979172D01*
X201890609Y-63979185D01*
X201978210Y-64110288D01*
X201978213Y-64110292D01*
X202089707Y-64221786D01*
X202089711Y-64221789D01*
X202220814Y-64309390D01*
X202220827Y-64309397D01*
X202366498Y-64369735D01*
X202366503Y-64369737D01*
X202516131Y-64399500D01*
X202521153Y-64400499D01*
X202521156Y-64400500D01*
X202521158Y-64400500D01*
X202678844Y-64400500D01*
X202678845Y-64400499D01*
X202833497Y-64369737D01*
X202979179Y-64309394D01*
X203110289Y-64221789D01*
X203221789Y-64110289D01*
X203309394Y-63979179D01*
X203369737Y-63833497D01*
X203400500Y-63678842D01*
X203400500Y-63521158D01*
X203400500Y-63521155D01*
X203400499Y-63521153D01*
X203390271Y-63469735D01*
X203369737Y-63366503D01*
X203344628Y-63305884D01*
X203309397Y-63220827D01*
X203309390Y-63220814D01*
X203221789Y-63089711D01*
X203221786Y-63089707D01*
X203110292Y-62978213D01*
X203110288Y-62978210D01*
X202979185Y-62890609D01*
X202979172Y-62890602D01*
X202833501Y-62830264D01*
X202833489Y-62830261D01*
X202766419Y-62816920D01*
X202749662Y-62808155D01*
X202731183Y-62804135D01*
X202706141Y-62785389D01*
X202704508Y-62784535D01*
X202702988Y-62783043D01*
X202536816Y-62616871D01*
X202503334Y-62555550D01*
X202500500Y-62529192D01*
X202500500Y-62074499D01*
X202520185Y-62007460D01*
X202572989Y-61961705D01*
X202624500Y-61950499D01*
X204075500Y-61950499D01*
X204142539Y-61970184D01*
X204188294Y-62022988D01*
X204199500Y-62074499D01*
X204199500Y-64713330D01*
X204199499Y-64713348D01*
X204199499Y-64879054D01*
X204199498Y-64879054D01*
X204211656Y-64924427D01*
X204240423Y-65031785D01*
X204253086Y-65053718D01*
X204303662Y-65141319D01*
X204319481Y-65168717D01*
X204438349Y-65287585D01*
X204438355Y-65287590D01*
X205294172Y-66143407D01*
X205327657Y-66204730D01*
X205322673Y-66274422D01*
X205280801Y-66330355D01*
X205215337Y-66354772D01*
X205193236Y-66354377D01*
X205147883Y-66349501D01*
X205147881Y-66349500D01*
X205147873Y-66349500D01*
X205147864Y-66349500D01*
X202752129Y-66349500D01*
X202752123Y-66349501D01*
X202692516Y-66355908D01*
X202557671Y-66406202D01*
X202557664Y-66406206D01*
X202442455Y-66492452D01*
X202377633Y-66579043D01*
X202321699Y-66620913D01*
X202252007Y-66625897D01*
X202190685Y-66592411D01*
X202163806Y-66552183D01*
X202109397Y-66420827D01*
X202109390Y-66420814D01*
X202021789Y-66289711D01*
X202021786Y-66289707D01*
X201910292Y-66178213D01*
X201910288Y-66178210D01*
X201779185Y-66090609D01*
X201779172Y-66090602D01*
X201633501Y-66030264D01*
X201633489Y-66030261D01*
X201478845Y-65999500D01*
X201478842Y-65999500D01*
X201321158Y-65999500D01*
X201321155Y-65999500D01*
X201166510Y-66030261D01*
X201166498Y-66030264D01*
X201020827Y-66090602D01*
X201020814Y-66090609D01*
X200889711Y-66178210D01*
X200889707Y-66178213D01*
X200778213Y-66289707D01*
X200778206Y-66289716D01*
X200771545Y-66299684D01*
X200717930Y-66344485D01*
X200648604Y-66353188D01*
X200585579Y-66323029D01*
X200553887Y-66278238D01*
X200552306Y-66274422D01*
X200534016Y-66230264D01*
X200509397Y-66170826D01*
X200509390Y-66170814D01*
X200421789Y-66039711D01*
X200421786Y-66039707D01*
X200310292Y-65928213D01*
X200310288Y-65928210D01*
X200179185Y-65840609D01*
X200179172Y-65840602D01*
X200033501Y-65780264D01*
X200033489Y-65780261D01*
X199878845Y-65749500D01*
X199878842Y-65749500D01*
X199721158Y-65749500D01*
X199721155Y-65749500D01*
X199566510Y-65780261D01*
X199566498Y-65780264D01*
X199420827Y-65840602D01*
X199420814Y-65840609D01*
X199289711Y-65928210D01*
X199289707Y-65928213D01*
X199178213Y-66039707D01*
X199178210Y-66039711D01*
X199090609Y-66170814D01*
X199090602Y-66170827D01*
X199030264Y-66316498D01*
X199030261Y-66316508D01*
X199003769Y-66449692D01*
X198971384Y-66511603D01*
X198910668Y-66546177D01*
X198882152Y-66549500D01*
X197135929Y-66549500D01*
X197050454Y-66566503D01*
X197034196Y-66569737D01*
X197016199Y-66573316D01*
X197010255Y-66574499D01*
X196891874Y-66623534D01*
X196785326Y-66694726D01*
X195591831Y-67888221D01*
X195591828Y-67888226D01*
X195527572Y-67984393D01*
X195527570Y-67984396D01*
X195520643Y-67994761D01*
X195520639Y-67994768D01*
X195471603Y-68113152D01*
X195471603Y-68113153D01*
X195453156Y-68205885D01*
X195434643Y-68250580D01*
X195387712Y-68320819D01*
X195387707Y-68320828D01*
X195327369Y-68466498D01*
X195327366Y-68466510D01*
X195296605Y-68621153D01*
X195296605Y-68778846D01*
X195327366Y-68933489D01*
X195327369Y-68933501D01*
X195387707Y-69079172D01*
X195387714Y-69079185D01*
X195475315Y-69210288D01*
X195475318Y-69210292D01*
X195586812Y-69321786D01*
X195586816Y-69321789D01*
X195717919Y-69409390D01*
X195717932Y-69409397D01*
X195863603Y-69469735D01*
X195863608Y-69469737D01*
X196009063Y-69498670D01*
X196018258Y-69500499D01*
X196018261Y-69500500D01*
X196018263Y-69500500D01*
X196175949Y-69500500D01*
X196175950Y-69500499D01*
X196330602Y-69469737D01*
X196476284Y-69409394D01*
X196607394Y-69321789D01*
X196718894Y-69210289D01*
X196806499Y-69079179D01*
X196866842Y-68933497D01*
X196897605Y-68778842D01*
X196897605Y-68621158D01*
X196897605Y-68621155D01*
X196884636Y-68555963D01*
X196877549Y-68520330D01*
X196883776Y-68450741D01*
X196911482Y-68408462D01*
X197433127Y-67886819D01*
X197494450Y-67853334D01*
X197520808Y-67850500D01*
X201064071Y-67850500D01*
X201148615Y-67833682D01*
X201189744Y-67825501D01*
X201308127Y-67776465D01*
X201355631Y-67744724D01*
X201414669Y-67705277D01*
X201506185Y-67613759D01*
X201509663Y-67610763D01*
X201537461Y-67598159D01*
X201564252Y-67583530D01*
X201566338Y-67583095D01*
X201633497Y-67569737D01*
X201779179Y-67509394D01*
X201910289Y-67421789D01*
X202021789Y-67310289D01*
X202072398Y-67234546D01*
X202126010Y-67189742D01*
X202195334Y-67181035D01*
X202258362Y-67211189D01*
X202295082Y-67270632D01*
X202299500Y-67303438D01*
X202299500Y-69496562D01*
X202279815Y-69563601D01*
X202227011Y-69609356D01*
X202157853Y-69619300D01*
X202094297Y-69590275D01*
X202072399Y-69565454D01*
X202021789Y-69489711D01*
X202021787Y-69489708D01*
X201910292Y-69378213D01*
X201910288Y-69378210D01*
X201779185Y-69290609D01*
X201779172Y-69290602D01*
X201633501Y-69230264D01*
X201633489Y-69230261D01*
X201478845Y-69199500D01*
X201478842Y-69199500D01*
X201321158Y-69199500D01*
X201321155Y-69199500D01*
X201166510Y-69230261D01*
X201166498Y-69230264D01*
X201015307Y-69292889D01*
X200945838Y-69300358D01*
X200883359Y-69269082D01*
X200847707Y-69208993D01*
X200846238Y-69154136D01*
X200861215Y-69078844D01*
X200861215Y-68921155D01*
X200861214Y-68921153D01*
X200830452Y-68766503D01*
X200830450Y-68766498D01*
X200770112Y-68620827D01*
X200770105Y-68620814D01*
X200682504Y-68489711D01*
X200682501Y-68489707D01*
X200571007Y-68378213D01*
X200571003Y-68378210D01*
X200439900Y-68290609D01*
X200439887Y-68290602D01*
X200294216Y-68230264D01*
X200294204Y-68230261D01*
X200139560Y-68199500D01*
X200139557Y-68199500D01*
X199981873Y-68199500D01*
X199981870Y-68199500D01*
X199827225Y-68230261D01*
X199827213Y-68230264D01*
X199681542Y-68290602D01*
X199681529Y-68290609D01*
X199550426Y-68378210D01*
X199550422Y-68378213D01*
X199438928Y-68489707D01*
X199438925Y-68489711D01*
X199351324Y-68620814D01*
X199351317Y-68620827D01*
X199290979Y-68766498D01*
X199290976Y-68766510D01*
X199259026Y-68927132D01*
X199257154Y-68926759D01*
X199234304Y-68983331D01*
X199177265Y-69023684D01*
X199107464Y-69026793D01*
X199089618Y-69020941D01*
X199077369Y-69015867D01*
X198994212Y-68981423D01*
X198994207Y-68981422D01*
X198994204Y-68981421D01*
X198839560Y-68950660D01*
X198839557Y-68950660D01*
X198681873Y-68950660D01*
X198681870Y-68950660D01*
X198527225Y-68981421D01*
X198527213Y-68981424D01*
X198381543Y-69041762D01*
X198376162Y-69044639D01*
X198375142Y-69042730D01*
X198317770Y-69060684D01*
X198250393Y-69042187D01*
X198246689Y-69039806D01*
X198229182Y-69028108D01*
X198229181Y-69028107D01*
X198229179Y-69028106D01*
X198229176Y-69028104D01*
X198229171Y-69028102D01*
X198083501Y-68967764D01*
X198083489Y-68967761D01*
X197928845Y-68937000D01*
X197928842Y-68937000D01*
X197771158Y-68937000D01*
X197771155Y-68937000D01*
X197616510Y-68967761D01*
X197616498Y-68967764D01*
X197470827Y-69028102D01*
X197470814Y-69028109D01*
X197339711Y-69115710D01*
X197339707Y-69115713D01*
X197228213Y-69227207D01*
X197228210Y-69227211D01*
X197140609Y-69358314D01*
X197140602Y-69358327D01*
X197080264Y-69503998D01*
X197080261Y-69504010D01*
X197049500Y-69658653D01*
X197049500Y-69816346D01*
X197080261Y-69970989D01*
X197080264Y-69971001D01*
X197140602Y-70116672D01*
X197140609Y-70116684D01*
X197152447Y-70134401D01*
X197154819Y-70141976D01*
X197160229Y-70147787D01*
X197165110Y-70174845D01*
X197173325Y-70201078D01*
X197171541Y-70210484D01*
X197172635Y-70216547D01*
X197163906Y-70250745D01*
X197142700Y-70301941D01*
X197098859Y-70356344D01*
X197032565Y-70378409D01*
X196980687Y-70369049D01*
X196933501Y-70349504D01*
X196933489Y-70349501D01*
X196778845Y-70318740D01*
X196778842Y-70318740D01*
X196621158Y-70318740D01*
X196621155Y-70318740D01*
X196466510Y-70349501D01*
X196466498Y-70349504D01*
X196320827Y-70409842D01*
X196320814Y-70409849D01*
X196184646Y-70500835D01*
X196183980Y-70499839D01*
X196125511Y-70524669D01*
X196063712Y-70516064D01*
X196009232Y-70493498D01*
X196009225Y-70493496D01*
X196009224Y-70493496D01*
X196009223Y-70493495D01*
X195854580Y-70462735D01*
X195854577Y-70462735D01*
X195696893Y-70462735D01*
X195696890Y-70462735D01*
X195542245Y-70493496D01*
X195542233Y-70493499D01*
X195396562Y-70553837D01*
X195396551Y-70553843D01*
X195343389Y-70589365D01*
X195276711Y-70610242D01*
X195209331Y-70591757D01*
X195162642Y-70539778D01*
X195150499Y-70486265D01*
X195150499Y-69711421D01*
X195150500Y-69711418D01*
X195150500Y-69563582D01*
X195150499Y-69563577D01*
X195150499Y-69339628D01*
X195144091Y-69280017D01*
X195126740Y-69233497D01*
X195093797Y-69145171D01*
X195093793Y-69145164D01*
X195007547Y-69029955D01*
X195007544Y-69029952D01*
X194892335Y-68943706D01*
X194892328Y-68943702D01*
X194757482Y-68893408D01*
X194757483Y-68893408D01*
X194697883Y-68887001D01*
X194697881Y-68887000D01*
X194697873Y-68887000D01*
X194473918Y-68887000D01*
X194326082Y-68887000D01*
X194326081Y-68887000D01*
X193723920Y-68887000D01*
X193723918Y-68887000D01*
X193576082Y-68887000D01*
X193576079Y-68887000D01*
X192973922Y-68887000D01*
X192973918Y-68887000D01*
X192826082Y-68887000D01*
X192826077Y-68887000D01*
X192602130Y-68887000D01*
X192602123Y-68887001D01*
X192542516Y-68893408D01*
X192407671Y-68943702D01*
X192407664Y-68943706D01*
X192292455Y-69029952D01*
X192292452Y-69029955D01*
X192206206Y-69145164D01*
X192206202Y-69145171D01*
X192155908Y-69280017D01*
X192150235Y-69332787D01*
X192149501Y-69339623D01*
X192149500Y-69339635D01*
X192149500Y-70635369D01*
X192149501Y-70635376D01*
X192155908Y-70694983D01*
X192206202Y-70829828D01*
X192206206Y-70829835D01*
X192292452Y-70945044D01*
X192292455Y-70945047D01*
X192407664Y-71031293D01*
X192407671Y-71031297D01*
X192452618Y-71048061D01*
X192542517Y-71081591D01*
X192602127Y-71088000D01*
X192826081Y-71087999D01*
X192826082Y-71088000D01*
X192973918Y-71088000D01*
X192973918Y-71087999D01*
X193566080Y-71087999D01*
X193566092Y-71088000D01*
X193576082Y-71088000D01*
X193738352Y-71088000D01*
X193738360Y-71087999D01*
X194326077Y-71087999D01*
X194326082Y-71088000D01*
X194473918Y-71088000D01*
X194473922Y-71087999D01*
X194697872Y-71087999D01*
X194757483Y-71081591D01*
X194807902Y-71062786D01*
X194877593Y-71057802D01*
X194938916Y-71091287D01*
X194972401Y-71152610D01*
X194975235Y-71178968D01*
X194975235Y-71342081D01*
X195005996Y-71496724D01*
X195005999Y-71496736D01*
X195066337Y-71642407D01*
X195066344Y-71642420D01*
X195153945Y-71773523D01*
X195153948Y-71773527D01*
X195265442Y-71885021D01*
X195265446Y-71885024D01*
X195396549Y-71972625D01*
X195396562Y-71972632D01*
X195542233Y-72032970D01*
X195542238Y-72032972D01*
X195630357Y-72050500D01*
X195696888Y-72063734D01*
X195696891Y-72063735D01*
X195696893Y-72063735D01*
X195854579Y-72063735D01*
X195854580Y-72063734D01*
X196009232Y-72032972D01*
X196154914Y-71972629D01*
X196159245Y-71969735D01*
X196291089Y-71881640D01*
X196291756Y-71882639D01*
X196350194Y-71857808D01*
X196412022Y-71866410D01*
X196466503Y-71888977D01*
X196607021Y-71916928D01*
X196621153Y-71919739D01*
X196621156Y-71919740D01*
X196621158Y-71919740D01*
X196778842Y-71919740D01*
X196827206Y-71910119D01*
X196852818Y-71912410D01*
X196878483Y-71910730D01*
X196890220Y-71915756D01*
X196896794Y-71916345D01*
X196911477Y-71923263D01*
X196915991Y-71925763D01*
X196991874Y-71976466D01*
X197047484Y-71999500D01*
X197110256Y-72025501D01*
X197110260Y-72025501D01*
X197110261Y-72025502D01*
X197235928Y-72050500D01*
X197235931Y-72050500D01*
X197364069Y-72050500D01*
X200375500Y-72050500D01*
X200442539Y-72070185D01*
X200488294Y-72122989D01*
X200499500Y-72174500D01*
X200499500Y-78599903D01*
X200479815Y-78666942D01*
X200463181Y-78687584D01*
X198587584Y-80563181D01*
X198526261Y-80596666D01*
X198499903Y-80599500D01*
X192880286Y-80599500D01*
X192813247Y-80579815D01*
X192767492Y-80527011D01*
X192757548Y-80457853D01*
X192781019Y-80401189D01*
X192843796Y-80317331D01*
X192894091Y-80182483D01*
X192900500Y-80122873D01*
X192900499Y-77727128D01*
X192894091Y-77667517D01*
X192887676Y-77650318D01*
X192843797Y-77532671D01*
X192843793Y-77532664D01*
X192781672Y-77449682D01*
X192757546Y-77417454D01*
X192642331Y-77331204D01*
X192642329Y-77331203D01*
X192639521Y-77329101D01*
X192597650Y-77273167D01*
X192592666Y-77203475D01*
X192626151Y-77142152D01*
X192644941Y-77126732D01*
X192693200Y-77094486D01*
X192769081Y-77043784D01*
X192880581Y-76932284D01*
X192968186Y-76801174D01*
X192969780Y-76797327D01*
X193005831Y-76710291D01*
X193028529Y-76655492D01*
X193059292Y-76500837D01*
X193059292Y-76343153D01*
X193059292Y-76343150D01*
X193059291Y-76343148D01*
X193050808Y-76300500D01*
X193028529Y-76188498D01*
X193016398Y-76159210D01*
X192968189Y-76042822D01*
X192968182Y-76042809D01*
X192880581Y-75911706D01*
X192880578Y-75911702D01*
X192769084Y-75800208D01*
X192769080Y-75800205D01*
X192637977Y-75712604D01*
X192637965Y-75712598D01*
X192628265Y-75708580D01*
X192573863Y-75664738D01*
X192551799Y-75598444D01*
X192569079Y-75530745D01*
X192606826Y-75490920D01*
X192710289Y-75421789D01*
X192821789Y-75310289D01*
X192909394Y-75179179D01*
X192969737Y-75033497D01*
X193000500Y-74878842D01*
X193000500Y-74721158D01*
X193000500Y-74721155D01*
X193000499Y-74721153D01*
X192993632Y-74686632D01*
X192969737Y-74566503D01*
X192948371Y-74514921D01*
X192909397Y-74420827D01*
X192909390Y-74420814D01*
X192821789Y-74289711D01*
X192821786Y-74289707D01*
X192710292Y-74178213D01*
X192710288Y-74178210D01*
X192579185Y-74090609D01*
X192579172Y-74090602D01*
X192433501Y-74030264D01*
X192433489Y-74030261D01*
X192278845Y-73999500D01*
X192278842Y-73999500D01*
X192121158Y-73999500D01*
X192121155Y-73999500D01*
X191966510Y-74030261D01*
X191966498Y-74030264D01*
X191820827Y-74090602D01*
X191820814Y-74090609D01*
X191689711Y-74178210D01*
X191689707Y-74178213D01*
X191578213Y-74289707D01*
X191578210Y-74289711D01*
X191490609Y-74420814D01*
X191490602Y-74420827D01*
X191430264Y-74566498D01*
X191430261Y-74566510D01*
X191399500Y-74721153D01*
X191399500Y-74878846D01*
X191430261Y-75033489D01*
X191430264Y-75033501D01*
X191490602Y-75179172D01*
X191490609Y-75179185D01*
X191578210Y-75310288D01*
X191578213Y-75310292D01*
X191689707Y-75421786D01*
X191689711Y-75421789D01*
X191820814Y-75509390D01*
X191820821Y-75509394D01*
X191830522Y-75513412D01*
X191884926Y-75557252D01*
X191906992Y-75623546D01*
X191889714Y-75691246D01*
X191851962Y-75731076D01*
X191748503Y-75800205D01*
X191748499Y-75800208D01*
X191635527Y-75913181D01*
X191608599Y-75927884D01*
X191582781Y-75944477D01*
X191576580Y-75945368D01*
X191574204Y-75946666D01*
X191547846Y-75949500D01*
X191320808Y-75949500D01*
X191253769Y-75929815D01*
X191233127Y-75913181D01*
X190686819Y-75366873D01*
X190653334Y-75305550D01*
X190650500Y-75279192D01*
X190650500Y-68528159D01*
X190670185Y-68461120D01*
X190722989Y-68415365D01*
X190792147Y-68405421D01*
X190855703Y-68434446D01*
X190877602Y-68459268D01*
X190953945Y-68573523D01*
X190953948Y-68573527D01*
X191065442Y-68685021D01*
X191065446Y-68685024D01*
X191196549Y-68772625D01*
X191196562Y-68772632D01*
X191309496Y-68819410D01*
X191342238Y-68832972D01*
X191496888Y-68863734D01*
X191496891Y-68863735D01*
X191496893Y-68863735D01*
X191654579Y-68863735D01*
X191654580Y-68863734D01*
X191809232Y-68832972D01*
X191939910Y-68778844D01*
X191954907Y-68772632D01*
X191954907Y-68772631D01*
X191954914Y-68772629D01*
X192086024Y-68685024D01*
X192197524Y-68573524D01*
X192285129Y-68442414D01*
X192288430Y-68434446D01*
X192311722Y-68378213D01*
X192345472Y-68296732D01*
X192376235Y-68142077D01*
X192376235Y-67984393D01*
X192376235Y-67984390D01*
X192376234Y-67984388D01*
X192356826Y-67886819D01*
X192345472Y-67829738D01*
X192323406Y-67776465D01*
X192285132Y-67684062D01*
X192285125Y-67684049D01*
X192197524Y-67552946D01*
X192197521Y-67552942D01*
X192086027Y-67441448D01*
X192086023Y-67441445D01*
X191954920Y-67353844D01*
X191954907Y-67353837D01*
X191809236Y-67293499D01*
X191809224Y-67293496D01*
X191654580Y-67262735D01*
X191654577Y-67262735D01*
X191496893Y-67262735D01*
X191496890Y-67262735D01*
X191342245Y-67293496D01*
X191342233Y-67293499D01*
X191196562Y-67353837D01*
X191196549Y-67353844D01*
X191065446Y-67441445D01*
X191065442Y-67441448D01*
X190953948Y-67552942D01*
X190953945Y-67552946D01*
X190877602Y-67667201D01*
X190823989Y-67712006D01*
X190754664Y-67720713D01*
X190691637Y-67690558D01*
X190654918Y-67631115D01*
X190650500Y-67598310D01*
X190650500Y-60704935D01*
X190670185Y-60637896D01*
X190671366Y-60636090D01*
X190709394Y-60579179D01*
X190769737Y-60433497D01*
X190800500Y-60278842D01*
X190800500Y-60121158D01*
X190800500Y-60121155D01*
X190800499Y-60121153D01*
X190784662Y-60041538D01*
X190769737Y-59966503D01*
X190743075Y-59902135D01*
X191649500Y-59902135D01*
X191649500Y-61197869D01*
X191649501Y-61197876D01*
X191655908Y-61257483D01*
X191706202Y-61392328D01*
X191706206Y-61392335D01*
X191792452Y-61507544D01*
X191792455Y-61507547D01*
X191907664Y-61593793D01*
X191907671Y-61593797D01*
X191931668Y-61602747D01*
X192042517Y-61644091D01*
X192102127Y-61650500D01*
X192326081Y-61650499D01*
X192326082Y-61650500D01*
X192473918Y-61650500D01*
X192473918Y-61650499D01*
X193066080Y-61650499D01*
X193066092Y-61650500D01*
X193076082Y-61650500D01*
X193238352Y-61650500D01*
X193238360Y-61650499D01*
X193826077Y-61650499D01*
X193826082Y-61650500D01*
X193973918Y-61650500D01*
X193973922Y-61650499D01*
X194000030Y-61650499D01*
X194067069Y-61670184D01*
X194112824Y-61722988D01*
X194122768Y-61792146D01*
X194093743Y-61855702D01*
X194056646Y-61882451D01*
X194057595Y-61884226D01*
X194052218Y-61887099D01*
X193921115Y-61974700D01*
X193921111Y-61974703D01*
X193809617Y-62086197D01*
X193809614Y-62086201D01*
X193722013Y-62217304D01*
X193722006Y-62217317D01*
X193661668Y-62362988D01*
X193661665Y-62363000D01*
X193630904Y-62517643D01*
X193630904Y-62675336D01*
X193661665Y-62829979D01*
X193661668Y-62829991D01*
X193722006Y-62975662D01*
X193722013Y-62975675D01*
X193809614Y-63106778D01*
X193809617Y-63106782D01*
X193921111Y-63218276D01*
X193921115Y-63218279D01*
X194052218Y-63305880D01*
X194052231Y-63305887D01*
X194197902Y-63366225D01*
X194197907Y-63366227D01*
X194352557Y-63396989D01*
X194352560Y-63396990D01*
X194352562Y-63396990D01*
X194510248Y-63396990D01*
X194510249Y-63396989D01*
X194664901Y-63366227D01*
X194810583Y-63305884D01*
X194941693Y-63218279D01*
X195053193Y-63106779D01*
X195140798Y-62975669D01*
X195142805Y-62970825D01*
X195164316Y-62918891D01*
X195201141Y-62829987D01*
X195231904Y-62675332D01*
X195231904Y-62517648D01*
X195231904Y-62517645D01*
X195231903Y-62517643D01*
X195223206Y-62473920D01*
X195201141Y-62362993D01*
X195189932Y-62335931D01*
X195140801Y-62217317D01*
X195140794Y-62217304D01*
X195053193Y-62086201D01*
X195053190Y-62086197D01*
X194941696Y-61974703D01*
X194941692Y-61974700D01*
X194810589Y-61887099D01*
X194810576Y-61887092D01*
X194664905Y-61826754D01*
X194664893Y-61826751D01*
X194510249Y-61795990D01*
X194510246Y-61795990D01*
X194494792Y-61795990D01*
X194427753Y-61776305D01*
X194381998Y-61723501D01*
X194372054Y-61654343D01*
X194401079Y-61590787D01*
X194420480Y-61572724D01*
X194439672Y-61558355D01*
X194507546Y-61507546D01*
X194593796Y-61392331D01*
X194644091Y-61257483D01*
X194650500Y-61197873D01*
X194650499Y-60273921D01*
X194650500Y-60273918D01*
X194650500Y-60126082D01*
X194650499Y-60126077D01*
X194650499Y-59902128D01*
X194644091Y-59842517D01*
X194640728Y-59833501D01*
X194593797Y-59707671D01*
X194593793Y-59707664D01*
X194507547Y-59592455D01*
X194507544Y-59592452D01*
X194392335Y-59506206D01*
X194392328Y-59506202D01*
X194257482Y-59455908D01*
X194257483Y-59455908D01*
X194197883Y-59449501D01*
X194197881Y-59449500D01*
X194197873Y-59449500D01*
X193973918Y-59449500D01*
X193826082Y-59449500D01*
X193826081Y-59449500D01*
X193223920Y-59449500D01*
X193223918Y-59449500D01*
X193076082Y-59449500D01*
X193076079Y-59449500D01*
X192473922Y-59449500D01*
X192473918Y-59449500D01*
X192326082Y-59449500D01*
X192326077Y-59449500D01*
X192102130Y-59449500D01*
X192102123Y-59449501D01*
X192042516Y-59455908D01*
X191907671Y-59506202D01*
X191907664Y-59506206D01*
X191792455Y-59592452D01*
X191792452Y-59592455D01*
X191706206Y-59707664D01*
X191706202Y-59707671D01*
X191655908Y-59842517D01*
X191651139Y-59886883D01*
X191649501Y-59902123D01*
X191649500Y-59902135D01*
X190743075Y-59902135D01*
X190720423Y-59847449D01*
X190712955Y-59777981D01*
X190720421Y-59752551D01*
X190769737Y-59633494D01*
X190800500Y-59478839D01*
X190800500Y-59321155D01*
X190800500Y-59321152D01*
X190800499Y-59321150D01*
X190775581Y-59195880D01*
X190769737Y-59166500D01*
X190764052Y-59152776D01*
X190709397Y-59020824D01*
X190709390Y-59020811D01*
X190621789Y-58889708D01*
X190621786Y-58889704D01*
X190510292Y-58778210D01*
X190510288Y-58778207D01*
X190379185Y-58690606D01*
X190379172Y-58690599D01*
X190233501Y-58630261D01*
X190233489Y-58630258D01*
X190078845Y-58599497D01*
X190078842Y-58599497D01*
X189921158Y-58599497D01*
X189921155Y-58599497D01*
X189766510Y-58630258D01*
X189766498Y-58630261D01*
X189620827Y-58690599D01*
X189620814Y-58690606D01*
X189489711Y-58778207D01*
X189489707Y-58778210D01*
X189378213Y-58889704D01*
X189378207Y-58889712D01*
X189290607Y-59020815D01*
X189290602Y-59020824D01*
X189265118Y-59082347D01*
X189238239Y-59122574D01*
X188858084Y-59502729D01*
X188796761Y-59536214D01*
X188727069Y-59531230D01*
X188671136Y-59489358D01*
X188648786Y-59439242D01*
X188634318Y-59366503D01*
X188619222Y-59330058D01*
X188573978Y-59220827D01*
X188573971Y-59220814D01*
X188486370Y-59089711D01*
X188486367Y-59089707D01*
X188374873Y-58978213D01*
X188374869Y-58978210D01*
X188243766Y-58890609D01*
X188243753Y-58890602D01*
X188098082Y-58830264D01*
X188098070Y-58830261D01*
X187943426Y-58799500D01*
X187943423Y-58799500D01*
X187785739Y-58799500D01*
X187785736Y-58799500D01*
X187631091Y-58830261D01*
X187631079Y-58830264D01*
X187485408Y-58890602D01*
X187485395Y-58890609D01*
X187354292Y-58978210D01*
X187354288Y-58978213D01*
X187242794Y-59089707D01*
X187242791Y-59089711D01*
X187155190Y-59220814D01*
X187155183Y-59220827D01*
X187094845Y-59366498D01*
X187094842Y-59366510D01*
X187064081Y-59521153D01*
X187064081Y-59678846D01*
X187094842Y-59833489D01*
X187094845Y-59833501D01*
X187155183Y-59979172D01*
X187155190Y-59979185D01*
X187242791Y-60110288D01*
X187242794Y-60110292D01*
X187354288Y-60221786D01*
X187354292Y-60221789D01*
X187485395Y-60309390D01*
X187485408Y-60309397D01*
X187622093Y-60366013D01*
X187631084Y-60369737D01*
X187785734Y-60400499D01*
X187785737Y-60400500D01*
X187785739Y-60400500D01*
X187943425Y-60400500D01*
X187943426Y-60400499D01*
X188098078Y-60369737D01*
X188243760Y-60309394D01*
X188374870Y-60221789D01*
X188429574Y-60167085D01*
X188487819Y-60108841D01*
X188549142Y-60075356D01*
X188618834Y-60080340D01*
X188674767Y-60122212D01*
X188699184Y-60187676D01*
X188699500Y-60196522D01*
X188699500Y-73875500D01*
X188679815Y-73942539D01*
X188627011Y-73988294D01*
X188575500Y-73999500D01*
X188521155Y-73999500D01*
X188366510Y-74030261D01*
X188366498Y-74030264D01*
X188220827Y-74090602D01*
X188220814Y-74090609D01*
X188089711Y-74178210D01*
X188089707Y-74178213D01*
X187978213Y-74289707D01*
X187978210Y-74289711D01*
X187890609Y-74420814D01*
X187890602Y-74420827D01*
X187830264Y-74566498D01*
X187830261Y-74566510D01*
X187799500Y-74721153D01*
X187799500Y-74878846D01*
X187830261Y-75033489D01*
X187830264Y-75033501D01*
X187890602Y-75179172D01*
X187890609Y-75179185D01*
X187978210Y-75310288D01*
X187978213Y-75310292D01*
X188089707Y-75421786D01*
X188089711Y-75421789D01*
X188220814Y-75509390D01*
X188220827Y-75509397D01*
X188366498Y-75569735D01*
X188366503Y-75569737D01*
X188500496Y-75596390D01*
X188521153Y-75600499D01*
X188521156Y-75600500D01*
X188575500Y-75600500D01*
X188642539Y-75620185D01*
X188688294Y-75672989D01*
X188699500Y-75724500D01*
X188699500Y-76114034D01*
X188711205Y-76172875D01*
X188724499Y-76239710D01*
X188740947Y-76279417D01*
X188742893Y-76284117D01*
X188744884Y-76291191D01*
X188744773Y-76300923D01*
X188749518Y-76324774D01*
X188749518Y-76328828D01*
X188780279Y-76483471D01*
X188780282Y-76483483D01*
X188840620Y-76629154D01*
X188840627Y-76629167D01*
X188928228Y-76760270D01*
X188928231Y-76760274D01*
X189039725Y-76871768D01*
X189039729Y-76871771D01*
X189170832Y-76959372D01*
X189170845Y-76959379D01*
X189270117Y-77000498D01*
X189316521Y-77019719D01*
X189391985Y-77034729D01*
X189459717Y-77048203D01*
X189521628Y-77080588D01*
X189556202Y-77141303D01*
X189552463Y-77211073D01*
X189511596Y-77267745D01*
X189478860Y-77286002D01*
X189357669Y-77331203D01*
X189357664Y-77331206D01*
X189242455Y-77417452D01*
X189242452Y-77417455D01*
X189156206Y-77532664D01*
X189156202Y-77532671D01*
X189105908Y-77667517D01*
X189099501Y-77727116D01*
X189099501Y-77727123D01*
X189099500Y-77727135D01*
X189099500Y-80122870D01*
X189099501Y-80122876D01*
X189105908Y-80182483D01*
X189156202Y-80317328D01*
X189156204Y-80317331D01*
X189218980Y-80401189D01*
X189243398Y-80466652D01*
X189228547Y-80534926D01*
X189179142Y-80584331D01*
X189119714Y-80599500D01*
X167600097Y-80599500D01*
X167533058Y-80579815D01*
X167512416Y-80563181D01*
X167036819Y-80087584D01*
X167003334Y-80026261D01*
X167000500Y-79999903D01*
X167000500Y-78521153D01*
X167499500Y-78521153D01*
X167499500Y-78678846D01*
X167530261Y-78833489D01*
X167530264Y-78833501D01*
X167590602Y-78979172D01*
X167590609Y-78979185D01*
X167678210Y-79110288D01*
X167678213Y-79110292D01*
X167789707Y-79221786D01*
X167789711Y-79221789D01*
X167920814Y-79309390D01*
X167920827Y-79309397D01*
X168019493Y-79350265D01*
X168066503Y-79369737D01*
X168221153Y-79400499D01*
X168221156Y-79400500D01*
X168221158Y-79400500D01*
X168378844Y-79400500D01*
X168378845Y-79400499D01*
X168533497Y-79369737D01*
X168652550Y-79320423D01*
X168722017Y-79312955D01*
X168747450Y-79320422D01*
X168866506Y-79369737D01*
X169021156Y-79400499D01*
X169021159Y-79400500D01*
X169021161Y-79400500D01*
X169178847Y-79400500D01*
X169178848Y-79400499D01*
X169333500Y-79369737D01*
X169452553Y-79320423D01*
X169522020Y-79312955D01*
X169547453Y-79320422D01*
X169666509Y-79369737D01*
X169821159Y-79400499D01*
X169821162Y-79400500D01*
X169821164Y-79400500D01*
X169978850Y-79400500D01*
X169978851Y-79400499D01*
X170133503Y-79369737D01*
X170252556Y-79320423D01*
X170322023Y-79312955D01*
X170347456Y-79320422D01*
X170466512Y-79369737D01*
X170621162Y-79400499D01*
X170621165Y-79400500D01*
X170621167Y-79400500D01*
X170778853Y-79400500D01*
X170778854Y-79400499D01*
X170933506Y-79369737D01*
X171079188Y-79309394D01*
X171210298Y-79221789D01*
X171321798Y-79110289D01*
X171409403Y-78979179D01*
X171469746Y-78833497D01*
X171500509Y-78678842D01*
X171500509Y-78521158D01*
X171500509Y-78521155D01*
X171500508Y-78521153D01*
X171478032Y-78408160D01*
X171469746Y-78366503D01*
X171450021Y-78318882D01*
X171409406Y-78220827D01*
X171409399Y-78220814D01*
X171321798Y-78089711D01*
X171321795Y-78089707D01*
X171210301Y-77978213D01*
X171210297Y-77978210D01*
X171079194Y-77890609D01*
X171079181Y-77890602D01*
X170933510Y-77830264D01*
X170933498Y-77830261D01*
X170778854Y-77799500D01*
X170778851Y-77799500D01*
X170621167Y-77799500D01*
X170621164Y-77799500D01*
X170466519Y-77830261D01*
X170466507Y-77830264D01*
X170347459Y-77879575D01*
X170277989Y-77887044D01*
X170252555Y-77879575D01*
X170133507Y-77830264D01*
X170133495Y-77830261D01*
X169978851Y-77799500D01*
X169978848Y-77799500D01*
X169821164Y-77799500D01*
X169821161Y-77799500D01*
X169666516Y-77830261D01*
X169666504Y-77830264D01*
X169547456Y-77879575D01*
X169477986Y-77887044D01*
X169452552Y-77879575D01*
X169333504Y-77830264D01*
X169333492Y-77830261D01*
X169178848Y-77799500D01*
X169178845Y-77799500D01*
X169021161Y-77799500D01*
X169021158Y-77799500D01*
X168866513Y-77830261D01*
X168866501Y-77830264D01*
X168747453Y-77879575D01*
X168677983Y-77887044D01*
X168652549Y-77879575D01*
X168533501Y-77830264D01*
X168533489Y-77830261D01*
X168378845Y-77799500D01*
X168378842Y-77799500D01*
X168221158Y-77799500D01*
X168221155Y-77799500D01*
X168066510Y-77830261D01*
X168066498Y-77830264D01*
X167920827Y-77890602D01*
X167920814Y-77890609D01*
X167789711Y-77978210D01*
X167789707Y-77978213D01*
X167678213Y-78089707D01*
X167678210Y-78089711D01*
X167590609Y-78220814D01*
X167590602Y-78220827D01*
X167530264Y-78366498D01*
X167530261Y-78366510D01*
X167499500Y-78521153D01*
X167000500Y-78521153D01*
X167000500Y-76121152D01*
X172599500Y-76121152D01*
X172599500Y-76278845D01*
X172630261Y-76433488D01*
X172630264Y-76433500D01*
X172690602Y-76579171D01*
X172690609Y-76579184D01*
X172778210Y-76710287D01*
X172778213Y-76710291D01*
X172889707Y-76821785D01*
X172889711Y-76821788D01*
X173020814Y-76909389D01*
X173020827Y-76909396D01*
X173166498Y-76969734D01*
X173166503Y-76969736D01*
X173321153Y-77000498D01*
X173321156Y-77000499D01*
X173321158Y-77000499D01*
X173478844Y-77000499D01*
X173478845Y-77000498D01*
X173633497Y-76969736D01*
X173779179Y-76909393D01*
X173910289Y-76821788D01*
X174021789Y-76710288D01*
X174109394Y-76579178D01*
X174169737Y-76433496D01*
X174200500Y-76278841D01*
X174200500Y-76121157D01*
X174200500Y-76121154D01*
X174200499Y-76121152D01*
X174184917Y-76042816D01*
X174169737Y-75966502D01*
X174158413Y-75939163D01*
X174109397Y-75820826D01*
X174109390Y-75820813D01*
X174021789Y-75689710D01*
X174021786Y-75689706D01*
X173910292Y-75578212D01*
X173910288Y-75578209D01*
X173779185Y-75490608D01*
X173779172Y-75490601D01*
X173633501Y-75430263D01*
X173633489Y-75430260D01*
X173478845Y-75399499D01*
X173478842Y-75399499D01*
X173321158Y-75399499D01*
X173321155Y-75399499D01*
X173166510Y-75430260D01*
X173166498Y-75430263D01*
X173020827Y-75490601D01*
X173020814Y-75490608D01*
X172889711Y-75578209D01*
X172889707Y-75578212D01*
X172778213Y-75689706D01*
X172778210Y-75689710D01*
X172690609Y-75820813D01*
X172690602Y-75820826D01*
X172630264Y-75966497D01*
X172630261Y-75966509D01*
X172599500Y-76121152D01*
X167000500Y-76121152D01*
X167000500Y-73379765D01*
X167020185Y-73312726D01*
X167021398Y-73310874D01*
X167046015Y-73274033D01*
X167109394Y-73179179D01*
X167169737Y-73033497D01*
X167200500Y-72878842D01*
X167200500Y-72721158D01*
X167200500Y-72721155D01*
X167200499Y-72721153D01*
X167169737Y-72566503D01*
X167130765Y-72472416D01*
X167120425Y-72447452D01*
X167112956Y-72377983D01*
X167120425Y-72352548D01*
X167153208Y-72273402D01*
X167169737Y-72233497D01*
X167200500Y-72078842D01*
X167200500Y-71921158D01*
X167200500Y-71921155D01*
X167200499Y-71921153D01*
X167194099Y-71888977D01*
X167169737Y-71766503D01*
X167150955Y-71721158D01*
X167150953Y-71721153D01*
X168799500Y-71721153D01*
X168799500Y-71878846D01*
X168830261Y-72033489D01*
X168830264Y-72033501D01*
X168890602Y-72179172D01*
X168890609Y-72179185D01*
X168978210Y-72310288D01*
X168978213Y-72310292D01*
X169089707Y-72421786D01*
X169089711Y-72421789D01*
X169220814Y-72509390D01*
X169220827Y-72509397D01*
X169324599Y-72552380D01*
X169366503Y-72569737D01*
X169521153Y-72600499D01*
X169521156Y-72600500D01*
X169521158Y-72600500D01*
X169678844Y-72600500D01*
X169678845Y-72600499D01*
X169833497Y-72569737D01*
X169979179Y-72509394D01*
X170110289Y-72421789D01*
X170221789Y-72310289D01*
X170309394Y-72179179D01*
X170369737Y-72033497D01*
X170400500Y-71878842D01*
X170400500Y-71721158D01*
X170400500Y-71721155D01*
X170400499Y-71721153D01*
X170380865Y-71622447D01*
X170369737Y-71566503D01*
X170337929Y-71489711D01*
X170309397Y-71420827D01*
X170309390Y-71420814D01*
X170218574Y-71284898D01*
X170197696Y-71218220D01*
X170216181Y-71150840D01*
X170268160Y-71104150D01*
X170274211Y-71101451D01*
X170279179Y-71099394D01*
X170410289Y-71011789D01*
X170521789Y-70900289D01*
X170609394Y-70769179D01*
X170669737Y-70623497D01*
X170700500Y-70468842D01*
X170700500Y-70311158D01*
X170700500Y-70311155D01*
X170700499Y-70311153D01*
X170685051Y-70233492D01*
X170669737Y-70156503D01*
X170655042Y-70121026D01*
X170609397Y-70010827D01*
X170609390Y-70010814D01*
X170521789Y-69879711D01*
X170521786Y-69879707D01*
X170410292Y-69768213D01*
X170410288Y-69768210D01*
X170279185Y-69680609D01*
X170279172Y-69680602D01*
X170133501Y-69620264D01*
X170133489Y-69620261D01*
X169978845Y-69589500D01*
X169978842Y-69589500D01*
X169821158Y-69589500D01*
X169821155Y-69589500D01*
X169666510Y-69620261D01*
X169666498Y-69620264D01*
X169520827Y-69680602D01*
X169520814Y-69680609D01*
X169389711Y-69768210D01*
X169389707Y-69768213D01*
X169278213Y-69879707D01*
X169278210Y-69879711D01*
X169190609Y-70010814D01*
X169190602Y-70010827D01*
X169130264Y-70156498D01*
X169130261Y-70156510D01*
X169099500Y-70311153D01*
X169099500Y-70468846D01*
X169130261Y-70623489D01*
X169130264Y-70623501D01*
X169190602Y-70769172D01*
X169190612Y-70769190D01*
X169281425Y-70905102D01*
X169302303Y-70971779D01*
X169283818Y-71039159D01*
X169231839Y-71085849D01*
X169225779Y-71088552D01*
X169220823Y-71090604D01*
X169220814Y-71090609D01*
X169089711Y-71178210D01*
X169089707Y-71178213D01*
X168978213Y-71289707D01*
X168978210Y-71289711D01*
X168890609Y-71420814D01*
X168890602Y-71420827D01*
X168830264Y-71566498D01*
X168830261Y-71566510D01*
X168799500Y-71721153D01*
X167150953Y-71721153D01*
X167109397Y-71620827D01*
X167109390Y-71620814D01*
X167021789Y-71489711D01*
X167021786Y-71489707D01*
X166910292Y-71378213D01*
X166910288Y-71378210D01*
X166779185Y-71290609D01*
X166779172Y-71290602D01*
X166633501Y-71230264D01*
X166633489Y-71230261D01*
X166478845Y-71199500D01*
X166478842Y-71199500D01*
X166321158Y-71199500D01*
X166321155Y-71199500D01*
X166166510Y-71230261D01*
X166166498Y-71230264D01*
X166020827Y-71290602D01*
X166020814Y-71290609D01*
X165889711Y-71378210D01*
X165889707Y-71378213D01*
X165778213Y-71489707D01*
X165778210Y-71489711D01*
X165690609Y-71620814D01*
X165690602Y-71620827D01*
X165630264Y-71766498D01*
X165630261Y-71766508D01*
X165611412Y-71861269D01*
X165579027Y-71923180D01*
X165577476Y-71924758D01*
X165424214Y-72078019D01*
X165424215Y-72078020D01*
X165319480Y-72182755D01*
X165286186Y-72240423D01*
X165267145Y-72273402D01*
X165240423Y-72319685D01*
X165229027Y-72362214D01*
X165199499Y-72472414D01*
X165199499Y-72472416D01*
X165199499Y-72640517D01*
X165199500Y-72640530D01*
X165199500Y-74513444D01*
X165179815Y-74580483D01*
X165127011Y-74626238D01*
X165057853Y-74636182D01*
X165039575Y-74631202D01*
X165039324Y-74632031D01*
X165033500Y-74630264D01*
X165033497Y-74630263D01*
X165033492Y-74630262D01*
X165033489Y-74630261D01*
X164878845Y-74599500D01*
X164878842Y-74599500D01*
X164721158Y-74599500D01*
X164721155Y-74599500D01*
X164566510Y-74630261D01*
X164566498Y-74630264D01*
X164420827Y-74690602D01*
X164420814Y-74690609D01*
X164289711Y-74778210D01*
X164289707Y-74778213D01*
X164178213Y-74889707D01*
X164178210Y-74889711D01*
X164090609Y-75020814D01*
X164090602Y-75020827D01*
X164030264Y-75166498D01*
X164030261Y-75166510D01*
X163999500Y-75321153D01*
X163500500Y-75321153D01*
X163500500Y-67921153D01*
X169099500Y-67921153D01*
X169099500Y-68078846D01*
X169130261Y-68233489D01*
X169130264Y-68233501D01*
X169190602Y-68379172D01*
X169190609Y-68379185D01*
X169278210Y-68510288D01*
X169278213Y-68510292D01*
X169389707Y-68621786D01*
X169389711Y-68621789D01*
X169520814Y-68709390D01*
X169520827Y-68709397D01*
X169620060Y-68750500D01*
X169666503Y-68769737D01*
X169821153Y-68800499D01*
X169821156Y-68800500D01*
X169821158Y-68800500D01*
X169978844Y-68800500D01*
X169978845Y-68800499D01*
X170133497Y-68769737D01*
X170279179Y-68709394D01*
X170410289Y-68621789D01*
X170521789Y-68510289D01*
X170609394Y-68379179D01*
X170669737Y-68233497D01*
X170700500Y-68078842D01*
X170700500Y-67921158D01*
X170700500Y-67921155D01*
X170700499Y-67921153D01*
X170693948Y-67888221D01*
X170669737Y-67766503D01*
X170669732Y-67766492D01*
X170667969Y-67760676D01*
X170670720Y-67759841D01*
X170664497Y-67702641D01*
X170695691Y-67640122D01*
X170755734Y-67604392D01*
X170786555Y-67600500D01*
X176499903Y-67600500D01*
X176566942Y-67620185D01*
X176587584Y-67636819D01*
X177763181Y-68812416D01*
X177796666Y-68873739D01*
X177799500Y-68900097D01*
X177799500Y-74772649D01*
X177779815Y-74839688D01*
X177727011Y-74885443D01*
X177657853Y-74895387D01*
X177606609Y-74875751D01*
X177479185Y-74790609D01*
X177479172Y-74790602D01*
X177333501Y-74730264D01*
X177333489Y-74730261D01*
X177178845Y-74699500D01*
X177178842Y-74699500D01*
X177021158Y-74699500D01*
X177021155Y-74699500D01*
X176866510Y-74730261D01*
X176866498Y-74730264D01*
X176720827Y-74790602D01*
X176720814Y-74790609D01*
X176589711Y-74878210D01*
X176589707Y-74878213D01*
X176478213Y-74989707D01*
X176401638Y-75104309D01*
X176348025Y-75149113D01*
X176278700Y-75157820D01*
X176251084Y-75149978D01*
X176118384Y-75095012D01*
X176118372Y-75095009D01*
X175963728Y-75064248D01*
X175963725Y-75064248D01*
X175806041Y-75064248D01*
X175806038Y-75064248D01*
X175651393Y-75095009D01*
X175651381Y-75095012D01*
X175505710Y-75155350D01*
X175505697Y-75155357D01*
X175374594Y-75242958D01*
X175374590Y-75242961D01*
X175263096Y-75354455D01*
X175263093Y-75354459D01*
X175175492Y-75485562D01*
X175175485Y-75485575D01*
X175115147Y-75631246D01*
X175115144Y-75631258D01*
X175084383Y-75785901D01*
X175084383Y-75943594D01*
X175115144Y-76098237D01*
X175115147Y-76098249D01*
X175175485Y-76243920D01*
X175175492Y-76243933D01*
X175263093Y-76375036D01*
X175263096Y-76375040D01*
X175374590Y-76486534D01*
X175374594Y-76486537D01*
X175505697Y-76574138D01*
X175505710Y-76574145D01*
X175638547Y-76629167D01*
X175651386Y-76634485D01*
X175756995Y-76655492D01*
X175806036Y-76665247D01*
X175806039Y-76665248D01*
X175806041Y-76665248D01*
X175963727Y-76665248D01*
X175963728Y-76665247D01*
X176118380Y-76634485D01*
X176251887Y-76579185D01*
X176264055Y-76574145D01*
X176264055Y-76574144D01*
X176264062Y-76574142D01*
X176395172Y-76486537D01*
X176506672Y-76375037D01*
X176583245Y-76260437D01*
X176636854Y-76215635D01*
X176706179Y-76206927D01*
X176733797Y-76214769D01*
X176804206Y-76243933D01*
X176866503Y-76269737D01*
X176974359Y-76291191D01*
X177021153Y-76300499D01*
X177021156Y-76300500D01*
X177021158Y-76300500D01*
X177178844Y-76300500D01*
X177178845Y-76300499D01*
X177333497Y-76269737D01*
X177479179Y-76209394D01*
X177532400Y-76173833D01*
X177606609Y-76124248D01*
X177673286Y-76103370D01*
X177740666Y-76121854D01*
X177787357Y-76173833D01*
X177799500Y-76227350D01*
X177799500Y-77420234D01*
X177779815Y-77487273D01*
X177778602Y-77489125D01*
X177690609Y-77620814D01*
X177690602Y-77620827D01*
X177630264Y-77766498D01*
X177630261Y-77766510D01*
X177599500Y-77921153D01*
X177599500Y-78078846D01*
X177630261Y-78233489D01*
X177630264Y-78233501D01*
X177690602Y-78379172D01*
X177690609Y-78379185D01*
X177778210Y-78510288D01*
X177778213Y-78510292D01*
X177889707Y-78621786D01*
X177889711Y-78621789D01*
X178020814Y-78709390D01*
X178020827Y-78709397D01*
X178166498Y-78769735D01*
X178166503Y-78769737D01*
X178321153Y-78800499D01*
X178321156Y-78800500D01*
X178321158Y-78800500D01*
X178478844Y-78800500D01*
X178478845Y-78800499D01*
X178633497Y-78769737D01*
X178779179Y-78709394D01*
X178910289Y-78621789D01*
X179021789Y-78510289D01*
X179109394Y-78379179D01*
X179169737Y-78233497D01*
X179200500Y-78078842D01*
X179200500Y-77921158D01*
X179200500Y-77921155D01*
X179200499Y-77921153D01*
X179193714Y-77887044D01*
X179169737Y-77766503D01*
X179157909Y-77737947D01*
X179109397Y-77620827D01*
X179109390Y-77620814D01*
X179021398Y-77489125D01*
X179000520Y-77422447D01*
X179000500Y-77420234D01*
X179000500Y-73274033D01*
X182752380Y-73274033D01*
X182752380Y-73431726D01*
X182783141Y-73586369D01*
X182783144Y-73586381D01*
X182843482Y-73732052D01*
X182843489Y-73732065D01*
X182931090Y-73863168D01*
X182931093Y-73863172D01*
X183042587Y-73974666D01*
X183042591Y-73974669D01*
X183173694Y-74062270D01*
X183173707Y-74062277D01*
X183275190Y-74104312D01*
X183319383Y-74122617D01*
X183474033Y-74153379D01*
X183474036Y-74153380D01*
X183474038Y-74153380D01*
X183631724Y-74153380D01*
X183631725Y-74153379D01*
X183786377Y-74122617D01*
X183932059Y-74062274D01*
X184063169Y-73974669D01*
X184174669Y-73863169D01*
X184262274Y-73732059D01*
X184322617Y-73586377D01*
X184353380Y-73431722D01*
X184353380Y-73274038D01*
X184353380Y-73274035D01*
X184353379Y-73274033D01*
X184322618Y-73119390D01*
X184322617Y-73119383D01*
X184287039Y-73033489D01*
X184262277Y-72973707D01*
X184262270Y-72973694D01*
X184174669Y-72842591D01*
X184174666Y-72842587D01*
X184063172Y-72731093D01*
X184063168Y-72731090D01*
X183932065Y-72643489D01*
X183932052Y-72643482D01*
X183786381Y-72583144D01*
X183786369Y-72583141D01*
X183631725Y-72552380D01*
X183631722Y-72552380D01*
X183474038Y-72552380D01*
X183474035Y-72552380D01*
X183319390Y-72583141D01*
X183319378Y-72583144D01*
X183173707Y-72643482D01*
X183173694Y-72643489D01*
X183042591Y-72731090D01*
X183042587Y-72731093D01*
X182931093Y-72842587D01*
X182931090Y-72842591D01*
X182843489Y-72973694D01*
X182843482Y-72973707D01*
X182783144Y-73119378D01*
X182783141Y-73119390D01*
X182752380Y-73274033D01*
X179000500Y-73274033D01*
X179000500Y-72194168D01*
X179020185Y-72127129D01*
X179072989Y-72081374D01*
X179142147Y-72071430D01*
X179193392Y-72091067D01*
X179220812Y-72109389D01*
X179220827Y-72109397D01*
X179366498Y-72169735D01*
X179366503Y-72169737D01*
X179521153Y-72200499D01*
X179521156Y-72200500D01*
X179521158Y-72200500D01*
X179678844Y-72200500D01*
X179678845Y-72200499D01*
X179833497Y-72169737D01*
X179946358Y-72122989D01*
X179979172Y-72109397D01*
X179979172Y-72109396D01*
X179979179Y-72109394D01*
X180110289Y-72021789D01*
X180221789Y-71910289D01*
X180309394Y-71779179D01*
X180314643Y-71766508D01*
X180369735Y-71633501D01*
X180369737Y-71633497D01*
X180400500Y-71478842D01*
X180400500Y-71321158D01*
X180400500Y-71321155D01*
X180400499Y-71321153D01*
X180393287Y-71284898D01*
X180369737Y-71166503D01*
X180369735Y-71166498D01*
X180309397Y-71020827D01*
X180309390Y-71020814D01*
X180221789Y-70889711D01*
X180221786Y-70889707D01*
X180110292Y-70778213D01*
X180110288Y-70778210D01*
X179979185Y-70690609D01*
X179979172Y-70690602D01*
X179833501Y-70630264D01*
X179833489Y-70630261D01*
X179678845Y-70599500D01*
X179678842Y-70599500D01*
X179521158Y-70599500D01*
X179521155Y-70599500D01*
X179366510Y-70630261D01*
X179366498Y-70630264D01*
X179220827Y-70690602D01*
X179220816Y-70690608D01*
X179193390Y-70708934D01*
X179126712Y-70729811D01*
X179059332Y-70711326D01*
X179012643Y-70659346D01*
X179000500Y-70605831D01*
X179000500Y-70336132D01*
X179020185Y-70269093D01*
X179072989Y-70223338D01*
X179124500Y-70212132D01*
X179243255Y-70212132D01*
X179243256Y-70212131D01*
X179397908Y-70181369D01*
X179543590Y-70121026D01*
X179674700Y-70033421D01*
X179786200Y-69921921D01*
X179873805Y-69790811D01*
X179882535Y-69769736D01*
X179911213Y-69700500D01*
X179934148Y-69645129D01*
X179964911Y-69490474D01*
X179964911Y-69332790D01*
X179964911Y-69332787D01*
X179964910Y-69332785D01*
X179954414Y-69280017D01*
X179934148Y-69178135D01*
X179934146Y-69178130D01*
X179873808Y-69032459D01*
X179873801Y-69032446D01*
X179786200Y-68901343D01*
X179786197Y-68901339D01*
X179674703Y-68789845D01*
X179674699Y-68789842D01*
X179543596Y-68702241D01*
X179543583Y-68702234D01*
X179397912Y-68641896D01*
X179397900Y-68641893D01*
X179243256Y-68611132D01*
X179243253Y-68611132D01*
X179119815Y-68611132D01*
X179052776Y-68591447D01*
X179007021Y-68538643D01*
X179000043Y-68519236D01*
X178959577Y-68368216D01*
X178941155Y-68336308D01*
X178880524Y-68231290D01*
X178880518Y-68231282D01*
X178415734Y-67766498D01*
X177863068Y-67213832D01*
X179209500Y-67213832D01*
X179209500Y-67371525D01*
X179240261Y-67526168D01*
X179240264Y-67526180D01*
X179300602Y-67671851D01*
X179300609Y-67671864D01*
X179388210Y-67802967D01*
X179388213Y-67802971D01*
X179499707Y-67914465D01*
X179499711Y-67914468D01*
X179630814Y-68002069D01*
X179630827Y-68002076D01*
X179769207Y-68059394D01*
X179776503Y-68062416D01*
X179931153Y-68093178D01*
X179931156Y-68093179D01*
X179931158Y-68093179D01*
X180088844Y-68093179D01*
X180088845Y-68093178D01*
X180243497Y-68062416D01*
X180389179Y-68002073D01*
X180520289Y-67914468D01*
X180631789Y-67802968D01*
X180719394Y-67671858D01*
X180779737Y-67526176D01*
X180810500Y-67371521D01*
X180810500Y-67213837D01*
X180810500Y-67213834D01*
X180810499Y-67213832D01*
X180803606Y-67179179D01*
X180779737Y-67059182D01*
X180764670Y-67022806D01*
X180719397Y-66913506D01*
X180719390Y-66913493D01*
X180631789Y-66782390D01*
X180631786Y-66782386D01*
X180520292Y-66670892D01*
X180520288Y-66670889D01*
X180389185Y-66583288D01*
X180389172Y-66583281D01*
X180243501Y-66522943D01*
X180243489Y-66522940D01*
X180088845Y-66492179D01*
X180088842Y-66492179D01*
X179931158Y-66492179D01*
X179931155Y-66492179D01*
X179776510Y-66522940D01*
X179776498Y-66522943D01*
X179630827Y-66583281D01*
X179630814Y-66583288D01*
X179499711Y-66670889D01*
X179499707Y-66670892D01*
X179388213Y-66782386D01*
X179388210Y-66782390D01*
X179300609Y-66913493D01*
X179300602Y-66913506D01*
X179240264Y-67059177D01*
X179240261Y-67059189D01*
X179209500Y-67213832D01*
X177863068Y-67213832D01*
X177287589Y-66638354D01*
X177287588Y-66638352D01*
X177168717Y-66519481D01*
X177168716Y-66519480D01*
X177081904Y-66469360D01*
X177081904Y-66469359D01*
X177081900Y-66469358D01*
X177031785Y-66440423D01*
X176879057Y-66399499D01*
X176720943Y-66399499D01*
X176713347Y-66399499D01*
X176713331Y-66399500D01*
X170779766Y-66399500D01*
X170712727Y-66379815D01*
X170710875Y-66378602D01*
X170579185Y-66290609D01*
X170579172Y-66290602D01*
X170433501Y-66230264D01*
X170433489Y-66230261D01*
X170278845Y-66199500D01*
X170278842Y-66199500D01*
X170121158Y-66199500D01*
X170121155Y-66199500D01*
X169966510Y-66230261D01*
X169966498Y-66230264D01*
X169820827Y-66290602D01*
X169820814Y-66290609D01*
X169689711Y-66378210D01*
X169689707Y-66378213D01*
X169578213Y-66489707D01*
X169578210Y-66489711D01*
X169490609Y-66620814D01*
X169490602Y-66620827D01*
X169430264Y-66766498D01*
X169430261Y-66766510D01*
X169399500Y-66921153D01*
X169399500Y-67078846D01*
X169430260Y-67233488D01*
X169432030Y-67239320D01*
X169430391Y-67239817D01*
X169436985Y-67301170D01*
X169405707Y-67363648D01*
X169393631Y-67374993D01*
X169389717Y-67378205D01*
X169278209Y-67489712D01*
X169190609Y-67620814D01*
X169190602Y-67620827D01*
X169130264Y-67766498D01*
X169130261Y-67766510D01*
X169099500Y-67921153D01*
X163500500Y-67921153D01*
X163500500Y-64321153D01*
X179199500Y-64321153D01*
X179199500Y-64478846D01*
X179230261Y-64633489D01*
X179230264Y-64633501D01*
X179290602Y-64779172D01*
X179290609Y-64779185D01*
X179378210Y-64910288D01*
X179378213Y-64910292D01*
X179489707Y-65021786D01*
X179489711Y-65021789D01*
X179620814Y-65109390D01*
X179620827Y-65109397D01*
X179764038Y-65168716D01*
X179766503Y-65169737D01*
X179915769Y-65199428D01*
X179921153Y-65200499D01*
X179921156Y-65200500D01*
X179921158Y-65200500D01*
X180078844Y-65200500D01*
X180078845Y-65200499D01*
X180233497Y-65169737D01*
X180379179Y-65109394D01*
X180510289Y-65021789D01*
X180621789Y-64910289D01*
X180709394Y-64779179D01*
X180769737Y-64633497D01*
X180800500Y-64478842D01*
X180800500Y-64321158D01*
X180800500Y-64321155D01*
X180800499Y-64321153D01*
X180780734Y-64221789D01*
X180769737Y-64166503D01*
X180769735Y-64166498D01*
X180709397Y-64020827D01*
X180709390Y-64020814D01*
X180621789Y-63889711D01*
X180621786Y-63889707D01*
X180510292Y-63778213D01*
X180510288Y-63778210D01*
X180379185Y-63690609D01*
X180379172Y-63690602D01*
X180233501Y-63630264D01*
X180233489Y-63630261D01*
X180078845Y-63599500D01*
X180078842Y-63599500D01*
X179921158Y-63599500D01*
X179921155Y-63599500D01*
X179766510Y-63630261D01*
X179766498Y-63630264D01*
X179620827Y-63690602D01*
X179620814Y-63690609D01*
X179489711Y-63778210D01*
X179489707Y-63778213D01*
X179378213Y-63889707D01*
X179378210Y-63889711D01*
X179290609Y-64020814D01*
X179290602Y-64020827D01*
X179230264Y-64166498D01*
X179230261Y-64166510D01*
X179199500Y-64321153D01*
X163500500Y-64321153D01*
X163500500Y-61271153D01*
X173949500Y-61271153D01*
X173949500Y-61428846D01*
X173980261Y-61583489D01*
X173980264Y-61583501D01*
X174040602Y-61729172D01*
X174040609Y-61729185D01*
X174075304Y-61781109D01*
X174096182Y-61847786D01*
X174077698Y-61915167D01*
X174075304Y-61918891D01*
X174040609Y-61970814D01*
X174040602Y-61970827D01*
X173980264Y-62116498D01*
X173980261Y-62116510D01*
X173949500Y-62271153D01*
X173949500Y-62428846D01*
X173980261Y-62583489D01*
X173980264Y-62583501D01*
X174040602Y-62729172D01*
X174040609Y-62729185D01*
X174075304Y-62781109D01*
X174096182Y-62847786D01*
X174077698Y-62915167D01*
X174075304Y-62918891D01*
X174040609Y-62970814D01*
X174040602Y-62970827D01*
X173980264Y-63116498D01*
X173980261Y-63116510D01*
X173949500Y-63271153D01*
X173949500Y-63428846D01*
X173980261Y-63583489D01*
X173980264Y-63583501D01*
X174040602Y-63729172D01*
X174040609Y-63729185D01*
X174128210Y-63860288D01*
X174128213Y-63860292D01*
X174239707Y-63971786D01*
X174239711Y-63971789D01*
X174370814Y-64059390D01*
X174370827Y-64059397D01*
X174516498Y-64119735D01*
X174516503Y-64119737D01*
X174671153Y-64150499D01*
X174671156Y-64150500D01*
X174671158Y-64150500D01*
X174828844Y-64150500D01*
X174828845Y-64150499D01*
X174983497Y-64119737D01*
X175129179Y-64059394D01*
X175260289Y-63971789D01*
X175371789Y-63860289D01*
X175459394Y-63729179D01*
X175519737Y-63583497D01*
X175550500Y-63428842D01*
X175550500Y-63271158D01*
X175550500Y-63271155D01*
X175550499Y-63271153D01*
X175532204Y-63179179D01*
X175519737Y-63116503D01*
X175519735Y-63116498D01*
X175459396Y-62970825D01*
X175459394Y-62970822D01*
X175459394Y-62970821D01*
X175424694Y-62918889D01*
X175403816Y-62852215D01*
X175422300Y-62784835D01*
X175424676Y-62781136D01*
X175459394Y-62729179D01*
X175519737Y-62583497D01*
X175550500Y-62428842D01*
X175550500Y-62271158D01*
X175550500Y-62271155D01*
X175550499Y-62271153D01*
X175538386Y-62210256D01*
X175519737Y-62116503D01*
X175509535Y-62091872D01*
X175459396Y-61970825D01*
X175459394Y-61970822D01*
X175459394Y-61970821D01*
X175424694Y-61918889D01*
X175403816Y-61852215D01*
X175422300Y-61784835D01*
X175424676Y-61781136D01*
X175459394Y-61729179D01*
X175519737Y-61583497D01*
X175550500Y-61428842D01*
X175550500Y-61271158D01*
X175550500Y-61271155D01*
X175550499Y-61271153D01*
X175547780Y-61257482D01*
X175519737Y-61116503D01*
X175517630Y-61111416D01*
X175459397Y-60970827D01*
X175459390Y-60970814D01*
X175371789Y-60839711D01*
X175371786Y-60839707D01*
X175260292Y-60728213D01*
X175260288Y-60728210D01*
X175129185Y-60640609D01*
X175129172Y-60640602D01*
X174983501Y-60580264D01*
X174983489Y-60580261D01*
X174828845Y-60549500D01*
X174828842Y-60549500D01*
X174671158Y-60549500D01*
X174671155Y-60549500D01*
X174516510Y-60580261D01*
X174516498Y-60580264D01*
X174370827Y-60640602D01*
X174370814Y-60640609D01*
X174239711Y-60728210D01*
X174239707Y-60728213D01*
X174128213Y-60839707D01*
X174128210Y-60839711D01*
X174040609Y-60970814D01*
X174040602Y-60970827D01*
X173980264Y-61116498D01*
X173980261Y-61116510D01*
X173949500Y-61271153D01*
X163500500Y-61271153D01*
X163500500Y-57921153D01*
X166399500Y-57921153D01*
X166399500Y-58078846D01*
X166430261Y-58233489D01*
X166430264Y-58233501D01*
X166490602Y-58379172D01*
X166490609Y-58379185D01*
X166578210Y-58510288D01*
X166578213Y-58510292D01*
X166689707Y-58621786D01*
X166689711Y-58621789D01*
X166820814Y-58709390D01*
X166820827Y-58709397D01*
X166966498Y-58769735D01*
X166966503Y-58769737D01*
X167116131Y-58799500D01*
X167121153Y-58800499D01*
X167121156Y-58800500D01*
X167121158Y-58800500D01*
X167278844Y-58800500D01*
X167278845Y-58800499D01*
X167433497Y-58769737D01*
X167551592Y-58720821D01*
X167579172Y-58709397D01*
X167579172Y-58709396D01*
X167579179Y-58709394D01*
X167710289Y-58621789D01*
X167821789Y-58510289D01*
X167909394Y-58379179D01*
X167969737Y-58233497D01*
X167992083Y-58121158D01*
X167992084Y-58121153D01*
X173599500Y-58121153D01*
X173599500Y-58278846D01*
X173630261Y-58433489D01*
X173630264Y-58433501D01*
X173690602Y-58579172D01*
X173690609Y-58579185D01*
X173778210Y-58710288D01*
X173778213Y-58710292D01*
X173889707Y-58821786D01*
X173889711Y-58821789D01*
X174020814Y-58909390D01*
X174020827Y-58909397D01*
X174166498Y-58969735D01*
X174166503Y-58969737D01*
X174321153Y-59000499D01*
X174321156Y-59000500D01*
X174321158Y-59000500D01*
X174478844Y-59000500D01*
X174478845Y-59000499D01*
X174633497Y-58969737D01*
X174751592Y-58920821D01*
X174779172Y-58909397D01*
X174779172Y-58909396D01*
X174779179Y-58909394D01*
X174910289Y-58821789D01*
X175021789Y-58710289D01*
X175109394Y-58579179D01*
X175169737Y-58433497D01*
X175200500Y-58278842D01*
X175200500Y-58121158D01*
X175200500Y-58121155D01*
X175200499Y-58121153D01*
X175200009Y-58118691D01*
X175169737Y-57966503D01*
X175150955Y-57921158D01*
X175109397Y-57820827D01*
X175109390Y-57820814D01*
X175021789Y-57689711D01*
X175021786Y-57689707D01*
X174910292Y-57578213D01*
X174910288Y-57578210D01*
X174779185Y-57490609D01*
X174779172Y-57490602D01*
X174633501Y-57430264D01*
X174633489Y-57430261D01*
X174478845Y-57399500D01*
X174478842Y-57399500D01*
X174321158Y-57399500D01*
X174321155Y-57399500D01*
X174166510Y-57430261D01*
X174166498Y-57430264D01*
X174020827Y-57490602D01*
X174020814Y-57490609D01*
X173889711Y-57578210D01*
X173889707Y-57578213D01*
X173778213Y-57689707D01*
X173778210Y-57689711D01*
X173690609Y-57820814D01*
X173690602Y-57820827D01*
X173630264Y-57966498D01*
X173630261Y-57966510D01*
X173599500Y-58121153D01*
X167992084Y-58121153D01*
X167998107Y-58090875D01*
X167998107Y-58090874D01*
X168000500Y-58078844D01*
X168000500Y-57921155D01*
X168000499Y-57921153D01*
X167982204Y-57829179D01*
X167969737Y-57766503D01*
X167969735Y-57766498D01*
X167909397Y-57620827D01*
X167909390Y-57620814D01*
X167821789Y-57489711D01*
X167821786Y-57489707D01*
X167710292Y-57378213D01*
X167710288Y-57378210D01*
X167579185Y-57290609D01*
X167579172Y-57290602D01*
X167433501Y-57230264D01*
X167433489Y-57230261D01*
X167278845Y-57199500D01*
X167278842Y-57199500D01*
X167121158Y-57199500D01*
X167121155Y-57199500D01*
X166966510Y-57230261D01*
X166966498Y-57230264D01*
X166820827Y-57290602D01*
X166820814Y-57290609D01*
X166689711Y-57378210D01*
X166689707Y-57378213D01*
X166578213Y-57489707D01*
X166578210Y-57489711D01*
X166490609Y-57620814D01*
X166490602Y-57620827D01*
X166430264Y-57766498D01*
X166430261Y-57766510D01*
X166399500Y-57921153D01*
X163500500Y-57921153D01*
X163500500Y-55921153D01*
X178199500Y-55921153D01*
X178199500Y-56078846D01*
X178230261Y-56233489D01*
X178230264Y-56233501D01*
X178279574Y-56352548D01*
X178287043Y-56422018D01*
X178279574Y-56447452D01*
X178230264Y-56566498D01*
X178230261Y-56566510D01*
X178199500Y-56721153D01*
X178199500Y-56878846D01*
X178230261Y-57033489D01*
X178230264Y-57033501D01*
X178279574Y-57152548D01*
X178287043Y-57222018D01*
X178279574Y-57247452D01*
X178230264Y-57366498D01*
X178230261Y-57366510D01*
X178199500Y-57521153D01*
X178199500Y-57678846D01*
X178230261Y-57833489D01*
X178230264Y-57833501D01*
X178290602Y-57979172D01*
X178290609Y-57979185D01*
X178378210Y-58110288D01*
X178378213Y-58110292D01*
X178489707Y-58221786D01*
X178489711Y-58221789D01*
X178620814Y-58309390D01*
X178620827Y-58309397D01*
X178761375Y-58367613D01*
X178766503Y-58369737D01*
X178921153Y-58400499D01*
X178921156Y-58400500D01*
X178921158Y-58400500D01*
X179078844Y-58400500D01*
X179078845Y-58400499D01*
X179233497Y-58369737D01*
X179379179Y-58309394D01*
X179510289Y-58221789D01*
X179621789Y-58110289D01*
X179709394Y-57979179D01*
X179769737Y-57833497D01*
X179800500Y-57678842D01*
X179800500Y-57521158D01*
X179800500Y-57521155D01*
X179800499Y-57521153D01*
X179770662Y-57371153D01*
X183149500Y-57371153D01*
X183149500Y-57528846D01*
X183180261Y-57683489D01*
X183180264Y-57683501D01*
X183240602Y-57829172D01*
X183240609Y-57829185D01*
X183328210Y-57960288D01*
X183328213Y-57960292D01*
X183439707Y-58071786D01*
X183439711Y-58071789D01*
X183570814Y-58159390D01*
X183570827Y-58159397D01*
X183691378Y-58209330D01*
X183716503Y-58219737D01*
X183807548Y-58237847D01*
X183871153Y-58250499D01*
X183871156Y-58250500D01*
X183871158Y-58250500D01*
X184028844Y-58250500D01*
X184028845Y-58250499D01*
X184183497Y-58219737D01*
X184329179Y-58159394D01*
X184460289Y-58071789D01*
X184571789Y-57960289D01*
X184659394Y-57829179D01*
X184662854Y-57820827D01*
X184675373Y-57790602D01*
X184719737Y-57683497D01*
X184750500Y-57528842D01*
X184750500Y-57371158D01*
X184750500Y-57371155D01*
X184750499Y-57371153D01*
X184749573Y-57366498D01*
X184719737Y-57216503D01*
X184693246Y-57152548D01*
X184659397Y-57070827D01*
X184659390Y-57070814D01*
X184571789Y-56939711D01*
X184571786Y-56939707D01*
X184460292Y-56828213D01*
X184460288Y-56828210D01*
X184329185Y-56740609D01*
X184329172Y-56740602D01*
X184183501Y-56680264D01*
X184183489Y-56680261D01*
X184028845Y-56649500D01*
X184028842Y-56649500D01*
X183871158Y-56649500D01*
X183871155Y-56649500D01*
X183716510Y-56680261D01*
X183716498Y-56680264D01*
X183570827Y-56740602D01*
X183570814Y-56740609D01*
X183439711Y-56828210D01*
X183439707Y-56828213D01*
X183328213Y-56939707D01*
X183328210Y-56939711D01*
X183240609Y-57070814D01*
X183240602Y-57070827D01*
X183180264Y-57216498D01*
X183180261Y-57216510D01*
X183149500Y-57371153D01*
X179770662Y-57371153D01*
X179769737Y-57366503D01*
X179720425Y-57247452D01*
X179712956Y-57177983D01*
X179720425Y-57152548D01*
X179737943Y-57110255D01*
X179769737Y-57033497D01*
X179800500Y-56878842D01*
X179800500Y-56721158D01*
X179800500Y-56721155D01*
X179800499Y-56721153D01*
X179778547Y-56610793D01*
X179769737Y-56566503D01*
X179720425Y-56447452D01*
X179712956Y-56377983D01*
X179720425Y-56352548D01*
X179769735Y-56233501D01*
X179769737Y-56233497D01*
X179800500Y-56078842D01*
X179800500Y-55921158D01*
X179800500Y-55921155D01*
X179800499Y-55921153D01*
X179790553Y-55871153D01*
X179769737Y-55766503D01*
X179769735Y-55766498D01*
X179709397Y-55620827D01*
X179709390Y-55620814D01*
X179621789Y-55489711D01*
X179621786Y-55489707D01*
X179510292Y-55378213D01*
X179510288Y-55378210D01*
X179379185Y-55290609D01*
X179379172Y-55290602D01*
X179233501Y-55230264D01*
X179233489Y-55230261D01*
X179078845Y-55199500D01*
X179078842Y-55199500D01*
X178921158Y-55199500D01*
X178921155Y-55199500D01*
X178766510Y-55230261D01*
X178766498Y-55230264D01*
X178620827Y-55290602D01*
X178620814Y-55290609D01*
X178489711Y-55378210D01*
X178489707Y-55378213D01*
X178378213Y-55489707D01*
X178378210Y-55489711D01*
X178290609Y-55620814D01*
X178290602Y-55620827D01*
X178230264Y-55766498D01*
X178230261Y-55766510D01*
X178199500Y-55921153D01*
X163500500Y-55921153D01*
X163500500Y-52227525D01*
X168159500Y-52227525D01*
X168159500Y-52372475D01*
X168197016Y-52512485D01*
X168197017Y-52512488D01*
X168269488Y-52638011D01*
X168269490Y-52638013D01*
X168269491Y-52638015D01*
X168371985Y-52740509D01*
X168371986Y-52740510D01*
X168371988Y-52740511D01*
X168497511Y-52812982D01*
X168497512Y-52812982D01*
X168497515Y-52812984D01*
X168637525Y-52850500D01*
X168637528Y-52850500D01*
X168782472Y-52850500D01*
X168782475Y-52850500D01*
X168922485Y-52812984D01*
X169048015Y-52740509D01*
X169150509Y-52638015D01*
X169222984Y-52512485D01*
X169260500Y-52372475D01*
X169260500Y-52227525D01*
X173939500Y-52227525D01*
X173939500Y-52372475D01*
X173977016Y-52512485D01*
X173977017Y-52512488D01*
X174049488Y-52638011D01*
X174049490Y-52638013D01*
X174049491Y-52638015D01*
X174151985Y-52740509D01*
X174151986Y-52740510D01*
X174151988Y-52740511D01*
X174277511Y-52812982D01*
X174277512Y-52812982D01*
X174277515Y-52812984D01*
X174417525Y-52850500D01*
X174417528Y-52850500D01*
X174562472Y-52850500D01*
X174562475Y-52850500D01*
X174702485Y-52812984D01*
X174828015Y-52740509D01*
X174930509Y-52638015D01*
X174997980Y-52521153D01*
X214214500Y-52521153D01*
X214214500Y-52678846D01*
X214245261Y-52833489D01*
X214245264Y-52833501D01*
X214305602Y-52979172D01*
X214305609Y-52979185D01*
X214393210Y-53110288D01*
X214393213Y-53110292D01*
X214504707Y-53221786D01*
X214504711Y-53221789D01*
X214635814Y-53309390D01*
X214635827Y-53309397D01*
X214781498Y-53369735D01*
X214781503Y-53369737D01*
X214936153Y-53400499D01*
X214936156Y-53400500D01*
X214936158Y-53400500D01*
X215093844Y-53400500D01*
X215093845Y-53400499D01*
X215248497Y-53369737D01*
X215394179Y-53309394D01*
X215525289Y-53221789D01*
X215636789Y-53110289D01*
X215724394Y-52979179D01*
X215784737Y-52833497D01*
X215815500Y-52678842D01*
X215815500Y-52521158D01*
X215815500Y-52521155D01*
X215815499Y-52521153D01*
X215784738Y-52366510D01*
X215784737Y-52366503D01*
X215727171Y-52227525D01*
X215724397Y-52220827D01*
X215724390Y-52220814D01*
X215636789Y-52089711D01*
X215636786Y-52089707D01*
X215525292Y-51978213D01*
X215525288Y-51978210D01*
X215394185Y-51890609D01*
X215394172Y-51890602D01*
X215248501Y-51830264D01*
X215248489Y-51830261D01*
X215093845Y-51799500D01*
X215093842Y-51799500D01*
X214936158Y-51799500D01*
X214936155Y-51799500D01*
X214781510Y-51830261D01*
X214781498Y-51830264D01*
X214635827Y-51890602D01*
X214635814Y-51890609D01*
X214504711Y-51978210D01*
X214504707Y-51978213D01*
X214393213Y-52089707D01*
X214393210Y-52089711D01*
X214305609Y-52220814D01*
X214305602Y-52220827D01*
X214245264Y-52366498D01*
X214245261Y-52366510D01*
X214214500Y-52521153D01*
X174997980Y-52521153D01*
X175002984Y-52512485D01*
X175040500Y-52372475D01*
X175040500Y-52227525D01*
X175002984Y-52087515D01*
X174939878Y-51978213D01*
X174930511Y-51961988D01*
X174930506Y-51961982D01*
X174828017Y-51859493D01*
X174828011Y-51859488D01*
X174702488Y-51787017D01*
X174702489Y-51787017D01*
X174691006Y-51783940D01*
X174562475Y-51749500D01*
X174417525Y-51749500D01*
X174288993Y-51783940D01*
X174277511Y-51787017D01*
X174151988Y-51859488D01*
X174151982Y-51859493D01*
X174049493Y-51961982D01*
X174049488Y-51961988D01*
X173977017Y-52087511D01*
X173977016Y-52087515D01*
X173939500Y-52227525D01*
X169260500Y-52227525D01*
X169222984Y-52087515D01*
X169159878Y-51978213D01*
X169150511Y-51961988D01*
X169150506Y-51961982D01*
X169048017Y-51859493D01*
X169048011Y-51859488D01*
X168922488Y-51787017D01*
X168922489Y-51787017D01*
X168911006Y-51783940D01*
X168782475Y-51749500D01*
X168637525Y-51749500D01*
X168508993Y-51783940D01*
X168497511Y-51787017D01*
X168371988Y-51859488D01*
X168371982Y-51859493D01*
X168269493Y-51961982D01*
X168269488Y-51961988D01*
X168197017Y-52087511D01*
X168197016Y-52087515D01*
X168159500Y-52227525D01*
X163500500Y-52227525D01*
X163500500Y-50787375D01*
X180799500Y-50787375D01*
X180799500Y-50945068D01*
X180830261Y-51099711D01*
X180830264Y-51099723D01*
X180890602Y-51245394D01*
X180890609Y-51245407D01*
X180978210Y-51376510D01*
X180978213Y-51376514D01*
X181089707Y-51488008D01*
X181089711Y-51488011D01*
X181220814Y-51575612D01*
X181220827Y-51575619D01*
X181366498Y-51635957D01*
X181366503Y-51635959D01*
X181521153Y-51666721D01*
X181521156Y-51666722D01*
X181521158Y-51666722D01*
X181678844Y-51666722D01*
X181678845Y-51666721D01*
X181833497Y-51635959D01*
X181979179Y-51575616D01*
X182036044Y-51537619D01*
X182102721Y-51516742D01*
X182104935Y-51516722D01*
X183833714Y-51516722D01*
X183918258Y-51499904D01*
X183959387Y-51491723D01*
X184077770Y-51442687D01*
X184184312Y-51371499D01*
X184316228Y-51239581D01*
X184377549Y-51206098D01*
X184379635Y-51205663D01*
X184446794Y-51192305D01*
X184592476Y-51131962D01*
X184723586Y-51044357D01*
X184835086Y-50932857D01*
X184922691Y-50801747D01*
X184983034Y-50656065D01*
X185013797Y-50501410D01*
X185013797Y-50343726D01*
X185013797Y-50343723D01*
X185013796Y-50343721D01*
X184983034Y-50189071D01*
X184962366Y-50139174D01*
X184922694Y-50043395D01*
X184922687Y-50043382D01*
X184835086Y-49912279D01*
X184835083Y-49912275D01*
X184723589Y-49800781D01*
X184723585Y-49800778D01*
X184592482Y-49713177D01*
X184592469Y-49713170D01*
X184446798Y-49652832D01*
X184446786Y-49652829D01*
X184292142Y-49622068D01*
X184292139Y-49622068D01*
X184134455Y-49622068D01*
X184134452Y-49622068D01*
X183979807Y-49652829D01*
X183979795Y-49652832D01*
X183834124Y-49713170D01*
X183834111Y-49713177D01*
X183703008Y-49800778D01*
X183703004Y-49800781D01*
X183591510Y-49912275D01*
X183591507Y-49912279D01*
X183503906Y-50043382D01*
X183503899Y-50043394D01*
X183464228Y-50139174D01*
X183420388Y-50193578D01*
X183354094Y-50215643D01*
X183349667Y-50215722D01*
X182104935Y-50215722D01*
X182037896Y-50196037D01*
X182036090Y-50194855D01*
X181979179Y-50156828D01*
X181979172Y-50156824D01*
X181833501Y-50096486D01*
X181833489Y-50096483D01*
X181678845Y-50065722D01*
X181678842Y-50065722D01*
X181521158Y-50065722D01*
X181521155Y-50065722D01*
X181366510Y-50096483D01*
X181366498Y-50096486D01*
X181220827Y-50156824D01*
X181220814Y-50156831D01*
X181089711Y-50244432D01*
X181089707Y-50244435D01*
X180978213Y-50355929D01*
X180978210Y-50355933D01*
X180890609Y-50487036D01*
X180890602Y-50487049D01*
X180830264Y-50632720D01*
X180830261Y-50632732D01*
X180799500Y-50787375D01*
X163500500Y-50787375D01*
X163500500Y-48721153D01*
X180799500Y-48721153D01*
X180799500Y-48878846D01*
X180830261Y-49033489D01*
X180830264Y-49033501D01*
X180890602Y-49179172D01*
X180890609Y-49179185D01*
X180978210Y-49310288D01*
X180978213Y-49310292D01*
X181089707Y-49421786D01*
X181089711Y-49421789D01*
X181220814Y-49509390D01*
X181220827Y-49509397D01*
X181366498Y-49569735D01*
X181366503Y-49569737D01*
X181521153Y-49600499D01*
X181521156Y-49600500D01*
X181521158Y-49600500D01*
X181678844Y-49600500D01*
X181678845Y-49600499D01*
X181833497Y-49569737D01*
X181979179Y-49509394D01*
X182110289Y-49421789D01*
X182221789Y-49310289D01*
X182309394Y-49179179D01*
X182369737Y-49033497D01*
X182379950Y-48982154D01*
X182412334Y-48920243D01*
X182473050Y-48885669D01*
X182542819Y-48889408D01*
X182548992Y-48891773D01*
X182616503Y-48919737D01*
X182771153Y-48950499D01*
X182771156Y-48950500D01*
X182771158Y-48950500D01*
X182928844Y-48950500D01*
X182928845Y-48950499D01*
X183083497Y-48919737D01*
X183229179Y-48859394D01*
X183360289Y-48771789D01*
X183471789Y-48660289D01*
X183559394Y-48529179D01*
X183605200Y-48418592D01*
X217073500Y-48418592D01*
X217073500Y-48581407D01*
X217105259Y-48741073D01*
X217105262Y-48741082D01*
X217167562Y-48891490D01*
X217167563Y-48891492D01*
X217258015Y-49026862D01*
X217258018Y-49026866D01*
X217373133Y-49141981D01*
X217373137Y-49141984D01*
X217508505Y-49232435D01*
X217508506Y-49232435D01*
X217508507Y-49232436D01*
X217508509Y-49232437D01*
X217608781Y-49273970D01*
X217658919Y-49294738D01*
X217658921Y-49294738D01*
X217658926Y-49294740D01*
X217818592Y-49326499D01*
X217818595Y-49326500D01*
X217818597Y-49326500D01*
X217981405Y-49326500D01*
X217981406Y-49326499D01*
X218062886Y-49310292D01*
X218141073Y-49294740D01*
X218141076Y-49294738D01*
X218141081Y-49294738D01*
X218291495Y-49232435D01*
X218426863Y-49141984D01*
X218541984Y-49026863D01*
X218632435Y-48891495D01*
X218694738Y-48741081D01*
X218698702Y-48721153D01*
X218726000Y-48583920D01*
X218726000Y-48583916D01*
X218726500Y-48581403D01*
X218726500Y-48418597D01*
X218973500Y-48418597D01*
X218973500Y-48581403D01*
X218974000Y-48583916D01*
X218974000Y-48583920D01*
X219005259Y-48741073D01*
X219005262Y-48741082D01*
X219067562Y-48891490D01*
X219067563Y-48891492D01*
X219158015Y-49026862D01*
X219158018Y-49026866D01*
X219273133Y-49141981D01*
X219273137Y-49141984D01*
X219408505Y-49232435D01*
X219408506Y-49232435D01*
X219408507Y-49232436D01*
X219408509Y-49232437D01*
X219508781Y-49273970D01*
X219558919Y-49294738D01*
X219558921Y-49294738D01*
X219558926Y-49294740D01*
X219718592Y-49326499D01*
X219718595Y-49326500D01*
X219718597Y-49326500D01*
X219881405Y-49326500D01*
X219881406Y-49326499D01*
X219962886Y-49310292D01*
X220041073Y-49294740D01*
X220041076Y-49294738D01*
X220041081Y-49294738D01*
X220191495Y-49232435D01*
X220326863Y-49141984D01*
X220441984Y-49026863D01*
X220532435Y-48891495D01*
X220594738Y-48741081D01*
X220598702Y-48721153D01*
X220626000Y-48583920D01*
X220626000Y-48583916D01*
X220626500Y-48581403D01*
X220626500Y-48418597D01*
X220873500Y-48418597D01*
X220873500Y-48581403D01*
X220874000Y-48583916D01*
X220874000Y-48583920D01*
X220905259Y-48741073D01*
X220905262Y-48741082D01*
X220967562Y-48891490D01*
X220967563Y-48891492D01*
X221058015Y-49026862D01*
X221058018Y-49026866D01*
X221173133Y-49141981D01*
X221173137Y-49141984D01*
X221308505Y-49232435D01*
X221308506Y-49232435D01*
X221308507Y-49232436D01*
X221308509Y-49232437D01*
X221408781Y-49273970D01*
X221458919Y-49294738D01*
X221458921Y-49294738D01*
X221458926Y-49294740D01*
X221618592Y-49326499D01*
X221618595Y-49326500D01*
X221618597Y-49326500D01*
X221781405Y-49326500D01*
X221781406Y-49326499D01*
X221862886Y-49310292D01*
X221941073Y-49294740D01*
X221941076Y-49294738D01*
X221941081Y-49294738D01*
X222091495Y-49232435D01*
X222226863Y-49141984D01*
X222341984Y-49026863D01*
X222432435Y-48891495D01*
X222494738Y-48741081D01*
X222526500Y-48581403D01*
X222526500Y-48418597D01*
X222526500Y-48418594D01*
X222526499Y-48418592D01*
X222494740Y-48258926D01*
X222494737Y-48258917D01*
X222432437Y-48108509D01*
X222432436Y-48108507D01*
X222402918Y-48064331D01*
X222341984Y-47973137D01*
X222341981Y-47973133D01*
X222226866Y-47858018D01*
X222226862Y-47858015D01*
X222091492Y-47767563D01*
X222091490Y-47767562D01*
X221941082Y-47705262D01*
X221941073Y-47705259D01*
X221781406Y-47673500D01*
X221781403Y-47673500D01*
X221618597Y-47673500D01*
X221618594Y-47673500D01*
X221458926Y-47705259D01*
X221458917Y-47705262D01*
X221308509Y-47767562D01*
X221308507Y-47767563D01*
X221173137Y-47858015D01*
X221173133Y-47858018D01*
X221058018Y-47973133D01*
X221058015Y-47973137D01*
X220967563Y-48108507D01*
X220967562Y-48108509D01*
X220905262Y-48258917D01*
X220905259Y-48258926D01*
X220874000Y-48416079D01*
X220874000Y-48416083D01*
X220873500Y-48418597D01*
X220626500Y-48418597D01*
X220626000Y-48416083D01*
X220626000Y-48416079D01*
X220594740Y-48258926D01*
X220594737Y-48258917D01*
X220532437Y-48108509D01*
X220532436Y-48108507D01*
X220502918Y-48064331D01*
X220441984Y-47973137D01*
X220441981Y-47973133D01*
X220326866Y-47858018D01*
X220326862Y-47858015D01*
X220191492Y-47767563D01*
X220191490Y-47767562D01*
X220041082Y-47705262D01*
X220041073Y-47705259D01*
X219881406Y-47673500D01*
X219881403Y-47673500D01*
X219718597Y-47673500D01*
X219718594Y-47673500D01*
X219558926Y-47705259D01*
X219558917Y-47705262D01*
X219408509Y-47767562D01*
X219408507Y-47767563D01*
X219273137Y-47858015D01*
X219273133Y-47858018D01*
X219158018Y-47973133D01*
X219158015Y-47973137D01*
X219067563Y-48108507D01*
X219067562Y-48108509D01*
X219005262Y-48258917D01*
X219005259Y-48258926D01*
X218974000Y-48416079D01*
X218974000Y-48416083D01*
X218973500Y-48418597D01*
X218726500Y-48418597D01*
X218726000Y-48416083D01*
X218726000Y-48416079D01*
X218694740Y-48258926D01*
X218694737Y-48258917D01*
X218632437Y-48108509D01*
X218632436Y-48108507D01*
X218602918Y-48064331D01*
X218541984Y-47973137D01*
X218541981Y-47973133D01*
X218426866Y-47858018D01*
X218426862Y-47858015D01*
X218291492Y-47767563D01*
X218291490Y-47767562D01*
X218141082Y-47705262D01*
X218141073Y-47705259D01*
X217981406Y-47673500D01*
X217981403Y-47673500D01*
X217818597Y-47673500D01*
X217818594Y-47673500D01*
X217658926Y-47705259D01*
X217658917Y-47705262D01*
X217508509Y-47767562D01*
X217508507Y-47767563D01*
X217373137Y-47858015D01*
X217373133Y-47858018D01*
X217258018Y-47973133D01*
X217258015Y-47973137D01*
X217167563Y-48108507D01*
X217167562Y-48108509D01*
X217105262Y-48258917D01*
X217105259Y-48258926D01*
X217073500Y-48418592D01*
X183605200Y-48418592D01*
X183619737Y-48383497D01*
X183650500Y-48228842D01*
X183650500Y-48071158D01*
X183650500Y-48071155D01*
X183650499Y-48071153D01*
X183619738Y-47916510D01*
X183619737Y-47916503D01*
X183595511Y-47858015D01*
X183559397Y-47770827D01*
X183559390Y-47770814D01*
X183471789Y-47639711D01*
X183471786Y-47639707D01*
X183360292Y-47528213D01*
X183360288Y-47528210D01*
X183229185Y-47440609D01*
X183229172Y-47440602D01*
X183083501Y-47380264D01*
X183083489Y-47380261D01*
X182928845Y-47349500D01*
X182928842Y-47349500D01*
X182771158Y-47349500D01*
X182771155Y-47349500D01*
X182616510Y-47380261D01*
X182616498Y-47380264D01*
X182470827Y-47440602D01*
X182470814Y-47440609D01*
X182339711Y-47528210D01*
X182339707Y-47528213D01*
X182228213Y-47639707D01*
X182228210Y-47639711D01*
X182140609Y-47770814D01*
X182140602Y-47770827D01*
X182080264Y-47916498D01*
X182080261Y-47916507D01*
X182070049Y-47967847D01*
X182037663Y-48029758D01*
X181976947Y-48064331D01*
X181907177Y-48060590D01*
X181900987Y-48058218D01*
X181833497Y-48030263D01*
X181833489Y-48030261D01*
X181678845Y-47999500D01*
X181678842Y-47999500D01*
X181521158Y-47999500D01*
X181521155Y-47999500D01*
X181366510Y-48030261D01*
X181366498Y-48030264D01*
X181220827Y-48090602D01*
X181220814Y-48090609D01*
X181089711Y-48178210D01*
X181089707Y-48178213D01*
X180978213Y-48289707D01*
X180978210Y-48289711D01*
X180890609Y-48420814D01*
X180890602Y-48420827D01*
X180830264Y-48566498D01*
X180830261Y-48566510D01*
X180799500Y-48721153D01*
X163500500Y-48721153D01*
X163500500Y-46624500D01*
X163520185Y-46557461D01*
X163572989Y-46511706D01*
X163624500Y-46500500D01*
X223775499Y-46500500D01*
X223842538Y-46520185D01*
G37*
%TD.AperFunction*%
%TD*%
M02*
