%TF.GenerationSoftware,KiCad,Pcbnew,10.0.2*%
%TF.CreationDate,2026-05-13T13:37:37+08:00*%
%TF.ProjectId,feather,66656174-6865-4722-9e6b-696361645f70,rev?*%
%TF.SameCoordinates,Original*%
%TF.FileFunction,Paste,Top*%
%TF.FilePolarity,Positive*%
%FSLAX46Y46*%
G04 Gerber Fmt 4.6, Leading zero omitted, Abs format (unit mm)*
G04 Created by KiCad (PCBNEW 10.0.2) date 2026-05-13 13:37:37*
%MOMM*%
%LPD*%
G01*
G04 APERTURE LIST*
G04 Aperture macros list*
%AMRoundRect*
0 Rectangle with rounded corners*
0 $1 Rounding radius*
0 $2 $3 $4 $5 $6 $7 $8 $9 X,Y pos of 4 corners*
0 Add a 4 corners polygon primitive as box body*
4,1,4,$2,$3,$4,$5,$6,$7,$8,$9,$2,$3,0*
0 Add four circle primitives for the rounded corners*
1,1,$1+$1,$2,$3*
1,1,$1+$1,$4,$5*
1,1,$1+$1,$6,$7*
1,1,$1+$1,$8,$9*
0 Add four rect primitives between the rounded corners*
20,1,$1+$1,$2,$3,$4,$5,0*
20,1,$1+$1,$4,$5,$6,$7,0*
20,1,$1+$1,$6,$7,$8,$9,0*
20,1,$1+$1,$8,$9,$2,$3,0*%
G04 Aperture macros list end*
%ADD10C,0.010000*%
%ADD11RoundRect,0.140000X-0.170000X0.140000X-0.170000X-0.140000X0.170000X-0.140000X0.170000X0.140000X0*%
%ADD12RoundRect,0.140000X0.170000X-0.140000X0.170000X0.140000X-0.170000X0.140000X-0.170000X-0.140000X0*%
%ADD13RoundRect,0.200000X0.200000X0.275000X-0.200000X0.275000X-0.200000X-0.275000X0.200000X-0.275000X0*%
%ADD14RoundRect,0.140000X-0.140000X-0.170000X0.140000X-0.170000X0.140000X0.170000X-0.140000X0.170000X0*%
%ADD15RoundRect,0.140000X0.140000X0.170000X-0.140000X0.170000X-0.140000X-0.170000X0.140000X-0.170000X0*%
%ADD16RoundRect,0.220000X-0.220000X-0.255000X0.220000X-0.255000X0.220000X0.255000X-0.220000X0.255000X0*%
%ADD17RoundRect,0.200000X0.275000X-0.200000X0.275000X0.200000X-0.275000X0.200000X-0.275000X-0.200000X0*%
%ADD18R,0.300000X1.400000*%
%ADD19R,0.500000X1.400000*%
%ADD20RoundRect,0.500000X2.000000X1.000000X-2.000000X1.000000X-2.000000X-1.000000X2.000000X-1.000000X0*%
%ADD21RoundRect,0.172500X0.262500X0.172500X-0.262500X0.172500X-0.262500X-0.172500X0.262500X-0.172500X0*%
%ADD22RoundRect,0.093750X0.093750X0.106250X-0.093750X0.106250X-0.093750X-0.106250X0.093750X-0.106250X0*%
%ADD23RoundRect,0.250000X-0.450000X-0.350000X0.450000X-0.350000X0.450000X0.350000X-0.450000X0.350000X0*%
%ADD24R,0.230000X0.230000*%
%ADD25O,0.800000X0.230000*%
%ADD26R,0.680000X1.050000*%
%ADD27R,0.260000X0.500000*%
%ADD28RoundRect,0.050400X-0.249600X-0.069600X0.249600X-0.069600X0.249600X0.069600X-0.249600X0.069600X0*%
%ADD29RoundRect,0.050400X-0.069600X-0.249600X0.069600X-0.249600X0.069600X0.249600X-0.069600X0.249600X0*%
%ADD30RoundRect,0.050000X-0.075000X-0.075000X0.075000X-0.075000X0.075000X0.075000X-0.075000X0.075000X0*%
%ADD31RoundRect,0.200000X-0.200000X-0.275000X0.200000X-0.275000X0.200000X0.275000X-0.200000X0.275000X0*%
%ADD32RoundRect,0.217500X0.302500X0.217500X-0.302500X0.217500X-0.302500X-0.217500X0.302500X-0.217500X0*%
%ADD33RoundRect,0.062500X0.425000X0.062500X-0.425000X0.062500X-0.425000X-0.062500X0.425000X-0.062500X0*%
%ADD34RoundRect,0.052500X0.197500X-0.097500X0.197500X0.097500X-0.197500X0.097500X-0.197500X-0.097500X0*%
%ADD35R,0.800000X0.950000*%
%ADD36RoundRect,0.062500X0.062500X-0.187500X0.062500X0.187500X-0.062500X0.187500X-0.062500X-0.187500X0*%
%ADD37R,0.800000X1.524000*%
%ADD38RoundRect,0.218750X-0.256250X0.218750X-0.256250X-0.218750X0.256250X-0.218750X0.256250X0.218750X0*%
%ADD39RoundRect,0.200000X-0.275000X0.200000X-0.275000X-0.200000X0.275000X-0.200000X0.275000X0.200000X0*%
%ADD40R,1.000000X1.600000*%
%ADD41RoundRect,0.052500X-0.197500X0.097500X-0.197500X-0.097500X0.197500X-0.097500X0.197500X0.097500X0*%
%ADD42O,0.230000X0.800000*%
%ADD43R,1.050000X0.680000*%
%ADD44R,0.500000X0.260000*%
%ADD45RoundRect,0.225000X0.225000X0.250000X-0.225000X0.250000X-0.225000X-0.250000X0.225000X-0.250000X0*%
%ADD46RoundRect,0.225000X-0.225000X-0.250000X0.225000X-0.250000X0.225000X0.250000X-0.225000X0.250000X0*%
%ADD47RoundRect,0.217500X-0.217500X0.302500X-0.217500X-0.302500X0.217500X-0.302500X0.217500X0.302500X0*%
%ADD48RoundRect,0.062500X-0.062500X0.425000X-0.062500X-0.425000X0.062500X-0.425000X0.062500X0.425000X0*%
%ADD49RoundRect,0.123750X0.371250X-0.496250X0.371250X0.496250X-0.371250X0.496250X-0.371250X-0.496250X0*%
%ADD50RoundRect,0.073750X0.221250X-0.546250X0.221250X0.546250X-0.221250X0.546250X-0.221250X-0.546250X0*%
%ADD51RoundRect,0.250000X-0.410000X-0.410000X0.410000X-0.410000X0.410000X0.410000X-0.410000X0.410000X0*%
%ADD52RoundRect,0.050000X-0.350000X-0.050000X0.350000X-0.050000X0.350000X0.050000X-0.350000X0.050000X0*%
%ADD53RoundRect,0.050000X-0.050000X-0.350000X0.050000X-0.350000X0.050000X0.350000X-0.050000X0.350000X0*%
%ADD54RoundRect,0.217500X0.217500X-0.302500X0.217500X0.302500X-0.217500X0.302500X-0.217500X-0.302500X0*%
%ADD55RoundRect,0.062500X0.062500X-0.425000X0.062500X0.425000X-0.062500X0.425000X-0.062500X-0.425000X0*%
G04 APERTURE END LIST*
D10*
%TO.C,U3*%
X137185000Y-112550000D02*
X137185000Y-111710000D01*
X137185000Y-111707000D01*
X137185000Y-111705000D01*
X137186000Y-111702000D01*
X137186000Y-111700000D01*
X137187000Y-111697000D01*
X137187000Y-111695000D01*
X137188000Y-111692000D01*
X137189000Y-111690000D01*
X137190000Y-111687000D01*
X137192000Y-111685000D01*
X137193000Y-111683000D01*
X137195000Y-111681000D01*
X137196000Y-111679000D01*
X137198000Y-111677000D01*
X137200000Y-111675000D01*
X137202000Y-111673000D01*
X137204000Y-111671000D01*
X137206000Y-111670000D01*
X137208000Y-111668000D01*
X137210000Y-111667000D01*
X137212000Y-111665000D01*
X137215000Y-111664000D01*
X137217000Y-111663000D01*
X137220000Y-111662000D01*
X137222000Y-111662000D01*
X137225000Y-111661000D01*
X137227000Y-111661000D01*
X137230000Y-111660000D01*
X137232000Y-111660000D01*
X137235000Y-111660000D01*
X138075000Y-111660000D01*
X138078000Y-111660000D01*
X138080000Y-111660000D01*
X138083000Y-111661000D01*
X138085000Y-111661000D01*
X138088000Y-111662000D01*
X138090000Y-111662000D01*
X138093000Y-111663000D01*
X138095000Y-111664000D01*
X138098000Y-111665000D01*
X138100000Y-111667000D01*
X138102000Y-111668000D01*
X138104000Y-111670000D01*
X138106000Y-111671000D01*
X138108000Y-111673000D01*
X138110000Y-111675000D01*
X138112000Y-111677000D01*
X138114000Y-111679000D01*
X138115000Y-111681000D01*
X138117000Y-111683000D01*
X138118000Y-111685000D01*
X138120000Y-111687000D01*
X138121000Y-111690000D01*
X138122000Y-111692000D01*
X138123000Y-111695000D01*
X138123000Y-111697000D01*
X138124000Y-111700000D01*
X138124000Y-111702000D01*
X138125000Y-111705000D01*
X138125000Y-111707000D01*
X138125000Y-111710000D01*
X138125000Y-112550000D01*
X138125000Y-112553000D01*
X138125000Y-112555000D01*
X138124000Y-112558000D01*
X138124000Y-112560000D01*
X138123000Y-112563000D01*
X138123000Y-112565000D01*
X138122000Y-112568000D01*
X138121000Y-112570000D01*
X138120000Y-112573000D01*
X138118000Y-112575000D01*
X138117000Y-112577000D01*
X138115000Y-112579000D01*
X138114000Y-112581000D01*
X138112000Y-112583000D01*
X138110000Y-112585000D01*
X138108000Y-112587000D01*
X138106000Y-112589000D01*
X138104000Y-112590000D01*
X138102000Y-112592000D01*
X138100000Y-112593000D01*
X138098000Y-112595000D01*
X138095000Y-112596000D01*
X138093000Y-112597000D01*
X138090000Y-112598000D01*
X138088000Y-112598000D01*
X138085000Y-112599000D01*
X138083000Y-112599000D01*
X138080000Y-112600000D01*
X138078000Y-112600000D01*
X138075000Y-112600000D01*
X137235000Y-112600000D01*
X137232000Y-112600000D01*
X137230000Y-112600000D01*
X137227000Y-112599000D01*
X137225000Y-112599000D01*
X137222000Y-112598000D01*
X137220000Y-112598000D01*
X137217000Y-112597000D01*
X137215000Y-112596000D01*
X137212000Y-112595000D01*
X137210000Y-112593000D01*
X137208000Y-112592000D01*
X137206000Y-112590000D01*
X137204000Y-112589000D01*
X137202000Y-112587000D01*
X137200000Y-112585000D01*
X137198000Y-112583000D01*
X137196000Y-112581000D01*
X137195000Y-112579000D01*
X137193000Y-112577000D01*
X137192000Y-112575000D01*
X137190000Y-112573000D01*
X137189000Y-112570000D01*
X137188000Y-112568000D01*
X137187000Y-112565000D01*
X137187000Y-112563000D01*
X137186000Y-112560000D01*
X137186000Y-112558000D01*
X137185000Y-112555000D01*
X137185000Y-112553000D01*
X137185000Y-112550000D01*
G36*
X138083000Y-111661000D02*
G01*
X138085000Y-111661000D01*
X138088000Y-111662000D01*
X138090000Y-111662000D01*
X138093000Y-111663000D01*
X138095000Y-111664000D01*
X138098000Y-111665000D01*
X138100000Y-111667000D01*
X138102000Y-111668000D01*
X138104000Y-111670000D01*
X138106000Y-111671000D01*
X138108000Y-111673000D01*
X138110000Y-111675000D01*
X138112000Y-111677000D01*
X138114000Y-111679000D01*
X138115000Y-111681000D01*
X138117000Y-111683000D01*
X138118000Y-111685000D01*
X138120000Y-111687000D01*
X138121000Y-111690000D01*
X138122000Y-111692000D01*
X138123000Y-111695000D01*
X138123000Y-111697000D01*
X138124000Y-111700000D01*
X138124000Y-111702000D01*
X138125000Y-111705000D01*
X138125000Y-111707000D01*
X138125000Y-111710000D01*
X138125000Y-112550000D01*
X138125000Y-112553000D01*
X138125000Y-112555000D01*
X138124000Y-112558000D01*
X138124000Y-112560000D01*
X138123000Y-112563000D01*
X138123000Y-112565000D01*
X138122000Y-112568000D01*
X138121000Y-112570000D01*
X138120000Y-112573000D01*
X138118000Y-112575000D01*
X138117000Y-112577000D01*
X138115000Y-112579000D01*
X138114000Y-112581000D01*
X138112000Y-112583000D01*
X138110000Y-112585000D01*
X138108000Y-112587000D01*
X138106000Y-112589000D01*
X138104000Y-112590000D01*
X138102000Y-112592000D01*
X138100000Y-112593000D01*
X138098000Y-112595000D01*
X138095000Y-112596000D01*
X138093000Y-112597000D01*
X138090000Y-112598000D01*
X138088000Y-112598000D01*
X138085000Y-112599000D01*
X138083000Y-112599000D01*
X138080000Y-112600000D01*
X138078000Y-112600000D01*
X138075000Y-112600000D01*
X137235000Y-112600000D01*
X137232000Y-112600000D01*
X137230000Y-112600000D01*
X137227000Y-112599000D01*
X137225000Y-112599000D01*
X137222000Y-112598000D01*
X137220000Y-112598000D01*
X137217000Y-112597000D01*
X137215000Y-112596000D01*
X137212000Y-112595000D01*
X137210000Y-112593000D01*
X137208000Y-112592000D01*
X137206000Y-112590000D01*
X137204000Y-112589000D01*
X137202000Y-112587000D01*
X137200000Y-112585000D01*
X137198000Y-112583000D01*
X137196000Y-112581000D01*
X137195000Y-112579000D01*
X137193000Y-112577000D01*
X137192000Y-112575000D01*
X137190000Y-112573000D01*
X137189000Y-112570000D01*
X137188000Y-112568000D01*
X137187000Y-112565000D01*
X137187000Y-112563000D01*
X137186000Y-112560000D01*
X137186000Y-112558000D01*
X137185000Y-112555000D01*
X137185000Y-112553000D01*
X137185000Y-112550000D01*
X137185000Y-111710000D01*
X137185000Y-111707000D01*
X137185000Y-111705000D01*
X137186000Y-111702000D01*
X137186000Y-111700000D01*
X137187000Y-111697000D01*
X137187000Y-111695000D01*
X137188000Y-111692000D01*
X137189000Y-111690000D01*
X137190000Y-111687000D01*
X137192000Y-111685000D01*
X137193000Y-111683000D01*
X137195000Y-111681000D01*
X137196000Y-111679000D01*
X137198000Y-111677000D01*
X137200000Y-111675000D01*
X137202000Y-111673000D01*
X137204000Y-111671000D01*
X137206000Y-111670000D01*
X137208000Y-111668000D01*
X137210000Y-111667000D01*
X137212000Y-111665000D01*
X137215000Y-111664000D01*
X137217000Y-111663000D01*
X137220000Y-111662000D01*
X137222000Y-111662000D01*
X137225000Y-111661000D01*
X137227000Y-111661000D01*
X137230000Y-111660000D01*
X137232000Y-111660000D01*
X137235000Y-111660000D01*
X138075000Y-111660000D01*
X138078000Y-111660000D01*
X138080000Y-111660000D01*
X138083000Y-111661000D01*
G37*
X137185000Y-113690000D02*
X137185000Y-112850000D01*
X137185000Y-112847000D01*
X137185000Y-112845000D01*
X137186000Y-112842000D01*
X137186000Y-112840000D01*
X137187000Y-112837000D01*
X137187000Y-112835000D01*
X137188000Y-112832000D01*
X137189000Y-112830000D01*
X137190000Y-112827000D01*
X137192000Y-112825000D01*
X137193000Y-112823000D01*
X137195000Y-112821000D01*
X137196000Y-112819000D01*
X137198000Y-112817000D01*
X137200000Y-112815000D01*
X137202000Y-112813000D01*
X137204000Y-112811000D01*
X137206000Y-112810000D01*
X137208000Y-112808000D01*
X137210000Y-112807000D01*
X137212000Y-112805000D01*
X137215000Y-112804000D01*
X137217000Y-112803000D01*
X137220000Y-112802000D01*
X137222000Y-112802000D01*
X137225000Y-112801000D01*
X137227000Y-112801000D01*
X137230000Y-112800000D01*
X137232000Y-112800000D01*
X137235000Y-112800000D01*
X138075000Y-112800000D01*
X138078000Y-112800000D01*
X138080000Y-112800000D01*
X138083000Y-112801000D01*
X138085000Y-112801000D01*
X138088000Y-112802000D01*
X138090000Y-112802000D01*
X138093000Y-112803000D01*
X138095000Y-112804000D01*
X138098000Y-112805000D01*
X138100000Y-112807000D01*
X138102000Y-112808000D01*
X138104000Y-112810000D01*
X138106000Y-112811000D01*
X138108000Y-112813000D01*
X138110000Y-112815000D01*
X138112000Y-112817000D01*
X138114000Y-112819000D01*
X138115000Y-112821000D01*
X138117000Y-112823000D01*
X138118000Y-112825000D01*
X138120000Y-112827000D01*
X138121000Y-112830000D01*
X138122000Y-112832000D01*
X138123000Y-112835000D01*
X138123000Y-112837000D01*
X138124000Y-112840000D01*
X138124000Y-112842000D01*
X138125000Y-112845000D01*
X138125000Y-112847000D01*
X138125000Y-112850000D01*
X138125000Y-113690000D01*
X138125000Y-113693000D01*
X138125000Y-113695000D01*
X138124000Y-113698000D01*
X138124000Y-113700000D01*
X138123000Y-113703000D01*
X138123000Y-113705000D01*
X138122000Y-113708000D01*
X138121000Y-113710000D01*
X138120000Y-113713000D01*
X138118000Y-113715000D01*
X138117000Y-113717000D01*
X138115000Y-113719000D01*
X138114000Y-113721000D01*
X138112000Y-113723000D01*
X138110000Y-113725000D01*
X138108000Y-113727000D01*
X138106000Y-113729000D01*
X138104000Y-113730000D01*
X138102000Y-113732000D01*
X138100000Y-113733000D01*
X138098000Y-113735000D01*
X138095000Y-113736000D01*
X138093000Y-113737000D01*
X138090000Y-113738000D01*
X138088000Y-113738000D01*
X138085000Y-113739000D01*
X138083000Y-113739000D01*
X138080000Y-113740000D01*
X138078000Y-113740000D01*
X138075000Y-113740000D01*
X137235000Y-113740000D01*
X137232000Y-113740000D01*
X137230000Y-113740000D01*
X137227000Y-113739000D01*
X137225000Y-113739000D01*
X137222000Y-113738000D01*
X137220000Y-113738000D01*
X137217000Y-113737000D01*
X137215000Y-113736000D01*
X137212000Y-113735000D01*
X137210000Y-113733000D01*
X137208000Y-113732000D01*
X137206000Y-113730000D01*
X137204000Y-113729000D01*
X137202000Y-113727000D01*
X137200000Y-113725000D01*
X137198000Y-113723000D01*
X137196000Y-113721000D01*
X137195000Y-113719000D01*
X137193000Y-113717000D01*
X137192000Y-113715000D01*
X137190000Y-113713000D01*
X137189000Y-113710000D01*
X137188000Y-113708000D01*
X137187000Y-113705000D01*
X137187000Y-113703000D01*
X137186000Y-113700000D01*
X137186000Y-113698000D01*
X137185000Y-113695000D01*
X137185000Y-113693000D01*
X137185000Y-113690000D01*
G36*
X138083000Y-112801000D02*
G01*
X138085000Y-112801000D01*
X138088000Y-112802000D01*
X138090000Y-112802000D01*
X138093000Y-112803000D01*
X138095000Y-112804000D01*
X138098000Y-112805000D01*
X138100000Y-112807000D01*
X138102000Y-112808000D01*
X138104000Y-112810000D01*
X138106000Y-112811000D01*
X138108000Y-112813000D01*
X138110000Y-112815000D01*
X138112000Y-112817000D01*
X138114000Y-112819000D01*
X138115000Y-112821000D01*
X138117000Y-112823000D01*
X138118000Y-112825000D01*
X138120000Y-112827000D01*
X138121000Y-112830000D01*
X138122000Y-112832000D01*
X138123000Y-112835000D01*
X138123000Y-112837000D01*
X138124000Y-112840000D01*
X138124000Y-112842000D01*
X138125000Y-112845000D01*
X138125000Y-112847000D01*
X138125000Y-112850000D01*
X138125000Y-113690000D01*
X138125000Y-113693000D01*
X138125000Y-113695000D01*
X138124000Y-113698000D01*
X138124000Y-113700000D01*
X138123000Y-113703000D01*
X138123000Y-113705000D01*
X138122000Y-113708000D01*
X138121000Y-113710000D01*
X138120000Y-113713000D01*
X138118000Y-113715000D01*
X138117000Y-113717000D01*
X138115000Y-113719000D01*
X138114000Y-113721000D01*
X138112000Y-113723000D01*
X138110000Y-113725000D01*
X138108000Y-113727000D01*
X138106000Y-113729000D01*
X138104000Y-113730000D01*
X138102000Y-113732000D01*
X138100000Y-113733000D01*
X138098000Y-113735000D01*
X138095000Y-113736000D01*
X138093000Y-113737000D01*
X138090000Y-113738000D01*
X138088000Y-113738000D01*
X138085000Y-113739000D01*
X138083000Y-113739000D01*
X138080000Y-113740000D01*
X138078000Y-113740000D01*
X138075000Y-113740000D01*
X137235000Y-113740000D01*
X137232000Y-113740000D01*
X137230000Y-113740000D01*
X137227000Y-113739000D01*
X137225000Y-113739000D01*
X137222000Y-113738000D01*
X137220000Y-113738000D01*
X137217000Y-113737000D01*
X137215000Y-113736000D01*
X137212000Y-113735000D01*
X137210000Y-113733000D01*
X137208000Y-113732000D01*
X137206000Y-113730000D01*
X137204000Y-113729000D01*
X137202000Y-113727000D01*
X137200000Y-113725000D01*
X137198000Y-113723000D01*
X137196000Y-113721000D01*
X137195000Y-113719000D01*
X137193000Y-113717000D01*
X137192000Y-113715000D01*
X137190000Y-113713000D01*
X137189000Y-113710000D01*
X137188000Y-113708000D01*
X137187000Y-113705000D01*
X137187000Y-113703000D01*
X137186000Y-113700000D01*
X137186000Y-113698000D01*
X137185000Y-113695000D01*
X137185000Y-113693000D01*
X137185000Y-113690000D01*
X137185000Y-112850000D01*
X137185000Y-112847000D01*
X137185000Y-112845000D01*
X137186000Y-112842000D01*
X137186000Y-112840000D01*
X137187000Y-112837000D01*
X137187000Y-112835000D01*
X137188000Y-112832000D01*
X137189000Y-112830000D01*
X137190000Y-112827000D01*
X137192000Y-112825000D01*
X137193000Y-112823000D01*
X137195000Y-112821000D01*
X137196000Y-112819000D01*
X137198000Y-112817000D01*
X137200000Y-112815000D01*
X137202000Y-112813000D01*
X137204000Y-112811000D01*
X137206000Y-112810000D01*
X137208000Y-112808000D01*
X137210000Y-112807000D01*
X137212000Y-112805000D01*
X137215000Y-112804000D01*
X137217000Y-112803000D01*
X137220000Y-112802000D01*
X137222000Y-112802000D01*
X137225000Y-112801000D01*
X137227000Y-112801000D01*
X137230000Y-112800000D01*
X137232000Y-112800000D01*
X137235000Y-112800000D01*
X138075000Y-112800000D01*
X138078000Y-112800000D01*
X138080000Y-112800000D01*
X138083000Y-112801000D01*
G37*
X138325000Y-112550000D02*
X138325000Y-111710000D01*
X138325000Y-111707000D01*
X138325000Y-111705000D01*
X138326000Y-111702000D01*
X138326000Y-111700000D01*
X138327000Y-111697000D01*
X138327000Y-111695000D01*
X138328000Y-111692000D01*
X138329000Y-111690000D01*
X138330000Y-111687000D01*
X138332000Y-111685000D01*
X138333000Y-111683000D01*
X138335000Y-111681000D01*
X138336000Y-111679000D01*
X138338000Y-111677000D01*
X138340000Y-111675000D01*
X138342000Y-111673000D01*
X138344000Y-111671000D01*
X138346000Y-111670000D01*
X138348000Y-111668000D01*
X138350000Y-111667000D01*
X138352000Y-111665000D01*
X138355000Y-111664000D01*
X138357000Y-111663000D01*
X138360000Y-111662000D01*
X138362000Y-111662000D01*
X138365000Y-111661000D01*
X138367000Y-111661000D01*
X138370000Y-111660000D01*
X138372000Y-111660000D01*
X138375000Y-111660000D01*
X139215000Y-111660000D01*
X139218000Y-111660000D01*
X139220000Y-111660000D01*
X139223000Y-111661000D01*
X139225000Y-111661000D01*
X139228000Y-111662000D01*
X139230000Y-111662000D01*
X139233000Y-111663000D01*
X139235000Y-111664000D01*
X139238000Y-111665000D01*
X139240000Y-111667000D01*
X139242000Y-111668000D01*
X139244000Y-111670000D01*
X139246000Y-111671000D01*
X139248000Y-111673000D01*
X139250000Y-111675000D01*
X139252000Y-111677000D01*
X139254000Y-111679000D01*
X139255000Y-111681000D01*
X139257000Y-111683000D01*
X139258000Y-111685000D01*
X139260000Y-111687000D01*
X139261000Y-111690000D01*
X139262000Y-111692000D01*
X139263000Y-111695000D01*
X139263000Y-111697000D01*
X139264000Y-111700000D01*
X139264000Y-111702000D01*
X139265000Y-111705000D01*
X139265000Y-111707000D01*
X139265000Y-111710000D01*
X139265000Y-112550000D01*
X139265000Y-112553000D01*
X139265000Y-112555000D01*
X139264000Y-112558000D01*
X139264000Y-112560000D01*
X139263000Y-112563000D01*
X139263000Y-112565000D01*
X139262000Y-112568000D01*
X139261000Y-112570000D01*
X139260000Y-112573000D01*
X139258000Y-112575000D01*
X139257000Y-112577000D01*
X139255000Y-112579000D01*
X139254000Y-112581000D01*
X139252000Y-112583000D01*
X139250000Y-112585000D01*
X139248000Y-112587000D01*
X139246000Y-112589000D01*
X139244000Y-112590000D01*
X139242000Y-112592000D01*
X139240000Y-112593000D01*
X139238000Y-112595000D01*
X139235000Y-112596000D01*
X139233000Y-112597000D01*
X139230000Y-112598000D01*
X139228000Y-112598000D01*
X139225000Y-112599000D01*
X139223000Y-112599000D01*
X139220000Y-112600000D01*
X139218000Y-112600000D01*
X139215000Y-112600000D01*
X138375000Y-112600000D01*
X138372000Y-112600000D01*
X138370000Y-112600000D01*
X138367000Y-112599000D01*
X138365000Y-112599000D01*
X138362000Y-112598000D01*
X138360000Y-112598000D01*
X138357000Y-112597000D01*
X138355000Y-112596000D01*
X138352000Y-112595000D01*
X138350000Y-112593000D01*
X138348000Y-112592000D01*
X138346000Y-112590000D01*
X138344000Y-112589000D01*
X138342000Y-112587000D01*
X138340000Y-112585000D01*
X138338000Y-112583000D01*
X138336000Y-112581000D01*
X138335000Y-112579000D01*
X138333000Y-112577000D01*
X138332000Y-112575000D01*
X138330000Y-112573000D01*
X138329000Y-112570000D01*
X138328000Y-112568000D01*
X138327000Y-112565000D01*
X138327000Y-112563000D01*
X138326000Y-112560000D01*
X138326000Y-112558000D01*
X138325000Y-112555000D01*
X138325000Y-112553000D01*
X138325000Y-112550000D01*
G36*
X139223000Y-111661000D02*
G01*
X139225000Y-111661000D01*
X139228000Y-111662000D01*
X139230000Y-111662000D01*
X139233000Y-111663000D01*
X139235000Y-111664000D01*
X139238000Y-111665000D01*
X139240000Y-111667000D01*
X139242000Y-111668000D01*
X139244000Y-111670000D01*
X139246000Y-111671000D01*
X139248000Y-111673000D01*
X139250000Y-111675000D01*
X139252000Y-111677000D01*
X139254000Y-111679000D01*
X139255000Y-111681000D01*
X139257000Y-111683000D01*
X139258000Y-111685000D01*
X139260000Y-111687000D01*
X139261000Y-111690000D01*
X139262000Y-111692000D01*
X139263000Y-111695000D01*
X139263000Y-111697000D01*
X139264000Y-111700000D01*
X139264000Y-111702000D01*
X139265000Y-111705000D01*
X139265000Y-111707000D01*
X139265000Y-111710000D01*
X139265000Y-112550000D01*
X139265000Y-112553000D01*
X139265000Y-112555000D01*
X139264000Y-112558000D01*
X139264000Y-112560000D01*
X139263000Y-112563000D01*
X139263000Y-112565000D01*
X139262000Y-112568000D01*
X139261000Y-112570000D01*
X139260000Y-112573000D01*
X139258000Y-112575000D01*
X139257000Y-112577000D01*
X139255000Y-112579000D01*
X139254000Y-112581000D01*
X139252000Y-112583000D01*
X139250000Y-112585000D01*
X139248000Y-112587000D01*
X139246000Y-112589000D01*
X139244000Y-112590000D01*
X139242000Y-112592000D01*
X139240000Y-112593000D01*
X139238000Y-112595000D01*
X139235000Y-112596000D01*
X139233000Y-112597000D01*
X139230000Y-112598000D01*
X139228000Y-112598000D01*
X139225000Y-112599000D01*
X139223000Y-112599000D01*
X139220000Y-112600000D01*
X139218000Y-112600000D01*
X139215000Y-112600000D01*
X138375000Y-112600000D01*
X138372000Y-112600000D01*
X138370000Y-112600000D01*
X138367000Y-112599000D01*
X138365000Y-112599000D01*
X138362000Y-112598000D01*
X138360000Y-112598000D01*
X138357000Y-112597000D01*
X138355000Y-112596000D01*
X138352000Y-112595000D01*
X138350000Y-112593000D01*
X138348000Y-112592000D01*
X138346000Y-112590000D01*
X138344000Y-112589000D01*
X138342000Y-112587000D01*
X138340000Y-112585000D01*
X138338000Y-112583000D01*
X138336000Y-112581000D01*
X138335000Y-112579000D01*
X138333000Y-112577000D01*
X138332000Y-112575000D01*
X138330000Y-112573000D01*
X138329000Y-112570000D01*
X138328000Y-112568000D01*
X138327000Y-112565000D01*
X138327000Y-112563000D01*
X138326000Y-112560000D01*
X138326000Y-112558000D01*
X138325000Y-112555000D01*
X138325000Y-112553000D01*
X138325000Y-112550000D01*
X138325000Y-111710000D01*
X138325000Y-111707000D01*
X138325000Y-111705000D01*
X138326000Y-111702000D01*
X138326000Y-111700000D01*
X138327000Y-111697000D01*
X138327000Y-111695000D01*
X138328000Y-111692000D01*
X138329000Y-111690000D01*
X138330000Y-111687000D01*
X138332000Y-111685000D01*
X138333000Y-111683000D01*
X138335000Y-111681000D01*
X138336000Y-111679000D01*
X138338000Y-111677000D01*
X138340000Y-111675000D01*
X138342000Y-111673000D01*
X138344000Y-111671000D01*
X138346000Y-111670000D01*
X138348000Y-111668000D01*
X138350000Y-111667000D01*
X138352000Y-111665000D01*
X138355000Y-111664000D01*
X138357000Y-111663000D01*
X138360000Y-111662000D01*
X138362000Y-111662000D01*
X138365000Y-111661000D01*
X138367000Y-111661000D01*
X138370000Y-111660000D01*
X138372000Y-111660000D01*
X138375000Y-111660000D01*
X139215000Y-111660000D01*
X139218000Y-111660000D01*
X139220000Y-111660000D01*
X139223000Y-111661000D01*
G37*
X138325000Y-113690000D02*
X138325000Y-112850000D01*
X138325000Y-112847000D01*
X138325000Y-112845000D01*
X138326000Y-112842000D01*
X138326000Y-112840000D01*
X138327000Y-112837000D01*
X138327000Y-112835000D01*
X138328000Y-112832000D01*
X138329000Y-112830000D01*
X138330000Y-112827000D01*
X138332000Y-112825000D01*
X138333000Y-112823000D01*
X138335000Y-112821000D01*
X138336000Y-112819000D01*
X138338000Y-112817000D01*
X138340000Y-112815000D01*
X138342000Y-112813000D01*
X138344000Y-112811000D01*
X138346000Y-112810000D01*
X138348000Y-112808000D01*
X138350000Y-112807000D01*
X138352000Y-112805000D01*
X138355000Y-112804000D01*
X138357000Y-112803000D01*
X138360000Y-112802000D01*
X138362000Y-112802000D01*
X138365000Y-112801000D01*
X138367000Y-112801000D01*
X138370000Y-112800000D01*
X138372000Y-112800000D01*
X138375000Y-112800000D01*
X139215000Y-112800000D01*
X139218000Y-112800000D01*
X139220000Y-112800000D01*
X139223000Y-112801000D01*
X139225000Y-112801000D01*
X139228000Y-112802000D01*
X139230000Y-112802000D01*
X139233000Y-112803000D01*
X139235000Y-112804000D01*
X139238000Y-112805000D01*
X139240000Y-112807000D01*
X139242000Y-112808000D01*
X139244000Y-112810000D01*
X139246000Y-112811000D01*
X139248000Y-112813000D01*
X139250000Y-112815000D01*
X139252000Y-112817000D01*
X139254000Y-112819000D01*
X139255000Y-112821000D01*
X139257000Y-112823000D01*
X139258000Y-112825000D01*
X139260000Y-112827000D01*
X139261000Y-112830000D01*
X139262000Y-112832000D01*
X139263000Y-112835000D01*
X139263000Y-112837000D01*
X139264000Y-112840000D01*
X139264000Y-112842000D01*
X139265000Y-112845000D01*
X139265000Y-112847000D01*
X139265000Y-112850000D01*
X139265000Y-113690000D01*
X139265000Y-113693000D01*
X139265000Y-113695000D01*
X139264000Y-113698000D01*
X139264000Y-113700000D01*
X139263000Y-113703000D01*
X139263000Y-113705000D01*
X139262000Y-113708000D01*
X139261000Y-113710000D01*
X139260000Y-113713000D01*
X139258000Y-113715000D01*
X139257000Y-113717000D01*
X139255000Y-113719000D01*
X139254000Y-113721000D01*
X139252000Y-113723000D01*
X139250000Y-113725000D01*
X139248000Y-113727000D01*
X139246000Y-113729000D01*
X139244000Y-113730000D01*
X139242000Y-113732000D01*
X139240000Y-113733000D01*
X139238000Y-113735000D01*
X139235000Y-113736000D01*
X139233000Y-113737000D01*
X139230000Y-113738000D01*
X139228000Y-113738000D01*
X139225000Y-113739000D01*
X139223000Y-113739000D01*
X139220000Y-113740000D01*
X139218000Y-113740000D01*
X139215000Y-113740000D01*
X138375000Y-113740000D01*
X138372000Y-113740000D01*
X138370000Y-113740000D01*
X138367000Y-113739000D01*
X138365000Y-113739000D01*
X138362000Y-113738000D01*
X138360000Y-113738000D01*
X138357000Y-113737000D01*
X138355000Y-113736000D01*
X138352000Y-113735000D01*
X138350000Y-113733000D01*
X138348000Y-113732000D01*
X138346000Y-113730000D01*
X138344000Y-113729000D01*
X138342000Y-113727000D01*
X138340000Y-113725000D01*
X138338000Y-113723000D01*
X138336000Y-113721000D01*
X138335000Y-113719000D01*
X138333000Y-113717000D01*
X138332000Y-113715000D01*
X138330000Y-113713000D01*
X138329000Y-113710000D01*
X138328000Y-113708000D01*
X138327000Y-113705000D01*
X138327000Y-113703000D01*
X138326000Y-113700000D01*
X138326000Y-113698000D01*
X138325000Y-113695000D01*
X138325000Y-113693000D01*
X138325000Y-113690000D01*
G36*
X139223000Y-112801000D02*
G01*
X139225000Y-112801000D01*
X139228000Y-112802000D01*
X139230000Y-112802000D01*
X139233000Y-112803000D01*
X139235000Y-112804000D01*
X139238000Y-112805000D01*
X139240000Y-112807000D01*
X139242000Y-112808000D01*
X139244000Y-112810000D01*
X139246000Y-112811000D01*
X139248000Y-112813000D01*
X139250000Y-112815000D01*
X139252000Y-112817000D01*
X139254000Y-112819000D01*
X139255000Y-112821000D01*
X139257000Y-112823000D01*
X139258000Y-112825000D01*
X139260000Y-112827000D01*
X139261000Y-112830000D01*
X139262000Y-112832000D01*
X139263000Y-112835000D01*
X139263000Y-112837000D01*
X139264000Y-112840000D01*
X139264000Y-112842000D01*
X139265000Y-112845000D01*
X139265000Y-112847000D01*
X139265000Y-112850000D01*
X139265000Y-113690000D01*
X139265000Y-113693000D01*
X139265000Y-113695000D01*
X139264000Y-113698000D01*
X139264000Y-113700000D01*
X139263000Y-113703000D01*
X139263000Y-113705000D01*
X139262000Y-113708000D01*
X139261000Y-113710000D01*
X139260000Y-113713000D01*
X139258000Y-113715000D01*
X139257000Y-113717000D01*
X139255000Y-113719000D01*
X139254000Y-113721000D01*
X139252000Y-113723000D01*
X139250000Y-113725000D01*
X139248000Y-113727000D01*
X139246000Y-113729000D01*
X139244000Y-113730000D01*
X139242000Y-113732000D01*
X139240000Y-113733000D01*
X139238000Y-113735000D01*
X139235000Y-113736000D01*
X139233000Y-113737000D01*
X139230000Y-113738000D01*
X139228000Y-113738000D01*
X139225000Y-113739000D01*
X139223000Y-113739000D01*
X139220000Y-113740000D01*
X139218000Y-113740000D01*
X139215000Y-113740000D01*
X138375000Y-113740000D01*
X138372000Y-113740000D01*
X138370000Y-113740000D01*
X138367000Y-113739000D01*
X138365000Y-113739000D01*
X138362000Y-113738000D01*
X138360000Y-113738000D01*
X138357000Y-113737000D01*
X138355000Y-113736000D01*
X138352000Y-113735000D01*
X138350000Y-113733000D01*
X138348000Y-113732000D01*
X138346000Y-113730000D01*
X138344000Y-113729000D01*
X138342000Y-113727000D01*
X138340000Y-113725000D01*
X138338000Y-113723000D01*
X138336000Y-113721000D01*
X138335000Y-113719000D01*
X138333000Y-113717000D01*
X138332000Y-113715000D01*
X138330000Y-113713000D01*
X138329000Y-113710000D01*
X138328000Y-113708000D01*
X138327000Y-113705000D01*
X138327000Y-113703000D01*
X138326000Y-113700000D01*
X138326000Y-113698000D01*
X138325000Y-113695000D01*
X138325000Y-113693000D01*
X138325000Y-113690000D01*
X138325000Y-112850000D01*
X138325000Y-112847000D01*
X138325000Y-112845000D01*
X138326000Y-112842000D01*
X138326000Y-112840000D01*
X138327000Y-112837000D01*
X138327000Y-112835000D01*
X138328000Y-112832000D01*
X138329000Y-112830000D01*
X138330000Y-112827000D01*
X138332000Y-112825000D01*
X138333000Y-112823000D01*
X138335000Y-112821000D01*
X138336000Y-112819000D01*
X138338000Y-112817000D01*
X138340000Y-112815000D01*
X138342000Y-112813000D01*
X138344000Y-112811000D01*
X138346000Y-112810000D01*
X138348000Y-112808000D01*
X138350000Y-112807000D01*
X138352000Y-112805000D01*
X138355000Y-112804000D01*
X138357000Y-112803000D01*
X138360000Y-112802000D01*
X138362000Y-112802000D01*
X138365000Y-112801000D01*
X138367000Y-112801000D01*
X138370000Y-112800000D01*
X138372000Y-112800000D01*
X138375000Y-112800000D01*
X139215000Y-112800000D01*
X139218000Y-112800000D01*
X139220000Y-112800000D01*
X139223000Y-112801000D01*
G37*
%TD*%
D11*
%TO.C,R19*%
X143775000Y-93300000D03*
X143775000Y-94300000D03*
%TD*%
D12*
%TO.C,C37*%
X126450000Y-114050000D03*
X126450000Y-113050000D03*
%TD*%
D13*
%TO.C,R6*%
X142070000Y-85650000D03*
X140430000Y-85650000D03*
%TD*%
D14*
%TO.C,C5*%
X132550000Y-88450000D03*
X133550000Y-88450000D03*
%TD*%
D15*
%TO.C,C42*%
X142150000Y-95050000D03*
X141150000Y-95050000D03*
%TD*%
%TO.C,R2*%
X124150000Y-89850000D03*
X123150000Y-89850000D03*
%TD*%
D12*
%TO.C,C46*%
X155100000Y-93950000D03*
X155100000Y-92950000D03*
%TD*%
D11*
%TO.C,R21*%
X150000000Y-91150000D03*
X150000000Y-92150000D03*
%TD*%
D16*
%TO.C,D2*%
X170735000Y-85000000D03*
X172315000Y-85000000D03*
%TD*%
D17*
%TO.C,R12*%
X149000000Y-100450000D03*
X149000000Y-98810000D03*
%TD*%
D14*
%TO.C,C30*%
X134350000Y-103850000D03*
X135350000Y-103850000D03*
%TD*%
D12*
%TO.C,R18*%
X143800000Y-96100000D03*
X143800000Y-95100000D03*
%TD*%
D18*
%TO.C,J1*%
X127300000Y-88350000D03*
X126300000Y-88350000D03*
X125800000Y-88350000D03*
X124800000Y-88350000D03*
D19*
X123650000Y-88350000D03*
X122850000Y-88350000D03*
D18*
X124300000Y-88350000D03*
X125300000Y-88350000D03*
X126800000Y-88350000D03*
X127800000Y-88350000D03*
D19*
X128450000Y-88350000D03*
X129250000Y-88350000D03*
D20*
X126050000Y-83850000D03*
%TD*%
D11*
%TO.C,C14*%
X144950000Y-103725000D03*
X144950000Y-104725000D03*
%TD*%
D14*
%TO.C,R5*%
X137300000Y-83650000D03*
X138300000Y-83650000D03*
%TD*%
D21*
%TO.C,U1*%
X131450000Y-91300000D03*
X131450000Y-90500000D03*
D22*
X132337500Y-91550000D03*
X132337500Y-90900000D03*
X132337500Y-90250000D03*
X130562500Y-90250000D03*
X130562500Y-90900000D03*
X130562500Y-91550000D03*
%TD*%
D14*
%TO.C,R49*%
X121550000Y-108450000D03*
X122550000Y-108450000D03*
%TD*%
D11*
%TO.C,R48*%
X160500000Y-93050000D03*
X160500000Y-94050000D03*
%TD*%
D12*
%TO.C,C1*%
X135425000Y-107400000D03*
X135425000Y-106400000D03*
%TD*%
D16*
%TO.C,D3*%
X170735000Y-88000000D03*
X172315000Y-88000000D03*
%TD*%
D11*
%TO.C,R1*%
X127450000Y-89950000D03*
X127450000Y-90950000D03*
%TD*%
D23*
%TO.C,X1*%
X127950000Y-115100000D03*
X130150000Y-115100000D03*
X130150000Y-113400000D03*
X127950000Y-113400000D03*
%TD*%
D24*
%TO.C,U10*%
X156640000Y-102100000D03*
D25*
X156925000Y-102100000D03*
D24*
X156640000Y-102600000D03*
D25*
X156925000Y-102600000D03*
D24*
X156640000Y-103100000D03*
D25*
X156925000Y-103100000D03*
D24*
X156640000Y-103600000D03*
D25*
X156925000Y-103600000D03*
D24*
X156640000Y-104100000D03*
D25*
X156925000Y-104100000D03*
X159875000Y-104100000D03*
D24*
X160160000Y-104100000D03*
D25*
X159875000Y-103600000D03*
D24*
X160160000Y-103600000D03*
D25*
X159875000Y-103100000D03*
D24*
X160160000Y-103100000D03*
D25*
X159875000Y-102600000D03*
D24*
X160160000Y-102600000D03*
D25*
X159875000Y-102100000D03*
D24*
X160160000Y-102100000D03*
D26*
X157950000Y-102465000D03*
X157950000Y-103735000D03*
D27*
X158150000Y-101470000D03*
X158150000Y-104730000D03*
X158650000Y-101470000D03*
X158650000Y-104730000D03*
D26*
X158850000Y-102465000D03*
X158850000Y-103735000D03*
%TD*%
D11*
%TO.C,C32*%
X145450000Y-93150000D03*
X145450000Y-94150000D03*
%TD*%
%TO.C,C33*%
X133650000Y-101100000D03*
X133650000Y-102100000D03*
%TD*%
D28*
%TO.C,U3*%
X136325000Y-111450000D03*
X136325000Y-111950000D03*
X136325000Y-112450000D03*
X136325000Y-112950000D03*
X136325000Y-113450000D03*
X136325000Y-113950000D03*
D29*
X136975000Y-114600000D03*
X137475000Y-114600000D03*
X137975000Y-114600000D03*
X138475000Y-114600000D03*
X138975000Y-114600000D03*
X139475000Y-114600000D03*
D28*
X140125000Y-113950000D03*
X140125000Y-113450000D03*
X140125000Y-112950000D03*
X140125000Y-112450000D03*
X140125000Y-111950000D03*
X140125000Y-111450000D03*
D29*
X139475000Y-110800000D03*
X138975000Y-110800000D03*
X138475000Y-110800000D03*
X137975000Y-110800000D03*
X137475000Y-110800000D03*
X136975000Y-110800000D03*
D30*
X136500000Y-110975000D03*
X136500000Y-114425000D03*
X139950000Y-114425000D03*
X139950000Y-110975000D03*
%TD*%
D12*
%TO.C,C11*%
X138625000Y-107400000D03*
X138625000Y-106400000D03*
%TD*%
D31*
%TO.C,R3*%
X132630000Y-86050000D03*
X134270000Y-86050000D03*
%TD*%
D11*
%TO.C,C19*%
X138693778Y-89216222D03*
X138693778Y-90216222D03*
%TD*%
D15*
%TO.C,C26*%
X124350000Y-106050000D03*
X123350000Y-106050000D03*
%TD*%
D32*
%TO.C,U8*%
X140700000Y-97750000D03*
X140700000Y-96750000D03*
D33*
X142087500Y-98000000D03*
X142087500Y-97500000D03*
X142087500Y-97000000D03*
X142087500Y-96500000D03*
X139312500Y-96500000D03*
X139312500Y-97000000D03*
X139312500Y-97500000D03*
X139312500Y-98000000D03*
%TD*%
D17*
%TO.C,R15*%
X147800000Y-100470000D03*
X147800000Y-98830000D03*
%TD*%
D34*
%TO.C,D6*%
X155250000Y-108450000D03*
X155250000Y-107750000D03*
%TD*%
D17*
%TO.C,R22*%
X128050000Y-100070000D03*
X128050000Y-98430000D03*
%TD*%
D35*
%TO.C,U2*%
X136950000Y-87250000D03*
X137950000Y-87250000D03*
D36*
X136200000Y-88200000D03*
X136700000Y-88200000D03*
X137200000Y-88200000D03*
X137700000Y-88200000D03*
X138200000Y-88200000D03*
X138700000Y-88200000D03*
X138700000Y-86300000D03*
X138200000Y-86300000D03*
X137700000Y-86300000D03*
X137200000Y-86300000D03*
X136700000Y-86300000D03*
X136200000Y-86300000D03*
%TD*%
D11*
%TO.C,R28*%
X151950000Y-106550000D03*
X151950000Y-107550000D03*
%TD*%
D15*
%TO.C,C21*%
X124350000Y-104450000D03*
X123350000Y-104450000D03*
%TD*%
D37*
%TO.C,SW1*%
X119950000Y-99600000D03*
X123250000Y-99600000D03*
%TD*%
D11*
%TO.C,R14*%
X133645208Y-99217521D03*
X133645208Y-100217521D03*
%TD*%
D12*
%TO.C,R23*%
X152150000Y-103550000D03*
X152150000Y-102550000D03*
%TD*%
D11*
%TO.C,R41*%
X173685000Y-87400000D03*
X173685000Y-88400000D03*
%TD*%
D15*
%TO.C,C25*%
X124350000Y-103650000D03*
X123350000Y-103650000D03*
%TD*%
D37*
%TO.C,SW2*%
X119950000Y-97200000D03*
X123250000Y-97200000D03*
%TD*%
D14*
%TO.C,R31*%
X137750000Y-100600000D03*
X138750000Y-100600000D03*
%TD*%
D38*
%TO.C,F1*%
X128850000Y-90262500D03*
X128850000Y-91837500D03*
%TD*%
D16*
%TO.C,D4*%
X170735000Y-90900000D03*
X172315000Y-90900000D03*
%TD*%
D12*
%TO.C,R39*%
X142850000Y-114350000D03*
X142850000Y-113350000D03*
%TD*%
D39*
%TO.C,R16*%
X147800000Y-90430000D03*
X147800000Y-92070000D03*
%TD*%
D12*
%TO.C,R53*%
X160500000Y-97550000D03*
X160500000Y-96550000D03*
%TD*%
D15*
%TO.C,R30*%
X138750000Y-101400000D03*
X137750000Y-101400000D03*
%TD*%
D14*
%TO.C,C39*%
X139350000Y-99450000D03*
X140350000Y-99450000D03*
%TD*%
%TO.C,R7*%
X143050000Y-103625000D03*
X144050000Y-103625000D03*
%TD*%
%TO.C,R33*%
X121550000Y-106050000D03*
X122550000Y-106050000D03*
%TD*%
D11*
%TO.C,C17*%
X139250000Y-92550000D03*
X139250000Y-93550000D03*
%TD*%
D12*
%TO.C,C7*%
X136225000Y-107400000D03*
X136225000Y-106400000D03*
%TD*%
D40*
%TO.C,L1*%
X132200000Y-96600000D03*
X130200000Y-96600000D03*
%TD*%
D11*
%TO.C,C4*%
X130450000Y-92750000D03*
X130450000Y-93750000D03*
%TD*%
D31*
%TO.C,R9*%
X140430000Y-86850000D03*
X142070000Y-86850000D03*
%TD*%
D14*
%TO.C,C40*%
X127550000Y-116450000D03*
X128550000Y-116450000D03*
%TD*%
D12*
%TO.C,C34*%
X149900000Y-96775000D03*
X149900000Y-95775000D03*
%TD*%
D21*
%TO.C,U4*%
X136900000Y-92700000D03*
X136900000Y-91900000D03*
D22*
X137787500Y-92950000D03*
X137787500Y-92300000D03*
X137787500Y-91650000D03*
X136012500Y-91650000D03*
X136012500Y-92300000D03*
X136012500Y-92950000D03*
%TD*%
D34*
%TO.C,D11*%
X176050000Y-116050000D03*
X176050000Y-115350000D03*
%TD*%
D15*
%TO.C,C18*%
X140387500Y-103650000D03*
X139387500Y-103650000D03*
%TD*%
D12*
%TO.C,R29*%
X151150000Y-107550000D03*
X151150000Y-106550000D03*
%TD*%
D41*
%TO.C,D7*%
X155250000Y-113850000D03*
X155250000Y-114550000D03*
%TD*%
D12*
%TO.C,C44*%
X145050000Y-109675000D03*
X145050000Y-108675000D03*
%TD*%
D11*
%TO.C,R24*%
X151350000Y-102550000D03*
X151350000Y-103550000D03*
%TD*%
D15*
%TO.C,C27*%
X127850000Y-111750000D03*
X126850000Y-111750000D03*
%TD*%
D12*
%TO.C,R11*%
X139687500Y-105550000D03*
X139687500Y-104550000D03*
%TD*%
%TO.C,C12*%
X137025000Y-107400000D03*
X137025000Y-106400000D03*
%TD*%
D14*
%TO.C,R8*%
X143050000Y-104425000D03*
X144050000Y-104425000D03*
%TD*%
D12*
%TO.C,C45*%
X155050000Y-101250000D03*
X155050000Y-100250000D03*
%TD*%
D14*
%TO.C,C38*%
X150450000Y-104450000D03*
X151450000Y-104450000D03*
%TD*%
D11*
%TO.C,C13*%
X139700000Y-83600000D03*
X139700000Y-84600000D03*
%TD*%
D15*
%TO.C,R44*%
X122550000Y-107650000D03*
X121550000Y-107650000D03*
%TD*%
D12*
%TO.C,C43*%
X145850000Y-109675000D03*
X145850000Y-108675000D03*
%TD*%
%TO.C,C2*%
X122450000Y-92850000D03*
X122450000Y-91850000D03*
%TD*%
%TO.C,C9*%
X137825000Y-107400000D03*
X137825000Y-106400000D03*
%TD*%
D11*
%TO.C,C28*%
X132050000Y-110750000D03*
X132050000Y-111750000D03*
%TD*%
D34*
%TO.C,D9*%
X176050000Y-110850000D03*
X176050000Y-110150000D03*
%TD*%
D14*
%TO.C,R25*%
X141512500Y-101400000D03*
X142512500Y-101400000D03*
%TD*%
D15*
%TO.C,R20*%
X151100000Y-98650000D03*
X150100000Y-98650000D03*
%TD*%
D11*
%TO.C,R40*%
X173685000Y-84400000D03*
X173685000Y-85400000D03*
%TD*%
%TO.C,R36*%
X142000000Y-113350000D03*
X142000000Y-114350000D03*
%TD*%
%TO.C,R46*%
X161125000Y-100750000D03*
X161125000Y-101750000D03*
%TD*%
D14*
%TO.C,C23*%
X134350000Y-104650000D03*
X135350000Y-104650000D03*
%TD*%
D24*
%TO.C,U9*%
X146450000Y-112015000D03*
D42*
X146450000Y-112300000D03*
D24*
X145950000Y-112015000D03*
D42*
X145950000Y-112300000D03*
D24*
X145450000Y-112015000D03*
D42*
X145450000Y-112300000D03*
D24*
X144950000Y-112015000D03*
D42*
X144950000Y-112300000D03*
D24*
X144450000Y-112015000D03*
D42*
X144450000Y-112300000D03*
X144450000Y-115250000D03*
D24*
X144450000Y-115535000D03*
D42*
X144950000Y-115250000D03*
D24*
X144950000Y-115535000D03*
D42*
X145450000Y-115250000D03*
D24*
X145450000Y-115535000D03*
D42*
X145950000Y-115250000D03*
D24*
X145950000Y-115535000D03*
D42*
X146450000Y-115250000D03*
D24*
X146450000Y-115535000D03*
D43*
X146085000Y-113325000D03*
X144815000Y-113325000D03*
D44*
X147080000Y-113525000D03*
X143820000Y-113525000D03*
X147080000Y-114025000D03*
X143820000Y-114025000D03*
D43*
X146085000Y-114225000D03*
X144815000Y-114225000D03*
%TD*%
D45*
%TO.C,C6*%
X134330000Y-84750000D03*
X132770000Y-84750000D03*
%TD*%
D14*
%TO.C,R47*%
X156000000Y-97550000D03*
X157000000Y-97550000D03*
%TD*%
D12*
%TO.C,C24*%
X125850000Y-100150000D03*
X125850000Y-99150000D03*
%TD*%
D11*
%TO.C,C47*%
X155050000Y-104550000D03*
X155050000Y-105550000D03*
%TD*%
%TO.C,R43*%
X173725000Y-93400000D03*
X173725000Y-94400000D03*
%TD*%
D45*
%TO.C,C20*%
X142130000Y-88150000D03*
X140570000Y-88150000D03*
%TD*%
D39*
%TO.C,R13*%
X149000000Y-90430000D03*
X149000000Y-92070000D03*
%TD*%
D17*
%TO.C,R17*%
X126850000Y-100070000D03*
X126850000Y-98430000D03*
%TD*%
D46*
%TO.C,C36*%
X130420000Y-98400000D03*
X131980000Y-98400000D03*
%TD*%
D15*
%TO.C,C3*%
X135350000Y-114650000D03*
X134350000Y-114650000D03*
%TD*%
D34*
%TO.C,D8*%
X176050000Y-103050000D03*
X176050000Y-102350000D03*
%TD*%
D11*
%TO.C,C16*%
X135050000Y-93750000D03*
X135050000Y-94750000D03*
%TD*%
D12*
%TO.C,R10*%
X140487500Y-105550000D03*
X140487500Y-104550000D03*
%TD*%
D15*
%TO.C,C8*%
X135350000Y-113850000D03*
X134350000Y-113850000D03*
%TD*%
D46*
%TO.C,C35*%
X130420000Y-99600000D03*
X131980000Y-99600000D03*
%TD*%
D47*
%TO.C,U7*%
X148600000Y-104837500D03*
X147600000Y-104837500D03*
D48*
X148850000Y-103450000D03*
X148350000Y-103450000D03*
X147850000Y-103450000D03*
X147350000Y-103450000D03*
X147350000Y-106225000D03*
X147850000Y-106225000D03*
X148350000Y-106225000D03*
X148850000Y-106225000D03*
%TD*%
D49*
%TO.C,D1*%
X123930000Y-94360000D03*
D50*
X125650000Y-94360000D03*
X125650000Y-92250000D03*
X123730000Y-92250000D03*
%TD*%
D11*
%TO.C,R42*%
X173685000Y-90300000D03*
X173685000Y-91300000D03*
%TD*%
%TO.C,C41*%
X145900000Y-103650000D03*
X145900000Y-104650000D03*
%TD*%
D12*
%TO.C,R27*%
X131550000Y-114100000D03*
X131550000Y-113100000D03*
%TD*%
D14*
%TO.C,R45*%
X156625000Y-105700000D03*
X157625000Y-105700000D03*
%TD*%
D16*
%TO.C,D5*%
X170775000Y-94000000D03*
X172355000Y-94000000D03*
%TD*%
D11*
%TO.C,R34*%
X132850000Y-110750000D03*
X132850000Y-111750000D03*
%TD*%
D14*
%TO.C,R50*%
X156625000Y-100500000D03*
X157625000Y-100500000D03*
%TD*%
D11*
%TO.C,C22*%
X129650000Y-110750000D03*
X129650000Y-111750000D03*
%TD*%
D24*
%TO.C,U11*%
X156040000Y-93900000D03*
D25*
X156325000Y-93900000D03*
D24*
X156040000Y-94400000D03*
D25*
X156325000Y-94400000D03*
D24*
X156040000Y-94900000D03*
D25*
X156325000Y-94900000D03*
D24*
X156040000Y-95400000D03*
D25*
X156325000Y-95400000D03*
D24*
X156040000Y-95900000D03*
D25*
X156325000Y-95900000D03*
X159275000Y-95900000D03*
D24*
X159560000Y-95900000D03*
D25*
X159275000Y-95400000D03*
D24*
X159560000Y-95400000D03*
D25*
X159275000Y-94900000D03*
D24*
X159560000Y-94900000D03*
D25*
X159275000Y-94400000D03*
D24*
X159560000Y-94400000D03*
D25*
X159275000Y-93900000D03*
D24*
X159560000Y-93900000D03*
D26*
X157350000Y-94265000D03*
X157350000Y-95535000D03*
D27*
X157550000Y-93270000D03*
X157550000Y-96530000D03*
X158050000Y-93270000D03*
X158050000Y-96530000D03*
D26*
X158250000Y-94265000D03*
X158250000Y-95535000D03*
%TD*%
D14*
%TO.C,C29*%
X134350000Y-105450000D03*
X135350000Y-105450000D03*
%TD*%
D13*
%TO.C,R4*%
X134270000Y-87250000D03*
X132630000Y-87250000D03*
%TD*%
D34*
%TO.C,D10*%
X176050000Y-112850000D03*
X176050000Y-112150000D03*
%TD*%
D51*
%TO.C,U6*%
X128400000Y-105000000D03*
X128400000Y-106700000D03*
X130100000Y-105000000D03*
X130100000Y-106700000D03*
D52*
X125800000Y-103050000D03*
X125800000Y-103450000D03*
X125800000Y-103850000D03*
X125800000Y-104250000D03*
X125800000Y-104650000D03*
X125800000Y-105050000D03*
X125800000Y-105450000D03*
X125800000Y-105850000D03*
X125800000Y-106250000D03*
X125800000Y-106650000D03*
X125800000Y-107050000D03*
X125800000Y-107450000D03*
X125800000Y-107850000D03*
X125800000Y-108250000D03*
X125800000Y-108650000D03*
D53*
X126450000Y-109300000D03*
X126850000Y-109300000D03*
X127250000Y-109300000D03*
X127650000Y-109300000D03*
X128050000Y-109300000D03*
X128450000Y-109300000D03*
X128850000Y-109300000D03*
X129250000Y-109300000D03*
X129650000Y-109300000D03*
X130050000Y-109300000D03*
X130450000Y-109300000D03*
X130850000Y-109300000D03*
X131250000Y-109300000D03*
X131650000Y-109300000D03*
X132050000Y-109300000D03*
D52*
X132700000Y-108650000D03*
X132700000Y-108250000D03*
X132700000Y-107850000D03*
X132700000Y-107450000D03*
X132700000Y-107050000D03*
X132700000Y-106650000D03*
X132700000Y-106250000D03*
X132700000Y-105850000D03*
X132700000Y-105450000D03*
X132700000Y-105050000D03*
X132700000Y-104650000D03*
X132700000Y-104250000D03*
X132700000Y-103850000D03*
X132700000Y-103450000D03*
X132700000Y-103050000D03*
D53*
X132050000Y-102400000D03*
X131650000Y-102400000D03*
X131250000Y-102400000D03*
X130850000Y-102400000D03*
X130450000Y-102400000D03*
X130050000Y-102400000D03*
X129650000Y-102400000D03*
X129250000Y-102400000D03*
X128850000Y-102400000D03*
X128450000Y-102400000D03*
X128050000Y-102400000D03*
X127650000Y-102400000D03*
X127250000Y-102400000D03*
X126850000Y-102400000D03*
X126450000Y-102400000D03*
%TD*%
D11*
%TO.C,C10*%
X137300000Y-89216222D03*
X137300000Y-90216222D03*
%TD*%
%TO.C,C48*%
X155100000Y-95850000D03*
X155100000Y-96850000D03*
%TD*%
%TO.C,R37*%
X125050000Y-99150000D03*
X125050000Y-100150000D03*
%TD*%
D12*
%TO.C,R51*%
X161125000Y-105350000D03*
X161125000Y-104350000D03*
%TD*%
D54*
%TO.C,U5*%
X147100000Y-95400000D03*
X148100000Y-95400000D03*
D55*
X146850000Y-96787500D03*
X147350000Y-96787500D03*
X147850000Y-96787500D03*
X148350000Y-96787500D03*
X148350000Y-94012500D03*
X147850000Y-94012500D03*
X147350000Y-94012500D03*
X146850000Y-94012500D03*
%TD*%
D15*
%TO.C,R32*%
X122550000Y-106850000D03*
X121550000Y-106850000D03*
%TD*%
%TO.C,R26*%
X142512500Y-100600000D03*
X141512500Y-100600000D03*
%TD*%
D14*
%TO.C,R52*%
X156000000Y-92350000D03*
X157000000Y-92350000D03*
%TD*%
D11*
%TO.C,R35*%
X148850000Y-113350000D03*
X148850000Y-114350000D03*
%TD*%
D12*
%TO.C,R38*%
X148050000Y-114350000D03*
X148050000Y-113350000D03*
%TD*%
D14*
%TO.C,C31*%
X134350000Y-103050000D03*
X135350000Y-103050000D03*
%TD*%
%TO.C,C15*%
X137300000Y-84500000D03*
X138300000Y-84500000D03*
%TD*%
M02*
