%TF.GenerationSoftware,KiCad,Pcbnew,10.0.1*%
%TF.CreationDate,2026-05-12T22:33:51+08:00*%
%TF.ProjectId,feather,66656174-6865-4722-9e6b-696361645f70,rev?*%
%TF.SameCoordinates,Original*%
%TF.FileFunction,Legend,Bot*%
%TF.FilePolarity,Positive*%
%FSLAX46Y46*%
G04 Gerber Fmt 4.6, Leading zero omitted, Abs format (unit mm)*
G04 Created by KiCad (PCBNEW 10.0.1) date 2026-05-12 22:33:51*
%MOMM*%
%LPD*%
G01*
G04 APERTURE LIST*
%ADD10C,0.125000*%
%ADD11C,0.200000*%
%ADD12C,0.000000*%
%ADD13C,1.296000*%
%ADD14C,0.600000*%
%ADD15O,1.300000X2.300000*%
%ADD16O,1.300000X2.100000*%
%ADD17C,0.500000*%
%ADD18C,1.400000*%
%ADD19O,1.000000X1.800000*%
%ADD20C,1.200000*%
%ADD21O,1.400000X2.000000*%
%ADD22O,1.300000X2.000000*%
G04 APERTURE END LIST*
D10*
X205249704Y-79800000D02*
G75*
G02*
X205124704Y-79800000I-62500J0D01*
G01*
X205124704Y-79800000D02*
G75*
G02*
X205249704Y-79800000I62500J0D01*
G01*
X216194867Y-83400000D02*
G75*
G02*
X216069867Y-83400000I-62500J0D01*
G01*
X216069867Y-83400000D02*
G75*
G02*
X216194867Y-83400000I62500J0D01*
G01*
D11*
G36*
X173278314Y-53128982D02*
G01*
X173352846Y-53123277D01*
X173415424Y-53107223D01*
X173468157Y-53081807D01*
X173512665Y-53047161D01*
X173548889Y-53003722D01*
X173575119Y-52953071D01*
X173591512Y-52893797D01*
X173597295Y-52823984D01*
X173597295Y-52093698D01*
X173421013Y-52093698D01*
X173421013Y-52822580D01*
X173416517Y-52869808D01*
X173404129Y-52906862D01*
X173384682Y-52935969D01*
X173357865Y-52957817D01*
X173323211Y-52971540D01*
X173278314Y-52976514D01*
X173234393Y-52971592D01*
X173199931Y-52957912D01*
X173172740Y-52935969D01*
X173152838Y-52906800D01*
X173140196Y-52869745D01*
X173135615Y-52822580D01*
X173135615Y-52093698D01*
X172959333Y-52093698D01*
X172959333Y-52823984D01*
X172965078Y-52893840D01*
X172981356Y-52953129D01*
X173007383Y-53003764D01*
X173043291Y-53047161D01*
X173087467Y-53081729D01*
X173140148Y-53107148D01*
X173203029Y-53123247D01*
X173278314Y-53128982D01*
G37*
G36*
X172434944Y-53128982D02*
G01*
X172503176Y-53124672D01*
X172563166Y-53112352D01*
X172616111Y-53092651D01*
X172664587Y-53064455D01*
X172704360Y-53029840D01*
X172736400Y-52988421D01*
X172759671Y-52941463D01*
X172774061Y-52888051D01*
X172779082Y-52826793D01*
X172607013Y-52826793D01*
X172601550Y-52870367D01*
X172585975Y-52906147D01*
X172560179Y-52935969D01*
X172526773Y-52957850D01*
X172485709Y-52971594D01*
X172434944Y-52976514D01*
X172386034Y-52971659D01*
X172346861Y-52958140D01*
X172315326Y-52936641D01*
X172291122Y-52907504D01*
X172276415Y-52872422D01*
X172271240Y-52829602D01*
X172278502Y-52781933D01*
X172299938Y-52740758D01*
X172321294Y-52718217D01*
X172348212Y-52700756D01*
X172381760Y-52688307D01*
X172518841Y-52653319D01*
X172588981Y-52628490D01*
X172646632Y-52593544D01*
X172693719Y-52548417D01*
X172729323Y-52494133D01*
X172750722Y-52433640D01*
X172758077Y-52365113D01*
X172752371Y-52301321D01*
X172736073Y-52246484D01*
X172709694Y-52198904D01*
X172672775Y-52157384D01*
X172628115Y-52124349D01*
X172576201Y-52100214D01*
X172515657Y-52085064D01*
X172444713Y-52079715D01*
X172381125Y-52083865D01*
X172325315Y-52095724D01*
X172276125Y-52114703D01*
X172231163Y-52141644D01*
X172194400Y-52174415D01*
X172164933Y-52213377D01*
X172143491Y-52257296D01*
X172130307Y-52306554D01*
X172125732Y-52362304D01*
X172296397Y-52362304D01*
X172301088Y-52324961D01*
X172314559Y-52293756D01*
X172337002Y-52267233D01*
X172365974Y-52247519D01*
X172401303Y-52235223D01*
X172444713Y-52230840D01*
X172487192Y-52235162D01*
X172521332Y-52247228D01*
X172548944Y-52266500D01*
X172570157Y-52292424D01*
X172582948Y-52322974D01*
X172587412Y-52359556D01*
X172580346Y-52403658D01*
X172560179Y-52437897D01*
X172528496Y-52463864D01*
X172483914Y-52482655D01*
X172342559Y-52517643D01*
X172287690Y-52535646D01*
X172240292Y-52560274D01*
X172199376Y-52591465D01*
X172164261Y-52629567D01*
X172136032Y-52673065D01*
X172115814Y-52720394D01*
X172103434Y-52772272D01*
X172099171Y-52829602D01*
X172104004Y-52889044D01*
X172117903Y-52941319D01*
X172140448Y-52987688D01*
X172171496Y-53028821D01*
X172210126Y-53063436D01*
X172257257Y-53091919D01*
X172308853Y-53112002D01*
X172367656Y-53124575D01*
X172434944Y-53128982D01*
G37*
G36*
X171911898Y-53115000D02*
G01*
X171583086Y-53115000D01*
X171516718Y-53110748D01*
X171458869Y-53098639D01*
X171408269Y-53079340D01*
X171361978Y-53051780D01*
X171324038Y-53018101D01*
X171293536Y-52977918D01*
X171271324Y-52932518D01*
X171257668Y-52881605D01*
X171252930Y-52823984D01*
X171253793Y-52815619D01*
X171427808Y-52815619D01*
X171433058Y-52861263D01*
X171447846Y-52898129D01*
X171471894Y-52928215D01*
X171503600Y-52950470D01*
X171543203Y-52964461D01*
X171592916Y-52969492D01*
X171741233Y-52969492D01*
X171741233Y-52656128D01*
X171592916Y-52656128D01*
X171543420Y-52661450D01*
X171503815Y-52676326D01*
X171471894Y-52700214D01*
X171447749Y-52731980D01*
X171432997Y-52769861D01*
X171427808Y-52815619D01*
X171253793Y-52815619D01*
X171259358Y-52761680D01*
X171278148Y-52705771D01*
X171308434Y-52656528D01*
X171348063Y-52617660D01*
X171395824Y-52590246D01*
X171450218Y-52576383D01*
X171450218Y-52573574D01*
X171401808Y-52559773D01*
X171360509Y-52535753D01*
X171325043Y-52500851D01*
X171298422Y-52458527D01*
X171282308Y-52410971D01*
X171278749Y-52376287D01*
X171451622Y-52376287D01*
X171456444Y-52417409D01*
X171470045Y-52450632D01*
X171492227Y-52477770D01*
X171521275Y-52497815D01*
X171557014Y-52510351D01*
X171601282Y-52514834D01*
X171741233Y-52514834D01*
X171741233Y-52239206D01*
X171601282Y-52239206D01*
X171556074Y-52243735D01*
X171520156Y-52256310D01*
X171491495Y-52276270D01*
X171469679Y-52303282D01*
X171456337Y-52336053D01*
X171451622Y-52376287D01*
X171278749Y-52376287D01*
X171276744Y-52356748D01*
X171282488Y-52298277D01*
X171298978Y-52247840D01*
X171325933Y-52203797D01*
X171364183Y-52165078D01*
X171409411Y-52135015D01*
X171462504Y-52112779D01*
X171524923Y-52098695D01*
X171598473Y-52093698D01*
X171911898Y-52093698D01*
X171911898Y-53115000D01*
G37*
G36*
X170984507Y-52734469D02*
G01*
X170984507Y-52572170D01*
X170536810Y-52572170D01*
X170536810Y-52734469D01*
X170984507Y-52734469D01*
G37*
G36*
X169910266Y-53128982D02*
G01*
X169975650Y-53124571D01*
X170032592Y-53111999D01*
X170082397Y-53091919D01*
X170127598Y-53063507D01*
X170164866Y-53028703D01*
X170194992Y-52987016D01*
X170216717Y-52940247D01*
X170230173Y-52887263D01*
X170234865Y-52826793D01*
X170234865Y-52381905D01*
X170230171Y-52321435D01*
X170216715Y-52268472D01*
X170194992Y-52221742D01*
X170164862Y-52180018D01*
X170127593Y-52145195D01*
X170082397Y-52116779D01*
X170032592Y-52096698D01*
X169975650Y-52084126D01*
X169910266Y-52079715D01*
X169845834Y-52084106D01*
X169789354Y-52096659D01*
X169739602Y-52116779D01*
X169694323Y-52145173D01*
X169656800Y-52179997D01*
X169626273Y-52221742D01*
X169604170Y-52268513D01*
X169590495Y-52321472D01*
X169585729Y-52381905D01*
X169761950Y-52381905D01*
X169766697Y-52335884D01*
X169779787Y-52300062D01*
X169800479Y-52272117D01*
X169828424Y-52251425D01*
X169864246Y-52238335D01*
X169910266Y-52233588D01*
X169956341Y-52238319D01*
X169992454Y-52251399D01*
X170020847Y-52272117D01*
X170041894Y-52300111D01*
X170055176Y-52335934D01*
X170059987Y-52381905D01*
X170059987Y-52826793D01*
X170055175Y-52872805D01*
X170041891Y-52908647D01*
X170020847Y-52936641D01*
X169992459Y-52957324D01*
X169956346Y-52970385D01*
X169910266Y-52975109D01*
X169864241Y-52970369D01*
X169828419Y-52957298D01*
X169800479Y-52936641D01*
X169779789Y-52908695D01*
X169766698Y-52872855D01*
X169761950Y-52826793D01*
X169585729Y-52826793D01*
X169590494Y-52887226D01*
X169604168Y-52940207D01*
X169626273Y-52987016D01*
X169656797Y-53028723D01*
X169694319Y-53063528D01*
X169739602Y-53091919D01*
X169789354Y-53112039D01*
X169845834Y-53124592D01*
X169910266Y-53128982D01*
G37*
D12*
%TO.C,G\u002A\u002A\u002A*%
G36*
X217652741Y-82103491D02*
G01*
X217673865Y-82110604D01*
X217693151Y-82122398D01*
X217709706Y-82138710D01*
X217722640Y-82159375D01*
X217730805Y-82176562D01*
X217730805Y-82556250D01*
X217730805Y-82935937D01*
X217721981Y-82960907D01*
X217721943Y-82961015D01*
X217709134Y-82991018D01*
X217693092Y-83016894D01*
X217672742Y-83040375D01*
X217672667Y-83040450D01*
X217649181Y-83060783D01*
X217623295Y-83076813D01*
X217593275Y-83089613D01*
X217568305Y-83098437D01*
X217250468Y-83099317D01*
X216932631Y-83100197D01*
X216931718Y-83261817D01*
X216930805Y-83423437D01*
X216922640Y-83440625D01*
X216914272Y-83455178D01*
X216897983Y-83473806D01*
X216877977Y-83487901D01*
X216855072Y-83496782D01*
X216844270Y-83498420D01*
X216826488Y-83498271D01*
X216808187Y-83495534D01*
X216792233Y-83490496D01*
X216779963Y-83483527D01*
X216764416Y-83470717D01*
X216750821Y-83455339D01*
X216741134Y-83439349D01*
X216740448Y-83437827D01*
X216738953Y-83434283D01*
X216737702Y-83430558D01*
X216736669Y-83426102D01*
X216735829Y-83420361D01*
X216735156Y-83412785D01*
X216734626Y-83402821D01*
X216734212Y-83389917D01*
X216733891Y-83373523D01*
X216733636Y-83353086D01*
X216733422Y-83328054D01*
X216733224Y-83297875D01*
X216733018Y-83261999D01*
X216732105Y-83100561D01*
X216670518Y-83099419D01*
X216654517Y-83099057D01*
X216632591Y-83098144D01*
X216615288Y-83096590D01*
X216601594Y-83094115D01*
X216590499Y-83090437D01*
X216580992Y-83085272D01*
X216572061Y-83078340D01*
X216562695Y-83069358D01*
X216555053Y-83060939D01*
X216543062Y-83042793D01*
X216536327Y-83023008D01*
X216534195Y-83000000D01*
X216535269Y-82984358D01*
X216541587Y-82960934D01*
X216553306Y-82940374D01*
X216570125Y-82923148D01*
X216591742Y-82909730D01*
X216593634Y-82908839D01*
X216599617Y-82906244D01*
X216605509Y-82904323D01*
X216612366Y-82902953D01*
X216621245Y-82902009D01*
X216633204Y-82901369D01*
X216649298Y-82900907D01*
X216670585Y-82900502D01*
X216732241Y-82899436D01*
X216733085Y-82537999D01*
X216733930Y-82176562D01*
X216742095Y-82159375D01*
X216745784Y-82152487D01*
X216753966Y-82140119D01*
X216762408Y-82130040D01*
X216767701Y-82125107D01*
X216787258Y-82111866D01*
X216808545Y-82103958D01*
X216830670Y-82101221D01*
X216852741Y-82103491D01*
X216873865Y-82110604D01*
X216893151Y-82122398D01*
X216909706Y-82138710D01*
X216922640Y-82159375D01*
X216930805Y-82176562D01*
X216931650Y-82538281D01*
X216932494Y-82900000D01*
X217232367Y-82900000D01*
X217532241Y-82900000D01*
X217533085Y-82538281D01*
X217533930Y-82176562D01*
X217542095Y-82159375D01*
X217545784Y-82152487D01*
X217553966Y-82140119D01*
X217562408Y-82130040D01*
X217567701Y-82125107D01*
X217587258Y-82111866D01*
X217608545Y-82103958D01*
X217630670Y-82101221D01*
X217652741Y-82103491D01*
G37*
G36*
X215652741Y-82103491D02*
G01*
X215673865Y-82110604D01*
X215693151Y-82122398D01*
X215709706Y-82138710D01*
X215722640Y-82159375D01*
X215730805Y-82176562D01*
X215730805Y-82556250D01*
X215730805Y-82935937D01*
X215721981Y-82960907D01*
X215721943Y-82961015D01*
X215709134Y-82991018D01*
X215693092Y-83016894D01*
X215672742Y-83040375D01*
X215672667Y-83040450D01*
X215649181Y-83060783D01*
X215623295Y-83076813D01*
X215593275Y-83089613D01*
X215568305Y-83098437D01*
X215250468Y-83099317D01*
X214932631Y-83100197D01*
X214931718Y-83261817D01*
X214930805Y-83423437D01*
X214922640Y-83440625D01*
X214914272Y-83455178D01*
X214897983Y-83473806D01*
X214877977Y-83487901D01*
X214855072Y-83496782D01*
X214844270Y-83498420D01*
X214826488Y-83498271D01*
X214808187Y-83495534D01*
X214792233Y-83490496D01*
X214779963Y-83483527D01*
X214764416Y-83470717D01*
X214750821Y-83455339D01*
X214741134Y-83439349D01*
X214740448Y-83437827D01*
X214738953Y-83434283D01*
X214737702Y-83430558D01*
X214736669Y-83426102D01*
X214735829Y-83420361D01*
X214735156Y-83412785D01*
X214734626Y-83402821D01*
X214734212Y-83389917D01*
X214733891Y-83373523D01*
X214733636Y-83353086D01*
X214733422Y-83328054D01*
X214733224Y-83297875D01*
X214733018Y-83261999D01*
X214732105Y-83100561D01*
X214670518Y-83099419D01*
X214654517Y-83099057D01*
X214632591Y-83098144D01*
X214615288Y-83096590D01*
X214601594Y-83094115D01*
X214590499Y-83090437D01*
X214580992Y-83085272D01*
X214572061Y-83078340D01*
X214562695Y-83069358D01*
X214555053Y-83060939D01*
X214543062Y-83042793D01*
X214536327Y-83023008D01*
X214534195Y-83000000D01*
X214535269Y-82984358D01*
X214541587Y-82960934D01*
X214553306Y-82940374D01*
X214570125Y-82923148D01*
X214591742Y-82909730D01*
X214593634Y-82908839D01*
X214599617Y-82906244D01*
X214605509Y-82904323D01*
X214612366Y-82902953D01*
X214621245Y-82902009D01*
X214633204Y-82901369D01*
X214649298Y-82900907D01*
X214670585Y-82900502D01*
X214732241Y-82899436D01*
X214733085Y-82537999D01*
X214733930Y-82176562D01*
X214742095Y-82159375D01*
X214745784Y-82152487D01*
X214753966Y-82140119D01*
X214762408Y-82130040D01*
X214767701Y-82125107D01*
X214787258Y-82111866D01*
X214808545Y-82103958D01*
X214830670Y-82101221D01*
X214852741Y-82103491D01*
X214873865Y-82110604D01*
X214893151Y-82122398D01*
X214909706Y-82138710D01*
X214922640Y-82159375D01*
X214930805Y-82176562D01*
X214931650Y-82538281D01*
X214932494Y-82900000D01*
X215232367Y-82900000D01*
X215532241Y-82900000D01*
X215533085Y-82538281D01*
X215533930Y-82176562D01*
X215542095Y-82159375D01*
X215545784Y-82152487D01*
X215553966Y-82140119D01*
X215562408Y-82130040D01*
X215567701Y-82125107D01*
X215587258Y-82111866D01*
X215608545Y-82103958D01*
X215630670Y-82101221D01*
X215652741Y-82103491D01*
G37*
G36*
X204627829Y-78509727D02*
G01*
X204645777Y-78520557D01*
X204663924Y-78537948D01*
X204677477Y-78559375D01*
X204685642Y-78576562D01*
X204685642Y-78875000D01*
X204685642Y-79173437D01*
X204677477Y-79190625D01*
X204666647Y-79208572D01*
X204649256Y-79226719D01*
X204627829Y-79240272D01*
X204610642Y-79248437D01*
X204338767Y-79250153D01*
X204307069Y-79250354D01*
X204263417Y-79250641D01*
X204225329Y-79250913D01*
X204192391Y-79251180D01*
X204164188Y-79251455D01*
X204140306Y-79251749D01*
X204120329Y-79252074D01*
X204103844Y-79252442D01*
X204090435Y-79252863D01*
X204079688Y-79253350D01*
X204071188Y-79253915D01*
X204064520Y-79254568D01*
X204059271Y-79255322D01*
X204055024Y-79256188D01*
X204051366Y-79257177D01*
X204047882Y-79258302D01*
X204012145Y-79273487D01*
X203979874Y-79293547D01*
X203951603Y-79318035D01*
X203927725Y-79346550D01*
X203908634Y-79378693D01*
X203894724Y-79414062D01*
X203893173Y-79420134D01*
X203890533Y-79437320D01*
X203889052Y-79457893D01*
X203888730Y-79479947D01*
X203889569Y-79501576D01*
X203891567Y-79520874D01*
X203894724Y-79535937D01*
X203908573Y-79571180D01*
X203927645Y-79603336D01*
X203951506Y-79631865D01*
X203979762Y-79656369D01*
X204012018Y-79676446D01*
X204047882Y-79691697D01*
X204050158Y-79692447D01*
X204053709Y-79693482D01*
X204057704Y-79694390D01*
X204062558Y-79695181D01*
X204068687Y-79695868D01*
X204076503Y-79696462D01*
X204086423Y-79696975D01*
X204098861Y-79697418D01*
X204114231Y-79697802D01*
X204132949Y-79698141D01*
X204155428Y-79698444D01*
X204182084Y-79698725D01*
X204213331Y-79698993D01*
X204249585Y-79699262D01*
X204291258Y-79699543D01*
X204338767Y-79699846D01*
X204610642Y-79701562D01*
X204627829Y-79709727D01*
X204641584Y-79717445D01*
X204660314Y-79733259D01*
X204674063Y-79752601D01*
X204682532Y-79775004D01*
X204685421Y-79800000D01*
X204685405Y-79803003D01*
X204684587Y-79817257D01*
X204682103Y-79828812D01*
X204677366Y-79840625D01*
X204668527Y-79855962D01*
X204652306Y-79874267D01*
X204632467Y-79888089D01*
X204609909Y-79896680D01*
X204608491Y-79896880D01*
X204600918Y-79897311D01*
X204587687Y-79897697D01*
X204569214Y-79898036D01*
X204545910Y-79898322D01*
X204518190Y-79898554D01*
X204486468Y-79898729D01*
X204451157Y-79898843D01*
X204412671Y-79898893D01*
X204371424Y-79898877D01*
X204327829Y-79898790D01*
X204303577Y-79898723D01*
X204259093Y-79898590D01*
X204220216Y-79898453D01*
X204186515Y-79898302D01*
X204157562Y-79898126D01*
X204132925Y-79897915D01*
X204112175Y-79897658D01*
X204094883Y-79897345D01*
X204080617Y-79896966D01*
X204068948Y-79896510D01*
X204059446Y-79895968D01*
X204051682Y-79895327D01*
X204045224Y-79894579D01*
X204039643Y-79893713D01*
X204034509Y-79892718D01*
X204029392Y-79891584D01*
X204002097Y-79884603D01*
X203953443Y-79868080D01*
X203908762Y-79847070D01*
X203867513Y-79821259D01*
X203829156Y-79790333D01*
X203793151Y-79753976D01*
X203775117Y-79732203D01*
X203747809Y-79691739D01*
X203725058Y-79647574D01*
X203707190Y-79600384D01*
X203694533Y-79550843D01*
X203693807Y-79546891D01*
X203691066Y-79525043D01*
X203689469Y-79499447D01*
X203689018Y-79472083D01*
X203689711Y-79444927D01*
X203691550Y-79419959D01*
X203694533Y-79399156D01*
X203706695Y-79351205D01*
X203724757Y-79303276D01*
X203747894Y-79258422D01*
X203775808Y-79216988D01*
X203808200Y-79179319D01*
X203844771Y-79145761D01*
X203885224Y-79116658D01*
X203929258Y-79092356D01*
X203976577Y-79073200D01*
X203979018Y-79072377D01*
X203990453Y-79068543D01*
X204000767Y-79065224D01*
X204010486Y-79062380D01*
X204020136Y-79059972D01*
X204030244Y-79057959D01*
X204041338Y-79056302D01*
X204053942Y-79054960D01*
X204068584Y-79053895D01*
X204085790Y-79053066D01*
X204106087Y-79052433D01*
X204130001Y-79051957D01*
X204158059Y-79051598D01*
X204190787Y-79051315D01*
X204228712Y-79051070D01*
X204272361Y-79050822D01*
X204487204Y-79049611D01*
X204487204Y-78874878D01*
X204487204Y-78700145D01*
X204175486Y-78699291D01*
X203863767Y-78698437D01*
X203847855Y-78691233D01*
X203836843Y-78685071D01*
X203820504Y-78671929D01*
X203806268Y-78655933D01*
X203796098Y-78639062D01*
X203790970Y-78623167D01*
X203788635Y-78601400D01*
X203790668Y-78579371D01*
X203797043Y-78559375D01*
X203807922Y-78541247D01*
X203825217Y-78523225D01*
X203846579Y-78509727D01*
X203863767Y-78501562D01*
X204237204Y-78501562D01*
X204610642Y-78501562D01*
X204627829Y-78509727D01*
G37*
G36*
X206627829Y-78509727D02*
G01*
X206634717Y-78513416D01*
X206647085Y-78521598D01*
X206657164Y-78530040D01*
X206662097Y-78535333D01*
X206675338Y-78554890D01*
X206683246Y-78576177D01*
X206685983Y-78598302D01*
X206683713Y-78620373D01*
X206676600Y-78641497D01*
X206664806Y-78660783D01*
X206648494Y-78677338D01*
X206627829Y-78690272D01*
X206610642Y-78698437D01*
X206327829Y-78700051D01*
X206308090Y-78700164D01*
X206261991Y-78700432D01*
X206221580Y-78700681D01*
X206186452Y-78700922D01*
X206156205Y-78701166D01*
X206130435Y-78701425D01*
X206108738Y-78701711D01*
X206090710Y-78702034D01*
X206075948Y-78702406D01*
X206064047Y-78702838D01*
X206054605Y-78703342D01*
X206047217Y-78703929D01*
X206041481Y-78704610D01*
X206036991Y-78705397D01*
X206033345Y-78706301D01*
X206030139Y-78707333D01*
X206026969Y-78708504D01*
X206014377Y-78713632D01*
X205981194Y-78731235D01*
X205952643Y-78753031D01*
X205928708Y-78779038D01*
X205909373Y-78809272D01*
X205894621Y-78843750D01*
X205894509Y-78844082D01*
X205891755Y-78854157D01*
X205889988Y-78865798D01*
X205889046Y-78880561D01*
X205888768Y-78900000D01*
X205888769Y-78900752D01*
X205889066Y-78920006D01*
X205890033Y-78934638D01*
X205891831Y-78946201D01*
X205894621Y-78956250D01*
X205899228Y-78968709D01*
X205915595Y-79001737D01*
X205936560Y-79030532D01*
X205962114Y-79055087D01*
X205992253Y-79075395D01*
X206026969Y-79091448D01*
X206030044Y-79092574D01*
X206033778Y-79093764D01*
X206037978Y-79094785D01*
X206043128Y-79095652D01*
X206049708Y-79096385D01*
X206058201Y-79097001D01*
X206069088Y-79097519D01*
X206082852Y-79097957D01*
X206099975Y-79098332D01*
X206120937Y-79098662D01*
X206146222Y-79098966D01*
X206176311Y-79099262D01*
X206211686Y-79099568D01*
X206252829Y-79099901D01*
X206460642Y-79101562D01*
X206477829Y-79109727D01*
X206484717Y-79113416D01*
X206497085Y-79121598D01*
X206507164Y-79130040D01*
X206512097Y-79135333D01*
X206525338Y-79154890D01*
X206533246Y-79176177D01*
X206535983Y-79198302D01*
X206533713Y-79220373D01*
X206526600Y-79241497D01*
X206514806Y-79260783D01*
X206498494Y-79277338D01*
X206477829Y-79290272D01*
X206460642Y-79298437D01*
X206252829Y-79300098D01*
X206218411Y-79300376D01*
X206182068Y-79300685D01*
X206151094Y-79300981D01*
X206125009Y-79301283D01*
X206103330Y-79301607D01*
X206085574Y-79301973D01*
X206071261Y-79302398D01*
X206059908Y-79302901D01*
X206051033Y-79303499D01*
X206044155Y-79304210D01*
X206038792Y-79305053D01*
X206034461Y-79306045D01*
X206030681Y-79307205D01*
X206026969Y-79308551D01*
X206014395Y-79313643D01*
X205981268Y-79331175D01*
X205952720Y-79352958D01*
X205928759Y-79378986D01*
X205909390Y-79409252D01*
X205894621Y-79443750D01*
X205893780Y-79446453D01*
X205890701Y-79462009D01*
X205888910Y-79481286D01*
X205888406Y-79502316D01*
X205889190Y-79523131D01*
X205891262Y-79541765D01*
X205894621Y-79556250D01*
X205899219Y-79568688D01*
X205915558Y-79601691D01*
X205936486Y-79630458D01*
X205962020Y-79655003D01*
X205992176Y-79675343D01*
X206026969Y-79691495D01*
X206028235Y-79691972D01*
X206031371Y-79693088D01*
X206034702Y-79694068D01*
X206038631Y-79694924D01*
X206043562Y-79695668D01*
X206049898Y-79696311D01*
X206058044Y-79696864D01*
X206068403Y-79697338D01*
X206081379Y-79697745D01*
X206097375Y-79698097D01*
X206116795Y-79698404D01*
X206140044Y-79698678D01*
X206167523Y-79698930D01*
X206199638Y-79699172D01*
X206236791Y-79699414D01*
X206279387Y-79699669D01*
X206327829Y-79699948D01*
X206610642Y-79701562D01*
X206627829Y-79709727D01*
X206641584Y-79717445D01*
X206660314Y-79733259D01*
X206674063Y-79752601D01*
X206682532Y-79775004D01*
X206685421Y-79800000D01*
X206685405Y-79803003D01*
X206684587Y-79817257D01*
X206682103Y-79828812D01*
X206677366Y-79840625D01*
X206668480Y-79856029D01*
X206652259Y-79874309D01*
X206632434Y-79888107D01*
X206609909Y-79896670D01*
X206607255Y-79896968D01*
X206598343Y-79897379D01*
X206583866Y-79897748D01*
X206564234Y-79898070D01*
X206539857Y-79898345D01*
X206511144Y-79898567D01*
X206478505Y-79898735D01*
X206442351Y-79898846D01*
X206403091Y-79898896D01*
X206361134Y-79898882D01*
X206316892Y-79898802D01*
X206273026Y-79898688D01*
X206229894Y-79898564D01*
X206192215Y-79898432D01*
X206159568Y-79898283D01*
X206131533Y-79898106D01*
X206107691Y-79897893D01*
X206087622Y-79897633D01*
X206070906Y-79897316D01*
X206057123Y-79896934D01*
X206045854Y-79896474D01*
X206036679Y-79895929D01*
X206029178Y-79895288D01*
X206022931Y-79894542D01*
X206017518Y-79893680D01*
X206012520Y-79892693D01*
X206007517Y-79891570D01*
X205992505Y-79887831D01*
X205943723Y-79871854D01*
X205898264Y-79850918D01*
X205856428Y-79825252D01*
X205818515Y-79795086D01*
X205784826Y-79760650D01*
X205755659Y-79722175D01*
X205731316Y-79679890D01*
X205719024Y-79653324D01*
X205705270Y-79616394D01*
X205695987Y-79579771D01*
X205690737Y-79541594D01*
X205689085Y-79500000D01*
X205689126Y-79493781D01*
X205692719Y-79443251D01*
X205702098Y-79395074D01*
X205717256Y-79349273D01*
X205738184Y-79305871D01*
X205764871Y-79264892D01*
X205797310Y-79226358D01*
X205822446Y-79199803D01*
X205800714Y-79177245D01*
X205778967Y-79152819D01*
X205749693Y-79112327D01*
X205725791Y-79068703D01*
X205707370Y-79022158D01*
X205694542Y-78972906D01*
X205691922Y-78955804D01*
X205689811Y-78930526D01*
X205689009Y-78902952D01*
X205689518Y-78875183D01*
X205691339Y-78849322D01*
X205694472Y-78827469D01*
X205702700Y-78793304D01*
X205719211Y-78746220D01*
X205740909Y-78702165D01*
X205767492Y-78661483D01*
X205798658Y-78624520D01*
X205834105Y-78591620D01*
X205873531Y-78563128D01*
X205916634Y-78539389D01*
X205963111Y-78520747D01*
X205968144Y-78519071D01*
X205977156Y-78516100D01*
X205985518Y-78513485D01*
X205993663Y-78511204D01*
X206002021Y-78509234D01*
X206011023Y-78507553D01*
X206021101Y-78506136D01*
X206032685Y-78504963D01*
X206046207Y-78504009D01*
X206062099Y-78503253D01*
X206080791Y-78502670D01*
X206102715Y-78502240D01*
X206128301Y-78501938D01*
X206157982Y-78501742D01*
X206192187Y-78501629D01*
X206231349Y-78501577D01*
X206275899Y-78501562D01*
X206326267Y-78501562D01*
X206610642Y-78501562D01*
X206627829Y-78509727D01*
G37*
%TD*%
%LPC*%
D13*
%TO.C,H4*%
X217900000Y-48500000D03*
%TD*%
D14*
%TO.C,J1*%
X174490000Y-52300000D03*
X168710000Y-52300000D03*
D15*
X175930000Y-52820000D03*
D16*
X175930000Y-48620000D03*
D17*
X173600000Y-50000000D03*
X173600000Y-48000000D03*
X169600000Y-50000000D03*
X169600000Y-48000000D03*
D15*
X167270000Y-52820000D03*
D16*
X167270000Y-48620000D03*
%TD*%
D18*
%TO.C,CN1*%
X205050000Y-82000000D03*
X205050000Y-75020000D03*
D19*
X208350000Y-81200000D03*
X202050000Y-81900000D03*
X202050000Y-79100000D03*
X207750000Y-75500000D03*
X206650000Y-73400000D03*
X203650000Y-73400000D03*
X202250000Y-73400000D03*
%TD*%
D13*
%TO.C,H2*%
X221700000Y-48500000D03*
%TD*%
D20*
%TO.C,CN2*%
X216150000Y-78700000D03*
X214600000Y-71200000D03*
D21*
X212900000Y-82100000D03*
X219400000Y-81600000D03*
X212900000Y-79400000D03*
X219400000Y-78900000D03*
X212900000Y-76700000D03*
X219400000Y-76200000D03*
D22*
X212700000Y-68200000D03*
X219600000Y-68200000D03*
X217750000Y-68200000D03*
X214200000Y-68200000D03*
D21*
X212100000Y-72950000D03*
X220200000Y-72950000D03*
%TD*%
D13*
%TO.C,H1*%
X165000000Y-82800000D03*
%TD*%
%TO.C,H3*%
X219800000Y-48500000D03*
%TD*%
%LPD*%
M02*
